ISO-10303-21;
HEADER;
/* Generated by software containing ST-Developer
 * from STEP Tools, Inc. (www.steptools.com) 
 */

FILE_DESCRIPTION(
/* description */ (''),
/* implementation_level */ '2;1');

FILE_NAME(
/* name */ 'LACK Motor Wire Holder.step',
/* time_stamp */ '2026-03-25T02:16:59-04:00',
/* author */ (''),
/* organization */ (''),
/* preprocessor_version */ 'ST-DEVELOPER v20.1',
/* originating_system */ 'Autodesk Translation Framework v14.24.0.0',
/* authorisation */ '');

FILE_SCHEMA (('AUTOMOTIVE_DESIGN { 1 0 10303 214 3 1 1 }'));
ENDSEC;

DATA;
#10=MECHANICAL_DESIGN_GEOMETRIC_PRESENTATION_REPRESENTATION('',(#13),#945);
#11=SHAPE_REPRESENTATION_RELATIONSHIP('SRR','None',#952,#12);
#12=ADVANCED_BREP_SHAPE_REPRESENTATION('',(#14),#944);
#13=STYLED_ITEM('',(#962),#14);
#14=MANIFOLD_SOLID_BREP('Body1',#521);
#15=B_SPLINE_CURVE_WITH_KNOTS('',3,(#822,#823,#824,#825,#826,#827,#828,
#829,#830,#831),.UNSPECIFIED.,.F.,.F.,(4,2,2,2,4),(0.344252970239389,0.445477948882167,
0.546702927524944,0.621588827856866,0.696474728188787),.UNSPECIFIED.);
#16=B_SPLINE_CURVE_WITH_KNOTS('',3,(#832,#833,#834,#835,#836,#837,#838,
#839,#840,#841),.UNSPECIFIED.,.F.,.F.,(4,2,2,2,4),(0.,0.0748859003319212,
0.149771800663842,0.25099677930662,0.352221757949398),.UNSPECIFIED.);
#17=B_SPLINE_CURVE_WITH_KNOTS('',3,(#859,#860,#861,#862,#863,#864,#865,
#866,#867,#868),.UNSPECIFIED.,.F.,.F.,(4,2,2,2,4),(0.344252967721303,0.445477944854544,
0.546702921987784,0.621588822317042,0.6964747226463),.UNSPECIFIED.);
#18=B_SPLINE_CURVE_WITH_KNOTS('',3,(#869,#870,#871,#872,#873,#874,#875,
#876,#877,#878),.UNSPECIFIED.,.F.,.F.,(4,2,2,2,4),(0.,0.0748859003292579,
0.149771800658516,0.250996777791756,0.352221754924996),.UNSPECIFIED.);
#19=B_SPLINE_CURVE_WITH_KNOTS('',3,(#880,#881,#882,#883,#884,#885,#886,
#887,#888,#889),.UNSPECIFIED.,.F.,.F.,(4,2,2,2,4),(0.,0.121569938460739,
0.243139876921478,0.325475094237763,0.407810311554049),.UNSPECIFIED.);
#20=B_SPLINE_CURVE_WITH_KNOTS('',3,(#891,#892,#893,#894,#895,#896,#897,
#898,#899,#900),.UNSPECIFIED.,.F.,.F.,(4,2,2,2,4),(1.01821852911234,1.10055374642862,
1.18288896374491,1.30445890220565,1.42602884066638),.UNSPECIFIED.);
#21=B_SPLINE_CURVE_WITH_KNOTS('',3,(#903,#904,#905,#906,#907,#908,#909,
#910,#911,#912),.UNSPECIFIED.,.F.,.F.,(4,2,2,2,4),(1.01823197697493,1.10056719429121,
1.1829024116075,1.30447235006823,1.42604228852897),.UNSPECIFIED.);
#22=B_SPLINE_CURVE_WITH_KNOTS('',3,(#916,#917,#918,#919,#920,#921,#922,
#923,#924,#925),.UNSPECIFIED.,.F.,.F.,(4,2,2,2,4),(0.,0.121569938460739,
0.243139876921478,0.325475094237763,0.407810311554049),.UNSPECIFIED.);
#23=CIRCLE('',#543,1.);
#24=CIRCLE('',#544,1.);
#25=CIRCLE('',#546,5.);
#26=CIRCLE('',#547,5.);
#27=CIRCLE('',#549,3.);
#28=CIRCLE('',#550,50.);
#29=CIRCLE('',#552,1.);
#30=CIRCLE('',#553,1.);
#31=CIRCLE('',#556,5.);
#32=CIRCLE('',#557,50.);
#33=CIRCLE('',#558,3.);
#34=CIRCLE('',#560,50.);
#35=CIRCLE('',#563,50.);
#36=CIRCLE('',#569,3.);
#37=CIRCLE('',#573,3.);
#38=CIRCLE('',#575,5.);
#39=CYLINDRICAL_SURFACE('',#542,1.);
#40=CYLINDRICAL_SURFACE('',#545,5.);
#41=CYLINDRICAL_SURFACE('',#551,1.);
#42=CYLINDRICAL_SURFACE('',#559,50.);
#43=CYLINDRICAL_SURFACE('',#562,50.);
#44=CYLINDRICAL_SURFACE('',#564,2.);
#45=CYLINDRICAL_SURFACE('',#565,2.);
#46=CYLINDRICAL_SURFACE('',#566,2.);
#47=CYLINDRICAL_SURFACE('',#567,2.);
#48=CYLINDRICAL_SURFACE('',#570,3.);
#49=CYLINDRICAL_SURFACE('',#572,3.);
#50=CYLINDRICAL_SURFACE('',#574,5.);
#51=FACE_OUTER_BOUND('',#79,.T.);
#52=FACE_OUTER_BOUND('',#80,.T.);
#53=FACE_OUTER_BOUND('',#81,.T.);
#54=FACE_OUTER_BOUND('',#82,.T.);
#55=FACE_OUTER_BOUND('',#83,.T.);
#56=FACE_OUTER_BOUND('',#84,.T.);
#57=FACE_OUTER_BOUND('',#85,.T.);
#58=FACE_OUTER_BOUND('',#86,.T.);
#59=FACE_OUTER_BOUND('',#87,.T.);
#60=FACE_OUTER_BOUND('',#88,.T.);
#61=FACE_OUTER_BOUND('',#89,.T.);
#62=FACE_OUTER_BOUND('',#90,.T.);
#63=FACE_OUTER_BOUND('',#91,.T.);
#64=FACE_OUTER_BOUND('',#92,.T.);
#65=FACE_OUTER_BOUND('',#93,.T.);
#66=FACE_OUTER_BOUND('',#94,.T.);
#67=FACE_OUTER_BOUND('',#95,.T.);
#68=FACE_OUTER_BOUND('',#96,.T.);
#69=FACE_OUTER_BOUND('',#97,.T.);
#70=FACE_OUTER_BOUND('',#98,.T.);
#71=FACE_OUTER_BOUND('',#99,.T.);
#72=FACE_OUTER_BOUND('',#100,.T.);
#73=FACE_OUTER_BOUND('',#101,.T.);
#74=FACE_OUTER_BOUND('',#102,.T.);
#75=FACE_OUTER_BOUND('',#103,.T.);
#76=FACE_OUTER_BOUND('',#104,.T.);
#77=FACE_OUTER_BOUND('',#105,.T.);
#78=FACE_OUTER_BOUND('',#106,.T.);
#79=EDGE_LOOP('',(#329,#330,#331,#332));
#80=EDGE_LOOP('',(#333,#334,#335,#336));
#81=EDGE_LOOP('',(#337,#338,#339,#340,#341,#342,#343,#344,#345,#346));
#82=EDGE_LOOP('',(#347,#348,#349,#350));
#83=EDGE_LOOP('',(#351,#352,#353,#354));
#84=EDGE_LOOP('',(#355,#356,#357,#358,#359,#360,#361,#362,#363,#364));
#85=EDGE_LOOP('',(#365,#366,#367,#368));
#86=EDGE_LOOP('',(#369,#370,#371,#372));
#87=EDGE_LOOP('',(#373,#374,#375,#376));
#88=EDGE_LOOP('',(#377,#378,#379,#380,#381,#382));
#89=EDGE_LOOP('',(#383,#384,#385,#386));
#90=EDGE_LOOP('',(#387,#388,#389,#390));
#91=EDGE_LOOP('',(#391,#392,#393,#394,#395,#396));
#92=EDGE_LOOP('',(#397,#398,#399,#400,#401,#402));
#93=EDGE_LOOP('',(#403,#404,#405,#406,#407,#408,#409,#410,#411,#412,#413,
#414));
#94=EDGE_LOOP('',(#415,#416,#417,#418,#419,#420));
#95=EDGE_LOOP('',(#421,#422,#423,#424));
#96=EDGE_LOOP('',(#425,#426,#427,#428));
#97=EDGE_LOOP('',(#429,#430,#431,#432));
#98=EDGE_LOOP('',(#433,#434,#435,#436));
#99=EDGE_LOOP('',(#437,#438,#439,#440,#441,#442));
#100=EDGE_LOOP('',(#443,#444,#445,#446,#447,#448));
#101=EDGE_LOOP('',(#449,#450,#451,#452));
#102=EDGE_LOOP('',(#453,#454,#455,#456,#457,#458));
#103=EDGE_LOOP('',(#459,#460,#461,#462));
#104=EDGE_LOOP('',(#463,#464,#465,#466,#467,#468));
#105=EDGE_LOOP('',(#469,#470,#471,#472));
#106=EDGE_LOOP('',(#473,#474,#475,#476));
#107=LINE('',#723,#157);
#108=LINE('',#725,#158);
#109=LINE('',#727,#159);
#110=LINE('',#728,#160);
#111=LINE('',#731,#161);
#112=LINE('',#733,#162);
#113=LINE('',#734,#163);
#114=LINE('',#737,#164);
#115=LINE('',#739,#165);
#116=LINE('',#741,#166);
#117=LINE('',#743,#167);
#118=LINE('',#745,#168);
#119=LINE('',#747,#169);
#120=LINE('',#749,#170);
#121=LINE('',#750,#171);
#122=LINE('',#753,#172);
#123=LINE('',#754,#173);
#124=LINE('',#757,#174);
#125=LINE('',#758,#175);
#126=LINE('',#761,#176);
#127=LINE('',#763,#177);
#128=LINE('',#765,#178);
#129=LINE('',#767,#179);
#130=LINE('',#769,#180);
#131=LINE('',#770,#181);
#132=LINE('',#772,#182);
#133=LINE('',#778,#183);
#134=LINE('',#781,#184);
#135=LINE('',#786,#185);
#136=LINE('',#790,#186);
#137=LINE('',#794,#187);
#138=LINE('',#801,#188);
#139=LINE('',#804,#189);
#140=LINE('',#807,#190);
#141=LINE('',#809,#191);
#142=LINE('',#810,#192);
#143=LINE('',#817,#193);
#144=LINE('',#844,#194);
#145=LINE('',#845,#195);
#146=LINE('',#847,#196);
#147=LINE('',#849,#197);
#148=LINE('',#850,#198);
#149=LINE('',#852,#199);
#150=LINE('',#853,#200);
#151=LINE('',#856,#201);
#152=LINE('',#913,#202);
#153=LINE('',#926,#203);
#154=LINE('',#930,#204);
#155=LINE('',#932,#205);
#156=LINE('',#940,#206);
#157=VECTOR('',#583,10.);
#158=VECTOR('',#584,10.);
#159=VECTOR('',#585,10.);
#160=VECTOR('',#586,10.);
#161=VECTOR('',#589,10.);
#162=VECTOR('',#590,10.);
#163=VECTOR('',#591,10.);
#164=VECTOR('',#594,10.);
#165=VECTOR('',#595,10.);
#166=VECTOR('',#596,10.);
#167=VECTOR('',#597,10.);
#168=VECTOR('',#598,10.);
#169=VECTOR('',#599,10.);
#170=VECTOR('',#600,10.);
#171=VECTOR('',#601,10.);
#172=VECTOR('',#604,10.);
#173=VECTOR('',#605,10.);
#174=VECTOR('',#608,10.);
#175=VECTOR('',#609,10.);
#176=VECTOR('',#612,10.);
#177=VECTOR('',#613,10.);
#178=VECTOR('',#614,10.);
#179=VECTOR('',#615,10.);
#180=VECTOR('',#616,10.);
#181=VECTOR('',#617,10.);
#182=VECTOR('',#620,10.);
#183=VECTOR('',#625,10.);
#184=VECTOR('',#628,10.);
#185=VECTOR('',#633,50.);
#186=VECTOR('',#638,10.);
#187=VECTOR('',#641,10.);
#188=VECTOR('',#648,10.);
#189=VECTOR('',#651,10.);
#190=VECTOR('',#654,10.);
#191=VECTOR('',#655,10.);
#192=VECTOR('',#656,10.);
#193=VECTOR('',#663,10.);
#194=VECTOR('',#672,10.);
#195=VECTOR('',#673,10.);
#196=VECTOR('',#674,10.);
#197=VECTOR('',#675,10.);
#198=VECTOR('',#676,10.);
#199=VECTOR('',#677,10.);
#200=VECTOR('',#678,10.);
#201=VECTOR('',#681,50.);
#202=VECTOR('',#690,10.);
#203=VECTOR('',#693,10.);
#204=VECTOR('',#698,10.);
#205=VECTOR('',#701,10.);
#206=VECTOR('',#716,10.);
#207=VERTEX_POINT('',#721);
#208=VERTEX_POINT('',#722);
#209=VERTEX_POINT('',#724);
#210=VERTEX_POINT('',#726);
#211=VERTEX_POINT('',#730);
#212=VERTEX_POINT('',#732);
#213=VERTEX_POINT('',#736);
#214=VERTEX_POINT('',#738);
#215=VERTEX_POINT('',#740);
#216=VERTEX_POINT('',#742);
#217=VERTEX_POINT('',#744);
#218=VERTEX_POINT('',#746);
#219=VERTEX_POINT('',#748);
#220=VERTEX_POINT('',#752);
#221=VERTEX_POINT('',#756);
#222=VERTEX_POINT('',#760);
#223=VERTEX_POINT('',#762);
#224=VERTEX_POINT('',#764);
#225=VERTEX_POINT('',#766);
#226=VERTEX_POINT('',#768);
#227=VERTEX_POINT('',#774);
#228=VERTEX_POINT('',#775);
#229=VERTEX_POINT('',#777);
#230=VERTEX_POINT('',#779);
#231=VERTEX_POINT('',#783);
#232=VERTEX_POINT('',#785);
#233=VERTEX_POINT('',#789);
#234=VERTEX_POINT('',#791);
#235=VERTEX_POINT('',#793);
#236=VERTEX_POINT('',#797);
#237=VERTEX_POINT('',#798);
#238=VERTEX_POINT('',#800);
#239=VERTEX_POINT('',#802);
#240=VERTEX_POINT('',#806);
#241=VERTEX_POINT('',#808);
#242=VERTEX_POINT('',#812);
#243=VERTEX_POINT('',#814);
#244=VERTEX_POINT('',#816);
#245=VERTEX_POINT('',#820);
#246=VERTEX_POINT('',#843);
#247=VERTEX_POINT('',#846);
#248=VERTEX_POINT('',#848);
#249=VERTEX_POINT('',#851);
#250=VERTEX_POINT('',#855);
#251=VERTEX_POINT('',#857);
#252=VERTEX_POINT('',#902);
#253=VERTEX_POINT('',#915);
#254=VERTEX_POINT('',#928);
#255=EDGE_CURVE('',#207,#208,#107,.T.);
#256=EDGE_CURVE('',#209,#207,#108,.T.);
#257=EDGE_CURVE('',#210,#209,#109,.T.);
#258=EDGE_CURVE('',#208,#210,#110,.T.);
#259=EDGE_CURVE('',#211,#207,#111,.T.);
#260=EDGE_CURVE('',#212,#211,#112,.T.);
#261=EDGE_CURVE('',#212,#209,#113,.T.);
#262=EDGE_CURVE('',#213,#208,#114,.T.);
#263=EDGE_CURVE('',#214,#213,#115,.T.);
#264=EDGE_CURVE('',#215,#214,#116,.T.);
#265=EDGE_CURVE('',#216,#215,#117,.T.);
#266=EDGE_CURVE('',#217,#216,#118,.T.);
#267=EDGE_CURVE('',#218,#217,#119,.T.);
#268=EDGE_CURVE('',#218,#219,#120,.T.);
#269=EDGE_CURVE('',#211,#219,#121,.T.);
#270=EDGE_CURVE('',#220,#219,#122,.T.);
#271=EDGE_CURVE('',#220,#212,#123,.T.);
#272=EDGE_CURVE('',#221,#218,#124,.T.);
#273=EDGE_CURVE('',#221,#220,#125,.T.);
#274=EDGE_CURVE('',#222,#221,#126,.T.);
#275=EDGE_CURVE('',#222,#223,#127,.T.);
#276=EDGE_CURVE('',#224,#223,#128,.T.);
#277=EDGE_CURVE('',#225,#224,#129,.T.);
#278=EDGE_CURVE('',#226,#225,#130,.T.);
#279=EDGE_CURVE('',#226,#210,#131,.T.);
#280=EDGE_CURVE('',#213,#226,#132,.T.);
#281=EDGE_CURVE('',#227,#228,#23,.T.);
#282=EDGE_CURVE('',#228,#229,#133,.T.);
#283=EDGE_CURVE('',#229,#230,#24,.T.);
#284=EDGE_CURVE('',#230,#227,#134,.T.);
#285=EDGE_CURVE('',#231,#230,#25,.T.);
#286=EDGE_CURVE('',#232,#231,#135,.T.);
#287=EDGE_CURVE('',#227,#232,#26,.T.);
#288=EDGE_CURVE('',#229,#233,#136,.T.);
#289=EDGE_CURVE('',#233,#234,#27,.T.);
#290=EDGE_CURVE('',#235,#234,#137,.F.);
#291=EDGE_CURVE('',#235,#231,#28,.F.);
#292=EDGE_CURVE('',#236,#237,#29,.T.);
#293=EDGE_CURVE('',#237,#238,#138,.T.);
#294=EDGE_CURVE('',#238,#239,#30,.T.);
#295=EDGE_CURVE('',#239,#236,#139,.T.);
#296=EDGE_CURVE('',#240,#239,#140,.T.);
#297=EDGE_CURVE('',#240,#241,#141,.T.);
#298=EDGE_CURVE('',#236,#241,#142,.T.);
#299=EDGE_CURVE('',#238,#242,#31,.T.);
#300=EDGE_CURVE('',#243,#242,#32,.T.);
#301=EDGE_CURVE('',#244,#243,#143,.T.);
#302=EDGE_CURVE('',#244,#240,#33,.T.);
#303=EDGE_CURVE('',#245,#232,#34,.T.);
#304=EDGE_CURVE('',#225,#235,#15,.F.);
#305=EDGE_CURVE('',#224,#245,#16,.T.);
#306=EDGE_CURVE('',#224,#246,#144,.T.);
#307=EDGE_CURVE('',#223,#216,#145,.T.);
#308=EDGE_CURVE('',#247,#215,#146,.T.);
#309=EDGE_CURVE('',#247,#248,#147,.T.);
#310=EDGE_CURVE('',#214,#248,#148,.T.);
#311=EDGE_CURVE('',#249,#225,#149,.T.);
#312=EDGE_CURVE('',#246,#249,#150,.T.);
#313=EDGE_CURVE('',#242,#250,#151,.T.);
#314=EDGE_CURVE('',#251,#250,#35,.F.);
#315=EDGE_CURVE('',#215,#251,#17,.F.);
#316=EDGE_CURVE('',#214,#243,#18,.T.);
#317=EDGE_CURVE('',#248,#244,#19,.T.);
#318=EDGE_CURVE('',#234,#249,#20,.T.);
#319=EDGE_CURVE('',#252,#247,#21,.T.);
#320=EDGE_CURVE('',#251,#252,#152,.F.);
#321=EDGE_CURVE('',#246,#253,#22,.T.);
#322=EDGE_CURVE('',#253,#245,#153,.T.);
#323=EDGE_CURVE('',#253,#254,#36,.T.);
#324=EDGE_CURVE('',#254,#228,#154,.T.);
#325=EDGE_CURVE('',#254,#233,#155,.T.);
#326=EDGE_CURVE('',#241,#252,#37,.T.);
#327=EDGE_CURVE('',#250,#237,#38,.T.);
#328=EDGE_CURVE('',#217,#222,#156,.T.);
#329=ORIENTED_EDGE('',*,*,#255,.F.);
#330=ORIENTED_EDGE('',*,*,#256,.F.);
#331=ORIENTED_EDGE('',*,*,#257,.F.);
#332=ORIENTED_EDGE('',*,*,#258,.F.);
#333=ORIENTED_EDGE('',*,*,#256,.T.);
#334=ORIENTED_EDGE('',*,*,#259,.F.);
#335=ORIENTED_EDGE('',*,*,#260,.F.);
#336=ORIENTED_EDGE('',*,*,#261,.T.);
#337=ORIENTED_EDGE('',*,*,#255,.T.);
#338=ORIENTED_EDGE('',*,*,#262,.F.);
#339=ORIENTED_EDGE('',*,*,#263,.F.);
#340=ORIENTED_EDGE('',*,*,#264,.F.);
#341=ORIENTED_EDGE('',*,*,#265,.F.);
#342=ORIENTED_EDGE('',*,*,#266,.F.);
#343=ORIENTED_EDGE('',*,*,#267,.F.);
#344=ORIENTED_EDGE('',*,*,#268,.T.);
#345=ORIENTED_EDGE('',*,*,#269,.F.);
#346=ORIENTED_EDGE('',*,*,#259,.T.);
#347=ORIENTED_EDGE('',*,*,#270,.F.);
#348=ORIENTED_EDGE('',*,*,#271,.T.);
#349=ORIENTED_EDGE('',*,*,#260,.T.);
#350=ORIENTED_EDGE('',*,*,#269,.T.);
#351=ORIENTED_EDGE('',*,*,#270,.T.);
#352=ORIENTED_EDGE('',*,*,#268,.F.);
#353=ORIENTED_EDGE('',*,*,#272,.F.);
#354=ORIENTED_EDGE('',*,*,#273,.T.);
#355=ORIENTED_EDGE('',*,*,#257,.T.);
#356=ORIENTED_EDGE('',*,*,#261,.F.);
#357=ORIENTED_EDGE('',*,*,#271,.F.);
#358=ORIENTED_EDGE('',*,*,#273,.F.);
#359=ORIENTED_EDGE('',*,*,#274,.F.);
#360=ORIENTED_EDGE('',*,*,#275,.T.);
#361=ORIENTED_EDGE('',*,*,#276,.F.);
#362=ORIENTED_EDGE('',*,*,#277,.F.);
#363=ORIENTED_EDGE('',*,*,#278,.F.);
#364=ORIENTED_EDGE('',*,*,#279,.T.);
#365=ORIENTED_EDGE('',*,*,#258,.T.);
#366=ORIENTED_EDGE('',*,*,#279,.F.);
#367=ORIENTED_EDGE('',*,*,#280,.F.);
#368=ORIENTED_EDGE('',*,*,#262,.T.);
#369=ORIENTED_EDGE('',*,*,#281,.T.);
#370=ORIENTED_EDGE('',*,*,#282,.T.);
#371=ORIENTED_EDGE('',*,*,#283,.T.);
#372=ORIENTED_EDGE('',*,*,#284,.T.);
#373=ORIENTED_EDGE('',*,*,#284,.F.);
#374=ORIENTED_EDGE('',*,*,#285,.F.);
#375=ORIENTED_EDGE('',*,*,#286,.F.);
#376=ORIENTED_EDGE('',*,*,#287,.F.);
#377=ORIENTED_EDGE('',*,*,#283,.F.);
#378=ORIENTED_EDGE('',*,*,#288,.T.);
#379=ORIENTED_EDGE('',*,*,#289,.T.);
#380=ORIENTED_EDGE('',*,*,#290,.F.);
#381=ORIENTED_EDGE('',*,*,#291,.T.);
#382=ORIENTED_EDGE('',*,*,#285,.T.);
#383=ORIENTED_EDGE('',*,*,#292,.T.);
#384=ORIENTED_EDGE('',*,*,#293,.T.);
#385=ORIENTED_EDGE('',*,*,#294,.T.);
#386=ORIENTED_EDGE('',*,*,#295,.T.);
#387=ORIENTED_EDGE('',*,*,#295,.F.);
#388=ORIENTED_EDGE('',*,*,#296,.F.);
#389=ORIENTED_EDGE('',*,*,#297,.T.);
#390=ORIENTED_EDGE('',*,*,#298,.F.);
#391=ORIENTED_EDGE('',*,*,#294,.F.);
#392=ORIENTED_EDGE('',*,*,#299,.T.);
#393=ORIENTED_EDGE('',*,*,#300,.F.);
#394=ORIENTED_EDGE('',*,*,#301,.F.);
#395=ORIENTED_EDGE('',*,*,#302,.T.);
#396=ORIENTED_EDGE('',*,*,#296,.T.);
#397=ORIENTED_EDGE('',*,*,#303,.T.);
#398=ORIENTED_EDGE('',*,*,#286,.T.);
#399=ORIENTED_EDGE('',*,*,#291,.F.);
#400=ORIENTED_EDGE('',*,*,#304,.F.);
#401=ORIENTED_EDGE('',*,*,#277,.T.);
#402=ORIENTED_EDGE('',*,*,#305,.T.);
#403=ORIENTED_EDGE('',*,*,#306,.F.);
#404=ORIENTED_EDGE('',*,*,#276,.T.);
#405=ORIENTED_EDGE('',*,*,#307,.T.);
#406=ORIENTED_EDGE('',*,*,#265,.T.);
#407=ORIENTED_EDGE('',*,*,#308,.F.);
#408=ORIENTED_EDGE('',*,*,#309,.T.);
#409=ORIENTED_EDGE('',*,*,#310,.F.);
#410=ORIENTED_EDGE('',*,*,#263,.T.);
#411=ORIENTED_EDGE('',*,*,#280,.T.);
#412=ORIENTED_EDGE('',*,*,#278,.T.);
#413=ORIENTED_EDGE('',*,*,#311,.F.);
#414=ORIENTED_EDGE('',*,*,#312,.F.);
#415=ORIENTED_EDGE('',*,*,#300,.T.);
#416=ORIENTED_EDGE('',*,*,#313,.T.);
#417=ORIENTED_EDGE('',*,*,#314,.F.);
#418=ORIENTED_EDGE('',*,*,#315,.F.);
#419=ORIENTED_EDGE('',*,*,#264,.T.);
#420=ORIENTED_EDGE('',*,*,#316,.T.);
#421=ORIENTED_EDGE('',*,*,#317,.T.);
#422=ORIENTED_EDGE('',*,*,#301,.T.);
#423=ORIENTED_EDGE('',*,*,#316,.F.);
#424=ORIENTED_EDGE('',*,*,#310,.T.);
#425=ORIENTED_EDGE('',*,*,#318,.T.);
#426=ORIENTED_EDGE('',*,*,#311,.T.);
#427=ORIENTED_EDGE('',*,*,#304,.T.);
#428=ORIENTED_EDGE('',*,*,#290,.T.);
#429=ORIENTED_EDGE('',*,*,#319,.T.);
#430=ORIENTED_EDGE('',*,*,#308,.T.);
#431=ORIENTED_EDGE('',*,*,#315,.T.);
#432=ORIENTED_EDGE('',*,*,#320,.T.);
#433=ORIENTED_EDGE('',*,*,#321,.T.);
#434=ORIENTED_EDGE('',*,*,#322,.T.);
#435=ORIENTED_EDGE('',*,*,#305,.F.);
#436=ORIENTED_EDGE('',*,*,#306,.T.);
#437=ORIENTED_EDGE('',*,*,#281,.F.);
#438=ORIENTED_EDGE('',*,*,#287,.T.);
#439=ORIENTED_EDGE('',*,*,#303,.F.);
#440=ORIENTED_EDGE('',*,*,#322,.F.);
#441=ORIENTED_EDGE('',*,*,#323,.T.);
#442=ORIENTED_EDGE('',*,*,#324,.T.);
#443=ORIENTED_EDGE('',*,*,#325,.F.);
#444=ORIENTED_EDGE('',*,*,#323,.F.);
#445=ORIENTED_EDGE('',*,*,#321,.F.);
#446=ORIENTED_EDGE('',*,*,#312,.T.);
#447=ORIENTED_EDGE('',*,*,#318,.F.);
#448=ORIENTED_EDGE('',*,*,#289,.F.);
#449=ORIENTED_EDGE('',*,*,#282,.F.);
#450=ORIENTED_EDGE('',*,*,#324,.F.);
#451=ORIENTED_EDGE('',*,*,#325,.T.);
#452=ORIENTED_EDGE('',*,*,#288,.F.);
#453=ORIENTED_EDGE('',*,*,#309,.F.);
#454=ORIENTED_EDGE('',*,*,#319,.F.);
#455=ORIENTED_EDGE('',*,*,#326,.F.);
#456=ORIENTED_EDGE('',*,*,#297,.F.);
#457=ORIENTED_EDGE('',*,*,#302,.F.);
#458=ORIENTED_EDGE('',*,*,#317,.F.);
#459=ORIENTED_EDGE('',*,*,#293,.F.);
#460=ORIENTED_EDGE('',*,*,#327,.F.);
#461=ORIENTED_EDGE('',*,*,#313,.F.);
#462=ORIENTED_EDGE('',*,*,#299,.F.);
#463=ORIENTED_EDGE('',*,*,#292,.F.);
#464=ORIENTED_EDGE('',*,*,#298,.T.);
#465=ORIENTED_EDGE('',*,*,#326,.T.);
#466=ORIENTED_EDGE('',*,*,#320,.F.);
#467=ORIENTED_EDGE('',*,*,#314,.T.);
#468=ORIENTED_EDGE('',*,*,#327,.T.);
#469=ORIENTED_EDGE('',*,*,#328,.F.);
#470=ORIENTED_EDGE('',*,*,#266,.T.);
#471=ORIENTED_EDGE('',*,*,#307,.F.);
#472=ORIENTED_EDGE('',*,*,#275,.F.);
#473=ORIENTED_EDGE('',*,*,#274,.T.);
#474=ORIENTED_EDGE('',*,*,#272,.T.);
#475=ORIENTED_EDGE('',*,*,#267,.T.);
#476=ORIENTED_EDGE('',*,*,#328,.T.);
#477=PLANE('',#535);
#478=PLANE('',#536);
#479=PLANE('',#537);
#480=PLANE('',#538);
#481=PLANE('',#539);
#482=PLANE('',#540);
#483=PLANE('',#541);
#484=PLANE('',#548);
#485=PLANE('',#554);
#486=PLANE('',#555);
#487=PLANE('',#561);
#488=PLANE('',#568);
#489=PLANE('',#571);
#490=PLANE('',#576);
#491=PLANE('',#577);
#492=PLANE('',#578);
#493=ADVANCED_FACE('',(#51),#477,.F.);
#494=ADVANCED_FACE('',(#52),#478,.T.);
#495=ADVANCED_FACE('',(#53),#479,.T.);
#496=ADVANCED_FACE('',(#54),#480,.T.);
#497=ADVANCED_FACE('',(#55),#481,.T.);
#498=ADVANCED_FACE('',(#56),#482,.T.);
#499=ADVANCED_FACE('',(#57),#483,.T.);
#500=ADVANCED_FACE('',(#58),#39,.T.);
#501=ADVANCED_FACE('',(#59),#40,.T.);
#502=ADVANCED_FACE('',(#60),#484,.F.);
#503=ADVANCED_FACE('',(#61),#41,.T.);
#504=ADVANCED_FACE('',(#62),#485,.T.);
#505=ADVANCED_FACE('',(#63),#486,.F.);
#506=ADVANCED_FACE('',(#64),#42,.F.);
#507=ADVANCED_FACE('',(#65),#487,.T.);
#508=ADVANCED_FACE('',(#66),#43,.F.);
#509=ADVANCED_FACE('',(#67),#44,.F.);
#510=ADVANCED_FACE('',(#68),#45,.F.);
#511=ADVANCED_FACE('',(#69),#46,.F.);
#512=ADVANCED_FACE('',(#70),#47,.F.);
#513=ADVANCED_FACE('',(#71),#488,.T.);
#514=ADVANCED_FACE('',(#72),#48,.F.);
#515=ADVANCED_FACE('',(#73),#489,.T.);
#516=ADVANCED_FACE('',(#74),#49,.F.);
#517=ADVANCED_FACE('',(#75),#50,.T.);
#518=ADVANCED_FACE('',(#76),#490,.T.);
#519=ADVANCED_FACE('',(#77),#491,.T.);
#520=ADVANCED_FACE('',(#78),#492,.F.);
#521=CLOSED_SHELL('',(#493,#494,#495,#496,#497,#498,#499,#500,#501,#502,
#503,#504,#505,#506,#507,#508,#509,#510,#511,#512,#513,#514,#515,#516,#517,
#518,#519,#520));
#522=DERIVED_UNIT_ELEMENT(#524,1.);
#523=DERIVED_UNIT_ELEMENT(#947,-3.);
#524=(
MASS_UNIT()
NAMED_UNIT(*)
SI_UNIT(.KILO.,.GRAM.)
);
#525=DERIVED_UNIT((#522,#523));
#526=MEASURE_REPRESENTATION_ITEM('density measure',
POSITIVE_RATIO_MEASURE(7850.),#525);
#527=PROPERTY_DEFINITION_REPRESENTATION(#532,#529);
#528=PROPERTY_DEFINITION_REPRESENTATION(#533,#530);
#529=REPRESENTATION('material name',(#531),#944);
#530=REPRESENTATION('density',(#526),#944);
#531=DESCRIPTIVE_REPRESENTATION_ITEM('Steel','Steel');
#532=PROPERTY_DEFINITION('material property','material name',#954);
#533=PROPERTY_DEFINITION('material property','density of part',#954);
#534=AXIS2_PLACEMENT_3D('',#719,#579,#580);
#535=AXIS2_PLACEMENT_3D('',#720,#581,#582);
#536=AXIS2_PLACEMENT_3D('',#729,#587,#588);
#537=AXIS2_PLACEMENT_3D('',#735,#592,#593);
#538=AXIS2_PLACEMENT_3D('',#751,#602,#603);
#539=AXIS2_PLACEMENT_3D('',#755,#606,#607);
#540=AXIS2_PLACEMENT_3D('',#759,#610,#611);
#541=AXIS2_PLACEMENT_3D('',#771,#618,#619);
#542=AXIS2_PLACEMENT_3D('',#773,#621,#622);
#543=AXIS2_PLACEMENT_3D('',#776,#623,#624);
#544=AXIS2_PLACEMENT_3D('',#780,#626,#627);
#545=AXIS2_PLACEMENT_3D('',#782,#629,#630);
#546=AXIS2_PLACEMENT_3D('',#784,#631,#632);
#547=AXIS2_PLACEMENT_3D('',#787,#634,#635);
#548=AXIS2_PLACEMENT_3D('',#788,#636,#637);
#549=AXIS2_PLACEMENT_3D('',#792,#639,#640);
#550=AXIS2_PLACEMENT_3D('',#795,#642,#643);
#551=AXIS2_PLACEMENT_3D('',#796,#644,#645);
#552=AXIS2_PLACEMENT_3D('',#799,#646,#647);
#553=AXIS2_PLACEMENT_3D('',#803,#649,#650);
#554=AXIS2_PLACEMENT_3D('',#805,#652,#653);
#555=AXIS2_PLACEMENT_3D('',#811,#657,#658);
#556=AXIS2_PLACEMENT_3D('',#813,#659,#660);
#557=AXIS2_PLACEMENT_3D('',#815,#661,#662);
#558=AXIS2_PLACEMENT_3D('',#818,#664,#665);
#559=AXIS2_PLACEMENT_3D('',#819,#666,#667);
#560=AXIS2_PLACEMENT_3D('',#821,#668,#669);
#561=AXIS2_PLACEMENT_3D('',#842,#670,#671);
#562=AXIS2_PLACEMENT_3D('',#854,#679,#680);
#563=AXIS2_PLACEMENT_3D('',#858,#682,#683);
#564=AXIS2_PLACEMENT_3D('',#879,#684,#685);
#565=AXIS2_PLACEMENT_3D('',#890,#686,#687);
#566=AXIS2_PLACEMENT_3D('',#901,#688,#689);
#567=AXIS2_PLACEMENT_3D('',#914,#691,#692);
#568=AXIS2_PLACEMENT_3D('',#927,#694,#695);
#569=AXIS2_PLACEMENT_3D('',#929,#696,#697);
#570=AXIS2_PLACEMENT_3D('',#931,#699,#700);
#571=AXIS2_PLACEMENT_3D('',#933,#702,#703);
#572=AXIS2_PLACEMENT_3D('',#934,#704,#705);
#573=AXIS2_PLACEMENT_3D('',#935,#706,#707);
#574=AXIS2_PLACEMENT_3D('',#936,#708,#709);
#575=AXIS2_PLACEMENT_3D('',#937,#710,#711);
#576=AXIS2_PLACEMENT_3D('',#938,#712,#713);
#577=AXIS2_PLACEMENT_3D('',#939,#714,#715);
#578=AXIS2_PLACEMENT_3D('',#941,#717,#718);
#579=DIRECTION('axis',(0.,0.,1.));
#580=DIRECTION('refdir',(1.,0.,0.));
#581=DIRECTION('center_axis',(0.,0.,1.));
#582=DIRECTION('ref_axis',(1.,0.,0.));
#583=DIRECTION('',(-1.,0.,0.));
#584=DIRECTION('',(0.,1.,0.));
#585=DIRECTION('',(1.,0.,0.));
#586=DIRECTION('',(0.,-1.,0.));
#587=DIRECTION('center_axis',(1.,0.,0.));
#588=DIRECTION('ref_axis',(0.,-1.,0.));
#589=DIRECTION('',(0.,0.,-1.));
#590=DIRECTION('',(0.,1.,0.));
#591=DIRECTION('',(0.,0.,-1.));
#592=DIRECTION('center_axis',(0.,1.,0.));
#593=DIRECTION('ref_axis',(-1.,0.,0.));
#594=DIRECTION('',(0.,0.,-1.));
#595=DIRECTION('',(-1.,0.,0.));
#596=DIRECTION('',(-1.,0.,0.));
#597=DIRECTION('',(-1.,0.,0.));
#598=DIRECTION('',(0.,0.,1.));
#599=DIRECTION('',(1.,0.,0.));
#600=DIRECTION('',(0.,0.,-1.));
#601=DIRECTION('',(-1.,0.,0.));
#602=DIRECTION('center_axis',(0.,0.,1.));
#603=DIRECTION('ref_axis',(1.,0.,0.));
#604=DIRECTION('',(0.,1.,0.));
#605=DIRECTION('',(1.,0.,0.));
#606=DIRECTION('center_axis',(1.,0.,0.));
#607=DIRECTION('ref_axis',(0.,-1.,0.));
#608=DIRECTION('',(0.,1.,0.));
#609=DIRECTION('',(0.,0.,-1.));
#610=DIRECTION('center_axis',(0.,-1.,0.));
#611=DIRECTION('ref_axis',(1.,0.,0.));
#612=DIRECTION('',(-1.,0.,0.));
#613=DIRECTION('',(0.,0.,1.));
#614=DIRECTION('',(1.,0.,0.));
#615=DIRECTION('',(1.,0.,0.));
#616=DIRECTION('',(1.,0.,0.));
#617=DIRECTION('',(0.,0.,-1.));
#618=DIRECTION('center_axis',(-1.,0.,0.));
#619=DIRECTION('ref_axis',(0.,1.,0.));
#620=DIRECTION('',(0.,-1.,0.));
#621=DIRECTION('center_axis',(1.,0.,0.));
#622=DIRECTION('ref_axis',(0.,0.612372435695795,0.790569415042095));
#623=DIRECTION('center_axis',(-1.,0.,0.));
#624=DIRECTION('ref_axis',(0.,0.612372435695795,0.790569415042095));
#625=DIRECTION('',(-1.,0.,0.));
#626=DIRECTION('center_axis',(1.,0.,0.));
#627=DIRECTION('ref_axis',(0.,0.612372435695795,0.790569415042095));
#628=DIRECTION('',(1.,0.,0.));
#629=DIRECTION('center_axis',(1.,0.,0.));
#630=DIRECTION('ref_axis',(0.,1.,0.));
#631=DIRECTION('center_axis',(-1.,0.,0.));
#632=DIRECTION('ref_axis',(0.,1.,0.));
#633=DIRECTION('',(-1.,0.,0.));
#634=DIRECTION('center_axis',(1.,0.,0.));
#635=DIRECTION('ref_axis',(0.,1.,0.));
#636=DIRECTION('center_axis',(1.,0.,0.));
#637=DIRECTION('ref_axis',(0.,1.,0.));
#638=DIRECTION('',(0.,0.,-1.));
#639=DIRECTION('center_axis',(1.,0.,0.));
#640=DIRECTION('ref_axis',(0.,1.,0.));
#641=DIRECTION('',(0.,-1.,0.));
#642=DIRECTION('center_axis',(-1.,0.,0.));
#643=DIRECTION('ref_axis',(0.,0.827070181855358,-0.562098669528531));
#644=DIRECTION('center_axis',(1.,0.,0.));
#645=DIRECTION('ref_axis',(0.,-0.612372435695795,0.790569415042094));
#646=DIRECTION('center_axis',(-1.,0.,0.));
#647=DIRECTION('ref_axis',(0.,-0.612372435695795,0.790569415042094));
#648=DIRECTION('',(-1.,0.,0.));
#649=DIRECTION('center_axis',(1.,0.,0.));
#650=DIRECTION('ref_axis',(0.,-0.612372435695795,0.790569415042094));
#651=DIRECTION('',(1.,0.,0.));
#652=DIRECTION('center_axis',(0.,-1.,-2.89623392286736E-16));
#653=DIRECTION('ref_axis',(0.,2.89623392286736E-16,-1.));
#654=DIRECTION('',(0.,-2.89623392286736E-16,1.));
#655=DIRECTION('',(1.,0.,0.));
#656=DIRECTION('',(0.,2.89623392286736E-16,-1.));
#657=DIRECTION('center_axis',(1.,0.,0.));
#658=DIRECTION('ref_axis',(0.,1.,0.));
#659=DIRECTION('center_axis',(-1.,0.,0.));
#660=DIRECTION('ref_axis',(0.,1.,0.));
#661=DIRECTION('center_axis',(-1.,0.,0.));
#662=DIRECTION('ref_axis',(0.,-0.827070189416527,-0.562098658403052));
#663=DIRECTION('',(0.,1.,0.));
#664=DIRECTION('center_axis',(1.,0.,0.));
#665=DIRECTION('ref_axis',(0.,1.,0.));
#666=DIRECTION('center_axis',(1.,0.,0.));
#667=DIRECTION('ref_axis',(0.,0.827070181855358,-0.562098669528531));
#668=DIRECTION('center_axis',(1.,0.,0.));
#669=DIRECTION('ref_axis',(0.,0.827070181855358,-0.562098669528531));
#670=DIRECTION('center_axis',(0.,0.,1.));
#671=DIRECTION('ref_axis',(1.,0.,0.));
#672=DIRECTION('',(0.,1.,0.));
#673=DIRECTION('',(0.,1.,0.));
#674=DIRECTION('',(0.,1.,0.));
#675=DIRECTION('',(-1.,0.,0.));
#676=DIRECTION('',(0.,-1.,0.));
#677=DIRECTION('',(0.,-1.,0.));
#678=DIRECTION('',(-1.,0.,0.));
#679=DIRECTION('center_axis',(-1.,0.,0.));
#680=DIRECTION('ref_axis',(0.,-0.827070189416527,-0.562098658403052));
#681=DIRECTION('',(1.,0.,0.));
#682=DIRECTION('center_axis',(1.,0.,0.));
#683=DIRECTION('ref_axis',(0.,-0.827070189416527,-0.562098658403052));
#684=DIRECTION('center_axis',(0.,1.,0.));
#685=DIRECTION('ref_axis',(0.707106781186547,0.,-0.707106781186548));
#686=DIRECTION('center_axis',(0.,1.,0.));
#687=DIRECTION('ref_axis',(0.707106781186547,0.,-0.707106781186548));
#688=DIRECTION('center_axis',(0.,-1.,0.));
#689=DIRECTION('ref_axis',(-0.707106781186548,0.,-0.707106781186547));
#690=DIRECTION('',(0.,1.,0.));
#691=DIRECTION('center_axis',(0.,-1.,0.));
#692=DIRECTION('ref_axis',(-0.707106781186548,0.,-0.707106781186547));
#693=DIRECTION('',(0.,-1.,0.));
#694=DIRECTION('center_axis',(1.,0.,0.));
#695=DIRECTION('ref_axis',(0.,1.,0.));
#696=DIRECTION('center_axis',(-1.,0.,0.));
#697=DIRECTION('ref_axis',(0.,1.,0.));
#698=DIRECTION('',(0.,0.,1.));
#699=DIRECTION('center_axis',(1.,0.,0.));
#700=DIRECTION('ref_axis',(0.,-1.,1.22464679914735E-16));
#701=DIRECTION('',(-1.,0.,0.));
#702=DIRECTION('center_axis',(0.,1.,0.));
#703=DIRECTION('ref_axis',(0.,0.,1.));
#704=DIRECTION('center_axis',(1.,0.,0.));
#705=DIRECTION('ref_axis',(0.,1.,0.));
#706=DIRECTION('center_axis',(-1.,0.,0.));
#707=DIRECTION('ref_axis',(0.,1.,0.));
#708=DIRECTION('center_axis',(1.,0.,0.));
#709=DIRECTION('ref_axis',(0.,1.,0.));
#710=DIRECTION('center_axis',(1.,0.,0.));
#711=DIRECTION('ref_axis',(0.,1.,0.));
#712=DIRECTION('center_axis',(1.,0.,0.));
#713=DIRECTION('ref_axis',(0.,1.,0.));
#714=DIRECTION('center_axis',(1.,0.,0.));
#715=DIRECTION('ref_axis',(0.,1.,0.));
#716=DIRECTION('',(0.,-1.,0.));
#717=DIRECTION('center_axis',(0.,0.,1.));
#718=DIRECTION('ref_axis',(1.,0.,0.));
#719=CARTESIAN_POINT('',(0.,0.,0.));
#720=CARTESIAN_POINT('Origin',(-0.999999999999999,-7.45058059692383E-8,
-51.75));
#721=CARTESIAN_POINT('',(12.5,10.,-51.75));
#722=CARTESIAN_POINT('',(-14.5,10.,-51.75));
#723=CARTESIAN_POINT('',(5.75,10.,-51.75));
#724=CARTESIAN_POINT('',(12.5,-10.0000001490116,-51.75));
#725=CARTESIAN_POINT('',(12.5,4.9999999627471,-51.75));
#726=CARTESIAN_POINT('',(-14.5,-10.0000001490116,-51.75));
#727=CARTESIAN_POINT('',(-6.75,-10.,-51.75));
#728=CARTESIAN_POINT('',(-14.5,-5.00000011175871,-51.75));
#729=CARTESIAN_POINT('Origin',(12.5,10.,-50.));
#730=CARTESIAN_POINT('',(12.5,10.,-49.75));
#731=CARTESIAN_POINT('',(12.5,10.,-50.));
#732=CARTESIAN_POINT('',(12.5,-10.0000001490116,-49.75));
#733=CARTESIAN_POINT('',(12.5,-10.0000001490116,-49.75));
#734=CARTESIAN_POINT('',(12.5,-10.0000001490116,-50.));
#735=CARTESIAN_POINT('Origin',(12.5,10.,0.));
#736=CARTESIAN_POINT('',(-14.5,10.,2.));
#737=CARTESIAN_POINT('',(-14.5,10.,2.));
#738=CARTESIAN_POINT('',(-12.5,10.,2.));
#739=CARTESIAN_POINT('',(-12.5,10.,2.));
#740=CARTESIAN_POINT('',(-5.5,10.,2.));
#741=CARTESIAN_POINT('',(-12.5,10.,2.));
#742=CARTESIAN_POINT('',(12.5,10.,2.));
#743=CARTESIAN_POINT('',(-12.5,10.,2.));
#744=CARTESIAN_POINT('',(12.5,10.,0.));
#745=CARTESIAN_POINT('',(12.5,10.,0.));
#746=CARTESIAN_POINT('',(-12.5,10.,0.));
#747=CARTESIAN_POINT('',(-12.5,10.,0.));
#748=CARTESIAN_POINT('',(-12.5,10.,-49.75));
#749=CARTESIAN_POINT('',(-12.5,10.,2.));
#750=CARTESIAN_POINT('',(12.5,10.,-49.75));
#751=CARTESIAN_POINT('Origin',(-0.999999999999999,-7.45058059692383E-8,
-49.75));
#752=CARTESIAN_POINT('',(-12.5,-10.0000001490116,-49.75));
#753=CARTESIAN_POINT('',(-12.5,4.9999999627471,-49.75));
#754=CARTESIAN_POINT('',(-14.5,-10.0000001490116,-49.75));
#755=CARTESIAN_POINT('Origin',(-12.5,10.,2.));
#756=CARTESIAN_POINT('',(-12.5,-10.,0.));
#757=CARTESIAN_POINT('',(-12.5,-10.,0.));
#758=CARTESIAN_POINT('',(-12.5,-10.0000001490116,2.));
#759=CARTESIAN_POINT('Origin',(-12.5,-10.,0.));
#760=CARTESIAN_POINT('',(12.5,-10.,0.));
#761=CARTESIAN_POINT('',(12.5,-10.,0.));
#762=CARTESIAN_POINT('',(12.5,-10.,2.));
#763=CARTESIAN_POINT('',(12.5,-10.,0.));
#764=CARTESIAN_POINT('',(-5.5,-10.0000001490116,2.));
#765=CARTESIAN_POINT('',(-14.5,-10.0000001490116,2.));
#766=CARTESIAN_POINT('',(-12.5,-10.0000001490116,2.));
#767=CARTESIAN_POINT('',(-14.5,-10.0000001490116,2.));
#768=CARTESIAN_POINT('',(-14.5,-10.0000001490116,2.));
#769=CARTESIAN_POINT('',(-14.5,-10.0000001490116,2.));
#770=CARTESIAN_POINT('',(-14.5,-10.0000001490116,2.));
#771=CARTESIAN_POINT('Origin',(-14.5,-10.0000001490116,2.));
#772=CARTESIAN_POINT('',(-14.5,10.,2.));
#773=CARTESIAN_POINT('Origin',(-9.,-2.25,8.87298334620742));
#774=CARTESIAN_POINT('',(-7.5,-2.5,9.84122918275927));
#775=CARTESIAN_POINT('',(-7.5,-1.25,8.87298334620742));
#776=CARTESIAN_POINT('Origin',(-7.5,-2.25,8.87298334620742));
#777=CARTESIAN_POINT('',(-10.5,-1.25,8.87298334620742));
#778=CARTESIAN_POINT('',(-9.,-1.25,8.87298334620742));
#779=CARTESIAN_POINT('',(-10.5,-2.5,9.84122918275927));
#780=CARTESIAN_POINT('Origin',(-10.5,-2.25,8.87298334620742));
#781=CARTESIAN_POINT('',(-9.,-2.5,9.84122918275927));
#782=CARTESIAN_POINT('Origin',(-9.,-1.25,5.));
#783=CARTESIAN_POINT('',(-10.5,-5.38535090927679,7.81049334764266));
#784=CARTESIAN_POINT('Origin',(-10.5,-1.25,5.));
#785=CARTESIAN_POINT('',(-7.5,-5.38535090927679,7.81049334764266));
#786=CARTESIAN_POINT('',(-14.5,-5.38535090927679,7.81049334764266));
#787=CARTESIAN_POINT('Origin',(-7.5,-1.25,5.));
#788=CARTESIAN_POINT('Origin',(-10.5,-3.75,6.));
#789=CARTESIAN_POINT('',(-10.5,-1.25,8.));
#790=CARTESIAN_POINT('',(-10.5,-1.25,5.));
#791=CARTESIAN_POINT('',(-10.5,-4.07842712474619,4.));
#792=CARTESIAN_POINT('Origin',(-10.5,-1.25,5.));
#793=CARTESIAN_POINT('',(-10.5,-8.24982869912223,3.99999999999783));
#794=CARTESIAN_POINT('',(-10.5,-1.875,4.));
#795=CARTESIAN_POINT('Origin',(-10.5,-46.7388600020447,35.9154268240692));
#796=CARTESIAN_POINT('Origin',(-9.,2.25,8.87298334620742));
#797=CARTESIAN_POINT('',(-7.5,1.25,8.87298334620742));
#798=CARTESIAN_POINT('',(-7.5,2.5,9.84122918275927));
#799=CARTESIAN_POINT('Origin',(-7.5,2.25,8.87298334620742));
#800=CARTESIAN_POINT('',(-10.5,2.5,9.84122918275927));
#801=CARTESIAN_POINT('',(-9.,2.5,9.84122918275927));
#802=CARTESIAN_POINT('',(-10.5,1.25,8.87298334620742));
#803=CARTESIAN_POINT('Origin',(-10.5,2.25,8.87298334620742));
#804=CARTESIAN_POINT('',(-9.,1.25,8.87298334620742));
#805=CARTESIAN_POINT('Origin',(-9.,1.25,10.));
#806=CARTESIAN_POINT('',(-10.5,1.25,8.));
#807=CARTESIAN_POINT('',(-10.5,1.25,16.5000002160668));
#808=CARTESIAN_POINT('',(-7.5,1.25,8.));
#809=CARTESIAN_POINT('',(-9.,1.25,8.));
#810=CARTESIAN_POINT('',(-7.5,1.25,16.5000002160668));
#811=CARTESIAN_POINT('Origin',(-10.5,3.75,6.));
#812=CARTESIAN_POINT('',(-10.5,5.38535094708263,7.81049329201526));
#813=CARTESIAN_POINT('Origin',(-10.5,1.25,5.));
#814=CARTESIAN_POINT('',(-10.5,8.24982860759098,4.));
#815=CARTESIAN_POINT('Origin',(-10.5,46.738860417909,35.9154262121679));
#816=CARTESIAN_POINT('',(-10.5,4.07842712474619,4.));
#817=CARTESIAN_POINT('',(-10.5,1.875,4.));
#818=CARTESIAN_POINT('Origin',(-10.5,1.25,5.));
#819=CARTESIAN_POINT('Origin',(-14.5,-46.7388600020447,35.9154268240692));
#820=CARTESIAN_POINT('',(-7.5,-8.24982869912223,3.99999999999783));
#821=CARTESIAN_POINT('Origin',(-7.5,-46.7388600020447,35.9154268240692));
#822=CARTESIAN_POINT('Ctrl Pts',(-10.5,-8.24982869912044,4.));
#823=CARTESIAN_POINT('Ctrl Pts',(-10.5,-8.46520459236321,3.74026324189202));
#824=CARTESIAN_POINT('Ctrl Pts',(-10.5530124014695,-8.70062281711309,3.46222814083578));
#825=CARTESIAN_POINT('Ctrl Pts',(-10.7784126811119,-9.14933184916841,2.94354537735963));
#826=CARTESIAN_POINT('Ctrl Pts',(-10.9505058059687,-9.36259537590584,2.70274607916467));
#827=CARTESIAN_POINT('Ctrl Pts',(-11.3257952798705,-9.66418784065032,2.36687203974333));
#828=CARTESIAN_POINT('Ctrl Pts',(-11.5300237226377,-9.78571286875391,2.23337766920109));
#829=CARTESIAN_POINT('Ctrl Pts',(-11.9920657860714,-9.95400423057655,2.04966381882541));
#830=CARTESIAN_POINT('Ctrl Pts',(-12.2503803322269,-10.0000001484618,2.));
#831=CARTESIAN_POINT('Ctrl Pts',(-12.5,-10.0000001484618,2.));
#832=CARTESIAN_POINT('Ctrl Pts',(-5.5,-10.0000001484618,2.));
#833=CARTESIAN_POINT('Ctrl Pts',(-5.74961966777307,-10.0000001484618,2.));
#834=CARTESIAN_POINT('Ctrl Pts',(-6.00793421392864,-9.95400423057654,2.04966381882541));
#835=CARTESIAN_POINT('Ctrl Pts',(-6.46997627736228,-9.78571286875391,2.23337766920109));
#836=CARTESIAN_POINT('Ctrl Pts',(-6.67420472012948,-9.66418784065032,2.36687203974333));
#837=CARTESIAN_POINT('Ctrl Pts',(-7.04949419403127,-9.36259537590584,2.70274607916467));
#838=CARTESIAN_POINT('Ctrl Pts',(-7.2215873188881,-9.14933184916841,2.94354537735963));
#839=CARTESIAN_POINT('Ctrl Pts',(-7.44698759853051,-8.70062281711309,3.46222814083578));
#840=CARTESIAN_POINT('Ctrl Pts',(-7.5,-8.46520459236321,3.74026324189202));
#841=CARTESIAN_POINT('Ctrl Pts',(-7.5,-8.24982869912044,4.));
#842=CARTESIAN_POINT('Origin',(0.,0.,2.));
#843=CARTESIAN_POINT('',(-5.5,-1.25,2.));
#844=CARTESIAN_POINT('',(-5.5,-1.875,2.));
#845=CARTESIAN_POINT('',(12.5,10.,2.));
#846=CARTESIAN_POINT('',(-5.5,1.25,2.));
#847=CARTESIAN_POINT('',(-5.5,1.875,2.));
#848=CARTESIAN_POINT('',(-12.5,1.25,2.));
#849=CARTESIAN_POINT('',(-9.,1.25,2.));
#850=CARTESIAN_POINT('',(-12.5,1.875,2.));
#851=CARTESIAN_POINT('',(-12.5,-1.25,2.));
#852=CARTESIAN_POINT('',(-12.5,-1.875,2.));
#853=CARTESIAN_POINT('',(-9.,-1.25,2.));
#854=CARTESIAN_POINT('Origin',(-12.5,46.738860417909,35.9154262121679));
#855=CARTESIAN_POINT('',(-7.5,5.38535094708263,7.81049329201526));
#856=CARTESIAN_POINT('',(-12.5,5.38535094708263,7.81049329201526));
#857=CARTESIAN_POINT('',(-7.5,8.24982860759099,3.99999999999999));
#858=CARTESIAN_POINT('Origin',(-7.5,46.738860417909,35.9154262121679));
#859=CARTESIAN_POINT('Ctrl Pts',(-7.5,8.24982860759098,4.));
#860=CARTESIAN_POINT('Ctrl Pts',(-7.5,8.46520449349261,3.74026324234134));
#861=CARTESIAN_POINT('Ctrl Pts',(-7.4469875986798,8.70062271016378,3.46222814178107));
#862=CARTESIAN_POINT('Ctrl Pts',(-7.22158732009097,9.14933172645084,2.94354537952588));
#863=CARTESIAN_POINT('Ctrl Pts',(-7.04949419608712,9.36259524548601,2.70274608206826));
#864=CARTESIAN_POINT('Ctrl Pts',(-6.67420472333353,9.66418770093135,2.36687204182398));
#865=CARTESIAN_POINT('Ctrl Pts',(-6.46997627950967,9.78571272593292,2.23337767024723));
#866=CARTESIAN_POINT('Ctrl Pts',(-6.00793421445304,9.95400408308653,2.04966381884161));
#867=CARTESIAN_POINT('Ctrl Pts',(-5.74961966776419,9.99999999945018,2.));
#868=CARTESIAN_POINT('Ctrl Pts',(-5.5,9.99999999945018,2.));
#869=CARTESIAN_POINT('Ctrl Pts',(-12.5,9.99999999945018,2.));
#870=CARTESIAN_POINT('Ctrl Pts',(-12.2503803322358,9.99999999945018,2.));
#871=CARTESIAN_POINT('Ctrl Pts',(-11.992065785547,9.95400408308653,2.04966381884161));
#872=CARTESIAN_POINT('Ctrl Pts',(-11.5300237204903,9.78571272593292,2.23337767024723));
#873=CARTESIAN_POINT('Ctrl Pts',(-11.3257952766665,9.66418770093135,2.36687204182398));
#874=CARTESIAN_POINT('Ctrl Pts',(-10.9505058039129,9.36259524548601,2.70274608206826));
#875=CARTESIAN_POINT('Ctrl Pts',(-10.778412679909,9.14933172645084,2.94354537952588));
#876=CARTESIAN_POINT('Ctrl Pts',(-10.5530124013202,8.70062271016378,3.46222814178107));
#877=CARTESIAN_POINT('Ctrl Pts',(-10.5,8.46520449349261,3.74026324234133));
#878=CARTESIAN_POINT('Ctrl Pts',(-10.5,8.24982860759099,4.));
#879=CARTESIAN_POINT('Origin',(-12.5,1.875,4.));
#880=CARTESIAN_POINT('Ctrl Pts',(-12.5,1.25,2.));
#881=CARTESIAN_POINT('Ctrl Pts',(-12.243708066305,1.56389223137194,2.));
#882=CARTESIAN_POINT('Ctrl Pts',(-11.9649779308599,1.90494318475356,2.0516672515811));
#883=CARTESIAN_POINT('Ctrl Pts',(-11.4390322225506,2.56380035059867,2.28052462781255));
#884=CARTESIAN_POINT('Ctrl Pts',(-11.1919868675028,2.88172274540008,2.45777140933643));
#885=CARTESIAN_POINT('Ctrl Pts',(-10.8617376000449,3.34059075384856,2.8350587158254));
#886=CARTESIAN_POINT('Ctrl Pts',(-10.7338638069975,3.52987620415632,3.03033949509566));
#887=CARTESIAN_POINT('Ctrl Pts',(-10.5525998179904,3.85319650058463,3.48317216271595));
#888=CARTESIAN_POINT('Ctrl Pts',(-10.5,3.98694354995032,3.74124537557861));
#889=CARTESIAN_POINT('Ctrl Pts',(-10.5,4.07842712474619,4.));
#890=CARTESIAN_POINT('Origin',(-12.5,-1.875,4.));
#891=CARTESIAN_POINT('Ctrl Pts',(-10.5,-4.07842712474619,4.));
#892=CARTESIAN_POINT('Ctrl Pts',(-10.5,-3.98694354995032,3.74124537557861));
#893=CARTESIAN_POINT('Ctrl Pts',(-10.5525998179904,-3.85319650058463,3.48317216271595));
#894=CARTESIAN_POINT('Ctrl Pts',(-10.7338638069975,-3.52987620415632,3.03033949509566));
#895=CARTESIAN_POINT('Ctrl Pts',(-10.8617376000449,-3.34059075384856,2.8350587158254));
#896=CARTESIAN_POINT('Ctrl Pts',(-11.1919868675028,-2.88172274540008,2.45777140933643));
#897=CARTESIAN_POINT('Ctrl Pts',(-11.4390322225506,-2.56380035059867,2.28052462781255));
#898=CARTESIAN_POINT('Ctrl Pts',(-11.9649779308599,-1.90494318475356,2.0516672515811));
#899=CARTESIAN_POINT('Ctrl Pts',(-12.243708066305,-1.56389223137193,2.));
#900=CARTESIAN_POINT('Ctrl Pts',(-12.5,-1.25,2.));
#901=CARTESIAN_POINT('Origin',(-5.5,1.875,4.));
#902=CARTESIAN_POINT('',(-7.5,4.07842712474619,4.));
#903=CARTESIAN_POINT('Ctrl Pts',(-7.5,4.07842712474619,4.));
#904=CARTESIAN_POINT('Ctrl Pts',(-7.5,3.98694354995032,3.74124537557861));
#905=CARTESIAN_POINT('Ctrl Pts',(-7.4474001820096,3.85319650058463,3.48317216271595));
#906=CARTESIAN_POINT('Ctrl Pts',(-7.2661361930025,3.52987620415632,3.03033949509566));
#907=CARTESIAN_POINT('Ctrl Pts',(-7.13826239995513,3.34059075384856,2.8350587158254));
#908=CARTESIAN_POINT('Ctrl Pts',(-6.80801313249717,2.88172274540008,2.45777140933643));
#909=CARTESIAN_POINT('Ctrl Pts',(-6.56096777744935,2.56380035059867,2.28052462781255));
#910=CARTESIAN_POINT('Ctrl Pts',(-6.03502206914014,1.90494318475356,2.0516672515811));
#911=CARTESIAN_POINT('Ctrl Pts',(-5.75629193369496,1.56389223137194,2.));
#912=CARTESIAN_POINT('Ctrl Pts',(-5.5,1.25,2.));
#913=CARTESIAN_POINT('',(-7.5,1.875,4.));
#914=CARTESIAN_POINT('Origin',(-5.5,-1.875,4.));
#915=CARTESIAN_POINT('',(-7.5,-4.07842712474619,4.));
#916=CARTESIAN_POINT('Ctrl Pts',(-5.5,-1.25,2.));
#917=CARTESIAN_POINT('Ctrl Pts',(-5.75629193369496,-1.56389223137193,2.));
#918=CARTESIAN_POINT('Ctrl Pts',(-6.03502206914014,-1.90494318475355,2.0516672515811));
#919=CARTESIAN_POINT('Ctrl Pts',(-6.56096777744935,-2.56380035059867,2.28052462781255));
#920=CARTESIAN_POINT('Ctrl Pts',(-6.80801313249717,-2.88172274540008,2.45777140933643));
#921=CARTESIAN_POINT('Ctrl Pts',(-7.13826239995513,-3.34059075384856,2.8350587158254));
#922=CARTESIAN_POINT('Ctrl Pts',(-7.2661361930025,-3.52987620415632,3.03033949509566));
#923=CARTESIAN_POINT('Ctrl Pts',(-7.4474001820096,-3.85319650058463,3.48317216271595));
#924=CARTESIAN_POINT('Ctrl Pts',(-7.5,-3.98694354995032,3.74124537557861));
#925=CARTESIAN_POINT('Ctrl Pts',(-7.5,-4.07842712474619,4.));
#926=CARTESIAN_POINT('',(-7.5,-1.875,4.));
#927=CARTESIAN_POINT('Origin',(-7.5,-3.75,6.));
#928=CARTESIAN_POINT('',(-7.5,-1.25,8.));
#929=CARTESIAN_POINT('Origin',(-7.5,-1.25,5.));
#930=CARTESIAN_POINT('',(-7.5,-1.25,5.));
#931=CARTESIAN_POINT('Origin',(-9.,-1.25,5.));
#932=CARTESIAN_POINT('',(-9.,-1.25,8.));
#933=CARTESIAN_POINT('Origin',(-9.,-1.25,8.));
#934=CARTESIAN_POINT('Origin',(-9.,1.25,5.));
#935=CARTESIAN_POINT('Origin',(-7.5,1.25,5.));
#936=CARTESIAN_POINT('Origin',(-9.,1.25,5.));
#937=CARTESIAN_POINT('Origin',(-7.5,1.25,5.));
#938=CARTESIAN_POINT('Origin',(-7.5,3.75,6.));
#939=CARTESIAN_POINT('Origin',(12.5,-10.,0.));
#940=CARTESIAN_POINT('',(12.5,10.,0.));
#941=CARTESIAN_POINT('Origin',(0.,0.,0.));
#942=UNCERTAINTY_MEASURE_WITH_UNIT(LENGTH_MEASURE(0.01),#946,
'DISTANCE_ACCURACY_VALUE',
'Maximum model space distance between geometric entities at asserted c
onnectivities');
#943=UNCERTAINTY_MEASURE_WITH_UNIT(LENGTH_MEASURE(0.01),#946,
'DISTANCE_ACCURACY_VALUE',
'Maximum model space distance between geometric entities at asserted c
onnectivities');
#944=(
GEOMETRIC_REPRESENTATION_CONTEXT(3)
GLOBAL_UNCERTAINTY_ASSIGNED_CONTEXT((#942))
GLOBAL_UNIT_ASSIGNED_CONTEXT((#946,#948,#949))
REPRESENTATION_CONTEXT('','3D')
);
#945=(
GEOMETRIC_REPRESENTATION_CONTEXT(3)
GLOBAL_UNCERTAINTY_ASSIGNED_CONTEXT((#943))
GLOBAL_UNIT_ASSIGNED_CONTEXT((#946,#948,#949))
REPRESENTATION_CONTEXT('','3D')
);
#946=(
LENGTH_UNIT()
NAMED_UNIT(*)
SI_UNIT(.MILLI.,.METRE.)
);
#947=(
LENGTH_UNIT()
NAMED_UNIT(*)
SI_UNIT($,.METRE.)
);
#948=(
NAMED_UNIT(*)
PLANE_ANGLE_UNIT()
SI_UNIT($,.RADIAN.)
);
#949=(
NAMED_UNIT(*)
SI_UNIT($,.STERADIAN.)
SOLID_ANGLE_UNIT()
);
#950=SHAPE_DEFINITION_REPRESENTATION(#951,#952);
#951=PRODUCT_DEFINITION_SHAPE('',$,#954);
#952=SHAPE_REPRESENTATION('',(#534),#944);
#953=PRODUCT_DEFINITION_CONTEXT('part definition',#958,'design');
#954=PRODUCT_DEFINITION('LACK Motor Wire Holder',
'LACK Motor Wire Holder v8',#955,#953);
#955=PRODUCT_DEFINITION_FORMATION('',$,#960);
#956=PRODUCT_RELATED_PRODUCT_CATEGORY('LACK Motor Wire Holder v8',
'LACK Motor Wire Holder v8',(#960));
#957=APPLICATION_PROTOCOL_DEFINITION('international standard',
'automotive_design',2009,#958);
#958=APPLICATION_CONTEXT(
'Core Data for Automotive Mechanical Design Process');
#959=PRODUCT_CONTEXT('part definition',#958,'mechanical');
#960=PRODUCT('LACK Motor Wire Holder','LACK Motor Wire Holder v8',$,(#959));
#961=PRESENTATION_STYLE_ASSIGNMENT((#963));
#962=PRESENTATION_STYLE_ASSIGNMENT((#964));
#963=SURFACE_STYLE_USAGE(.BOTH.,#965);
#964=SURFACE_STYLE_USAGE(.BOTH.,#966);
#965=SURFACE_SIDE_STYLE('',(#967));
#966=SURFACE_SIDE_STYLE('',(#968));
#967=SURFACE_STYLE_FILL_AREA(#969);
#968=SURFACE_STYLE_FILL_AREA(#970);
#969=FILL_AREA_STYLE('Steel - Satin',(#971));
#970=FILL_AREA_STYLE('Powder Coat - Rough (Black)',(#972));
#971=FILL_AREA_STYLE_COLOUR('Steel - Satin',#973);
#972=FILL_AREA_STYLE_COLOUR('Powder Coat - Rough (Black)',#974);
#973=COLOUR_RGB('Steel - Satin',0.627450980392157,0.627450980392157,0.627450980392157);
#974=COLOUR_RGB('Powder Coat - Rough (Black)',0.0705882352941176,0.529411764705882,
0.164705882352941);
ENDSEC;
END-ISO-10303-21;
