ISO-10303-21;
HEADER;
/* Generated by software containing ST-Developer
 * from STEP Tools, Inc. (www.steptools.com) 
 */

FILE_DESCRIPTION(
/* description */ (''),
/* implementation_level */ '2;1');

FILE_NAME(
/* name */ 'VIHALS Motor Top Wire Holder.step',
/* time_stamp */ '2026-03-25T02:17:10-04:00',
/* author */ (''),
/* organization */ (''),
/* preprocessor_version */ 'ST-DEVELOPER v20.1',
/* originating_system */ 'Autodesk Translation Framework v14.24.0.0',
/* authorisation */ '');

FILE_SCHEMA (('AUTOMOTIVE_DESIGN { 1 0 10303 214 3 1 1 }'));
ENDSEC;

DATA;
#10=MECHANICAL_DESIGN_GEOMETRIC_PRESENTATION_REPRESENTATION('',(#13),#657);
#11=SHAPE_REPRESENTATION_RELATIONSHIP('SRR','None',#664,#12);
#12=ADVANCED_BREP_SHAPE_REPRESENTATION('',(#14),#656);
#13=STYLED_ITEM('',(#674),#14);
#14=MANIFOLD_SOLID_BREP('Body1',#375);
#15=FACE_BOUND('',#66,.T.);
#16=FACE_BOUND('',#67,.T.);
#17=FACE_BOUND('',#79,.T.);
#18=FACE_BOUND('',#80,.T.);
#19=PLANE('',#408);
#20=PLANE('',#409);
#21=PLANE('',#417);
#22=PLANE('',#422);
#23=PLANE('',#427);
#24=PLANE('',#428);
#25=PLANE('',#429);
#26=PLANE('',#430);
#27=CYLINDRICAL_SURFACE('',#392,1.8985);
#28=CYLINDRICAL_SURFACE('',#397,1.8985);
#29=CYLINDRICAL_SURFACE('',#399,50.);
#30=CYLINDRICAL_SURFACE('',#402,50.);
#31=CYLINDRICAL_SURFACE('',#405,1.);
#32=CYLINDRICAL_SURFACE('',#415,1.);
#33=CYLINDRICAL_SURFACE('',#418,3.);
#34=CYLINDRICAL_SURFACE('',#420,5.);
#35=CYLINDRICAL_SURFACE('',#423,5.);
#36=CYLINDRICAL_SURFACE('',#425,3.);
#37=FACE_OUTER_BOUND('',#57,.T.);
#38=FACE_OUTER_BOUND('',#58,.T.);
#39=FACE_OUTER_BOUND('',#59,.T.);
#40=FACE_OUTER_BOUND('',#60,.T.);
#41=FACE_OUTER_BOUND('',#61,.T.);
#42=FACE_OUTER_BOUND('',#62,.T.);
#43=FACE_OUTER_BOUND('',#63,.T.);
#44=FACE_OUTER_BOUND('',#64,.T.);
#45=FACE_OUTER_BOUND('',#65,.T.);
#46=FACE_OUTER_BOUND('',#68,.T.);
#47=FACE_OUTER_BOUND('',#69,.T.);
#48=FACE_OUTER_BOUND('',#70,.T.);
#49=FACE_OUTER_BOUND('',#71,.T.);
#50=FACE_OUTER_BOUND('',#72,.T.);
#51=FACE_OUTER_BOUND('',#73,.T.);
#52=FACE_OUTER_BOUND('',#74,.T.);
#53=FACE_OUTER_BOUND('',#75,.T.);
#54=FACE_OUTER_BOUND('',#76,.T.);
#55=FACE_OUTER_BOUND('',#77,.T.);
#56=FACE_OUTER_BOUND('',#78,.T.);
#57=EDGE_LOOP('',(#249,#250,#251,#252));
#58=EDGE_LOOP('',(#253,#254,#255,#256));
#59=EDGE_LOOP('',(#257,#258,#259,#260));
#60=EDGE_LOOP('',(#261,#262,#263,#264));
#61=EDGE_LOOP('',(#265,#266,#267,#268));
#62=EDGE_LOOP('',(#269,#270,#271,#272));
#63=EDGE_LOOP('',(#273,#274,#275,#276));
#64=EDGE_LOOP('',(#277,#278,#279,#280));
#65=EDGE_LOOP('',(#281,#282,#283,#284,#285,#286,#287,#288,#289,#290,#291,
#292,#293,#294));
#66=EDGE_LOOP('',(#295));
#67=EDGE_LOOP('',(#296));
#68=EDGE_LOOP('',(#297,#298,#299,#300));
#69=EDGE_LOOP('',(#301,#302,#303,#304));
#70=EDGE_LOOP('',(#305,#306,#307,#308));
#71=EDGE_LOOP('',(#309,#310,#311,#312));
#72=EDGE_LOOP('',(#313,#314,#315,#316));
#73=EDGE_LOOP('',(#317,#318,#319,#320));
#74=EDGE_LOOP('',(#321,#322,#323,#324));
#75=EDGE_LOOP('',(#325,#326,#327,#328));
#76=EDGE_LOOP('',(#329,#330,#331,#332));
#77=EDGE_LOOP('',(#333,#334,#335,#336));
#78=EDGE_LOOP('',(#337,#338,#339,#340,#341,#342,#343,#344,#345,#346,#347,
#348,#349,#350));
#79=EDGE_LOOP('',(#351));
#80=EDGE_LOOP('',(#352));
#81=LINE('',#552,#111);
#82=LINE('',#556,#112);
#83=LINE('',#562,#113);
#84=LINE('',#566,#114);
#85=LINE('',#573,#115);
#86=LINE('',#576,#116);
#87=LINE('',#582,#117);
#88=LINE('',#585,#118);
#89=LINE('',#591,#119);
#90=LINE('',#594,#120);
#91=LINE('',#597,#121);
#92=LINE('',#599,#122);
#93=LINE('',#600,#123);
#94=LINE('',#604,#124);
#95=LINE('',#606,#125);
#96=LINE('',#607,#126);
#97=LINE('',#613,#127);
#98=LINE('',#617,#128);
#99=LINE('',#621,#129);
#100=LINE('',#624,#130);
#101=LINE('',#627,#131);
#102=LINE('',#628,#132);
#103=LINE('',#632,#133);
#104=LINE('',#637,#134);
#105=LINE('',#638,#135);
#106=LINE('',#645,#136);
#107=LINE('',#646,#137);
#108=LINE('',#649,#138);
#109=LINE('',#650,#139);
#110=LINE('',#652,#140);
#111=VECTOR('',#437,2.721);
#112=VECTOR('',#442,1.8985);
#113=VECTOR('',#449,2.721);
#114=VECTOR('',#454,1.8985);
#115=VECTOR('',#461,50.);
#116=VECTOR('',#464,10.);
#117=VECTOR('',#469,50.);
#118=VECTOR('',#472,10.);
#119=VECTOR('',#477,10.);
#120=VECTOR('',#480,10.);
#121=VECTOR('',#483,10.);
#122=VECTOR('',#484,10.);
#123=VECTOR('',#485,10.);
#124=VECTOR('',#490,10.);
#125=VECTOR('',#491,10.);
#126=VECTOR('',#492,10.);
#127=VECTOR('',#497,10.);
#128=VECTOR('',#500,10.);
#129=VECTOR('',#505,10.);
#130=VECTOR('',#508,10.);
#131=VECTOR('',#511,10.);
#132=VECTOR('',#512,10.);
#133=VECTOR('',#517,10.);
#134=VECTOR('',#524,10.);
#135=VECTOR('',#525,10.);
#136=VECTOR('',#536,10.);
#137=VECTOR('',#537,10.);
#138=VECTOR('',#540,10.);
#139=VECTOR('',#541,10.);
#140=VECTOR('',#544,10.);
#141=CIRCLE('',#390,3.5435);
#142=CIRCLE('',#391,1.8985);
#143=CIRCLE('',#393,1.8985);
#144=CIRCLE('',#395,3.5435);
#145=CIRCLE('',#396,1.8985);
#146=CIRCLE('',#398,1.8985);
#147=CIRCLE('',#400,50.);
#148=CIRCLE('',#401,50.);
#149=CIRCLE('',#403,50.);
#150=CIRCLE('',#404,50.);
#151=CIRCLE('',#406,1.);
#152=CIRCLE('',#407,1.);
#153=CIRCLE('',#410,5.);
#154=CIRCLE('',#411,5.);
#155=CIRCLE('',#412,1.);
#156=CIRCLE('',#413,3.);
#157=CIRCLE('',#414,3.);
#158=CIRCLE('',#416,1.);
#159=CIRCLE('',#419,3.);
#160=CIRCLE('',#421,5.);
#161=CIRCLE('',#424,5.);
#162=CIRCLE('',#426,3.);
#163=VERTEX_POINT('',#549);
#164=VERTEX_POINT('',#551);
#165=VERTEX_POINT('',#555);
#166=VERTEX_POINT('',#559);
#167=VERTEX_POINT('',#561);
#168=VERTEX_POINT('',#565);
#169=VERTEX_POINT('',#569);
#170=VERTEX_POINT('',#570);
#171=VERTEX_POINT('',#572);
#172=VERTEX_POINT('',#574);
#173=VERTEX_POINT('',#578);
#174=VERTEX_POINT('',#579);
#175=VERTEX_POINT('',#581);
#176=VERTEX_POINT('',#583);
#177=VERTEX_POINT('',#587);
#178=VERTEX_POINT('',#588);
#179=VERTEX_POINT('',#590);
#180=VERTEX_POINT('',#592);
#181=VERTEX_POINT('',#596);
#182=VERTEX_POINT('',#598);
#183=VERTEX_POINT('',#603);
#184=VERTEX_POINT('',#605);
#185=VERTEX_POINT('',#608);
#186=VERTEX_POINT('',#610);
#187=VERTEX_POINT('',#612);
#188=VERTEX_POINT('',#614);
#189=VERTEX_POINT('',#616);
#190=VERTEX_POINT('',#620);
#191=VERTEX_POINT('',#622);
#192=VERTEX_POINT('',#626);
#193=VERTEX_POINT('',#630);
#194=VERTEX_POINT('',#636);
#195=VERTEX_POINT('',#644);
#196=VERTEX_POINT('',#648);
#197=EDGE_CURVE('',#163,#163,#141,.T.);
#198=EDGE_CURVE('',#163,#164,#81,.T.);
#199=EDGE_CURVE('',#164,#164,#142,.T.);
#200=EDGE_CURVE('',#164,#165,#82,.T.);
#201=EDGE_CURVE('',#165,#165,#143,.T.);
#202=EDGE_CURVE('',#166,#166,#144,.T.);
#203=EDGE_CURVE('',#166,#167,#83,.T.);
#204=EDGE_CURVE('',#167,#167,#145,.T.);
#205=EDGE_CURVE('',#167,#168,#84,.T.);
#206=EDGE_CURVE('',#168,#168,#146,.T.);
#207=EDGE_CURVE('',#169,#170,#147,.F.);
#208=EDGE_CURVE('',#169,#171,#85,.T.);
#209=EDGE_CURVE('',#171,#172,#148,.T.);
#210=EDGE_CURVE('',#172,#170,#86,.T.);
#211=EDGE_CURVE('',#173,#174,#149,.F.);
#212=EDGE_CURVE('',#173,#175,#87,.T.);
#213=EDGE_CURVE('',#175,#176,#150,.T.);
#214=EDGE_CURVE('',#174,#176,#88,.T.);
#215=EDGE_CURVE('',#177,#178,#151,.T.);
#216=EDGE_CURVE('',#178,#179,#89,.T.);
#217=EDGE_CURVE('',#179,#180,#152,.T.);
#218=EDGE_CURVE('',#180,#177,#90,.T.);
#219=EDGE_CURVE('',#181,#178,#91,.T.);
#220=EDGE_CURVE('',#182,#181,#92,.T.);
#221=EDGE_CURVE('',#179,#182,#93,.T.);
#222=EDGE_CURVE('',#177,#173,#153,.T.);
#223=EDGE_CURVE('',#174,#183,#94,.T.);
#224=EDGE_CURVE('',#183,#184,#95,.T.);
#225=EDGE_CURVE('',#184,#172,#96,.T.);
#226=EDGE_CURVE('',#171,#185,#154,.T.);
#227=EDGE_CURVE('',#186,#185,#155,.T.);
#228=EDGE_CURVE('',#186,#187,#97,.T.);
#229=EDGE_CURVE('',#187,#188,#156,.T.);
#230=EDGE_CURVE('',#188,#189,#98,.T.);
#231=EDGE_CURVE('',#189,#181,#157,.T.);
#232=EDGE_CURVE('',#185,#190,#99,.T.);
#233=EDGE_CURVE('',#190,#191,#158,.T.);
#234=EDGE_CURVE('',#191,#186,#100,.T.);
#235=EDGE_CURVE('',#192,#191,#101,.T.);
#236=EDGE_CURVE('',#192,#187,#102,.T.);
#237=EDGE_CURVE('',#193,#182,#159,.T.);
#238=EDGE_CURVE('',#189,#193,#103,.T.);
#239=EDGE_CURVE('',#175,#180,#160,.T.);
#240=EDGE_CURVE('',#188,#194,#104,.T.);
#241=EDGE_CURVE('',#193,#194,#105,.T.);
#242=EDGE_CURVE('',#190,#169,#161,.T.);
#243=EDGE_CURVE('',#192,#194,#162,.T.);
#244=EDGE_CURVE('',#195,#176,#106,.T.);
#245=EDGE_CURVE('',#183,#195,#107,.T.);
#246=EDGE_CURVE('',#196,#195,#108,.T.);
#247=EDGE_CURVE('',#184,#196,#109,.T.);
#248=EDGE_CURVE('',#170,#196,#110,.T.);
#249=ORIENTED_EDGE('',*,*,#197,.F.);
#250=ORIENTED_EDGE('',*,*,#198,.T.);
#251=ORIENTED_EDGE('',*,*,#199,.T.);
#252=ORIENTED_EDGE('',*,*,#198,.F.);
#253=ORIENTED_EDGE('',*,*,#199,.F.);
#254=ORIENTED_EDGE('',*,*,#200,.T.);
#255=ORIENTED_EDGE('',*,*,#201,.F.);
#256=ORIENTED_EDGE('',*,*,#200,.F.);
#257=ORIENTED_EDGE('',*,*,#202,.F.);
#258=ORIENTED_EDGE('',*,*,#203,.T.);
#259=ORIENTED_EDGE('',*,*,#204,.T.);
#260=ORIENTED_EDGE('',*,*,#203,.F.);
#261=ORIENTED_EDGE('',*,*,#204,.F.);
#262=ORIENTED_EDGE('',*,*,#205,.T.);
#263=ORIENTED_EDGE('',*,*,#206,.F.);
#264=ORIENTED_EDGE('',*,*,#205,.F.);
#265=ORIENTED_EDGE('',*,*,#207,.F.);
#266=ORIENTED_EDGE('',*,*,#208,.T.);
#267=ORIENTED_EDGE('',*,*,#209,.T.);
#268=ORIENTED_EDGE('',*,*,#210,.T.);
#269=ORIENTED_EDGE('',*,*,#211,.F.);
#270=ORIENTED_EDGE('',*,*,#212,.T.);
#271=ORIENTED_EDGE('',*,*,#213,.T.);
#272=ORIENTED_EDGE('',*,*,#214,.F.);
#273=ORIENTED_EDGE('',*,*,#215,.T.);
#274=ORIENTED_EDGE('',*,*,#216,.T.);
#275=ORIENTED_EDGE('',*,*,#217,.T.);
#276=ORIENTED_EDGE('',*,*,#218,.T.);
#277=ORIENTED_EDGE('',*,*,#216,.F.);
#278=ORIENTED_EDGE('',*,*,#219,.F.);
#279=ORIENTED_EDGE('',*,*,#220,.F.);
#280=ORIENTED_EDGE('',*,*,#221,.F.);
#281=ORIENTED_EDGE('',*,*,#215,.F.);
#282=ORIENTED_EDGE('',*,*,#222,.T.);
#283=ORIENTED_EDGE('',*,*,#211,.T.);
#284=ORIENTED_EDGE('',*,*,#223,.T.);
#285=ORIENTED_EDGE('',*,*,#224,.T.);
#286=ORIENTED_EDGE('',*,*,#225,.T.);
#287=ORIENTED_EDGE('',*,*,#209,.F.);
#288=ORIENTED_EDGE('',*,*,#226,.T.);
#289=ORIENTED_EDGE('',*,*,#227,.F.);
#290=ORIENTED_EDGE('',*,*,#228,.T.);
#291=ORIENTED_EDGE('',*,*,#229,.T.);
#292=ORIENTED_EDGE('',*,*,#230,.T.);
#293=ORIENTED_EDGE('',*,*,#231,.T.);
#294=ORIENTED_EDGE('',*,*,#219,.T.);
#295=ORIENTED_EDGE('',*,*,#201,.T.);
#296=ORIENTED_EDGE('',*,*,#206,.T.);
#297=ORIENTED_EDGE('',*,*,#227,.T.);
#298=ORIENTED_EDGE('',*,*,#232,.T.);
#299=ORIENTED_EDGE('',*,*,#233,.T.);
#300=ORIENTED_EDGE('',*,*,#234,.T.);
#301=ORIENTED_EDGE('',*,*,#234,.F.);
#302=ORIENTED_EDGE('',*,*,#235,.F.);
#303=ORIENTED_EDGE('',*,*,#236,.T.);
#304=ORIENTED_EDGE('',*,*,#228,.F.);
#305=ORIENTED_EDGE('',*,*,#237,.T.);
#306=ORIENTED_EDGE('',*,*,#220,.T.);
#307=ORIENTED_EDGE('',*,*,#231,.F.);
#308=ORIENTED_EDGE('',*,*,#238,.T.);
#309=ORIENTED_EDGE('',*,*,#212,.F.);
#310=ORIENTED_EDGE('',*,*,#222,.F.);
#311=ORIENTED_EDGE('',*,*,#218,.F.);
#312=ORIENTED_EDGE('',*,*,#239,.F.);
#313=ORIENTED_EDGE('',*,*,#238,.F.);
#314=ORIENTED_EDGE('',*,*,#230,.F.);
#315=ORIENTED_EDGE('',*,*,#240,.T.);
#316=ORIENTED_EDGE('',*,*,#241,.F.);
#317=ORIENTED_EDGE('',*,*,#208,.F.);
#318=ORIENTED_EDGE('',*,*,#242,.F.);
#319=ORIENTED_EDGE('',*,*,#232,.F.);
#320=ORIENTED_EDGE('',*,*,#226,.F.);
#321=ORIENTED_EDGE('',*,*,#243,.T.);
#322=ORIENTED_EDGE('',*,*,#240,.F.);
#323=ORIENTED_EDGE('',*,*,#229,.F.);
#324=ORIENTED_EDGE('',*,*,#236,.F.);
#325=ORIENTED_EDGE('',*,*,#223,.F.);
#326=ORIENTED_EDGE('',*,*,#214,.T.);
#327=ORIENTED_EDGE('',*,*,#244,.F.);
#328=ORIENTED_EDGE('',*,*,#245,.F.);
#329=ORIENTED_EDGE('',*,*,#224,.F.);
#330=ORIENTED_EDGE('',*,*,#245,.T.);
#331=ORIENTED_EDGE('',*,*,#246,.F.);
#332=ORIENTED_EDGE('',*,*,#247,.F.);
#333=ORIENTED_EDGE('',*,*,#225,.F.);
#334=ORIENTED_EDGE('',*,*,#247,.T.);
#335=ORIENTED_EDGE('',*,*,#248,.F.);
#336=ORIENTED_EDGE('',*,*,#210,.F.);
#337=ORIENTED_EDGE('',*,*,#217,.F.);
#338=ORIENTED_EDGE('',*,*,#221,.T.);
#339=ORIENTED_EDGE('',*,*,#237,.F.);
#340=ORIENTED_EDGE('',*,*,#241,.T.);
#341=ORIENTED_EDGE('',*,*,#243,.F.);
#342=ORIENTED_EDGE('',*,*,#235,.T.);
#343=ORIENTED_EDGE('',*,*,#233,.F.);
#344=ORIENTED_EDGE('',*,*,#242,.T.);
#345=ORIENTED_EDGE('',*,*,#207,.T.);
#346=ORIENTED_EDGE('',*,*,#248,.T.);
#347=ORIENTED_EDGE('',*,*,#246,.T.);
#348=ORIENTED_EDGE('',*,*,#244,.T.);
#349=ORIENTED_EDGE('',*,*,#213,.F.);
#350=ORIENTED_EDGE('',*,*,#239,.T.);
#351=ORIENTED_EDGE('',*,*,#197,.T.);
#352=ORIENTED_EDGE('',*,*,#202,.T.);
#353=CONICAL_SURFACE('',#389,2.721,0.872664625997165);
#354=CONICAL_SURFACE('',#394,2.721,0.872664625997165);
#355=ADVANCED_FACE('',(#37),#353,.F.);
#356=ADVANCED_FACE('',(#38),#27,.F.);
#357=ADVANCED_FACE('',(#39),#354,.F.);
#358=ADVANCED_FACE('',(#40),#28,.F.);
#359=ADVANCED_FACE('',(#41),#29,.F.);
#360=ADVANCED_FACE('',(#42),#30,.F.);
#361=ADVANCED_FACE('',(#43),#31,.T.);
#362=ADVANCED_FACE('',(#44),#19,.T.);
#363=ADVANCED_FACE('',(#45,#15,#16),#20,.F.);
#364=ADVANCED_FACE('',(#46),#32,.T.);
#365=ADVANCED_FACE('',(#47),#21,.T.);
#366=ADVANCED_FACE('',(#48),#33,.F.);
#367=ADVANCED_FACE('',(#49),#34,.T.);
#368=ADVANCED_FACE('',(#50),#22,.T.);
#369=ADVANCED_FACE('',(#51),#35,.T.);
#370=ADVANCED_FACE('',(#52),#36,.F.);
#371=ADVANCED_FACE('',(#53),#23,.T.);
#372=ADVANCED_FACE('',(#54),#24,.T.);
#373=ADVANCED_FACE('',(#55),#25,.T.);
#374=ADVANCED_FACE('',(#56,#17,#18),#26,.T.);
#375=CLOSED_SHELL('',(#355,#356,#357,#358,#359,#360,#361,#362,#363,#364,
#365,#366,#367,#368,#369,#370,#371,#372,#373,#374));
#376=DERIVED_UNIT_ELEMENT(#378,1.);
#377=DERIVED_UNIT_ELEMENT(#659,-3.);
#378=(
MASS_UNIT()
NAMED_UNIT(*)
SI_UNIT(.KILO.,.GRAM.)
);
#379=DERIVED_UNIT((#376,#377));
#380=MEASURE_REPRESENTATION_ITEM('density measure',
POSITIVE_RATIO_MEASURE(7850.),#379);
#381=PROPERTY_DEFINITION_REPRESENTATION(#386,#383);
#382=PROPERTY_DEFINITION_REPRESENTATION(#387,#384);
#383=REPRESENTATION('material name',(#385),#656);
#384=REPRESENTATION('density',(#380),#656);
#385=DESCRIPTIVE_REPRESENTATION_ITEM('Steel','Steel');
#386=PROPERTY_DEFINITION('material property','material name',#666);
#387=PROPERTY_DEFINITION('material property','density of part',#666);
#388=AXIS2_PLACEMENT_3D('',#547,#431,#432);
#389=AXIS2_PLACEMENT_3D('',#548,#433,#434);
#390=AXIS2_PLACEMENT_3D('',#550,#435,#436);
#391=AXIS2_PLACEMENT_3D('',#553,#438,#439);
#392=AXIS2_PLACEMENT_3D('',#554,#440,#441);
#393=AXIS2_PLACEMENT_3D('',#557,#443,#444);
#394=AXIS2_PLACEMENT_3D('',#558,#445,#446);
#395=AXIS2_PLACEMENT_3D('',#560,#447,#448);
#396=AXIS2_PLACEMENT_3D('',#563,#450,#451);
#397=AXIS2_PLACEMENT_3D('',#564,#452,#453);
#398=AXIS2_PLACEMENT_3D('',#567,#455,#456);
#399=AXIS2_PLACEMENT_3D('',#568,#457,#458);
#400=AXIS2_PLACEMENT_3D('',#571,#459,#460);
#401=AXIS2_PLACEMENT_3D('',#575,#462,#463);
#402=AXIS2_PLACEMENT_3D('',#577,#465,#466);
#403=AXIS2_PLACEMENT_3D('',#580,#467,#468);
#404=AXIS2_PLACEMENT_3D('',#584,#470,#471);
#405=AXIS2_PLACEMENT_3D('',#586,#473,#474);
#406=AXIS2_PLACEMENT_3D('',#589,#475,#476);
#407=AXIS2_PLACEMENT_3D('',#593,#478,#479);
#408=AXIS2_PLACEMENT_3D('',#595,#481,#482);
#409=AXIS2_PLACEMENT_3D('',#601,#486,#487);
#410=AXIS2_PLACEMENT_3D('',#602,#488,#489);
#411=AXIS2_PLACEMENT_3D('',#609,#493,#494);
#412=AXIS2_PLACEMENT_3D('',#611,#495,#496);
#413=AXIS2_PLACEMENT_3D('',#615,#498,#499);
#414=AXIS2_PLACEMENT_3D('',#618,#501,#502);
#415=AXIS2_PLACEMENT_3D('',#619,#503,#504);
#416=AXIS2_PLACEMENT_3D('',#623,#506,#507);
#417=AXIS2_PLACEMENT_3D('',#625,#509,#510);
#418=AXIS2_PLACEMENT_3D('',#629,#513,#514);
#419=AXIS2_PLACEMENT_3D('',#631,#515,#516);
#420=AXIS2_PLACEMENT_3D('',#633,#518,#519);
#421=AXIS2_PLACEMENT_3D('',#634,#520,#521);
#422=AXIS2_PLACEMENT_3D('',#635,#522,#523);
#423=AXIS2_PLACEMENT_3D('',#639,#526,#527);
#424=AXIS2_PLACEMENT_3D('',#640,#528,#529);
#425=AXIS2_PLACEMENT_3D('',#641,#530,#531);
#426=AXIS2_PLACEMENT_3D('',#642,#532,#533);
#427=AXIS2_PLACEMENT_3D('',#643,#534,#535);
#428=AXIS2_PLACEMENT_3D('',#647,#538,#539);
#429=AXIS2_PLACEMENT_3D('',#651,#542,#543);
#430=AXIS2_PLACEMENT_3D('',#653,#545,#546);
#431=DIRECTION('axis',(0.,0.,1.));
#432=DIRECTION('refdir',(1.,0.,0.));
#433=DIRECTION('center_axis',(0.,0.,1.));
#434=DIRECTION('ref_axis',(1.,0.,0.));
#435=DIRECTION('center_axis',(0.,0.,-1.));
#436=DIRECTION('ref_axis',(1.,0.,0.));
#437=DIRECTION('',(0.766044443118978,-9.38133875270273E-17,-0.642787609686539));
#438=DIRECTION('center_axis',(0.,0.,-1.));
#439=DIRECTION('ref_axis',(1.,0.,0.));
#440=DIRECTION('center_axis',(0.,0.,-1.));
#441=DIRECTION('ref_axis',(1.,0.,0.));
#442=DIRECTION('',(0.,0.,-1.));
#443=DIRECTION('center_axis',(0.,0.,1.));
#444=DIRECTION('ref_axis',(1.,0.,0.));
#445=DIRECTION('center_axis',(0.,0.,1.));
#446=DIRECTION('ref_axis',(1.,0.,0.));
#447=DIRECTION('center_axis',(0.,0.,-1.));
#448=DIRECTION('ref_axis',(1.,0.,0.));
#449=DIRECTION('',(0.766044443118978,-9.38133875270273E-17,-0.642787609686539));
#450=DIRECTION('center_axis',(0.,0.,-1.));
#451=DIRECTION('ref_axis',(1.,0.,0.));
#452=DIRECTION('center_axis',(0.,0.,-1.));
#453=DIRECTION('ref_axis',(1.,0.,0.));
#454=DIRECTION('',(0.,0.,-1.));
#455=DIRECTION('center_axis',(0.,0.,1.));
#456=DIRECTION('ref_axis',(1.,0.,0.));
#457=DIRECTION('center_axis',(0.,0.,1.));
#458=DIRECTION('ref_axis',(0.562098658403052,0.827070189416526,0.));
#459=DIRECTION('center_axis',(0.,0.,1.));
#460=DIRECTION('ref_axis',(0.562098658403052,0.827070189416526,0.));
#461=DIRECTION('',(0.,0.,-1.));
#462=DIRECTION('center_axis',(0.,0.,-1.));
#463=DIRECTION('ref_axis',(0.562098658403052,0.827070189416526,0.));
#464=DIRECTION('',(0.,0.,1.));
#465=DIRECTION('center_axis',(0.,0.,-1.));
#466=DIRECTION('ref_axis',(0.562098658403051,-0.827070189416527,0.));
#467=DIRECTION('center_axis',(0.,0.,-1.));
#468=DIRECTION('ref_axis',(0.562098658403051,-0.827070189416527,0.));
#469=DIRECTION('',(0.,0.,1.));
#470=DIRECTION('center_axis',(0.,0.,1.));
#471=DIRECTION('ref_axis',(0.562098658403051,-0.827070189416527,0.));
#472=DIRECTION('',(0.,0.,1.));
#473=DIRECTION('center_axis',(0.,0.,-1.));
#474=DIRECTION('ref_axis',(-0.790569415042096,-0.612372435695794,0.));
#475=DIRECTION('center_axis',(0.,0.,1.));
#476=DIRECTION('ref_axis',(-0.790569415042096,-0.612372435695794,0.));
#477=DIRECTION('',(0.,0.,1.));
#478=DIRECTION('center_axis',(0.,0.,-1.));
#479=DIRECTION('ref_axis',(-0.790569415042096,-0.612372435695794,0.));
#480=DIRECTION('',(0.,0.,-1.));
#481=DIRECTION('center_axis',(5.79246784573471E-16,-1.,0.));
#482=DIRECTION('ref_axis',(-1.,-5.79246784573471E-16,0.));
#483=DIRECTION('',(-1.,-5.79246784573471E-16,0.));
#484=DIRECTION('',(0.,0.,-1.));
#485=DIRECTION('',(1.,5.79246784573471E-16,0.));
#486=DIRECTION('center_axis',(0.,0.,1.));
#487=DIRECTION('ref_axis',(1.,0.,0.));
#488=DIRECTION('center_axis',(0.,0.,-1.));
#489=DIRECTION('ref_axis',(-4.44089209850063E-16,1.,0.));
#490=DIRECTION('',(1.,0.,0.));
#491=DIRECTION('',(0.,-1.,0.));
#492=DIRECTION('',(-1.,0.,0.));
#493=DIRECTION('center_axis',(0.,0.,-1.));
#494=DIRECTION('ref_axis',(-4.44089209850063E-16,1.,0.));
#495=DIRECTION('center_axis',(0.,0.,1.));
#496=DIRECTION('ref_axis',(-0.790569415042093,0.612372435695797,0.));
#497=DIRECTION('',(1.,2.89623392286736E-16,0.));
#498=DIRECTION('center_axis',(0.,0.,1.));
#499=DIRECTION('ref_axis',(0.,1.,0.));
#500=DIRECTION('',(0.,1.,0.));
#501=DIRECTION('center_axis',(0.,0.,1.));
#502=DIRECTION('ref_axis',(0.,1.,0.));
#503=DIRECTION('center_axis',(0.,0.,-1.));
#504=DIRECTION('ref_axis',(-0.790569415042093,0.612372435695797,0.));
#505=DIRECTION('',(0.,0.,1.));
#506=DIRECTION('center_axis',(0.,0.,-1.));
#507=DIRECTION('ref_axis',(-0.790569415042093,0.612372435695797,0.));
#508=DIRECTION('',(0.,0.,-1.));
#509=DIRECTION('center_axis',(-2.89623392286736E-16,1.,0.));
#510=DIRECTION('ref_axis',(1.,2.89623392286736E-16,0.));
#511=DIRECTION('',(-1.,-2.89623392286736E-16,0.));
#512=DIRECTION('',(0.,0.,-1.));
#513=DIRECTION('center_axis',(0.,0.,-1.));
#514=DIRECTION('ref_axis',(0.,1.,0.));
#515=DIRECTION('center_axis',(0.,0.,1.));
#516=DIRECTION('ref_axis',(0.,1.,0.));
#517=DIRECTION('',(0.,0.,1.));
#518=DIRECTION('center_axis',(0.,0.,-1.));
#519=DIRECTION('ref_axis',(-4.44089209850063E-16,1.,0.));
#520=DIRECTION('center_axis',(0.,0.,1.));
#521=DIRECTION('ref_axis',(-4.44089209850063E-16,1.,0.));
#522=DIRECTION('center_axis',(-1.,0.,0.));
#523=DIRECTION('ref_axis',(0.,-1.,0.));
#524=DIRECTION('',(0.,0.,1.));
#525=DIRECTION('',(0.,-1.,0.));
#526=DIRECTION('center_axis',(0.,0.,-1.));
#527=DIRECTION('ref_axis',(-4.44089209850063E-16,1.,0.));
#528=DIRECTION('center_axis',(0.,0.,1.));
#529=DIRECTION('ref_axis',(-4.44089209850063E-16,1.,0.));
#530=DIRECTION('center_axis',(0.,0.,-1.));
#531=DIRECTION('ref_axis',(1.58220784366518E-8,-1.,0.));
#532=DIRECTION('center_axis',(0.,0.,1.));
#533=DIRECTION('ref_axis',(0.,1.,0.));
#534=DIRECTION('center_axis',(0.,1.,0.));
#535=DIRECTION('ref_axis',(-1.,0.,0.));
#536=DIRECTION('',(-1.,0.,0.));
#537=DIRECTION('',(0.,0.,1.));
#538=DIRECTION('center_axis',(1.,0.,0.));
#539=DIRECTION('ref_axis',(0.,1.,0.));
#540=DIRECTION('',(0.,1.,0.));
#541=DIRECTION('',(0.,0.,1.));
#542=DIRECTION('center_axis',(0.,-1.,0.));
#543=DIRECTION('ref_axis',(1.,0.,0.));
#544=DIRECTION('',(1.,0.,0.));
#545=DIRECTION('center_axis',(0.,0.,1.));
#546=DIRECTION('ref_axis',(1.,0.,0.));
#547=CARTESIAN_POINT('',(0.,0.,0.));
#548=CARTESIAN_POINT('Origin',(-3.,4.,2.30984055335669));
#549=CARTESIAN_POINT('',(-6.5435,4.,3.));
#550=CARTESIAN_POINT('Origin',(-3.,4.,3.));
#551=CARTESIAN_POINT('',(-4.8985,4.,1.61968110671337));
#552=CARTESIAN_POINT('',(-5.721,4.,2.30984055335669));
#553=CARTESIAN_POINT('Origin',(-3.,4.,1.61968110671338));
#554=CARTESIAN_POINT('Origin',(-3.,4.,0.));
#555=CARTESIAN_POINT('',(-4.8985,4.,0.));
#556=CARTESIAN_POINT('',(-4.8985,4.,0.));
#557=CARTESIAN_POINT('Origin',(-3.,4.,0.));
#558=CARTESIAN_POINT('Origin',(7.,-4.,2.30984055335669));
#559=CARTESIAN_POINT('',(3.4565,-4.,3.));
#560=CARTESIAN_POINT('Origin',(7.,-4.,3.));
#561=CARTESIAN_POINT('',(5.1015,-4.,1.61968110671337));
#562=CARTESIAN_POINT('',(4.279,-4.,2.30984055335669));
#563=CARTESIAN_POINT('Origin',(7.,-4.,1.61968110671338));
#564=CARTESIAN_POINT('Origin',(7.,-4.,0.));
#565=CARTESIAN_POINT('',(5.1015,-4.,0.));
#566=CARTESIAN_POINT('',(5.1015,-4.,0.));
#567=CARTESIAN_POINT('Origin',(7.,-4.,0.));
#568=CARTESIAN_POINT('Origin',(-46.4154262121679,-46.7388604179089,0.));
#569=CARTESIAN_POINT('',(-18.3104932920153,-5.38535094708263,3.));
#570=CARTESIAN_POINT('',(-12.5,-10.,3.));
#571=CARTESIAN_POINT('Origin',(-46.4154262121679,-46.7388604179089,3.));
#572=CARTESIAN_POINT('',(-18.3104932920153,-5.38535094708263,0.));
#573=CARTESIAN_POINT('',(-18.3104932920153,-5.38535094708263,0.));
#574=CARTESIAN_POINT('',(-12.5,-10.,0.));
#575=CARTESIAN_POINT('Origin',(-46.4154262121679,-46.7388604179089,0.));
#576=CARTESIAN_POINT('',(-12.5,-10.,0.));
#577=CARTESIAN_POINT('Origin',(-46.4154262121678,46.738860417909,0.));
#578=CARTESIAN_POINT('',(-18.3104932920153,5.38535094708264,0.));
#579=CARTESIAN_POINT('',(-12.5,10.,0.));
#580=CARTESIAN_POINT('Origin',(-46.4154262121678,46.738860417909,0.));
#581=CARTESIAN_POINT('',(-18.3104932920153,5.38535094708264,3.));
#582=CARTESIAN_POINT('',(-18.3104932920153,5.38535094708264,0.));
#583=CARTESIAN_POINT('',(-12.5,10.,3.));
#584=CARTESIAN_POINT('Origin',(-46.4154262121678,46.738860417909,3.));
#585=CARTESIAN_POINT('',(-12.5,10.,0.));
#586=CARTESIAN_POINT('Origin',(-19.3729833462074,2.25,3.));
#587=CARTESIAN_POINT('',(-20.3412291827593,2.5,0.));
#588=CARTESIAN_POINT('',(-19.3729833462074,1.25,0.));
#589=CARTESIAN_POINT('Origin',(-19.3729833462074,2.25,0.));
#590=CARTESIAN_POINT('',(-19.3729833462074,1.25,3.));
#591=CARTESIAN_POINT('',(-19.3729833462074,1.25,3.));
#592=CARTESIAN_POINT('',(-20.3412291827593,2.5,3.));
#593=CARTESIAN_POINT('Origin',(-19.3729833462074,2.25,3.));
#594=CARTESIAN_POINT('',(-20.3412291827593,2.5,3.));
#595=CARTESIAN_POINT('Origin',(-18.5,1.25,3.));
#596=CARTESIAN_POINT('',(-18.5,1.25,0.));
#597=CARTESIAN_POINT('',(-27.0000002160668,1.25,0.));
#598=CARTESIAN_POINT('',(-18.5,1.25,3.));
#599=CARTESIAN_POINT('',(-18.5,1.25,3.));
#600=CARTESIAN_POINT('',(-27.0000002160668,1.25,3.));
#601=CARTESIAN_POINT('Origin',(0.,0.,0.));
#602=CARTESIAN_POINT('Origin',(-15.5,1.25,0.));
#603=CARTESIAN_POINT('',(12.5,10.,0.));
#604=CARTESIAN_POINT('',(-12.5,10.,0.));
#605=CARTESIAN_POINT('',(12.5,-10.,0.));
#606=CARTESIAN_POINT('',(12.5,10.,0.));
#607=CARTESIAN_POINT('',(12.5,-10.,0.));
#608=CARTESIAN_POINT('',(-20.3412291827593,-2.5,0.));
#609=CARTESIAN_POINT('Origin',(-15.5,-1.25,0.));
#610=CARTESIAN_POINT('',(-19.3729833462074,-1.25,0.));
#611=CARTESIAN_POINT('Origin',(-19.3729833462074,-2.25,0.));
#612=CARTESIAN_POINT('',(-18.5,-1.25,0.));
#613=CARTESIAN_POINT('',(-15.5,-1.25,0.));
#614=CARTESIAN_POINT('',(-12.5,-1.24999990506753,0.));
#615=CARTESIAN_POINT('Origin',(-15.5,-1.25,0.));
#616=CARTESIAN_POINT('',(-12.5,1.24999990498423,0.));
#617=CARTESIAN_POINT('',(-12.5,-10.,0.));
#618=CARTESIAN_POINT('Origin',(-15.5,1.25,0.));
#619=CARTESIAN_POINT('Origin',(-19.3729833462074,-2.25,3.));
#620=CARTESIAN_POINT('',(-20.3412291827593,-2.5,3.));
#621=CARTESIAN_POINT('',(-20.3412291827593,-2.5,3.));
#622=CARTESIAN_POINT('',(-19.3729833462074,-1.25,3.));
#623=CARTESIAN_POINT('Origin',(-19.3729833462074,-2.25,3.));
#624=CARTESIAN_POINT('',(-19.3729833462074,-1.25,3.));
#625=CARTESIAN_POINT('Origin',(-20.5,-1.25,3.));
#626=CARTESIAN_POINT('',(-18.5,-1.25,3.));
#627=CARTESIAN_POINT('',(-15.5,-1.25,3.));
#628=CARTESIAN_POINT('',(-18.5,-1.25,3.));
#629=CARTESIAN_POINT('Origin',(-15.5,1.25,3.));
#630=CARTESIAN_POINT('',(-12.5,1.24999990498423,3.));
#631=CARTESIAN_POINT('Origin',(-15.5,1.25,3.));
#632=CARTESIAN_POINT('',(-12.5,1.25,3.));
#633=CARTESIAN_POINT('Origin',(-15.5,1.25,3.));
#634=CARTESIAN_POINT('Origin',(-15.5,1.25,3.));
#635=CARTESIAN_POINT('Origin',(-12.5,10.,0.));
#636=CARTESIAN_POINT('',(-12.5,-1.24999990506753,3.));
#637=CARTESIAN_POINT('',(-12.5,-1.25,3.));
#638=CARTESIAN_POINT('',(-12.5,-10.,3.));
#639=CARTESIAN_POINT('Origin',(-15.5,-1.25,3.));
#640=CARTESIAN_POINT('Origin',(-15.5,-1.25,3.));
#641=CARTESIAN_POINT('Origin',(-15.5,-1.25,3.));
#642=CARTESIAN_POINT('Origin',(-15.5,-1.25,3.));
#643=CARTESIAN_POINT('Origin',(12.5,10.,0.));
#644=CARTESIAN_POINT('',(12.5,10.,3.));
#645=CARTESIAN_POINT('',(-12.5,10.,3.));
#646=CARTESIAN_POINT('',(12.5,10.,0.));
#647=CARTESIAN_POINT('Origin',(12.5,-10.,0.));
#648=CARTESIAN_POINT('',(12.5,-10.,3.));
#649=CARTESIAN_POINT('',(12.5,10.,3.));
#650=CARTESIAN_POINT('',(12.5,-10.,0.));
#651=CARTESIAN_POINT('Origin',(-12.5,-10.,0.));
#652=CARTESIAN_POINT('',(12.5,-10.,3.));
#653=CARTESIAN_POINT('Origin',(0.,0.,3.));
#654=UNCERTAINTY_MEASURE_WITH_UNIT(LENGTH_MEASURE(0.01),#658,
'DISTANCE_ACCURACY_VALUE',
'Maximum model space distance between geometric entities at asserted c
onnectivities');
#655=UNCERTAINTY_MEASURE_WITH_UNIT(LENGTH_MEASURE(0.01),#658,
'DISTANCE_ACCURACY_VALUE',
'Maximum model space distance between geometric entities at asserted c
onnectivities');
#656=(
GEOMETRIC_REPRESENTATION_CONTEXT(3)
GLOBAL_UNCERTAINTY_ASSIGNED_CONTEXT((#654))
GLOBAL_UNIT_ASSIGNED_CONTEXT((#658,#660,#661))
REPRESENTATION_CONTEXT('','3D')
);
#657=(
GEOMETRIC_REPRESENTATION_CONTEXT(3)
GLOBAL_UNCERTAINTY_ASSIGNED_CONTEXT((#655))
GLOBAL_UNIT_ASSIGNED_CONTEXT((#658,#660,#661))
REPRESENTATION_CONTEXT('','3D')
);
#658=(
LENGTH_UNIT()
NAMED_UNIT(*)
SI_UNIT(.MILLI.,.METRE.)
);
#659=(
LENGTH_UNIT()
NAMED_UNIT(*)
SI_UNIT($,.METRE.)
);
#660=(
NAMED_UNIT(*)
PLANE_ANGLE_UNIT()
SI_UNIT($,.RADIAN.)
);
#661=(
NAMED_UNIT(*)
SI_UNIT($,.STERADIAN.)
SOLID_ANGLE_UNIT()
);
#662=SHAPE_DEFINITION_REPRESENTATION(#663,#664);
#663=PRODUCT_DEFINITION_SHAPE('',$,#666);
#664=SHAPE_REPRESENTATION('',(#388),#656);
#665=PRODUCT_DEFINITION_CONTEXT('part definition',#670,'design');
#666=PRODUCT_DEFINITION('VIHALS Motor Top Wire Holder',
'VIHALS Motor Top Wire Holder v3',#667,#665);
#667=PRODUCT_DEFINITION_FORMATION('',$,#672);
#668=PRODUCT_RELATED_PRODUCT_CATEGORY('VIHALS Motor Top Wire Holder v3',
'VIHALS Motor Top Wire Holder v3',(#672));
#669=APPLICATION_PROTOCOL_DEFINITION('international standard',
'automotive_design',2009,#670);
#670=APPLICATION_CONTEXT(
'Core Data for Automotive Mechanical Design Process');
#671=PRODUCT_CONTEXT('part definition',#670,'mechanical');
#672=PRODUCT('VIHALS Motor Top Wire Holder',
'VIHALS Motor Top Wire Holder v3',$,(#671));
#673=PRESENTATION_STYLE_ASSIGNMENT((#675));
#674=PRESENTATION_STYLE_ASSIGNMENT((#676));
#675=SURFACE_STYLE_USAGE(.BOTH.,#677);
#676=SURFACE_STYLE_USAGE(.BOTH.,#678);
#677=SURFACE_SIDE_STYLE('',(#679));
#678=SURFACE_SIDE_STYLE('',(#680));
#679=SURFACE_STYLE_FILL_AREA(#681);
#680=SURFACE_STYLE_FILL_AREA(#682);
#681=FILL_AREA_STYLE('Steel - Satin',(#683));
#682=FILL_AREA_STYLE('Powder Coat - Rough (Black)',(#684));
#683=FILL_AREA_STYLE_COLOUR('Steel - Satin',#685);
#684=FILL_AREA_STYLE_COLOUR('Powder Coat - Rough (Black)',#686);
#685=COLOUR_RGB('Steel - Satin',0.627450980392157,0.627450980392157,0.627450980392157);
#686=COLOUR_RGB('Powder Coat - Rough (Black)',0.0705882352941176,0.529411764705882,
0.164705882352941);
ENDSEC;
END-ISO-10303-21;
