ISO-10303-21;
HEADER;
/* Generated by software containing ST-Developer
 * from STEP Tools, Inc. (www.steptools.com) 
 */

FILE_DESCRIPTION(
/* description */ (''),
/* implementation_level */ '2;1');

FILE_NAME(
/* name */ 'VIHALS Motor Side Wire Holder.step',
/* time_stamp */ '2026-03-25T02:17:05-04:00',
/* author */ (''),
/* organization */ (''),
/* preprocessor_version */ 'ST-DEVELOPER v20.1',
/* originating_system */ 'Autodesk Translation Framework v14.24.0.0',
/* authorisation */ '');

FILE_SCHEMA (('AUTOMOTIVE_DESIGN { 1 0 10303 214 3 1 1 }'));
ENDSEC;

DATA;
#10=MECHANICAL_DESIGN_GEOMETRIC_PRESENTATION_REPRESENTATION('',(#13),#907);
#11=SHAPE_REPRESENTATION_RELATIONSHIP('SRR','None',#914,#12);
#12=ADVANCED_BREP_SHAPE_REPRESENTATION('',(#14),#906);
#13=STYLED_ITEM('',(#924),#14);
#14=MANIFOLD_SOLID_BREP('Body1',#541);
#15=CYLINDRICAL_SURFACE('',#575,50.);
#16=CYLINDRICAL_SURFACE('',#576,50.);
#17=CYLINDRICAL_SURFACE('',#577,1.);
#18=CYLINDRICAL_SURFACE('',#579,1.);
#19=CYLINDRICAL_SURFACE('',#580,5.);
#20=CYLINDRICAL_SURFACE('',#582,3.);
#21=CYLINDRICAL_SURFACE('',#584,3.);
#22=CYLINDRICAL_SURFACE('',#585,5.);
#23=CIRCLE('',#557,50.);
#24=CIRCLE('',#558,5.);
#25=CIRCLE('',#559,1.);
#26=CIRCLE('',#560,3.);
#27=CIRCLE('',#561,3.);
#28=CIRCLE('',#562,1.);
#29=CIRCLE('',#563,5.);
#30=CIRCLE('',#564,50.);
#31=CIRCLE('',#567,50.);
#32=CIRCLE('',#568,5.);
#33=CIRCLE('',#569,1.);
#34=CIRCLE('',#570,3.);
#35=CIRCLE('',#571,3.);
#36=CIRCLE('',#572,1.);
#37=CIRCLE('',#573,5.);
#38=CIRCLE('',#574,50.);
#39=FACE_OUTER_BOUND('',#67,.T.);
#40=FACE_OUTER_BOUND('',#68,.T.);
#41=FACE_OUTER_BOUND('',#69,.T.);
#42=FACE_OUTER_BOUND('',#70,.T.);
#43=FACE_OUTER_BOUND('',#71,.T.);
#44=FACE_OUTER_BOUND('',#72,.T.);
#45=FACE_OUTER_BOUND('',#73,.T.);
#46=FACE_OUTER_BOUND('',#74,.T.);
#47=FACE_OUTER_BOUND('',#75,.T.);
#48=FACE_OUTER_BOUND('',#76,.T.);
#49=FACE_OUTER_BOUND('',#77,.T.);
#50=FACE_OUTER_BOUND('',#78,.T.);
#51=FACE_OUTER_BOUND('',#79,.T.);
#52=FACE_OUTER_BOUND('',#80,.T.);
#53=FACE_OUTER_BOUND('',#81,.T.);
#54=FACE_OUTER_BOUND('',#82,.T.);
#55=FACE_OUTER_BOUND('',#83,.T.);
#56=FACE_OUTER_BOUND('',#84,.T.);
#57=FACE_OUTER_BOUND('',#85,.T.);
#58=FACE_OUTER_BOUND('',#86,.T.);
#59=FACE_OUTER_BOUND('',#87,.T.);
#60=FACE_OUTER_BOUND('',#88,.T.);
#61=FACE_OUTER_BOUND('',#89,.T.);
#62=FACE_OUTER_BOUND('',#90,.T.);
#63=FACE_OUTER_BOUND('',#91,.T.);
#64=FACE_OUTER_BOUND('',#92,.T.);
#65=FACE_OUTER_BOUND('',#93,.T.);
#66=FACE_OUTER_BOUND('',#94,.T.);
#67=EDGE_LOOP('',(#341,#342,#343,#344));
#68=EDGE_LOOP('',(#345,#346,#347,#348,#349,#350,#351,#352,#353,#354,#355,
#356,#357,#358));
#69=EDGE_LOOP('',(#359,#360,#361,#362));
#70=EDGE_LOOP('',(#363,#364,#365,#366,#367,#368,#369,#370,#371,#372,#373,
#374,#375,#376));
#71=EDGE_LOOP('',(#377,#378,#379,#380));
#72=EDGE_LOOP('',(#381,#382,#383,#384));
#73=EDGE_LOOP('',(#385,#386,#387,#388));
#74=EDGE_LOOP('',(#389,#390,#391,#392));
#75=EDGE_LOOP('',(#393,#394,#395,#396));
#76=EDGE_LOOP('',(#397,#398,#399,#400));
#77=EDGE_LOOP('',(#401,#402,#403,#404));
#78=EDGE_LOOP('',(#405,#406,#407,#408));
#79=EDGE_LOOP('',(#409,#410,#411,#412));
#80=EDGE_LOOP('',(#413,#414,#415,#416));
#81=EDGE_LOOP('',(#417,#418,#419,#420));
#82=EDGE_LOOP('',(#421,#422,#423,#424));
#83=EDGE_LOOP('',(#425,#426,#427,#428));
#84=EDGE_LOOP('',(#429,#430,#431,#432,#433));
#85=EDGE_LOOP('',(#434,#435,#436,#437,#438));
#86=EDGE_LOOP('',(#439,#440,#441,#442,#443));
#87=EDGE_LOOP('',(#444,#445,#446,#447,#448,#449,#450,#451,#452,#453,#454,
#455,#456,#457));
#88=EDGE_LOOP('',(#458,#459,#460,#461));
#89=EDGE_LOOP('',(#462,#463,#464,#465,#466,#467,#468,#469,#470,#471,#472));
#90=EDGE_LOOP('',(#473,#474,#475,#476));
#91=EDGE_LOOP('',(#477,#478,#479,#480));
#92=EDGE_LOOP('',(#481,#482,#483,#484));
#93=EDGE_LOOP('',(#485,#486,#487,#488));
#94=EDGE_LOOP('',(#489,#490,#491,#492));
#95=LINE('',#753,#155);
#96=LINE('',#755,#156);
#97=LINE('',#757,#157);
#98=LINE('',#758,#158);
#99=LINE('',#761,#159);
#100=LINE('',#769,#160);
#101=LINE('',#773,#161);
#102=LINE('',#777,#162);
#103=LINE('',#784,#163);
#104=LINE('',#788,#164);
#105=LINE('',#790,#165);
#106=LINE('',#792,#166);
#107=LINE('',#793,#167);
#108=LINE('',#796,#168);
#109=LINE('',#804,#169);
#110=LINE('',#808,#170);
#111=LINE('',#812,#171);
#112=LINE('',#819,#172);
#113=LINE('',#821,#173);
#114=LINE('',#822,#174);
#115=LINE('',#824,#175);
#116=LINE('',#825,#176);
#117=LINE('',#827,#177);
#118=LINE('',#828,#178);
#119=LINE('',#830,#179);
#120=LINE('',#832,#180);
#121=LINE('',#833,#181);
#122=LINE('',#836,#182);
#123=LINE('',#838,#183);
#124=LINE('',#840,#184);
#125=LINE('',#845,#185);
#126=LINE('',#847,#186);
#127=LINE('',#848,#187);
#128=LINE('',#851,#188);
#129=LINE('',#853,#189);
#130=LINE('',#854,#190);
#131=LINE('',#858,#191);
#132=LINE('',#860,#192);
#133=LINE('',#862,#193);
#134=LINE('',#864,#194);
#135=LINE('',#865,#195);
#136=LINE('',#868,#196);
#137=LINE('',#870,#197);
#138=LINE('',#872,#198);
#139=LINE('',#873,#199);
#140=LINE('',#875,#200);
#141=LINE('',#876,#201);
#142=LINE('',#879,#202);
#143=LINE('',#881,#203);
#144=LINE('',#883,#204);
#145=LINE('',#885,#205);
#146=LINE('',#886,#206);
#147=LINE('',#889,#207);
#148=LINE('',#890,#208);
#149=LINE('',#891,#209);
#150=LINE('',#894,#210);
#151=LINE('',#895,#211);
#152=LINE('',#897,#212);
#153=LINE('',#899,#213);
#154=LINE('',#902,#214);
#155=VECTOR('',#603,10.);
#156=VECTOR('',#604,10.);
#157=VECTOR('',#605,10.);
#158=VECTOR('',#606,10.);
#159=VECTOR('',#609,10.);
#160=VECTOR('',#616,10.);
#161=VECTOR('',#619,10.);
#162=VECTOR('',#622,10.);
#163=VECTOR('',#629,10.);
#164=VECTOR('',#632,10.);
#165=VECTOR('',#633,10.);
#166=VECTOR('',#634,10.);
#167=VECTOR('',#635,10.);
#168=VECTOR('',#638,10.);
#169=VECTOR('',#645,10.);
#170=VECTOR('',#648,10.);
#171=VECTOR('',#651,10.);
#172=VECTOR('',#658,10.);
#173=VECTOR('',#661,50.);
#174=VECTOR('',#662,10.);
#175=VECTOR('',#665,50.);
#176=VECTOR('',#666,10.);
#177=VECTOR('',#669,10.);
#178=VECTOR('',#670,10.);
#179=VECTOR('',#673,10.);
#180=VECTOR('',#676,10.);
#181=VECTOR('',#677,10.);
#182=VECTOR('',#682,10.);
#183=VECTOR('',#685,10.);
#184=VECTOR('',#688,10.);
#185=VECTOR('',#695,10.);
#186=VECTOR('',#696,10.);
#187=VECTOR('',#697,10.);
#188=VECTOR('',#700,10.);
#189=VECTOR('',#701,10.);
#190=VECTOR('',#702,10.);
#191=VECTOR('',#705,10.);
#192=VECTOR('',#706,10.);
#193=VECTOR('',#707,10.);
#194=VECTOR('',#708,10.);
#195=VECTOR('',#709,10.);
#196=VECTOR('',#712,10.);
#197=VECTOR('',#713,10.);
#198=VECTOR('',#714,10.);
#199=VECTOR('',#715,10.);
#200=VECTOR('',#718,10.);
#201=VECTOR('',#719,10.);
#202=VECTOR('',#722,10.);
#203=VECTOR('',#723,10.);
#204=VECTOR('',#724,10.);
#205=VECTOR('',#725,10.);
#206=VECTOR('',#726,10.);
#207=VECTOR('',#729,10.);
#208=VECTOR('',#730,10.);
#209=VECTOR('',#731,10.);
#210=VECTOR('',#734,10.);
#211=VECTOR('',#735,10.);
#212=VECTOR('',#738,10.);
#213=VECTOR('',#741,10.);
#214=VECTOR('',#746,10.);
#215=VERTEX_POINT('',#751);
#216=VERTEX_POINT('',#752);
#217=VERTEX_POINT('',#754);
#218=VERTEX_POINT('',#756);
#219=VERTEX_POINT('',#760);
#220=VERTEX_POINT('',#762);
#221=VERTEX_POINT('',#764);
#222=VERTEX_POINT('',#766);
#223=VERTEX_POINT('',#768);
#224=VERTEX_POINT('',#770);
#225=VERTEX_POINT('',#772);
#226=VERTEX_POINT('',#774);
#227=VERTEX_POINT('',#776);
#228=VERTEX_POINT('',#778);
#229=VERTEX_POINT('',#780);
#230=VERTEX_POINT('',#782);
#231=VERTEX_POINT('',#786);
#232=VERTEX_POINT('',#787);
#233=VERTEX_POINT('',#789);
#234=VERTEX_POINT('',#791);
#235=VERTEX_POINT('',#795);
#236=VERTEX_POINT('',#797);
#237=VERTEX_POINT('',#799);
#238=VERTEX_POINT('',#801);
#239=VERTEX_POINT('',#803);
#240=VERTEX_POINT('',#805);
#241=VERTEX_POINT('',#807);
#242=VERTEX_POINT('',#809);
#243=VERTEX_POINT('',#811);
#244=VERTEX_POINT('',#813);
#245=VERTEX_POINT('',#815);
#246=VERTEX_POINT('',#817);
#247=VERTEX_POINT('',#844);
#248=VERTEX_POINT('',#846);
#249=VERTEX_POINT('',#850);
#250=VERTEX_POINT('',#852);
#251=VERTEX_POINT('',#856);
#252=VERTEX_POINT('',#857);
#253=VERTEX_POINT('',#859);
#254=VERTEX_POINT('',#861);
#255=VERTEX_POINT('',#863);
#256=VERTEX_POINT('',#867);
#257=VERTEX_POINT('',#869);
#258=VERTEX_POINT('',#871);
#259=VERTEX_POINT('',#878);
#260=VERTEX_POINT('',#880);
#261=VERTEX_POINT('',#882);
#262=VERTEX_POINT('',#884);
#263=VERTEX_POINT('',#888);
#264=VERTEX_POINT('',#893);
#265=EDGE_CURVE('',#215,#216,#95,.T.);
#266=EDGE_CURVE('',#216,#217,#96,.T.);
#267=EDGE_CURVE('',#217,#218,#97,.T.);
#268=EDGE_CURVE('',#218,#215,#98,.T.);
#269=EDGE_CURVE('',#216,#219,#99,.T.);
#270=EDGE_CURVE('',#219,#220,#23,.F.);
#271=EDGE_CURVE('',#220,#221,#24,.T.);
#272=EDGE_CURVE('',#222,#221,#25,.T.);
#273=EDGE_CURVE('',#222,#223,#100,.T.);
#274=EDGE_CURVE('',#223,#224,#26,.T.);
#275=EDGE_CURVE('',#224,#225,#101,.T.);
#276=EDGE_CURVE('',#225,#226,#27,.T.);
#277=EDGE_CURVE('',#226,#227,#102,.T.);
#278=EDGE_CURVE('',#228,#227,#28,.T.);
#279=EDGE_CURVE('',#228,#229,#29,.T.);
#280=EDGE_CURVE('',#230,#229,#30,.T.);
#281=EDGE_CURVE('',#230,#217,#103,.T.);
#282=EDGE_CURVE('',#231,#232,#104,.T.);
#283=EDGE_CURVE('',#232,#233,#105,.T.);
#284=EDGE_CURVE('',#233,#234,#106,.T.);
#285=EDGE_CURVE('',#234,#231,#107,.T.);
#286=EDGE_CURVE('',#232,#235,#108,.T.);
#287=EDGE_CURVE('',#235,#236,#31,.F.);
#288=EDGE_CURVE('',#236,#237,#32,.T.);
#289=EDGE_CURVE('',#238,#237,#33,.T.);
#290=EDGE_CURVE('',#238,#239,#109,.T.);
#291=EDGE_CURVE('',#239,#240,#34,.T.);
#292=EDGE_CURVE('',#240,#241,#110,.T.);
#293=EDGE_CURVE('',#241,#242,#35,.T.);
#294=EDGE_CURVE('',#242,#243,#111,.T.);
#295=EDGE_CURVE('',#244,#243,#36,.T.);
#296=EDGE_CURVE('',#244,#245,#37,.T.);
#297=EDGE_CURVE('',#246,#245,#38,.T.);
#298=EDGE_CURVE('',#246,#233,#112,.T.);
#299=EDGE_CURVE('',#229,#236,#113,.T.);
#300=EDGE_CURVE('',#230,#235,#114,.T.);
#301=EDGE_CURVE('',#245,#220,#115,.T.);
#302=EDGE_CURVE('',#219,#246,#116,.T.);
#303=EDGE_CURVE('',#237,#228,#117,.T.);
#304=EDGE_CURVE('',#227,#238,#118,.T.);
#305=EDGE_CURVE('',#226,#239,#119,.T.);
#306=EDGE_CURVE('',#243,#222,#120,.T.);
#307=EDGE_CURVE('',#221,#244,#121,.T.);
#308=EDGE_CURVE('',#223,#242,#122,.T.);
#309=EDGE_CURVE('',#224,#241,#123,.T.);
#310=EDGE_CURVE('',#225,#240,#124,.T.);
#311=EDGE_CURVE('',#218,#247,#125,.T.);
#312=EDGE_CURVE('',#247,#248,#126,.T.);
#313=EDGE_CURVE('',#248,#215,#127,.T.);
#314=EDGE_CURVE('',#234,#249,#128,.T.);
#315=EDGE_CURVE('',#249,#250,#129,.T.);
#316=EDGE_CURVE('',#250,#231,#130,.T.);
#317=EDGE_CURVE('',#251,#252,#131,.T.);
#318=EDGE_CURVE('',#253,#251,#132,.T.);
#319=EDGE_CURVE('',#254,#253,#133,.T.);
#320=EDGE_CURVE('',#255,#254,#134,.T.);
#321=EDGE_CURVE('',#252,#255,#135,.T.);
#322=EDGE_CURVE('',#253,#256,#136,.T.);
#323=EDGE_CURVE('',#257,#256,#137,.T.);
#324=EDGE_CURVE('',#257,#258,#138,.T.);
#325=EDGE_CURVE('',#254,#258,#139,.T.);
#326=EDGE_CURVE('',#251,#248,#140,.T.);
#327=EDGE_CURVE('',#256,#247,#141,.T.);
#328=EDGE_CURVE('',#252,#259,#142,.T.);
#329=EDGE_CURVE('',#260,#259,#143,.T.);
#330=EDGE_CURVE('',#260,#261,#144,.T.);
#331=EDGE_CURVE('',#262,#261,#145,.T.);
#332=EDGE_CURVE('',#262,#249,#146,.T.);
#333=EDGE_CURVE('',#259,#263,#147,.T.);
#334=EDGE_CURVE('',#263,#258,#148,.T.);
#335=EDGE_CURVE('',#260,#258,#149,.T.);
#336=EDGE_CURVE('',#264,#250,#150,.T.);
#337=EDGE_CURVE('',#257,#264,#151,.T.);
#338=EDGE_CURVE('',#264,#262,#152,.T.);
#339=EDGE_CURVE('',#261,#257,#153,.T.);
#340=EDGE_CURVE('',#255,#263,#154,.T.);
#341=ORIENTED_EDGE('',*,*,#265,.T.);
#342=ORIENTED_EDGE('',*,*,#266,.T.);
#343=ORIENTED_EDGE('',*,*,#267,.T.);
#344=ORIENTED_EDGE('',*,*,#268,.T.);
#345=ORIENTED_EDGE('',*,*,#266,.F.);
#346=ORIENTED_EDGE('',*,*,#269,.T.);
#347=ORIENTED_EDGE('',*,*,#270,.T.);
#348=ORIENTED_EDGE('',*,*,#271,.T.);
#349=ORIENTED_EDGE('',*,*,#272,.F.);
#350=ORIENTED_EDGE('',*,*,#273,.T.);
#351=ORIENTED_EDGE('',*,*,#274,.T.);
#352=ORIENTED_EDGE('',*,*,#275,.T.);
#353=ORIENTED_EDGE('',*,*,#276,.T.);
#354=ORIENTED_EDGE('',*,*,#277,.T.);
#355=ORIENTED_EDGE('',*,*,#278,.F.);
#356=ORIENTED_EDGE('',*,*,#279,.T.);
#357=ORIENTED_EDGE('',*,*,#280,.F.);
#358=ORIENTED_EDGE('',*,*,#281,.T.);
#359=ORIENTED_EDGE('',*,*,#282,.T.);
#360=ORIENTED_EDGE('',*,*,#283,.T.);
#361=ORIENTED_EDGE('',*,*,#284,.T.);
#362=ORIENTED_EDGE('',*,*,#285,.T.);
#363=ORIENTED_EDGE('',*,*,#283,.F.);
#364=ORIENTED_EDGE('',*,*,#286,.T.);
#365=ORIENTED_EDGE('',*,*,#287,.T.);
#366=ORIENTED_EDGE('',*,*,#288,.T.);
#367=ORIENTED_EDGE('',*,*,#289,.F.);
#368=ORIENTED_EDGE('',*,*,#290,.T.);
#369=ORIENTED_EDGE('',*,*,#291,.T.);
#370=ORIENTED_EDGE('',*,*,#292,.T.);
#371=ORIENTED_EDGE('',*,*,#293,.T.);
#372=ORIENTED_EDGE('',*,*,#294,.T.);
#373=ORIENTED_EDGE('',*,*,#295,.F.);
#374=ORIENTED_EDGE('',*,*,#296,.T.);
#375=ORIENTED_EDGE('',*,*,#297,.F.);
#376=ORIENTED_EDGE('',*,*,#298,.T.);
#377=ORIENTED_EDGE('',*,*,#280,.T.);
#378=ORIENTED_EDGE('',*,*,#299,.T.);
#379=ORIENTED_EDGE('',*,*,#287,.F.);
#380=ORIENTED_EDGE('',*,*,#300,.F.);
#381=ORIENTED_EDGE('',*,*,#297,.T.);
#382=ORIENTED_EDGE('',*,*,#301,.T.);
#383=ORIENTED_EDGE('',*,*,#270,.F.);
#384=ORIENTED_EDGE('',*,*,#302,.T.);
#385=ORIENTED_EDGE('',*,*,#289,.T.);
#386=ORIENTED_EDGE('',*,*,#303,.T.);
#387=ORIENTED_EDGE('',*,*,#278,.T.);
#388=ORIENTED_EDGE('',*,*,#304,.T.);
#389=ORIENTED_EDGE('',*,*,#304,.F.);
#390=ORIENTED_EDGE('',*,*,#277,.F.);
#391=ORIENTED_EDGE('',*,*,#305,.T.);
#392=ORIENTED_EDGE('',*,*,#290,.F.);
#393=ORIENTED_EDGE('',*,*,#295,.T.);
#394=ORIENTED_EDGE('',*,*,#306,.T.);
#395=ORIENTED_EDGE('',*,*,#272,.T.);
#396=ORIENTED_EDGE('',*,*,#307,.T.);
#397=ORIENTED_EDGE('',*,*,#301,.F.);
#398=ORIENTED_EDGE('',*,*,#296,.F.);
#399=ORIENTED_EDGE('',*,*,#307,.F.);
#400=ORIENTED_EDGE('',*,*,#271,.F.);
#401=ORIENTED_EDGE('',*,*,#306,.F.);
#402=ORIENTED_EDGE('',*,*,#294,.F.);
#403=ORIENTED_EDGE('',*,*,#308,.F.);
#404=ORIENTED_EDGE('',*,*,#273,.F.);
#405=ORIENTED_EDGE('',*,*,#308,.T.);
#406=ORIENTED_EDGE('',*,*,#293,.F.);
#407=ORIENTED_EDGE('',*,*,#309,.F.);
#408=ORIENTED_EDGE('',*,*,#274,.F.);
#409=ORIENTED_EDGE('',*,*,#309,.T.);
#410=ORIENTED_EDGE('',*,*,#292,.F.);
#411=ORIENTED_EDGE('',*,*,#310,.F.);
#412=ORIENTED_EDGE('',*,*,#275,.F.);
#413=ORIENTED_EDGE('',*,*,#310,.T.);
#414=ORIENTED_EDGE('',*,*,#291,.F.);
#415=ORIENTED_EDGE('',*,*,#305,.F.);
#416=ORIENTED_EDGE('',*,*,#276,.F.);
#417=ORIENTED_EDGE('',*,*,#299,.F.);
#418=ORIENTED_EDGE('',*,*,#279,.F.);
#419=ORIENTED_EDGE('',*,*,#303,.F.);
#420=ORIENTED_EDGE('',*,*,#288,.F.);
#421=ORIENTED_EDGE('',*,*,#268,.F.);
#422=ORIENTED_EDGE('',*,*,#311,.T.);
#423=ORIENTED_EDGE('',*,*,#312,.T.);
#424=ORIENTED_EDGE('',*,*,#313,.T.);
#425=ORIENTED_EDGE('',*,*,#285,.F.);
#426=ORIENTED_EDGE('',*,*,#314,.T.);
#427=ORIENTED_EDGE('',*,*,#315,.T.);
#428=ORIENTED_EDGE('',*,*,#316,.T.);
#429=ORIENTED_EDGE('',*,*,#317,.F.);
#430=ORIENTED_EDGE('',*,*,#318,.F.);
#431=ORIENTED_EDGE('',*,*,#319,.F.);
#432=ORIENTED_EDGE('',*,*,#320,.F.);
#433=ORIENTED_EDGE('',*,*,#321,.F.);
#434=ORIENTED_EDGE('',*,*,#319,.T.);
#435=ORIENTED_EDGE('',*,*,#322,.T.);
#436=ORIENTED_EDGE('',*,*,#323,.F.);
#437=ORIENTED_EDGE('',*,*,#324,.T.);
#438=ORIENTED_EDGE('',*,*,#325,.F.);
#439=ORIENTED_EDGE('',*,*,#318,.T.);
#440=ORIENTED_EDGE('',*,*,#326,.T.);
#441=ORIENTED_EDGE('',*,*,#312,.F.);
#442=ORIENTED_EDGE('',*,*,#327,.F.);
#443=ORIENTED_EDGE('',*,*,#322,.F.);
#444=ORIENTED_EDGE('',*,*,#317,.T.);
#445=ORIENTED_EDGE('',*,*,#328,.T.);
#446=ORIENTED_EDGE('',*,*,#329,.F.);
#447=ORIENTED_EDGE('',*,*,#330,.T.);
#448=ORIENTED_EDGE('',*,*,#331,.F.);
#449=ORIENTED_EDGE('',*,*,#332,.T.);
#450=ORIENTED_EDGE('',*,*,#314,.F.);
#451=ORIENTED_EDGE('',*,*,#284,.F.);
#452=ORIENTED_EDGE('',*,*,#298,.F.);
#453=ORIENTED_EDGE('',*,*,#302,.F.);
#454=ORIENTED_EDGE('',*,*,#269,.F.);
#455=ORIENTED_EDGE('',*,*,#265,.F.);
#456=ORIENTED_EDGE('',*,*,#313,.F.);
#457=ORIENTED_EDGE('',*,*,#326,.F.);
#458=ORIENTED_EDGE('',*,*,#329,.T.);
#459=ORIENTED_EDGE('',*,*,#333,.T.);
#460=ORIENTED_EDGE('',*,*,#334,.T.);
#461=ORIENTED_EDGE('',*,*,#335,.F.);
#462=ORIENTED_EDGE('',*,*,#323,.T.);
#463=ORIENTED_EDGE('',*,*,#327,.T.);
#464=ORIENTED_EDGE('',*,*,#311,.F.);
#465=ORIENTED_EDGE('',*,*,#267,.F.);
#466=ORIENTED_EDGE('',*,*,#281,.F.);
#467=ORIENTED_EDGE('',*,*,#300,.T.);
#468=ORIENTED_EDGE('',*,*,#286,.F.);
#469=ORIENTED_EDGE('',*,*,#282,.F.);
#470=ORIENTED_EDGE('',*,*,#316,.F.);
#471=ORIENTED_EDGE('',*,*,#336,.F.);
#472=ORIENTED_EDGE('',*,*,#337,.F.);
#473=ORIENTED_EDGE('',*,*,#338,.F.);
#474=ORIENTED_EDGE('',*,*,#336,.T.);
#475=ORIENTED_EDGE('',*,*,#315,.F.);
#476=ORIENTED_EDGE('',*,*,#332,.F.);
#477=ORIENTED_EDGE('',*,*,#339,.T.);
#478=ORIENTED_EDGE('',*,*,#337,.T.);
#479=ORIENTED_EDGE('',*,*,#338,.T.);
#480=ORIENTED_EDGE('',*,*,#331,.T.);
#481=ORIENTED_EDGE('',*,*,#335,.T.);
#482=ORIENTED_EDGE('',*,*,#324,.F.);
#483=ORIENTED_EDGE('',*,*,#339,.F.);
#484=ORIENTED_EDGE('',*,*,#330,.F.);
#485=ORIENTED_EDGE('',*,*,#320,.T.);
#486=ORIENTED_EDGE('',*,*,#325,.T.);
#487=ORIENTED_EDGE('',*,*,#334,.F.);
#488=ORIENTED_EDGE('',*,*,#340,.F.);
#489=ORIENTED_EDGE('',*,*,#321,.T.);
#490=ORIENTED_EDGE('',*,*,#340,.T.);
#491=ORIENTED_EDGE('',*,*,#333,.F.);
#492=ORIENTED_EDGE('',*,*,#328,.F.);
#493=PLANE('',#555);
#494=PLANE('',#556);
#495=PLANE('',#565);
#496=PLANE('',#566);
#497=PLANE('',#578);
#498=PLANE('',#581);
#499=PLANE('',#583);
#500=PLANE('',#586);
#501=PLANE('',#587);
#502=PLANE('',#588);
#503=PLANE('',#589);
#504=PLANE('',#590);
#505=PLANE('',#591);
#506=PLANE('',#592);
#507=PLANE('',#593);
#508=PLANE('',#594);
#509=PLANE('',#595);
#510=PLANE('',#596);
#511=PLANE('',#597);
#512=PLANE('',#598);
#513=ADVANCED_FACE('',(#39),#493,.T.);
#514=ADVANCED_FACE('',(#40),#494,.F.);
#515=ADVANCED_FACE('',(#41),#495,.T.);
#516=ADVANCED_FACE('',(#42),#496,.T.);
#517=ADVANCED_FACE('',(#43),#15,.F.);
#518=ADVANCED_FACE('',(#44),#16,.F.);
#519=ADVANCED_FACE('',(#45),#17,.T.);
#520=ADVANCED_FACE('',(#46),#497,.T.);
#521=ADVANCED_FACE('',(#47),#18,.T.);
#522=ADVANCED_FACE('',(#48),#19,.T.);
#523=ADVANCED_FACE('',(#49),#498,.T.);
#524=ADVANCED_FACE('',(#50),#20,.F.);
#525=ADVANCED_FACE('',(#51),#499,.T.);
#526=ADVANCED_FACE('',(#52),#21,.F.);
#527=ADVANCED_FACE('',(#53),#22,.T.);
#528=ADVANCED_FACE('',(#54),#500,.T.);
#529=ADVANCED_FACE('',(#55),#501,.T.);
#530=ADVANCED_FACE('',(#56),#502,.F.);
#531=ADVANCED_FACE('',(#57),#503,.T.);
#532=ADVANCED_FACE('',(#58),#504,.T.);
#533=ADVANCED_FACE('',(#59),#505,.T.);
#534=ADVANCED_FACE('',(#60),#506,.T.);
#535=ADVANCED_FACE('',(#61),#507,.T.);
#536=ADVANCED_FACE('',(#62),#508,.T.);
#537=ADVANCED_FACE('',(#63),#509,.F.);
#538=ADVANCED_FACE('',(#64),#510,.T.);
#539=ADVANCED_FACE('',(#65),#511,.T.);
#540=ADVANCED_FACE('',(#66),#512,.T.);
#541=CLOSED_SHELL('',(#513,#514,#515,#516,#517,#518,#519,#520,#521,#522,
#523,#524,#525,#526,#527,#528,#529,#530,#531,#532,#533,#534,#535,#536,#537,
#538,#539,#540));
#542=DERIVED_UNIT_ELEMENT(#544,1.);
#543=DERIVED_UNIT_ELEMENT(#909,-3.);
#544=(
MASS_UNIT()
NAMED_UNIT(*)
SI_UNIT(.KILO.,.GRAM.)
);
#545=DERIVED_UNIT((#542,#543));
#546=MEASURE_REPRESENTATION_ITEM('density measure',
POSITIVE_RATIO_MEASURE(7850.),#545);
#547=PROPERTY_DEFINITION_REPRESENTATION(#552,#549);
#548=PROPERTY_DEFINITION_REPRESENTATION(#553,#550);
#549=REPRESENTATION('material name',(#551),#906);
#550=REPRESENTATION('density',(#546),#906);
#551=DESCRIPTIVE_REPRESENTATION_ITEM('Steel','Steel');
#552=PROPERTY_DEFINITION('material property','material name',#916);
#553=PROPERTY_DEFINITION('material property','density of part',#916);
#554=AXIS2_PLACEMENT_3D('',#749,#599,#600);
#555=AXIS2_PLACEMENT_3D('',#750,#601,#602);
#556=AXIS2_PLACEMENT_3D('',#759,#607,#608);
#557=AXIS2_PLACEMENT_3D('',#763,#610,#611);
#558=AXIS2_PLACEMENT_3D('',#765,#612,#613);
#559=AXIS2_PLACEMENT_3D('',#767,#614,#615);
#560=AXIS2_PLACEMENT_3D('',#771,#617,#618);
#561=AXIS2_PLACEMENT_3D('',#775,#620,#621);
#562=AXIS2_PLACEMENT_3D('',#779,#623,#624);
#563=AXIS2_PLACEMENT_3D('',#781,#625,#626);
#564=AXIS2_PLACEMENT_3D('',#783,#627,#628);
#565=AXIS2_PLACEMENT_3D('',#785,#630,#631);
#566=AXIS2_PLACEMENT_3D('',#794,#636,#637);
#567=AXIS2_PLACEMENT_3D('',#798,#639,#640);
#568=AXIS2_PLACEMENT_3D('',#800,#641,#642);
#569=AXIS2_PLACEMENT_3D('',#802,#643,#644);
#570=AXIS2_PLACEMENT_3D('',#806,#646,#647);
#571=AXIS2_PLACEMENT_3D('',#810,#649,#650);
#572=AXIS2_PLACEMENT_3D('',#814,#652,#653);
#573=AXIS2_PLACEMENT_3D('',#816,#654,#655);
#574=AXIS2_PLACEMENT_3D('',#818,#656,#657);
#575=AXIS2_PLACEMENT_3D('',#820,#659,#660);
#576=AXIS2_PLACEMENT_3D('',#823,#663,#664);
#577=AXIS2_PLACEMENT_3D('',#826,#667,#668);
#578=AXIS2_PLACEMENT_3D('',#829,#671,#672);
#579=AXIS2_PLACEMENT_3D('',#831,#674,#675);
#580=AXIS2_PLACEMENT_3D('',#834,#678,#679);
#581=AXIS2_PLACEMENT_3D('',#835,#680,#681);
#582=AXIS2_PLACEMENT_3D('',#837,#683,#684);
#583=AXIS2_PLACEMENT_3D('',#839,#686,#687);
#584=AXIS2_PLACEMENT_3D('',#841,#689,#690);
#585=AXIS2_PLACEMENT_3D('',#842,#691,#692);
#586=AXIS2_PLACEMENT_3D('',#843,#693,#694);
#587=AXIS2_PLACEMENT_3D('',#849,#698,#699);
#588=AXIS2_PLACEMENT_3D('',#855,#703,#704);
#589=AXIS2_PLACEMENT_3D('',#866,#710,#711);
#590=AXIS2_PLACEMENT_3D('',#874,#716,#717);
#591=AXIS2_PLACEMENT_3D('',#877,#720,#721);
#592=AXIS2_PLACEMENT_3D('',#887,#727,#728);
#593=AXIS2_PLACEMENT_3D('',#892,#732,#733);
#594=AXIS2_PLACEMENT_3D('',#896,#736,#737);
#595=AXIS2_PLACEMENT_3D('',#898,#739,#740);
#596=AXIS2_PLACEMENT_3D('',#900,#742,#743);
#597=AXIS2_PLACEMENT_3D('',#901,#744,#745);
#598=AXIS2_PLACEMENT_3D('',#903,#747,#748);
#599=DIRECTION('axis',(0.,0.,1.));
#600=DIRECTION('refdir',(1.,0.,0.));
#601=DIRECTION('center_axis',(-0.707106781186547,0.,0.707106781186548));
#602=DIRECTION('ref_axis',(0.707106781186548,0.,0.707106781186547));
#603=DIRECTION('',(0.707106781186548,0.,0.707106781186547));
#604=DIRECTION('',(0.,1.,0.));
#605=DIRECTION('',(-0.707106781186548,0.,-0.707106781186547));
#606=DIRECTION('',(0.,-1.,0.));
#607=DIRECTION('center_axis',(1.,0.,0.));
#608=DIRECTION('ref_axis',(0.,1.,0.));
#609=DIRECTION('',(0.,4.44089209850063E-16,1.));
#610=DIRECTION('center_axis',(-1.,0.,0.));
#611=DIRECTION('ref_axis',(0.,0.827070189416526,-0.562098658403054));
#612=DIRECTION('center_axis',(-1.,0.,0.));
#613=DIRECTION('ref_axis',(0.,1.,0.));
#614=DIRECTION('center_axis',(1.,0.,0.));
#615=DIRECTION('ref_axis',(0.,0.612372435695795,0.790569415042095));
#616=DIRECTION('',(0.,0.,-1.));
#617=DIRECTION('center_axis',(1.,0.,0.));
#618=DIRECTION('ref_axis',(0.,1.,0.));
#619=DIRECTION('',(0.,1.,0.));
#620=DIRECTION('center_axis',(1.,0.,0.));
#621=DIRECTION('ref_axis',(0.,1.,0.));
#622=DIRECTION('',(0.,-2.99900049017554E-16,1.));
#623=DIRECTION('center_axis',(1.,0.,0.));
#624=DIRECTION('ref_axis',(0.,-0.612372435695795,0.790569415042094));
#625=DIRECTION('center_axis',(-1.,0.,0.));
#626=DIRECTION('ref_axis',(0.,1.,0.));
#627=DIRECTION('center_axis',(-1.,0.,0.));
#628=DIRECTION('ref_axis',(0.,-0.827070189416526,-0.562098658403054));
#629=DIRECTION('',(0.,0.,-1.));
#630=DIRECTION('center_axis',(0.707106781186547,0.,0.707106781186548));
#631=DIRECTION('ref_axis',(0.707106781186548,0.,-0.707106781186547));
#632=DIRECTION('',(-0.707106781186548,0.,0.707106781186547));
#633=DIRECTION('',(0.,-1.,0.));
#634=DIRECTION('',(0.707106781186548,0.,-0.707106781186547));
#635=DIRECTION('',(0.,1.,0.));
#636=DIRECTION('center_axis',(1.,0.,0.));
#637=DIRECTION('ref_axis',(0.,1.,0.));
#638=DIRECTION('',(0.,0.,1.));
#639=DIRECTION('center_axis',(1.,0.,0.));
#640=DIRECTION('ref_axis',(0.,-0.827070189416526,-0.562098658403054));
#641=DIRECTION('center_axis',(1.,0.,0.));
#642=DIRECTION('ref_axis',(0.,1.,0.));
#643=DIRECTION('center_axis',(-1.,0.,0.));
#644=DIRECTION('ref_axis',(0.,-0.612372435695795,0.790569415042094));
#645=DIRECTION('',(0.,2.99900049017554E-16,-1.));
#646=DIRECTION('center_axis',(-1.,0.,0.));
#647=DIRECTION('ref_axis',(0.,1.,0.));
#648=DIRECTION('',(0.,-1.,0.));
#649=DIRECTION('center_axis',(-1.,0.,0.));
#650=DIRECTION('ref_axis',(0.,1.,0.));
#651=DIRECTION('',(0.,0.,1.));
#652=DIRECTION('center_axis',(-1.,0.,0.));
#653=DIRECTION('ref_axis',(0.,0.612372435695795,0.790569415042095));
#654=DIRECTION('center_axis',(1.,0.,0.));
#655=DIRECTION('ref_axis',(0.,1.,0.));
#656=DIRECTION('center_axis',(1.,0.,0.));
#657=DIRECTION('ref_axis',(0.,0.827070189416526,-0.562098658403054));
#658=DIRECTION('',(0.,-4.44089209850063E-16,-1.));
#659=DIRECTION('center_axis',(-1.,0.,0.));
#660=DIRECTION('ref_axis',(0.,-0.827070189416526,-0.562098658403054));
#661=DIRECTION('',(1.,0.,0.));
#662=DIRECTION('',(1.,0.,0.));
#663=DIRECTION('center_axis',(1.,0.,0.));
#664=DIRECTION('ref_axis',(0.,0.827070189416526,-0.562098658403054));
#665=DIRECTION('',(-1.,0.,0.));
#666=DIRECTION('',(1.,0.,0.));
#667=DIRECTION('center_axis',(1.,0.,0.));
#668=DIRECTION('ref_axis',(0.,-0.612372435695795,0.790569415042094));
#669=DIRECTION('',(-1.,0.,0.));
#670=DIRECTION('',(1.,0.,0.));
#671=DIRECTION('center_axis',(0.,-1.,-2.99900049017554E-16));
#672=DIRECTION('ref_axis',(0.,2.99900049017554E-16,-1.));
#673=DIRECTION('',(1.,0.,0.));
#674=DIRECTION('center_axis',(1.,0.,0.));
#675=DIRECTION('ref_axis',(0.,0.612372435695795,0.790569415042095));
#676=DIRECTION('',(-1.,0.,0.));
#677=DIRECTION('',(1.,0.,0.));
#678=DIRECTION('center_axis',(1.,0.,0.));
#679=DIRECTION('ref_axis',(0.,1.,0.));
#680=DIRECTION('center_axis',(0.,1.,0.));
#681=DIRECTION('ref_axis',(0.,0.,1.));
#682=DIRECTION('',(1.,0.,0.));
#683=DIRECTION('center_axis',(1.,0.,0.));
#684=DIRECTION('ref_axis',(0.,-1.,1.22464679914735E-16));
#685=DIRECTION('',(1.,0.,0.));
#686=DIRECTION('center_axis',(0.,0.,1.));
#687=DIRECTION('ref_axis',(0.,-1.,0.));
#688=DIRECTION('',(1.,0.,0.));
#689=DIRECTION('center_axis',(1.,0.,0.));
#690=DIRECTION('ref_axis',(0.,1.,0.));
#691=DIRECTION('center_axis',(1.,0.,0.));
#692=DIRECTION('ref_axis',(0.,1.,0.));
#693=DIRECTION('center_axis',(0.,0.,1.));
#694=DIRECTION('ref_axis',(1.,0.,0.));
#695=DIRECTION('',(-1.,0.,0.));
#696=DIRECTION('',(0.,-1.,0.));
#697=DIRECTION('',(1.,0.,0.));
#698=DIRECTION('center_axis',(0.,0.,1.));
#699=DIRECTION('ref_axis',(1.,0.,0.));
#700=DIRECTION('',(1.,0.,0.));
#701=DIRECTION('',(0.,1.,0.));
#702=DIRECTION('',(-1.,0.,0.));
#703=DIRECTION('center_axis',(0.,0.,1.));
#704=DIRECTION('ref_axis',(1.,0.,0.));
#705=DIRECTION('',(1.,0.,0.));
#706=DIRECTION('',(0.,-1.,0.));
#707=DIRECTION('',(-0.999999999999997,-7.45058059692381E-8,0.));
#708=DIRECTION('',(-1.,0.,0.));
#709=DIRECTION('',(0.,1.,0.));
#710=DIRECTION('center_axis',(-7.45058059692381E-8,0.999999999999997,0.));
#711=DIRECTION('ref_axis',(0.999999999999997,7.45058059692381E-8,0.));
#712=DIRECTION('',(0.,0.,1.));
#713=DIRECTION('',(-0.999999999999997,-7.45058059692381E-8,0.));
#714=DIRECTION('',(0.,0.,-1.));
#715=DIRECTION('',(0.,0.,1.));
#716=DIRECTION('center_axis',(-1.,0.,0.));
#717=DIRECTION('ref_axis',(0.,1.,0.));
#718=DIRECTION('',(0.,0.,1.));
#719=DIRECTION('',(0.,0.,1.));
#720=DIRECTION('center_axis',(0.,-1.,0.));
#721=DIRECTION('ref_axis',(1.,0.,0.));
#722=DIRECTION('',(0.,0.,1.));
#723=DIRECTION('',(1.,0.,0.));
#724=DIRECTION('',(0.,0.,1.));
#725=DIRECTION('',(-1.,0.,0.));
#726=DIRECTION('',(0.,0.,1.));
#727=DIRECTION('center_axis',(0.,0.,1.));
#728=DIRECTION('ref_axis',(1.,0.,0.));
#729=DIRECTION('',(0.,1.,0.));
#730=DIRECTION('',(-1.,0.,0.));
#731=DIRECTION('',(0.,1.,0.));
#732=DIRECTION('center_axis',(0.,1.,0.));
#733=DIRECTION('ref_axis',(-1.,0.,0.));
#734=DIRECTION('',(0.,0.,1.));
#735=DIRECTION('',(1.,0.,0.));
#736=DIRECTION('center_axis',(1.,0.,0.));
#737=DIRECTION('ref_axis',(0.,1.,0.));
#738=DIRECTION('',(0.,-1.,0.));
#739=DIRECTION('center_axis',(0.,0.,1.));
#740=DIRECTION('ref_axis',(-1.,0.,0.));
#741=DIRECTION('',(0.,1.,0.));
#742=DIRECTION('center_axis',(1.,0.,0.));
#743=DIRECTION('ref_axis',(0.,-1.,0.));
#744=DIRECTION('center_axis',(0.,1.,0.));
#745=DIRECTION('ref_axis',(-1.,0.,0.));
#746=DIRECTION('',(0.,0.,1.));
#747=DIRECTION('center_axis',(1.,0.,0.));
#748=DIRECTION('ref_axis',(0.,1.,0.));
#749=CARTESIAN_POINT('',(0.,0.,0.));
#750=CARTESIAN_POINT('Origin',(-3.,-1.11022302462516E-15,25.5));
#751=CARTESIAN_POINT('',(-4.5,-10.,24.));
#752=CARTESIAN_POINT('',(-1.5,-10.,27.));
#753=CARTESIAN_POINT('',(-11.75,-10.,16.75));
#754=CARTESIAN_POINT('',(-1.5,10.,27.));
#755=CARTESIAN_POINT('',(-1.5,-1.11022302462516E-15,27.));
#756=CARTESIAN_POINT('',(-4.5,10.,24.));
#757=CARTESIAN_POINT('',(2.77555756156289E-15,10.,28.5));
#758=CARTESIAN_POINT('',(-4.5,-1.11022302462516E-15,24.));
#759=CARTESIAN_POINT('Origin',(-1.5,-2.22044604925031E-15,30.5));
#760=CARTESIAN_POINT('',(-1.5,-10.,29.));
#761=CARTESIAN_POINT('',(-1.5,-10.,24.));
#762=CARTESIAN_POINT('',(-1.5,-5.38535094708263,34.8104932920153));
#763=CARTESIAN_POINT('Origin',(-1.5,-46.7388604179089,62.915426212168));
#764=CARTESIAN_POINT('',(-1.5,-2.5,36.8412291827593));
#765=CARTESIAN_POINT('Origin',(-1.5,-1.25,32.));
#766=CARTESIAN_POINT('',(-1.5,-1.25,35.8729833462074));
#767=CARTESIAN_POINT('Origin',(-1.5,-2.25,35.8729833462074));
#768=CARTESIAN_POINT('',(-1.5,-1.25,35.));
#769=CARTESIAN_POINT('',(-1.5,-1.25,32.));
#770=CARTESIAN_POINT('',(-1.5,-1.25,29.));
#771=CARTESIAN_POINT('Origin',(-1.5,-1.25,32.));
#772=CARTESIAN_POINT('',(-1.5,1.25,29.));
#773=CARTESIAN_POINT('',(-1.5,-10.,29.));
#774=CARTESIAN_POINT('',(-1.5,1.25,35.));
#775=CARTESIAN_POINT('Origin',(-1.5,1.25,32.));
#776=CARTESIAN_POINT('',(-1.5,1.25,35.8729833462074));
#777=CARTESIAN_POINT('',(-1.5,1.25,37.552965204218));
#778=CARTESIAN_POINT('',(-1.5,2.5,36.8412291827593));
#779=CARTESIAN_POINT('Origin',(-1.5,2.25,35.8729833462074));
#780=CARTESIAN_POINT('',(-1.5,5.38535094708263,34.8104932920153));
#781=CARTESIAN_POINT('Origin',(-1.5,1.25,32.));
#782=CARTESIAN_POINT('',(-1.5,10.,29.));
#783=CARTESIAN_POINT('Origin',(-1.5,46.7388604179089,62.915426212168));
#784=CARTESIAN_POINT('',(-1.5,10.,29.));
#785=CARTESIAN_POINT('Origin',(3.,-1.11022302462516E-15,25.5));
#786=CARTESIAN_POINT('',(4.5,10.,24.));
#787=CARTESIAN_POINT('',(1.5,10.,27.));
#788=CARTESIAN_POINT('',(6.25,10.,22.25));
#789=CARTESIAN_POINT('',(1.5,-10.,27.));
#790=CARTESIAN_POINT('',(1.5,-1.11022302462516E-15,27.));
#791=CARTESIAN_POINT('',(4.5,-10.,24.));
#792=CARTESIAN_POINT('',(5.5,-10.,23.));
#793=CARTESIAN_POINT('',(4.5,-1.11022302462516E-15,24.));
#794=CARTESIAN_POINT('Origin',(1.5,-2.22044604925031E-15,30.5));
#795=CARTESIAN_POINT('',(1.5,10.,29.));
#796=CARTESIAN_POINT('',(1.5,10.,29.));
#797=CARTESIAN_POINT('',(1.5,5.38535094708263,34.8104932920153));
#798=CARTESIAN_POINT('Origin',(1.5,46.7388604179089,62.915426212168));
#799=CARTESIAN_POINT('',(1.5,2.5,36.8412291827593));
#800=CARTESIAN_POINT('Origin',(1.5,1.25,32.));
#801=CARTESIAN_POINT('',(1.5,1.25,35.8729833462074));
#802=CARTESIAN_POINT('Origin',(1.5,2.25,35.8729833462074));
#803=CARTESIAN_POINT('',(1.5,1.25,35.));
#804=CARTESIAN_POINT('',(1.5,1.25,37.552965204218));
#805=CARTESIAN_POINT('',(1.5,1.25,29.));
#806=CARTESIAN_POINT('Origin',(1.5,1.25,32.));
#807=CARTESIAN_POINT('',(1.5,-1.25,29.));
#808=CARTESIAN_POINT('',(1.5,-10.,29.));
#809=CARTESIAN_POINT('',(1.5,-1.25,35.));
#810=CARTESIAN_POINT('Origin',(1.5,-1.25,32.));
#811=CARTESIAN_POINT('',(1.5,-1.25,35.8729833462074));
#812=CARTESIAN_POINT('',(1.5,-1.25,32.));
#813=CARTESIAN_POINT('',(1.5,-2.5,36.8412291827593));
#814=CARTESIAN_POINT('Origin',(1.5,-2.25,35.8729833462074));
#815=CARTESIAN_POINT('',(1.5,-5.38535094708263,34.8104932920153));
#816=CARTESIAN_POINT('Origin',(1.5,-1.25,32.));
#817=CARTESIAN_POINT('',(1.5,-10.,29.));
#818=CARTESIAN_POINT('Origin',(1.5,-46.7388604179089,62.915426212168));
#819=CARTESIAN_POINT('',(1.5,-10.,24.));
#820=CARTESIAN_POINT('Origin',(0.,46.7388604179089,62.915426212168));
#821=CARTESIAN_POINT('',(0.,5.38535094708263,34.8104932920153));
#822=CARTESIAN_POINT('',(0.,10.,29.));
#823=CARTESIAN_POINT('Origin',(0.,-46.7388604179089,62.915426212168));
#824=CARTESIAN_POINT('',(0.,-5.38535094708263,34.8104932920153));
#825=CARTESIAN_POINT('',(0.,-10.,29.));
#826=CARTESIAN_POINT('Origin',(0.,2.25,35.8729833462074));
#827=CARTESIAN_POINT('',(0.,2.5,36.8412291827593));
#828=CARTESIAN_POINT('',(0.,1.25,35.8729833462074));
#829=CARTESIAN_POINT('Origin',(0.,1.25,37.));
#830=CARTESIAN_POINT('',(0.,1.25,35.));
#831=CARTESIAN_POINT('Origin',(0.,-2.25,35.8729833462074));
#832=CARTESIAN_POINT('',(0.,-1.25,35.8729833462074));
#833=CARTESIAN_POINT('',(0.,-2.5,36.8412291827593));
#834=CARTESIAN_POINT('Origin',(0.,-1.25,32.));
#835=CARTESIAN_POINT('Origin',(0.,-1.25,35.));
#836=CARTESIAN_POINT('',(0.,-1.25,35.));
#837=CARTESIAN_POINT('Origin',(0.,-1.25,32.));
#838=CARTESIAN_POINT('',(0.,-1.25,29.));
#839=CARTESIAN_POINT('Origin',(0.,1.25,29.));
#840=CARTESIAN_POINT('',(0.,1.25,29.));
#841=CARTESIAN_POINT('Origin',(0.,1.25,32.));
#842=CARTESIAN_POINT('Origin',(0.,1.25,32.));
#843=CARTESIAN_POINT('Origin',(-0.999999999999999,0.,24.));
#844=CARTESIAN_POINT('',(-14.5,10.,24.));
#845=CARTESIAN_POINT('',(-14.5,10.,24.));
#846=CARTESIAN_POINT('',(-14.5,-10.,24.));
#847=CARTESIAN_POINT('',(-14.5,-10.,24.));
#848=CARTESIAN_POINT('',(12.5,-10.,24.));
#849=CARTESIAN_POINT('Origin',(-0.999999999999999,0.,24.));
#850=CARTESIAN_POINT('',(12.5,-10.,24.));
#851=CARTESIAN_POINT('',(12.5,-10.,24.));
#852=CARTESIAN_POINT('',(12.5,10.,24.));
#853=CARTESIAN_POINT('',(12.5,10.,24.));
#854=CARTESIAN_POINT('',(-14.5,10.,24.));
#855=CARTESIAN_POINT('Origin',(0.,0.,0.25));
#856=CARTESIAN_POINT('',(-14.5,-10.,0.25));
#857=CARTESIAN_POINT('',(12.5,-10.,0.25));
#858=CARTESIAN_POINT('',(-6.25,-10.,0.25));
#859=CARTESIAN_POINT('',(-14.5,10.,0.25));
#860=CARTESIAN_POINT('',(-14.5,-5.,0.25));
#861=CARTESIAN_POINT('',(-12.5,10.,0.25));
#862=CARTESIAN_POINT('',(-7.25000037252907,10.0000005401671,0.25));
#863=CARTESIAN_POINT('',(12.5,10.,0.25));
#864=CARTESIAN_POINT('',(6.25,10.,0.25));
#865=CARTESIAN_POINT('',(12.5,-5.,0.25));
#866=CARTESIAN_POINT('Origin',(-14.5,10.,2.));
#867=CARTESIAN_POINT('',(-14.5,10.,22.));
#868=CARTESIAN_POINT('',(-14.5,10.,2.));
#869=CARTESIAN_POINT('',(-12.5,10.0000001490116,22.));
#870=CARTESIAN_POINT('',(-14.5,10.,22.));
#871=CARTESIAN_POINT('',(-12.5,10.,2.25));
#872=CARTESIAN_POINT('',(-12.5,10.0000001490116,2.));
#873=CARTESIAN_POINT('',(-12.5,10.,0.));
#874=CARTESIAN_POINT('Origin',(-14.5,-10.,2.));
#875=CARTESIAN_POINT('',(-14.5,-10.,2.));
#876=CARTESIAN_POINT('',(-14.5,10.,22.));
#877=CARTESIAN_POINT('Origin',(-12.5,-10.,0.));
#878=CARTESIAN_POINT('',(12.5,-10.,2.25));
#879=CARTESIAN_POINT('',(12.5,-10.,0.));
#880=CARTESIAN_POINT('',(-12.5,-10.,2.25));
#881=CARTESIAN_POINT('',(12.5,-10.,2.25));
#882=CARTESIAN_POINT('',(-12.5,-10.,22.));
#883=CARTESIAN_POINT('',(-12.5,-10.,2.));
#884=CARTESIAN_POINT('',(12.5,-10.,22.));
#885=CARTESIAN_POINT('',(12.5,-10.,22.));
#886=CARTESIAN_POINT('',(12.5,-10.,22.));
#887=CARTESIAN_POINT('Origin',(0.,0.,2.25));
#888=CARTESIAN_POINT('',(12.5,10.,2.25));
#889=CARTESIAN_POINT('',(12.5,10.,2.25));
#890=CARTESIAN_POINT('',(-12.5,10.,2.25));
#891=CARTESIAN_POINT('',(-12.5,5.00000007450581,2.25));
#892=CARTESIAN_POINT('Origin',(12.5,10.,22.));
#893=CARTESIAN_POINT('',(12.5,10.,22.));
#894=CARTESIAN_POINT('',(12.5,10.,22.));
#895=CARTESIAN_POINT('',(-14.5,10.,22.));
#896=CARTESIAN_POINT('Origin',(12.5,-10.,22.));
#897=CARTESIAN_POINT('',(12.5,10.,22.));
#898=CARTESIAN_POINT('Origin',(-0.999999999999999,0.,22.));
#899=CARTESIAN_POINT('',(-12.5,10.0000001490116,22.));
#900=CARTESIAN_POINT('Origin',(-12.5,10.0000001490116,2.));
#901=CARTESIAN_POINT('Origin',(12.5,10.,0.));
#902=CARTESIAN_POINT('',(12.5,10.,0.));
#903=CARTESIAN_POINT('Origin',(12.5,-10.,0.));
#904=UNCERTAINTY_MEASURE_WITH_UNIT(LENGTH_MEASURE(0.01),#908,
'DISTANCE_ACCURACY_VALUE',
'Maximum model space distance between geometric entities at asserted c
onnectivities');
#905=UNCERTAINTY_MEASURE_WITH_UNIT(LENGTH_MEASURE(0.01),#908,
'DISTANCE_ACCURACY_VALUE',
'Maximum model space distance between geometric entities at asserted c
onnectivities');
#906=(
GEOMETRIC_REPRESENTATION_CONTEXT(3)
GLOBAL_UNCERTAINTY_ASSIGNED_CONTEXT((#904))
GLOBAL_UNIT_ASSIGNED_CONTEXT((#908,#910,#911))
REPRESENTATION_CONTEXT('','3D')
);
#907=(
GEOMETRIC_REPRESENTATION_CONTEXT(3)
GLOBAL_UNCERTAINTY_ASSIGNED_CONTEXT((#905))
GLOBAL_UNIT_ASSIGNED_CONTEXT((#908,#910,#911))
REPRESENTATION_CONTEXT('','3D')
);
#908=(
LENGTH_UNIT()
NAMED_UNIT(*)
SI_UNIT(.MILLI.,.METRE.)
);
#909=(
LENGTH_UNIT()
NAMED_UNIT(*)
SI_UNIT($,.METRE.)
);
#910=(
NAMED_UNIT(*)
PLANE_ANGLE_UNIT()
SI_UNIT($,.RADIAN.)
);
#911=(
NAMED_UNIT(*)
SI_UNIT($,.STERADIAN.)
SOLID_ANGLE_UNIT()
);
#912=SHAPE_DEFINITION_REPRESENTATION(#913,#914);
#913=PRODUCT_DEFINITION_SHAPE('',$,#916);
#914=SHAPE_REPRESENTATION('',(#554),#906);
#915=PRODUCT_DEFINITION_CONTEXT('part definition',#920,'design');
#916=PRODUCT_DEFINITION('VIHALS Motor Side Wire Holder',
'VIHALS Motor Side Wire Holder v10',#917,#915);
#917=PRODUCT_DEFINITION_FORMATION('',$,#922);
#918=PRODUCT_RELATED_PRODUCT_CATEGORY(
'VIHALS Motor Side Wire Holder v10','VIHALS Motor Side Wire Holder v10',
(#922));
#919=APPLICATION_PROTOCOL_DEFINITION('international standard',
'automotive_design',2009,#920);
#920=APPLICATION_CONTEXT(
'Core Data for Automotive Mechanical Design Process');
#921=PRODUCT_CONTEXT('part definition',#920,'mechanical');
#922=PRODUCT('VIHALS Motor Side Wire Holder',
'VIHALS Motor Side Wire Holder v10',$,(#921));
#923=PRESENTATION_STYLE_ASSIGNMENT((#925));
#924=PRESENTATION_STYLE_ASSIGNMENT((#926));
#925=SURFACE_STYLE_USAGE(.BOTH.,#927);
#926=SURFACE_STYLE_USAGE(.BOTH.,#928);
#927=SURFACE_SIDE_STYLE('',(#929));
#928=SURFACE_SIDE_STYLE('',(#930));
#929=SURFACE_STYLE_FILL_AREA(#931);
#930=SURFACE_STYLE_FILL_AREA(#932);
#931=FILL_AREA_STYLE('Steel - Satin',(#933));
#932=FILL_AREA_STYLE('Powder Coat - Rough (Black)',(#934));
#933=FILL_AREA_STYLE_COLOUR('Steel - Satin',#935);
#934=FILL_AREA_STYLE_COLOUR('Powder Coat - Rough (Black)',#936);
#935=COLOUR_RGB('Steel - Satin',0.627450980392157,0.627450980392157,0.627450980392157);
#936=COLOUR_RGB('Powder Coat - Rough (Black)',0.0705882352941176,0.529411764705882,
0.164705882352941);
ENDSEC;
END-ISO-10303-21;
