ISO-10303-21;
HEADER;
/* Generated by software containing ST-Developer
 * from STEP Tools, Inc. (www.steptools.com) 
 */

FILE_DESCRIPTION(
/* description */ (''),
/* implementation_level */ '2;1');

FILE_NAME(
/* name */ 'Camera Stand.step',
/* time_stamp */ '2026-03-25T02:14:20-04:00',
/* author */ (''),
/* organization */ (''),
/* preprocessor_version */ 'ST-DEVELOPER v20.1',
/* originating_system */ 'Autodesk Translation Framework v14.24.0.0',
/* authorisation */ '');

FILE_SCHEMA (('AUTOMOTIVE_DESIGN { 1 0 10303 214 3 1 1 }'));
ENDSEC;

DATA;
#10=MECHANICAL_DESIGN_GEOMETRIC_PRESENTATION_REPRESENTATION('',(#13),#792);
#11=SHAPE_REPRESENTATION_RELATIONSHIP('SRR','None',#802,#12);
#12=ADVANCED_BREP_SHAPE_REPRESENTATION('',(#14),#791);
#13=STYLED_ITEM('',(#812),#14);
#14=MANIFOLD_SOLID_BREP('Body1',#495);
#15=FACE_BOUND('',#66,.T.);
#16=FACE_OUTER_BOUND('',#41,.T.);
#17=FACE_OUTER_BOUND('',#42,.T.);
#18=FACE_OUTER_BOUND('',#43,.T.);
#19=FACE_OUTER_BOUND('',#44,.T.);
#20=FACE_OUTER_BOUND('',#45,.T.);
#21=FACE_OUTER_BOUND('',#46,.T.);
#22=FACE_OUTER_BOUND('',#47,.T.);
#23=FACE_OUTER_BOUND('',#48,.T.);
#24=FACE_OUTER_BOUND('',#49,.T.);
#25=FACE_OUTER_BOUND('',#50,.T.);
#26=FACE_OUTER_BOUND('',#51,.T.);
#27=FACE_OUTER_BOUND('',#52,.T.);
#28=FACE_OUTER_BOUND('',#53,.T.);
#29=FACE_OUTER_BOUND('',#54,.T.);
#30=FACE_OUTER_BOUND('',#55,.T.);
#31=FACE_OUTER_BOUND('',#56,.T.);
#32=FACE_OUTER_BOUND('',#57,.T.);
#33=FACE_OUTER_BOUND('',#58,.T.);
#34=FACE_OUTER_BOUND('',#59,.T.);
#35=FACE_OUTER_BOUND('',#60,.T.);
#36=FACE_OUTER_BOUND('',#61,.T.);
#37=FACE_OUTER_BOUND('',#62,.T.);
#38=FACE_OUTER_BOUND('',#63,.T.);
#39=FACE_OUTER_BOUND('',#64,.T.);
#40=FACE_OUTER_BOUND('',#65,.T.);
#41=EDGE_LOOP('',(#311,#312,#313,#314));
#42=EDGE_LOOP('',(#315,#316,#317,#318));
#43=EDGE_LOOP('',(#319,#320,#321,#322));
#44=EDGE_LOOP('',(#323,#324,#325,#326));
#45=EDGE_LOOP('',(#327,#328,#329,#330,#331));
#46=EDGE_LOOP('',(#332,#333,#334,#335));
#47=EDGE_LOOP('',(#336,#337,#338,#339));
#48=EDGE_LOOP('',(#340,#341,#342,#343));
#49=EDGE_LOOP('',(#344,#345,#346,#347));
#50=EDGE_LOOP('',(#348,#349,#350,#351,#352));
#51=EDGE_LOOP('',(#353,#354,#355,#356));
#52=EDGE_LOOP('',(#357,#358,#359,#360,#361,#362,#363,#364,#365));
#53=EDGE_LOOP('',(#366,#367,#368,#369));
#54=EDGE_LOOP('',(#370,#371,#372,#373));
#55=EDGE_LOOP('',(#374,#375,#376,#377));
#56=EDGE_LOOP('',(#378,#379,#380,#381));
#57=EDGE_LOOP('',(#382,#383,#384,#385));
#58=EDGE_LOOP('',(#386,#387,#388,#389));
#59=EDGE_LOOP('',(#390,#391,#392,#393));
#60=EDGE_LOOP('',(#394,#395,#396,#397,#398,#399));
#61=EDGE_LOOP('',(#400,#401,#402,#403,#404,#405,#406,#407,#408,#409));
#62=EDGE_LOOP('',(#410,#411,#412,#413,#414,#415));
#63=EDGE_LOOP('',(#416,#417,#418,#419,#420,#421,#422,#423,#424));
#64=EDGE_LOOP('',(#425,#426,#427,#428,#429,#430,#431,#432));
#65=EDGE_LOOP('',(#433,#434,#435,#436,#437,#438));
#66=EDGE_LOOP('',(#439,#440,#441,#442,#443,#444));
#67=LINE('',#657,#134);
#68=LINE('',#659,#135);
#69=LINE('',#661,#136);
#70=LINE('',#662,#137);
#71=LINE('',#666,#138);
#72=LINE('',#668,#139);
#73=LINE('',#670,#140);
#74=LINE('',#671,#141);
#75=LINE('',#675,#142);
#76=LINE('',#677,#143);
#77=LINE('',#679,#144);
#78=LINE('',#680,#145);
#79=LINE('',#684,#146);
#80=LINE('',#686,#147);
#81=LINE('',#688,#148);
#82=LINE('',#689,#149);
#83=LINE('',#692,#150);
#84=LINE('',#694,#151);
#85=LINE('',#696,#152);
#86=LINE('',#697,#153);
#87=LINE('',#700,#154);
#88=LINE('',#701,#155);
#89=LINE('',#704,#156);
#90=LINE('',#706,#157);
#91=LINE('',#707,#158);
#92=LINE('',#710,#159);
#93=LINE('',#711,#160);
#94=LINE('',#714,#161);
#95=LINE('',#716,#162);
#96=LINE('',#717,#163);
#97=LINE('',#720,#164);
#98=LINE('',#722,#165);
#99=LINE('',#724,#166);
#100=LINE('',#725,#167);
#101=LINE('',#728,#168);
#102=LINE('',#729,#169);
#103=LINE('',#730,#170);
#104=LINE('',#733,#171);
#105=LINE('',#734,#172);
#106=LINE('',#736,#173);
#107=LINE('',#738,#174);
#108=LINE('',#739,#175);
#109=LINE('',#742,#176);
#110=LINE('',#744,#177);
#111=LINE('',#745,#178);
#112=LINE('',#747,#179);
#113=LINE('',#748,#180);
#114=LINE('',#751,#181);
#115=LINE('',#752,#182);
#116=LINE('',#755,#183);
#117=LINE('',#756,#184);
#118=LINE('',#758,#185);
#119=LINE('',#759,#186);
#120=LINE('',#762,#187);
#121=LINE('',#763,#188);
#122=LINE('',#765,#189);
#123=LINE('',#766,#190);
#124=LINE('',#770,#191);
#125=LINE('',#772,#192);
#126=LINE('',#774,#193);
#127=LINE('',#775,#194);
#128=LINE('',#778,#195);
#129=LINE('',#780,#196);
#130=LINE('',#781,#197);
#131=LINE('',#784,#198);
#132=LINE('',#785,#199);
#133=LINE('',#787,#200);
#134=VECTOR('',#538,0.393700787401575);
#135=VECTOR('',#539,0.393700787401575);
#136=VECTOR('',#540,0.393700787401575);
#137=VECTOR('',#541,0.393700787401575);
#138=VECTOR('',#544,0.393700787401575);
#139=VECTOR('',#545,0.393700787401575);
#140=VECTOR('',#546,0.393700787401575);
#141=VECTOR('',#547,0.393700787401575);
#142=VECTOR('',#550,0.393700787401575);
#143=VECTOR('',#551,0.393700787401575);
#144=VECTOR('',#552,0.393700787401575);
#145=VECTOR('',#553,0.393700787401575);
#146=VECTOR('',#556,0.393700787401575);
#147=VECTOR('',#557,0.393700787401575);
#148=VECTOR('',#558,0.393700787401575);
#149=VECTOR('',#559,0.393700787401575);
#150=VECTOR('',#562,0.393700787401575);
#151=VECTOR('',#563,0.393700787401575);
#152=VECTOR('',#564,0.393700787401575);
#153=VECTOR('',#565,0.393700787401575);
#154=VECTOR('',#568,0.393700787401575);
#155=VECTOR('',#569,0.393700787401575);
#156=VECTOR('',#572,0.393700787401575);
#157=VECTOR('',#573,0.393700787401575);
#158=VECTOR('',#574,0.393700787401575);
#159=VECTOR('',#577,0.393700787401575);
#160=VECTOR('',#578,0.393700787401575);
#161=VECTOR('',#581,0.393700787401575);
#162=VECTOR('',#582,0.393700787401575);
#163=VECTOR('',#583,0.393700787401575);
#164=VECTOR('',#586,0.393700787401575);
#165=VECTOR('',#587,0.393700787401575);
#166=VECTOR('',#588,0.393700787401575);
#167=VECTOR('',#589,0.393700787401575);
#168=VECTOR('',#592,0.393700787401575);
#169=VECTOR('',#593,0.393700787401575);
#170=VECTOR('',#594,0.393700787401575);
#171=VECTOR('',#597,0.393700787401575);
#172=VECTOR('',#598,0.393700787401575);
#173=VECTOR('',#599,0.393700787401575);
#174=VECTOR('',#600,0.393700787401575);
#175=VECTOR('',#601,0.393700787401575);
#176=VECTOR('',#604,0.393700787401575);
#177=VECTOR('',#605,0.393700787401575);
#178=VECTOR('',#606,0.393700787401575);
#179=VECTOR('',#609,0.393700787401575);
#180=VECTOR('',#610,0.393700787401575);
#181=VECTOR('',#613,0.393700787401575);
#182=VECTOR('',#614,0.393700787401575);
#183=VECTOR('',#617,0.393700787401575);
#184=VECTOR('',#618,0.393700787401575);
#185=VECTOR('',#621,0.393700787401575);
#186=VECTOR('',#622,0.393700787401575);
#187=VECTOR('',#625,0.393700787401575);
#188=VECTOR('',#626,0.393700787401575);
#189=VECTOR('',#629,0.393700787401575);
#190=VECTOR('',#630,0.393700787401575);
#191=VECTOR('',#635,0.393700787401575);
#192=VECTOR('',#636,0.393700787401575);
#193=VECTOR('',#637,0.393700787401575);
#194=VECTOR('',#638,0.393700787401575);
#195=VECTOR('',#641,0.393700787401575);
#196=VECTOR('',#642,0.393700787401575);
#197=VECTOR('',#643,0.393700787401575);
#198=VECTOR('',#646,0.393700787401575);
#199=VECTOR('',#647,0.393700787401575);
#200=VECTOR('',#650,0.393700787401575);
#201=VERTEX_POINT('',#655);
#202=VERTEX_POINT('',#656);
#203=VERTEX_POINT('',#658);
#204=VERTEX_POINT('',#660);
#205=VERTEX_POINT('',#664);
#206=VERTEX_POINT('',#665);
#207=VERTEX_POINT('',#667);
#208=VERTEX_POINT('',#669);
#209=VERTEX_POINT('',#673);
#210=VERTEX_POINT('',#674);
#211=VERTEX_POINT('',#676);
#212=VERTEX_POINT('',#678);
#213=VERTEX_POINT('',#682);
#214=VERTEX_POINT('',#683);
#215=VERTEX_POINT('',#685);
#216=VERTEX_POINT('',#687);
#217=VERTEX_POINT('',#691);
#218=VERTEX_POINT('',#693);
#219=VERTEX_POINT('',#695);
#220=VERTEX_POINT('',#699);
#221=VERTEX_POINT('',#703);
#222=VERTEX_POINT('',#705);
#223=VERTEX_POINT('',#709);
#224=VERTEX_POINT('',#713);
#225=VERTEX_POINT('',#715);
#226=VERTEX_POINT('',#719);
#227=VERTEX_POINT('',#721);
#228=VERTEX_POINT('',#723);
#229=VERTEX_POINT('',#727);
#230=VERTEX_POINT('',#732);
#231=VERTEX_POINT('',#735);
#232=VERTEX_POINT('',#737);
#233=VERTEX_POINT('',#741);
#234=VERTEX_POINT('',#743);
#235=VERTEX_POINT('',#750);
#236=VERTEX_POINT('',#754);
#237=VERTEX_POINT('',#761);
#238=VERTEX_POINT('',#769);
#239=VERTEX_POINT('',#771);
#240=VERTEX_POINT('',#773);
#241=VERTEX_POINT('',#777);
#242=VERTEX_POINT('',#779);
#243=VERTEX_POINT('',#783);
#244=EDGE_CURVE('',#201,#202,#67,.T.);
#245=EDGE_CURVE('',#203,#201,#68,.T.);
#246=EDGE_CURVE('',#204,#203,#69,.T.);
#247=EDGE_CURVE('',#202,#204,#70,.T.);
#248=EDGE_CURVE('',#205,#206,#71,.T.);
#249=EDGE_CURVE('',#207,#205,#72,.T.);
#250=EDGE_CURVE('',#208,#207,#73,.T.);
#251=EDGE_CURVE('',#206,#208,#74,.T.);
#252=EDGE_CURVE('',#209,#210,#75,.T.);
#253=EDGE_CURVE('',#211,#209,#76,.T.);
#254=EDGE_CURVE('',#212,#211,#77,.T.);
#255=EDGE_CURVE('',#210,#212,#78,.T.);
#256=EDGE_CURVE('',#213,#214,#79,.T.);
#257=EDGE_CURVE('',#215,#213,#80,.T.);
#258=EDGE_CURVE('',#216,#215,#81,.T.);
#259=EDGE_CURVE('',#214,#216,#82,.T.);
#260=EDGE_CURVE('',#217,#201,#83,.T.);
#261=EDGE_CURVE('',#218,#217,#84,.T.);
#262=EDGE_CURVE('',#219,#218,#85,.T.);
#263=EDGE_CURVE('',#203,#219,#86,.T.);
#264=EDGE_CURVE('',#220,#202,#87,.T.);
#265=EDGE_CURVE('',#220,#217,#88,.T.);
#266=EDGE_CURVE('',#205,#221,#89,.T.);
#267=EDGE_CURVE('',#222,#221,#90,.T.);
#268=EDGE_CURVE('',#207,#222,#91,.T.);
#269=EDGE_CURVE('',#223,#206,#92,.T.);
#270=EDGE_CURVE('',#223,#221,#93,.T.);
#271=EDGE_CURVE('',#224,#210,#94,.T.);
#272=EDGE_CURVE('',#225,#224,#95,.T.);
#273=EDGE_CURVE('',#209,#225,#96,.T.);
#274=EDGE_CURVE('',#226,#214,#97,.T.);
#275=EDGE_CURVE('',#226,#227,#98,.T.);
#276=EDGE_CURVE('',#228,#227,#99,.T.);
#277=EDGE_CURVE('',#213,#228,#100,.T.);
#278=EDGE_CURVE('',#222,#229,#101,.T.);
#279=EDGE_CURVE('',#227,#221,#102,.T.);
#280=EDGE_CURVE('',#229,#227,#103,.T.);
#281=EDGE_CURVE('',#229,#230,#104,.T.);
#282=EDGE_CURVE('',#216,#230,#105,.T.);
#283=EDGE_CURVE('',#215,#231,#106,.T.);
#284=EDGE_CURVE('',#232,#231,#107,.T.);
#285=EDGE_CURVE('',#208,#232,#108,.T.);
#286=EDGE_CURVE('',#233,#221,#109,.T.);
#287=EDGE_CURVE('',#233,#234,#110,.T.);
#288=EDGE_CURVE('',#227,#234,#111,.T.);
#289=EDGE_CURVE('',#225,#223,#112,.T.);
#290=EDGE_CURVE('',#221,#224,#113,.T.);
#291=EDGE_CURVE('',#212,#235,#114,.T.);
#292=EDGE_CURVE('',#235,#224,#115,.T.);
#293=EDGE_CURVE('',#224,#236,#116,.T.);
#294=EDGE_CURVE('',#233,#236,#117,.T.);
#295=EDGE_CURVE('',#218,#235,#118,.T.);
#296=EDGE_CURVE('',#224,#217,#119,.T.);
#297=EDGE_CURVE('',#237,#217,#120,.T.);
#298=EDGE_CURVE('',#236,#237,#121,.T.);
#299=EDGE_CURVE('',#228,#220,#122,.T.);
#300=EDGE_CURVE('',#217,#227,#123,.T.);
#301=EDGE_CURVE('',#204,#238,#124,.T.);
#302=EDGE_CURVE('',#239,#238,#125,.T.);
#303=EDGE_CURVE('',#239,#240,#126,.T.);
#304=EDGE_CURVE('',#231,#240,#127,.T.);
#305=EDGE_CURVE('',#241,#234,#128,.T.);
#306=EDGE_CURVE('',#242,#241,#129,.T.);
#307=EDGE_CURVE('',#237,#242,#130,.T.);
#308=EDGE_CURVE('',#211,#243,#131,.T.);
#309=EDGE_CURVE('',#238,#243,#132,.T.);
#310=EDGE_CURVE('',#243,#232,#133,.T.);
#311=ORIENTED_EDGE('',*,*,#244,.F.);
#312=ORIENTED_EDGE('',*,*,#245,.F.);
#313=ORIENTED_EDGE('',*,*,#246,.F.);
#314=ORIENTED_EDGE('',*,*,#247,.F.);
#315=ORIENTED_EDGE('',*,*,#248,.F.);
#316=ORIENTED_EDGE('',*,*,#249,.F.);
#317=ORIENTED_EDGE('',*,*,#250,.F.);
#318=ORIENTED_EDGE('',*,*,#251,.F.);
#319=ORIENTED_EDGE('',*,*,#252,.F.);
#320=ORIENTED_EDGE('',*,*,#253,.F.);
#321=ORIENTED_EDGE('',*,*,#254,.F.);
#322=ORIENTED_EDGE('',*,*,#255,.F.);
#323=ORIENTED_EDGE('',*,*,#256,.F.);
#324=ORIENTED_EDGE('',*,*,#257,.F.);
#325=ORIENTED_EDGE('',*,*,#258,.F.);
#326=ORIENTED_EDGE('',*,*,#259,.F.);
#327=ORIENTED_EDGE('',*,*,#245,.T.);
#328=ORIENTED_EDGE('',*,*,#260,.F.);
#329=ORIENTED_EDGE('',*,*,#261,.F.);
#330=ORIENTED_EDGE('',*,*,#262,.F.);
#331=ORIENTED_EDGE('',*,*,#263,.F.);
#332=ORIENTED_EDGE('',*,*,#244,.T.);
#333=ORIENTED_EDGE('',*,*,#264,.F.);
#334=ORIENTED_EDGE('',*,*,#265,.T.);
#335=ORIENTED_EDGE('',*,*,#260,.T.);
#336=ORIENTED_EDGE('',*,*,#249,.T.);
#337=ORIENTED_EDGE('',*,*,#266,.T.);
#338=ORIENTED_EDGE('',*,*,#267,.F.);
#339=ORIENTED_EDGE('',*,*,#268,.F.);
#340=ORIENTED_EDGE('',*,*,#248,.T.);
#341=ORIENTED_EDGE('',*,*,#269,.F.);
#342=ORIENTED_EDGE('',*,*,#270,.T.);
#343=ORIENTED_EDGE('',*,*,#266,.F.);
#344=ORIENTED_EDGE('',*,*,#252,.T.);
#345=ORIENTED_EDGE('',*,*,#271,.F.);
#346=ORIENTED_EDGE('',*,*,#272,.F.);
#347=ORIENTED_EDGE('',*,*,#273,.F.);
#348=ORIENTED_EDGE('',*,*,#256,.T.);
#349=ORIENTED_EDGE('',*,*,#274,.F.);
#350=ORIENTED_EDGE('',*,*,#275,.T.);
#351=ORIENTED_EDGE('',*,*,#276,.F.);
#352=ORIENTED_EDGE('',*,*,#277,.F.);
#353=ORIENTED_EDGE('',*,*,#278,.F.);
#354=ORIENTED_EDGE('',*,*,#267,.T.);
#355=ORIENTED_EDGE('',*,*,#279,.F.);
#356=ORIENTED_EDGE('',*,*,#280,.F.);
#357=ORIENTED_EDGE('',*,*,#250,.T.);
#358=ORIENTED_EDGE('',*,*,#268,.T.);
#359=ORIENTED_EDGE('',*,*,#278,.T.);
#360=ORIENTED_EDGE('',*,*,#281,.T.);
#361=ORIENTED_EDGE('',*,*,#282,.F.);
#362=ORIENTED_EDGE('',*,*,#258,.T.);
#363=ORIENTED_EDGE('',*,*,#283,.T.);
#364=ORIENTED_EDGE('',*,*,#284,.F.);
#365=ORIENTED_EDGE('',*,*,#285,.F.);
#366=ORIENTED_EDGE('',*,*,#279,.T.);
#367=ORIENTED_EDGE('',*,*,#286,.F.);
#368=ORIENTED_EDGE('',*,*,#287,.T.);
#369=ORIENTED_EDGE('',*,*,#288,.F.);
#370=ORIENTED_EDGE('',*,*,#289,.F.);
#371=ORIENTED_EDGE('',*,*,#272,.T.);
#372=ORIENTED_EDGE('',*,*,#290,.F.);
#373=ORIENTED_EDGE('',*,*,#270,.F.);
#374=ORIENTED_EDGE('',*,*,#255,.T.);
#375=ORIENTED_EDGE('',*,*,#291,.T.);
#376=ORIENTED_EDGE('',*,*,#292,.T.);
#377=ORIENTED_EDGE('',*,*,#271,.T.);
#378=ORIENTED_EDGE('',*,*,#290,.T.);
#379=ORIENTED_EDGE('',*,*,#293,.T.);
#380=ORIENTED_EDGE('',*,*,#294,.F.);
#381=ORIENTED_EDGE('',*,*,#286,.T.);
#382=ORIENTED_EDGE('',*,*,#295,.F.);
#383=ORIENTED_EDGE('',*,*,#261,.T.);
#384=ORIENTED_EDGE('',*,*,#296,.F.);
#385=ORIENTED_EDGE('',*,*,#292,.F.);
#386=ORIENTED_EDGE('',*,*,#296,.T.);
#387=ORIENTED_EDGE('',*,*,#297,.F.);
#388=ORIENTED_EDGE('',*,*,#298,.F.);
#389=ORIENTED_EDGE('',*,*,#293,.F.);
#390=ORIENTED_EDGE('',*,*,#299,.F.);
#391=ORIENTED_EDGE('',*,*,#276,.T.);
#392=ORIENTED_EDGE('',*,*,#300,.F.);
#393=ORIENTED_EDGE('',*,*,#265,.F.);
#394=ORIENTED_EDGE('',*,*,#259,.T.);
#395=ORIENTED_EDGE('',*,*,#282,.T.);
#396=ORIENTED_EDGE('',*,*,#281,.F.);
#397=ORIENTED_EDGE('',*,*,#280,.T.);
#398=ORIENTED_EDGE('',*,*,#275,.F.);
#399=ORIENTED_EDGE('',*,*,#274,.T.);
#400=ORIENTED_EDGE('',*,*,#247,.T.);
#401=ORIENTED_EDGE('',*,*,#301,.T.);
#402=ORIENTED_EDGE('',*,*,#302,.F.);
#403=ORIENTED_EDGE('',*,*,#303,.T.);
#404=ORIENTED_EDGE('',*,*,#304,.F.);
#405=ORIENTED_EDGE('',*,*,#283,.F.);
#406=ORIENTED_EDGE('',*,*,#257,.T.);
#407=ORIENTED_EDGE('',*,*,#277,.T.);
#408=ORIENTED_EDGE('',*,*,#299,.T.);
#409=ORIENTED_EDGE('',*,*,#264,.T.);
#410=ORIENTED_EDGE('',*,*,#300,.T.);
#411=ORIENTED_EDGE('',*,*,#288,.T.);
#412=ORIENTED_EDGE('',*,*,#305,.F.);
#413=ORIENTED_EDGE('',*,*,#306,.F.);
#414=ORIENTED_EDGE('',*,*,#307,.F.);
#415=ORIENTED_EDGE('',*,*,#297,.T.);
#416=ORIENTED_EDGE('',*,*,#246,.T.);
#417=ORIENTED_EDGE('',*,*,#263,.T.);
#418=ORIENTED_EDGE('',*,*,#262,.T.);
#419=ORIENTED_EDGE('',*,*,#295,.T.);
#420=ORIENTED_EDGE('',*,*,#291,.F.);
#421=ORIENTED_EDGE('',*,*,#254,.T.);
#422=ORIENTED_EDGE('',*,*,#308,.T.);
#423=ORIENTED_EDGE('',*,*,#309,.F.);
#424=ORIENTED_EDGE('',*,*,#301,.F.);
#425=ORIENTED_EDGE('',*,*,#251,.T.);
#426=ORIENTED_EDGE('',*,*,#285,.T.);
#427=ORIENTED_EDGE('',*,*,#310,.F.);
#428=ORIENTED_EDGE('',*,*,#308,.F.);
#429=ORIENTED_EDGE('',*,*,#253,.T.);
#430=ORIENTED_EDGE('',*,*,#273,.T.);
#431=ORIENTED_EDGE('',*,*,#289,.T.);
#432=ORIENTED_EDGE('',*,*,#269,.T.);
#433=ORIENTED_EDGE('',*,*,#284,.T.);
#434=ORIENTED_EDGE('',*,*,#304,.T.);
#435=ORIENTED_EDGE('',*,*,#303,.F.);
#436=ORIENTED_EDGE('',*,*,#302,.T.);
#437=ORIENTED_EDGE('',*,*,#309,.T.);
#438=ORIENTED_EDGE('',*,*,#310,.T.);
#439=ORIENTED_EDGE('',*,*,#287,.F.);
#440=ORIENTED_EDGE('',*,*,#294,.T.);
#441=ORIENTED_EDGE('',*,*,#298,.T.);
#442=ORIENTED_EDGE('',*,*,#307,.T.);
#443=ORIENTED_EDGE('',*,*,#306,.T.);
#444=ORIENTED_EDGE('',*,*,#305,.T.);
#445=PLANE('',#509);
#446=PLANE('',#510);
#447=PLANE('',#511);
#448=PLANE('',#512);
#449=PLANE('',#513);
#450=PLANE('',#514);
#451=PLANE('',#515);
#452=PLANE('',#516);
#453=PLANE('',#517);
#454=PLANE('',#518);
#455=PLANE('',#519);
#456=PLANE('',#520);
#457=PLANE('',#521);
#458=PLANE('',#522);
#459=PLANE('',#523);
#460=PLANE('',#524);
#461=PLANE('',#525);
#462=PLANE('',#526);
#463=PLANE('',#527);
#464=PLANE('',#528);
#465=PLANE('',#529);
#466=PLANE('',#530);
#467=PLANE('',#531);
#468=PLANE('',#532);
#469=PLANE('',#533);
#470=ADVANCED_FACE('',(#16),#445,.F.);
#471=ADVANCED_FACE('',(#17),#446,.F.);
#472=ADVANCED_FACE('',(#18),#447,.F.);
#473=ADVANCED_FACE('',(#19),#448,.F.);
#474=ADVANCED_FACE('',(#20),#449,.T.);
#475=ADVANCED_FACE('',(#21),#450,.T.);
#476=ADVANCED_FACE('',(#22),#451,.T.);
#477=ADVANCED_FACE('',(#23),#452,.T.);
#478=ADVANCED_FACE('',(#24),#453,.F.);
#479=ADVANCED_FACE('',(#25),#454,.T.);
#480=ADVANCED_FACE('',(#26),#455,.F.);
#481=ADVANCED_FACE('',(#27),#456,.T.);
#482=ADVANCED_FACE('',(#28),#457,.T.);
#483=ADVANCED_FACE('',(#29),#458,.F.);
#484=ADVANCED_FACE('',(#30),#459,.T.);
#485=ADVANCED_FACE('',(#31),#460,.T.);
#486=ADVANCED_FACE('',(#32),#461,.F.);
#487=ADVANCED_FACE('',(#33),#462,.T.);
#488=ADVANCED_FACE('',(#34),#463,.F.);
#489=ADVANCED_FACE('',(#35),#464,.T.);
#490=ADVANCED_FACE('',(#36),#465,.T.);
#491=ADVANCED_FACE('',(#37),#466,.T.);
#492=ADVANCED_FACE('',(#38),#467,.T.);
#493=ADVANCED_FACE('',(#39),#468,.T.);
#494=ADVANCED_FACE('',(#40,#15),#469,.T.);
#495=CLOSED_SHELL('',(#470,#471,#472,#473,#474,#475,#476,#477,#478,#479,
#480,#481,#482,#483,#484,#485,#486,#487,#488,#489,#490,#491,#492,#493,#494));
#496=DERIVED_UNIT_ELEMENT(#498,1.);
#497=DERIVED_UNIT_ELEMENT(#796,-3.);
#498=(
MASS_UNIT()
NAMED_UNIT(*)
SI_UNIT(.KILO.,.GRAM.)
);
#499=DERIVED_UNIT((#496,#497));
#500=MEASURE_REPRESENTATION_ITEM('density measure',
POSITIVE_RATIO_MEASURE(7850.),#499);
#501=PROPERTY_DEFINITION_REPRESENTATION(#506,#503);
#502=PROPERTY_DEFINITION_REPRESENTATION(#507,#504);
#503=REPRESENTATION('material name',(#505),#791);
#504=REPRESENTATION('density',(#500),#791);
#505=DESCRIPTIVE_REPRESENTATION_ITEM('Steel','Steel');
#506=PROPERTY_DEFINITION('material property','material name',#804);
#507=PROPERTY_DEFINITION('material property','density of part',#804);
#508=AXIS2_PLACEMENT_3D('',#653,#534,#535);
#509=AXIS2_PLACEMENT_3D('',#654,#536,#537);
#510=AXIS2_PLACEMENT_3D('',#663,#542,#543);
#511=AXIS2_PLACEMENT_3D('',#672,#548,#549);
#512=AXIS2_PLACEMENT_3D('',#681,#554,#555);
#513=AXIS2_PLACEMENT_3D('',#690,#560,#561);
#514=AXIS2_PLACEMENT_3D('',#698,#566,#567);
#515=AXIS2_PLACEMENT_3D('',#702,#570,#571);
#516=AXIS2_PLACEMENT_3D('',#708,#575,#576);
#517=AXIS2_PLACEMENT_3D('',#712,#579,#580);
#518=AXIS2_PLACEMENT_3D('',#718,#584,#585);
#519=AXIS2_PLACEMENT_3D('',#726,#590,#591);
#520=AXIS2_PLACEMENT_3D('',#731,#595,#596);
#521=AXIS2_PLACEMENT_3D('',#740,#602,#603);
#522=AXIS2_PLACEMENT_3D('',#746,#607,#608);
#523=AXIS2_PLACEMENT_3D('',#749,#611,#612);
#524=AXIS2_PLACEMENT_3D('',#753,#615,#616);
#525=AXIS2_PLACEMENT_3D('',#757,#619,#620);
#526=AXIS2_PLACEMENT_3D('',#760,#623,#624);
#527=AXIS2_PLACEMENT_3D('',#764,#627,#628);
#528=AXIS2_PLACEMENT_3D('',#767,#631,#632);
#529=AXIS2_PLACEMENT_3D('',#768,#633,#634);
#530=AXIS2_PLACEMENT_3D('',#776,#639,#640);
#531=AXIS2_PLACEMENT_3D('',#782,#644,#645);
#532=AXIS2_PLACEMENT_3D('',#786,#648,#649);
#533=AXIS2_PLACEMENT_3D('',#788,#651,#652);
#534=DIRECTION('axis',(0.,0.,1.));
#535=DIRECTION('refdir',(1.,0.,0.));
#536=DIRECTION('center_axis',(0.,0.,1.));
#537=DIRECTION('ref_axis',(1.,0.,0.));
#538=DIRECTION('',(1.,0.,0.));
#539=DIRECTION('',(0.,-1.,0.));
#540=DIRECTION('',(-1.,0.,0.));
#541=DIRECTION('',(0.,1.,0.));
#542=DIRECTION('center_axis',(0.,0.,1.));
#543=DIRECTION('ref_axis',(1.,0.,0.));
#544=DIRECTION('',(-1.,0.,0.));
#545=DIRECTION('',(0.,1.,0.));
#546=DIRECTION('',(1.,0.,0.));
#547=DIRECTION('',(0.,-1.,0.));
#548=DIRECTION('center_axis',(0.,0.,1.));
#549=DIRECTION('ref_axis',(1.,0.,0.));
#550=DIRECTION('',(1.,0.,0.));
#551=DIRECTION('',(0.,-1.,0.));
#552=DIRECTION('',(-1.,0.,0.));
#553=DIRECTION('',(0.,1.,0.));
#554=DIRECTION('center_axis',(0.,0.,1.));
#555=DIRECTION('ref_axis',(1.,0.,0.));
#556=DIRECTION('',(-1.,0.,0.));
#557=DIRECTION('',(0.,1.,0.));
#558=DIRECTION('',(1.,0.,0.));
#559=DIRECTION('',(0.,-1.,0.));
#560=DIRECTION('center_axis',(-1.,0.,0.));
#561=DIRECTION('ref_axis',(0.,-1.,0.));
#562=DIRECTION('',(0.,0.,-1.));
#563=DIRECTION('',(0.,-1.,0.));
#564=DIRECTION('',(0.,0.,1.));
#565=DIRECTION('',(0.,0.,1.));
#566=DIRECTION('center_axis',(0.,-1.,0.));
#567=DIRECTION('ref_axis',(0.,0.,-1.));
#568=DIRECTION('',(0.,0.,-1.));
#569=DIRECTION('',(-1.,0.,0.));
#570=DIRECTION('center_axis',(1.,0.,0.));
#571=DIRECTION('ref_axis',(0.,1.,0.));
#572=DIRECTION('',(0.,0.,1.));
#573=DIRECTION('',(0.,1.,0.));
#574=DIRECTION('',(0.,0.,1.));
#575=DIRECTION('center_axis',(0.,1.,0.));
#576=DIRECTION('ref_axis',(0.,0.,1.));
#577=DIRECTION('',(0.,0.,-1.));
#578=DIRECTION('',(1.,0.,0.));
#579=DIRECTION('center_axis',(0.,1.,0.));
#580=DIRECTION('ref_axis',(0.,0.,1.));
#581=DIRECTION('',(0.,0.,-1.));
#582=DIRECTION('',(1.,0.,0.));
#583=DIRECTION('',(0.,0.,1.));
#584=DIRECTION('center_axis',(0.,1.,0.));
#585=DIRECTION('ref_axis',(0.,0.,1.));
#586=DIRECTION('',(0.,0.,-1.));
#587=DIRECTION('',(0.,0.,1.));
#588=DIRECTION('',(-1.,0.,0.));
#589=DIRECTION('',(0.,0.,1.));
#590=DIRECTION('center_axis',(0.,0.,1.));
#591=DIRECTION('ref_axis',(1.,0.,0.));
#592=DIRECTION('',(1.,0.,0.));
#593=DIRECTION('',(-1.,0.,0.));
#594=DIRECTION('',(0.,1.,0.));
#595=DIRECTION('center_axis',(0.,-1.,0.));
#596=DIRECTION('ref_axis',(1.,0.,0.));
#597=DIRECTION('',(0.,0.,-1.));
#598=DIRECTION('',(0.,0.,1.));
#599=DIRECTION('',(0.,0.,1.));
#600=DIRECTION('',(1.,0.,0.));
#601=DIRECTION('',(0.,0.,1.));
#602=DIRECTION('center_axis',(0.,1.,0.));
#603=DIRECTION('ref_axis',(0.,0.,1.));
#604=DIRECTION('',(0.,0.,-1.));
#605=DIRECTION('',(1.,0.,0.));
#606=DIRECTION('',(0.,0.,1.));
#607=DIRECTION('center_axis',(0.,0.,1.));
#608=DIRECTION('ref_axis',(0.,-1.,0.));
#609=DIRECTION('',(0.,-1.,0.));
#610=DIRECTION('',(0.,1.,0.));
#611=DIRECTION('center_axis',(1.,0.,0.));
#612=DIRECTION('ref_axis',(0.,1.,0.));
#613=DIRECTION('',(0.,0.,1.));
#614=DIRECTION('',(0.,-1.,0.));
#615=DIRECTION('center_axis',(1.,0.,0.));
#616=DIRECTION('ref_axis',(0.,1.,0.));
#617=DIRECTION('',(0.,0.,1.));
#618=DIRECTION('',(0.,1.,0.));
#619=DIRECTION('center_axis',(0.,0.,1.));
#620=DIRECTION('ref_axis',(-1.,0.,0.));
#621=DIRECTION('',(-1.,0.,0.));
#622=DIRECTION('',(1.,0.,0.));
#623=DIRECTION('center_axis',(0.,-1.,0.));
#624=DIRECTION('ref_axis',(0.,0.,-1.));
#625=DIRECTION('',(0.,0.,-1.));
#626=DIRECTION('',(1.,0.,0.));
#627=DIRECTION('center_axis',(0.,0.,1.));
#628=DIRECTION('ref_axis',(0.,1.,0.));
#629=DIRECTION('',(0.,1.,0.));
#630=DIRECTION('',(0.,-1.,0.));
#631=DIRECTION('center_axis',(-1.,0.,0.));
#632=DIRECTION('ref_axis',(0.,-1.,0.));
#633=DIRECTION('center_axis',(1.,0.,0.));
#634=DIRECTION('ref_axis',(0.,1.,0.));
#635=DIRECTION('',(0.,0.,1.));
#636=DIRECTION('',(0.,1.,0.));
#637=DIRECTION('',(0.,-1.,0.));
#638=DIRECTION('',(0.,1.,0.));
#639=DIRECTION('center_axis',(-1.,0.,0.));
#640=DIRECTION('ref_axis',(0.,-1.,0.));
#641=DIRECTION('',(0.,-1.,0.));
#642=DIRECTION('',(0.,-1.,0.));
#643=DIRECTION('',(0.,-1.,0.));
#644=DIRECTION('center_axis',(0.,1.,0.));
#645=DIRECTION('ref_axis',(-1.,0.,0.));
#646=DIRECTION('',(0.,0.,1.));
#647=DIRECTION('',(-1.,0.,0.));
#648=DIRECTION('center_axis',(-1.,0.,0.));
#649=DIRECTION('ref_axis',(0.,-1.,0.));
#650=DIRECTION('',(0.,-1.,0.));
#651=DIRECTION('center_axis',(0.,0.,1.));
#652=DIRECTION('ref_axis',(1.,0.,0.));
#653=CARTESIAN_POINT('',(0.,0.,0.));
#654=CARTESIAN_POINT('Origin',(53.9999991890014,26.4999996020099,12.7755905511811));
#655=CARTESIAN_POINT('',(52.9999991739829,26.4999996020099,12.7755905511811));
#656=CARTESIAN_POINT('',(54.4999991739829,26.4999996020099,12.7755905511811));
#657=CARTESIAN_POINT('',(27.9999995794822,26.4999996020099,12.7755905511811));
#658=CARTESIAN_POINT('',(52.9999992040199,27.9999995719729,12.7755905511811));
#659=CARTESIAN_POINT('',(52.9999992040199,27.4999995869914,12.7755905511811));
#660=CARTESIAN_POINT('',(54.4999991739829,27.9999995719729,12.7755905511811));
#661=CARTESIAN_POINT('',(27.9999995794822,27.9999995719729,12.7755905511811));
#662=CARTESIAN_POINT('',(54.4999991739829,25.4999996170284,12.7755905511811));
#663=CARTESIAN_POINT('Origin',(0.999999984981507,1.99999996996301,12.7755905511811));
#664=CARTESIAN_POINT('',(2.,1.99999996996301,12.7755905511811));
#665=CARTESIAN_POINT('',(0.5,1.99999996996301,12.7755905511811));
#666=CARTESIAN_POINT('',(1.49999997747226,1.99999996996301,12.7755905511811));
#667=CARTESIAN_POINT('',(1.99999996996301,0.5,12.7755905511811));
#668=CARTESIAN_POINT('',(1.99999996996301,0.999999984981507,12.7755905511811));
#669=CARTESIAN_POINT('',(0.5,0.5,12.7755905511811));
#670=CARTESIAN_POINT('',(26.9999995945007,0.5,12.7755905511811));
#671=CARTESIAN_POINT('',(0.5,2.99999995494452,12.7755905511811));
#672=CARTESIAN_POINT('Origin',(0.999999984981507,26.4999996020099,12.7755905511811));
#673=CARTESIAN_POINT('',(0.5,26.4999996020099,12.7755905511811));
#674=CARTESIAN_POINT('',(2.,26.4999996020099,12.7755905511811));
#675=CARTESIAN_POINT('',(0.499999992490753,26.4999996020099,12.7755905511811));
#676=CARTESIAN_POINT('',(0.5,27.9999995719729,12.7755905511811));
#677=CARTESIAN_POINT('',(0.5,15.249999770968,12.7755905511811));
#678=CARTESIAN_POINT('',(1.99999996996301,27.9999995719729,12.7755905511811));
#679=CARTESIAN_POINT('',(1.49999997747226,27.9999995719729,12.7755905511811));
#680=CARTESIAN_POINT('',(1.99999996996301,13.249999801005,12.7755905511811));
#681=CARTESIAN_POINT('Origin',(53.9999991890014,1.99999996996301,12.7755905511811));
#682=CARTESIAN_POINT('',(54.4999991739829,1.99999996996301,12.7755905511811));
#683=CARTESIAN_POINT('',(52.9999991739829,1.99999996996301,12.7755905511811));
#684=CARTESIAN_POINT('',(27.9999995794822,1.99999996996301,12.7755905511811));
#685=CARTESIAN_POINT('',(54.4999991739829,0.5,12.7755905511811));
#686=CARTESIAN_POINT('',(54.4999991739829,13.249999801005,12.7755905511811));
#687=CARTESIAN_POINT('',(52.9999992040199,0.5,12.7755905511811));
#688=CARTESIAN_POINT('',(53.4999991965106,0.5,12.7755905511811));
#689=CARTESIAN_POINT('',(52.9999992040199,15.249999770968,12.7755905511811));
#690=CARTESIAN_POINT('Origin',(52.9999992040199,28.4999995719729,0.));
#691=CARTESIAN_POINT('',(52.9999991739829,26.4999996020099,45.9999993091493));
#692=CARTESIAN_POINT('',(52.9999992040199,26.4999996020099,45.9999996695932));
#693=CARTESIAN_POINT('',(52.9999992040199,27.9999995719729,45.9999993091493));
#694=CARTESIAN_POINT('',(52.9999992040199,28.4999995719729,45.9999993091493));
#695=CARTESIAN_POINT('',(52.999998969963,27.9999995719729,43.9999993391863));
#696=CARTESIAN_POINT('',(52.9999992040199,27.9999995719729,21.9999996695931));
#697=CARTESIAN_POINT('',(52.9999992040199,27.9999995719729,0.));
#698=CARTESIAN_POINT('Origin',(1.99999996996301,26.4999996020099,48.));
#699=CARTESIAN_POINT('',(54.4999991739829,26.4999996020099,45.9999993091493));
#700=CARTESIAN_POINT('',(54.4999991739829,26.4999996020099,22.9999996545747));
#701=CARTESIAN_POINT('',(54.9999991739829,26.4999996020099,45.9999993091493));
#702=CARTESIAN_POINT('Origin',(1.99999996996301,0.,0.));
#703=CARTESIAN_POINT('',(2.,1.99999996996301,45.9999993091493));
#704=CARTESIAN_POINT('',(1.99999996996301,1.99999996996301,22.9999996545747));
#705=CARTESIAN_POINT('',(1.99999996996301,0.5,45.9999993091493));
#706=CARTESIAN_POINT('',(1.99999996996301,0.,45.9999993091493));
#707=CARTESIAN_POINT('',(1.99999996996301,0.5,21.9999996695931));
#708=CARTESIAN_POINT('Origin',(1.99999996996301,1.99999996996301,43.9999993391863));
#709=CARTESIAN_POINT('',(0.5,1.99999996996301,45.9999993091493));
#710=CARTESIAN_POINT('',(0.5,1.99999996996301,22.9999996545747));
#711=CARTESIAN_POINT('',(0.,1.99999996996301,45.9999993091493));
#712=CARTESIAN_POINT('Origin',(0.,26.4999996020099,0.));
#713=CARTESIAN_POINT('',(1.99999996996301,26.4999995719729,45.9999993091493));
#714=CARTESIAN_POINT('',(1.99999996996301,26.4999996020099,0.));
#715=CARTESIAN_POINT('',(0.5,26.4999996020099,45.9999993091493));
#716=CARTESIAN_POINT('',(0.,26.4999996020099,45.9999993091493));
#717=CARTESIAN_POINT('',(0.5,26.4999996020099,0.));
#718=CARTESIAN_POINT('Origin',(1.99999996996301,1.99999996996301,43.9999993391863));
#719=CARTESIAN_POINT('',(52.9999992040199,1.99999996996301,43.9999993391863));
#720=CARTESIAN_POINT('',(52.9999992040199,1.99999996996301,0.));
#721=CARTESIAN_POINT('',(52.9999991739829,1.99999996996301,45.9999993091493));
#722=CARTESIAN_POINT('',(52.999998969963,1.99999996996301,44.9999993241678));
#723=CARTESIAN_POINT('',(54.4999991739829,1.99999996996301,45.9999993091493));
#724=CARTESIAN_POINT('',(54.9999991739829,1.99999996996301,45.9999993091493));
#725=CARTESIAN_POINT('',(54.4999991739829,1.99999996996301,0.));
#726=CARTESIAN_POINT('Origin',(1.99999996996301,0.,45.9999993091493));
#727=CARTESIAN_POINT('',(52.999998969963,0.5,45.9999993091493));
#728=CARTESIAN_POINT('',(27.4999995869914,0.5,45.9999993091493));
#729=CARTESIAN_POINT('',(1.99999996996301,1.99999996996301,45.9999993091493));
#730=CARTESIAN_POINT('',(52.999998969963,0.,45.9999993091493));
#731=CARTESIAN_POINT('Origin',(52.9999992040199,0.5,0.));
#732=CARTESIAN_POINT('',(52.999998969963,0.5,43.9999993391863));
#733=CARTESIAN_POINT('',(52.999998969963,0.5,22.9999996545747));
#734=CARTESIAN_POINT('',(52.9999992040199,0.5,0.));
#735=CARTESIAN_POINT('',(54.4999991739829,0.5,47.5));
#736=CARTESIAN_POINT('',(54.4999991739829,0.5,0.));
#737=CARTESIAN_POINT('',(0.5,0.5,47.5));
#738=CARTESIAN_POINT('',(1.99999996996301,0.5,47.5));
#739=CARTESIAN_POINT('',(0.5,0.5,0.));
#740=CARTESIAN_POINT('Origin',(1.99999996996301,1.99999996996301,43.9999993391863));
#741=CARTESIAN_POINT('',(1.99999996996301,1.99999996996301,47.5));
#742=CARTESIAN_POINT('',(1.99999996996301,1.99999996996301,21.9999996695931));
#743=CARTESIAN_POINT('',(52.999998969963,1.99999996996301,47.5));
#744=CARTESIAN_POINT('',(1.99999996996301,1.99999996996301,47.5));
#745=CARTESIAN_POINT('',(52.9999992040199,1.99999996996301,21.9999996695931));
#746=CARTESIAN_POINT('Origin',(0.,26.4999996020099,45.9999993091493));
#747=CARTESIAN_POINT('',(0.5,15.249999770968,45.9999993091493));
#748=CARTESIAN_POINT('',(1.99999996996301,13.249999801005,45.9999993091493));
#749=CARTESIAN_POINT('Origin',(1.99999996996301,0.,0.));
#750=CARTESIAN_POINT('',(1.99999996996301,27.9999995719729,45.9999993091493));
#751=CARTESIAN_POINT('',(1.99999996996301,27.9999995719729,0.));
#752=CARTESIAN_POINT('',(1.99999996996301,28.4999995719729,45.9999993091493));
#753=CARTESIAN_POINT('Origin',(1.99999996996301,0.,0.));
#754=CARTESIAN_POINT('',(1.99999996996301,26.4999996020099,47.5));
#755=CARTESIAN_POINT('',(1.99999996996301,26.4999996020099,24.));
#756=CARTESIAN_POINT('',(1.99999996996301,3.99999993992603,47.5));
#757=CARTESIAN_POINT('Origin',(52.9999992040199,28.4999995719729,45.9999993091493));
#758=CARTESIAN_POINT('',(27.4999995869914,27.9999995719729,45.9999993091493));
#759=CARTESIAN_POINT('',(27.4999995869914,26.4999996020099,45.9999993091493));
#760=CARTESIAN_POINT('Origin',(1.99999996996301,26.4999996020099,48.));
#761=CARTESIAN_POINT('',(52.999998969963,26.4999996020099,47.5));
#762=CARTESIAN_POINT('',(52.9999992040199,26.4999996020099,24.));
#763=CARTESIAN_POINT('',(1.99999996996301,26.4999996020099,47.5));
#764=CARTESIAN_POINT('Origin',(54.9999991739829,1.99999996996301,45.9999993091493));
#765=CARTESIAN_POINT('',(54.4999991739829,13.249999801005,45.9999993091493));
#766=CARTESIAN_POINT('',(52.9999992040199,15.249999770968,45.9999993091493));
#767=CARTESIAN_POINT('Origin',(52.9999992040199,28.4999995719729,0.));
#768=CARTESIAN_POINT('Origin',(54.4999991739829,24.4999996320469,0.));
#769=CARTESIAN_POINT('',(54.4999991739829,27.9999995719729,47.5));
#770=CARTESIAN_POINT('',(54.4999991739829,27.9999995719729,0.));
#771=CARTESIAN_POINT('',(54.4999991739829,24.4999996320469,47.5));
#772=CARTESIAN_POINT('',(54.4999991739829,28.4999995719729,47.5));
#773=CARTESIAN_POINT('',(54.4999991739829,3.99999993992603,47.5));
#774=CARTESIAN_POINT('',(54.4999991739829,24.4999996320469,47.4999992791123));
#775=CARTESIAN_POINT('',(54.4999991739829,0.,47.5));
#776=CARTESIAN_POINT('Origin',(52.9999992040199,28.4999995719729,0.));
#777=CARTESIAN_POINT('',(52.9999992040199,3.99999993992603,47.5));
#778=CARTESIAN_POINT('',(52.9999992040199,3.99999993992603,47.5));
#779=CARTESIAN_POINT('',(52.9999992040199,24.4999996320469,47.5));
#780=CARTESIAN_POINT('',(52.9999992040199,24.4999996320469,47.4999992791123));
#781=CARTESIAN_POINT('',(52.9999992040199,24.4999996320469,47.5));
#782=CARTESIAN_POINT('Origin',(1.99999996996301,27.9999995719729,0.));
#783=CARTESIAN_POINT('',(0.5,27.9999995719729,47.5));
#784=CARTESIAN_POINT('',(0.5,27.9999995719729,0.));
#785=CARTESIAN_POINT('',(52.9999992040199,27.9999995719729,47.5));
#786=CARTESIAN_POINT('Origin',(0.5,3.99999993992603,0.));
#787=CARTESIAN_POINT('',(0.5,28.4999995719729,47.5));
#788=CARTESIAN_POINT('Origin',(0.999999984981507,1.99999996996301,47.5));
#789=UNCERTAINTY_MEASURE_WITH_UNIT(LENGTH_MEASURE(0.000393700787401575),
#794,'DISTANCE_ACCURACY_VALUE',
'Maximum model space distance between geometric entities at asserted c
onnectivities');
#790=UNCERTAINTY_MEASURE_WITH_UNIT(LENGTH_MEASURE(0.000393700787401575),
#794,'DISTANCE_ACCURACY_VALUE',
'Maximum model space distance between geometric entities at asserted c
onnectivities');
#791=(
GEOMETRIC_REPRESENTATION_CONTEXT(3)
GLOBAL_UNCERTAINTY_ASSIGNED_CONTEXT((#789))
GLOBAL_UNIT_ASSIGNED_CONTEXT((#794,#798,#799))
REPRESENTATION_CONTEXT('','3D')
);
#792=(
GEOMETRIC_REPRESENTATION_CONTEXT(3)
GLOBAL_UNCERTAINTY_ASSIGNED_CONTEXT((#790))
GLOBAL_UNIT_ASSIGNED_CONTEXT((#794,#798,#799))
REPRESENTATION_CONTEXT('','3D')
);
#793=DIMENSIONAL_EXPONENTS(1.,0.,0.,0.,0.,0.,0.);
#794=(
CONVERSION_BASED_UNIT('inch',#797)
LENGTH_UNIT()
NAMED_UNIT(#793)
);
#795=(
LENGTH_UNIT()
NAMED_UNIT(*)
SI_UNIT(.MILLI.,.METRE.)
);
#796=(
LENGTH_UNIT()
NAMED_UNIT(*)
SI_UNIT($,.METRE.)
);
#797=LENGTH_MEASURE_WITH_UNIT(LENGTH_MEASURE(25.4),#795);
#798=(
NAMED_UNIT(*)
PLANE_ANGLE_UNIT()
SI_UNIT($,.RADIAN.)
);
#799=(
NAMED_UNIT(*)
SI_UNIT($,.STERADIAN.)
SOLID_ANGLE_UNIT()
);
#800=SHAPE_DEFINITION_REPRESENTATION(#801,#802);
#801=PRODUCT_DEFINITION_SHAPE('',$,#804);
#802=SHAPE_REPRESENTATION('',(#508),#791);
#803=PRODUCT_DEFINITION_CONTEXT('part definition',#808,'design');
#804=PRODUCT_DEFINITION('Camera Stand','Camera Stand v5',#805,#803);
#805=PRODUCT_DEFINITION_FORMATION('',$,#810);
#806=PRODUCT_RELATED_PRODUCT_CATEGORY('Camera Stand v5',
'Camera Stand v5',(#810));
#807=APPLICATION_PROTOCOL_DEFINITION('international standard',
'automotive_design',2009,#808);
#808=APPLICATION_CONTEXT(
'Core Data for Automotive Mechanical Design Process');
#809=PRODUCT_CONTEXT('part definition',#808,'mechanical');
#810=PRODUCT('Camera Stand','Camera Stand v5',$,(#809));
#811=PRESENTATION_STYLE_ASSIGNMENT((#813));
#812=PRESENTATION_STYLE_ASSIGNMENT((#814));
#813=SURFACE_STYLE_USAGE(.BOTH.,#815);
#814=SURFACE_STYLE_USAGE(.BOTH.,#816);
#815=SURFACE_SIDE_STYLE('',(#817));
#816=SURFACE_SIDE_STYLE('',(#818));
#817=SURFACE_STYLE_FILL_AREA(#819);
#818=SURFACE_STYLE_FILL_AREA(#820);
#819=FILL_AREA_STYLE('Steel - Satin',(#821));
#820=FILL_AREA_STYLE('3D Oak - Unfinished',(#822));
#821=FILL_AREA_STYLE_COLOUR('Steel - Satin',#823);
#822=FILL_AREA_STYLE_COLOUR('3D Oak - Unfinished',#824);
#823=COLOUR_RGB('Steel - Satin',0.627450980392157,0.627450980392157,0.627450980392157);
#824=COLOUR_RGB('3D Oak - Unfinished',0.894117647058824,0.803921568627451,
0.690196078431373);
ENDSEC;
END-ISO-10303-21;
