ISO-10303-21;
HEADER;
/* Generated by software containing ST-Developer
 * from STEP Tools, Inc. (www.steptools.com) 
 */

FILE_DESCRIPTION(
/* description */ (''),
/* implementation_level */ '2;1');

FILE_NAME(
/* name */ 'LGR Carriage.step',
/* time_stamp */ '2026-03-25T02:12:05-04:00',
/* author */ (''),
/* organization */ (''),
/* preprocessor_version */ 'ST-DEVELOPER v20.1',
/* originating_system */ 'Autodesk Translation Framework v14.24.0.0',
/* authorisation */ '');

FILE_SCHEMA (('AUTOMOTIVE_DESIGN { 1 0 10303 214 3 1 1 }'));
ENDSEC;

DATA;
#10=MECHANICAL_DESIGN_GEOMETRIC_PRESENTATION_REPRESENTATION('',(#13),#1387);
#11=SHAPE_REPRESENTATION_RELATIONSHIP('SRR','None',#1394,#12);
#12=ADVANCED_BREP_SHAPE_REPRESENTATION('',(#14),#1386);
#13=STYLED_ITEM('',(#1404),#14);
#14=MANIFOLD_SOLID_BREP('Body1',#815);
#15=FACE_BOUND('',#108,.T.);
#16=FACE_BOUND('',#109,.T.);
#17=FACE_BOUND('',#110,.T.);
#18=FACE_BOUND('',#111,.T.);
#19=FACE_BOUND('',#123,.T.);
#20=FACE_BOUND('',#124,.T.);
#21=FACE_BOUND('',#125,.T.);
#22=FACE_BOUND('',#126,.T.);
#23=FACE_BOUND('',#133,.T.);
#24=FACE_BOUND('',#134,.T.);
#25=FACE_BOUND('',#135,.T.);
#26=FACE_BOUND('',#136,.T.);
#27=FACE_BOUND('',#137,.T.);
#28=FACE_BOUND('',#138,.T.);
#29=FACE_BOUND('',#139,.T.);
#30=FACE_BOUND('',#140,.T.);
#31=PLANE('',#888);
#32=PLANE('',#889);
#33=PLANE('',#890);
#34=PLANE('',#891);
#35=PLANE('',#892);
#36=PLANE('',#893);
#37=PLANE('',#894);
#38=PLANE('',#895);
#39=PLANE('',#896);
#40=PLANE('',#897);
#41=PLANE('',#901);
#42=PLANE('',#902);
#43=PLANE('',#903);
#44=PLANE('',#904);
#45=PLANE('',#905);
#46=PLANE('',#906);
#47=PLANE('',#907);
#48=PLANE('',#908);
#49=PLANE('',#909);
#50=PLANE('',#910);
#51=FACE_OUTER_BOUND('',#89,.T.);
#52=FACE_OUTER_BOUND('',#90,.T.);
#53=FACE_OUTER_BOUND('',#91,.T.);
#54=FACE_OUTER_BOUND('',#92,.T.);
#55=FACE_OUTER_BOUND('',#93,.T.);
#56=FACE_OUTER_BOUND('',#94,.T.);
#57=FACE_OUTER_BOUND('',#95,.T.);
#58=FACE_OUTER_BOUND('',#96,.T.);
#59=FACE_OUTER_BOUND('',#97,.T.);
#60=FACE_OUTER_BOUND('',#98,.T.);
#61=FACE_OUTER_BOUND('',#99,.T.);
#62=FACE_OUTER_BOUND('',#100,.T.);
#63=FACE_OUTER_BOUND('',#101,.T.);
#64=FACE_OUTER_BOUND('',#102,.T.);
#65=FACE_OUTER_BOUND('',#103,.T.);
#66=FACE_OUTER_BOUND('',#104,.T.);
#67=FACE_OUTER_BOUND('',#105,.T.);
#68=FACE_OUTER_BOUND('',#106,.T.);
#69=FACE_OUTER_BOUND('',#107,.T.);
#70=FACE_OUTER_BOUND('',#112,.T.);
#71=FACE_OUTER_BOUND('',#113,.T.);
#72=FACE_OUTER_BOUND('',#114,.T.);
#73=FACE_OUTER_BOUND('',#115,.T.);
#74=FACE_OUTER_BOUND('',#116,.T.);
#75=FACE_OUTER_BOUND('',#117,.T.);
#76=FACE_OUTER_BOUND('',#118,.T.);
#77=FACE_OUTER_BOUND('',#119,.T.);
#78=FACE_OUTER_BOUND('',#120,.T.);
#79=FACE_OUTER_BOUND('',#121,.T.);
#80=FACE_OUTER_BOUND('',#122,.T.);
#81=FACE_OUTER_BOUND('',#127,.T.);
#82=FACE_OUTER_BOUND('',#128,.T.);
#83=FACE_OUTER_BOUND('',#129,.T.);
#84=FACE_OUTER_BOUND('',#130,.T.);
#85=FACE_OUTER_BOUND('',#131,.T.);
#86=FACE_OUTER_BOUND('',#132,.T.);
#87=FACE_OUTER_BOUND('',#141,.T.);
#88=FACE_OUTER_BOUND('',#142,.T.);
#89=EDGE_LOOP('',(#527,#528,#529,#530,#531,#532));
#90=EDGE_LOOP('',(#533,#534,#535,#536,#537,#538));
#91=EDGE_LOOP('',(#539,#540,#541,#542,#543,#544));
#92=EDGE_LOOP('',(#545,#546,#547,#548,#549,#550));
#93=EDGE_LOOP('',(#551,#552,#553,#554,#555,#556));
#94=EDGE_LOOP('',(#557,#558,#559,#560,#561,#562));
#95=EDGE_LOOP('',(#563,#564,#565,#566,#567,#568));
#96=EDGE_LOOP('',(#569,#570,#571,#572,#573,#574));
#97=EDGE_LOOP('',(#575,#576,#577,#578,#579,#580));
#98=EDGE_LOOP('',(#581,#582,#583,#584,#585,#586));
#99=EDGE_LOOP('',(#587,#588,#589,#590,#591,#592));
#100=EDGE_LOOP('',(#593,#594,#595,#596,#597,#598));
#101=EDGE_LOOP('',(#599,#600,#601,#602,#603,#604));
#102=EDGE_LOOP('',(#605,#606,#607,#608,#609,#610));
#103=EDGE_LOOP('',(#611,#612,#613,#614,#615,#616));
#104=EDGE_LOOP('',(#617,#618,#619,#620,#621,#622));
#105=EDGE_LOOP('',(#623,#624,#625,#626));
#106=EDGE_LOOP('',(#627,#628,#629,#630));
#107=EDGE_LOOP('',(#631,#632,#633,#634));
#108=EDGE_LOOP('',(#635));
#109=EDGE_LOOP('',(#636));
#110=EDGE_LOOP('',(#637));
#111=EDGE_LOOP('',(#638));
#112=EDGE_LOOP('',(#639,#640,#641,#642));
#113=EDGE_LOOP('',(#643,#644,#645,#646));
#114=EDGE_LOOP('',(#647,#648,#649,#650));
#115=EDGE_LOOP('',(#651,#652,#653,#654));
#116=EDGE_LOOP('',(#655,#656,#657,#658));
#117=EDGE_LOOP('',(#659,#660,#661,#662));
#118=EDGE_LOOP('',(#663,#664,#665,#666));
#119=EDGE_LOOP('',(#667,#668,#669,#670));
#120=EDGE_LOOP('',(#671,#672,#673,#674));
#121=EDGE_LOOP('',(#675,#676,#677,#678));
#122=EDGE_LOOP('',(#679,#680,#681,#682));
#123=EDGE_LOOP('',(#683));
#124=EDGE_LOOP('',(#684));
#125=EDGE_LOOP('',(#685));
#126=EDGE_LOOP('',(#686));
#127=EDGE_LOOP('',(#687,#688,#689,#690));
#128=EDGE_LOOP('',(#691,#692,#693,#694));
#129=EDGE_LOOP('',(#695,#696,#697,#698));
#130=EDGE_LOOP('',(#699,#700,#701,#702,#703,#704,#705,#706,#707,#708,#709,
#710,#711,#712,#713,#714,#715,#716,#717,#718));
#131=EDGE_LOOP('',(#719,#720,#721,#722,#723,#724,#725,#726,#727,#728,#729,
#730,#731,#732,#733,#734,#735,#736,#737,#738));
#132=EDGE_LOOP('',(#739,#740,#741,#742));
#133=EDGE_LOOP('',(#743));
#134=EDGE_LOOP('',(#744));
#135=EDGE_LOOP('',(#745));
#136=EDGE_LOOP('',(#746));
#137=EDGE_LOOP('',(#747));
#138=EDGE_LOOP('',(#748));
#139=EDGE_LOOP('',(#749));
#140=EDGE_LOOP('',(#750));
#141=EDGE_LOOP('',(#751,#752,#753,#754));
#142=EDGE_LOOP('',(#755,#756,#757,#758));
#143=LINE('',#1154,#215);
#144=LINE('',#1164,#216);
#145=LINE('',#1174,#217);
#146=LINE('',#1184,#218);
#147=LINE('',#1194,#219);
#148=LINE('',#1204,#220);
#149=LINE('',#1214,#221);
#150=LINE('',#1224,#222);
#151=LINE('',#1233,#223);
#152=LINE('',#1237,#224);
#153=LINE('',#1241,#225);
#154=LINE('',#1245,#226);
#155=LINE('',#1249,#227);
#156=LINE('',#1253,#228);
#157=LINE('',#1257,#229);
#158=LINE('',#1261,#230);
#159=LINE('',#1267,#231);
#160=LINE('',#1270,#232);
#161=LINE('',#1274,#233);
#162=LINE('',#1276,#234);
#163=LINE('',#1278,#235);
#164=LINE('',#1279,#236);
#165=LINE('',#1282,#237);
#166=LINE('',#1284,#238);
#167=LINE('',#1285,#239);
#168=LINE('',#1287,#240);
#169=LINE('',#1288,#241);
#170=LINE('',#1291,#242);
#171=LINE('',#1293,#243);
#172=LINE('',#1294,#244);
#173=LINE('',#1297,#245);
#174=LINE('',#1299,#246);
#175=LINE('',#1300,#247);
#176=LINE('',#1303,#248);
#177=LINE('',#1305,#249);
#178=LINE('',#1306,#250);
#179=LINE('',#1309,#251);
#180=LINE('',#1311,#252);
#181=LINE('',#1312,#253);
#182=LINE('',#1315,#254);
#183=LINE('',#1317,#255);
#184=LINE('',#1318,#256);
#185=LINE('',#1321,#257);
#186=LINE('',#1323,#258);
#187=LINE('',#1324,#259);
#188=LINE('',#1327,#260);
#189=LINE('',#1329,#261);
#190=LINE('',#1330,#262);
#191=LINE('',#1335,#263);
#192=LINE('',#1339,#264);
#193=LINE('',#1341,#265);
#194=LINE('',#1342,#266);
#195=LINE('',#1345,#267);
#196=LINE('',#1347,#268);
#197=LINE('',#1348,#269);
#198=LINE('',#1351,#270);
#199=LINE('',#1353,#271);
#200=LINE('',#1354,#272);
#201=LINE('',#1357,#273);
#202=LINE('',#1359,#274);
#203=LINE('',#1360,#275);
#204=LINE('',#1363,#276);
#205=LINE('',#1365,#277);
#206=LINE('',#1366,#278);
#207=LINE('',#1369,#279);
#208=LINE('',#1371,#280);
#209=LINE('',#1372,#281);
#210=LINE('',#1375,#282);
#211=LINE('',#1377,#283);
#212=LINE('',#1378,#284);
#213=LINE('',#1380,#285);
#214=LINE('',#1381,#286);
#215=VECTOR('',#917,2.10000000193853);
#216=VECTOR('',#928,2.1000000019372);
#217=VECTOR('',#939,2.10000000193764);
#218=VECTOR('',#950,2.10000000193809);
#219=VECTOR('',#961,2.10000000193764);
#220=VECTOR('',#972,2.10000000193809);
#221=VECTOR('',#983,2.1000000019372);
#222=VECTOR('',#994,2.10000000193853);
#223=VECTOR('',#1005,2.1);
#224=VECTOR('',#1010,2.1);
#225=VECTOR('',#1015,2.1);
#226=VECTOR('',#1020,2.1);
#227=VECTOR('',#1025,2.1);
#228=VECTOR('',#1030,2.1);
#229=VECTOR('',#1035,2.1);
#230=VECTOR('',#1040,2.1);
#231=VECTOR('',#1045,1000.);
#232=VECTOR('',#1048,1000.);
#233=VECTOR('',#1051,1000.);
#234=VECTOR('',#1052,1000.);
#235=VECTOR('',#1053,1000.);
#236=VECTOR('',#1054,1000.);
#237=VECTOR('',#1057,1000.);
#238=VECTOR('',#1058,1000.);
#239=VECTOR('',#1059,1000.);
#240=VECTOR('',#1062,1000.);
#241=VECTOR('',#1063,1000.);
#242=VECTOR('',#1066,1000.);
#243=VECTOR('',#1067,1000.);
#244=VECTOR('',#1068,1000.);
#245=VECTOR('',#1071,1000.);
#246=VECTOR('',#1072,1000.);
#247=VECTOR('',#1073,1000.);
#248=VECTOR('',#1076,1000.);
#249=VECTOR('',#1077,1000.);
#250=VECTOR('',#1078,1000.);
#251=VECTOR('',#1081,1000.);
#252=VECTOR('',#1082,1000.);
#253=VECTOR('',#1083,1000.);
#254=VECTOR('',#1086,1000.);
#255=VECTOR('',#1087,1000.);
#256=VECTOR('',#1088,1000.);
#257=VECTOR('',#1091,1000.);
#258=VECTOR('',#1092,1000.);
#259=VECTOR('',#1093,1000.);
#260=VECTOR('',#1096,1000.);
#261=VECTOR('',#1097,1000.);
#262=VECTOR('',#1098,1000.);
#263=VECTOR('',#1103,1000.);
#264=VECTOR('',#1108,1000.);
#265=VECTOR('',#1109,1000.);
#266=VECTOR('',#1110,1000.);
#267=VECTOR('',#1113,1000.);
#268=VECTOR('',#1114,1000.);
#269=VECTOR('',#1115,1000.);
#270=VECTOR('',#1118,1000.);
#271=VECTOR('',#1119,1000.);
#272=VECTOR('',#1120,1000.);
#273=VECTOR('',#1123,1000.);
#274=VECTOR('',#1124,1000.);
#275=VECTOR('',#1125,1000.);
#276=VECTOR('',#1128,1000.);
#277=VECTOR('',#1129,1000.);
#278=VECTOR('',#1130,1000.);
#279=VECTOR('',#1133,1000.);
#280=VECTOR('',#1134,1000.);
#281=VECTOR('',#1135,1000.);
#282=VECTOR('',#1138,1000.);
#283=VECTOR('',#1139,1000.);
#284=VECTOR('',#1140,1000.);
#285=VECTOR('',#1143,1000.);
#286=VECTOR('',#1144,1000.);
#287=CIRCLE('',#830,2.10000000193853);
#288=CIRCLE('',#831,2.10000000193809);
#289=CIRCLE('',#832,2.10000000193809);
#290=CIRCLE('',#833,2.10000000193809);
#291=CIRCLE('',#835,2.1000000019372);
#292=CIRCLE('',#836,2.10000000193809);
#293=CIRCLE('',#837,2.10000000193809);
#294=CIRCLE('',#838,2.10000000193809);
#295=CIRCLE('',#840,2.10000000193764);
#296=CIRCLE('',#841,2.10000000193809);
#297=CIRCLE('',#842,2.10000000193809);
#298=CIRCLE('',#843,2.10000000193809);
#299=CIRCLE('',#845,2.10000000193809);
#300=CIRCLE('',#846,2.10000000193809);
#301=CIRCLE('',#847,2.10000000193809);
#302=CIRCLE('',#848,2.10000000193809);
#303=CIRCLE('',#850,2.10000000193764);
#304=CIRCLE('',#851,2.10000000193809);
#305=CIRCLE('',#852,2.10000000193809);
#306=CIRCLE('',#853,2.10000000193809);
#307=CIRCLE('',#855,2.10000000193809);
#308=CIRCLE('',#856,2.10000000193809);
#309=CIRCLE('',#857,2.10000000193809);
#310=CIRCLE('',#858,2.10000000193809);
#311=CIRCLE('',#860,2.1000000019372);
#312=CIRCLE('',#861,2.10000000193809);
#313=CIRCLE('',#862,2.10000000193809);
#314=CIRCLE('',#863,2.10000000193809);
#315=CIRCLE('',#865,2.10000000193853);
#316=CIRCLE('',#866,2.10000000193809);
#317=CIRCLE('',#867,2.10000000193809);
#318=CIRCLE('',#868,2.10000000193809);
#319=CIRCLE('',#870,2.1);
#320=CIRCLE('',#872,2.1);
#321=CIRCLE('',#874,2.1);
#322=CIRCLE('',#876,2.1);
#323=CIRCLE('',#878,2.1);
#324=CIRCLE('',#880,2.1);
#325=CIRCLE('',#882,2.1);
#326=CIRCLE('',#884,2.1);
#327=CIRCLE('',#886,3.00000000000011);
#328=CIRCLE('',#887,3.00000000000011);
#329=CIRCLE('',#899,3.00000000000011);
#330=CIRCLE('',#900,3.00000000000011);
#331=VERTEX_POINT('',#1151);
#332=VERTEX_POINT('',#1153);
#333=VERTEX_POINT('',#1155);
#334=VERTEX_POINT('',#1157);
#335=VERTEX_POINT('',#1161);
#336=VERTEX_POINT('',#1163);
#337=VERTEX_POINT('',#1165);
#338=VERTEX_POINT('',#1167);
#339=VERTEX_POINT('',#1171);
#340=VERTEX_POINT('',#1173);
#341=VERTEX_POINT('',#1175);
#342=VERTEX_POINT('',#1177);
#343=VERTEX_POINT('',#1181);
#344=VERTEX_POINT('',#1183);
#345=VERTEX_POINT('',#1185);
#346=VERTEX_POINT('',#1187);
#347=VERTEX_POINT('',#1191);
#348=VERTEX_POINT('',#1193);
#349=VERTEX_POINT('',#1195);
#350=VERTEX_POINT('',#1197);
#351=VERTEX_POINT('',#1201);
#352=VERTEX_POINT('',#1203);
#353=VERTEX_POINT('',#1205);
#354=VERTEX_POINT('',#1207);
#355=VERTEX_POINT('',#1211);
#356=VERTEX_POINT('',#1213);
#357=VERTEX_POINT('',#1215);
#358=VERTEX_POINT('',#1217);
#359=VERTEX_POINT('',#1221);
#360=VERTEX_POINT('',#1223);
#361=VERTEX_POINT('',#1225);
#362=VERTEX_POINT('',#1227);
#363=VERTEX_POINT('',#1231);
#364=VERTEX_POINT('',#1235);
#365=VERTEX_POINT('',#1239);
#366=VERTEX_POINT('',#1243);
#367=VERTEX_POINT('',#1247);
#368=VERTEX_POINT('',#1251);
#369=VERTEX_POINT('',#1255);
#370=VERTEX_POINT('',#1259);
#371=VERTEX_POINT('',#1263);
#372=VERTEX_POINT('',#1264);
#373=VERTEX_POINT('',#1266);
#374=VERTEX_POINT('',#1268);
#375=VERTEX_POINT('',#1272);
#376=VERTEX_POINT('',#1273);
#377=VERTEX_POINT('',#1275);
#378=VERTEX_POINT('',#1277);
#379=VERTEX_POINT('',#1281);
#380=VERTEX_POINT('',#1283);
#381=VERTEX_POINT('',#1290);
#382=VERTEX_POINT('',#1292);
#383=VERTEX_POINT('',#1296);
#384=VERTEX_POINT('',#1298);
#385=VERTEX_POINT('',#1302);
#386=VERTEX_POINT('',#1304);
#387=VERTEX_POINT('',#1308);
#388=VERTEX_POINT('',#1310);
#389=VERTEX_POINT('',#1314);
#390=VERTEX_POINT('',#1316);
#391=VERTEX_POINT('',#1320);
#392=VERTEX_POINT('',#1322);
#393=VERTEX_POINT('',#1326);
#394=VERTEX_POINT('',#1328);
#395=VERTEX_POINT('',#1332);
#396=VERTEX_POINT('',#1334);
#397=VERTEX_POINT('',#1338);
#398=VERTEX_POINT('',#1340);
#399=VERTEX_POINT('',#1344);
#400=VERTEX_POINT('',#1346);
#401=VERTEX_POINT('',#1350);
#402=VERTEX_POINT('',#1352);
#403=VERTEX_POINT('',#1356);
#404=VERTEX_POINT('',#1358);
#405=VERTEX_POINT('',#1362);
#406=VERTEX_POINT('',#1364);
#407=VERTEX_POINT('',#1368);
#408=VERTEX_POINT('',#1370);
#409=VERTEX_POINT('',#1374);
#410=VERTEX_POINT('',#1376);
#411=EDGE_CURVE('',#331,#331,#287,.T.);
#412=EDGE_CURVE('',#331,#332,#143,.T.);
#413=EDGE_CURVE('',#332,#333,#288,.T.);
#414=EDGE_CURVE('',#333,#334,#289,.T.);
#415=EDGE_CURVE('',#334,#332,#290,.T.);
#416=EDGE_CURVE('',#335,#335,#291,.T.);
#417=EDGE_CURVE('',#335,#336,#144,.T.);
#418=EDGE_CURVE('',#336,#337,#292,.T.);
#419=EDGE_CURVE('',#337,#338,#293,.T.);
#420=EDGE_CURVE('',#338,#336,#294,.T.);
#421=EDGE_CURVE('',#339,#339,#295,.T.);
#422=EDGE_CURVE('',#339,#340,#145,.T.);
#423=EDGE_CURVE('',#340,#341,#296,.T.);
#424=EDGE_CURVE('',#341,#342,#297,.T.);
#425=EDGE_CURVE('',#342,#340,#298,.T.);
#426=EDGE_CURVE('',#343,#343,#299,.T.);
#427=EDGE_CURVE('',#343,#344,#146,.T.);
#428=EDGE_CURVE('',#344,#345,#300,.T.);
#429=EDGE_CURVE('',#345,#346,#301,.T.);
#430=EDGE_CURVE('',#346,#344,#302,.T.);
#431=EDGE_CURVE('',#347,#347,#303,.T.);
#432=EDGE_CURVE('',#347,#348,#147,.T.);
#433=EDGE_CURVE('',#348,#349,#304,.T.);
#434=EDGE_CURVE('',#349,#350,#305,.T.);
#435=EDGE_CURVE('',#350,#348,#306,.T.);
#436=EDGE_CURVE('',#351,#351,#307,.T.);
#437=EDGE_CURVE('',#351,#352,#148,.T.);
#438=EDGE_CURVE('',#352,#353,#308,.T.);
#439=EDGE_CURVE('',#353,#354,#309,.T.);
#440=EDGE_CURVE('',#354,#352,#310,.T.);
#441=EDGE_CURVE('',#355,#355,#311,.T.);
#442=EDGE_CURVE('',#355,#356,#149,.T.);
#443=EDGE_CURVE('',#356,#357,#312,.T.);
#444=EDGE_CURVE('',#357,#358,#313,.T.);
#445=EDGE_CURVE('',#358,#356,#314,.T.);
#446=EDGE_CURVE('',#359,#359,#315,.T.);
#447=EDGE_CURVE('',#359,#360,#150,.T.);
#448=EDGE_CURVE('',#360,#361,#316,.T.);
#449=EDGE_CURVE('',#361,#362,#317,.T.);
#450=EDGE_CURVE('',#362,#360,#318,.T.);
#451=EDGE_CURVE('',#363,#363,#319,.T.);
#452=EDGE_CURVE('',#363,#361,#151,.T.);
#453=EDGE_CURVE('',#364,#364,#320,.T.);
#454=EDGE_CURVE('',#364,#349,#152,.T.);
#455=EDGE_CURVE('',#365,#365,#321,.T.);
#456=EDGE_CURVE('',#365,#341,#153,.T.);
#457=EDGE_CURVE('',#366,#366,#322,.T.);
#458=EDGE_CURVE('',#366,#333,#154,.T.);
#459=EDGE_CURVE('',#367,#367,#323,.T.);
#460=EDGE_CURVE('',#367,#337,#155,.T.);
#461=EDGE_CURVE('',#368,#368,#324,.T.);
#462=EDGE_CURVE('',#368,#345,#156,.T.);
#463=EDGE_CURVE('',#369,#369,#325,.T.);
#464=EDGE_CURVE('',#369,#353,#157,.T.);
#465=EDGE_CURVE('',#370,#370,#326,.T.);
#466=EDGE_CURVE('',#370,#357,#158,.T.);
#467=EDGE_CURVE('',#371,#372,#327,.T.);
#468=EDGE_CURVE('',#371,#373,#159,.T.);
#469=EDGE_CURVE('',#373,#374,#328,.T.);
#470=EDGE_CURVE('',#372,#374,#160,.T.);
#471=EDGE_CURVE('',#375,#376,#161,.T.);
#472=EDGE_CURVE('',#377,#376,#162,.T.);
#473=EDGE_CURVE('',#378,#377,#163,.T.);
#474=EDGE_CURVE('',#378,#375,#164,.T.);
#475=EDGE_CURVE('',#376,#379,#165,.T.);
#476=EDGE_CURVE('',#380,#379,#166,.T.);
#477=EDGE_CURVE('',#377,#380,#167,.T.);
#478=EDGE_CURVE('',#379,#373,#168,.T.);
#479=EDGE_CURVE('',#380,#371,#169,.T.);
#480=EDGE_CURVE('',#374,#381,#170,.T.);
#481=EDGE_CURVE('',#382,#381,#171,.T.);
#482=EDGE_CURVE('',#372,#382,#172,.T.);
#483=EDGE_CURVE('',#381,#383,#173,.T.);
#484=EDGE_CURVE('',#384,#383,#174,.T.);
#485=EDGE_CURVE('',#382,#384,#175,.T.);
#486=EDGE_CURVE('',#383,#385,#176,.T.);
#487=EDGE_CURVE('',#386,#385,#177,.T.);
#488=EDGE_CURVE('',#384,#386,#178,.T.);
#489=EDGE_CURVE('',#385,#387,#179,.T.);
#490=EDGE_CURVE('',#388,#387,#180,.T.);
#491=EDGE_CURVE('',#386,#388,#181,.T.);
#492=EDGE_CURVE('',#387,#389,#182,.T.);
#493=EDGE_CURVE('',#390,#389,#183,.T.);
#494=EDGE_CURVE('',#388,#390,#184,.T.);
#495=EDGE_CURVE('',#389,#391,#185,.T.);
#496=EDGE_CURVE('',#392,#391,#186,.T.);
#497=EDGE_CURVE('',#390,#392,#187,.T.);
#498=EDGE_CURVE('',#391,#393,#188,.T.);
#499=EDGE_CURVE('',#394,#393,#189,.T.);
#500=EDGE_CURVE('',#392,#394,#190,.T.);
#501=EDGE_CURVE('',#393,#395,#329,.T.);
#502=EDGE_CURVE('',#396,#395,#191,.T.);
#503=EDGE_CURVE('',#394,#396,#330,.T.);
#504=EDGE_CURVE('',#395,#397,#192,.T.);
#505=EDGE_CURVE('',#398,#397,#193,.T.);
#506=EDGE_CURVE('',#396,#398,#194,.T.);
#507=EDGE_CURVE('',#397,#399,#195,.T.);
#508=EDGE_CURVE('',#400,#399,#196,.T.);
#509=EDGE_CURVE('',#398,#400,#197,.T.);
#510=EDGE_CURVE('',#399,#401,#198,.T.);
#511=EDGE_CURVE('',#402,#401,#199,.T.);
#512=EDGE_CURVE('',#400,#402,#200,.T.);
#513=EDGE_CURVE('',#401,#403,#201,.T.);
#514=EDGE_CURVE('',#404,#403,#202,.T.);
#515=EDGE_CURVE('',#402,#404,#203,.T.);
#516=EDGE_CURVE('',#405,#375,#204,.T.);
#517=EDGE_CURVE('',#406,#378,#205,.T.);
#518=EDGE_CURVE('',#406,#405,#206,.T.);
#519=EDGE_CURVE('',#407,#404,#207,.T.);
#520=EDGE_CURVE('',#408,#407,#208,.T.);
#521=EDGE_CURVE('',#408,#406,#209,.T.);
#522=EDGE_CURVE('',#409,#405,#210,.T.);
#523=EDGE_CURVE('',#410,#409,#211,.T.);
#524=EDGE_CURVE('',#410,#403,#212,.T.);
#525=EDGE_CURVE('',#407,#410,#213,.T.);
#526=EDGE_CURVE('',#409,#408,#214,.T.);
#527=ORIENTED_EDGE('',*,*,#411,.T.);
#528=ORIENTED_EDGE('',*,*,#412,.T.);
#529=ORIENTED_EDGE('',*,*,#413,.T.);
#530=ORIENTED_EDGE('',*,*,#414,.T.);
#531=ORIENTED_EDGE('',*,*,#415,.T.);
#532=ORIENTED_EDGE('',*,*,#412,.F.);
#533=ORIENTED_EDGE('',*,*,#416,.T.);
#534=ORIENTED_EDGE('',*,*,#417,.T.);
#535=ORIENTED_EDGE('',*,*,#418,.T.);
#536=ORIENTED_EDGE('',*,*,#419,.T.);
#537=ORIENTED_EDGE('',*,*,#420,.T.);
#538=ORIENTED_EDGE('',*,*,#417,.F.);
#539=ORIENTED_EDGE('',*,*,#421,.T.);
#540=ORIENTED_EDGE('',*,*,#422,.T.);
#541=ORIENTED_EDGE('',*,*,#423,.T.);
#542=ORIENTED_EDGE('',*,*,#424,.T.);
#543=ORIENTED_EDGE('',*,*,#425,.T.);
#544=ORIENTED_EDGE('',*,*,#422,.F.);
#545=ORIENTED_EDGE('',*,*,#426,.T.);
#546=ORIENTED_EDGE('',*,*,#427,.T.);
#547=ORIENTED_EDGE('',*,*,#428,.T.);
#548=ORIENTED_EDGE('',*,*,#429,.T.);
#549=ORIENTED_EDGE('',*,*,#430,.T.);
#550=ORIENTED_EDGE('',*,*,#427,.F.);
#551=ORIENTED_EDGE('',*,*,#431,.T.);
#552=ORIENTED_EDGE('',*,*,#432,.T.);
#553=ORIENTED_EDGE('',*,*,#433,.T.);
#554=ORIENTED_EDGE('',*,*,#434,.T.);
#555=ORIENTED_EDGE('',*,*,#435,.T.);
#556=ORIENTED_EDGE('',*,*,#432,.F.);
#557=ORIENTED_EDGE('',*,*,#436,.T.);
#558=ORIENTED_EDGE('',*,*,#437,.T.);
#559=ORIENTED_EDGE('',*,*,#438,.T.);
#560=ORIENTED_EDGE('',*,*,#439,.T.);
#561=ORIENTED_EDGE('',*,*,#440,.T.);
#562=ORIENTED_EDGE('',*,*,#437,.F.);
#563=ORIENTED_EDGE('',*,*,#441,.T.);
#564=ORIENTED_EDGE('',*,*,#442,.T.);
#565=ORIENTED_EDGE('',*,*,#443,.T.);
#566=ORIENTED_EDGE('',*,*,#444,.T.);
#567=ORIENTED_EDGE('',*,*,#445,.T.);
#568=ORIENTED_EDGE('',*,*,#442,.F.);
#569=ORIENTED_EDGE('',*,*,#446,.T.);
#570=ORIENTED_EDGE('',*,*,#447,.T.);
#571=ORIENTED_EDGE('',*,*,#448,.T.);
#572=ORIENTED_EDGE('',*,*,#449,.T.);
#573=ORIENTED_EDGE('',*,*,#450,.T.);
#574=ORIENTED_EDGE('',*,*,#447,.F.);
#575=ORIENTED_EDGE('',*,*,#451,.F.);
#576=ORIENTED_EDGE('',*,*,#452,.T.);
#577=ORIENTED_EDGE('',*,*,#448,.F.);
#578=ORIENTED_EDGE('',*,*,#450,.F.);
#579=ORIENTED_EDGE('',*,*,#449,.F.);
#580=ORIENTED_EDGE('',*,*,#452,.F.);
#581=ORIENTED_EDGE('',*,*,#453,.F.);
#582=ORIENTED_EDGE('',*,*,#454,.T.);
#583=ORIENTED_EDGE('',*,*,#433,.F.);
#584=ORIENTED_EDGE('',*,*,#435,.F.);
#585=ORIENTED_EDGE('',*,*,#434,.F.);
#586=ORIENTED_EDGE('',*,*,#454,.F.);
#587=ORIENTED_EDGE('',*,*,#455,.F.);
#588=ORIENTED_EDGE('',*,*,#456,.T.);
#589=ORIENTED_EDGE('',*,*,#423,.F.);
#590=ORIENTED_EDGE('',*,*,#425,.F.);
#591=ORIENTED_EDGE('',*,*,#424,.F.);
#592=ORIENTED_EDGE('',*,*,#456,.F.);
#593=ORIENTED_EDGE('',*,*,#457,.F.);
#594=ORIENTED_EDGE('',*,*,#458,.T.);
#595=ORIENTED_EDGE('',*,*,#413,.F.);
#596=ORIENTED_EDGE('',*,*,#415,.F.);
#597=ORIENTED_EDGE('',*,*,#414,.F.);
#598=ORIENTED_EDGE('',*,*,#458,.F.);
#599=ORIENTED_EDGE('',*,*,#459,.F.);
#600=ORIENTED_EDGE('',*,*,#460,.T.);
#601=ORIENTED_EDGE('',*,*,#418,.F.);
#602=ORIENTED_EDGE('',*,*,#420,.F.);
#603=ORIENTED_EDGE('',*,*,#419,.F.);
#604=ORIENTED_EDGE('',*,*,#460,.F.);
#605=ORIENTED_EDGE('',*,*,#461,.F.);
#606=ORIENTED_EDGE('',*,*,#462,.T.);
#607=ORIENTED_EDGE('',*,*,#428,.F.);
#608=ORIENTED_EDGE('',*,*,#430,.F.);
#609=ORIENTED_EDGE('',*,*,#429,.F.);
#610=ORIENTED_EDGE('',*,*,#462,.F.);
#611=ORIENTED_EDGE('',*,*,#463,.F.);
#612=ORIENTED_EDGE('',*,*,#464,.T.);
#613=ORIENTED_EDGE('',*,*,#438,.F.);
#614=ORIENTED_EDGE('',*,*,#440,.F.);
#615=ORIENTED_EDGE('',*,*,#439,.F.);
#616=ORIENTED_EDGE('',*,*,#464,.F.);
#617=ORIENTED_EDGE('',*,*,#465,.F.);
#618=ORIENTED_EDGE('',*,*,#466,.T.);
#619=ORIENTED_EDGE('',*,*,#443,.F.);
#620=ORIENTED_EDGE('',*,*,#445,.F.);
#621=ORIENTED_EDGE('',*,*,#444,.F.);
#622=ORIENTED_EDGE('',*,*,#466,.F.);
#623=ORIENTED_EDGE('',*,*,#467,.F.);
#624=ORIENTED_EDGE('',*,*,#468,.T.);
#625=ORIENTED_EDGE('',*,*,#469,.T.);
#626=ORIENTED_EDGE('',*,*,#470,.F.);
#627=ORIENTED_EDGE('',*,*,#471,.T.);
#628=ORIENTED_EDGE('',*,*,#472,.F.);
#629=ORIENTED_EDGE('',*,*,#473,.F.);
#630=ORIENTED_EDGE('',*,*,#474,.T.);
#631=ORIENTED_EDGE('',*,*,#475,.T.);
#632=ORIENTED_EDGE('',*,*,#476,.F.);
#633=ORIENTED_EDGE('',*,*,#477,.F.);
#634=ORIENTED_EDGE('',*,*,#472,.T.);
#635=ORIENTED_EDGE('',*,*,#451,.T.);
#636=ORIENTED_EDGE('',*,*,#453,.T.);
#637=ORIENTED_EDGE('',*,*,#455,.T.);
#638=ORIENTED_EDGE('',*,*,#457,.T.);
#639=ORIENTED_EDGE('',*,*,#478,.T.);
#640=ORIENTED_EDGE('',*,*,#468,.F.);
#641=ORIENTED_EDGE('',*,*,#479,.F.);
#642=ORIENTED_EDGE('',*,*,#476,.T.);
#643=ORIENTED_EDGE('',*,*,#480,.T.);
#644=ORIENTED_EDGE('',*,*,#481,.F.);
#645=ORIENTED_EDGE('',*,*,#482,.F.);
#646=ORIENTED_EDGE('',*,*,#470,.T.);
#647=ORIENTED_EDGE('',*,*,#483,.T.);
#648=ORIENTED_EDGE('',*,*,#484,.F.);
#649=ORIENTED_EDGE('',*,*,#485,.F.);
#650=ORIENTED_EDGE('',*,*,#481,.T.);
#651=ORIENTED_EDGE('',*,*,#486,.T.);
#652=ORIENTED_EDGE('',*,*,#487,.F.);
#653=ORIENTED_EDGE('',*,*,#488,.F.);
#654=ORIENTED_EDGE('',*,*,#484,.T.);
#655=ORIENTED_EDGE('',*,*,#489,.T.);
#656=ORIENTED_EDGE('',*,*,#490,.F.);
#657=ORIENTED_EDGE('',*,*,#491,.F.);
#658=ORIENTED_EDGE('',*,*,#487,.T.);
#659=ORIENTED_EDGE('',*,*,#492,.T.);
#660=ORIENTED_EDGE('',*,*,#493,.F.);
#661=ORIENTED_EDGE('',*,*,#494,.F.);
#662=ORIENTED_EDGE('',*,*,#490,.T.);
#663=ORIENTED_EDGE('',*,*,#495,.T.);
#664=ORIENTED_EDGE('',*,*,#496,.F.);
#665=ORIENTED_EDGE('',*,*,#497,.F.);
#666=ORIENTED_EDGE('',*,*,#493,.T.);
#667=ORIENTED_EDGE('',*,*,#498,.T.);
#668=ORIENTED_EDGE('',*,*,#499,.F.);
#669=ORIENTED_EDGE('',*,*,#500,.F.);
#670=ORIENTED_EDGE('',*,*,#496,.T.);
#671=ORIENTED_EDGE('',*,*,#501,.T.);
#672=ORIENTED_EDGE('',*,*,#502,.F.);
#673=ORIENTED_EDGE('',*,*,#503,.F.);
#674=ORIENTED_EDGE('',*,*,#499,.T.);
#675=ORIENTED_EDGE('',*,*,#504,.T.);
#676=ORIENTED_EDGE('',*,*,#505,.F.);
#677=ORIENTED_EDGE('',*,*,#506,.F.);
#678=ORIENTED_EDGE('',*,*,#502,.T.);
#679=ORIENTED_EDGE('',*,*,#507,.T.);
#680=ORIENTED_EDGE('',*,*,#508,.F.);
#681=ORIENTED_EDGE('',*,*,#509,.F.);
#682=ORIENTED_EDGE('',*,*,#505,.T.);
#683=ORIENTED_EDGE('',*,*,#459,.T.);
#684=ORIENTED_EDGE('',*,*,#461,.T.);
#685=ORIENTED_EDGE('',*,*,#463,.T.);
#686=ORIENTED_EDGE('',*,*,#465,.T.);
#687=ORIENTED_EDGE('',*,*,#510,.T.);
#688=ORIENTED_EDGE('',*,*,#511,.F.);
#689=ORIENTED_EDGE('',*,*,#512,.F.);
#690=ORIENTED_EDGE('',*,*,#508,.T.);
#691=ORIENTED_EDGE('',*,*,#513,.T.);
#692=ORIENTED_EDGE('',*,*,#514,.F.);
#693=ORIENTED_EDGE('',*,*,#515,.F.);
#694=ORIENTED_EDGE('',*,*,#511,.T.);
#695=ORIENTED_EDGE('',*,*,#516,.T.);
#696=ORIENTED_EDGE('',*,*,#474,.F.);
#697=ORIENTED_EDGE('',*,*,#517,.F.);
#698=ORIENTED_EDGE('',*,*,#518,.T.);
#699=ORIENTED_EDGE('',*,*,#473,.T.);
#700=ORIENTED_EDGE('',*,*,#477,.T.);
#701=ORIENTED_EDGE('',*,*,#479,.T.);
#702=ORIENTED_EDGE('',*,*,#467,.T.);
#703=ORIENTED_EDGE('',*,*,#482,.T.);
#704=ORIENTED_EDGE('',*,*,#485,.T.);
#705=ORIENTED_EDGE('',*,*,#488,.T.);
#706=ORIENTED_EDGE('',*,*,#491,.T.);
#707=ORIENTED_EDGE('',*,*,#494,.T.);
#708=ORIENTED_EDGE('',*,*,#497,.T.);
#709=ORIENTED_EDGE('',*,*,#500,.T.);
#710=ORIENTED_EDGE('',*,*,#503,.T.);
#711=ORIENTED_EDGE('',*,*,#506,.T.);
#712=ORIENTED_EDGE('',*,*,#509,.T.);
#713=ORIENTED_EDGE('',*,*,#512,.T.);
#714=ORIENTED_EDGE('',*,*,#515,.T.);
#715=ORIENTED_EDGE('',*,*,#519,.F.);
#716=ORIENTED_EDGE('',*,*,#520,.F.);
#717=ORIENTED_EDGE('',*,*,#521,.T.);
#718=ORIENTED_EDGE('',*,*,#517,.T.);
#719=ORIENTED_EDGE('',*,*,#471,.F.);
#720=ORIENTED_EDGE('',*,*,#516,.F.);
#721=ORIENTED_EDGE('',*,*,#522,.F.);
#722=ORIENTED_EDGE('',*,*,#523,.F.);
#723=ORIENTED_EDGE('',*,*,#524,.T.);
#724=ORIENTED_EDGE('',*,*,#513,.F.);
#725=ORIENTED_EDGE('',*,*,#510,.F.);
#726=ORIENTED_EDGE('',*,*,#507,.F.);
#727=ORIENTED_EDGE('',*,*,#504,.F.);
#728=ORIENTED_EDGE('',*,*,#501,.F.);
#729=ORIENTED_EDGE('',*,*,#498,.F.);
#730=ORIENTED_EDGE('',*,*,#495,.F.);
#731=ORIENTED_EDGE('',*,*,#492,.F.);
#732=ORIENTED_EDGE('',*,*,#489,.F.);
#733=ORIENTED_EDGE('',*,*,#486,.F.);
#734=ORIENTED_EDGE('',*,*,#483,.F.);
#735=ORIENTED_EDGE('',*,*,#480,.F.);
#736=ORIENTED_EDGE('',*,*,#469,.F.);
#737=ORIENTED_EDGE('',*,*,#478,.F.);
#738=ORIENTED_EDGE('',*,*,#475,.F.);
#739=ORIENTED_EDGE('',*,*,#525,.T.);
#740=ORIENTED_EDGE('',*,*,#523,.T.);
#741=ORIENTED_EDGE('',*,*,#526,.T.);
#742=ORIENTED_EDGE('',*,*,#520,.T.);
#743=ORIENTED_EDGE('',*,*,#441,.F.);
#744=ORIENTED_EDGE('',*,*,#431,.F.);
#745=ORIENTED_EDGE('',*,*,#421,.F.);
#746=ORIENTED_EDGE('',*,*,#411,.F.);
#747=ORIENTED_EDGE('',*,*,#416,.F.);
#748=ORIENTED_EDGE('',*,*,#426,.F.);
#749=ORIENTED_EDGE('',*,*,#436,.F.);
#750=ORIENTED_EDGE('',*,*,#446,.F.);
#751=ORIENTED_EDGE('',*,*,#514,.T.);
#752=ORIENTED_EDGE('',*,*,#524,.F.);
#753=ORIENTED_EDGE('',*,*,#525,.F.);
#754=ORIENTED_EDGE('',*,*,#519,.T.);
#755=ORIENTED_EDGE('',*,*,#518,.F.);
#756=ORIENTED_EDGE('',*,*,#521,.F.);
#757=ORIENTED_EDGE('',*,*,#526,.F.);
#758=ORIENTED_EDGE('',*,*,#522,.T.);
#759=CYLINDRICAL_SURFACE('',#829,2.10000000193853);
#760=CYLINDRICAL_SURFACE('',#834,2.1000000019372);
#761=CYLINDRICAL_SURFACE('',#839,2.10000000193764);
#762=CYLINDRICAL_SURFACE('',#844,2.10000000193809);
#763=CYLINDRICAL_SURFACE('',#849,2.10000000193764);
#764=CYLINDRICAL_SURFACE('',#854,2.10000000193809);
#765=CYLINDRICAL_SURFACE('',#859,2.1000000019372);
#766=CYLINDRICAL_SURFACE('',#864,2.10000000193853);
#767=CYLINDRICAL_SURFACE('',#869,2.1);
#768=CYLINDRICAL_SURFACE('',#871,2.1);
#769=CYLINDRICAL_SURFACE('',#873,2.1);
#770=CYLINDRICAL_SURFACE('',#875,2.1);
#771=CYLINDRICAL_SURFACE('',#877,2.1);
#772=CYLINDRICAL_SURFACE('',#879,2.1);
#773=CYLINDRICAL_SURFACE('',#881,2.1);
#774=CYLINDRICAL_SURFACE('',#883,2.1);
#775=CYLINDRICAL_SURFACE('',#885,3.00000000000011);
#776=CYLINDRICAL_SURFACE('',#898,3.00000000000011);
#777=ADVANCED_FACE('',(#51),#759,.F.);
#778=ADVANCED_FACE('',(#52),#760,.F.);
#779=ADVANCED_FACE('',(#53),#761,.F.);
#780=ADVANCED_FACE('',(#54),#762,.F.);
#781=ADVANCED_FACE('',(#55),#763,.F.);
#782=ADVANCED_FACE('',(#56),#764,.F.);
#783=ADVANCED_FACE('',(#57),#765,.F.);
#784=ADVANCED_FACE('',(#58),#766,.F.);
#785=ADVANCED_FACE('',(#59),#767,.F.);
#786=ADVANCED_FACE('',(#60),#768,.F.);
#787=ADVANCED_FACE('',(#61),#769,.F.);
#788=ADVANCED_FACE('',(#62),#770,.F.);
#789=ADVANCED_FACE('',(#63),#771,.F.);
#790=ADVANCED_FACE('',(#64),#772,.F.);
#791=ADVANCED_FACE('',(#65),#773,.F.);
#792=ADVANCED_FACE('',(#66),#774,.F.);
#793=ADVANCED_FACE('',(#67),#775,.F.);
#794=ADVANCED_FACE('',(#68),#31,.F.);
#795=ADVANCED_FACE('',(#69,#15,#16,#17,#18),#32,.F.);
#796=ADVANCED_FACE('',(#70),#33,.F.);
#797=ADVANCED_FACE('',(#71),#34,.F.);
#798=ADVANCED_FACE('',(#72),#35,.F.);
#799=ADVANCED_FACE('',(#73),#36,.F.);
#800=ADVANCED_FACE('',(#74),#37,.F.);
#801=ADVANCED_FACE('',(#75),#38,.F.);
#802=ADVANCED_FACE('',(#76),#39,.F.);
#803=ADVANCED_FACE('',(#77),#40,.F.);
#804=ADVANCED_FACE('',(#78),#776,.F.);
#805=ADVANCED_FACE('',(#79),#41,.F.);
#806=ADVANCED_FACE('',(#80,#19,#20,#21,#22),#42,.F.);
#807=ADVANCED_FACE('',(#81),#43,.F.);
#808=ADVANCED_FACE('',(#82),#44,.F.);
#809=ADVANCED_FACE('',(#83),#45,.F.);
#810=ADVANCED_FACE('',(#84),#46,.F.);
#811=ADVANCED_FACE('',(#85),#47,.T.);
#812=ADVANCED_FACE('',(#86,#23,#24,#25,#26,#27,#28,#29,#30),#48,.T.);
#813=ADVANCED_FACE('',(#87),#49,.F.);
#814=ADVANCED_FACE('',(#88),#50,.F.);
#815=CLOSED_SHELL('',(#777,#778,#779,#780,#781,#782,#783,#784,#785,#786,
#787,#788,#789,#790,#791,#792,#793,#794,#795,#796,#797,#798,#799,#800,#801,
#802,#803,#804,#805,#806,#807,#808,#809,#810,#811,#812,#813,#814));
#816=DERIVED_UNIT_ELEMENT(#818,1.);
#817=DERIVED_UNIT_ELEMENT(#1389,-3.);
#818=(
MASS_UNIT()
NAMED_UNIT(*)
SI_UNIT(.KILO.,.GRAM.)
);
#819=DERIVED_UNIT((#816,#817));
#820=MEASURE_REPRESENTATION_ITEM('density measure',
POSITIVE_RATIO_MEASURE(7850.),#819);
#821=PROPERTY_DEFINITION_REPRESENTATION(#826,#823);
#822=PROPERTY_DEFINITION_REPRESENTATION(#827,#824);
#823=REPRESENTATION('material name',(#825),#1386);
#824=REPRESENTATION('density',(#820),#1386);
#825=DESCRIPTIVE_REPRESENTATION_ITEM('Steel','Steel');
#826=PROPERTY_DEFINITION('material property','material name',#1396);
#827=PROPERTY_DEFINITION('material property','density of part',#1396);
#828=AXIS2_PLACEMENT_3D('',#1149,#911,#912);
#829=AXIS2_PLACEMENT_3D('',#1150,#913,#914);
#830=AXIS2_PLACEMENT_3D('',#1152,#915,#916);
#831=AXIS2_PLACEMENT_3D('',#1156,#918,#919);
#832=AXIS2_PLACEMENT_3D('',#1158,#920,#921);
#833=AXIS2_PLACEMENT_3D('',#1159,#922,#923);
#834=AXIS2_PLACEMENT_3D('',#1160,#924,#925);
#835=AXIS2_PLACEMENT_3D('',#1162,#926,#927);
#836=AXIS2_PLACEMENT_3D('',#1166,#929,#930);
#837=AXIS2_PLACEMENT_3D('',#1168,#931,#932);
#838=AXIS2_PLACEMENT_3D('',#1169,#933,#934);
#839=AXIS2_PLACEMENT_3D('',#1170,#935,#936);
#840=AXIS2_PLACEMENT_3D('',#1172,#937,#938);
#841=AXIS2_PLACEMENT_3D('',#1176,#940,#941);
#842=AXIS2_PLACEMENT_3D('',#1178,#942,#943);
#843=AXIS2_PLACEMENT_3D('',#1179,#944,#945);
#844=AXIS2_PLACEMENT_3D('',#1180,#946,#947);
#845=AXIS2_PLACEMENT_3D('',#1182,#948,#949);
#846=AXIS2_PLACEMENT_3D('',#1186,#951,#952);
#847=AXIS2_PLACEMENT_3D('',#1188,#953,#954);
#848=AXIS2_PLACEMENT_3D('',#1189,#955,#956);
#849=AXIS2_PLACEMENT_3D('',#1190,#957,#958);
#850=AXIS2_PLACEMENT_3D('',#1192,#959,#960);
#851=AXIS2_PLACEMENT_3D('',#1196,#962,#963);
#852=AXIS2_PLACEMENT_3D('',#1198,#964,#965);
#853=AXIS2_PLACEMENT_3D('',#1199,#966,#967);
#854=AXIS2_PLACEMENT_3D('',#1200,#968,#969);
#855=AXIS2_PLACEMENT_3D('',#1202,#970,#971);
#856=AXIS2_PLACEMENT_3D('',#1206,#973,#974);
#857=AXIS2_PLACEMENT_3D('',#1208,#975,#976);
#858=AXIS2_PLACEMENT_3D('',#1209,#977,#978);
#859=AXIS2_PLACEMENT_3D('',#1210,#979,#980);
#860=AXIS2_PLACEMENT_3D('',#1212,#981,#982);
#861=AXIS2_PLACEMENT_3D('',#1216,#984,#985);
#862=AXIS2_PLACEMENT_3D('',#1218,#986,#987);
#863=AXIS2_PLACEMENT_3D('',#1219,#988,#989);
#864=AXIS2_PLACEMENT_3D('',#1220,#990,#991);
#865=AXIS2_PLACEMENT_3D('',#1222,#992,#993);
#866=AXIS2_PLACEMENT_3D('',#1226,#995,#996);
#867=AXIS2_PLACEMENT_3D('',#1228,#997,#998);
#868=AXIS2_PLACEMENT_3D('',#1229,#999,#1000);
#869=AXIS2_PLACEMENT_3D('',#1230,#1001,#1002);
#870=AXIS2_PLACEMENT_3D('',#1232,#1003,#1004);
#871=AXIS2_PLACEMENT_3D('',#1234,#1006,#1007);
#872=AXIS2_PLACEMENT_3D('',#1236,#1008,#1009);
#873=AXIS2_PLACEMENT_3D('',#1238,#1011,#1012);
#874=AXIS2_PLACEMENT_3D('',#1240,#1013,#1014);
#875=AXIS2_PLACEMENT_3D('',#1242,#1016,#1017);
#876=AXIS2_PLACEMENT_3D('',#1244,#1018,#1019);
#877=AXIS2_PLACEMENT_3D('',#1246,#1021,#1022);
#878=AXIS2_PLACEMENT_3D('',#1248,#1023,#1024);
#879=AXIS2_PLACEMENT_3D('',#1250,#1026,#1027);
#880=AXIS2_PLACEMENT_3D('',#1252,#1028,#1029);
#881=AXIS2_PLACEMENT_3D('',#1254,#1031,#1032);
#882=AXIS2_PLACEMENT_3D('',#1256,#1033,#1034);
#883=AXIS2_PLACEMENT_3D('',#1258,#1036,#1037);
#884=AXIS2_PLACEMENT_3D('',#1260,#1038,#1039);
#885=AXIS2_PLACEMENT_3D('',#1262,#1041,#1042);
#886=AXIS2_PLACEMENT_3D('',#1265,#1043,#1044);
#887=AXIS2_PLACEMENT_3D('',#1269,#1046,#1047);
#888=AXIS2_PLACEMENT_3D('',#1271,#1049,#1050);
#889=AXIS2_PLACEMENT_3D('',#1280,#1055,#1056);
#890=AXIS2_PLACEMENT_3D('',#1286,#1060,#1061);
#891=AXIS2_PLACEMENT_3D('',#1289,#1064,#1065);
#892=AXIS2_PLACEMENT_3D('',#1295,#1069,#1070);
#893=AXIS2_PLACEMENT_3D('',#1301,#1074,#1075);
#894=AXIS2_PLACEMENT_3D('',#1307,#1079,#1080);
#895=AXIS2_PLACEMENT_3D('',#1313,#1084,#1085);
#896=AXIS2_PLACEMENT_3D('',#1319,#1089,#1090);
#897=AXIS2_PLACEMENT_3D('',#1325,#1094,#1095);
#898=AXIS2_PLACEMENT_3D('',#1331,#1099,#1100);
#899=AXIS2_PLACEMENT_3D('',#1333,#1101,#1102);
#900=AXIS2_PLACEMENT_3D('',#1336,#1104,#1105);
#901=AXIS2_PLACEMENT_3D('',#1337,#1106,#1107);
#902=AXIS2_PLACEMENT_3D('',#1343,#1111,#1112);
#903=AXIS2_PLACEMENT_3D('',#1349,#1116,#1117);
#904=AXIS2_PLACEMENT_3D('',#1355,#1121,#1122);
#905=AXIS2_PLACEMENT_3D('',#1361,#1126,#1127);
#906=AXIS2_PLACEMENT_3D('',#1367,#1131,#1132);
#907=AXIS2_PLACEMENT_3D('',#1373,#1136,#1137);
#908=AXIS2_PLACEMENT_3D('',#1379,#1141,#1142);
#909=AXIS2_PLACEMENT_3D('',#1382,#1145,#1146);
#910=AXIS2_PLACEMENT_3D('',#1383,#1147,#1148);
#911=DIRECTION('axis',(0.,0.,1.));
#912=DIRECTION('refdir',(1.,0.,0.));
#913=DIRECTION('center_axis',(4.29628609386183E-5,-0.999999999077096,0.));
#914=DIRECTION('ref_axis',(0.999999999077096,4.29628609386183E-5,0.));
#915=DIRECTION('center_axis',(-4.29628609386183E-5,0.999999999077096,0.));
#916=DIRECTION('ref_axis',(-0.999999999077096,-4.29628609386183E-5,0.));
#917=DIRECTION('',(4.29628609386183E-5,-0.999999999077096,0.));
#918=DIRECTION('center_axis',(4.29628609386183E-5,-0.999999999077096,0.));
#919=DIRECTION('ref_axis',(0.999999999077096,4.29628609386183E-5,0.));
#920=DIRECTION('center_axis',(4.29628609386183E-5,-0.999999999077096,0.));
#921=DIRECTION('ref_axis',(0.999999999077096,4.29628609386183E-5,0.));
#922=DIRECTION('center_axis',(4.29628609386183E-5,-0.999999999077096,0.));
#923=DIRECTION('ref_axis',(0.999999999077096,4.29628609386183E-5,0.));
#924=DIRECTION('center_axis',(4.29628609386183E-5,-0.999999999077096,0.));
#925=DIRECTION('ref_axis',(0.999999999077096,4.29628609386183E-5,0.));
#926=DIRECTION('center_axis',(-4.29628609386183E-5,0.999999999077096,0.));
#927=DIRECTION('ref_axis',(-0.999999999077096,-4.29628609386183E-5,0.));
#928=DIRECTION('',(4.29628609386183E-5,-0.999999999077096,0.));
#929=DIRECTION('center_axis',(4.29628609386183E-5,-0.999999999077096,0.));
#930=DIRECTION('ref_axis',(0.999999999077096,4.29628609386183E-5,0.));
#931=DIRECTION('center_axis',(4.29628609386183E-5,-0.999999999077096,0.));
#932=DIRECTION('ref_axis',(0.999999999077096,4.29628609386183E-5,0.));
#933=DIRECTION('center_axis',(4.29628609386183E-5,-0.999999999077096,0.));
#934=DIRECTION('ref_axis',(0.999999999077096,4.29628609386183E-5,0.));
#935=DIRECTION('center_axis',(4.29628609386183E-5,-0.999999999077096,0.));
#936=DIRECTION('ref_axis',(0.999999999077096,4.29628609386183E-5,0.));
#937=DIRECTION('center_axis',(-4.29628609386183E-5,0.999999999077096,0.));
#938=DIRECTION('ref_axis',(-0.999999999077096,-4.29628609386183E-5,0.));
#939=DIRECTION('',(4.29628609386183E-5,-0.999999999077096,0.));
#940=DIRECTION('center_axis',(4.29628609386183E-5,-0.999999999077096,0.));
#941=DIRECTION('ref_axis',(0.999999999077096,4.29628609386183E-5,0.));
#942=DIRECTION('center_axis',(4.29628609386183E-5,-0.999999999077096,0.));
#943=DIRECTION('ref_axis',(0.999999999077096,4.29628609386183E-5,0.));
#944=DIRECTION('center_axis',(4.29628609386183E-5,-0.999999999077096,0.));
#945=DIRECTION('ref_axis',(0.999999999077096,4.29628609386183E-5,0.));
#946=DIRECTION('center_axis',(4.29628609386183E-5,-0.999999999077096,0.));
#947=DIRECTION('ref_axis',(0.999999999077096,4.29628609386183E-5,0.));
#948=DIRECTION('center_axis',(-4.29628609386183E-5,0.999999999077096,0.));
#949=DIRECTION('ref_axis',(-0.999999999077096,-4.29628609386183E-5,0.));
#950=DIRECTION('',(4.29628609386183E-5,-0.999999999077096,0.));
#951=DIRECTION('center_axis',(4.29628609386183E-5,-0.999999999077096,0.));
#952=DIRECTION('ref_axis',(0.999999999077096,4.29628609386183E-5,0.));
#953=DIRECTION('center_axis',(4.29628609386183E-5,-0.999999999077096,0.));
#954=DIRECTION('ref_axis',(0.999999999077096,4.29628609386183E-5,0.));
#955=DIRECTION('center_axis',(4.29628609386183E-5,-0.999999999077096,0.));
#956=DIRECTION('ref_axis',(0.999999999077096,4.29628609386183E-5,0.));
#957=DIRECTION('center_axis',(4.29628609386183E-5,-0.999999999077096,0.));
#958=DIRECTION('ref_axis',(0.999999999077096,4.29628609386183E-5,0.));
#959=DIRECTION('center_axis',(-4.29628609386183E-5,0.999999999077096,0.));
#960=DIRECTION('ref_axis',(-0.999999999077096,-4.29628609386183E-5,0.));
#961=DIRECTION('',(4.29628609386183E-5,-0.999999999077096,0.));
#962=DIRECTION('center_axis',(4.29628609386183E-5,-0.999999999077096,0.));
#963=DIRECTION('ref_axis',(0.999999999077096,4.29628609386183E-5,0.));
#964=DIRECTION('center_axis',(4.29628609386183E-5,-0.999999999077096,0.));
#965=DIRECTION('ref_axis',(0.999999999077096,4.29628609386183E-5,0.));
#966=DIRECTION('center_axis',(4.29628609386183E-5,-0.999999999077096,0.));
#967=DIRECTION('ref_axis',(0.999999999077096,4.29628609386183E-5,0.));
#968=DIRECTION('center_axis',(4.29628609386183E-5,-0.999999999077096,0.));
#969=DIRECTION('ref_axis',(0.999999999077096,4.29628609386183E-5,0.));
#970=DIRECTION('center_axis',(-4.29628609386183E-5,0.999999999077096,0.));
#971=DIRECTION('ref_axis',(-0.999999999077096,-4.29628609386183E-5,0.));
#972=DIRECTION('',(4.29628609386183E-5,-0.999999999077096,0.));
#973=DIRECTION('center_axis',(4.29628609386183E-5,-0.999999999077096,0.));
#974=DIRECTION('ref_axis',(0.999999999077096,4.29628609386183E-5,0.));
#975=DIRECTION('center_axis',(4.29628609386183E-5,-0.999999999077096,0.));
#976=DIRECTION('ref_axis',(0.999999999077096,4.29628609386183E-5,0.));
#977=DIRECTION('center_axis',(4.29628609386183E-5,-0.999999999077096,0.));
#978=DIRECTION('ref_axis',(0.999999999077096,4.29628609386183E-5,0.));
#979=DIRECTION('center_axis',(4.29628609386183E-5,-0.999999999077096,0.));
#980=DIRECTION('ref_axis',(0.999999999077096,4.29628609386183E-5,0.));
#981=DIRECTION('center_axis',(-4.29628609386183E-5,0.999999999077096,0.));
#982=DIRECTION('ref_axis',(-0.999999999077096,-4.29628609386183E-5,0.));
#983=DIRECTION('',(4.29628609386183E-5,-0.999999999077096,0.));
#984=DIRECTION('center_axis',(4.29628609386183E-5,-0.999999999077096,0.));
#985=DIRECTION('ref_axis',(0.999999999077096,4.29628609386183E-5,0.));
#986=DIRECTION('center_axis',(4.29628609386183E-5,-0.999999999077096,0.));
#987=DIRECTION('ref_axis',(0.999999999077096,4.29628609386183E-5,0.));
#988=DIRECTION('center_axis',(4.29628609386183E-5,-0.999999999077096,0.));
#989=DIRECTION('ref_axis',(0.999999999077096,4.29628609386183E-5,0.));
#990=DIRECTION('center_axis',(4.29628609386183E-5,-0.999999999077096,0.));
#991=DIRECTION('ref_axis',(0.999999999077096,4.29628609386183E-5,0.));
#992=DIRECTION('center_axis',(-4.29628609386183E-5,0.999999999077096,0.));
#993=DIRECTION('ref_axis',(-0.999999999077096,-4.29628609386183E-5,0.));
#994=DIRECTION('',(4.29628609386183E-5,-0.999999999077096,0.));
#995=DIRECTION('center_axis',(4.29628609386183E-5,-0.999999999077096,0.));
#996=DIRECTION('ref_axis',(0.999999999077096,4.29628609386183E-5,0.));
#997=DIRECTION('center_axis',(4.29628609386183E-5,-0.999999999077096,0.));
#998=DIRECTION('ref_axis',(0.999999999077096,4.29628609386183E-5,0.));
#999=DIRECTION('center_axis',(4.29628609386183E-5,-0.999999999077096,0.));
#1000=DIRECTION('ref_axis',(0.999999999077096,4.29628609386183E-5,0.));
#1001=DIRECTION('center_axis',(0.,1.,0.));
#1002=DIRECTION('ref_axis',(0.,0.,1.));
#1003=DIRECTION('center_axis',(0.,1.,0.));
#1004=DIRECTION('ref_axis',(0.,0.,1.));
#1005=DIRECTION('',(0.,1.,0.));
#1006=DIRECTION('center_axis',(0.,1.,0.));
#1007=DIRECTION('ref_axis',(0.,0.,1.));
#1008=DIRECTION('center_axis',(0.,1.,0.));
#1009=DIRECTION('ref_axis',(0.,0.,1.));
#1010=DIRECTION('',(0.,1.,0.));
#1011=DIRECTION('center_axis',(0.,1.,0.));
#1012=DIRECTION('ref_axis',(0.,0.,1.));
#1013=DIRECTION('center_axis',(0.,1.,0.));
#1014=DIRECTION('ref_axis',(0.,0.,1.));
#1015=DIRECTION('',(0.,1.,0.));
#1016=DIRECTION('center_axis',(0.,1.,0.));
#1017=DIRECTION('ref_axis',(0.,0.,1.));
#1018=DIRECTION('center_axis',(0.,1.,0.));
#1019=DIRECTION('ref_axis',(0.,0.,1.));
#1020=DIRECTION('',(0.,1.,0.));
#1021=DIRECTION('center_axis',(0.,1.,0.));
#1022=DIRECTION('ref_axis',(0.,0.,1.));
#1023=DIRECTION('center_axis',(0.,1.,0.));
#1024=DIRECTION('ref_axis',(0.,0.,1.));
#1025=DIRECTION('',(0.,1.,0.));
#1026=DIRECTION('center_axis',(0.,1.,0.));
#1027=DIRECTION('ref_axis',(0.,0.,1.));
#1028=DIRECTION('center_axis',(0.,1.,0.));
#1029=DIRECTION('ref_axis',(0.,0.,1.));
#1030=DIRECTION('',(0.,1.,0.));
#1031=DIRECTION('center_axis',(0.,1.,0.));
#1032=DIRECTION('ref_axis',(0.,0.,1.));
#1033=DIRECTION('center_axis',(0.,1.,0.));
#1034=DIRECTION('ref_axis',(0.,0.,1.));
#1035=DIRECTION('',(0.,1.,0.));
#1036=DIRECTION('center_axis',(0.,1.,0.));
#1037=DIRECTION('ref_axis',(0.,0.,1.));
#1038=DIRECTION('center_axis',(0.,1.,0.));
#1039=DIRECTION('ref_axis',(0.,0.,1.));
#1040=DIRECTION('',(0.,1.,0.));
#1041=DIRECTION('center_axis',(0.,0.,-1.));
#1042=DIRECTION('ref_axis',(-1.,0.,0.));
#1043=DIRECTION('center_axis',(0.,0.,-1.));
#1044=DIRECTION('ref_axis',(1.,0.,0.));
#1045=DIRECTION('',(0.,0.,-1.));
#1046=DIRECTION('center_axis',(0.,0.,-1.));
#1047=DIRECTION('ref_axis',(1.,0.,0.));
#1048=DIRECTION('',(0.,0.,-1.));
#1049=DIRECTION('center_axis',(1.,0.,0.));
#1050=DIRECTION('ref_axis',(0.,1.,0.));
#1051=DIRECTION('',(0.,-1.,0.));
#1052=DIRECTION('',(0.,0.,-1.));
#1053=DIRECTION('',(0.,-1.,0.));
#1054=DIRECTION('',(0.,0.,-1.));
#1055=DIRECTION('center_axis',(0.,1.,0.));
#1056=DIRECTION('ref_axis',(1.,0.,0.));
#1057=DIRECTION('',(1.,0.,0.));
#1058=DIRECTION('',(0.,0.,-1.));
#1059=DIRECTION('',(1.,0.,0.));
#1060=DIRECTION('center_axis',(-1.,0.,0.));
#1061=DIRECTION('ref_axis',(0.,0.,1.));
#1062=DIRECTION('',(0.,1.,0.));
#1063=DIRECTION('',(0.,1.,0.));
#1064=DIRECTION('center_axis',(-1.,0.,0.));
#1065=DIRECTION('ref_axis',(0.,0.,1.));
#1066=DIRECTION('',(0.,1.,0.));
#1067=DIRECTION('',(0.,0.,-1.));
#1068=DIRECTION('',(0.,1.,0.));
#1069=DIRECTION('center_axis',(0.,1.,0.));
#1070=DIRECTION('ref_axis',(1.,0.,0.));
#1071=DIRECTION('',(1.,0.,0.));
#1072=DIRECTION('',(0.,0.,-1.));
#1073=DIRECTION('',(1.,0.,0.));
#1074=DIRECTION('center_axis',(-0.707106781186587,0.707106781186508,0.));
#1075=DIRECTION('ref_axis',(0.,0.,1.));
#1076=DIRECTION('',(0.707106781186508,0.707106781186587,0.));
#1077=DIRECTION('',(0.,0.,-1.));
#1078=DIRECTION('',(0.707106781186508,0.707106781186587,0.));
#1079=DIRECTION('center_axis',(0.,1.,0.));
#1080=DIRECTION('ref_axis',(1.,0.,0.));
#1081=DIRECTION('',(1.,0.,0.));
#1082=DIRECTION('',(0.,0.,-1.));
#1083=DIRECTION('',(1.,0.,0.));
#1084=DIRECTION('center_axis',(0.707106781186508,0.707106781186587,0.));
#1085=DIRECTION('ref_axis',(0.,0.,-1.));
#1086=DIRECTION('',(0.707106781186587,-0.707106781186508,0.));
#1087=DIRECTION('',(0.,0.,-1.));
#1088=DIRECTION('',(0.707106781186587,-0.707106781186508,0.));
#1089=DIRECTION('center_axis',(0.,1.,0.));
#1090=DIRECTION('ref_axis',(1.,0.,0.));
#1091=DIRECTION('',(1.,0.,0.));
#1092=DIRECTION('',(0.,0.,-1.));
#1093=DIRECTION('',(1.,0.,0.));
#1094=DIRECTION('center_axis',(1.,0.,0.));
#1095=DIRECTION('ref_axis',(0.,1.,0.));
#1096=DIRECTION('',(0.,-1.,0.));
#1097=DIRECTION('',(0.,0.,-1.));
#1098=DIRECTION('',(0.,-1.,0.));
#1099=DIRECTION('center_axis',(0.,0.,-1.));
#1100=DIRECTION('ref_axis',(1.,1.22464679914735E-16,0.));
#1101=DIRECTION('center_axis',(0.,0.,-1.));
#1102=DIRECTION('ref_axis',(1.,0.,0.));
#1103=DIRECTION('',(0.,0.,-1.));
#1104=DIRECTION('center_axis',(0.,0.,-1.));
#1105=DIRECTION('ref_axis',(1.,0.,0.));
#1106=DIRECTION('center_axis',(1.,0.,0.));
#1107=DIRECTION('ref_axis',(0.,1.,0.));
#1108=DIRECTION('',(0.,-1.,0.));
#1109=DIRECTION('',(0.,0.,-1.));
#1110=DIRECTION('',(0.,-1.,0.));
#1111=DIRECTION('center_axis',(0.,1.,0.));
#1112=DIRECTION('ref_axis',(1.,0.,0.));
#1113=DIRECTION('',(1.,0.,0.));
#1114=DIRECTION('',(0.,0.,-1.));
#1115=DIRECTION('',(1.,0.,0.));
#1116=DIRECTION('center_axis',(-1.,0.,0.));
#1117=DIRECTION('ref_axis',(0.,0.,1.));
#1118=DIRECTION('',(0.,1.,0.));
#1119=DIRECTION('',(0.,0.,-1.));
#1120=DIRECTION('',(0.,1.,0.));
#1121=DIRECTION('center_axis',(-0.707835509641283,-0.706377300945369,0.));
#1122=DIRECTION('ref_axis',(-0.706377300945369,0.707835509641283,0.));
#1123=DIRECTION('',(-0.706377300945369,0.707835509641283,0.));
#1124=DIRECTION('',(0.,0.,-1.));
#1125=DIRECTION('',(-0.706377300945369,0.707835509641283,0.));
#1126=DIRECTION('center_axis',(0.707106781186548,-0.707106781186548,0.));
#1127=DIRECTION('ref_axis',(0.,0.,-1.));
#1128=DIRECTION('',(-0.707106781186548,-0.707106781186548,0.));
#1129=DIRECTION('',(-0.707106781186548,-0.707106781186548,0.));
#1130=DIRECTION('',(0.,0.,-1.));
#1131=DIRECTION('center_axis',(0.,0.,-1.));
#1132=DIRECTION('ref_axis',(0.,-1.,0.));
#1133=DIRECTION('',(4.29628609386183E-5,-0.999999999077096,0.));
#1134=DIRECTION('',(0.999999999077096,4.29628609386175E-5,0.));
#1135=DIRECTION('',(4.29628609386183E-5,-0.999999999077096,0.));
#1136=DIRECTION('center_axis',(0.,0.,-1.));
#1137=DIRECTION('ref_axis',(0.,-1.,0.));
#1138=DIRECTION('',(4.29628609386183E-5,-0.999999999077096,0.));
#1139=DIRECTION('',(-0.999999999077096,-4.29628609386175E-5,0.));
#1140=DIRECTION('',(4.29628609386183E-5,-0.999999999077096,0.));
#1141=DIRECTION('center_axis',(-4.29628609386175E-5,0.999999999077096,0.));
#1142=DIRECTION('ref_axis',(-0.999999999077096,-4.29628609386175E-5,0.));
#1143=DIRECTION('',(0.,0.,-1.));
#1144=DIRECTION('',(0.,0.,1.));
#1145=DIRECTION('center_axis',(-0.999999999077096,-4.29628609386183E-5,
0.));
#1146=DIRECTION('ref_axis',(4.29628609386183E-5,-0.999999999077096,0.));
#1147=DIRECTION('center_axis',(0.999999999077096,4.29628609386183E-5,0.));
#1148=DIRECTION('ref_axis',(-4.29628609386183E-5,0.999999999077096,0.));
#1149=CARTESIAN_POINT('',(0.,0.,0.));
#1150=CARTESIAN_POINT('Origin',(2295.00674176661,1330.88750579983,13.5));
#1151=CARTESIAN_POINT('',(2292.90674176661,1330.88741557782,13.5));
#1152=CARTESIAN_POINT('Origin',(2295.00674176661,1330.88750579983,13.5));
#1153=CARTESIAN_POINT('',(2292.90675465547,1330.5874155781,13.5));
#1154=CARTESIAN_POINT('',(2292.90674176661,1330.88741557782,13.5));
#1155=CARTESIAN_POINT('',(2295.00675465547,1330.58750580011,11.3999999980619));
#1156=CARTESIAN_POINT('Origin',(2295.00675465547,1330.58750580011,13.5));
#1157=CARTESIAN_POINT('',(2295.00675465547,1330.58750580011,15.6000000019381));
#1158=CARTESIAN_POINT('Origin',(2295.00675465547,1330.58750580011,13.5));
#1159=CARTESIAN_POINT('Origin',(2295.00675465547,1330.58750580011,13.5));
#1160=CARTESIAN_POINT('Origin',(2355.00674176661,1330.89008357149,13.5));
#1161=CARTESIAN_POINT('',(2352.90674176661,1330.88999334948,13.5));
#1162=CARTESIAN_POINT('Origin',(2355.00674176661,1330.89008357149,13.5));
#1163=CARTESIAN_POINT('',(2352.90675465547,1330.58999334976,13.5));
#1164=CARTESIAN_POINT('',(2352.90674176661,1330.88999334948,13.5));
#1165=CARTESIAN_POINT('',(2355.00675465547,1330.59008357177,11.3999999980619));
#1166=CARTESIAN_POINT('Origin',(2355.00675465547,1330.59008357177,13.5));
#1167=CARTESIAN_POINT('',(2355.00675465547,1330.59008357177,15.6000000019381));
#1168=CARTESIAN_POINT('Origin',(2355.00675465547,1330.59008357177,13.5));
#1169=CARTESIAN_POINT('Origin',(2355.00675465547,1330.59008357177,13.5));
#1170=CARTESIAN_POINT('Origin',(2299.00674176661,1330.88767765128,37.5));
#1171=CARTESIAN_POINT('',(2296.90674176661,1330.88758742927,37.5));
#1172=CARTESIAN_POINT('Origin',(2299.00674176661,1330.88767765128,37.5));
#1173=CARTESIAN_POINT('',(2296.90675465547,1330.58758742954,37.5));
#1174=CARTESIAN_POINT('',(2296.90674176661,1330.88758742927,37.5));
#1175=CARTESIAN_POINT('',(2299.00675465547,1330.58767765155,35.3999999980619));
#1176=CARTESIAN_POINT('Origin',(2299.00675465547,1330.58767765155,37.5));
#1177=CARTESIAN_POINT('',(2299.00675465547,1330.58767765155,39.6000000019381));
#1178=CARTESIAN_POINT('Origin',(2299.00675465547,1330.58767765155,37.5));
#1179=CARTESIAN_POINT('Origin',(2299.00675465547,1330.58767765155,37.5));
#1180=CARTESIAN_POINT('Origin',(2351.00674176661,1330.88991172005,37.5));
#1181=CARTESIAN_POINT('',(2348.90674176661,1330.88982149804,37.5));
#1182=CARTESIAN_POINT('Origin',(2351.00674176661,1330.88991172005,37.5));
#1183=CARTESIAN_POINT('',(2348.90675465547,1330.58982149831,37.5));
#1184=CARTESIAN_POINT('',(2348.90674176661,1330.88982149804,37.5));
#1185=CARTESIAN_POINT('',(2351.00675465547,1330.58991172032,35.3999999980619));
#1186=CARTESIAN_POINT('Origin',(2351.00675465547,1330.58991172032,37.5));
#1187=CARTESIAN_POINT('',(2351.00675465547,1330.58991172032,39.6000000019381));
#1188=CARTESIAN_POINT('Origin',(2351.00675465547,1330.58991172032,37.5));
#1189=CARTESIAN_POINT('Origin',(2351.00675465547,1330.58991172032,37.5));
#1190=CARTESIAN_POINT('Origin',(2299.00674176661,1330.88767765128,57.5));
#1191=CARTESIAN_POINT('',(2296.90674176661,1330.88758742927,57.5));
#1192=CARTESIAN_POINT('Origin',(2299.00674176661,1330.88767765128,57.5));
#1193=CARTESIAN_POINT('',(2296.90675465547,1330.58758742954,57.5));
#1194=CARTESIAN_POINT('',(2296.90674176661,1330.88758742927,57.5));
#1195=CARTESIAN_POINT('',(2299.00675465547,1330.58767765155,55.3999999980619));
#1196=CARTESIAN_POINT('Origin',(2299.00675465547,1330.58767765155,57.5));
#1197=CARTESIAN_POINT('',(2299.00675465547,1330.58767765155,59.6000000019381));
#1198=CARTESIAN_POINT('Origin',(2299.00675465547,1330.58767765155,57.5));
#1199=CARTESIAN_POINT('Origin',(2299.00675465547,1330.58767765155,57.5));
#1200=CARTESIAN_POINT('Origin',(2351.00674176661,1330.88991172005,57.5));
#1201=CARTESIAN_POINT('',(2348.90674176661,1330.88982149804,57.5));
#1202=CARTESIAN_POINT('Origin',(2351.00674176661,1330.88991172005,57.5));
#1203=CARTESIAN_POINT('',(2348.90675465547,1330.58982149831,57.5));
#1204=CARTESIAN_POINT('',(2348.90674176661,1330.88982149804,57.5));
#1205=CARTESIAN_POINT('',(2351.00675465547,1330.58991172032,55.3999999980619));
#1206=CARTESIAN_POINT('Origin',(2351.00675465547,1330.58991172032,57.5));
#1207=CARTESIAN_POINT('',(2351.00675465547,1330.58991172032,59.6000000019381));
#1208=CARTESIAN_POINT('Origin',(2351.00675465547,1330.58991172032,57.5));
#1209=CARTESIAN_POINT('Origin',(2351.00675465547,1330.58991172032,57.5));
#1210=CARTESIAN_POINT('Origin',(2355.00674176661,1330.89008357149,81.5));
#1211=CARTESIAN_POINT('',(2352.90674176661,1330.88999334948,81.5));
#1212=CARTESIAN_POINT('Origin',(2355.00674176661,1330.89008357149,81.5));
#1213=CARTESIAN_POINT('',(2352.90675465547,1330.58999334976,81.5));
#1214=CARTESIAN_POINT('',(2352.90674176661,1330.88999334948,81.5));
#1215=CARTESIAN_POINT('',(2355.00675465547,1330.59008357177,79.3999999980619));
#1216=CARTESIAN_POINT('Origin',(2355.00675465547,1330.59008357177,81.5));
#1217=CARTESIAN_POINT('',(2355.00675465547,1330.59008357177,83.6000000019381));
#1218=CARTESIAN_POINT('Origin',(2355.00675465547,1330.59008357177,81.5));
#1219=CARTESIAN_POINT('Origin',(2355.00675465547,1330.59008357177,81.5));
#1220=CARTESIAN_POINT('Origin',(2295.00674176661,1330.88750579983,81.5));
#1221=CARTESIAN_POINT('',(2292.90674176661,1330.88741557782,81.5));
#1222=CARTESIAN_POINT('Origin',(2295.00674176661,1330.88750579983,81.5));
#1223=CARTESIAN_POINT('',(2292.90675465547,1330.5874155781,81.5));
#1224=CARTESIAN_POINT('',(2292.90674176661,1330.88741557782,81.5));
#1225=CARTESIAN_POINT('',(2295.00675465547,1330.58750580011,79.3999999980619));
#1226=CARTESIAN_POINT('Origin',(2295.00675465547,1330.58750580011,81.5));
#1227=CARTESIAN_POINT('',(2295.00675465547,1330.58750580011,83.6000000019381));
#1228=CARTESIAN_POINT('Origin',(2295.00675465547,1330.58750580011,81.5));
#1229=CARTESIAN_POINT('Origin',(2295.00675465547,1330.58750580011,81.5));
#1230=CARTESIAN_POINT('Origin',(2295.00675465547,1309.29364668606,81.5));
#1231=CARTESIAN_POINT('',(2295.00675465547,1309.29364668606,79.4));
#1232=CARTESIAN_POINT('Origin',(2295.00675465547,1309.29364668606,81.5));
#1233=CARTESIAN_POINT('',(2295.00675465547,1309.29364668606,79.4));
#1234=CARTESIAN_POINT('Origin',(2299.00675465547,1309.29364668606,57.5));
#1235=CARTESIAN_POINT('',(2299.00675465547,1309.29364668606,55.4));
#1236=CARTESIAN_POINT('Origin',(2299.00675465547,1309.29364668606,57.5));
#1237=CARTESIAN_POINT('',(2299.00675465547,1309.29364668606,55.4));
#1238=CARTESIAN_POINT('Origin',(2299.00675465547,1309.29364668606,37.5));
#1239=CARTESIAN_POINT('',(2299.00675465547,1309.29364668606,35.4));
#1240=CARTESIAN_POINT('Origin',(2299.00675465547,1309.29364668606,37.5));
#1241=CARTESIAN_POINT('',(2299.00675465547,1309.29364668606,35.4));
#1242=CARTESIAN_POINT('Origin',(2295.00675465547,1309.29364668606,13.5));
#1243=CARTESIAN_POINT('',(2295.00675465547,1309.29364668606,11.4));
#1244=CARTESIAN_POINT('Origin',(2295.00675465547,1309.29364668606,13.5));
#1245=CARTESIAN_POINT('',(2295.00675465547,1309.29364668606,11.4));
#1246=CARTESIAN_POINT('Origin',(2355.00675465547,1309.29364668606,13.5));
#1247=CARTESIAN_POINT('',(2355.00675465547,1309.29364668606,11.4));
#1248=CARTESIAN_POINT('Origin',(2355.00675465547,1309.29364668606,13.5));
#1249=CARTESIAN_POINT('',(2355.00675465547,1309.29364668606,11.4));
#1250=CARTESIAN_POINT('Origin',(2351.00675465547,1309.29364668606,37.5));
#1251=CARTESIAN_POINT('',(2351.00675465547,1309.29364668606,35.4));
#1252=CARTESIAN_POINT('Origin',(2351.00675465547,1309.29364668606,37.5));
#1253=CARTESIAN_POINT('',(2351.00675465547,1309.29364668606,35.4));
#1254=CARTESIAN_POINT('Origin',(2351.00675465547,1309.29364668606,57.5));
#1255=CARTESIAN_POINT('',(2351.00675465547,1309.29364668606,55.4));
#1256=CARTESIAN_POINT('Origin',(2351.00675465547,1309.29364668606,57.5));
#1257=CARTESIAN_POINT('',(2351.00675465547,1309.29364668606,55.4));
#1258=CARTESIAN_POINT('Origin',(2355.00675465547,1309.29364668606,81.5));
#1259=CARTESIAN_POINT('',(2355.00675465547,1309.29364668606,79.4));
#1260=CARTESIAN_POINT('Origin',(2355.00675465547,1309.29364668606,81.5));
#1261=CARTESIAN_POINT('',(2355.00675465547,1309.29364668606,79.4));
#1262=CARTESIAN_POINT('Origin',(2308.60452203384,1312.89172289741,95.));
#1263=CARTESIAN_POINT('',(2307.10452203384,1310.29364668606,95.));
#1264=CARTESIAN_POINT('',(2307.10452203384,1315.48979910876,95.));
#1265=CARTESIAN_POINT('Origin',(2308.60452203384,1312.89172289741,95.));
#1266=CARTESIAN_POINT('',(2307.10452203384,1310.29364668606,0.));
#1267=CARTESIAN_POINT('',(2307.10452203384,1310.29364668606,95.));
#1268=CARTESIAN_POINT('',(2307.10452203384,1315.48979910876,0.));
#1269=CARTESIAN_POINT('Origin',(2308.60452203384,1312.89172289741,0.));
#1270=CARTESIAN_POINT('',(2307.10452203384,1315.48979910876,95.));
#1271=CARTESIAN_POINT('Origin',(2287.50675465547,1329.08724802294,95.));
#1272=CARTESIAN_POINT('',(2287.50675465547,1329.08724802294,0.));
#1273=CARTESIAN_POINT('',(2287.50675465547,1309.29364668606,0.));
#1274=CARTESIAN_POINT('',(2287.50675465547,1329.08724802294,0.));
#1275=CARTESIAN_POINT('',(2287.50675465547,1309.29364668606,95.));
#1276=CARTESIAN_POINT('',(2287.50675465547,1309.29364668606,95.));
#1277=CARTESIAN_POINT('',(2287.50675465547,1329.08724802294,95.));
#1278=CARTESIAN_POINT('',(2287.50675465547,1329.08724802294,95.));
#1279=CARTESIAN_POINT('',(2287.50675465547,1329.08724802294,95.));
#1280=CARTESIAN_POINT('Origin',(2287.50675465547,1309.29364668606,95.));
#1281=CARTESIAN_POINT('',(2307.10452203384,1309.29364668606,0.));
#1282=CARTESIAN_POINT('',(2287.50675465547,1309.29364668606,0.));
#1283=CARTESIAN_POINT('',(2307.10452203384,1309.29364668606,95.));
#1284=CARTESIAN_POINT('',(2307.10452203384,1309.29364668606,95.));
#1285=CARTESIAN_POINT('',(2287.50675465547,1309.29364668606,95.));
#1286=CARTESIAN_POINT('Origin',(2307.10452203384,1309.29364668606,95.));
#1287=CARTESIAN_POINT('',(2307.10452203384,1309.29364668606,0.));
#1288=CARTESIAN_POINT('',(2307.10452203384,1309.29364668606,95.));
#1289=CARTESIAN_POINT('Origin',(2307.10452203384,1315.48979910876,95.));
#1290=CARTESIAN_POINT('',(2307.10452203384,1315.89172289741,0.));
#1291=CARTESIAN_POINT('',(2307.10452203384,1315.48979910876,0.));
#1292=CARTESIAN_POINT('',(2307.10452203384,1315.89172289741,95.));
#1293=CARTESIAN_POINT('',(2307.10452203384,1315.89172289741,95.));
#1294=CARTESIAN_POINT('',(2307.10452203384,1315.48979910876,95.));
#1295=CARTESIAN_POINT('Origin',(2307.10452203384,1315.89172289741,95.));
#1296=CARTESIAN_POINT('',(2309.60675465547,1315.89172289741,0.));
#1297=CARTESIAN_POINT('',(2307.10452203384,1315.89172289741,0.));
#1298=CARTESIAN_POINT('',(2309.60675465547,1315.89172289741,95.));
#1299=CARTESIAN_POINT('',(2309.60675465547,1315.89172289741,95.));
#1300=CARTESIAN_POINT('',(2307.10452203384,1315.89172289741,95.));
#1301=CARTESIAN_POINT('Origin',(2309.60675465547,1315.89172289741,95.));
#1302=CARTESIAN_POINT('',(2311.60675465547,1317.89172289741,0.));
#1303=CARTESIAN_POINT('',(2309.60675465547,1315.89172289741,0.));
#1304=CARTESIAN_POINT('',(2311.60675465547,1317.89172289741,95.));
#1305=CARTESIAN_POINT('',(2311.60675465547,1317.89172289741,95.));
#1306=CARTESIAN_POINT('',(2309.60675465547,1315.89172289741,95.));
#1307=CARTESIAN_POINT('Origin',(2311.60675465547,1317.89172289741,95.));
#1308=CARTESIAN_POINT('',(2338.40675465547,1317.89172289741,0.));
#1309=CARTESIAN_POINT('',(2311.60675465547,1317.89172289741,0.));
#1310=CARTESIAN_POINT('',(2338.40675465547,1317.89172289741,95.));
#1311=CARTESIAN_POINT('',(2338.40675465547,1317.89172289741,95.));
#1312=CARTESIAN_POINT('',(2311.60675465547,1317.89172289741,95.));
#1313=CARTESIAN_POINT('Origin',(2338.40675465547,1317.89172289741,95.));
#1314=CARTESIAN_POINT('',(2340.40675465547,1315.89172289741,0.));
#1315=CARTESIAN_POINT('',(2338.40675465547,1317.89172289741,0.));
#1316=CARTESIAN_POINT('',(2340.40675465547,1315.89172289741,95.));
#1317=CARTESIAN_POINT('',(2340.40675465547,1315.89172289741,95.));
#1318=CARTESIAN_POINT('',(2338.40675465547,1317.89172289741,95.));
#1319=CARTESIAN_POINT('Origin',(2340.40675465547,1315.89172289741,95.));
#1320=CARTESIAN_POINT('',(2342.90452203384,1315.89172289741,0.));
#1321=CARTESIAN_POINT('',(2340.40675465547,1315.89172289741,0.));
#1322=CARTESIAN_POINT('',(2342.90452203384,1315.89172289741,95.));
#1323=CARTESIAN_POINT('',(2342.90452203384,1315.89172289741,95.));
#1324=CARTESIAN_POINT('',(2340.40675465547,1315.89172289741,95.));
#1325=CARTESIAN_POINT('Origin',(2342.90452203384,1315.89172289741,95.));
#1326=CARTESIAN_POINT('',(2342.90452203384,1315.48979910876,0.));
#1327=CARTESIAN_POINT('',(2342.90452203384,1315.89172289741,0.));
#1328=CARTESIAN_POINT('',(2342.90452203384,1315.48979910876,95.));
#1329=CARTESIAN_POINT('',(2342.90452203384,1315.48979910876,95.));
#1330=CARTESIAN_POINT('',(2342.90452203384,1315.89172289741,95.));
#1331=CARTESIAN_POINT('Origin',(2341.40452203384,1312.89172289741,95.));
#1332=CARTESIAN_POINT('',(2342.90452203384,1310.29364668606,0.));
#1333=CARTESIAN_POINT('Origin',(2341.40452203384,1312.89172289741,0.));
#1334=CARTESIAN_POINT('',(2342.90452203384,1310.29364668606,95.));
#1335=CARTESIAN_POINT('',(2342.90452203384,1310.29364668606,95.));
#1336=CARTESIAN_POINT('Origin',(2341.40452203384,1312.89172289741,95.));
#1337=CARTESIAN_POINT('Origin',(2342.90452203384,1310.29364668606,95.));
#1338=CARTESIAN_POINT('',(2342.90452203384,1309.29364668606,0.));
#1339=CARTESIAN_POINT('',(2342.90452203384,1310.29364668606,0.));
#1340=CARTESIAN_POINT('',(2342.90452203384,1309.29364668606,95.));
#1341=CARTESIAN_POINT('',(2342.90452203384,1309.29364668606,95.));
#1342=CARTESIAN_POINT('',(2342.90452203384,1310.29364668606,95.));
#1343=CARTESIAN_POINT('Origin',(2342.90452203384,1309.29364668606,95.));
#1344=CARTESIAN_POINT('',(2362.50675465547,1309.29364668606,0.));
#1345=CARTESIAN_POINT('',(2342.90452203384,1309.29364668606,0.));
#1346=CARTESIAN_POINT('',(2362.50675465547,1309.29364668606,95.));
#1347=CARTESIAN_POINT('',(2362.50675465547,1309.29364668606,95.));
#1348=CARTESIAN_POINT('',(2342.90452203384,1309.29364668606,95.));
#1349=CARTESIAN_POINT('Origin',(2362.50675465547,1309.29364668606,95.));
#1350=CARTESIAN_POINT('',(2362.50675465547,1329.08724802294,0.));
#1351=CARTESIAN_POINT('',(2362.50675465547,1309.29364668606,0.));
#1352=CARTESIAN_POINT('',(2362.50675465547,1329.08724802294,95.));
#1353=CARTESIAN_POINT('',(2362.50675465547,1329.08724802294,95.));
#1354=CARTESIAN_POINT('',(2362.50675465547,1309.29364668606,95.));
#1355=CARTESIAN_POINT('Origin',(2362.50675465547,1329.08724802294,95.));
#1356=CARTESIAN_POINT('',(2361.00675784503,1330.59034134907,0.));
#1357=CARTESIAN_POINT('',(2362.50675465547,1329.08724802294,0.));
#1358=CARTESIAN_POINT('',(2361.00675784503,1330.59034134907,95.));
#1359=CARTESIAN_POINT('',(2361.00675784503,1330.59034134907,95.));
#1360=CARTESIAN_POINT('',(2362.50675465547,1329.08724802294,95.));
#1361=CARTESIAN_POINT('Origin',(2289.00675465547,1330.58724802294,95.));
#1362=CARTESIAN_POINT('',(2289.00675465547,1330.58724802294,0.));
#1363=CARTESIAN_POINT('',(2289.00675465547,1330.58724802294,0.));
#1364=CARTESIAN_POINT('',(2289.00675465547,1330.58724802294,95.));
#1365=CARTESIAN_POINT('',(2289.00675465547,1330.58724802294,95.));
#1366=CARTESIAN_POINT('',(2289.00675465547,1330.58724802294,95.));
#1367=CARTESIAN_POINT('Origin',(2308.60452203384,1312.89172289741,95.));
#1368=CARTESIAN_POINT('',(2361.00674495617,1330.89034134879,95.));
#1369=CARTESIAN_POINT('',(2361.00674495617,1330.89034134879,95.));
#1370=CARTESIAN_POINT('',(2289.00674176661,1330.88724802267,95.));
#1371=CARTESIAN_POINT('',(2289.00674176661,1330.88724802267,95.));
#1372=CARTESIAN_POINT('',(2289.00674176661,1330.88724802267,95.));
#1373=CARTESIAN_POINT('Origin',(2308.60452203384,1312.89172289741,0.));
#1374=CARTESIAN_POINT('',(2289.00674176661,1330.88724802267,0.));
#1375=CARTESIAN_POINT('',(2289.00674176661,1330.88724802267,0.));
#1376=CARTESIAN_POINT('',(2361.00674495617,1330.89034134879,0.));
#1377=CARTESIAN_POINT('',(2361.00674495617,1330.89034134879,0.));
#1378=CARTESIAN_POINT('',(2361.00674495617,1330.89034134879,0.));
#1379=CARTESIAN_POINT('Origin',(-0.0571744986433767,1330.78890328786,0.));
#1380=CARTESIAN_POINT('',(2361.00674495617,1330.89034134879,95.));
#1381=CARTESIAN_POINT('',(2289.00674176661,1330.88724802267,0.));
#1382=CARTESIAN_POINT('Origin',(2361.00674495617,1330.89034134879,95.));
#1383=CARTESIAN_POINT('Origin',(2289.00674176661,1330.88724802267,0.));
#1384=UNCERTAINTY_MEASURE_WITH_UNIT(LENGTH_MEASURE(0.01),#1388,
'DISTANCE_ACCURACY_VALUE',
'Maximum model space distance between geometric entities at asserted c
onnectivities');
#1385=UNCERTAINTY_MEASURE_WITH_UNIT(LENGTH_MEASURE(0.01),#1388,
'DISTANCE_ACCURACY_VALUE',
'Maximum model space distance between geometric entities at asserted c
onnectivities');
#1386=(
GEOMETRIC_REPRESENTATION_CONTEXT(3)
GLOBAL_UNCERTAINTY_ASSIGNED_CONTEXT((#1384))
GLOBAL_UNIT_ASSIGNED_CONTEXT((#1388,#1390,#1391))
REPRESENTATION_CONTEXT('','3D')
);
#1387=(
GEOMETRIC_REPRESENTATION_CONTEXT(3)
GLOBAL_UNCERTAINTY_ASSIGNED_CONTEXT((#1385))
GLOBAL_UNIT_ASSIGNED_CONTEXT((#1388,#1390,#1391))
REPRESENTATION_CONTEXT('','3D')
);
#1388=(
LENGTH_UNIT()
NAMED_UNIT(*)
SI_UNIT(.MILLI.,.METRE.)
);
#1389=(
LENGTH_UNIT()
NAMED_UNIT(*)
SI_UNIT($,.METRE.)
);
#1390=(
NAMED_UNIT(*)
PLANE_ANGLE_UNIT()
SI_UNIT($,.RADIAN.)
);
#1391=(
NAMED_UNIT(*)
SI_UNIT($,.STERADIAN.)
SOLID_ANGLE_UNIT()
);
#1392=SHAPE_DEFINITION_REPRESENTATION(#1393,#1394);
#1393=PRODUCT_DEFINITION_SHAPE('',$,#1396);
#1394=SHAPE_REPRESENTATION('',(#828),#1386);
#1395=PRODUCT_DEFINITION_CONTEXT('part definition',#1400,'design');
#1396=PRODUCT_DEFINITION('\X\B8\X\B4\X\BC\X\FE hk.stp^HPVB45-200',
'LGR Carriage v2',#1397,#1395);
#1397=PRODUCT_DEFINITION_FORMATION('',$,#1402);
#1398=PRODUCT_RELATED_PRODUCT_CATEGORY('LGR Carriage v2',
'LGR Carriage v2',(#1402));
#1399=APPLICATION_PROTOCOL_DEFINITION('international standard',
'automotive_design',2009,#1400);
#1400=APPLICATION_CONTEXT(
'Core Data for Automotive Mechanical Design Process');
#1401=PRODUCT_CONTEXT('part definition',#1400,'mechanical');
#1402=PRODUCT('\X\B8\X\B4\X\BC\X\FE hk.stp^HPVB45-200',
'LGR Carriage v2',$,(#1401));
#1403=PRESENTATION_STYLE_ASSIGNMENT((#1405));
#1404=PRESENTATION_STYLE_ASSIGNMENT((#1406));
#1405=SURFACE_STYLE_USAGE(.BOTH.,#1407);
#1406=SURFACE_STYLE_USAGE(.BOTH.,#1408);
#1407=SURFACE_SIDE_STYLE('',(#1409));
#1408=SURFACE_SIDE_STYLE('',(#1410));
#1409=SURFACE_STYLE_FILL_AREA(#1411);
#1410=SURFACE_STYLE_FILL_AREA(#1412);
#1411=FILL_AREA_STYLE('Steel - Satin',(#1413));
#1412=FILL_AREA_STYLE('Steel - Satin (1)',(#1414));
#1413=FILL_AREA_STYLE_COLOUR('Steel - Satin',#1415);
#1414=FILL_AREA_STYLE_COLOUR('Steel - Satin (1)',#1416);
#1415=COLOUR_RGB('Steel - Satin',0.627450980392157,0.627450980392157,0.627450980392157);
#1416=COLOUR_RGB('Steel - Satin (1)',0.0980392156862745,0.0980392156862745,
0.0980392156862745);
ENDSEC;
END-ISO-10303-21;
