ISO-10303-21;
HEADER;
/* Generated by software containing ST-Developer
 * from STEP Tools, Inc. (www.steptools.com) 
 */

FILE_DESCRIPTION(
/* description */ (''),
/* implementation_level */ '2;1');

FILE_NAME(
/* name */ 'Camera Holder Sides.step',
/* time_stamp */ '2026-03-25T02:13:56-04:00',
/* author */ (''),
/* organization */ (''),
/* preprocessor_version */ 'ST-DEVELOPER v20.1',
/* originating_system */ 'Autodesk Translation Framework v14.24.0.0',
/* authorisation */ '');

FILE_SCHEMA (('AUTOMOTIVE_DESIGN { 1 0 10303 214 3 1 1 }'));
ENDSEC;

DATA;
#10=MECHANICAL_DESIGN_GEOMETRIC_PRESENTATION_REPRESENTATION('',(#13),#1797);
#11=SHAPE_REPRESENTATION_RELATIONSHIP('SRR','None',#1804,#12);
#12=ADVANCED_BREP_SHAPE_REPRESENTATION('',(#14),#1796);
#13=STYLED_ITEM('',(#1814),#14);
#14=MANIFOLD_SOLID_BREP('Body1',#957);
#15=CONICAL_SURFACE('',#1024,2.721,0.872664625997165);
#16=CONICAL_SURFACE('',#1028,2.721,0.872664625997165);
#17=CONICAL_SURFACE('',#1032,2.721,0.872664625997165);
#18=CONICAL_SURFACE('',#1036,2.721,0.872664625997165);
#19=FACE_BOUND('',#174,.T.);
#20=FACE_BOUND('',#175,.T.);
#21=FACE_BOUND('',#176,.T.);
#22=FACE_BOUND('',#177,.T.);
#23=FACE_BOUND('',#178,.T.);
#24=FACE_BOUND('',#179,.T.);
#25=FACE_BOUND('',#180,.T.);
#26=FACE_BOUND('',#181,.T.);
#27=FACE_BOUND('',#196,.T.);
#28=FACE_BOUND('',#197,.T.);
#29=FACE_BOUND('',#200,.T.);
#30=FACE_BOUND('',#201,.T.);
#31=FACE_BOUND('',#205,.T.);
#32=FACE_BOUND('',#206,.T.);
#33=FACE_BOUND('',#207,.T.);
#34=FACE_BOUND('',#208,.T.);
#35=CIRCLE('',#973,7.);
#36=CIRCLE('',#974,3.5);
#37=CIRCLE('',#977,3.5);
#38=CIRCLE('',#978,7.);
#39=CIRCLE('',#981,7.);
#40=CIRCLE('',#982,3.5);
#41=CIRCLE('',#985,3.5);
#42=CIRCLE('',#986,7.);
#43=CIRCLE('',#989,3.5);
#44=CIRCLE('',#990,7.);
#45=CIRCLE('',#993,7.);
#46=CIRCLE('',#994,3.5);
#47=CIRCLE('',#997,3.5);
#48=CIRCLE('',#998,7.);
#49=CIRCLE('',#1001,7.);
#50=CIRCLE('',#1002,3.5);
#51=CIRCLE('',#1020,3.5435);
#52=CIRCLE('',#1021,3.5435);
#53=CIRCLE('',#1022,3.5435);
#54=CIRCLE('',#1023,3.5435);
#55=CIRCLE('',#1025,1.8985);
#56=CIRCLE('',#1027,1.8985);
#57=CIRCLE('',#1029,1.8985);
#58=CIRCLE('',#1031,1.8985);
#59=CIRCLE('',#1033,1.8985);
#60=CIRCLE('',#1035,1.8985);
#61=CIRCLE('',#1037,1.8985);
#62=CIRCLE('',#1039,1.8985);
#63=CIRCLE('',#1041,1.925);
#64=CIRCLE('',#1042,1.925);
#65=CIRCLE('',#1044,1.925);
#66=CIRCLE('',#1045,1.925);
#67=PLANE('',#972);
#68=PLANE('',#976);
#69=PLANE('',#980);
#70=PLANE('',#984);
#71=PLANE('',#988);
#72=PLANE('',#992);
#73=PLANE('',#996);
#74=PLANE('',#1000);
#75=PLANE('',#1011);
#76=PLANE('',#1014);
#77=PLANE('',#1016);
#78=PLANE('',#1017);
#79=PLANE('',#1019);
#80=PLANE('',#1046);
#81=PLANE('',#1047);
#82=PLANE('',#1048);
#83=PLANE('',#1049);
#84=PLANE('',#1050);
#85=PLANE('',#1051);
#86=PLANE('',#1052);
#87=PLANE('',#1053);
#88=PLANE('',#1054);
#89=FACE_OUTER_BOUND('',#141,.T.);
#90=FACE_OUTER_BOUND('',#142,.T.);
#91=FACE_OUTER_BOUND('',#143,.T.);
#92=FACE_OUTER_BOUND('',#144,.T.);
#93=FACE_OUTER_BOUND('',#145,.T.);
#94=FACE_OUTER_BOUND('',#146,.T.);
#95=FACE_OUTER_BOUND('',#147,.T.);
#96=FACE_OUTER_BOUND('',#148,.T.);
#97=FACE_OUTER_BOUND('',#149,.T.);
#98=FACE_OUTER_BOUND('',#150,.T.);
#99=FACE_OUTER_BOUND('',#151,.T.);
#100=FACE_OUTER_BOUND('',#152,.T.);
#101=FACE_OUTER_BOUND('',#153,.T.);
#102=FACE_OUTER_BOUND('',#154,.T.);
#103=FACE_OUTER_BOUND('',#155,.T.);
#104=FACE_OUTER_BOUND('',#156,.T.);
#105=FACE_OUTER_BOUND('',#157,.T.);
#106=FACE_OUTER_BOUND('',#158,.T.);
#107=FACE_OUTER_BOUND('',#159,.T.);
#108=FACE_OUTER_BOUND('',#160,.T.);
#109=FACE_OUTER_BOUND('',#161,.T.);
#110=FACE_OUTER_BOUND('',#162,.T.);
#111=FACE_OUTER_BOUND('',#163,.T.);
#112=FACE_OUTER_BOUND('',#164,.T.);
#113=FACE_OUTER_BOUND('',#165,.T.);
#114=FACE_OUTER_BOUND('',#166,.T.);
#115=FACE_OUTER_BOUND('',#167,.T.);
#116=FACE_OUTER_BOUND('',#168,.T.);
#117=FACE_OUTER_BOUND('',#169,.T.);
#118=FACE_OUTER_BOUND('',#170,.T.);
#119=FACE_OUTER_BOUND('',#171,.T.);
#120=FACE_OUTER_BOUND('',#172,.T.);
#121=FACE_OUTER_BOUND('',#173,.T.);
#122=FACE_OUTER_BOUND('',#182,.T.);
#123=FACE_OUTER_BOUND('',#183,.T.);
#124=FACE_OUTER_BOUND('',#184,.T.);
#125=FACE_OUTER_BOUND('',#185,.T.);
#126=FACE_OUTER_BOUND('',#186,.T.);
#127=FACE_OUTER_BOUND('',#187,.T.);
#128=FACE_OUTER_BOUND('',#188,.T.);
#129=FACE_OUTER_BOUND('',#189,.T.);
#130=FACE_OUTER_BOUND('',#190,.T.);
#131=FACE_OUTER_BOUND('',#191,.T.);
#132=FACE_OUTER_BOUND('',#192,.T.);
#133=FACE_OUTER_BOUND('',#193,.T.);
#134=FACE_OUTER_BOUND('',#194,.T.);
#135=FACE_OUTER_BOUND('',#195,.T.);
#136=FACE_OUTER_BOUND('',#198,.T.);
#137=FACE_OUTER_BOUND('',#199,.T.);
#138=FACE_OUTER_BOUND('',#202,.T.);
#139=FACE_OUTER_BOUND('',#203,.T.);
#140=FACE_OUTER_BOUND('',#204,.T.);
#141=EDGE_LOOP('',(#611,#612,#613,#614,#615));
#142=EDGE_LOOP('',(#616,#617,#618,#619));
#143=EDGE_LOOP('',(#620,#621,#622,#623,#624));
#144=EDGE_LOOP('',(#625,#626,#627,#628));
#145=EDGE_LOOP('',(#629,#630,#631,#632,#633));
#146=EDGE_LOOP('',(#634,#635,#636,#637));
#147=EDGE_LOOP('',(#638,#639,#640,#641,#642));
#148=EDGE_LOOP('',(#643,#644,#645,#646));
#149=EDGE_LOOP('',(#647,#648,#649,#650,#651));
#150=EDGE_LOOP('',(#652,#653,#654,#655));
#151=EDGE_LOOP('',(#656,#657,#658,#659,#660));
#152=EDGE_LOOP('',(#661,#662,#663,#664));
#153=EDGE_LOOP('',(#665,#666,#667,#668,#669));
#154=EDGE_LOOP('',(#670,#671,#672,#673));
#155=EDGE_LOOP('',(#674,#675,#676,#677,#678));
#156=EDGE_LOOP('',(#679,#680,#681,#682));
#157=EDGE_LOOP('',(#683,#684,#685,#686));
#158=EDGE_LOOP('',(#687,#688,#689,#690,#691,#692));
#159=EDGE_LOOP('',(#693,#694,#695,#696));
#160=EDGE_LOOP('',(#697,#698,#699,#700,#701,#702));
#161=EDGE_LOOP('',(#703,#704,#705,#706));
#162=EDGE_LOOP('',(#707,#708,#709,#710,#711,#712));
#163=EDGE_LOOP('',(#713,#714,#715,#716));
#164=EDGE_LOOP('',(#717,#718,#719,#720,#721,#722));
#165=EDGE_LOOP('',(#723,#724,#725,#726));
#166=EDGE_LOOP('',(#727,#728,#729,#730,#731,#732));
#167=EDGE_LOOP('',(#733,#734,#735,#736,#737,#738));
#168=EDGE_LOOP('',(#739,#740,#741,#742));
#169=EDGE_LOOP('',(#743,#744,#745,#746,#747,#748));
#170=EDGE_LOOP('',(#749,#750,#751,#752));
#171=EDGE_LOOP('',(#753,#754,#755,#756));
#172=EDGE_LOOP('',(#757,#758,#759,#760,#761,#762));
#173=EDGE_LOOP('',(#763,#764,#765,#766));
#174=EDGE_LOOP('',(#767,#768,#769,#770));
#175=EDGE_LOOP('',(#771,#772,#773,#774));
#176=EDGE_LOOP('',(#775,#776,#777,#778));
#177=EDGE_LOOP('',(#779,#780,#781,#782));
#178=EDGE_LOOP('',(#783));
#179=EDGE_LOOP('',(#784));
#180=EDGE_LOOP('',(#785));
#181=EDGE_LOOP('',(#786));
#182=EDGE_LOOP('',(#787,#788,#789,#790));
#183=EDGE_LOOP('',(#791,#792,#793,#794));
#184=EDGE_LOOP('',(#795,#796,#797,#798));
#185=EDGE_LOOP('',(#799,#800,#801,#802));
#186=EDGE_LOOP('',(#803,#804,#805,#806));
#187=EDGE_LOOP('',(#807,#808,#809,#810));
#188=EDGE_LOOP('',(#811,#812,#813,#814));
#189=EDGE_LOOP('',(#815,#816,#817,#818));
#190=EDGE_LOOP('',(#819,#820,#821,#822));
#191=EDGE_LOOP('',(#823,#824,#825,#826));
#192=EDGE_LOOP('',(#827,#828,#829,#830));
#193=EDGE_LOOP('',(#831,#832,#833,#834,#835,#836,#837,#838));
#194=EDGE_LOOP('',(#839,#840,#841,#842));
#195=EDGE_LOOP('',(#843,#844,#845,#846));
#196=EDGE_LOOP('',(#847));
#197=EDGE_LOOP('',(#848));
#198=EDGE_LOOP('',(#849,#850,#851,#852));
#199=EDGE_LOOP('',(#853,#854,#855,#856));
#200=EDGE_LOOP('',(#857));
#201=EDGE_LOOP('',(#858));
#202=EDGE_LOOP('',(#859,#860,#861,#862,#863,#864,#865,#866));
#203=EDGE_LOOP('',(#867,#868,#869,#870));
#204=EDGE_LOOP('',(#871,#872,#873,#874));
#205=EDGE_LOOP('',(#875));
#206=EDGE_LOOP('',(#876));
#207=EDGE_LOOP('',(#877));
#208=EDGE_LOOP('',(#878));
#209=LINE('',#1312,#287);
#210=LINE('',#1329,#288);
#211=LINE('',#1346,#289);
#212=LINE('',#1364,#290);
#213=LINE('',#1381,#291);
#214=LINE('',#1390,#292);
#215=LINE('',#1400,#293);
#216=LINE('',#1417,#294);
#217=LINE('',#1434,#295);
#218=LINE('',#1452,#296);
#219=LINE('',#1469,#297);
#220=LINE('',#1478,#298);
#221=LINE('',#1496,#299);
#222=LINE('',#1513,#300);
#223=LINE('',#1522,#301);
#224=LINE('',#1532,#302);
#225=LINE('',#1549,#303);
#226=LINE('',#1566,#304);
#227=LINE('',#1584,#305);
#228=LINE('',#1601,#306);
#229=LINE('',#1610,#307);
#230=LINE('',#1620,#308);
#231=LINE('',#1637,#309);
#232=LINE('',#1654,#310);
#233=LINE('',#1657,#311);
#234=LINE('',#1658,#312);
#235=LINE('',#1660,#313);
#236=LINE('',#1662,#314);
#237=LINE('',#1663,#315);
#238=LINE('',#1665,#316);
#239=LINE('',#1667,#317);
#240=LINE('',#1668,#318);
#241=LINE('',#1670,#319);
#242=LINE('',#1672,#320);
#243=LINE('',#1673,#321);
#244=LINE('',#1675,#322);
#245=LINE('',#1677,#323);
#246=LINE('',#1679,#324);
#247=LINE('',#1681,#325);
#248=LINE('',#1682,#326);
#249=LINE('',#1685,#327);
#250=LINE('',#1686,#328);
#251=LINE('',#1689,#329);
#252=LINE('',#1691,#330);
#253=LINE('',#1695,#331);
#254=LINE('',#1697,#332);
#255=LINE('',#1699,#333);
#256=LINE('',#1700,#334);
#257=LINE('',#1711,#335);
#258=LINE('',#1715,#336);
#259=LINE('',#1719,#337);
#260=LINE('',#1723,#338);
#261=LINE('',#1727,#339);
#262=LINE('',#1731,#340);
#263=LINE('',#1735,#341);
#264=LINE('',#1739,#342);
#265=LINE('',#1745,#343);
#266=LINE('',#1751,#344);
#267=LINE('',#1755,#345);
#268=LINE('',#1757,#346);
#269=LINE('',#1758,#347);
#270=LINE('',#1761,#348);
#271=LINE('',#1763,#349);
#272=LINE('',#1765,#350);
#273=LINE('',#1767,#351);
#274=LINE('',#1769,#352);
#275=LINE('',#1770,#353);
#276=LINE('',#1774,#354);
#277=LINE('',#1775,#355);
#278=LINE('',#1776,#356);
#279=LINE('',#1779,#357);
#280=LINE('',#1780,#358);
#281=LINE('',#1782,#359);
#282=LINE('',#1785,#360);
#283=LINE('',#1786,#361);
#284=LINE('',#1789,#362);
#285=LINE('',#1790,#363);
#286=LINE('',#1792,#364);
#287=VECTOR('',#1059,10.);
#288=VECTOR('',#1060,10.);
#289=VECTOR('',#1065,10.);
#290=VECTOR('',#1070,10.);
#291=VECTOR('',#1071,10.);
#292=VECTOR('',#1076,10.);
#293=VECTOR('',#1081,10.);
#294=VECTOR('',#1082,10.);
#295=VECTOR('',#1087,10.);
#296=VECTOR('',#1092,10.);
#297=VECTOR('',#1093,10.);
#298=VECTOR('',#1098,10.);
#299=VECTOR('',#1103,10.);
#300=VECTOR('',#1104,10.);
#301=VECTOR('',#1109,10.);
#302=VECTOR('',#1114,10.);
#303=VECTOR('',#1115,10.);
#304=VECTOR('',#1120,10.);
#305=VECTOR('',#1125,10.);
#306=VECTOR('',#1126,10.);
#307=VECTOR('',#1131,10.);
#308=VECTOR('',#1136,10.);
#309=VECTOR('',#1137,10.);
#310=VECTOR('',#1142,10.);
#311=VECTOR('',#1147,10.);
#312=VECTOR('',#1148,10.);
#313=VECTOR('',#1151,10.);
#314=VECTOR('',#1154,10.);
#315=VECTOR('',#1155,10.);
#316=VECTOR('',#1158,10.);
#317=VECTOR('',#1161,10.);
#318=VECTOR('',#1162,10.);
#319=VECTOR('',#1165,10.);
#320=VECTOR('',#1168,10.);
#321=VECTOR('',#1169,10.);
#322=VECTOR('',#1172,10.);
#323=VECTOR('',#1175,10.);
#324=VECTOR('',#1178,10.);
#325=VECTOR('',#1181,10.);
#326=VECTOR('',#1182,10.);
#327=VECTOR('',#1187,10.);
#328=VECTOR('',#1188,10.);
#329=VECTOR('',#1193,10.);
#330=VECTOR('',#1196,10.);
#331=VECTOR('',#1199,10.);
#332=VECTOR('',#1200,10.);
#333=VECTOR('',#1201,10.);
#334=VECTOR('',#1202,10.);
#335=VECTOR('',#1213,2.721);
#336=VECTOR('',#1218,1.8985);
#337=VECTOR('',#1223,2.721);
#338=VECTOR('',#1228,1.8985);
#339=VECTOR('',#1233,2.721);
#340=VECTOR('',#1238,1.8985);
#341=VECTOR('',#1243,2.721);
#342=VECTOR('',#1248,1.8985);
#343=VECTOR('',#1255,1.925);
#344=VECTOR('',#1262,1.925);
#345=VECTOR('',#1267,10.);
#346=VECTOR('',#1268,10.);
#347=VECTOR('',#1269,10.);
#348=VECTOR('',#1272,10.);
#349=VECTOR('',#1273,10.);
#350=VECTOR('',#1274,10.);
#351=VECTOR('',#1275,10.);
#352=VECTOR('',#1276,10.);
#353=VECTOR('',#1277,10.);
#354=VECTOR('',#1280,10.);
#355=VECTOR('',#1281,10.);
#356=VECTOR('',#1282,10.);
#357=VECTOR('',#1285,10.);
#358=VECTOR('',#1286,10.);
#359=VECTOR('',#1289,10.);
#360=VECTOR('',#1292,10.);
#361=VECTOR('',#1293,10.);
#362=VECTOR('',#1296,10.);
#363=VECTOR('',#1297,10.);
#364=VECTOR('',#1300,10.);
#365=B_SPLINE_CURVE_WITH_KNOTS('',3,(#1307,#1308,#1309,#1310),
 .UNSPECIFIED.,.F.,.F.,(4,4),(0.581757016879859,0.766298458263072),
 .UNSPECIFIED.);
#366=B_SPLINE_CURVE_WITH_KNOTS('',3,(#1314,#1315,#1316,#1317,#1318,#1319,
#1320,#1321,#1322,#1323,#1324,#1325,#1326,#1327),.UNSPECIFIED.,.F.,.F.,
(4,2,2,2,2,2,4),(1.62061454072936,1.64047729432263,1.77240085763622,1.91438704820902,
2.05637323878182,2.26608857689526,2.47580391500869),.UNSPECIFIED.);
#367=B_SPLINE_CURVE_WITH_KNOTS('',3,(#1330,#1331,#1332,#1333,#1334,#1335,
#1336,#1337,#1338,#1339,#1340,#1341),.UNSPECIFIED.,.F.,.F.,(4,2,2,2,2,4),
(0.,0.188276738823584,0.376553477647168,0.504267030964828,0.631980584282488,
0.648108292500369),.UNSPECIFIED.);
#368=B_SPLINE_CURVE_WITH_KNOTS('',3,(#1351,#1352,#1353,#1354,#1355,#1356,
#1357,#1358,#1359,#1360,#1361,#1362),.UNSPECIFIED.,.F.,.F.,(4,2,2,2,2,4),
(1.53407338691668,1.55020109513424,1.6779146484519,1.80562820176956,1.99390494059314,
2.18218167941673),.UNSPECIFIED.);
#369=B_SPLINE_CURVE_WITH_KNOTS('',3,(#1366,#1367,#1368,#1369,#1370,#1371,
#1372,#1373,#1374,#1375,#1376,#1377,#1378,#1379),.UNSPECIFIED.,.F.,.F.,
(4,2,2,2,2,2,4),(0.,0.209715338113438,0.419430676226876,0.561416866799676,
0.703403057372477,0.835326620686068,0.855189374279334),.UNSPECIFIED.);
#370=B_SPLINE_CURVE_WITH_KNOTS('',3,(#1382,#1383,#1384,#1385),
 .UNSPECIFIED.,.F.,.F.,(4,4),(2.54046356334556,2.72500500472922),
 .UNSPECIFIED.);
#371=B_SPLINE_CURVE_WITH_KNOTS('',3,(#1395,#1396,#1397,#1398),
 .UNSPECIFIED.,.F.,.F.,(4,4),(2.23513802768418,2.41967946906739),
 .UNSPECIFIED.);
#372=B_SPLINE_CURVE_WITH_KNOTS('',3,(#1402,#1403,#1404,#1405,#1406,#1407,
#1408,#1409,#1410,#1411,#1412,#1413,#1414,#1415),.UNSPECIFIED.,.F.,.F.,
(4,2,2,2,2,2,4),(1.62061454072936,1.64047729432263,1.77240085763622,1.91438704820902,
2.05637323878182,2.26608857689526,2.47580391500869),.UNSPECIFIED.);
#373=B_SPLINE_CURVE_WITH_KNOTS('',3,(#1418,#1419,#1420,#1421,#1422,#1423,
#1424,#1425,#1426,#1427,#1428,#1429),.UNSPECIFIED.,.F.,.F.,(4,2,2,2,2,4),
(0.,0.188276738823583,0.376553477647167,0.504267030964827,0.631980584282488,
0.648108292500368),.UNSPECIFIED.);
#374=B_SPLINE_CURVE_WITH_KNOTS('',3,(#1439,#1440,#1441,#1442,#1443,#1444,
#1445,#1446,#1447,#1448,#1449,#1450),.UNSPECIFIED.,.F.,.F.,(4,2,2,2,2,4),
(1.53407338691668,1.55020109513424,1.6779146484519,1.80562820176956,1.99390494059314,
2.18218167941673),.UNSPECIFIED.);
#375=B_SPLINE_CURVE_WITH_KNOTS('',3,(#1454,#1455,#1456,#1457,#1458,#1459,
#1460,#1461,#1462,#1463,#1464,#1465,#1466,#1467),.UNSPECIFIED.,.F.,.F.,
(4,2,2,2,2,2,4),(0.,0.209715338113438,0.419430676226877,0.561416866799677,
0.703403057372477,0.835326620686069,0.855189374279335),.UNSPECIFIED.);
#376=B_SPLINE_CURVE_WITH_KNOTS('',3,(#1470,#1471,#1472,#1473),
 .UNSPECIFIED.,.F.,.F.,(4,4),(0.887082552541247,1.07162399392491),
 .UNSPECIFIED.);
#377=B_SPLINE_CURVE_WITH_KNOTS('',3,(#1483,#1484,#1485,#1486,#1487,#1488,
#1489,#1490,#1491,#1492,#1493,#1494),.UNSPECIFIED.,.F.,.F.,(4,2,2,2,2,4),
(1.53407338691668,1.55020109513424,1.6779146484519,1.80562820176956,1.99390494059314,
2.18218167941673),.UNSPECIFIED.);
#378=B_SPLINE_CURVE_WITH_KNOTS('',3,(#1498,#1499,#1500,#1501,#1502,#1503,
#1504,#1505,#1506,#1507,#1508,#1509,#1510,#1511),.UNSPECIFIED.,.F.,.F.,
(4,2,2,2,2,2,4),(0.,0.209715338113438,0.419430676226876,0.561416866799677,
0.703403057372477,0.835326620686069,0.855189374279335),.UNSPECIFIED.);
#379=B_SPLINE_CURVE_WITH_KNOTS('',3,(#1514,#1515,#1516,#1517),
 .UNSPECIFIED.,.F.,.F.,(4,4),(2.54046356334557,2.72500500472923),
 .UNSPECIFIED.);
#380=B_SPLINE_CURVE_WITH_KNOTS('',3,(#1527,#1528,#1529,#1530),
 .UNSPECIFIED.,.F.,.F.,(4,4),(0.58175701687986,0.766298458263072),
 .UNSPECIFIED.);
#381=B_SPLINE_CURVE_WITH_KNOTS('',3,(#1534,#1535,#1536,#1537,#1538,#1539,
#1540,#1541,#1542,#1543,#1544,#1545,#1546,#1547),.UNSPECIFIED.,.F.,.F.,
(4,2,2,2,2,2,4),(1.62061454072936,1.64047729432263,1.77240085763622,1.91438704820902,
2.05637323878182,2.26608857689526,2.47580391500869),.UNSPECIFIED.);
#382=B_SPLINE_CURVE_WITH_KNOTS('',3,(#1550,#1551,#1552,#1553,#1554,#1555,
#1556,#1557,#1558,#1559,#1560,#1561),.UNSPECIFIED.,.F.,.F.,(4,2,2,2,2,4),
(0.,0.188276738823584,0.376553477647168,0.504267030964828,0.631980584282488,
0.648108292500368),.UNSPECIFIED.);
#383=B_SPLINE_CURVE_WITH_KNOTS('',3,(#1571,#1572,#1573,#1574,#1575,#1576,
#1577,#1578,#1579,#1580,#1581,#1582),.UNSPECIFIED.,.F.,.F.,(4,2,2,2,2,4),
(1.53407338691668,1.55020109513424,1.6779146484519,1.80562820176956,1.99390494059314,
2.18218167941673),.UNSPECIFIED.);
#384=B_SPLINE_CURVE_WITH_KNOTS('',3,(#1586,#1587,#1588,#1589,#1590,#1591,
#1592,#1593,#1594,#1595,#1596,#1597,#1598,#1599),.UNSPECIFIED.,.F.,.F.,
(4,2,2,2,2,2,4),(0.,0.209715338113438,0.419430676226876,0.561416866799677,
0.703403057372477,0.835326620686069,0.855189374279335),.UNSPECIFIED.);
#385=B_SPLINE_CURVE_WITH_KNOTS('',3,(#1602,#1603,#1604,#1605),
 .UNSPECIFIED.,.F.,.F.,(4,4),(0.887082552541248,1.07162399392491),
 .UNSPECIFIED.);
#386=B_SPLINE_CURVE_WITH_KNOTS('',3,(#1615,#1616,#1617,#1618),
 .UNSPECIFIED.,.F.,.F.,(4,4),(2.23513802768418,2.41967946906739),
 .UNSPECIFIED.);
#387=B_SPLINE_CURVE_WITH_KNOTS('',3,(#1622,#1623,#1624,#1625,#1626,#1627,
#1628,#1629,#1630,#1631,#1632,#1633,#1634,#1635),.UNSPECIFIED.,.F.,.F.,
(4,2,2,2,2,2,4),(1.62061454072936,1.64047729432263,1.77240085763622,1.91438704820902,
2.05637323878182,2.26608857689526,2.47580391500869),.UNSPECIFIED.);
#388=B_SPLINE_CURVE_WITH_KNOTS('',3,(#1638,#1639,#1640,#1641,#1642,#1643,
#1644,#1645,#1646,#1647,#1648,#1649),.UNSPECIFIED.,.F.,.F.,(4,2,2,2,2,4),
(0.,0.188276738823584,0.376553477647167,0.504267030964828,0.631980584282488,
0.648108292500369),.UNSPECIFIED.);
#389=VERTEX_POINT('',#1305);
#390=VERTEX_POINT('',#1306);
#391=VERTEX_POINT('',#1311);
#392=VERTEX_POINT('',#1313);
#393=VERTEX_POINT('',#1328);
#394=VERTEX_POINT('',#1343);
#395=VERTEX_POINT('',#1345);
#396=VERTEX_POINT('',#1349);
#397=VERTEX_POINT('',#1350);
#398=VERTEX_POINT('',#1363);
#399=VERTEX_POINT('',#1365);
#400=VERTEX_POINT('',#1380);
#401=VERTEX_POINT('',#1387);
#402=VERTEX_POINT('',#1389);
#403=VERTEX_POINT('',#1393);
#404=VERTEX_POINT('',#1394);
#405=VERTEX_POINT('',#1399);
#406=VERTEX_POINT('',#1401);
#407=VERTEX_POINT('',#1416);
#408=VERTEX_POINT('',#1431);
#409=VERTEX_POINT('',#1433);
#410=VERTEX_POINT('',#1437);
#411=VERTEX_POINT('',#1438);
#412=VERTEX_POINT('',#1451);
#413=VERTEX_POINT('',#1453);
#414=VERTEX_POINT('',#1468);
#415=VERTEX_POINT('',#1475);
#416=VERTEX_POINT('',#1477);
#417=VERTEX_POINT('',#1481);
#418=VERTEX_POINT('',#1482);
#419=VERTEX_POINT('',#1495);
#420=VERTEX_POINT('',#1497);
#421=VERTEX_POINT('',#1512);
#422=VERTEX_POINT('',#1519);
#423=VERTEX_POINT('',#1521);
#424=VERTEX_POINT('',#1525);
#425=VERTEX_POINT('',#1526);
#426=VERTEX_POINT('',#1531);
#427=VERTEX_POINT('',#1533);
#428=VERTEX_POINT('',#1548);
#429=VERTEX_POINT('',#1563);
#430=VERTEX_POINT('',#1565);
#431=VERTEX_POINT('',#1569);
#432=VERTEX_POINT('',#1570);
#433=VERTEX_POINT('',#1583);
#434=VERTEX_POINT('',#1585);
#435=VERTEX_POINT('',#1600);
#436=VERTEX_POINT('',#1607);
#437=VERTEX_POINT('',#1609);
#438=VERTEX_POINT('',#1613);
#439=VERTEX_POINT('',#1614);
#440=VERTEX_POINT('',#1619);
#441=VERTEX_POINT('',#1621);
#442=VERTEX_POINT('',#1636);
#443=VERTEX_POINT('',#1651);
#444=VERTEX_POINT('',#1653);
#445=VERTEX_POINT('',#1693);
#446=VERTEX_POINT('',#1694);
#447=VERTEX_POINT('',#1696);
#448=VERTEX_POINT('',#1698);
#449=VERTEX_POINT('',#1701);
#450=VERTEX_POINT('',#1703);
#451=VERTEX_POINT('',#1705);
#452=VERTEX_POINT('',#1707);
#453=VERTEX_POINT('',#1710);
#454=VERTEX_POINT('',#1714);
#455=VERTEX_POINT('',#1718);
#456=VERTEX_POINT('',#1722);
#457=VERTEX_POINT('',#1726);
#458=VERTEX_POINT('',#1730);
#459=VERTEX_POINT('',#1734);
#460=VERTEX_POINT('',#1738);
#461=VERTEX_POINT('',#1742);
#462=VERTEX_POINT('',#1744);
#463=VERTEX_POINT('',#1748);
#464=VERTEX_POINT('',#1750);
#465=VERTEX_POINT('',#1754);
#466=VERTEX_POINT('',#1756);
#467=VERTEX_POINT('',#1760);
#468=VERTEX_POINT('',#1762);
#469=VERTEX_POINT('',#1764);
#470=VERTEX_POINT('',#1766);
#471=VERTEX_POINT('',#1768);
#472=VERTEX_POINT('',#1772);
#473=VERTEX_POINT('',#1773);
#474=VERTEX_POINT('',#1778);
#475=VERTEX_POINT('',#1784);
#476=VERTEX_POINT('',#1788);
#477=EDGE_CURVE('',#389,#390,#365,.T.);
#478=EDGE_CURVE('',#390,#391,#209,.T.);
#479=EDGE_CURVE('',#391,#392,#366,.T.);
#480=EDGE_CURVE('',#392,#393,#210,.T.);
#481=EDGE_CURVE('',#393,#389,#367,.T.);
#482=EDGE_CURVE('',#390,#394,#35,.T.);
#483=EDGE_CURVE('',#394,#395,#211,.T.);
#484=EDGE_CURVE('',#395,#391,#36,.T.);
#485=EDGE_CURVE('',#396,#397,#368,.F.);
#486=EDGE_CURVE('',#396,#398,#212,.T.);
#487=EDGE_CURVE('',#398,#399,#369,.T.);
#488=EDGE_CURVE('',#399,#400,#213,.T.);
#489=EDGE_CURVE('',#397,#400,#370,.F.);
#490=EDGE_CURVE('',#399,#401,#37,.T.);
#491=EDGE_CURVE('',#401,#402,#214,.T.);
#492=EDGE_CURVE('',#402,#400,#38,.T.);
#493=EDGE_CURVE('',#403,#404,#371,.T.);
#494=EDGE_CURVE('',#404,#405,#215,.T.);
#495=EDGE_CURVE('',#405,#406,#372,.T.);
#496=EDGE_CURVE('',#406,#407,#216,.T.);
#497=EDGE_CURVE('',#407,#403,#373,.T.);
#498=EDGE_CURVE('',#404,#408,#39,.T.);
#499=EDGE_CURVE('',#408,#409,#217,.T.);
#500=EDGE_CURVE('',#405,#409,#40,.T.);
#501=EDGE_CURVE('',#410,#411,#374,.F.);
#502=EDGE_CURVE('',#410,#412,#218,.T.);
#503=EDGE_CURVE('',#412,#413,#375,.T.);
#504=EDGE_CURVE('',#413,#414,#219,.T.);
#505=EDGE_CURVE('',#411,#414,#376,.F.);
#506=EDGE_CURVE('',#415,#413,#41,.T.);
#507=EDGE_CURVE('',#415,#416,#220,.T.);
#508=EDGE_CURVE('',#416,#414,#42,.T.);
#509=EDGE_CURVE('',#417,#418,#377,.F.);
#510=EDGE_CURVE('',#417,#419,#221,.T.);
#511=EDGE_CURVE('',#419,#420,#378,.T.);
#512=EDGE_CURVE('',#420,#421,#222,.T.);
#513=EDGE_CURVE('',#418,#421,#379,.F.);
#514=EDGE_CURVE('',#420,#422,#43,.T.);
#515=EDGE_CURVE('',#422,#423,#223,.T.);
#516=EDGE_CURVE('',#423,#421,#44,.T.);
#517=EDGE_CURVE('',#424,#425,#380,.T.);
#518=EDGE_CURVE('',#425,#426,#224,.T.);
#519=EDGE_CURVE('',#426,#427,#381,.T.);
#520=EDGE_CURVE('',#427,#428,#225,.T.);
#521=EDGE_CURVE('',#428,#424,#382,.T.);
#522=EDGE_CURVE('',#425,#429,#45,.T.);
#523=EDGE_CURVE('',#429,#430,#226,.T.);
#524=EDGE_CURVE('',#430,#426,#46,.T.);
#525=EDGE_CURVE('',#431,#432,#383,.F.);
#526=EDGE_CURVE('',#431,#433,#227,.T.);
#527=EDGE_CURVE('',#433,#434,#384,.T.);
#528=EDGE_CURVE('',#434,#435,#228,.T.);
#529=EDGE_CURVE('',#432,#435,#385,.F.);
#530=EDGE_CURVE('',#436,#434,#47,.T.);
#531=EDGE_CURVE('',#436,#437,#229,.T.);
#532=EDGE_CURVE('',#437,#435,#48,.T.);
#533=EDGE_CURVE('',#438,#439,#386,.T.);
#534=EDGE_CURVE('',#439,#440,#230,.T.);
#535=EDGE_CURVE('',#440,#441,#387,.T.);
#536=EDGE_CURVE('',#441,#442,#231,.T.);
#537=EDGE_CURVE('',#442,#438,#388,.T.);
#538=EDGE_CURVE('',#439,#443,#49,.T.);
#539=EDGE_CURVE('',#443,#444,#232,.T.);
#540=EDGE_CURVE('',#440,#444,#50,.T.);
#541=EDGE_CURVE('',#397,#438,#233,.T.);
#542=EDGE_CURVE('',#442,#396,#234,.T.);
#543=EDGE_CURVE('',#443,#402,#235,.T.);
#544=EDGE_CURVE('',#411,#424,#236,.T.);
#545=EDGE_CURVE('',#428,#410,#237,.T.);
#546=EDGE_CURVE('',#416,#429,#238,.T.);
#547=EDGE_CURVE('',#432,#389,#239,.T.);
#548=EDGE_CURVE('',#393,#431,#240,.T.);
#549=EDGE_CURVE('',#437,#394,#241,.T.);
#550=EDGE_CURVE('',#418,#403,#242,.T.);
#551=EDGE_CURVE('',#407,#417,#243,.T.);
#552=EDGE_CURVE('',#408,#423,#244,.T.);
#553=EDGE_CURVE('',#444,#401,#245,.T.);
#554=EDGE_CURVE('',#398,#441,#246,.T.);
#555=EDGE_CURVE('',#392,#433,#247,.T.);
#556=EDGE_CURVE('',#436,#395,#248,.T.);
#557=EDGE_CURVE('',#427,#412,#249,.T.);
#558=EDGE_CURVE('',#415,#430,#250,.T.);
#559=EDGE_CURVE('',#409,#422,#251,.T.);
#560=EDGE_CURVE('',#419,#406,#252,.T.);
#561=EDGE_CURVE('',#445,#446,#253,.T.);
#562=EDGE_CURVE('',#445,#447,#254,.T.);
#563=EDGE_CURVE('',#448,#447,#255,.T.);
#564=EDGE_CURVE('',#448,#446,#256,.T.);
#565=EDGE_CURVE('',#449,#449,#51,.T.);
#566=EDGE_CURVE('',#450,#450,#52,.T.);
#567=EDGE_CURVE('',#451,#451,#53,.T.);
#568=EDGE_CURVE('',#452,#452,#54,.T.);
#569=EDGE_CURVE('',#452,#453,#257,.T.);
#570=EDGE_CURVE('',#453,#453,#55,.T.);
#571=EDGE_CURVE('',#453,#454,#258,.T.);
#572=EDGE_CURVE('',#454,#454,#56,.T.);
#573=EDGE_CURVE('',#451,#455,#259,.T.);
#574=EDGE_CURVE('',#455,#455,#57,.T.);
#575=EDGE_CURVE('',#455,#456,#260,.T.);
#576=EDGE_CURVE('',#456,#456,#58,.T.);
#577=EDGE_CURVE('',#450,#457,#261,.T.);
#578=EDGE_CURVE('',#457,#457,#59,.T.);
#579=EDGE_CURVE('',#457,#458,#262,.T.);
#580=EDGE_CURVE('',#458,#458,#60,.T.);
#581=EDGE_CURVE('',#449,#459,#263,.T.);
#582=EDGE_CURVE('',#459,#459,#61,.T.);
#583=EDGE_CURVE('',#459,#460,#264,.T.);
#584=EDGE_CURVE('',#460,#460,#62,.T.);
#585=EDGE_CURVE('',#461,#461,#63,.T.);
#586=EDGE_CURVE('',#461,#462,#265,.T.);
#587=EDGE_CURVE('',#462,#462,#64,.T.);
#588=EDGE_CURVE('',#463,#463,#65,.T.);
#589=EDGE_CURVE('',#463,#464,#266,.T.);
#590=EDGE_CURVE('',#464,#464,#66,.T.);
#591=EDGE_CURVE('',#465,#445,#267,.T.);
#592=EDGE_CURVE('',#446,#466,#268,.T.);
#593=EDGE_CURVE('',#465,#466,#269,.T.);
#594=EDGE_CURVE('',#467,#465,#270,.T.);
#595=EDGE_CURVE('',#467,#468,#271,.T.);
#596=EDGE_CURVE('',#469,#468,#272,.T.);
#597=EDGE_CURVE('',#470,#469,#273,.T.);
#598=EDGE_CURVE('',#471,#470,#274,.T.);
#599=EDGE_CURVE('',#447,#471,#275,.T.);
#600=EDGE_CURVE('',#472,#473,#276,.T.);
#601=EDGE_CURVE('',#473,#470,#277,.T.);
#602=EDGE_CURVE('',#472,#469,#278,.T.);
#603=EDGE_CURVE('',#473,#474,#279,.T.);
#604=EDGE_CURVE('',#474,#471,#280,.T.);
#605=EDGE_CURVE('',#474,#448,#281,.T.);
#606=EDGE_CURVE('',#475,#468,#282,.T.);
#607=EDGE_CURVE('',#475,#472,#283,.T.);
#608=EDGE_CURVE('',#476,#475,#284,.T.);
#609=EDGE_CURVE('',#466,#476,#285,.T.);
#610=EDGE_CURVE('',#476,#467,#286,.T.);
#611=ORIENTED_EDGE('',*,*,#477,.T.);
#612=ORIENTED_EDGE('',*,*,#478,.T.);
#613=ORIENTED_EDGE('',*,*,#479,.T.);
#614=ORIENTED_EDGE('',*,*,#480,.T.);
#615=ORIENTED_EDGE('',*,*,#481,.T.);
#616=ORIENTED_EDGE('',*,*,#478,.F.);
#617=ORIENTED_EDGE('',*,*,#482,.T.);
#618=ORIENTED_EDGE('',*,*,#483,.T.);
#619=ORIENTED_EDGE('',*,*,#484,.T.);
#620=ORIENTED_EDGE('',*,*,#485,.F.);
#621=ORIENTED_EDGE('',*,*,#486,.T.);
#622=ORIENTED_EDGE('',*,*,#487,.T.);
#623=ORIENTED_EDGE('',*,*,#488,.T.);
#624=ORIENTED_EDGE('',*,*,#489,.F.);
#625=ORIENTED_EDGE('',*,*,#488,.F.);
#626=ORIENTED_EDGE('',*,*,#490,.T.);
#627=ORIENTED_EDGE('',*,*,#491,.T.);
#628=ORIENTED_EDGE('',*,*,#492,.T.);
#629=ORIENTED_EDGE('',*,*,#493,.T.);
#630=ORIENTED_EDGE('',*,*,#494,.T.);
#631=ORIENTED_EDGE('',*,*,#495,.T.);
#632=ORIENTED_EDGE('',*,*,#496,.T.);
#633=ORIENTED_EDGE('',*,*,#497,.T.);
#634=ORIENTED_EDGE('',*,*,#494,.F.);
#635=ORIENTED_EDGE('',*,*,#498,.T.);
#636=ORIENTED_EDGE('',*,*,#499,.T.);
#637=ORIENTED_EDGE('',*,*,#500,.F.);
#638=ORIENTED_EDGE('',*,*,#501,.F.);
#639=ORIENTED_EDGE('',*,*,#502,.T.);
#640=ORIENTED_EDGE('',*,*,#503,.T.);
#641=ORIENTED_EDGE('',*,*,#504,.T.);
#642=ORIENTED_EDGE('',*,*,#505,.F.);
#643=ORIENTED_EDGE('',*,*,#504,.F.);
#644=ORIENTED_EDGE('',*,*,#506,.F.);
#645=ORIENTED_EDGE('',*,*,#507,.T.);
#646=ORIENTED_EDGE('',*,*,#508,.T.);
#647=ORIENTED_EDGE('',*,*,#509,.F.);
#648=ORIENTED_EDGE('',*,*,#510,.T.);
#649=ORIENTED_EDGE('',*,*,#511,.T.);
#650=ORIENTED_EDGE('',*,*,#512,.T.);
#651=ORIENTED_EDGE('',*,*,#513,.F.);
#652=ORIENTED_EDGE('',*,*,#512,.F.);
#653=ORIENTED_EDGE('',*,*,#514,.T.);
#654=ORIENTED_EDGE('',*,*,#515,.T.);
#655=ORIENTED_EDGE('',*,*,#516,.T.);
#656=ORIENTED_EDGE('',*,*,#517,.T.);
#657=ORIENTED_EDGE('',*,*,#518,.T.);
#658=ORIENTED_EDGE('',*,*,#519,.T.);
#659=ORIENTED_EDGE('',*,*,#520,.T.);
#660=ORIENTED_EDGE('',*,*,#521,.T.);
#661=ORIENTED_EDGE('',*,*,#518,.F.);
#662=ORIENTED_EDGE('',*,*,#522,.T.);
#663=ORIENTED_EDGE('',*,*,#523,.T.);
#664=ORIENTED_EDGE('',*,*,#524,.T.);
#665=ORIENTED_EDGE('',*,*,#525,.F.);
#666=ORIENTED_EDGE('',*,*,#526,.T.);
#667=ORIENTED_EDGE('',*,*,#527,.T.);
#668=ORIENTED_EDGE('',*,*,#528,.T.);
#669=ORIENTED_EDGE('',*,*,#529,.F.);
#670=ORIENTED_EDGE('',*,*,#528,.F.);
#671=ORIENTED_EDGE('',*,*,#530,.F.);
#672=ORIENTED_EDGE('',*,*,#531,.T.);
#673=ORIENTED_EDGE('',*,*,#532,.T.);
#674=ORIENTED_EDGE('',*,*,#533,.T.);
#675=ORIENTED_EDGE('',*,*,#534,.T.);
#676=ORIENTED_EDGE('',*,*,#535,.T.);
#677=ORIENTED_EDGE('',*,*,#536,.T.);
#678=ORIENTED_EDGE('',*,*,#537,.T.);
#679=ORIENTED_EDGE('',*,*,#534,.F.);
#680=ORIENTED_EDGE('',*,*,#538,.T.);
#681=ORIENTED_EDGE('',*,*,#539,.T.);
#682=ORIENTED_EDGE('',*,*,#540,.F.);
#683=ORIENTED_EDGE('',*,*,#541,.T.);
#684=ORIENTED_EDGE('',*,*,#537,.F.);
#685=ORIENTED_EDGE('',*,*,#542,.T.);
#686=ORIENTED_EDGE('',*,*,#485,.T.);
#687=ORIENTED_EDGE('',*,*,#541,.F.);
#688=ORIENTED_EDGE('',*,*,#489,.T.);
#689=ORIENTED_EDGE('',*,*,#492,.F.);
#690=ORIENTED_EDGE('',*,*,#543,.F.);
#691=ORIENTED_EDGE('',*,*,#538,.F.);
#692=ORIENTED_EDGE('',*,*,#533,.F.);
#693=ORIENTED_EDGE('',*,*,#544,.T.);
#694=ORIENTED_EDGE('',*,*,#521,.F.);
#695=ORIENTED_EDGE('',*,*,#545,.T.);
#696=ORIENTED_EDGE('',*,*,#501,.T.);
#697=ORIENTED_EDGE('',*,*,#544,.F.);
#698=ORIENTED_EDGE('',*,*,#505,.T.);
#699=ORIENTED_EDGE('',*,*,#508,.F.);
#700=ORIENTED_EDGE('',*,*,#546,.T.);
#701=ORIENTED_EDGE('',*,*,#522,.F.);
#702=ORIENTED_EDGE('',*,*,#517,.F.);
#703=ORIENTED_EDGE('',*,*,#547,.T.);
#704=ORIENTED_EDGE('',*,*,#481,.F.);
#705=ORIENTED_EDGE('',*,*,#548,.T.);
#706=ORIENTED_EDGE('',*,*,#525,.T.);
#707=ORIENTED_EDGE('',*,*,#547,.F.);
#708=ORIENTED_EDGE('',*,*,#529,.T.);
#709=ORIENTED_EDGE('',*,*,#532,.F.);
#710=ORIENTED_EDGE('',*,*,#549,.T.);
#711=ORIENTED_EDGE('',*,*,#482,.F.);
#712=ORIENTED_EDGE('',*,*,#477,.F.);
#713=ORIENTED_EDGE('',*,*,#550,.T.);
#714=ORIENTED_EDGE('',*,*,#497,.F.);
#715=ORIENTED_EDGE('',*,*,#551,.T.);
#716=ORIENTED_EDGE('',*,*,#509,.T.);
#717=ORIENTED_EDGE('',*,*,#550,.F.);
#718=ORIENTED_EDGE('',*,*,#513,.T.);
#719=ORIENTED_EDGE('',*,*,#516,.F.);
#720=ORIENTED_EDGE('',*,*,#552,.F.);
#721=ORIENTED_EDGE('',*,*,#498,.F.);
#722=ORIENTED_EDGE('',*,*,#493,.F.);
#723=ORIENTED_EDGE('',*,*,#539,.F.);
#724=ORIENTED_EDGE('',*,*,#543,.T.);
#725=ORIENTED_EDGE('',*,*,#491,.F.);
#726=ORIENTED_EDGE('',*,*,#553,.F.);
#727=ORIENTED_EDGE('',*,*,#540,.T.);
#728=ORIENTED_EDGE('',*,*,#553,.T.);
#729=ORIENTED_EDGE('',*,*,#490,.F.);
#730=ORIENTED_EDGE('',*,*,#487,.F.);
#731=ORIENTED_EDGE('',*,*,#554,.T.);
#732=ORIENTED_EDGE('',*,*,#535,.F.);
#733=ORIENTED_EDGE('',*,*,#530,.T.);
#734=ORIENTED_EDGE('',*,*,#527,.F.);
#735=ORIENTED_EDGE('',*,*,#555,.F.);
#736=ORIENTED_EDGE('',*,*,#479,.F.);
#737=ORIENTED_EDGE('',*,*,#484,.F.);
#738=ORIENTED_EDGE('',*,*,#556,.F.);
#739=ORIENTED_EDGE('',*,*,#531,.F.);
#740=ORIENTED_EDGE('',*,*,#556,.T.);
#741=ORIENTED_EDGE('',*,*,#483,.F.);
#742=ORIENTED_EDGE('',*,*,#549,.F.);
#743=ORIENTED_EDGE('',*,*,#506,.T.);
#744=ORIENTED_EDGE('',*,*,#503,.F.);
#745=ORIENTED_EDGE('',*,*,#557,.F.);
#746=ORIENTED_EDGE('',*,*,#519,.F.);
#747=ORIENTED_EDGE('',*,*,#524,.F.);
#748=ORIENTED_EDGE('',*,*,#558,.F.);
#749=ORIENTED_EDGE('',*,*,#507,.F.);
#750=ORIENTED_EDGE('',*,*,#558,.T.);
#751=ORIENTED_EDGE('',*,*,#523,.F.);
#752=ORIENTED_EDGE('',*,*,#546,.F.);
#753=ORIENTED_EDGE('',*,*,#499,.F.);
#754=ORIENTED_EDGE('',*,*,#552,.T.);
#755=ORIENTED_EDGE('',*,*,#515,.F.);
#756=ORIENTED_EDGE('',*,*,#559,.F.);
#757=ORIENTED_EDGE('',*,*,#500,.T.);
#758=ORIENTED_EDGE('',*,*,#559,.T.);
#759=ORIENTED_EDGE('',*,*,#514,.F.);
#760=ORIENTED_EDGE('',*,*,#511,.F.);
#761=ORIENTED_EDGE('',*,*,#560,.T.);
#762=ORIENTED_EDGE('',*,*,#495,.F.);
#763=ORIENTED_EDGE('',*,*,#561,.F.);
#764=ORIENTED_EDGE('',*,*,#562,.T.);
#765=ORIENTED_EDGE('',*,*,#563,.F.);
#766=ORIENTED_EDGE('',*,*,#564,.T.);
#767=ORIENTED_EDGE('',*,*,#555,.T.);
#768=ORIENTED_EDGE('',*,*,#526,.F.);
#769=ORIENTED_EDGE('',*,*,#548,.F.);
#770=ORIENTED_EDGE('',*,*,#480,.F.);
#771=ORIENTED_EDGE('',*,*,#542,.F.);
#772=ORIENTED_EDGE('',*,*,#536,.F.);
#773=ORIENTED_EDGE('',*,*,#554,.F.);
#774=ORIENTED_EDGE('',*,*,#486,.F.);
#775=ORIENTED_EDGE('',*,*,#560,.F.);
#776=ORIENTED_EDGE('',*,*,#510,.F.);
#777=ORIENTED_EDGE('',*,*,#551,.F.);
#778=ORIENTED_EDGE('',*,*,#496,.F.);
#779=ORIENTED_EDGE('',*,*,#545,.F.);
#780=ORIENTED_EDGE('',*,*,#520,.F.);
#781=ORIENTED_EDGE('',*,*,#557,.T.);
#782=ORIENTED_EDGE('',*,*,#502,.F.);
#783=ORIENTED_EDGE('',*,*,#565,.T.);
#784=ORIENTED_EDGE('',*,*,#566,.T.);
#785=ORIENTED_EDGE('',*,*,#567,.T.);
#786=ORIENTED_EDGE('',*,*,#568,.T.);
#787=ORIENTED_EDGE('',*,*,#568,.F.);
#788=ORIENTED_EDGE('',*,*,#569,.T.);
#789=ORIENTED_EDGE('',*,*,#570,.T.);
#790=ORIENTED_EDGE('',*,*,#569,.F.);
#791=ORIENTED_EDGE('',*,*,#570,.F.);
#792=ORIENTED_EDGE('',*,*,#571,.T.);
#793=ORIENTED_EDGE('',*,*,#572,.F.);
#794=ORIENTED_EDGE('',*,*,#571,.F.);
#795=ORIENTED_EDGE('',*,*,#567,.F.);
#796=ORIENTED_EDGE('',*,*,#573,.T.);
#797=ORIENTED_EDGE('',*,*,#574,.T.);
#798=ORIENTED_EDGE('',*,*,#573,.F.);
#799=ORIENTED_EDGE('',*,*,#574,.F.);
#800=ORIENTED_EDGE('',*,*,#575,.T.);
#801=ORIENTED_EDGE('',*,*,#576,.F.);
#802=ORIENTED_EDGE('',*,*,#575,.F.);
#803=ORIENTED_EDGE('',*,*,#566,.F.);
#804=ORIENTED_EDGE('',*,*,#577,.T.);
#805=ORIENTED_EDGE('',*,*,#578,.T.);
#806=ORIENTED_EDGE('',*,*,#577,.F.);
#807=ORIENTED_EDGE('',*,*,#578,.F.);
#808=ORIENTED_EDGE('',*,*,#579,.T.);
#809=ORIENTED_EDGE('',*,*,#580,.F.);
#810=ORIENTED_EDGE('',*,*,#579,.F.);
#811=ORIENTED_EDGE('',*,*,#565,.F.);
#812=ORIENTED_EDGE('',*,*,#581,.T.);
#813=ORIENTED_EDGE('',*,*,#582,.T.);
#814=ORIENTED_EDGE('',*,*,#581,.F.);
#815=ORIENTED_EDGE('',*,*,#582,.F.);
#816=ORIENTED_EDGE('',*,*,#583,.T.);
#817=ORIENTED_EDGE('',*,*,#584,.F.);
#818=ORIENTED_EDGE('',*,*,#583,.F.);
#819=ORIENTED_EDGE('',*,*,#585,.F.);
#820=ORIENTED_EDGE('',*,*,#586,.T.);
#821=ORIENTED_EDGE('',*,*,#587,.F.);
#822=ORIENTED_EDGE('',*,*,#586,.F.);
#823=ORIENTED_EDGE('',*,*,#588,.F.);
#824=ORIENTED_EDGE('',*,*,#589,.T.);
#825=ORIENTED_EDGE('',*,*,#590,.F.);
#826=ORIENTED_EDGE('',*,*,#589,.F.);
#827=ORIENTED_EDGE('',*,*,#591,.T.);
#828=ORIENTED_EDGE('',*,*,#561,.T.);
#829=ORIENTED_EDGE('',*,*,#592,.T.);
#830=ORIENTED_EDGE('',*,*,#593,.F.);
#831=ORIENTED_EDGE('',*,*,#591,.F.);
#832=ORIENTED_EDGE('',*,*,#594,.F.);
#833=ORIENTED_EDGE('',*,*,#595,.T.);
#834=ORIENTED_EDGE('',*,*,#596,.F.);
#835=ORIENTED_EDGE('',*,*,#597,.F.);
#836=ORIENTED_EDGE('',*,*,#598,.F.);
#837=ORIENTED_EDGE('',*,*,#599,.F.);
#838=ORIENTED_EDGE('',*,*,#562,.F.);
#839=ORIENTED_EDGE('',*,*,#600,.T.);
#840=ORIENTED_EDGE('',*,*,#601,.T.);
#841=ORIENTED_EDGE('',*,*,#597,.T.);
#842=ORIENTED_EDGE('',*,*,#602,.F.);
#843=ORIENTED_EDGE('',*,*,#601,.F.);
#844=ORIENTED_EDGE('',*,*,#603,.T.);
#845=ORIENTED_EDGE('',*,*,#604,.T.);
#846=ORIENTED_EDGE('',*,*,#598,.T.);
#847=ORIENTED_EDGE('',*,*,#587,.T.);
#848=ORIENTED_EDGE('',*,*,#590,.T.);
#849=ORIENTED_EDGE('',*,*,#599,.T.);
#850=ORIENTED_EDGE('',*,*,#604,.F.);
#851=ORIENTED_EDGE('',*,*,#605,.T.);
#852=ORIENTED_EDGE('',*,*,#563,.T.);
#853=ORIENTED_EDGE('',*,*,#596,.T.);
#854=ORIENTED_EDGE('',*,*,#606,.F.);
#855=ORIENTED_EDGE('',*,*,#607,.T.);
#856=ORIENTED_EDGE('',*,*,#602,.T.);
#857=ORIENTED_EDGE('',*,*,#585,.T.);
#858=ORIENTED_EDGE('',*,*,#588,.T.);
#859=ORIENTED_EDGE('',*,*,#592,.F.);
#860=ORIENTED_EDGE('',*,*,#564,.F.);
#861=ORIENTED_EDGE('',*,*,#605,.F.);
#862=ORIENTED_EDGE('',*,*,#603,.F.);
#863=ORIENTED_EDGE('',*,*,#600,.F.);
#864=ORIENTED_EDGE('',*,*,#607,.F.);
#865=ORIENTED_EDGE('',*,*,#608,.F.);
#866=ORIENTED_EDGE('',*,*,#609,.F.);
#867=ORIENTED_EDGE('',*,*,#606,.T.);
#868=ORIENTED_EDGE('',*,*,#595,.F.);
#869=ORIENTED_EDGE('',*,*,#610,.F.);
#870=ORIENTED_EDGE('',*,*,#608,.T.);
#871=ORIENTED_EDGE('',*,*,#594,.T.);
#872=ORIENTED_EDGE('',*,*,#593,.T.);
#873=ORIENTED_EDGE('',*,*,#609,.T.);
#874=ORIENTED_EDGE('',*,*,#610,.T.);
#875=ORIENTED_EDGE('',*,*,#572,.T.);
#876=ORIENTED_EDGE('',*,*,#576,.T.);
#877=ORIENTED_EDGE('',*,*,#580,.T.);
#878=ORIENTED_EDGE('',*,*,#584,.T.);
#879=CYLINDRICAL_SURFACE('',#971,5.);
#880=CYLINDRICAL_SURFACE('',#975,5.);
#881=CYLINDRICAL_SURFACE('',#979,5.);
#882=CYLINDRICAL_SURFACE('',#983,5.);
#883=CYLINDRICAL_SURFACE('',#987,5.);
#884=CYLINDRICAL_SURFACE('',#991,5.);
#885=CYLINDRICAL_SURFACE('',#995,5.);
#886=CYLINDRICAL_SURFACE('',#999,5.);
#887=CYLINDRICAL_SURFACE('',#1003,3.);
#888=CYLINDRICAL_SURFACE('',#1004,7.);
#889=CYLINDRICAL_SURFACE('',#1005,3.);
#890=CYLINDRICAL_SURFACE('',#1006,7.);
#891=CYLINDRICAL_SURFACE('',#1007,3.);
#892=CYLINDRICAL_SURFACE('',#1008,7.);
#893=CYLINDRICAL_SURFACE('',#1009,3.);
#894=CYLINDRICAL_SURFACE('',#1010,7.);
#895=CYLINDRICAL_SURFACE('',#1012,3.5);
#896=CYLINDRICAL_SURFACE('',#1013,3.5);
#897=CYLINDRICAL_SURFACE('',#1015,3.5);
#898=CYLINDRICAL_SURFACE('',#1018,3.5);
#899=CYLINDRICAL_SURFACE('',#1026,1.8985);
#900=CYLINDRICAL_SURFACE('',#1030,1.8985);
#901=CYLINDRICAL_SURFACE('',#1034,1.8985);
#902=CYLINDRICAL_SURFACE('',#1038,1.8985);
#903=CYLINDRICAL_SURFACE('',#1040,1.925);
#904=CYLINDRICAL_SURFACE('',#1043,1.925);
#905=ADVANCED_FACE('',(#89),#879,.F.);
#906=ADVANCED_FACE('',(#90),#67,.F.);
#907=ADVANCED_FACE('',(#91),#880,.F.);
#908=ADVANCED_FACE('',(#92),#68,.F.);
#909=ADVANCED_FACE('',(#93),#881,.F.);
#910=ADVANCED_FACE('',(#94),#69,.T.);
#911=ADVANCED_FACE('',(#95),#882,.F.);
#912=ADVANCED_FACE('',(#96),#70,.T.);
#913=ADVANCED_FACE('',(#97),#883,.F.);
#914=ADVANCED_FACE('',(#98),#71,.F.);
#915=ADVANCED_FACE('',(#99),#884,.F.);
#916=ADVANCED_FACE('',(#100),#72,.F.);
#917=ADVANCED_FACE('',(#101),#885,.F.);
#918=ADVANCED_FACE('',(#102),#73,.T.);
#919=ADVANCED_FACE('',(#103),#886,.F.);
#920=ADVANCED_FACE('',(#104),#74,.T.);
#921=ADVANCED_FACE('',(#105),#887,.F.);
#922=ADVANCED_FACE('',(#106),#888,.T.);
#923=ADVANCED_FACE('',(#107),#889,.F.);
#924=ADVANCED_FACE('',(#108),#890,.T.);
#925=ADVANCED_FACE('',(#109),#891,.F.);
#926=ADVANCED_FACE('',(#110),#892,.T.);
#927=ADVANCED_FACE('',(#111),#893,.F.);
#928=ADVANCED_FACE('',(#112),#894,.T.);
#929=ADVANCED_FACE('',(#113),#75,.T.);
#930=ADVANCED_FACE('',(#114),#895,.F.);
#931=ADVANCED_FACE('',(#115),#896,.F.);
#932=ADVANCED_FACE('',(#116),#76,.T.);
#933=ADVANCED_FACE('',(#117),#897,.F.);
#934=ADVANCED_FACE('',(#118),#77,.T.);
#935=ADVANCED_FACE('',(#119),#78,.T.);
#936=ADVANCED_FACE('',(#120),#898,.F.);
#937=ADVANCED_FACE('',(#121,#19,#20,#21,#22,#23,#24,#25,#26),#79,.T.);
#938=ADVANCED_FACE('',(#122),#15,.F.);
#939=ADVANCED_FACE('',(#123),#899,.F.);
#940=ADVANCED_FACE('',(#124),#16,.F.);
#941=ADVANCED_FACE('',(#125),#900,.F.);
#942=ADVANCED_FACE('',(#126),#17,.F.);
#943=ADVANCED_FACE('',(#127),#901,.F.);
#944=ADVANCED_FACE('',(#128),#18,.F.);
#945=ADVANCED_FACE('',(#129),#902,.F.);
#946=ADVANCED_FACE('',(#130),#903,.F.);
#947=ADVANCED_FACE('',(#131),#904,.F.);
#948=ADVANCED_FACE('',(#132),#80,.T.);
#949=ADVANCED_FACE('',(#133),#81,.T.);
#950=ADVANCED_FACE('',(#134),#82,.T.);
#951=ADVANCED_FACE('',(#135,#27,#28),#83,.T.);
#952=ADVANCED_FACE('',(#136),#84,.T.);
#953=ADVANCED_FACE('',(#137,#29,#30),#85,.T.);
#954=ADVANCED_FACE('',(#138),#86,.T.);
#955=ADVANCED_FACE('',(#139),#87,.T.);
#956=ADVANCED_FACE('',(#140,#31,#32,#33,#34),#88,.F.);
#957=CLOSED_SHELL('',(#905,#906,#907,#908,#909,#910,#911,#912,#913,#914,
#915,#916,#917,#918,#919,#920,#921,#922,#923,#924,#925,#926,#927,#928,#929,
#930,#931,#932,#933,#934,#935,#936,#937,#938,#939,#940,#941,#942,#943,#944,
#945,#946,#947,#948,#949,#950,#951,#952,#953,#954,#955,#956));
#958=DERIVED_UNIT_ELEMENT(#960,1.);
#959=DERIVED_UNIT_ELEMENT(#1799,-3.);
#960=(
MASS_UNIT()
NAMED_UNIT(*)
SI_UNIT(.KILO.,.GRAM.)
);
#961=DERIVED_UNIT((#958,#959));
#962=MEASURE_REPRESENTATION_ITEM('density measure',
POSITIVE_RATIO_MEASURE(7850.),#961);
#963=PROPERTY_DEFINITION_REPRESENTATION(#968,#965);
#964=PROPERTY_DEFINITION_REPRESENTATION(#969,#966);
#965=REPRESENTATION('material name',(#967),#1796);
#966=REPRESENTATION('density',(#962),#1796);
#967=DESCRIPTIVE_REPRESENTATION_ITEM('Steel','Steel');
#968=PROPERTY_DEFINITION('material property','material name',#1806);
#969=PROPERTY_DEFINITION('material property','density of part',#1806);
#970=AXIS2_PLACEMENT_3D('',#1303,#1055,#1056);
#971=AXIS2_PLACEMENT_3D('',#1304,#1057,#1058);
#972=AXIS2_PLACEMENT_3D('',#1342,#1061,#1062);
#973=AXIS2_PLACEMENT_3D('',#1344,#1063,#1064);
#974=AXIS2_PLACEMENT_3D('',#1347,#1066,#1067);
#975=AXIS2_PLACEMENT_3D('',#1348,#1068,#1069);
#976=AXIS2_PLACEMENT_3D('',#1386,#1072,#1073);
#977=AXIS2_PLACEMENT_3D('',#1388,#1074,#1075);
#978=AXIS2_PLACEMENT_3D('',#1391,#1077,#1078);
#979=AXIS2_PLACEMENT_3D('',#1392,#1079,#1080);
#980=AXIS2_PLACEMENT_3D('',#1430,#1083,#1084);
#981=AXIS2_PLACEMENT_3D('',#1432,#1085,#1086);
#982=AXIS2_PLACEMENT_3D('',#1435,#1088,#1089);
#983=AXIS2_PLACEMENT_3D('',#1436,#1090,#1091);
#984=AXIS2_PLACEMENT_3D('',#1474,#1094,#1095);
#985=AXIS2_PLACEMENT_3D('',#1476,#1096,#1097);
#986=AXIS2_PLACEMENT_3D('',#1479,#1099,#1100);
#987=AXIS2_PLACEMENT_3D('',#1480,#1101,#1102);
#988=AXIS2_PLACEMENT_3D('',#1518,#1105,#1106);
#989=AXIS2_PLACEMENT_3D('',#1520,#1107,#1108);
#990=AXIS2_PLACEMENT_3D('',#1523,#1110,#1111);
#991=AXIS2_PLACEMENT_3D('',#1524,#1112,#1113);
#992=AXIS2_PLACEMENT_3D('',#1562,#1116,#1117);
#993=AXIS2_PLACEMENT_3D('',#1564,#1118,#1119);
#994=AXIS2_PLACEMENT_3D('',#1567,#1121,#1122);
#995=AXIS2_PLACEMENT_3D('',#1568,#1123,#1124);
#996=AXIS2_PLACEMENT_3D('',#1606,#1127,#1128);
#997=AXIS2_PLACEMENT_3D('',#1608,#1129,#1130);
#998=AXIS2_PLACEMENT_3D('',#1611,#1132,#1133);
#999=AXIS2_PLACEMENT_3D('',#1612,#1134,#1135);
#1000=AXIS2_PLACEMENT_3D('',#1650,#1138,#1139);
#1001=AXIS2_PLACEMENT_3D('',#1652,#1140,#1141);
#1002=AXIS2_PLACEMENT_3D('',#1655,#1143,#1144);
#1003=AXIS2_PLACEMENT_3D('',#1656,#1145,#1146);
#1004=AXIS2_PLACEMENT_3D('',#1659,#1149,#1150);
#1005=AXIS2_PLACEMENT_3D('',#1661,#1152,#1153);
#1006=AXIS2_PLACEMENT_3D('',#1664,#1156,#1157);
#1007=AXIS2_PLACEMENT_3D('',#1666,#1159,#1160);
#1008=AXIS2_PLACEMENT_3D('',#1669,#1163,#1164);
#1009=AXIS2_PLACEMENT_3D('',#1671,#1166,#1167);
#1010=AXIS2_PLACEMENT_3D('',#1674,#1170,#1171);
#1011=AXIS2_PLACEMENT_3D('',#1676,#1173,#1174);
#1012=AXIS2_PLACEMENT_3D('',#1678,#1176,#1177);
#1013=AXIS2_PLACEMENT_3D('',#1680,#1179,#1180);
#1014=AXIS2_PLACEMENT_3D('',#1683,#1183,#1184);
#1015=AXIS2_PLACEMENT_3D('',#1684,#1185,#1186);
#1016=AXIS2_PLACEMENT_3D('',#1687,#1189,#1190);
#1017=AXIS2_PLACEMENT_3D('',#1688,#1191,#1192);
#1018=AXIS2_PLACEMENT_3D('',#1690,#1194,#1195);
#1019=AXIS2_PLACEMENT_3D('',#1692,#1197,#1198);
#1020=AXIS2_PLACEMENT_3D('',#1702,#1203,#1204);
#1021=AXIS2_PLACEMENT_3D('',#1704,#1205,#1206);
#1022=AXIS2_PLACEMENT_3D('',#1706,#1207,#1208);
#1023=AXIS2_PLACEMENT_3D('',#1708,#1209,#1210);
#1024=AXIS2_PLACEMENT_3D('',#1709,#1211,#1212);
#1025=AXIS2_PLACEMENT_3D('',#1712,#1214,#1215);
#1026=AXIS2_PLACEMENT_3D('',#1713,#1216,#1217);
#1027=AXIS2_PLACEMENT_3D('',#1716,#1219,#1220);
#1028=AXIS2_PLACEMENT_3D('',#1717,#1221,#1222);
#1029=AXIS2_PLACEMENT_3D('',#1720,#1224,#1225);
#1030=AXIS2_PLACEMENT_3D('',#1721,#1226,#1227);
#1031=AXIS2_PLACEMENT_3D('',#1724,#1229,#1230);
#1032=AXIS2_PLACEMENT_3D('',#1725,#1231,#1232);
#1033=AXIS2_PLACEMENT_3D('',#1728,#1234,#1235);
#1034=AXIS2_PLACEMENT_3D('',#1729,#1236,#1237);
#1035=AXIS2_PLACEMENT_3D('',#1732,#1239,#1240);
#1036=AXIS2_PLACEMENT_3D('',#1733,#1241,#1242);
#1037=AXIS2_PLACEMENT_3D('',#1736,#1244,#1245);
#1038=AXIS2_PLACEMENT_3D('',#1737,#1246,#1247);
#1039=AXIS2_PLACEMENT_3D('',#1740,#1249,#1250);
#1040=AXIS2_PLACEMENT_3D('',#1741,#1251,#1252);
#1041=AXIS2_PLACEMENT_3D('',#1743,#1253,#1254);
#1042=AXIS2_PLACEMENT_3D('',#1746,#1256,#1257);
#1043=AXIS2_PLACEMENT_3D('',#1747,#1258,#1259);
#1044=AXIS2_PLACEMENT_3D('',#1749,#1260,#1261);
#1045=AXIS2_PLACEMENT_3D('',#1752,#1263,#1264);
#1046=AXIS2_PLACEMENT_3D('',#1753,#1265,#1266);
#1047=AXIS2_PLACEMENT_3D('',#1759,#1270,#1271);
#1048=AXIS2_PLACEMENT_3D('',#1771,#1278,#1279);
#1049=AXIS2_PLACEMENT_3D('',#1777,#1283,#1284);
#1050=AXIS2_PLACEMENT_3D('',#1781,#1287,#1288);
#1051=AXIS2_PLACEMENT_3D('',#1783,#1290,#1291);
#1052=AXIS2_PLACEMENT_3D('',#1787,#1294,#1295);
#1053=AXIS2_PLACEMENT_3D('',#1791,#1298,#1299);
#1054=AXIS2_PLACEMENT_3D('',#1793,#1301,#1302);
#1055=DIRECTION('axis',(0.,0.,1.));
#1056=DIRECTION('refdir',(1.,0.,0.));
#1057=DIRECTION('center_axis',(0.,-1.,0.));
#1058=DIRECTION('ref_axis',(-0.707106781186547,0.,-0.707106781186547));
#1059=DIRECTION('',(0.,-1.,0.));
#1060=DIRECTION('',(0.,1.,0.));
#1061=DIRECTION('center_axis',(-1.,0.,0.));
#1062=DIRECTION('ref_axis',(0.,-1.,0.));
#1063=DIRECTION('center_axis',(1.,0.,0.));
#1064=DIRECTION('ref_axis',(0.,-1.,0.));
#1065=DIRECTION('',(0.,0.,-1.));
#1066=DIRECTION('center_axis',(-1.,0.,0.));
#1067=DIRECTION('ref_axis',(0.,-1.,0.));
#1068=DIRECTION('center_axis',(0.,-1.,0.));
#1069=DIRECTION('ref_axis',(-0.707106781186547,0.,-0.707106781186547));
#1070=DIRECTION('',(0.,1.,0.));
#1071=DIRECTION('',(0.,-1.,0.));
#1072=DIRECTION('center_axis',(-1.,0.,0.));
#1073=DIRECTION('ref_axis',(0.,-1.,0.));
#1074=DIRECTION('center_axis',(-1.,0.,0.));
#1075=DIRECTION('ref_axis',(0.,-1.,0.));
#1076=DIRECTION('',(0.,0.,1.));
#1077=DIRECTION('center_axis',(1.,0.,0.));
#1078=DIRECTION('ref_axis',(0.,-1.,0.));
#1079=DIRECTION('center_axis',(0.,-1.,0.));
#1080=DIRECTION('ref_axis',(-0.707106781186547,0.,-0.707106781186547));
#1081=DIRECTION('',(0.,-1.,0.));
#1082=DIRECTION('',(0.,1.,0.));
#1083=DIRECTION('center_axis',(1.,0.,0.));
#1084=DIRECTION('ref_axis',(0.,1.,0.));
#1085=DIRECTION('center_axis',(1.,0.,0.));
#1086=DIRECTION('ref_axis',(0.,1.,0.));
#1087=DIRECTION('',(0.,0.,-1.));
#1088=DIRECTION('center_axis',(1.,0.,0.));
#1089=DIRECTION('ref_axis',(0.,1.,0.));
#1090=DIRECTION('center_axis',(0.,-1.,0.));
#1091=DIRECTION('ref_axis',(-0.707106781186547,0.,-0.707106781186547));
#1092=DIRECTION('',(0.,1.,0.));
#1093=DIRECTION('',(0.,-1.,0.));
#1094=DIRECTION('center_axis',(1.,0.,0.));
#1095=DIRECTION('ref_axis',(0.,1.,0.));
#1096=DIRECTION('center_axis',(1.,0.,0.));
#1097=DIRECTION('ref_axis',(0.,1.,0.));
#1098=DIRECTION('',(0.,0.,1.));
#1099=DIRECTION('center_axis',(1.,0.,0.));
#1100=DIRECTION('ref_axis',(0.,1.,0.));
#1101=DIRECTION('center_axis',(0.,1.,0.));
#1102=DIRECTION('ref_axis',(0.707106781186547,0.,-0.707106781186547));
#1103=DIRECTION('',(0.,-1.,0.));
#1104=DIRECTION('',(0.,1.,0.));
#1105=DIRECTION('center_axis',(1.,0.,0.));
#1106=DIRECTION('ref_axis',(0.,1.,0.));
#1107=DIRECTION('center_axis',(1.,0.,0.));
#1108=DIRECTION('ref_axis',(0.,1.,0.));
#1109=DIRECTION('',(0.,0.,1.));
#1110=DIRECTION('center_axis',(-1.,0.,0.));
#1111=DIRECTION('ref_axis',(0.,1.,0.));
#1112=DIRECTION('center_axis',(0.,1.,0.));
#1113=DIRECTION('ref_axis',(0.707106781186547,0.,-0.707106781186547));
#1114=DIRECTION('',(0.,1.,0.));
#1115=DIRECTION('',(0.,-1.,0.));
#1116=DIRECTION('center_axis',(1.,0.,0.));
#1117=DIRECTION('ref_axis',(0.,1.,0.));
#1118=DIRECTION('center_axis',(-1.,0.,0.));
#1119=DIRECTION('ref_axis',(0.,1.,0.));
#1120=DIRECTION('',(0.,0.,-1.));
#1121=DIRECTION('center_axis',(1.,0.,0.));
#1122=DIRECTION('ref_axis',(0.,1.,0.));
#1123=DIRECTION('center_axis',(0.,1.,0.));
#1124=DIRECTION('ref_axis',(0.707106781186547,0.,-0.707106781186547));
#1125=DIRECTION('',(0.,-1.,0.));
#1126=DIRECTION('',(0.,1.,0.));
#1127=DIRECTION('center_axis',(-1.,0.,0.));
#1128=DIRECTION('ref_axis',(0.,-1.,0.));
#1129=DIRECTION('center_axis',(-1.,0.,0.));
#1130=DIRECTION('ref_axis',(0.,-1.,0.));
#1131=DIRECTION('',(0.,0.,1.));
#1132=DIRECTION('center_axis',(-1.,0.,0.));
#1133=DIRECTION('ref_axis',(0.,-1.,0.));
#1134=DIRECTION('center_axis',(0.,1.,0.));
#1135=DIRECTION('ref_axis',(0.707106781186547,0.,-0.707106781186547));
#1136=DIRECTION('',(0.,1.,0.));
#1137=DIRECTION('',(0.,-1.,0.));
#1138=DIRECTION('center_axis',(-1.,0.,0.));
#1139=DIRECTION('ref_axis',(0.,-1.,0.));
#1140=DIRECTION('center_axis',(-1.,0.,0.));
#1141=DIRECTION('ref_axis',(0.,-1.,0.));
#1142=DIRECTION('',(0.,0.,-1.));
#1143=DIRECTION('center_axis',(-1.,0.,0.));
#1144=DIRECTION('ref_axis',(0.,-1.,0.));
#1145=DIRECTION('center_axis',(-1.,0.,0.));
#1146=DIRECTION('ref_axis',(0.,0.724568837309472,-0.689202437604511));
#1147=DIRECTION('',(-1.,0.,0.));
#1148=DIRECTION('',(1.,0.,0.));
#1149=DIRECTION('center_axis',(1.,0.,0.));
#1150=DIRECTION('ref_axis',(0.,-1.,0.));
#1151=DIRECTION('',(1.,0.,0.));
#1152=DIRECTION('center_axis',(-1.,0.,0.));
#1153=DIRECTION('ref_axis',(0.,0.724568837309472,-0.689202437604511));
#1154=DIRECTION('',(-1.,0.,0.));
#1155=DIRECTION('',(1.,0.,0.));
#1156=DIRECTION('center_axis',(-1.,0.,0.));
#1157=DIRECTION('ref_axis',(0.,-0.724568838410036,0.689202436447472));
#1158=DIRECTION('',(-1.,0.,0.));
#1159=DIRECTION('center_axis',(1.,0.,0.));
#1160=DIRECTION('ref_axis',(0.,-0.724568837309472,-0.689202437604511));
#1161=DIRECTION('',(1.,0.,0.));
#1162=DIRECTION('',(-1.,0.,0.));
#1163=DIRECTION('center_axis',(1.,0.,0.));
#1164=DIRECTION('ref_axis',(0.,0.724568837309687,0.689202437604285));
#1165=DIRECTION('',(1.,0.,0.));
#1166=DIRECTION('center_axis',(1.,0.,0.));
#1167=DIRECTION('ref_axis',(0.,-0.724568837309472,-0.689202437604511));
#1168=DIRECTION('',(1.,0.,0.));
#1169=DIRECTION('',(-1.,0.,0.));
#1170=DIRECTION('center_axis',(-1.,0.,0.));
#1171=DIRECTION('ref_axis',(0.,1.,0.));
#1172=DIRECTION('',(-1.,0.,0.));
#1173=DIRECTION('center_axis',(0.,1.,0.));
#1174=DIRECTION('ref_axis',(0.,0.,1.));
#1175=DIRECTION('',(1.,0.,0.));
#1176=DIRECTION('center_axis',(1.,0.,0.));
#1177=DIRECTION('ref_axis',(0.,-1.,0.));
#1178=DIRECTION('',(-1.,0.,0.));
#1179=DIRECTION('center_axis',(1.,0.,0.));
#1180=DIRECTION('ref_axis',(0.,1.,1.22464679914735E-16));
#1181=DIRECTION('',(-1.,0.,0.));
#1182=DIRECTION('',(1.,0.,0.));
#1183=DIRECTION('center_axis',(0.,-1.,0.));
#1184=DIRECTION('ref_axis',(0.,0.,-1.));
#1185=DIRECTION('center_axis',(-1.,0.,0.));
#1186=DIRECTION('ref_axis',(0.,-1.,-3.19310610141079E-9));
#1187=DIRECTION('',(1.,0.,0.));
#1188=DIRECTION('',(-1.,0.,0.));
#1189=DIRECTION('center_axis',(0.,1.,0.));
#1190=DIRECTION('ref_axis',(0.,0.,-1.));
#1191=DIRECTION('center_axis',(0.,-1.,0.));
#1192=DIRECTION('ref_axis',(0.,0.,1.));
#1193=DIRECTION('',(-1.,0.,0.));
#1194=DIRECTION('center_axis',(-1.,0.,0.));
#1195=DIRECTION('ref_axis',(0.,1.,0.));
#1196=DIRECTION('',(1.,0.,0.));
#1197=DIRECTION('center_axis',(0.,0.,1.));
#1198=DIRECTION('ref_axis',(1.,0.,0.));
#1199=DIRECTION('',(0.,1.,0.));
#1200=DIRECTION('',(1.,-3.97395266085067E-17,0.));
#1201=DIRECTION('',(0.,-1.,0.));
#1202=DIRECTION('',(-1.,0.,0.));
#1203=DIRECTION('center_axis',(0.,0.,-1.));
#1204=DIRECTION('ref_axis',(1.,0.,0.));
#1205=DIRECTION('center_axis',(0.,0.,-1.));
#1206=DIRECTION('ref_axis',(1.,0.,0.));
#1207=DIRECTION('center_axis',(0.,0.,-1.));
#1208=DIRECTION('ref_axis',(1.,0.,0.));
#1209=DIRECTION('center_axis',(0.,0.,-1.));
#1210=DIRECTION('ref_axis',(1.,0.,0.));
#1211=DIRECTION('center_axis',(0.,0.,1.));
#1212=DIRECTION('ref_axis',(1.,0.,0.));
#1213=DIRECTION('',(0.766044443118978,-9.38133875270273E-17,-0.642787609686539));
#1214=DIRECTION('center_axis',(0.,0.,-1.));
#1215=DIRECTION('ref_axis',(1.,0.,0.));
#1216=DIRECTION('center_axis',(0.,0.,-1.));
#1217=DIRECTION('ref_axis',(1.,0.,0.));
#1218=DIRECTION('',(0.,0.,-1.));
#1219=DIRECTION('center_axis',(0.,0.,1.));
#1220=DIRECTION('ref_axis',(1.,0.,0.));
#1221=DIRECTION('center_axis',(0.,0.,1.));
#1222=DIRECTION('ref_axis',(1.,0.,0.));
#1223=DIRECTION('',(0.766044443118978,-9.38133875270273E-17,-0.642787609686539));
#1224=DIRECTION('center_axis',(0.,0.,-1.));
#1225=DIRECTION('ref_axis',(1.,0.,0.));
#1226=DIRECTION('center_axis',(0.,0.,-1.));
#1227=DIRECTION('ref_axis',(1.,0.,0.));
#1228=DIRECTION('',(0.,0.,-1.));
#1229=DIRECTION('center_axis',(0.,0.,1.));
#1230=DIRECTION('ref_axis',(1.,0.,0.));
#1231=DIRECTION('center_axis',(0.,0.,1.));
#1232=DIRECTION('ref_axis',(1.,0.,0.));
#1233=DIRECTION('',(0.766044443118978,-9.38133875270273E-17,-0.642787609686539));
#1234=DIRECTION('center_axis',(0.,0.,-1.));
#1235=DIRECTION('ref_axis',(1.,0.,0.));
#1236=DIRECTION('center_axis',(0.,0.,-1.));
#1237=DIRECTION('ref_axis',(1.,0.,0.));
#1238=DIRECTION('',(0.,0.,-1.));
#1239=DIRECTION('center_axis',(0.,0.,1.));
#1240=DIRECTION('ref_axis',(1.,0.,0.));
#1241=DIRECTION('center_axis',(0.,0.,1.));
#1242=DIRECTION('ref_axis',(1.,0.,0.));
#1243=DIRECTION('',(0.766044443118978,-9.38133875270273E-17,-0.642787609686539));
#1244=DIRECTION('center_axis',(0.,0.,-1.));
#1245=DIRECTION('ref_axis',(1.,0.,0.));
#1246=DIRECTION('center_axis',(0.,0.,-1.));
#1247=DIRECTION('ref_axis',(1.,0.,0.));
#1248=DIRECTION('',(0.,0.,-1.));
#1249=DIRECTION('center_axis',(0.,0.,1.));
#1250=DIRECTION('ref_axis',(1.,0.,0.));
#1251=DIRECTION('center_axis',(0.,0.,1.));
#1252=DIRECTION('ref_axis',(-1.,0.,0.));
#1253=DIRECTION('center_axis',(0.,0.,1.));
#1254=DIRECTION('ref_axis',(-1.,0.,0.));
#1255=DIRECTION('',(0.,0.,1.));
#1256=DIRECTION('center_axis',(0.,0.,-1.));
#1257=DIRECTION('ref_axis',(-1.,0.,0.));
#1258=DIRECTION('center_axis',(0.,0.,1.));
#1259=DIRECTION('ref_axis',(-1.,0.,0.));
#1260=DIRECTION('center_axis',(0.,0.,1.));
#1261=DIRECTION('ref_axis',(-1.,0.,0.));
#1262=DIRECTION('',(0.,0.,1.));
#1263=DIRECTION('center_axis',(0.,0.,-1.));
#1264=DIRECTION('ref_axis',(-1.,0.,0.));
#1265=DIRECTION('center_axis',(-0.707106781186548,0.,0.707106781186548));
#1266=DIRECTION('ref_axis',(0.707106781186548,0.,0.707106781186548));
#1267=DIRECTION('',(0.707106781186548,-2.81000887460183E-17,0.707106781186548));
#1268=DIRECTION('',(-0.707106781186548,0.,-0.707106781186548));
#1269=DIRECTION('',(0.,1.,0.));
#1270=DIRECTION('center_axis',(-3.97395266085067E-17,-1.,0.));
#1271=DIRECTION('ref_axis',(1.,-3.97395266085067E-17,0.));
#1272=DIRECTION('',(-1.,3.97395266085067E-17,0.));
#1273=DIRECTION('',(0.,0.,1.));
#1274=DIRECTION('',(-1.,0.,0.));
#1275=DIRECTION('',(0.894427190999916,-3.55441131561131E-17,-0.447213595499958));
#1276=DIRECTION('',(1.,0.,0.));
#1277=DIRECTION('',(0.970142500145332,-3.85530036985686E-17,0.242535625036333));
#1278=DIRECTION('center_axis',(0.447213595499958,0.,0.894427190999916));
#1279=DIRECTION('ref_axis',(0.894427190999916,0.,-0.447213595499958));
#1280=DIRECTION('',(-0.894427190999916,0.,0.447213595499958));
#1281=DIRECTION('',(0.,-1.,0.));
#1282=DIRECTION('',(0.,-1.,0.));
#1283=DIRECTION('center_axis',(0.,0.,1.));
#1284=DIRECTION('ref_axis',(1.,0.,0.));
#1285=DIRECTION('',(-1.,1.74838271594513E-16,0.));
#1286=DIRECTION('',(0.,-1.,0.));
#1287=DIRECTION('center_axis',(-0.242535625036333,0.,0.970142500145332));
#1288=DIRECTION('ref_axis',(0.970142500145332,0.,0.242535625036333));
#1289=DIRECTION('',(-0.970142500145332,0.,-0.242535625036333));
#1290=DIRECTION('center_axis',(0.,0.,-1.));
#1291=DIRECTION('ref_axis',(-1.,0.,0.));
#1292=DIRECTION('',(0.,-1.,0.));
#1293=DIRECTION('',(1.,-1.74838271594513E-16,0.));
#1294=DIRECTION('center_axis',(0.,1.,0.));
#1295=DIRECTION('ref_axis',(-1.,0.,0.));
#1296=DIRECTION('',(0.,0.,1.));
#1297=DIRECTION('',(1.,0.,0.));
#1298=DIRECTION('center_axis',(1.,0.,0.));
#1299=DIRECTION('ref_axis',(0.,1.,0.));
#1300=DIRECTION('',(0.,-1.,0.));
#1301=DIRECTION('center_axis',(0.,0.,1.));
#1302=DIRECTION('ref_axis',(1.,0.,0.));
#1303=CARTESIAN_POINT('',(0.,0.,0.));
#1304=CARTESIAN_POINT('Origin',(-15.7,2.5,10.));
#1305=CARTESIAN_POINT('',(-20.3451587701606,8.49124452440336,8.15));
#1306=CARTESIAN_POINT('',(-20.7,8.33739716558867,10.));
#1307=CARTESIAN_POINT('Ctrl Pts',(-20.3451587701606,8.49124452440336,8.15));
#1308=CARTESIAN_POINT('Ctrl Pts',(-20.5841464432286,8.52128576663126,8.75007334352009));
#1309=CARTESIAN_POINT('Ctrl Pts',(-20.7,8.4692124808624,9.39915089131084));
#1310=CARTESIAN_POINT('Ctrl Pts',(-20.7,8.33739716558867,10.));
#1311=CARTESIAN_POINT('',(-20.7,4.66227766016838,10.));
#1312=CARTESIAN_POINT('',(-20.7,2.5,10.));
#1313=CARTESIAN_POINT('',(-15.7,1.5,5.));
#1314=CARTESIAN_POINT('Ctrl Pts',(-20.7,4.66227766016838,10.));
#1315=CARTESIAN_POINT('Ctrl Pts',(-20.7,4.6921148954031,9.9370975850507));
#1316=CARTESIAN_POINT('Ctrl Pts',(-20.6988108885015,4.72007890339431,9.87329075478381));
#1317=CARTESIAN_POINT('Ctrl Pts',(-20.6799503868692,4.91879065360281,9.38044520852509));
#1318=CARTESIAN_POINT('Ctrl Pts',(-20.6016195703983,5.,8.91949019545148));
#1319=CARTESIAN_POINT('Ctrl Pts',(-20.3277098165119,5.,8.04851268917583));
#1320=CARTESIAN_POINT('Ctrl Pts',(-20.1108594823933,4.90840907590816,7.59727769666122));
#1321=CARTESIAN_POINT('Ctrl Pts',(-19.5753660680096,4.59159060779821,6.80464530066601));
#1322=CARTESIAN_POINT('Ctrl Pts',(-19.2572854608388,4.36771698306423,6.46232767464058));
#1323=CARTESIAN_POINT('Ctrl Pts',(-18.4814953986208,3.78894603107058,5.80085102615268));
#1324=CARTESIAN_POINT('Ctrl Pts',(-17.941076581363,3.35651637437292,5.49081953750833));
#1325=CARTESIAN_POINT('Ctrl Pts',(-16.818492703618,2.4362146854791,5.09040696381266));
#1326=CARTESIAN_POINT('Ctrl Pts',(-16.2361477398577,1.94857338225549,5.));
#1327=CARTESIAN_POINT('Ctrl Pts',(-15.7,1.5,5.));
#1328=CARTESIAN_POINT('',(-15.7,11.4874921777191,5.));
#1329=CARTESIAN_POINT('',(-15.7,2.5,5.));
#1330=CARTESIAN_POINT('Ctrl Pts',(-15.7,11.4874921777191,5.));
#1331=CARTESIAN_POINT('Ctrl Pts',(-16.196152770926,11.1031738939249,5.));
#1332=CARTESIAN_POINT('Ctrl Pts',(-16.7356166364031,10.6848381153443,5.07752054065002));
#1333=CARTESIAN_POINT('Ctrl Pts',(-17.7821803980749,9.89577539915796,5.42093528738469));
#1334=CARTESIAN_POINT('Ctrl Pts',(-18.2895047430895,9.5254342838037,5.68703180834206));
#1335=CARTESIAN_POINT('Ctrl Pts',(-19.029446210508,9.03142741990099,6.2508463032146));
#1336=CARTESIAN_POINT('Ctrl Pts',(-19.3383142423147,8.83969377105596,6.54293539167603));
#1337=CARTESIAN_POINT('Ctrl Pts',(-19.8799034344988,8.56710539244254,7.22204477211133));
#1338=CARTESIAN_POINT('Ctrl Pts',(-20.112290957199,8.48749217771909,7.6098286497667));
#1339=CARTESIAN_POINT('Ctrl Pts',(-20.304079305913,8.48749217771909,8.04927096246307));
#1340=CARTESIAN_POINT('Ctrl Pts',(-20.3249760037734,8.48870750914192,8.09932315984341));
#1341=CARTESIAN_POINT('Ctrl Pts',(-20.3451587701609,8.4912445244034,8.15000000000078));
#1342=CARTESIAN_POINT('Origin',(-20.7,5.,8.5));
#1343=CARTESIAN_POINT('',(-20.7,1.5,15.5));
#1344=CARTESIAN_POINT('Origin',(-20.7,1.5,8.5));
#1345=CARTESIAN_POINT('',(-20.7,1.5,12.));
#1346=CARTESIAN_POINT('',(-20.7,1.5,8.5));
#1347=CARTESIAN_POINT('Origin',(-20.7,1.5,8.5));
#1348=CARTESIAN_POINT('Origin',(-15.7,-2.5,10.));
#1349=CARTESIAN_POINT('',(-15.7,-11.4874921777191,5.));
#1350=CARTESIAN_POINT('',(-20.3451587701606,-8.49124452440336,8.15));
#1351=CARTESIAN_POINT('Ctrl Pts',(-20.3451587701597,-8.49124452440325,8.14999999999774));
#1352=CARTESIAN_POINT('Ctrl Pts',(-20.3249760037726,-8.48870750914187,8.09932315984141));
#1353=CARTESIAN_POINT('Ctrl Pts',(-20.3040793059126,-8.48749217771909,8.04927096246208));
#1354=CARTESIAN_POINT('Ctrl Pts',(-20.112290957199,-8.48749217771909,7.6098286497667));
#1355=CARTESIAN_POINT('Ctrl Pts',(-19.8799034344988,-8.56710539244254,7.22204477211133));
#1356=CARTESIAN_POINT('Ctrl Pts',(-19.3383142423147,-8.83969377105596,6.54293539167603));
#1357=CARTESIAN_POINT('Ctrl Pts',(-19.029446210508,-9.031427419901,6.2508463032146));
#1358=CARTESIAN_POINT('Ctrl Pts',(-18.2895047430895,-9.5254342838037,5.68703180834205));
#1359=CARTESIAN_POINT('Ctrl Pts',(-17.7821803980749,-9.89577539915796,5.42093528738469));
#1360=CARTESIAN_POINT('Ctrl Pts',(-16.7356166364031,-10.6848381153443,5.07752054065002));
#1361=CARTESIAN_POINT('Ctrl Pts',(-16.196152770926,-11.1031738939249,5.));
#1362=CARTESIAN_POINT('Ctrl Pts',(-15.7,-11.4874921777191,5.));
#1363=CARTESIAN_POINT('',(-15.7,-1.5,5.));
#1364=CARTESIAN_POINT('',(-15.7,-2.5,5.));
#1365=CARTESIAN_POINT('',(-20.7,-4.66227766016838,10.));
#1366=CARTESIAN_POINT('Ctrl Pts',(-15.7,-1.5,5.));
#1367=CARTESIAN_POINT('Ctrl Pts',(-16.2361477398577,-1.94857338225549,5.));
#1368=CARTESIAN_POINT('Ctrl Pts',(-16.818492703618,-2.43621468547911,5.09040696381266));
#1369=CARTESIAN_POINT('Ctrl Pts',(-17.941076581363,-3.35651637437292,5.49081953750833));
#1370=CARTESIAN_POINT('Ctrl Pts',(-18.4814953986208,-3.78894603107058,5.80085102615268));
#1371=CARTESIAN_POINT('Ctrl Pts',(-19.2572854608388,-4.36771698306423,6.46232767464058));
#1372=CARTESIAN_POINT('Ctrl Pts',(-19.5753660680096,-4.59159060779821,6.80464530066601));
#1373=CARTESIAN_POINT('Ctrl Pts',(-20.1108594823933,-4.90840907590816,7.59727769666122));
#1374=CARTESIAN_POINT('Ctrl Pts',(-20.3277098165119,-5.,8.04851268917583));
#1375=CARTESIAN_POINT('Ctrl Pts',(-20.6016195703983,-5.,8.91949019545148));
#1376=CARTESIAN_POINT('Ctrl Pts',(-20.6799503868692,-4.91879065360281,9.38044520852509));
#1377=CARTESIAN_POINT('Ctrl Pts',(-20.6988108885015,-4.72007890339431,9.87329075478381));
#1378=CARTESIAN_POINT('Ctrl Pts',(-20.7,-4.6921148954031,9.93709758505071));
#1379=CARTESIAN_POINT('Ctrl Pts',(-20.7,-4.66227766016838,10.));
#1380=CARTESIAN_POINT('',(-20.7,-8.33739716558867,10.));
#1381=CARTESIAN_POINT('',(-20.7,-2.5,10.));
#1382=CARTESIAN_POINT('Ctrl Pts',(-20.7,-8.33739716558867,10.));
#1383=CARTESIAN_POINT('Ctrl Pts',(-20.7,-8.46921248086272,9.39915089130939));
#1384=CARTESIAN_POINT('Ctrl Pts',(-20.584146443228,-8.52128576663148,8.75007334351696));
#1385=CARTESIAN_POINT('Ctrl Pts',(-20.3451587701589,-8.49124452440314,8.14999999999564));
#1386=CARTESIAN_POINT('Origin',(-20.7,-5.,8.5));
#1387=CARTESIAN_POINT('',(-20.7,-1.5,12.));
#1388=CARTESIAN_POINT('Origin',(-20.7,-1.5,8.5));
#1389=CARTESIAN_POINT('',(-20.7,-1.5,15.5));
#1390=CARTESIAN_POINT('',(-20.7,-1.5,16.0307682284193));
#1391=CARTESIAN_POINT('Origin',(-20.7,-1.5,8.5));
#1392=CARTESIAN_POINT('Origin',(84.3,2.5,10.));
#1393=CARTESIAN_POINT('',(79.6548412298394,8.49124452440336,8.15));
#1394=CARTESIAN_POINT('',(79.3,8.33739716558867,10.));
#1395=CARTESIAN_POINT('Ctrl Pts',(79.6548412298394,8.49124452440336,8.15));
#1396=CARTESIAN_POINT('Ctrl Pts',(79.4158535567714,8.52128576663126,8.75007334352008));
#1397=CARTESIAN_POINT('Ctrl Pts',(79.3,8.4692124808624,9.39915089131084));
#1398=CARTESIAN_POINT('Ctrl Pts',(79.3,8.33739716558867,9.99999999999999));
#1399=CARTESIAN_POINT('',(79.3,4.66227766016838,10.));
#1400=CARTESIAN_POINT('',(79.3,2.5,10.));
#1401=CARTESIAN_POINT('',(84.3,1.5,5.));
#1402=CARTESIAN_POINT('Ctrl Pts',(79.3,4.66227766016838,10.));
#1403=CARTESIAN_POINT('Ctrl Pts',(79.3,4.6921148954031,9.9370975850507));
#1404=CARTESIAN_POINT('Ctrl Pts',(79.3011891114985,4.72007890339431,9.87329075478381));
#1405=CARTESIAN_POINT('Ctrl Pts',(79.3200496131308,4.91879065360281,9.38044520852509));
#1406=CARTESIAN_POINT('Ctrl Pts',(79.3983804296017,5.,8.91949019545148));
#1407=CARTESIAN_POINT('Ctrl Pts',(79.6722901834881,5.,8.04851268917583));
#1408=CARTESIAN_POINT('Ctrl Pts',(79.8891405176067,4.90840907590816,7.59727769666122));
#1409=CARTESIAN_POINT('Ctrl Pts',(80.4246339319904,4.59159060779821,6.80464530066601));
#1410=CARTESIAN_POINT('Ctrl Pts',(80.7427145391611,4.36771698306423,6.46232767464058));
#1411=CARTESIAN_POINT('Ctrl Pts',(81.5185046013791,3.78894603107058,5.80085102615268));
#1412=CARTESIAN_POINT('Ctrl Pts',(82.0589234186369,3.35651637437293,5.49081953750833));
#1413=CARTESIAN_POINT('Ctrl Pts',(83.181507296382,2.4362146854791,5.09040696381266));
#1414=CARTESIAN_POINT('Ctrl Pts',(83.7638522601424,1.94857338225549,5.));
#1415=CARTESIAN_POINT('Ctrl Pts',(84.3,1.5,5.));
#1416=CARTESIAN_POINT('',(84.3,11.4874921777191,5.));
#1417=CARTESIAN_POINT('',(84.3,2.5,5.));
#1418=CARTESIAN_POINT('Ctrl Pts',(84.3,11.4874921777191,5.));
#1419=CARTESIAN_POINT('Ctrl Pts',(83.803847229074,11.1031738939249,5.));
#1420=CARTESIAN_POINT('Ctrl Pts',(83.2643833635969,10.6848381153443,5.07752054065002));
#1421=CARTESIAN_POINT('Ctrl Pts',(82.2178196019251,9.89577539915796,5.42093528738469));
#1422=CARTESIAN_POINT('Ctrl Pts',(81.7104952569105,9.5254342838037,5.68703180834205));
#1423=CARTESIAN_POINT('Ctrl Pts',(80.970553789492,9.031427419901,6.2508463032146));
#1424=CARTESIAN_POINT('Ctrl Pts',(80.6616857576853,8.83969377105596,6.54293539167604));
#1425=CARTESIAN_POINT('Ctrl Pts',(80.1200965655012,8.56710539244254,7.22204477211134));
#1426=CARTESIAN_POINT('Ctrl Pts',(79.887709042801,8.48749217771909,7.6098286497667));
#1427=CARTESIAN_POINT('Ctrl Pts',(79.695920694087,8.48749217771909,8.04927096246307));
#1428=CARTESIAN_POINT('Ctrl Pts',(79.6750239962266,8.48870750914192,8.09932315984341));
#1429=CARTESIAN_POINT('Ctrl Pts',(79.6548412298391,8.4912445244034,8.15000000000078));
#1430=CARTESIAN_POINT('Origin',(79.3,5.,10.25));
#1431=CARTESIAN_POINT('',(79.3,1.5,15.5));
#1432=CARTESIAN_POINT('Origin',(79.3,1.5,8.5));
#1433=CARTESIAN_POINT('',(79.3,1.5,12.));
#1434=CARTESIAN_POINT('',(79.3,1.5,16.2847347904528));
#1435=CARTESIAN_POINT('Origin',(79.3,1.5,8.5));
#1436=CARTESIAN_POINT('Origin',(84.3,-2.5,10.));
#1437=CARTESIAN_POINT('',(84.3,-11.4874921777191,5.));
#1438=CARTESIAN_POINT('',(79.6548412298394,-8.49124452440336,8.15000000000001));
#1439=CARTESIAN_POINT('Ctrl Pts',(79.6548412298403,-8.49124452440325,8.14999999999774));
#1440=CARTESIAN_POINT('Ctrl Pts',(79.6750239962274,-8.48870750914187,8.09932315984141));
#1441=CARTESIAN_POINT('Ctrl Pts',(79.6959206940874,-8.48749217771909,8.04927096246208));
#1442=CARTESIAN_POINT('Ctrl Pts',(79.887709042801,-8.48749217771909,7.6098286497667));
#1443=CARTESIAN_POINT('Ctrl Pts',(80.1200965655012,-8.56710539244254,7.22204477211134));
#1444=CARTESIAN_POINT('Ctrl Pts',(80.6616857576853,-8.83969377105596,6.54293539167604));
#1445=CARTESIAN_POINT('Ctrl Pts',(80.970553789492,-9.03142741990099,6.2508463032146));
#1446=CARTESIAN_POINT('Ctrl Pts',(81.7104952569105,-9.5254342838037,5.68703180834206));
#1447=CARTESIAN_POINT('Ctrl Pts',(82.2178196019251,-9.89577539915796,5.42093528738469));
#1448=CARTESIAN_POINT('Ctrl Pts',(83.2643833635969,-10.6848381153443,5.07752054065002));
#1449=CARTESIAN_POINT('Ctrl Pts',(83.803847229074,-11.1031738939249,5.));
#1450=CARTESIAN_POINT('Ctrl Pts',(84.3,-11.4874921777191,5.));
#1451=CARTESIAN_POINT('',(84.3,-1.5,5.));
#1452=CARTESIAN_POINT('',(84.3,-2.5,5.));
#1453=CARTESIAN_POINT('',(79.3,-4.66227766016838,10.));
#1454=CARTESIAN_POINT('Ctrl Pts',(84.3,-1.5,5.));
#1455=CARTESIAN_POINT('Ctrl Pts',(83.7638522601424,-1.94857338225549,5.));
#1456=CARTESIAN_POINT('Ctrl Pts',(83.181507296382,-2.43621468547911,5.09040696381266));
#1457=CARTESIAN_POINT('Ctrl Pts',(82.058923418637,-3.35651637437293,5.49081953750833));
#1458=CARTESIAN_POINT('Ctrl Pts',(81.5185046013791,-3.78894603107058,5.80085102615268));
#1459=CARTESIAN_POINT('Ctrl Pts',(80.7427145391611,-4.36771698306423,6.46232767464058));
#1460=CARTESIAN_POINT('Ctrl Pts',(80.4246339319904,-4.59159060779821,6.80464530066601));
#1461=CARTESIAN_POINT('Ctrl Pts',(79.8891405176067,-4.90840907590816,7.59727769666122));
#1462=CARTESIAN_POINT('Ctrl Pts',(79.6722901834881,-5.,8.04851268917583));
#1463=CARTESIAN_POINT('Ctrl Pts',(79.3983804296017,-5.,8.91949019545148));
#1464=CARTESIAN_POINT('Ctrl Pts',(79.3200496131308,-4.91879065360281,9.38044520852509));
#1465=CARTESIAN_POINT('Ctrl Pts',(79.3011891114985,-4.72007890339431,9.87329075478381));
#1466=CARTESIAN_POINT('Ctrl Pts',(79.3,-4.6921148954031,9.93709758505071));
#1467=CARTESIAN_POINT('Ctrl Pts',(79.3,-4.66227766016838,10.));
#1468=CARTESIAN_POINT('',(79.3,-8.33739716558867,10.));
#1469=CARTESIAN_POINT('',(79.3,-2.5,10.));
#1470=CARTESIAN_POINT('Ctrl Pts',(79.3,-8.33739716558867,9.99999999999999));
#1471=CARTESIAN_POINT('Ctrl Pts',(79.3,-8.46921248086272,9.39915089130938));
#1472=CARTESIAN_POINT('Ctrl Pts',(79.415853556772,-8.52128576663147,8.75007334351694));
#1473=CARTESIAN_POINT('Ctrl Pts',(79.6548412298411,-8.49124452440314,8.14999999999564));
#1474=CARTESIAN_POINT('Origin',(79.3,-5.,10.25));
#1475=CARTESIAN_POINT('',(79.3,-1.50000002235174,12.));
#1476=CARTESIAN_POINT('Origin',(79.3,-1.5,8.5));
#1477=CARTESIAN_POINT('',(79.3,-1.50000002235174,15.5));
#1478=CARTESIAN_POINT('',(79.3,-1.50000002235174,8.5));
#1479=CARTESIAN_POINT('Origin',(79.3,-1.5,8.5));
#1480=CARTESIAN_POINT('Origin',(64.3,2.5,10.));
#1481=CARTESIAN_POINT('',(64.3,11.4874921777191,5.));
#1482=CARTESIAN_POINT('',(68.9451587701606,8.49124452440336,8.15));
#1483=CARTESIAN_POINT('Ctrl Pts',(68.9451587701597,8.49124452440325,8.14999999999774));
#1484=CARTESIAN_POINT('Ctrl Pts',(68.9249760037726,8.48870750914187,8.09932315984141));
#1485=CARTESIAN_POINT('Ctrl Pts',(68.9040793059126,8.48749217771909,8.04927096246208));
#1486=CARTESIAN_POINT('Ctrl Pts',(68.712290957199,8.48749217771909,7.6098286497667));
#1487=CARTESIAN_POINT('Ctrl Pts',(68.4799034344988,8.56710539244254,7.22204477211133));
#1488=CARTESIAN_POINT('Ctrl Pts',(67.9383142423147,8.83969377105596,6.54293539167603));
#1489=CARTESIAN_POINT('Ctrl Pts',(67.629446210508,9.031427419901,6.2508463032146));
#1490=CARTESIAN_POINT('Ctrl Pts',(66.8895047430895,9.5254342838037,5.68703180834205));
#1491=CARTESIAN_POINT('Ctrl Pts',(66.382180398075,9.89577539915795,5.42093528738469));
#1492=CARTESIAN_POINT('Ctrl Pts',(65.3356166364031,10.6848381153443,5.07752054065002));
#1493=CARTESIAN_POINT('Ctrl Pts',(64.796152770926,11.1031738939249,5.));
#1494=CARTESIAN_POINT('Ctrl Pts',(64.3,11.4874921777191,5.));
#1495=CARTESIAN_POINT('',(64.3,1.5,5.));
#1496=CARTESIAN_POINT('',(64.3,2.5,5.));
#1497=CARTESIAN_POINT('',(69.3,4.66227766016838,10.));
#1498=CARTESIAN_POINT('Ctrl Pts',(64.3,1.5,5.));
#1499=CARTESIAN_POINT('Ctrl Pts',(64.8361477398577,1.94857338225549,5.));
#1500=CARTESIAN_POINT('Ctrl Pts',(65.418492703618,2.43621468547911,5.09040696381266));
#1501=CARTESIAN_POINT('Ctrl Pts',(66.541076581363,3.35651637437293,5.49081953750833));
#1502=CARTESIAN_POINT('Ctrl Pts',(67.0814953986208,3.78894603107058,5.80085102615268));
#1503=CARTESIAN_POINT('Ctrl Pts',(67.8572854608388,4.36771698306423,6.46232767464058));
#1504=CARTESIAN_POINT('Ctrl Pts',(68.1753660680096,4.59159060779821,6.80464530066601));
#1505=CARTESIAN_POINT('Ctrl Pts',(68.7108594823933,4.90840907590816,7.59727769666122));
#1506=CARTESIAN_POINT('Ctrl Pts',(68.9277098165119,5.,8.04851268917583));
#1507=CARTESIAN_POINT('Ctrl Pts',(69.2016195703983,5.,8.91949019545148));
#1508=CARTESIAN_POINT('Ctrl Pts',(69.2799503868692,4.91879065360281,9.38044520852509));
#1509=CARTESIAN_POINT('Ctrl Pts',(69.2988108885015,4.72007890339431,9.87329075478381));
#1510=CARTESIAN_POINT('Ctrl Pts',(69.3,4.6921148954031,9.93709758505071));
#1511=CARTESIAN_POINT('Ctrl Pts',(69.3,4.66227766016838,10.));
#1512=CARTESIAN_POINT('',(69.3,8.33739716558867,10.));
#1513=CARTESIAN_POINT('',(69.3,2.5,10.));
#1514=CARTESIAN_POINT('Ctrl Pts',(69.3,8.33739716558867,10.));
#1515=CARTESIAN_POINT('Ctrl Pts',(69.3,8.46921248086272,9.39915089130939));
#1516=CARTESIAN_POINT('Ctrl Pts',(69.184146443228,8.52128576663148,8.75007334351695));
#1517=CARTESIAN_POINT('Ctrl Pts',(68.9451587701589,8.49124452440314,8.14999999999564));
#1518=CARTESIAN_POINT('Origin',(69.3,5.,10.25));
#1519=CARTESIAN_POINT('',(69.3,1.5,12.));
#1520=CARTESIAN_POINT('Origin',(69.3,1.5,8.5));
#1521=CARTESIAN_POINT('',(69.3,1.5,15.5));
#1522=CARTESIAN_POINT('',(69.3,1.5,16.2847347904528));
#1523=CARTESIAN_POINT('Origin',(69.3,1.5,8.5));
#1524=CARTESIAN_POINT('Origin',(64.3,-2.5,10.));
#1525=CARTESIAN_POINT('',(68.9451587701606,-8.49124452440336,8.15));
#1526=CARTESIAN_POINT('',(69.3,-8.33739716558867,10.));
#1527=CARTESIAN_POINT('Ctrl Pts',(68.9451587701606,-8.49124452440336,8.15));
#1528=CARTESIAN_POINT('Ctrl Pts',(69.1841464432286,-8.52128576663126,8.75007334352009));
#1529=CARTESIAN_POINT('Ctrl Pts',(69.3,-8.4692124808624,9.39915089131084));
#1530=CARTESIAN_POINT('Ctrl Pts',(69.3,-8.33739716558867,10.));
#1531=CARTESIAN_POINT('',(69.3,-4.66227766016838,10.));
#1532=CARTESIAN_POINT('',(69.3,-2.5,10.));
#1533=CARTESIAN_POINT('',(64.3,-1.5,5.));
#1534=CARTESIAN_POINT('Ctrl Pts',(69.3,-4.66227766016838,10.));
#1535=CARTESIAN_POINT('Ctrl Pts',(69.3,-4.6921148954031,9.9370975850507));
#1536=CARTESIAN_POINT('Ctrl Pts',(69.2988108885015,-4.72007890339431,9.87329075478381));
#1537=CARTESIAN_POINT('Ctrl Pts',(69.2799503868692,-4.91879065360281,9.38044520852509));
#1538=CARTESIAN_POINT('Ctrl Pts',(69.2016195703983,-5.,8.91949019545148));
#1539=CARTESIAN_POINT('Ctrl Pts',(68.9277098165119,-5.,8.04851268917583));
#1540=CARTESIAN_POINT('Ctrl Pts',(68.7108594823933,-4.90840907590816,7.59727769666122));
#1541=CARTESIAN_POINT('Ctrl Pts',(68.1753660680096,-4.59159060779821,6.80464530066601));
#1542=CARTESIAN_POINT('Ctrl Pts',(67.8572854608388,-4.36771698306423,6.46232767464058));
#1543=CARTESIAN_POINT('Ctrl Pts',(67.0814953986208,-3.78894603107058,5.80085102615268));
#1544=CARTESIAN_POINT('Ctrl Pts',(66.541076581363,-3.35651637437292,5.49081953750833));
#1545=CARTESIAN_POINT('Ctrl Pts',(65.418492703618,-2.43621468547911,5.09040696381266));
#1546=CARTESIAN_POINT('Ctrl Pts',(64.8361477398577,-1.94857338225549,5.));
#1547=CARTESIAN_POINT('Ctrl Pts',(64.3,-1.5,5.));
#1548=CARTESIAN_POINT('',(64.3,-11.4874921777191,5.));
#1549=CARTESIAN_POINT('',(64.3,-2.5,5.));
#1550=CARTESIAN_POINT('Ctrl Pts',(64.3,-11.4874921777191,5.));
#1551=CARTESIAN_POINT('Ctrl Pts',(64.796152770926,-11.1031738939249,5.));
#1552=CARTESIAN_POINT('Ctrl Pts',(65.3356166364031,-10.6848381153443,5.07752054065002));
#1553=CARTESIAN_POINT('Ctrl Pts',(66.382180398075,-9.89577539915795,5.42093528738469));
#1554=CARTESIAN_POINT('Ctrl Pts',(66.8895047430895,-9.5254342838037,5.68703180834206));
#1555=CARTESIAN_POINT('Ctrl Pts',(67.629446210508,-9.031427419901,6.2508463032146));
#1556=CARTESIAN_POINT('Ctrl Pts',(67.9383142423147,-8.83969377105596,6.54293539167603));
#1557=CARTESIAN_POINT('Ctrl Pts',(68.4799034344988,-8.56710539244254,7.22204477211133));
#1558=CARTESIAN_POINT('Ctrl Pts',(68.712290957199,-8.48749217771909,7.6098286497667));
#1559=CARTESIAN_POINT('Ctrl Pts',(68.904079305913,-8.48749217771909,8.04927096246307));
#1560=CARTESIAN_POINT('Ctrl Pts',(68.9249760037734,-8.48870750914192,8.09932315984341));
#1561=CARTESIAN_POINT('Ctrl Pts',(68.9451587701609,-8.4912445244034,8.15000000000078));
#1562=CARTESIAN_POINT('Origin',(69.3,-5.,10.25));
#1563=CARTESIAN_POINT('',(69.3,-1.50000002235174,15.5));
#1564=CARTESIAN_POINT('Origin',(69.3,-1.5,8.5));
#1565=CARTESIAN_POINT('',(69.3,-1.50000002235174,12.));
#1566=CARTESIAN_POINT('',(69.3,-1.50000002235174,8.5));
#1567=CARTESIAN_POINT('Origin',(69.3,-1.5,8.5));
#1568=CARTESIAN_POINT('Origin',(-35.7,2.5,10.));
#1569=CARTESIAN_POINT('',(-35.7,11.4874921777191,5.));
#1570=CARTESIAN_POINT('',(-31.0548412298394,8.49124452440336,8.15000000000001));
#1571=CARTESIAN_POINT('Ctrl Pts',(-31.0548412298403,8.49124452440325,8.14999999999775));
#1572=CARTESIAN_POINT('Ctrl Pts',(-31.0750239962274,8.48870750914187,8.09932315984141));
#1573=CARTESIAN_POINT('Ctrl Pts',(-31.0959206940874,8.48749217771909,8.04927096246208));
#1574=CARTESIAN_POINT('Ctrl Pts',(-31.287709042801,8.48749217771909,7.6098286497667));
#1575=CARTESIAN_POINT('Ctrl Pts',(-31.5200965655012,8.56710539244254,7.22204477211133));
#1576=CARTESIAN_POINT('Ctrl Pts',(-32.0616857576853,8.83969377105596,6.54293539167603));
#1577=CARTESIAN_POINT('Ctrl Pts',(-32.370553789492,9.03142741990099,6.2508463032146));
#1578=CARTESIAN_POINT('Ctrl Pts',(-33.1104952569105,9.5254342838037,5.68703180834205));
#1579=CARTESIAN_POINT('Ctrl Pts',(-33.6178196019251,9.89577539915795,5.42093528738469));
#1580=CARTESIAN_POINT('Ctrl Pts',(-34.6643833635969,10.6848381153443,5.07752054065002));
#1581=CARTESIAN_POINT('Ctrl Pts',(-35.203847229074,11.1031738939249,5.));
#1582=CARTESIAN_POINT('Ctrl Pts',(-35.7,11.4874921777191,5.));
#1583=CARTESIAN_POINT('',(-35.7,1.5,5.));
#1584=CARTESIAN_POINT('',(-35.7,2.5,5.));
#1585=CARTESIAN_POINT('',(-30.7,4.66227766016838,10.));
#1586=CARTESIAN_POINT('Ctrl Pts',(-35.7,1.5,5.));
#1587=CARTESIAN_POINT('Ctrl Pts',(-35.1638522601424,1.94857338225549,5.));
#1588=CARTESIAN_POINT('Ctrl Pts',(-34.581507296382,2.4362146854791,5.09040696381266));
#1589=CARTESIAN_POINT('Ctrl Pts',(-33.458923418637,3.35651637437292,5.49081953750833));
#1590=CARTESIAN_POINT('Ctrl Pts',(-32.9185046013792,3.78894603107058,5.80085102615268));
#1591=CARTESIAN_POINT('Ctrl Pts',(-32.1427145391612,4.36771698306423,6.46232767464058));
#1592=CARTESIAN_POINT('Ctrl Pts',(-31.8246339319904,4.59159060779821,6.80464530066601));
#1593=CARTESIAN_POINT('Ctrl Pts',(-31.2891405176067,4.90840907590816,7.59727769666122));
#1594=CARTESIAN_POINT('Ctrl Pts',(-31.0722901834881,5.,8.04851268917583));
#1595=CARTESIAN_POINT('Ctrl Pts',(-30.7983804296017,5.,8.91949019545148));
#1596=CARTESIAN_POINT('Ctrl Pts',(-30.7200496131308,4.91879065360281,9.38044520852509));
#1597=CARTESIAN_POINT('Ctrl Pts',(-30.7011891114985,4.72007890339431,9.87329075478381));
#1598=CARTESIAN_POINT('Ctrl Pts',(-30.7,4.6921148954031,9.93709758505071));
#1599=CARTESIAN_POINT('Ctrl Pts',(-30.7,4.66227766016838,10.));
#1600=CARTESIAN_POINT('',(-30.7,8.33739716558867,10.));
#1601=CARTESIAN_POINT('',(-30.7,2.5,10.));
#1602=CARTESIAN_POINT('Ctrl Pts',(-30.7,8.33739716558867,10.));
#1603=CARTESIAN_POINT('Ctrl Pts',(-30.7,8.46921248086271,9.39915089130939));
#1604=CARTESIAN_POINT('Ctrl Pts',(-30.815853556772,8.52128576663148,8.75007334351696));
#1605=CARTESIAN_POINT('Ctrl Pts',(-31.0548412298411,8.49124452440314,8.14999999999565));
#1606=CARTESIAN_POINT('Origin',(-30.7,5.,8.5));
#1607=CARTESIAN_POINT('',(-30.7,1.5,12.));
#1608=CARTESIAN_POINT('Origin',(-30.7,1.5,8.5));
#1609=CARTESIAN_POINT('',(-30.7,1.5,15.5));
#1610=CARTESIAN_POINT('',(-30.7,1.5,8.5));
#1611=CARTESIAN_POINT('Origin',(-30.7,1.5,8.5));
#1612=CARTESIAN_POINT('Origin',(-35.7,-2.5,10.));
#1613=CARTESIAN_POINT('',(-31.0548412298394,-8.49124452440336,8.15));
#1614=CARTESIAN_POINT('',(-30.7,-8.33739716558867,10.));
#1615=CARTESIAN_POINT('Ctrl Pts',(-31.0548412298394,-8.49124452440336,8.15));
#1616=CARTESIAN_POINT('Ctrl Pts',(-30.8158535567714,-8.52128576663126,8.75007334352009));
#1617=CARTESIAN_POINT('Ctrl Pts',(-30.7,-8.4692124808624,9.39915089131084));
#1618=CARTESIAN_POINT('Ctrl Pts',(-30.7,-8.33739716558867,9.99999999999999));
#1619=CARTESIAN_POINT('',(-30.7,-4.66227766016838,10.));
#1620=CARTESIAN_POINT('',(-30.7,-2.5,10.));
#1621=CARTESIAN_POINT('',(-35.7,-1.5,5.));
#1622=CARTESIAN_POINT('Ctrl Pts',(-30.7,-4.66227766016838,10.));
#1623=CARTESIAN_POINT('Ctrl Pts',(-30.7,-4.6921148954031,9.9370975850507));
#1624=CARTESIAN_POINT('Ctrl Pts',(-30.7011891114985,-4.72007890339431,9.87329075478381));
#1625=CARTESIAN_POINT('Ctrl Pts',(-30.7200496131308,-4.91879065360281,9.38044520852509));
#1626=CARTESIAN_POINT('Ctrl Pts',(-30.7983804296017,-5.,8.91949019545148));
#1627=CARTESIAN_POINT('Ctrl Pts',(-31.0722901834881,-5.,8.04851268917583));
#1628=CARTESIAN_POINT('Ctrl Pts',(-31.2891405176067,-4.90840907590816,7.59727769666122));
#1629=CARTESIAN_POINT('Ctrl Pts',(-31.8246339319904,-4.59159060779821,6.80464530066601));
#1630=CARTESIAN_POINT('Ctrl Pts',(-32.1427145391612,-4.36771698306423,6.46232767464058));
#1631=CARTESIAN_POINT('Ctrl Pts',(-32.9185046013792,-3.78894603107058,5.80085102615268));
#1632=CARTESIAN_POINT('Ctrl Pts',(-33.458923418637,-3.35651637437292,5.49081953750833));
#1633=CARTESIAN_POINT('Ctrl Pts',(-34.581507296382,-2.4362146854791,5.09040696381266));
#1634=CARTESIAN_POINT('Ctrl Pts',(-35.1638522601424,-1.94857338225549,5.));
#1635=CARTESIAN_POINT('Ctrl Pts',(-35.7,-1.5,5.));
#1636=CARTESIAN_POINT('',(-35.7,-11.4874921777191,5.));
#1637=CARTESIAN_POINT('',(-35.7,-2.5,5.));
#1638=CARTESIAN_POINT('Ctrl Pts',(-35.7,-11.4874921777191,5.));
#1639=CARTESIAN_POINT('Ctrl Pts',(-35.203847229074,-11.1031738939249,5.));
#1640=CARTESIAN_POINT('Ctrl Pts',(-34.6643833635969,-10.6848381153443,5.07752054065002));
#1641=CARTESIAN_POINT('Ctrl Pts',(-33.6178196019251,-9.89577539915796,5.42093528738469));
#1642=CARTESIAN_POINT('Ctrl Pts',(-33.1104952569105,-9.5254342838037,5.68703180834206));
#1643=CARTESIAN_POINT('Ctrl Pts',(-32.370553789492,-9.031427419901,6.2508463032146));
#1644=CARTESIAN_POINT('Ctrl Pts',(-32.0616857576853,-8.83969377105596,6.54293539167603));
#1645=CARTESIAN_POINT('Ctrl Pts',(-31.5200965655012,-8.56710539244254,7.22204477211133));
#1646=CARTESIAN_POINT('Ctrl Pts',(-31.287709042801,-8.48749217771909,7.6098286497667));
#1647=CARTESIAN_POINT('Ctrl Pts',(-31.095920694087,-8.48749217771909,8.04927096246307));
#1648=CARTESIAN_POINT('Ctrl Pts',(-31.0750239962266,-8.48870750914192,8.09932315984341));
#1649=CARTESIAN_POINT('Ctrl Pts',(-31.0548412298391,-8.4912445244034,8.15000000000078));
#1650=CARTESIAN_POINT('Origin',(-30.7,-5.,8.5));
#1651=CARTESIAN_POINT('',(-30.7,-1.5,15.5));
#1652=CARTESIAN_POINT('Origin',(-30.7,-1.5,8.5));
#1653=CARTESIAN_POINT('',(-30.7,-1.5,12.));
#1654=CARTESIAN_POINT('',(-30.7,-1.5,16.0307682284193));
#1655=CARTESIAN_POINT('Origin',(-30.7,-1.5,8.5));
#1656=CARTESIAN_POINT('Origin',(-30.7,-11.4874921777191,8.));
#1657=CARTESIAN_POINT('',(-30.7,-8.49124452440336,8.15));
#1658=CARTESIAN_POINT('',(-30.7,-11.4874921777191,5.));
#1659=CARTESIAN_POINT('Origin',(-30.7,-1.5,8.5));
#1660=CARTESIAN_POINT('',(-30.7,-1.5,15.5));
#1661=CARTESIAN_POINT('Origin',(79.3,-11.4874921777191,8.));
#1662=CARTESIAN_POINT('',(79.3,-8.49124452440336,8.15));
#1663=CARTESIAN_POINT('',(79.3,-11.4874921777191,5.));
#1664=CARTESIAN_POINT('Origin',(79.3,-1.5,8.5));
#1665=CARTESIAN_POINT('',(79.3,-1.50000002235174,15.5));
#1666=CARTESIAN_POINT('Origin',(-30.7,11.4874921777191,8.));
#1667=CARTESIAN_POINT('',(-30.7,8.49124452440336,8.15));
#1668=CARTESIAN_POINT('',(-30.7,11.4874921777191,5.));
#1669=CARTESIAN_POINT('Origin',(-30.7,1.5,8.5));
#1670=CARTESIAN_POINT('',(-30.7,1.5,15.5));
#1671=CARTESIAN_POINT('Origin',(79.3,11.4874921777191,8.));
#1672=CARTESIAN_POINT('',(79.3,8.49124452440336,8.15));
#1673=CARTESIAN_POINT('',(79.3,11.4874921777191,5.));
#1674=CARTESIAN_POINT('Origin',(79.3,1.5,8.5));
#1675=CARTESIAN_POINT('',(79.3,1.5,15.5));
#1676=CARTESIAN_POINT('Origin',(-30.7,-1.5,12.));
#1677=CARTESIAN_POINT('',(-30.7,-1.5,12.));
#1678=CARTESIAN_POINT('Origin',(-30.7,-1.5,8.5));
#1679=CARTESIAN_POINT('',(-30.7,-1.5,5.));
#1680=CARTESIAN_POINT('Origin',(-30.7,1.5,8.5));
#1681=CARTESIAN_POINT('',(-14.075,1.5,5.));
#1682=CARTESIAN_POINT('',(-30.7,1.5,12.));
#1683=CARTESIAN_POINT('Origin',(-30.7,1.5,15.5));
#1684=CARTESIAN_POINT('Origin',(79.3,-1.5,8.5));
#1685=CARTESIAN_POINT('',(79.3,-1.5,5.));
#1686=CARTESIAN_POINT('',(79.3,-1.50000002235174,12.));
#1687=CARTESIAN_POINT('Origin',(79.3,-1.50000002235174,15.5));
#1688=CARTESIAN_POINT('Origin',(79.3,1.5,12.));
#1689=CARTESIAN_POINT('',(79.3,1.5,12.));
#1690=CARTESIAN_POINT('Origin',(79.3,1.5,8.5));
#1691=CARTESIAN_POINT('',(79.3,1.5,5.));
#1692=CARTESIAN_POINT('Origin',(2.54999999999999,0.,5.));
#1693=CARTESIAN_POINT('',(-104.2,-25.4,5.));
#1694=CARTESIAN_POINT('',(-104.2,25.4,5.));
#1695=CARTESIAN_POINT('',(-104.2,12.7,5.));
#1696=CARTESIAN_POINT('',(104.3,-25.4,5.));
#1697=CARTESIAN_POINT('',(114.3,-25.4,5.));
#1698=CARTESIAN_POINT('',(104.3,25.4,5.));
#1699=CARTESIAN_POINT('',(104.3,12.7,5.));
#1700=CARTESIAN_POINT('',(-109.2,25.4,5.));
#1701=CARTESIAN_POINT('',(-87.7435051867217,15.,5.));
#1702=CARTESIAN_POINT('Origin',(-84.2000051867217,15.,5.));
#1703=CARTESIAN_POINT('',(-100.243505186722,-15.,5.));
#1704=CARTESIAN_POINT('Origin',(-96.7000051867217,-15.,5.));
#1705=CARTESIAN_POINT('',(-100.243505186722,15.,5.));
#1706=CARTESIAN_POINT('Origin',(-96.7000051867217,15.,5.));
#1707=CARTESIAN_POINT('',(-87.7435051867217,-15.,5.));
#1708=CARTESIAN_POINT('Origin',(-84.2000051867217,-15.,5.));
#1709=CARTESIAN_POINT('Origin',(-84.2000051867217,-15.,4.30984055335669));
#1710=CARTESIAN_POINT('',(-86.0985051867217,-15.,3.61968110671337));
#1711=CARTESIAN_POINT('',(-86.9210051867217,-15.,4.30984055335669));
#1712=CARTESIAN_POINT('Origin',(-84.2000051867217,-15.,3.61968110671337));
#1713=CARTESIAN_POINT('Origin',(-84.2000051867217,-15.,0.5));
#1714=CARTESIAN_POINT('',(-86.0985051867217,-15.,0.));
#1715=CARTESIAN_POINT('',(-86.0985051867217,-15.,0.5));
#1716=CARTESIAN_POINT('Origin',(-84.2000051867217,-15.,0.));
#1717=CARTESIAN_POINT('Origin',(-96.7000051867217,15.,4.30984055335669));
#1718=CARTESIAN_POINT('',(-98.5985051867217,15.,3.61968110671337));
#1719=CARTESIAN_POINT('',(-99.4210051867217,15.,4.30984055335669));
#1720=CARTESIAN_POINT('Origin',(-96.7000051867217,15.,3.61968110671337));
#1721=CARTESIAN_POINT('Origin',(-96.7000051867217,15.,0.5));
#1722=CARTESIAN_POINT('',(-98.5985051867217,15.,0.));
#1723=CARTESIAN_POINT('',(-98.5985051867217,15.,0.5));
#1724=CARTESIAN_POINT('Origin',(-96.7000051867217,15.,0.));
#1725=CARTESIAN_POINT('Origin',(-96.7000051867217,-15.,4.30984055335669));
#1726=CARTESIAN_POINT('',(-98.5985051867217,-15.,3.61968110671337));
#1727=CARTESIAN_POINT('',(-99.4210051867217,-15.,4.30984055335669));
#1728=CARTESIAN_POINT('Origin',(-96.7000051867217,-15.,3.61968110671337));
#1729=CARTESIAN_POINT('Origin',(-96.7000051867217,-15.,0.5));
#1730=CARTESIAN_POINT('',(-98.5985051867217,-15.,0.));
#1731=CARTESIAN_POINT('',(-98.5985051867217,-15.,0.5));
#1732=CARTESIAN_POINT('Origin',(-96.7000051867217,-15.,0.));
#1733=CARTESIAN_POINT('Origin',(-84.2000051867217,15.,4.30984055335669));
#1734=CARTESIAN_POINT('',(-86.0985051867217,15.,3.61968110671337));
#1735=CARTESIAN_POINT('',(-86.9210051867217,15.,4.30984055335669));
#1736=CARTESIAN_POINT('Origin',(-84.2000051867217,15.,3.61968110671337));
#1737=CARTESIAN_POINT('Origin',(-84.2000051867217,15.,0.5));
#1738=CARTESIAN_POINT('',(-86.0985051867217,15.,0.));
#1739=CARTESIAN_POINT('',(-86.0985051867217,15.,0.5));
#1740=CARTESIAN_POINT('Origin',(-84.2000051867217,15.,0.));
#1741=CARTESIAN_POINT('Origin',(122.,-15.,5.25));
#1742=CARTESIAN_POINT('',(123.925,-15.,2.5));
#1743=CARTESIAN_POINT('Origin',(122.,-15.,2.5));
#1744=CARTESIAN_POINT('',(123.925,-15.,7.5));
#1745=CARTESIAN_POINT('',(123.925,-15.,5.25));
#1746=CARTESIAN_POINT('Origin',(122.,-15.,7.5));
#1747=CARTESIAN_POINT('Origin',(122.,15.,5.25));
#1748=CARTESIAN_POINT('',(123.925,15.,2.5));
#1749=CARTESIAN_POINT('Origin',(122.,15.,2.5));
#1750=CARTESIAN_POINT('',(123.925,15.,7.5));
#1751=CARTESIAN_POINT('',(123.925,15.,5.25));
#1752=CARTESIAN_POINT('Origin',(122.,15.,7.5));
#1753=CARTESIAN_POINT('Origin',(-106.7,12.7,2.5));
#1754=CARTESIAN_POINT('',(-109.2,-25.4,0.));
#1755=CARTESIAN_POINT('',(-107.95,-25.4,1.25));
#1756=CARTESIAN_POINT('',(-109.2,25.4,0.));
#1757=CARTESIAN_POINT('',(-52.075,25.4,57.125));
#1758=CARTESIAN_POINT('',(-109.2,-25.4,0.));
#1759=CARTESIAN_POINT('Origin',(-109.2,-25.4,0.));
#1760=CARTESIAN_POINT('',(114.3,-25.4,0.));
#1761=CARTESIAN_POINT('',(114.3,-25.4,0.));
#1762=CARTESIAN_POINT('',(114.3,-25.4,2.5));
#1763=CARTESIAN_POINT('',(114.3,-25.4,0.));
#1764=CARTESIAN_POINT('',(139.7,-25.4,2.5));
#1765=CARTESIAN_POINT('',(139.7,-25.4,2.5));
#1766=CARTESIAN_POINT('',(129.7,-25.4,7.5));
#1767=CARTESIAN_POINT('',(38.14,-25.4,53.28));
#1768=CARTESIAN_POINT('',(114.3,-25.4,7.5));
#1769=CARTESIAN_POINT('',(139.7,-25.4,7.5));
#1770=CARTESIAN_POINT('',(5.74117647058823,-25.4,-19.6397058823529));
#1771=CARTESIAN_POINT('Origin',(134.7,-12.7,5.));
#1772=CARTESIAN_POINT('',(139.7,25.4,2.5));
#1773=CARTESIAN_POINT('',(129.7,25.4,7.5));
#1774=CARTESIAN_POINT('',(127.54,25.4,8.58));
#1775=CARTESIAN_POINT('',(129.7,-12.7,7.5));
#1776=CARTESIAN_POINT('',(139.7,25.4,2.5));
#1777=CARTESIAN_POINT('Origin',(127.,-4.44089209850063E-15,7.5));
#1778=CARTESIAN_POINT('',(114.3,25.4,7.5));
#1779=CARTESIAN_POINT('',(114.3,25.4,7.5));
#1780=CARTESIAN_POINT('',(114.3,-25.4,7.5));
#1781=CARTESIAN_POINT('Origin',(109.3,12.7,6.25));
#1782=CARTESIAN_POINT('',(110.917647058824,25.4,6.65441176470588));
#1783=CARTESIAN_POINT('Origin',(127.,-4.44089209850063E-15,2.5));
#1784=CARTESIAN_POINT('',(114.3,25.4,2.5));
#1785=CARTESIAN_POINT('',(114.3,-12.7,2.5));
#1786=CARTESIAN_POINT('',(114.3,25.4,2.5));
#1787=CARTESIAN_POINT('Origin',(114.3,25.4,0.));
#1788=CARTESIAN_POINT('',(114.3,25.4,0.));
#1789=CARTESIAN_POINT('',(114.3,25.4,0.));
#1790=CARTESIAN_POINT('',(-109.2,25.4,0.));
#1791=CARTESIAN_POINT('Origin',(114.3,-25.4,0.));
#1792=CARTESIAN_POINT('',(114.3,25.4,0.));
#1793=CARTESIAN_POINT('Origin',(2.54999999999999,0.,0.));
#1794=UNCERTAINTY_MEASURE_WITH_UNIT(LENGTH_MEASURE(0.01),#1798,
'DISTANCE_ACCURACY_VALUE',
'Maximum model space distance between geometric entities at asserted c
onnectivities');
#1795=UNCERTAINTY_MEASURE_WITH_UNIT(LENGTH_MEASURE(0.01),#1798,
'DISTANCE_ACCURACY_VALUE',
'Maximum model space distance between geometric entities at asserted c
onnectivities');
#1796=(
GEOMETRIC_REPRESENTATION_CONTEXT(3)
GLOBAL_UNCERTAINTY_ASSIGNED_CONTEXT((#1794))
GLOBAL_UNIT_ASSIGNED_CONTEXT((#1798,#1800,#1801))
REPRESENTATION_CONTEXT('','3D')
);
#1797=(
GEOMETRIC_REPRESENTATION_CONTEXT(3)
GLOBAL_UNCERTAINTY_ASSIGNED_CONTEXT((#1795))
GLOBAL_UNIT_ASSIGNED_CONTEXT((#1798,#1800,#1801))
REPRESENTATION_CONTEXT('','3D')
);
#1798=(
LENGTH_UNIT()
NAMED_UNIT(*)
SI_UNIT(.MILLI.,.METRE.)
);
#1799=(
LENGTH_UNIT()
NAMED_UNIT(*)
SI_UNIT($,.METRE.)
);
#1800=(
NAMED_UNIT(*)
PLANE_ANGLE_UNIT()
SI_UNIT($,.RADIAN.)
);
#1801=(
NAMED_UNIT(*)
SI_UNIT($,.STERADIAN.)
SOLID_ANGLE_UNIT()
);
#1802=SHAPE_DEFINITION_REPRESENTATION(#1803,#1804);
#1803=PRODUCT_DEFINITION_SHAPE('',$,#1806);
#1804=SHAPE_REPRESENTATION('',(#970),#1796);
#1805=PRODUCT_DEFINITION_CONTEXT('part definition',#1810,'design');
#1806=PRODUCT_DEFINITION('Camera Holder Sides',
'Camera Holder Sides v24',#1807,#1805);
#1807=PRODUCT_DEFINITION_FORMATION('',$,#1812);
#1808=PRODUCT_RELATED_PRODUCT_CATEGORY('Camera Holder Sides v24',
'Camera Holder Sides v24',(#1812));
#1809=APPLICATION_PROTOCOL_DEFINITION('international standard',
'automotive_design',2009,#1810);
#1810=APPLICATION_CONTEXT(
'Core Data for Automotive Mechanical Design Process');
#1811=PRODUCT_CONTEXT('part definition',#1810,'mechanical');
#1812=PRODUCT('Camera Holder Sides','Camera Holder Sides v24',$,(#1811));
#1813=PRESENTATION_STYLE_ASSIGNMENT((#1815));
#1814=PRESENTATION_STYLE_ASSIGNMENT((#1816));
#1815=SURFACE_STYLE_USAGE(.BOTH.,#1817);
#1816=SURFACE_STYLE_USAGE(.BOTH.,#1818);
#1817=SURFACE_SIDE_STYLE('',(#1819));
#1818=SURFACE_SIDE_STYLE('',(#1820));
#1819=SURFACE_STYLE_FILL_AREA(#1821);
#1820=SURFACE_STYLE_FILL_AREA(#1822);
#1821=FILL_AREA_STYLE('Steel - Satin',(#1823));
#1822=FILL_AREA_STYLE('Powder Coat - Rough (Black)',(#1824));
#1823=FILL_AREA_STYLE_COLOUR('Steel - Satin',#1825);
#1824=FILL_AREA_STYLE_COLOUR('Powder Coat - Rough (Black)',#1826);
#1825=COLOUR_RGB('Steel - Satin',0.627450980392157,0.627450980392157,0.627450980392157);
#1826=COLOUR_RGB('Powder Coat - Rough (Black)',0.0980392156862745,0.0980392156862745,
0.0980392156862745);
ENDSEC;
END-ISO-10303-21;
