ISO-10303-21;
HEADER;
/* Generated by software containing ST-Developer
 * from STEP Tools, Inc. (www.steptools.com) 
 */

FILE_DESCRIPTION(
/* description */ (''),
/* implementation_level */ '2;1');

FILE_NAME(
/* name */ 'Camera Holder Middle.step',
/* time_stamp */ '2026-03-25T02:13:53-04:00',
/* author */ (''),
/* organization */ (''),
/* preprocessor_version */ 'ST-DEVELOPER v20.1',
/* originating_system */ 'Autodesk Translation Framework v14.24.0.0',
/* authorisation */ '');

FILE_SCHEMA (('AUTOMOTIVE_DESIGN { 1 0 10303 214 3 1 1 }'));
ENDSEC;

DATA;
#10=MECHANICAL_DESIGN_GEOMETRIC_PRESENTATION_REPRESENTATION('',(#13),#1553);
#11=SHAPE_REPRESENTATION_RELATIONSHIP('SRR','None',#1560,#12);
#12=ADVANCED_BREP_SHAPE_REPRESENTATION('',(#14),#1552);
#13=STYLED_ITEM('',(#1570),#14);
#14=MANIFOLD_SOLID_BREP('Body1',#901);
#15=TOROIDAL_SURFACE('',#963,5.53553390593274,2.5);
#16=TOROIDAL_SURFACE('',#969,5.53553390593274,2.5);
#17=TOROIDAL_SURFACE('',#975,5.53553390593274,2.5);
#18=TOROIDAL_SURFACE('',#981,5.53553390593274,2.5);
#19=CONICAL_SURFACE('',#940,3.475,0.785398163397448);
#20=CONICAL_SURFACE('',#945,3.475,0.785398163397448);
#21=CONICAL_SURFACE('',#950,3.475,0.785398163397448);
#22=CONICAL_SURFACE('',#955,3.475,0.785398163397448);
#23=CONICAL_SURFACE('',#984,3.25,0.785398163397448);
#24=CONICAL_SURFACE('',#986,3.25,0.785398163397449);
#25=CONICAL_SURFACE('',#990,3.25,0.785398163397448);
#26=CONICAL_SURFACE('',#991,3.25,0.785398163397448);
#27=FACE_BOUND('',#178,.T.);
#28=FACE_BOUND('',#179,.T.);
#29=FACE_BOUND('',#180,.T.);
#30=FACE_BOUND('',#181,.T.);
#31=FACE_BOUND('',#182,.T.);
#32=FACE_BOUND('',#204,.T.);
#33=FACE_BOUND('',#205,.T.);
#34=FACE_BOUND('',#206,.T.);
#35=FACE_BOUND('',#207,.T.);
#36=FACE_BOUND('',#208,.T.);
#37=FACE_BOUND('',#230,.T.);
#38=FACE_BOUND('',#231,.T.);
#39=FACE_BOUND('',#232,.T.);
#40=FACE_BOUND('',#233,.T.);
#41=FACE_BOUND('',#234,.T.);
#42=FACE_BOUND('',#235,.T.);
#43=FACE_BOUND('',#236,.T.);
#44=FACE_BOUND('',#237,.T.);
#45=FACE_BOUND('',#238,.T.);
#46=CIRCLE('',#917,2.);
#47=CIRCLE('',#918,2.);
#48=CIRCLE('',#921,2.);
#49=CIRCLE('',#922,2.);
#50=CIRCLE('',#925,2.);
#51=CIRCLE('',#926,2.);
#52=CIRCLE('',#929,2.);
#53=CIRCLE('',#930,2.);
#54=CIRCLE('',#932,1.27);
#55=CIRCLE('',#933,1.27);
#56=CIRCLE('',#934,1.27);
#57=CIRCLE('',#935,1.27);
#58=CIRCLE('',#936,2.);
#59=CIRCLE('',#937,2.);
#60=CIRCLE('',#938,2.);
#61=CIRCLE('',#939,2.);
#62=CIRCLE('',#941,4.7);
#63=CIRCLE('',#942,2.25);
#64=CIRCLE('',#944,2.25);
#65=CIRCLE('',#946,4.7);
#66=CIRCLE('',#947,2.25);
#67=CIRCLE('',#949,2.25);
#68=CIRCLE('',#951,4.7);
#69=CIRCLE('',#952,2.25);
#70=CIRCLE('',#954,2.25);
#71=CIRCLE('',#956,4.7);
#72=CIRCLE('',#957,2.25);
#73=CIRCLE('',#959,2.25);
#74=CIRCLE('',#961,2.5);
#75=CIRCLE('',#962,2.5);
#76=CIRCLE('',#964,2.5);
#77=CIRCLE('',#965,3.76776695296637);
#78=CIRCLE('',#966,5.53553390593274);
#79=CIRCLE('',#968,2.5);
#80=CIRCLE('',#970,2.5);
#81=CIRCLE('',#971,3.76776695296636);
#82=CIRCLE('',#972,5.53553390593274);
#83=CIRCLE('',#974,2.5);
#84=CIRCLE('',#976,2.5);
#85=CIRCLE('',#977,3.76776695296637);
#86=CIRCLE('',#978,5.53553390593274);
#87=CIRCLE('',#980,2.5);
#88=CIRCLE('',#982,3.76776695296637);
#89=CIRCLE('',#983,5.53553390593274);
#90=CIRCLE('',#994,1.27);
#91=CIRCLE('',#996,1.27);
#92=CIRCLE('',#998,1.27);
#93=CIRCLE('',#1000,1.27);
#94=CIRCLE('',#1003,2.);
#95=CIRCLE('',#1006,2.);
#96=CIRCLE('',#1009,2.);
#97=CIRCLE('',#1012,2.);
#98=CYLINDRICAL_SURFACE('',#916,2.);
#99=CYLINDRICAL_SURFACE('',#920,2.);
#100=CYLINDRICAL_SURFACE('',#924,2.);
#101=CYLINDRICAL_SURFACE('',#928,2.);
#102=CYLINDRICAL_SURFACE('',#943,2.25);
#103=CYLINDRICAL_SURFACE('',#948,2.25);
#104=CYLINDRICAL_SURFACE('',#953,2.25);
#105=CYLINDRICAL_SURFACE('',#958,2.25);
#106=CYLINDRICAL_SURFACE('',#960,2.5);
#107=CYLINDRICAL_SURFACE('',#967,2.5);
#108=CYLINDRICAL_SURFACE('',#973,2.5);
#109=CYLINDRICAL_SURFACE('',#979,2.5);
#110=CYLINDRICAL_SURFACE('',#993,1.27);
#111=CYLINDRICAL_SURFACE('',#995,1.27);
#112=CYLINDRICAL_SURFACE('',#997,1.27);
#113=CYLINDRICAL_SURFACE('',#999,1.27);
#114=CYLINDRICAL_SURFACE('',#1002,2.);
#115=CYLINDRICAL_SURFACE('',#1005,2.);
#116=CYLINDRICAL_SURFACE('',#1008,2.);
#117=CYLINDRICAL_SURFACE('',#1011,2.);
#118=FACE_OUTER_BOUND('',#169,.T.);
#119=FACE_OUTER_BOUND('',#170,.T.);
#120=FACE_OUTER_BOUND('',#171,.T.);
#121=FACE_OUTER_BOUND('',#172,.T.);
#122=FACE_OUTER_BOUND('',#173,.T.);
#123=FACE_OUTER_BOUND('',#174,.T.);
#124=FACE_OUTER_BOUND('',#175,.T.);
#125=FACE_OUTER_BOUND('',#176,.T.);
#126=FACE_OUTER_BOUND('',#177,.T.);
#127=FACE_OUTER_BOUND('',#183,.T.);
#128=FACE_OUTER_BOUND('',#184,.T.);
#129=FACE_OUTER_BOUND('',#185,.T.);
#130=FACE_OUTER_BOUND('',#186,.T.);
#131=FACE_OUTER_BOUND('',#187,.T.);
#132=FACE_OUTER_BOUND('',#188,.T.);
#133=FACE_OUTER_BOUND('',#189,.T.);
#134=FACE_OUTER_BOUND('',#190,.T.);
#135=FACE_OUTER_BOUND('',#191,.T.);
#136=FACE_OUTER_BOUND('',#192,.T.);
#137=FACE_OUTER_BOUND('',#193,.T.);
#138=FACE_OUTER_BOUND('',#194,.T.);
#139=FACE_OUTER_BOUND('',#195,.T.);
#140=FACE_OUTER_BOUND('',#196,.T.);
#141=FACE_OUTER_BOUND('',#197,.T.);
#142=FACE_OUTER_BOUND('',#198,.T.);
#143=FACE_OUTER_BOUND('',#199,.T.);
#144=FACE_OUTER_BOUND('',#200,.T.);
#145=FACE_OUTER_BOUND('',#201,.T.);
#146=FACE_OUTER_BOUND('',#202,.T.);
#147=FACE_OUTER_BOUND('',#203,.T.);
#148=FACE_OUTER_BOUND('',#209,.T.);
#149=FACE_OUTER_BOUND('',#210,.T.);
#150=FACE_OUTER_BOUND('',#211,.T.);
#151=FACE_OUTER_BOUND('',#212,.T.);
#152=FACE_OUTER_BOUND('',#213,.T.);
#153=FACE_OUTER_BOUND('',#214,.T.);
#154=FACE_OUTER_BOUND('',#215,.T.);
#155=FACE_OUTER_BOUND('',#216,.T.);
#156=FACE_OUTER_BOUND('',#217,.T.);
#157=FACE_OUTER_BOUND('',#218,.T.);
#158=FACE_OUTER_BOUND('',#219,.T.);
#159=FACE_OUTER_BOUND('',#220,.T.);
#160=FACE_OUTER_BOUND('',#221,.T.);
#161=FACE_OUTER_BOUND('',#222,.T.);
#162=FACE_OUTER_BOUND('',#223,.T.);
#163=FACE_OUTER_BOUND('',#224,.T.);
#164=FACE_OUTER_BOUND('',#225,.T.);
#165=FACE_OUTER_BOUND('',#226,.T.);
#166=FACE_OUTER_BOUND('',#227,.T.);
#167=FACE_OUTER_BOUND('',#228,.T.);
#168=FACE_OUTER_BOUND('',#229,.T.);
#169=EDGE_LOOP('',(#583,#584,#585,#586));
#170=EDGE_LOOP('',(#587,#588,#589,#590));
#171=EDGE_LOOP('',(#591,#592,#593,#594));
#172=EDGE_LOOP('',(#595,#596,#597,#598));
#173=EDGE_LOOP('',(#599,#600,#601,#602));
#174=EDGE_LOOP('',(#603,#604,#605,#606));
#175=EDGE_LOOP('',(#607,#608,#609,#610));
#176=EDGE_LOOP('',(#611,#612,#613,#614));
#177=EDGE_LOOP('',(#615,#616,#617,#618,#619,#620,#621,#622));
#178=EDGE_LOOP('',(#623));
#179=EDGE_LOOP('',(#624));
#180=EDGE_LOOP('',(#625));
#181=EDGE_LOOP('',(#626));
#182=EDGE_LOOP('',(#627,#628,#629,#630,#631,#632,#633,#634));
#183=EDGE_LOOP('',(#635,#636,#637,#638));
#184=EDGE_LOOP('',(#639,#640,#641,#642));
#185=EDGE_LOOP('',(#643,#644,#645,#646));
#186=EDGE_LOOP('',(#647,#648,#649,#650));
#187=EDGE_LOOP('',(#651,#652,#653,#654));
#188=EDGE_LOOP('',(#655,#656,#657,#658));
#189=EDGE_LOOP('',(#659,#660,#661,#662));
#190=EDGE_LOOP('',(#663,#664,#665,#666));
#191=EDGE_LOOP('',(#667,#668,#669,#670));
#192=EDGE_LOOP('',(#671,#672,#673,#674));
#193=EDGE_LOOP('',(#675,#676,#677,#678));
#194=EDGE_LOOP('',(#679,#680,#681,#682));
#195=EDGE_LOOP('',(#683,#684,#685,#686));
#196=EDGE_LOOP('',(#687,#688,#689,#690));
#197=EDGE_LOOP('',(#691,#692,#693,#694));
#198=EDGE_LOOP('',(#695,#696,#697,#698));
#199=EDGE_LOOP('',(#699,#700,#701,#702));
#200=EDGE_LOOP('',(#703,#704,#705,#706));
#201=EDGE_LOOP('',(#707,#708,#709,#710));
#202=EDGE_LOOP('',(#711,#712,#713,#714));
#203=EDGE_LOOP('',(#715,#716,#717,#718));
#204=EDGE_LOOP('',(#719));
#205=EDGE_LOOP('',(#720));
#206=EDGE_LOOP('',(#721));
#207=EDGE_LOOP('',(#722));
#208=EDGE_LOOP('',(#723,#724,#725,#726,#727,#728,#729,#730));
#209=EDGE_LOOP('',(#731,#732,#733,#734));
#210=EDGE_LOOP('',(#735,#736,#737,#738));
#211=EDGE_LOOP('',(#739,#740,#741,#742));
#212=EDGE_LOOP('',(#743,#744,#745,#746));
#213=EDGE_LOOP('',(#747,#748,#749,#750));
#214=EDGE_LOOP('',(#751,#752,#753,#754));
#215=EDGE_LOOP('',(#755,#756,#757,#758));
#216=EDGE_LOOP('',(#759,#760,#761,#762));
#217=EDGE_LOOP('',(#763,#764,#765,#766));
#218=EDGE_LOOP('',(#767,#768,#769,#770));
#219=EDGE_LOOP('',(#771,#772,#773,#774));
#220=EDGE_LOOP('',(#775,#776,#777,#778));
#221=EDGE_LOOP('',(#779,#780,#781,#782));
#222=EDGE_LOOP('',(#783,#784,#785,#786));
#223=EDGE_LOOP('',(#787,#788,#789,#790));
#224=EDGE_LOOP('',(#791,#792,#793,#794));
#225=EDGE_LOOP('',(#795,#796,#797,#798));
#226=EDGE_LOOP('',(#799,#800,#801,#802));
#227=EDGE_LOOP('',(#803,#804,#805,#806));
#228=EDGE_LOOP('',(#807,#808,#809,#810));
#229=EDGE_LOOP('',(#811,#812,#813,#814));
#230=EDGE_LOOP('',(#815));
#231=EDGE_LOOP('',(#816));
#232=EDGE_LOOP('',(#817));
#233=EDGE_LOOP('',(#818));
#234=EDGE_LOOP('',(#819));
#235=EDGE_LOOP('',(#820));
#236=EDGE_LOOP('',(#821));
#237=EDGE_LOOP('',(#822));
#238=EDGE_LOOP('',(#823,#824,#825,#826,#827,#828,#829,#830));
#239=LINE('',#1302,#311);
#240=LINE('',#1304,#312);
#241=LINE('',#1306,#313);
#242=LINE('',#1307,#314);
#243=LINE('',#1313,#315);
#244=LINE('',#1316,#316);
#245=LINE('',#1318,#317);
#246=LINE('',#1319,#318);
#247=LINE('',#1325,#319);
#248=LINE('',#1328,#320);
#249=LINE('',#1330,#321);
#250=LINE('',#1331,#322);
#251=LINE('',#1337,#323);
#252=LINE('',#1340,#324);
#253=LINE('',#1342,#325);
#254=LINE('',#1343,#326);
#255=LINE('',#1360,#327);
#256=LINE('',#1364,#328);
#257=LINE('',#1368,#329);
#258=LINE('',#1371,#330);
#259=LINE('',#1376,#331);
#260=LINE('',#1380,#332);
#261=LINE('',#1386,#333);
#262=LINE('',#1390,#334);
#263=LINE('',#1396,#335);
#264=LINE('',#1400,#336);
#265=LINE('',#1406,#337);
#266=LINE('',#1410,#338);
#267=LINE('',#1417,#339);
#268=LINE('',#1420,#340);
#269=LINE('',#1431,#341);
#270=LINE('',#1432,#342);
#271=LINE('',#1443,#343);
#272=LINE('',#1444,#344);
#273=LINE('',#1455,#345);
#274=LINE('',#1456,#346);
#275=LINE('',#1461,#347);
#276=LINE('',#1462,#348);
#277=LINE('',#1464,#349);
#278=LINE('',#1466,#350);
#279=LINE('',#1468,#351);
#280=LINE('',#1472,#352);
#281=LINE('',#1474,#353);
#282=LINE('',#1476,#354);
#283=LINE('',#1477,#355);
#284=LINE('',#1479,#356);
#285=LINE('',#1481,#357);
#286=LINE('',#1483,#358);
#287=LINE('',#1487,#359);
#288=LINE('',#1491,#360);
#289=LINE('',#1495,#361);
#290=LINE('',#1499,#362);
#291=LINE('',#1503,#363);
#292=LINE('',#1505,#364);
#293=LINE('',#1506,#365);
#294=LINE('',#1509,#366);
#295=LINE('',#1513,#367);
#296=LINE('',#1514,#368);
#297=LINE('',#1517,#369);
#298=LINE('',#1521,#370);
#299=LINE('',#1522,#371);
#300=LINE('',#1525,#372);
#301=LINE('',#1529,#373);
#302=LINE('',#1530,#374);
#303=LINE('',#1536,#375);
#304=LINE('',#1537,#376);
#305=LINE('',#1538,#377);
#306=LINE('',#1541,#378);
#307=LINE('',#1542,#379);
#308=LINE('',#1545,#380);
#309=LINE('',#1546,#381);
#310=LINE('',#1548,#382);
#311=VECTOR('',#1022,10.);
#312=VECTOR('',#1023,10.);
#313=VECTOR('',#1024,10.);
#314=VECTOR('',#1025,10.);
#315=VECTOR('',#1032,10.);
#316=VECTOR('',#1035,10.);
#317=VECTOR('',#1036,10.);
#318=VECTOR('',#1037,10.);
#319=VECTOR('',#1044,10.);
#320=VECTOR('',#1047,10.);
#321=VECTOR('',#1048,10.);
#322=VECTOR('',#1049,10.);
#323=VECTOR('',#1056,10.);
#324=VECTOR('',#1059,10.);
#325=VECTOR('',#1060,10.);
#326=VECTOR('',#1061,10.);
#327=VECTOR('',#1080,10.);
#328=VECTOR('',#1083,10.);
#329=VECTOR('',#1086,10.);
#330=VECTOR('',#1089,10.);
#331=VECTOR('',#1094,3.475);
#332=VECTOR('',#1099,2.25);
#333=VECTOR('',#1106,3.475);
#334=VECTOR('',#1111,2.25);
#335=VECTOR('',#1118,3.475);
#336=VECTOR('',#1123,2.25);
#337=VECTOR('',#1130,3.475);
#338=VECTOR('',#1135,2.25);
#339=VECTOR('',#1142,10.);
#340=VECTOR('',#1145,10.);
#341=VECTOR('',#1158,10.);
#342=VECTOR('',#1159,10.);
#343=VECTOR('',#1172,10.);
#344=VECTOR('',#1173,10.);
#345=VECTOR('',#1186,10.);
#346=VECTOR('',#1187,10.);
#347=VECTOR('',#1196,10.);
#348=VECTOR('',#1197,10.);
#349=VECTOR('',#1200,10.);
#350=VECTOR('',#1203,10.);
#351=VECTOR('',#1206,10.);
#352=VECTOR('',#1209,10.);
#353=VECTOR('',#1210,10.);
#354=VECTOR('',#1211,10.);
#355=VECTOR('',#1212,10.);
#356=VECTOR('',#1215,10.);
#357=VECTOR('',#1218,10.);
#358=VECTOR('',#1221,10.);
#359=VECTOR('',#1226,1.27);
#360=VECTOR('',#1231,1.27);
#361=VECTOR('',#1236,1.27);
#362=VECTOR('',#1241,1.27);
#363=VECTOR('',#1246,10.);
#364=VECTOR('',#1247,10.);
#365=VECTOR('',#1248,10.);
#366=VECTOR('',#1251,10.);
#367=VECTOR('',#1256,10.);
#368=VECTOR('',#1257,10.);
#369=VECTOR('',#1260,10.);
#370=VECTOR('',#1265,10.);
#371=VECTOR('',#1266,10.);
#372=VECTOR('',#1269,10.);
#373=VECTOR('',#1274,10.);
#374=VECTOR('',#1275,10.);
#375=VECTOR('',#1282,10.);
#376=VECTOR('',#1283,10.);
#377=VECTOR('',#1284,10.);
#378=VECTOR('',#1287,10.);
#379=VECTOR('',#1288,10.);
#380=VECTOR('',#1291,10.);
#381=VECTOR('',#1292,10.);
#382=VECTOR('',#1295,10.);
#383=VERTEX_POINT('',#1300);
#384=VERTEX_POINT('',#1301);
#385=VERTEX_POINT('',#1303);
#386=VERTEX_POINT('',#1305);
#387=VERTEX_POINT('',#1309);
#388=VERTEX_POINT('',#1311);
#389=VERTEX_POINT('',#1315);
#390=VERTEX_POINT('',#1317);
#391=VERTEX_POINT('',#1321);
#392=VERTEX_POINT('',#1323);
#393=VERTEX_POINT('',#1327);
#394=VERTEX_POINT('',#1329);
#395=VERTEX_POINT('',#1333);
#396=VERTEX_POINT('',#1335);
#397=VERTEX_POINT('',#1339);
#398=VERTEX_POINT('',#1341);
#399=VERTEX_POINT('',#1348);
#400=VERTEX_POINT('',#1350);
#401=VERTEX_POINT('',#1352);
#402=VERTEX_POINT('',#1354);
#403=VERTEX_POINT('',#1356);
#404=VERTEX_POINT('',#1357);
#405=VERTEX_POINT('',#1359);
#406=VERTEX_POINT('',#1361);
#407=VERTEX_POINT('',#1363);
#408=VERTEX_POINT('',#1365);
#409=VERTEX_POINT('',#1367);
#410=VERTEX_POINT('',#1369);
#411=VERTEX_POINT('',#1373);
#412=VERTEX_POINT('',#1375);
#413=VERTEX_POINT('',#1379);
#414=VERTEX_POINT('',#1383);
#415=VERTEX_POINT('',#1385);
#416=VERTEX_POINT('',#1389);
#417=VERTEX_POINT('',#1393);
#418=VERTEX_POINT('',#1395);
#419=VERTEX_POINT('',#1399);
#420=VERTEX_POINT('',#1403);
#421=VERTEX_POINT('',#1405);
#422=VERTEX_POINT('',#1409);
#423=VERTEX_POINT('',#1413);
#424=VERTEX_POINT('',#1414);
#425=VERTEX_POINT('',#1416);
#426=VERTEX_POINT('',#1418);
#427=VERTEX_POINT('',#1422);
#428=VERTEX_POINT('',#1423);
#429=VERTEX_POINT('',#1428);
#430=VERTEX_POINT('',#1429);
#431=VERTEX_POINT('',#1434);
#432=VERTEX_POINT('',#1435);
#433=VERTEX_POINT('',#1440);
#434=VERTEX_POINT('',#1441);
#435=VERTEX_POINT('',#1446);
#436=VERTEX_POINT('',#1447);
#437=VERTEX_POINT('',#1452);
#438=VERTEX_POINT('',#1453);
#439=VERTEX_POINT('',#1470);
#440=VERTEX_POINT('',#1471);
#441=VERTEX_POINT('',#1473);
#442=VERTEX_POINT('',#1475);
#443=VERTEX_POINT('',#1486);
#444=VERTEX_POINT('',#1490);
#445=VERTEX_POINT('',#1494);
#446=VERTEX_POINT('',#1498);
#447=VERTEX_POINT('',#1502);
#448=VERTEX_POINT('',#1504);
#449=VERTEX_POINT('',#1508);
#450=VERTEX_POINT('',#1512);
#451=VERTEX_POINT('',#1516);
#452=VERTEX_POINT('',#1520);
#453=VERTEX_POINT('',#1524);
#454=VERTEX_POINT('',#1528);
#455=VERTEX_POINT('',#1534);
#456=VERTEX_POINT('',#1535);
#457=VERTEX_POINT('',#1540);
#458=VERTEX_POINT('',#1544);
#459=EDGE_CURVE('',#383,#384,#239,.T.);
#460=EDGE_CURVE('',#384,#385,#240,.T.);
#461=EDGE_CURVE('',#386,#385,#241,.T.);
#462=EDGE_CURVE('',#383,#386,#242,.T.);
#463=EDGE_CURVE('',#387,#383,#46,.T.);
#464=EDGE_CURVE('',#388,#386,#47,.T.);
#465=EDGE_CURVE('',#387,#388,#243,.T.);
#466=EDGE_CURVE('',#389,#387,#244,.T.);
#467=EDGE_CURVE('',#390,#388,#245,.T.);
#468=EDGE_CURVE('',#389,#390,#246,.T.);
#469=EDGE_CURVE('',#391,#389,#48,.T.);
#470=EDGE_CURVE('',#392,#390,#49,.T.);
#471=EDGE_CURVE('',#391,#392,#247,.T.);
#472=EDGE_CURVE('',#393,#391,#248,.T.);
#473=EDGE_CURVE('',#394,#392,#249,.T.);
#474=EDGE_CURVE('',#393,#394,#250,.T.);
#475=EDGE_CURVE('',#395,#393,#50,.T.);
#476=EDGE_CURVE('',#396,#394,#51,.T.);
#477=EDGE_CURVE('',#395,#396,#251,.T.);
#478=EDGE_CURVE('',#397,#395,#252,.T.);
#479=EDGE_CURVE('',#398,#396,#253,.T.);
#480=EDGE_CURVE('',#397,#398,#254,.T.);
#481=EDGE_CURVE('',#384,#397,#52,.T.);
#482=EDGE_CURVE('',#385,#398,#53,.T.);
#483=EDGE_CURVE('',#399,#399,#54,.T.);
#484=EDGE_CURVE('',#400,#400,#55,.T.);
#485=EDGE_CURVE('',#401,#401,#56,.T.);
#486=EDGE_CURVE('',#402,#402,#57,.T.);
#487=EDGE_CURVE('',#403,#404,#58,.T.);
#488=EDGE_CURVE('',#404,#405,#255,.T.);
#489=EDGE_CURVE('',#405,#406,#59,.T.);
#490=EDGE_CURVE('',#406,#407,#256,.T.);
#491=EDGE_CURVE('',#407,#408,#60,.T.);
#492=EDGE_CURVE('',#408,#409,#257,.T.);
#493=EDGE_CURVE('',#409,#410,#61,.T.);
#494=EDGE_CURVE('',#410,#403,#258,.T.);
#495=EDGE_CURVE('',#411,#411,#62,.T.);
#496=EDGE_CURVE('',#411,#412,#259,.T.);
#497=EDGE_CURVE('',#412,#412,#63,.T.);
#498=EDGE_CURVE('',#412,#413,#260,.T.);
#499=EDGE_CURVE('',#413,#413,#64,.T.);
#500=EDGE_CURVE('',#414,#414,#65,.T.);
#501=EDGE_CURVE('',#414,#415,#261,.T.);
#502=EDGE_CURVE('',#415,#415,#66,.T.);
#503=EDGE_CURVE('',#415,#416,#262,.T.);
#504=EDGE_CURVE('',#416,#416,#67,.T.);
#505=EDGE_CURVE('',#417,#417,#68,.T.);
#506=EDGE_CURVE('',#417,#418,#263,.T.);
#507=EDGE_CURVE('',#418,#418,#69,.T.);
#508=EDGE_CURVE('',#418,#419,#264,.T.);
#509=EDGE_CURVE('',#419,#419,#70,.T.);
#510=EDGE_CURVE('',#420,#420,#71,.T.);
#511=EDGE_CURVE('',#420,#421,#265,.T.);
#512=EDGE_CURVE('',#421,#421,#72,.T.);
#513=EDGE_CURVE('',#421,#422,#266,.T.);
#514=EDGE_CURVE('',#422,#422,#73,.T.);
#515=EDGE_CURVE('',#423,#424,#74,.T.);
#516=EDGE_CURVE('',#424,#425,#267,.T.);
#517=EDGE_CURVE('',#425,#426,#75,.T.);
#518=EDGE_CURVE('',#426,#423,#268,.T.);
#519=EDGE_CURVE('',#427,#428,#76,.T.);
#520=EDGE_CURVE('',#428,#426,#77,.T.);
#521=EDGE_CURVE('',#425,#427,#78,.T.);
#522=EDGE_CURVE('',#429,#430,#79,.T.);
#523=EDGE_CURVE('',#430,#428,#269,.T.);
#524=EDGE_CURVE('',#427,#429,#270,.T.);
#525=EDGE_CURVE('',#431,#432,#80,.T.);
#526=EDGE_CURVE('',#432,#430,#81,.T.);
#527=EDGE_CURVE('',#429,#431,#82,.T.);
#528=EDGE_CURVE('',#433,#434,#83,.T.);
#529=EDGE_CURVE('',#434,#432,#271,.T.);
#530=EDGE_CURVE('',#431,#433,#272,.T.);
#531=EDGE_CURVE('',#435,#436,#84,.T.);
#532=EDGE_CURVE('',#436,#434,#85,.T.);
#533=EDGE_CURVE('',#433,#435,#86,.T.);
#534=EDGE_CURVE('',#437,#438,#87,.T.);
#535=EDGE_CURVE('',#438,#436,#273,.T.);
#536=EDGE_CURVE('',#435,#437,#274,.T.);
#537=EDGE_CURVE('',#423,#438,#88,.T.);
#538=EDGE_CURVE('',#437,#424,#89,.T.);
#539=EDGE_CURVE('',#393,#436,#275,.T.);
#540=EDGE_CURVE('',#395,#434,#276,.T.);
#541=EDGE_CURVE('',#438,#391,#277,.T.);
#542=EDGE_CURVE('',#423,#389,#278,.T.);
#543=EDGE_CURVE('',#426,#387,#279,.T.);
#544=EDGE_CURVE('',#439,#440,#280,.T.);
#545=EDGE_CURVE('',#440,#441,#281,.T.);
#546=EDGE_CURVE('',#441,#442,#282,.T.);
#547=EDGE_CURVE('',#442,#439,#283,.T.);
#548=EDGE_CURVE('',#397,#432,#284,.T.);
#549=EDGE_CURVE('',#428,#383,#285,.T.);
#550=EDGE_CURVE('',#384,#430,#286,.T.);
#551=EDGE_CURVE('',#399,#443,#287,.T.);
#552=EDGE_CURVE('',#443,#443,#90,.T.);
#553=EDGE_CURVE('',#400,#444,#288,.T.);
#554=EDGE_CURVE('',#444,#444,#91,.T.);
#555=EDGE_CURVE('',#401,#445,#289,.T.);
#556=EDGE_CURVE('',#445,#445,#92,.T.);
#557=EDGE_CURVE('',#402,#446,#290,.T.);
#558=EDGE_CURVE('',#446,#446,#93,.T.);
#559=EDGE_CURVE('',#410,#447,#291,.T.);
#560=EDGE_CURVE('',#448,#447,#292,.T.);
#561=EDGE_CURVE('',#448,#403,#293,.T.);
#562=EDGE_CURVE('',#409,#449,#294,.T.);
#563=EDGE_CURVE('',#447,#449,#94,.T.);
#564=EDGE_CURVE('',#408,#450,#295,.T.);
#565=EDGE_CURVE('',#449,#450,#296,.T.);
#566=EDGE_CURVE('',#407,#451,#297,.T.);
#567=EDGE_CURVE('',#450,#451,#95,.T.);
#568=EDGE_CURVE('',#406,#452,#298,.T.);
#569=EDGE_CURVE('',#451,#452,#299,.T.);
#570=EDGE_CURVE('',#405,#453,#300,.T.);
#571=EDGE_CURVE('',#452,#453,#96,.T.);
#572=EDGE_CURVE('',#404,#454,#301,.T.);
#573=EDGE_CURVE('',#453,#454,#302,.T.);
#574=EDGE_CURVE('',#454,#448,#97,.T.);
#575=EDGE_CURVE('',#455,#456,#303,.T.);
#576=EDGE_CURVE('',#455,#439,#304,.T.);
#577=EDGE_CURVE('',#456,#442,#305,.T.);
#578=EDGE_CURVE('',#456,#457,#306,.T.);
#579=EDGE_CURVE('',#457,#441,#307,.T.);
#580=EDGE_CURVE('',#457,#458,#308,.T.);
#581=EDGE_CURVE('',#458,#440,#309,.T.);
#582=EDGE_CURVE('',#458,#455,#310,.T.);
#583=ORIENTED_EDGE('',*,*,#459,.T.);
#584=ORIENTED_EDGE('',*,*,#460,.T.);
#585=ORIENTED_EDGE('',*,*,#461,.F.);
#586=ORIENTED_EDGE('',*,*,#462,.F.);
#587=ORIENTED_EDGE('',*,*,#463,.T.);
#588=ORIENTED_EDGE('',*,*,#462,.T.);
#589=ORIENTED_EDGE('',*,*,#464,.F.);
#590=ORIENTED_EDGE('',*,*,#465,.F.);
#591=ORIENTED_EDGE('',*,*,#466,.T.);
#592=ORIENTED_EDGE('',*,*,#465,.T.);
#593=ORIENTED_EDGE('',*,*,#467,.F.);
#594=ORIENTED_EDGE('',*,*,#468,.F.);
#595=ORIENTED_EDGE('',*,*,#469,.T.);
#596=ORIENTED_EDGE('',*,*,#468,.T.);
#597=ORIENTED_EDGE('',*,*,#470,.F.);
#598=ORIENTED_EDGE('',*,*,#471,.F.);
#599=ORIENTED_EDGE('',*,*,#472,.T.);
#600=ORIENTED_EDGE('',*,*,#471,.T.);
#601=ORIENTED_EDGE('',*,*,#473,.F.);
#602=ORIENTED_EDGE('',*,*,#474,.F.);
#603=ORIENTED_EDGE('',*,*,#475,.T.);
#604=ORIENTED_EDGE('',*,*,#474,.T.);
#605=ORIENTED_EDGE('',*,*,#476,.F.);
#606=ORIENTED_EDGE('',*,*,#477,.F.);
#607=ORIENTED_EDGE('',*,*,#478,.T.);
#608=ORIENTED_EDGE('',*,*,#477,.T.);
#609=ORIENTED_EDGE('',*,*,#479,.F.);
#610=ORIENTED_EDGE('',*,*,#480,.F.);
#611=ORIENTED_EDGE('',*,*,#481,.T.);
#612=ORIENTED_EDGE('',*,*,#480,.T.);
#613=ORIENTED_EDGE('',*,*,#482,.F.);
#614=ORIENTED_EDGE('',*,*,#460,.F.);
#615=ORIENTED_EDGE('',*,*,#482,.T.);
#616=ORIENTED_EDGE('',*,*,#479,.T.);
#617=ORIENTED_EDGE('',*,*,#476,.T.);
#618=ORIENTED_EDGE('',*,*,#473,.T.);
#619=ORIENTED_EDGE('',*,*,#470,.T.);
#620=ORIENTED_EDGE('',*,*,#467,.T.);
#621=ORIENTED_EDGE('',*,*,#464,.T.);
#622=ORIENTED_EDGE('',*,*,#461,.T.);
#623=ORIENTED_EDGE('',*,*,#483,.T.);
#624=ORIENTED_EDGE('',*,*,#484,.T.);
#625=ORIENTED_EDGE('',*,*,#485,.T.);
#626=ORIENTED_EDGE('',*,*,#486,.T.);
#627=ORIENTED_EDGE('',*,*,#487,.T.);
#628=ORIENTED_EDGE('',*,*,#488,.T.);
#629=ORIENTED_EDGE('',*,*,#489,.T.);
#630=ORIENTED_EDGE('',*,*,#490,.T.);
#631=ORIENTED_EDGE('',*,*,#491,.T.);
#632=ORIENTED_EDGE('',*,*,#492,.T.);
#633=ORIENTED_EDGE('',*,*,#493,.T.);
#634=ORIENTED_EDGE('',*,*,#494,.T.);
#635=ORIENTED_EDGE('',*,*,#495,.F.);
#636=ORIENTED_EDGE('',*,*,#496,.T.);
#637=ORIENTED_EDGE('',*,*,#497,.T.);
#638=ORIENTED_EDGE('',*,*,#496,.F.);
#639=ORIENTED_EDGE('',*,*,#497,.F.);
#640=ORIENTED_EDGE('',*,*,#498,.T.);
#641=ORIENTED_EDGE('',*,*,#499,.F.);
#642=ORIENTED_EDGE('',*,*,#498,.F.);
#643=ORIENTED_EDGE('',*,*,#500,.F.);
#644=ORIENTED_EDGE('',*,*,#501,.T.);
#645=ORIENTED_EDGE('',*,*,#502,.T.);
#646=ORIENTED_EDGE('',*,*,#501,.F.);
#647=ORIENTED_EDGE('',*,*,#502,.F.);
#648=ORIENTED_EDGE('',*,*,#503,.T.);
#649=ORIENTED_EDGE('',*,*,#504,.F.);
#650=ORIENTED_EDGE('',*,*,#503,.F.);
#651=ORIENTED_EDGE('',*,*,#505,.F.);
#652=ORIENTED_EDGE('',*,*,#506,.T.);
#653=ORIENTED_EDGE('',*,*,#507,.T.);
#654=ORIENTED_EDGE('',*,*,#506,.F.);
#655=ORIENTED_EDGE('',*,*,#507,.F.);
#656=ORIENTED_EDGE('',*,*,#508,.T.);
#657=ORIENTED_EDGE('',*,*,#509,.F.);
#658=ORIENTED_EDGE('',*,*,#508,.F.);
#659=ORIENTED_EDGE('',*,*,#510,.F.);
#660=ORIENTED_EDGE('',*,*,#511,.T.);
#661=ORIENTED_EDGE('',*,*,#512,.T.);
#662=ORIENTED_EDGE('',*,*,#511,.F.);
#663=ORIENTED_EDGE('',*,*,#512,.F.);
#664=ORIENTED_EDGE('',*,*,#513,.T.);
#665=ORIENTED_EDGE('',*,*,#514,.F.);
#666=ORIENTED_EDGE('',*,*,#513,.F.);
#667=ORIENTED_EDGE('',*,*,#515,.T.);
#668=ORIENTED_EDGE('',*,*,#516,.T.);
#669=ORIENTED_EDGE('',*,*,#517,.T.);
#670=ORIENTED_EDGE('',*,*,#518,.T.);
#671=ORIENTED_EDGE('',*,*,#519,.T.);
#672=ORIENTED_EDGE('',*,*,#520,.T.);
#673=ORIENTED_EDGE('',*,*,#517,.F.);
#674=ORIENTED_EDGE('',*,*,#521,.T.);
#675=ORIENTED_EDGE('',*,*,#522,.T.);
#676=ORIENTED_EDGE('',*,*,#523,.T.);
#677=ORIENTED_EDGE('',*,*,#519,.F.);
#678=ORIENTED_EDGE('',*,*,#524,.T.);
#679=ORIENTED_EDGE('',*,*,#525,.T.);
#680=ORIENTED_EDGE('',*,*,#526,.T.);
#681=ORIENTED_EDGE('',*,*,#522,.F.);
#682=ORIENTED_EDGE('',*,*,#527,.T.);
#683=ORIENTED_EDGE('',*,*,#528,.T.);
#684=ORIENTED_EDGE('',*,*,#529,.T.);
#685=ORIENTED_EDGE('',*,*,#525,.F.);
#686=ORIENTED_EDGE('',*,*,#530,.T.);
#687=ORIENTED_EDGE('',*,*,#531,.T.);
#688=ORIENTED_EDGE('',*,*,#532,.T.);
#689=ORIENTED_EDGE('',*,*,#528,.F.);
#690=ORIENTED_EDGE('',*,*,#533,.T.);
#691=ORIENTED_EDGE('',*,*,#534,.T.);
#692=ORIENTED_EDGE('',*,*,#535,.T.);
#693=ORIENTED_EDGE('',*,*,#531,.F.);
#694=ORIENTED_EDGE('',*,*,#536,.T.);
#695=ORIENTED_EDGE('',*,*,#515,.F.);
#696=ORIENTED_EDGE('',*,*,#537,.T.);
#697=ORIENTED_EDGE('',*,*,#534,.F.);
#698=ORIENTED_EDGE('',*,*,#538,.T.);
#699=ORIENTED_EDGE('',*,*,#532,.F.);
#700=ORIENTED_EDGE('',*,*,#539,.F.);
#701=ORIENTED_EDGE('',*,*,#475,.F.);
#702=ORIENTED_EDGE('',*,*,#540,.T.);
#703=ORIENTED_EDGE('',*,*,#535,.F.);
#704=ORIENTED_EDGE('',*,*,#541,.T.);
#705=ORIENTED_EDGE('',*,*,#472,.F.);
#706=ORIENTED_EDGE('',*,*,#539,.T.);
#707=ORIENTED_EDGE('',*,*,#537,.F.);
#708=ORIENTED_EDGE('',*,*,#542,.T.);
#709=ORIENTED_EDGE('',*,*,#469,.F.);
#710=ORIENTED_EDGE('',*,*,#541,.F.);
#711=ORIENTED_EDGE('',*,*,#518,.F.);
#712=ORIENTED_EDGE('',*,*,#543,.T.);
#713=ORIENTED_EDGE('',*,*,#466,.F.);
#714=ORIENTED_EDGE('',*,*,#542,.F.);
#715=ORIENTED_EDGE('',*,*,#544,.T.);
#716=ORIENTED_EDGE('',*,*,#545,.T.);
#717=ORIENTED_EDGE('',*,*,#546,.T.);
#718=ORIENTED_EDGE('',*,*,#547,.T.);
#719=ORIENTED_EDGE('',*,*,#499,.T.);
#720=ORIENTED_EDGE('',*,*,#504,.T.);
#721=ORIENTED_EDGE('',*,*,#509,.T.);
#722=ORIENTED_EDGE('',*,*,#514,.T.);
#723=ORIENTED_EDGE('',*,*,#516,.F.);
#724=ORIENTED_EDGE('',*,*,#538,.F.);
#725=ORIENTED_EDGE('',*,*,#536,.F.);
#726=ORIENTED_EDGE('',*,*,#533,.F.);
#727=ORIENTED_EDGE('',*,*,#530,.F.);
#728=ORIENTED_EDGE('',*,*,#527,.F.);
#729=ORIENTED_EDGE('',*,*,#524,.F.);
#730=ORIENTED_EDGE('',*,*,#521,.F.);
#731=ORIENTED_EDGE('',*,*,#529,.F.);
#732=ORIENTED_EDGE('',*,*,#540,.F.);
#733=ORIENTED_EDGE('',*,*,#478,.F.);
#734=ORIENTED_EDGE('',*,*,#548,.T.);
#735=ORIENTED_EDGE('',*,*,#520,.F.);
#736=ORIENTED_EDGE('',*,*,#549,.T.);
#737=ORIENTED_EDGE('',*,*,#463,.F.);
#738=ORIENTED_EDGE('',*,*,#543,.F.);
#739=ORIENTED_EDGE('',*,*,#526,.F.);
#740=ORIENTED_EDGE('',*,*,#548,.F.);
#741=ORIENTED_EDGE('',*,*,#481,.F.);
#742=ORIENTED_EDGE('',*,*,#550,.T.);
#743=ORIENTED_EDGE('',*,*,#523,.F.);
#744=ORIENTED_EDGE('',*,*,#550,.F.);
#745=ORIENTED_EDGE('',*,*,#459,.F.);
#746=ORIENTED_EDGE('',*,*,#549,.F.);
#747=ORIENTED_EDGE('',*,*,#483,.F.);
#748=ORIENTED_EDGE('',*,*,#551,.T.);
#749=ORIENTED_EDGE('',*,*,#552,.F.);
#750=ORIENTED_EDGE('',*,*,#551,.F.);
#751=ORIENTED_EDGE('',*,*,#484,.F.);
#752=ORIENTED_EDGE('',*,*,#553,.T.);
#753=ORIENTED_EDGE('',*,*,#554,.F.);
#754=ORIENTED_EDGE('',*,*,#553,.F.);
#755=ORIENTED_EDGE('',*,*,#485,.F.);
#756=ORIENTED_EDGE('',*,*,#555,.T.);
#757=ORIENTED_EDGE('',*,*,#556,.F.);
#758=ORIENTED_EDGE('',*,*,#555,.F.);
#759=ORIENTED_EDGE('',*,*,#486,.F.);
#760=ORIENTED_EDGE('',*,*,#557,.T.);
#761=ORIENTED_EDGE('',*,*,#558,.F.);
#762=ORIENTED_EDGE('',*,*,#557,.F.);
#763=ORIENTED_EDGE('',*,*,#559,.T.);
#764=ORIENTED_EDGE('',*,*,#560,.F.);
#765=ORIENTED_EDGE('',*,*,#561,.T.);
#766=ORIENTED_EDGE('',*,*,#494,.F.);
#767=ORIENTED_EDGE('',*,*,#562,.T.);
#768=ORIENTED_EDGE('',*,*,#563,.F.);
#769=ORIENTED_EDGE('',*,*,#559,.F.);
#770=ORIENTED_EDGE('',*,*,#493,.F.);
#771=ORIENTED_EDGE('',*,*,#564,.T.);
#772=ORIENTED_EDGE('',*,*,#565,.F.);
#773=ORIENTED_EDGE('',*,*,#562,.F.);
#774=ORIENTED_EDGE('',*,*,#492,.F.);
#775=ORIENTED_EDGE('',*,*,#566,.T.);
#776=ORIENTED_EDGE('',*,*,#567,.F.);
#777=ORIENTED_EDGE('',*,*,#564,.F.);
#778=ORIENTED_EDGE('',*,*,#491,.F.);
#779=ORIENTED_EDGE('',*,*,#568,.T.);
#780=ORIENTED_EDGE('',*,*,#569,.F.);
#781=ORIENTED_EDGE('',*,*,#566,.F.);
#782=ORIENTED_EDGE('',*,*,#490,.F.);
#783=ORIENTED_EDGE('',*,*,#570,.T.);
#784=ORIENTED_EDGE('',*,*,#571,.F.);
#785=ORIENTED_EDGE('',*,*,#568,.F.);
#786=ORIENTED_EDGE('',*,*,#489,.F.);
#787=ORIENTED_EDGE('',*,*,#572,.T.);
#788=ORIENTED_EDGE('',*,*,#573,.F.);
#789=ORIENTED_EDGE('',*,*,#570,.F.);
#790=ORIENTED_EDGE('',*,*,#488,.F.);
#791=ORIENTED_EDGE('',*,*,#561,.F.);
#792=ORIENTED_EDGE('',*,*,#574,.F.);
#793=ORIENTED_EDGE('',*,*,#572,.F.);
#794=ORIENTED_EDGE('',*,*,#487,.F.);
#795=ORIENTED_EDGE('',*,*,#575,.F.);
#796=ORIENTED_EDGE('',*,*,#576,.T.);
#797=ORIENTED_EDGE('',*,*,#547,.F.);
#798=ORIENTED_EDGE('',*,*,#577,.F.);
#799=ORIENTED_EDGE('',*,*,#578,.F.);
#800=ORIENTED_EDGE('',*,*,#577,.T.);
#801=ORIENTED_EDGE('',*,*,#546,.F.);
#802=ORIENTED_EDGE('',*,*,#579,.F.);
#803=ORIENTED_EDGE('',*,*,#580,.F.);
#804=ORIENTED_EDGE('',*,*,#579,.T.);
#805=ORIENTED_EDGE('',*,*,#545,.F.);
#806=ORIENTED_EDGE('',*,*,#581,.F.);
#807=ORIENTED_EDGE('',*,*,#582,.F.);
#808=ORIENTED_EDGE('',*,*,#581,.T.);
#809=ORIENTED_EDGE('',*,*,#544,.F.);
#810=ORIENTED_EDGE('',*,*,#576,.F.);
#811=ORIENTED_EDGE('',*,*,#582,.T.);
#812=ORIENTED_EDGE('',*,*,#575,.T.);
#813=ORIENTED_EDGE('',*,*,#578,.T.);
#814=ORIENTED_EDGE('',*,*,#580,.T.);
#815=ORIENTED_EDGE('',*,*,#495,.T.);
#816=ORIENTED_EDGE('',*,*,#500,.T.);
#817=ORIENTED_EDGE('',*,*,#505,.T.);
#818=ORIENTED_EDGE('',*,*,#510,.T.);
#819=ORIENTED_EDGE('',*,*,#552,.T.);
#820=ORIENTED_EDGE('',*,*,#554,.T.);
#821=ORIENTED_EDGE('',*,*,#556,.T.);
#822=ORIENTED_EDGE('',*,*,#558,.T.);
#823=ORIENTED_EDGE('',*,*,#560,.T.);
#824=ORIENTED_EDGE('',*,*,#563,.T.);
#825=ORIENTED_EDGE('',*,*,#565,.T.);
#826=ORIENTED_EDGE('',*,*,#567,.T.);
#827=ORIENTED_EDGE('',*,*,#569,.T.);
#828=ORIENTED_EDGE('',*,*,#571,.T.);
#829=ORIENTED_EDGE('',*,*,#573,.T.);
#830=ORIENTED_EDGE('',*,*,#574,.T.);
#831=PLANE('',#915);
#832=PLANE('',#919);
#833=PLANE('',#923);
#834=PLANE('',#927);
#835=PLANE('',#931);
#836=PLANE('',#985);
#837=PLANE('',#987);
#838=PLANE('',#988);
#839=PLANE('',#989);
#840=PLANE('',#992);
#841=PLANE('',#1001);
#842=PLANE('',#1004);
#843=PLANE('',#1007);
#844=PLANE('',#1010);
#845=PLANE('',#1013);
#846=PLANE('',#1014);
#847=PLANE('',#1015);
#848=PLANE('',#1016);
#849=PLANE('',#1017);
#850=ADVANCED_FACE('',(#118),#831,.T.);
#851=ADVANCED_FACE('',(#119),#98,.T.);
#852=ADVANCED_FACE('',(#120),#832,.T.);
#853=ADVANCED_FACE('',(#121),#99,.T.);
#854=ADVANCED_FACE('',(#122),#833,.T.);
#855=ADVANCED_FACE('',(#123),#100,.T.);
#856=ADVANCED_FACE('',(#124),#834,.T.);
#857=ADVANCED_FACE('',(#125),#101,.T.);
#858=ADVANCED_FACE('',(#126,#27,#28,#29,#30,#31),#835,.T.);
#859=ADVANCED_FACE('',(#127),#19,.F.);
#860=ADVANCED_FACE('',(#128),#102,.F.);
#861=ADVANCED_FACE('',(#129),#20,.F.);
#862=ADVANCED_FACE('',(#130),#103,.F.);
#863=ADVANCED_FACE('',(#131),#21,.F.);
#864=ADVANCED_FACE('',(#132),#104,.F.);
#865=ADVANCED_FACE('',(#133),#22,.F.);
#866=ADVANCED_FACE('',(#134),#105,.F.);
#867=ADVANCED_FACE('',(#135),#106,.F.);
#868=ADVANCED_FACE('',(#136),#15,.F.);
#869=ADVANCED_FACE('',(#137),#107,.F.);
#870=ADVANCED_FACE('',(#138),#16,.F.);
#871=ADVANCED_FACE('',(#139),#108,.F.);
#872=ADVANCED_FACE('',(#140),#17,.F.);
#873=ADVANCED_FACE('',(#141),#109,.F.);
#874=ADVANCED_FACE('',(#142),#18,.F.);
#875=ADVANCED_FACE('',(#143),#23,.T.);
#876=ADVANCED_FACE('',(#144),#836,.T.);
#877=ADVANCED_FACE('',(#145),#24,.T.);
#878=ADVANCED_FACE('',(#146),#837,.T.);
#879=ADVANCED_FACE('',(#147,#32,#33,#34,#35,#36),#838,.T.);
#880=ADVANCED_FACE('',(#148),#839,.T.);
#881=ADVANCED_FACE('',(#149),#25,.T.);
#882=ADVANCED_FACE('',(#150),#26,.T.);
#883=ADVANCED_FACE('',(#151),#840,.T.);
#884=ADVANCED_FACE('',(#152),#110,.F.);
#885=ADVANCED_FACE('',(#153),#111,.F.);
#886=ADVANCED_FACE('',(#154),#112,.F.);
#887=ADVANCED_FACE('',(#155),#113,.F.);
#888=ADVANCED_FACE('',(#156),#841,.F.);
#889=ADVANCED_FACE('',(#157),#114,.F.);
#890=ADVANCED_FACE('',(#158),#842,.F.);
#891=ADVANCED_FACE('',(#159),#115,.F.);
#892=ADVANCED_FACE('',(#160),#843,.F.);
#893=ADVANCED_FACE('',(#161),#116,.F.);
#894=ADVANCED_FACE('',(#162),#844,.F.);
#895=ADVANCED_FACE('',(#163),#117,.F.);
#896=ADVANCED_FACE('',(#164),#845,.T.);
#897=ADVANCED_FACE('',(#165),#846,.T.);
#898=ADVANCED_FACE('',(#166),#847,.T.);
#899=ADVANCED_FACE('',(#167),#848,.T.);
#900=ADVANCED_FACE('',(#168,#37,#38,#39,#40,#41,#42,#43,#44,#45),#849,.F.);
#901=CLOSED_SHELL('',(#850,#851,#852,#853,#854,#855,#856,#857,#858,#859,
#860,#861,#862,#863,#864,#865,#866,#867,#868,#869,#870,#871,#872,#873,#874,
#875,#876,#877,#878,#879,#880,#881,#882,#883,#884,#885,#886,#887,#888,#889,
#890,#891,#892,#893,#894,#895,#896,#897,#898,#899,#900));
#902=DERIVED_UNIT_ELEMENT(#904,1.);
#903=DERIVED_UNIT_ELEMENT(#1555,-3.);
#904=(
MASS_UNIT()
NAMED_UNIT(*)
SI_UNIT(.KILO.,.GRAM.)
);
#905=DERIVED_UNIT((#902,#903));
#906=MEASURE_REPRESENTATION_ITEM('density measure',
POSITIVE_RATIO_MEASURE(7850.),#905);
#907=PROPERTY_DEFINITION_REPRESENTATION(#912,#909);
#908=PROPERTY_DEFINITION_REPRESENTATION(#913,#910);
#909=REPRESENTATION('material name',(#911),#1552);
#910=REPRESENTATION('density',(#906),#1552);
#911=DESCRIPTIVE_REPRESENTATION_ITEM('Steel','Steel');
#912=PROPERTY_DEFINITION('material property','material name',#1562);
#913=PROPERTY_DEFINITION('material property','density of part',#1562);
#914=AXIS2_PLACEMENT_3D('',#1298,#1018,#1019);
#915=AXIS2_PLACEMENT_3D('',#1299,#1020,#1021);
#916=AXIS2_PLACEMENT_3D('',#1308,#1026,#1027);
#917=AXIS2_PLACEMENT_3D('',#1310,#1028,#1029);
#918=AXIS2_PLACEMENT_3D('',#1312,#1030,#1031);
#919=AXIS2_PLACEMENT_3D('',#1314,#1033,#1034);
#920=AXIS2_PLACEMENT_3D('',#1320,#1038,#1039);
#921=AXIS2_PLACEMENT_3D('',#1322,#1040,#1041);
#922=AXIS2_PLACEMENT_3D('',#1324,#1042,#1043);
#923=AXIS2_PLACEMENT_3D('',#1326,#1045,#1046);
#924=AXIS2_PLACEMENT_3D('',#1332,#1050,#1051);
#925=AXIS2_PLACEMENT_3D('',#1334,#1052,#1053);
#926=AXIS2_PLACEMENT_3D('',#1336,#1054,#1055);
#927=AXIS2_PLACEMENT_3D('',#1338,#1057,#1058);
#928=AXIS2_PLACEMENT_3D('',#1344,#1062,#1063);
#929=AXIS2_PLACEMENT_3D('',#1345,#1064,#1065);
#930=AXIS2_PLACEMENT_3D('',#1346,#1066,#1067);
#931=AXIS2_PLACEMENT_3D('',#1347,#1068,#1069);
#932=AXIS2_PLACEMENT_3D('',#1349,#1070,#1071);
#933=AXIS2_PLACEMENT_3D('',#1351,#1072,#1073);
#934=AXIS2_PLACEMENT_3D('',#1353,#1074,#1075);
#935=AXIS2_PLACEMENT_3D('',#1355,#1076,#1077);
#936=AXIS2_PLACEMENT_3D('',#1358,#1078,#1079);
#937=AXIS2_PLACEMENT_3D('',#1362,#1081,#1082);
#938=AXIS2_PLACEMENT_3D('',#1366,#1084,#1085);
#939=AXIS2_PLACEMENT_3D('',#1370,#1087,#1088);
#940=AXIS2_PLACEMENT_3D('',#1372,#1090,#1091);
#941=AXIS2_PLACEMENT_3D('',#1374,#1092,#1093);
#942=AXIS2_PLACEMENT_3D('',#1377,#1095,#1096);
#943=AXIS2_PLACEMENT_3D('',#1378,#1097,#1098);
#944=AXIS2_PLACEMENT_3D('',#1381,#1100,#1101);
#945=AXIS2_PLACEMENT_3D('',#1382,#1102,#1103);
#946=AXIS2_PLACEMENT_3D('',#1384,#1104,#1105);
#947=AXIS2_PLACEMENT_3D('',#1387,#1107,#1108);
#948=AXIS2_PLACEMENT_3D('',#1388,#1109,#1110);
#949=AXIS2_PLACEMENT_3D('',#1391,#1112,#1113);
#950=AXIS2_PLACEMENT_3D('',#1392,#1114,#1115);
#951=AXIS2_PLACEMENT_3D('',#1394,#1116,#1117);
#952=AXIS2_PLACEMENT_3D('',#1397,#1119,#1120);
#953=AXIS2_PLACEMENT_3D('',#1398,#1121,#1122);
#954=AXIS2_PLACEMENT_3D('',#1401,#1124,#1125);
#955=AXIS2_PLACEMENT_3D('',#1402,#1126,#1127);
#956=AXIS2_PLACEMENT_3D('',#1404,#1128,#1129);
#957=AXIS2_PLACEMENT_3D('',#1407,#1131,#1132);
#958=AXIS2_PLACEMENT_3D('',#1408,#1133,#1134);
#959=AXIS2_PLACEMENT_3D('',#1411,#1136,#1137);
#960=AXIS2_PLACEMENT_3D('',#1412,#1138,#1139);
#961=AXIS2_PLACEMENT_3D('',#1415,#1140,#1141);
#962=AXIS2_PLACEMENT_3D('',#1419,#1143,#1144);
#963=AXIS2_PLACEMENT_3D('',#1421,#1146,#1147);
#964=AXIS2_PLACEMENT_3D('',#1424,#1148,#1149);
#965=AXIS2_PLACEMENT_3D('',#1425,#1150,#1151);
#966=AXIS2_PLACEMENT_3D('',#1426,#1152,#1153);
#967=AXIS2_PLACEMENT_3D('',#1427,#1154,#1155);
#968=AXIS2_PLACEMENT_3D('',#1430,#1156,#1157);
#969=AXIS2_PLACEMENT_3D('',#1433,#1160,#1161);
#970=AXIS2_PLACEMENT_3D('',#1436,#1162,#1163);
#971=AXIS2_PLACEMENT_3D('',#1437,#1164,#1165);
#972=AXIS2_PLACEMENT_3D('',#1438,#1166,#1167);
#973=AXIS2_PLACEMENT_3D('',#1439,#1168,#1169);
#974=AXIS2_PLACEMENT_3D('',#1442,#1170,#1171);
#975=AXIS2_PLACEMENT_3D('',#1445,#1174,#1175);
#976=AXIS2_PLACEMENT_3D('',#1448,#1176,#1177);
#977=AXIS2_PLACEMENT_3D('',#1449,#1178,#1179);
#978=AXIS2_PLACEMENT_3D('',#1450,#1180,#1181);
#979=AXIS2_PLACEMENT_3D('',#1451,#1182,#1183);
#980=AXIS2_PLACEMENT_3D('',#1454,#1184,#1185);
#981=AXIS2_PLACEMENT_3D('',#1457,#1188,#1189);
#982=AXIS2_PLACEMENT_3D('',#1458,#1190,#1191);
#983=AXIS2_PLACEMENT_3D('',#1459,#1192,#1193);
#984=AXIS2_PLACEMENT_3D('',#1460,#1194,#1195);
#985=AXIS2_PLACEMENT_3D('',#1463,#1198,#1199);
#986=AXIS2_PLACEMENT_3D('',#1465,#1201,#1202);
#987=AXIS2_PLACEMENT_3D('',#1467,#1204,#1205);
#988=AXIS2_PLACEMENT_3D('',#1469,#1207,#1208);
#989=AXIS2_PLACEMENT_3D('',#1478,#1213,#1214);
#990=AXIS2_PLACEMENT_3D('',#1480,#1216,#1217);
#991=AXIS2_PLACEMENT_3D('',#1482,#1219,#1220);
#992=AXIS2_PLACEMENT_3D('',#1484,#1222,#1223);
#993=AXIS2_PLACEMENT_3D('',#1485,#1224,#1225);
#994=AXIS2_PLACEMENT_3D('',#1488,#1227,#1228);
#995=AXIS2_PLACEMENT_3D('',#1489,#1229,#1230);
#996=AXIS2_PLACEMENT_3D('',#1492,#1232,#1233);
#997=AXIS2_PLACEMENT_3D('',#1493,#1234,#1235);
#998=AXIS2_PLACEMENT_3D('',#1496,#1237,#1238);
#999=AXIS2_PLACEMENT_3D('',#1497,#1239,#1240);
#1000=AXIS2_PLACEMENT_3D('',#1500,#1242,#1243);
#1001=AXIS2_PLACEMENT_3D('',#1501,#1244,#1245);
#1002=AXIS2_PLACEMENT_3D('',#1507,#1249,#1250);
#1003=AXIS2_PLACEMENT_3D('',#1510,#1252,#1253);
#1004=AXIS2_PLACEMENT_3D('',#1511,#1254,#1255);
#1005=AXIS2_PLACEMENT_3D('',#1515,#1258,#1259);
#1006=AXIS2_PLACEMENT_3D('',#1518,#1261,#1262);
#1007=AXIS2_PLACEMENT_3D('',#1519,#1263,#1264);
#1008=AXIS2_PLACEMENT_3D('',#1523,#1267,#1268);
#1009=AXIS2_PLACEMENT_3D('',#1526,#1270,#1271);
#1010=AXIS2_PLACEMENT_3D('',#1527,#1272,#1273);
#1011=AXIS2_PLACEMENT_3D('',#1531,#1276,#1277);
#1012=AXIS2_PLACEMENT_3D('',#1532,#1278,#1279);
#1013=AXIS2_PLACEMENT_3D('',#1533,#1280,#1281);
#1014=AXIS2_PLACEMENT_3D('',#1539,#1285,#1286);
#1015=AXIS2_PLACEMENT_3D('',#1543,#1289,#1290);
#1016=AXIS2_PLACEMENT_3D('',#1547,#1293,#1294);
#1017=AXIS2_PLACEMENT_3D('',#1549,#1296,#1297);
#1018=DIRECTION('axis',(0.,0.,1.));
#1019=DIRECTION('refdir',(1.,0.,0.));
#1020=DIRECTION('center_axis',(6.16790569236198E-17,1.,0.));
#1021=DIRECTION('ref_axis',(-1.,6.16790569236198E-17,0.));
#1022=DIRECTION('',(-1.,6.16790569236198E-17,0.));
#1023=DIRECTION('',(0.,0.,1.));
#1024=DIRECTION('',(-1.,6.16790569236198E-17,0.));
#1025=DIRECTION('',(0.,0.,1.));
#1026=DIRECTION('center_axis',(0.,0.,1.));
#1027=DIRECTION('ref_axis',(1.,3.33066907387546E-15,0.));
#1028=DIRECTION('center_axis',(0.,0.,1.));
#1029=DIRECTION('ref_axis',(1.,3.33066907387546E-15,0.));
#1030=DIRECTION('center_axis',(0.,0.,1.));
#1031=DIRECTION('ref_axis',(1.,3.33066907387546E-15,0.));
#1032=DIRECTION('',(0.,0.,1.));
#1033=DIRECTION('center_axis',(1.,-1.85037170770859E-16,0.));
#1034=DIRECTION('ref_axis',(1.85037170770859E-16,1.,0.));
#1035=DIRECTION('',(1.85037170770859E-16,1.,0.));
#1036=DIRECTION('',(1.85037170770859E-16,1.,0.));
#1037=DIRECTION('',(0.,0.,1.));
#1038=DIRECTION('center_axis',(0.,0.,1.));
#1039=DIRECTION('ref_axis',(1.11022302462516E-15,-1.,0.));
#1040=DIRECTION('center_axis',(0.,0.,1.));
#1041=DIRECTION('ref_axis',(1.11022302462516E-15,-1.,0.));
#1042=DIRECTION('center_axis',(0.,0.,1.));
#1043=DIRECTION('ref_axis',(1.11022302462516E-15,-1.,0.));
#1044=DIRECTION('',(0.,0.,1.));
#1045=DIRECTION('center_axis',(0.,-1.,0.));
#1046=DIRECTION('ref_axis',(1.,0.,0.));
#1047=DIRECTION('',(1.,0.,0.));
#1048=DIRECTION('',(1.,0.,0.));
#1049=DIRECTION('',(0.,0.,1.));
#1050=DIRECTION('center_axis',(0.,0.,1.));
#1051=DIRECTION('ref_axis',(-1.,0.,0.));
#1052=DIRECTION('center_axis',(0.,0.,1.));
#1053=DIRECTION('ref_axis',(-1.,0.,0.));
#1054=DIRECTION('center_axis',(0.,0.,1.));
#1055=DIRECTION('ref_axis',(-1.,0.,0.));
#1056=DIRECTION('',(0.,0.,1.));
#1057=DIRECTION('center_axis',(-1.,-1.85037170770859E-16,0.));
#1058=DIRECTION('ref_axis',(1.85037170770859E-16,-1.,0.));
#1059=DIRECTION('',(1.85037170770859E-16,-1.,0.));
#1060=DIRECTION('',(1.85037170770859E-16,-1.,0.));
#1061=DIRECTION('',(0.,0.,1.));
#1062=DIRECTION('center_axis',(0.,0.,1.));
#1063=DIRECTION('ref_axis',(-1.11022302462516E-15,1.,0.));
#1064=DIRECTION('center_axis',(0.,0.,1.));
#1065=DIRECTION('ref_axis',(-1.11022302462516E-15,1.,0.));
#1066=DIRECTION('center_axis',(0.,0.,1.));
#1067=DIRECTION('ref_axis',(-1.11022302462516E-15,1.,0.));
#1068=DIRECTION('center_axis',(0.,0.,1.));
#1069=DIRECTION('ref_axis',(-1.,0.,0.));
#1070=DIRECTION('center_axis',(0.,0.,-1.));
#1071=DIRECTION('ref_axis',(1.,0.,0.));
#1072=DIRECTION('center_axis',(0.,0.,-1.));
#1073=DIRECTION('ref_axis',(1.,0.,0.));
#1074=DIRECTION('center_axis',(0.,0.,-1.));
#1075=DIRECTION('ref_axis',(1.,0.,0.));
#1076=DIRECTION('center_axis',(0.,0.,-1.));
#1077=DIRECTION('ref_axis',(1.,0.,0.));
#1078=DIRECTION('center_axis',(0.,0.,-1.));
#1079=DIRECTION('ref_axis',(0.,1.,0.));
#1080=DIRECTION('',(1.,8.28524645242654E-17,0.));
#1081=DIRECTION('center_axis',(0.,0.,-1.));
#1082=DIRECTION('ref_axis',(1.,1.11022302462516E-15,0.));
#1083=DIRECTION('',(0.,-1.,0.));
#1084=DIRECTION('center_axis',(0.,0.,-1.));
#1085=DIRECTION('ref_axis',(-1.11022302462516E-15,-1.,0.));
#1086=DIRECTION('',(-1.,8.28524645242654E-17,0.));
#1087=DIRECTION('center_axis',(0.,0.,-1.));
#1088=DIRECTION('ref_axis',(-1.,0.,0.));
#1089=DIRECTION('',(0.,1.,0.));
#1090=DIRECTION('center_axis',(0.,0.,-1.));
#1091=DIRECTION('ref_axis',(-1.,0.,0.));
#1092=DIRECTION('center_axis',(0.,0.,1.));
#1093=DIRECTION('ref_axis',(-1.,0.,0.));
#1094=DIRECTION('',(-0.707106781186547,-8.65956056235493E-17,0.707106781186548));
#1095=DIRECTION('center_axis',(0.,0.,1.));
#1096=DIRECTION('ref_axis',(-1.,0.,0.));
#1097=DIRECTION('center_axis',(0.,0.,1.));
#1098=DIRECTION('ref_axis',(-1.,0.,0.));
#1099=DIRECTION('',(0.,0.,1.));
#1100=DIRECTION('center_axis',(0.,0.,-1.));
#1101=DIRECTION('ref_axis',(-1.,0.,0.));
#1102=DIRECTION('center_axis',(0.,0.,-1.));
#1103=DIRECTION('ref_axis',(-1.,0.,0.));
#1104=DIRECTION('center_axis',(0.,0.,1.));
#1105=DIRECTION('ref_axis',(-1.,0.,0.));
#1106=DIRECTION('',(-0.707106781186547,-8.65956056235493E-17,0.707106781186548));
#1107=DIRECTION('center_axis',(0.,0.,1.));
#1108=DIRECTION('ref_axis',(-1.,0.,0.));
#1109=DIRECTION('center_axis',(0.,0.,1.));
#1110=DIRECTION('ref_axis',(-1.,0.,0.));
#1111=DIRECTION('',(0.,0.,1.));
#1112=DIRECTION('center_axis',(0.,0.,-1.));
#1113=DIRECTION('ref_axis',(-1.,0.,0.));
#1114=DIRECTION('center_axis',(0.,0.,-1.));
#1115=DIRECTION('ref_axis',(-1.,0.,0.));
#1116=DIRECTION('center_axis',(0.,0.,1.));
#1117=DIRECTION('ref_axis',(-1.,0.,0.));
#1118=DIRECTION('',(-0.707106781186547,-8.65956056235493E-17,0.707106781186548));
#1119=DIRECTION('center_axis',(0.,0.,1.));
#1120=DIRECTION('ref_axis',(-1.,0.,0.));
#1121=DIRECTION('center_axis',(0.,0.,1.));
#1122=DIRECTION('ref_axis',(-1.,0.,0.));
#1123=DIRECTION('',(0.,0.,1.));
#1124=DIRECTION('center_axis',(0.,0.,-1.));
#1125=DIRECTION('ref_axis',(-1.,0.,0.));
#1126=DIRECTION('center_axis',(0.,0.,-1.));
#1127=DIRECTION('ref_axis',(-1.,0.,0.));
#1128=DIRECTION('center_axis',(0.,0.,1.));
#1129=DIRECTION('ref_axis',(-1.,0.,0.));
#1130=DIRECTION('',(-0.707106781186547,-8.65956056235493E-17,0.707106781186548));
#1131=DIRECTION('center_axis',(0.,0.,1.));
#1132=DIRECTION('ref_axis',(-1.,0.,0.));
#1133=DIRECTION('center_axis',(0.,0.,1.));
#1134=DIRECTION('ref_axis',(-1.,0.,0.));
#1135=DIRECTION('',(0.,0.,1.));
#1136=DIRECTION('center_axis',(0.,0.,-1.));
#1137=DIRECTION('ref_axis',(-1.,0.,0.));
#1138=DIRECTION('center_axis',(1.85037170770859E-16,1.,0.));
#1139=DIRECTION('ref_axis',(-0.382683432365089,0.,-0.923879532511287));
#1140=DIRECTION('center_axis',(-1.25607396694702E-15,-1.,0.));
#1141=DIRECTION('ref_axis',(-0.707106781186547,8.88178419700126E-16,-0.707106781186548));
#1142=DIRECTION('',(1.85037170770859E-16,1.,0.));
#1143=DIRECTION('center_axis',(-1.25607396694702E-15,1.,0.));
#1144=DIRECTION('ref_axis',(0.,0.,-1.));
#1145=DIRECTION('',(-1.85037170770859E-16,-1.,0.));
#1146=DIRECTION('center_axis',(0.,0.,1.));
#1147=DIRECTION('ref_axis',(1.,0.,0.));
#1148=DIRECTION('center_axis',(-1.,1.25607396694702E-15,0.));
#1149=DIRECTION('ref_axis',(0.,0.,-1.));
#1150=DIRECTION('center_axis',(-5.20959119416544E-31,2.08358489031234E-16,
-1.));
#1151=DIRECTION('ref_axis',(0.707106781186546,0.707106781186549,1.47331700511768E-16));
#1152=DIRECTION('center_axis',(0.,0.,1.));
#1153=DIRECTION('ref_axis',(0.707106781186547,0.707106781186549,0.));
#1154=DIRECTION('center_axis',(-1.,6.16790569236198E-17,0.));
#1155=DIRECTION('ref_axis',(0.,-0.382683432365089,-0.923879532511287));
#1156=DIRECTION('center_axis',(-1.,1.25607396694702E-15,0.));
#1157=DIRECTION('ref_axis',(0.,0.,-1.));
#1158=DIRECTION('',(1.,-6.16790569236198E-17,0.));
#1159=DIRECTION('',(-1.,6.16790569236198E-17,0.));
#1160=DIRECTION('center_axis',(0.,0.,1.));
#1161=DIRECTION('ref_axis',(1.,0.,0.));
#1162=DIRECTION('center_axis',(-5.02429586778808E-15,-1.,0.));
#1163=DIRECTION('ref_axis',(0.,0.,-1.));
#1164=DIRECTION('center_axis',(-1.04179244515617E-16,-3.12537733546851E-16,
-1.));
#1165=DIRECTION('ref_axis',(-0.707106781186549,0.707106781186546,-1.47331700511768E-16));
#1166=DIRECTION('center_axis',(0.,0.,1.));
#1167=DIRECTION('ref_axis',(-0.707106781186548,0.707106781186547,0.));
#1168=DIRECTION('center_axis',(1.85037170770859E-16,-1.,0.));
#1169=DIRECTION('ref_axis',(0.382683432365091,2.4033934848786E-16,-0.923879532511286));
#1170=DIRECTION('center_axis',(1.25607396694702E-15,-1.,0.));
#1171=DIRECTION('ref_axis',(0.,0.,-1.));
#1172=DIRECTION('',(-1.85037170770859E-16,1.,0.));
#1173=DIRECTION('',(1.85037170770859E-16,-1.,0.));
#1174=DIRECTION('center_axis',(0.,0.,1.));
#1175=DIRECTION('ref_axis',(1.,0.,0.));
#1176=DIRECTION('center_axis',(1.,0.,0.));
#1177=DIRECTION('ref_axis',(0.,0.,-1.));
#1178=DIRECTION('center_axis',(-4.16716978062467E-16,2.08358489031233E-16,
-1.));
#1179=DIRECTION('ref_axis',(-0.707106781186547,-0.707106781186548,1.47331700511768E-16));
#1180=DIRECTION('center_axis',(0.,0.,1.));
#1181=DIRECTION('ref_axis',(-0.707106781186547,-0.707106781186548,0.));
#1182=DIRECTION('center_axis',(1.,0.,0.));
#1183=DIRECTION('ref_axis',(0.,0.382683432365089,-0.923879532511287));
#1184=DIRECTION('center_axis',(1.,1.25607396694702E-15,0.));
#1185=DIRECTION('ref_axis',(0.,0.,-1.));
#1186=DIRECTION('',(-1.,0.,0.));
#1187=DIRECTION('',(1.,0.,0.));
#1188=DIRECTION('center_axis',(0.,0.,1.));
#1189=DIRECTION('ref_axis',(1.,0.,0.));
#1190=DIRECTION('center_axis',(-2.08358489031234E-16,-2.08358489031234E-16,
-1.));
#1191=DIRECTION('ref_axis',(0.707106781186548,-0.707106781186547,0.));
#1192=DIRECTION('center_axis',(0.,0.,1.));
#1193=DIRECTION('ref_axis',(0.707106781186548,-0.707106781186547,0.));
#1194=DIRECTION('center_axis',(0.,0.,-1.));
#1195=DIRECTION('ref_axis',(-1.,0.,0.));
#1196=DIRECTION('',(0.,-0.707106781186547,-0.707106781186547));
#1197=DIRECTION('',(-0.707106781186548,0.,-0.707106781186547));
#1198=DIRECTION('center_axis',(0.,-0.707106781186548,0.707106781186548));
#1199=DIRECTION('ref_axis',(1.,0.,0.));
#1200=DIRECTION('',(-6.2803698347351E-16,0.707106781186547,0.707106781186547));
#1201=DIRECTION('center_axis',(0.,0.,-1.));
#1202=DIRECTION('ref_axis',(1.11022302462516E-15,-1.,0.));
#1203=DIRECTION('',(-0.707106781186547,0.,0.707106781186547));
#1204=DIRECTION('center_axis',(0.707106781186548,-1.30841038223648E-16,
0.707106781186548));
#1205=DIRECTION('ref_axis',(0.707106781186548,0.,-0.707106781186548));
#1206=DIRECTION('',(-0.707106781186547,-6.2803698347351E-16,0.707106781186547));
#1207=DIRECTION('center_axis',(0.,0.,1.));
#1208=DIRECTION('ref_axis',(1.,0.,0.));
#1209=DIRECTION('',(1.,0.,0.));
#1210=DIRECTION('',(-3.49676543189026E-16,1.,0.));
#1211=DIRECTION('',(-1.,0.,0.));
#1212=DIRECTION('',(0.,-1.,0.));
#1213=DIRECTION('center_axis',(-0.707106781186548,-1.30841038223648E-16,
0.707106781186547));
#1214=DIRECTION('ref_axis',(0.707106781186547,0.,0.707106781186548));
#1215=DIRECTION('',(-0.707106781186547,0.,-0.707106781186547));
#1216=DIRECTION('center_axis',(0.,0.,-1.));
#1217=DIRECTION('ref_axis',(1.,3.33066907387546E-15,0.));
#1218=DIRECTION('',(6.2803698347351E-16,-0.707106781186547,0.707106781186547));
#1219=DIRECTION('center_axis',(0.,0.,-1.));
#1220=DIRECTION('ref_axis',(-1.11022302462516E-15,1.,0.));
#1221=DIRECTION('',(-6.2803698347351E-16,0.707106781186547,-0.707106781186547));
#1222=DIRECTION('center_axis',(4.36136794078826E-17,0.707106781186547,0.707106781186548));
#1223=DIRECTION('ref_axis',(1.,0.,-6.16790569236197E-17));
#1224=DIRECTION('center_axis',(0.,0.,-1.));
#1225=DIRECTION('ref_axis',(1.,0.,0.));
#1226=DIRECTION('',(0.,0.,-1.));
#1227=DIRECTION('center_axis',(0.,0.,1.));
#1228=DIRECTION('ref_axis',(1.,0.,0.));
#1229=DIRECTION('center_axis',(0.,0.,-1.));
#1230=DIRECTION('ref_axis',(1.,0.,0.));
#1231=DIRECTION('',(0.,0.,-1.));
#1232=DIRECTION('center_axis',(0.,0.,1.));
#1233=DIRECTION('ref_axis',(1.,0.,0.));
#1234=DIRECTION('center_axis',(0.,0.,-1.));
#1235=DIRECTION('ref_axis',(1.,0.,0.));
#1236=DIRECTION('',(0.,0.,-1.));
#1237=DIRECTION('center_axis',(0.,0.,1.));
#1238=DIRECTION('ref_axis',(1.,0.,0.));
#1239=DIRECTION('center_axis',(0.,0.,-1.));
#1240=DIRECTION('ref_axis',(1.,0.,0.));
#1241=DIRECTION('',(0.,0.,-1.));
#1242=DIRECTION('center_axis',(0.,0.,1.));
#1243=DIRECTION('ref_axis',(1.,0.,0.));
#1244=DIRECTION('center_axis',(-1.,0.,0.));
#1245=DIRECTION('ref_axis',(0.,1.,0.));
#1246=DIRECTION('',(0.,0.,-1.));
#1247=DIRECTION('',(0.,-1.,0.));
#1248=DIRECTION('',(0.,0.,1.));
#1249=DIRECTION('center_axis',(0.,0.,-1.));
#1250=DIRECTION('ref_axis',(-1.,0.,0.));
#1251=DIRECTION('',(0.,0.,-1.));
#1252=DIRECTION('center_axis',(0.,0.,1.));
#1253=DIRECTION('ref_axis',(-1.,0.,0.));
#1254=DIRECTION('center_axis',(-8.28524645242654E-17,-1.,0.));
#1255=DIRECTION('ref_axis',(-1.,8.28524645242654E-17,0.));
#1256=DIRECTION('',(0.,0.,-1.));
#1257=DIRECTION('',(1.,-8.28524645242654E-17,0.));
#1258=DIRECTION('center_axis',(0.,0.,-1.));
#1259=DIRECTION('ref_axis',(0.,-1.,0.));
#1260=DIRECTION('',(0.,0.,-1.));
#1261=DIRECTION('center_axis',(0.,0.,1.));
#1262=DIRECTION('ref_axis',(0.,-1.,0.));
#1263=DIRECTION('center_axis',(1.,-8.28524645242654E-17,0.));
#1264=DIRECTION('ref_axis',(-8.28524645242654E-17,-1.,0.));
#1265=DIRECTION('',(0.,0.,-1.));
#1266=DIRECTION('',(8.28524645242654E-17,1.,0.));
#1267=DIRECTION('center_axis',(0.,0.,-1.));
#1268=DIRECTION('ref_axis',(1.,1.11022302462516E-15,0.));
#1269=DIRECTION('',(0.,0.,-1.));
#1270=DIRECTION('center_axis',(0.,0.,1.));
#1271=DIRECTION('ref_axis',(1.,1.11022302462516E-15,0.));
#1272=DIRECTION('center_axis',(0.,1.,0.));
#1273=DIRECTION('ref_axis',(1.,0.,0.));
#1274=DIRECTION('',(0.,0.,-1.));
#1275=DIRECTION('',(-1.,0.,0.));
#1276=DIRECTION('center_axis',(0.,0.,-1.));
#1277=DIRECTION('ref_axis',(0.,1.,0.));
#1278=DIRECTION('center_axis',(0.,0.,1.));
#1279=DIRECTION('ref_axis',(0.,1.,0.));
#1280=DIRECTION('center_axis',(-1.,0.,0.));
#1281=DIRECTION('ref_axis',(0.,-1.,0.));
#1282=DIRECTION('',(0.,1.,0.));
#1283=DIRECTION('',(0.,0.,1.));
#1284=DIRECTION('',(0.,0.,1.));
#1285=DIRECTION('center_axis',(0.,1.,0.));
#1286=DIRECTION('ref_axis',(-1.,0.,0.));
#1287=DIRECTION('',(1.,0.,0.));
#1288=DIRECTION('',(0.,0.,1.));
#1289=DIRECTION('center_axis',(1.,3.49676543189026E-16,0.));
#1290=DIRECTION('ref_axis',(-3.49676543189026E-16,1.,0.));
#1291=DIRECTION('',(3.49676543189026E-16,-1.,0.));
#1292=DIRECTION('',(0.,0.,1.));
#1293=DIRECTION('center_axis',(0.,-1.,0.));
#1294=DIRECTION('ref_axis',(1.,0.,0.));
#1295=DIRECTION('',(-1.,0.,0.));
#1296=DIRECTION('center_axis',(0.,0.,1.));
#1297=DIRECTION('ref_axis',(1.,0.,0.));
#1298=CARTESIAN_POINT('',(0.,0.,0.));
#1299=CARTESIAN_POINT('Origin',(18.,20.,5.));
#1300=CARTESIAN_POINT('',(18.,20.,5.));
#1301=CARTESIAN_POINT('',(-18.,20.,5.));
#1302=CARTESIAN_POINT('',(-18.,20.,5.));
#1303=CARTESIAN_POINT('',(-18.,20.,15.));
#1304=CARTESIAN_POINT('',(-18.,20.,5.));
#1305=CARTESIAN_POINT('',(18.,20.,15.));
#1306=CARTESIAN_POINT('',(-18.,20.,15.));
#1307=CARTESIAN_POINT('',(18.,20.,5.));
#1308=CARTESIAN_POINT('Origin',(18.,18.,5.));
#1309=CARTESIAN_POINT('',(20.,18.,5.));
#1310=CARTESIAN_POINT('Origin',(18.,18.,5.));
#1311=CARTESIAN_POINT('',(20.,18.,15.));
#1312=CARTESIAN_POINT('Origin',(18.,18.,15.));
#1313=CARTESIAN_POINT('',(20.,18.,5.));
#1314=CARTESIAN_POINT('Origin',(20.,-18.,5.));
#1315=CARTESIAN_POINT('',(20.,-18.,5.));
#1316=CARTESIAN_POINT('',(20.,18.,5.));
#1317=CARTESIAN_POINT('',(20.,-18.,15.));
#1318=CARTESIAN_POINT('',(20.,18.,15.));
#1319=CARTESIAN_POINT('',(20.,-18.,5.));
#1320=CARTESIAN_POINT('Origin',(18.,-18.,5.));
#1321=CARTESIAN_POINT('',(18.,-20.,5.));
#1322=CARTESIAN_POINT('Origin',(18.,-18.,5.));
#1323=CARTESIAN_POINT('',(18.,-20.,15.));
#1324=CARTESIAN_POINT('Origin',(18.,-18.,15.));
#1325=CARTESIAN_POINT('',(18.,-20.,5.));
#1326=CARTESIAN_POINT('Origin',(-18.,-20.,5.));
#1327=CARTESIAN_POINT('',(-18.,-20.,5.));
#1328=CARTESIAN_POINT('',(18.,-20.,5.));
#1329=CARTESIAN_POINT('',(-18.,-20.,15.));
#1330=CARTESIAN_POINT('',(18.,-20.,15.));
#1331=CARTESIAN_POINT('',(-18.,-20.,5.));
#1332=CARTESIAN_POINT('Origin',(-18.,-18.,5.));
#1333=CARTESIAN_POINT('',(-20.,-18.,5.));
#1334=CARTESIAN_POINT('Origin',(-18.,-18.,5.));
#1335=CARTESIAN_POINT('',(-20.,-18.,15.));
#1336=CARTESIAN_POINT('Origin',(-18.,-18.,15.));
#1337=CARTESIAN_POINT('',(-20.,-18.,5.));
#1338=CARTESIAN_POINT('Origin',(-20.,18.,5.));
#1339=CARTESIAN_POINT('',(-20.,18.,5.));
#1340=CARTESIAN_POINT('',(-20.,-18.,5.));
#1341=CARTESIAN_POINT('',(-20.,18.,15.));
#1342=CARTESIAN_POINT('',(-20.,-18.,15.));
#1343=CARTESIAN_POINT('',(-20.,18.,5.));
#1344=CARTESIAN_POINT('Origin',(-18.,18.,5.));
#1345=CARTESIAN_POINT('Origin',(-18.,18.,5.));
#1346=CARTESIAN_POINT('Origin',(-18.,18.,15.));
#1347=CARTESIAN_POINT('Origin',(0.,4.44089209850063E-15,15.));
#1348=CARTESIAN_POINT('',(15.73,-17.,15.));
#1349=CARTESIAN_POINT('Origin',(17.,-17.,15.));
#1350=CARTESIAN_POINT('',(-18.27,17.,15.));
#1351=CARTESIAN_POINT('Origin',(-17.,17.,15.));
#1352=CARTESIAN_POINT('',(15.73,17.,15.));
#1353=CARTESIAN_POINT('Origin',(17.,17.,15.));
#1354=CARTESIAN_POINT('',(-18.27,-17.,15.));
#1355=CARTESIAN_POINT('Origin',(-17.,-17.,15.));
#1356=CARTESIAN_POINT('',(-15.4,13.4,15.));
#1357=CARTESIAN_POINT('',(-13.4,15.4,15.));
#1358=CARTESIAN_POINT('Origin',(-13.4,13.4,15.));
#1359=CARTESIAN_POINT('',(13.4,15.4,15.));
#1360=CARTESIAN_POINT('',(-13.4,15.4,15.));
#1361=CARTESIAN_POINT('',(15.4,13.4,15.));
#1362=CARTESIAN_POINT('Origin',(13.4,13.4,15.));
#1363=CARTESIAN_POINT('',(15.4,-13.4,15.));
#1364=CARTESIAN_POINT('',(15.4,13.4,15.));
#1365=CARTESIAN_POINT('',(13.4,-15.4,15.));
#1366=CARTESIAN_POINT('Origin',(13.4,-13.4,15.));
#1367=CARTESIAN_POINT('',(-13.4,-15.4,15.));
#1368=CARTESIAN_POINT('',(13.4,-15.4,15.));
#1369=CARTESIAN_POINT('',(-15.4,-13.4,15.));
#1370=CARTESIAN_POINT('Origin',(-13.4,-13.4,15.));
#1371=CARTESIAN_POINT('',(-15.4,-13.4,15.));
#1372=CARTESIAN_POINT('Origin',(113.,-15.,1.225));
#1373=CARTESIAN_POINT('',(117.7,-15.,-3.46944695195361E-15));
#1374=CARTESIAN_POINT('Origin',(113.,-15.,0.));
#1375=CARTESIAN_POINT('',(115.25,-15.,2.45));
#1376=CARTESIAN_POINT('',(116.475,-15.,1.225));
#1377=CARTESIAN_POINT('Origin',(113.,-15.,2.45));
#1378=CARTESIAN_POINT('Origin',(113.,-15.,2.5));
#1379=CARTESIAN_POINT('',(115.25,-15.,2.5));
#1380=CARTESIAN_POINT('',(115.25,-15.,2.5));
#1381=CARTESIAN_POINT('Origin',(113.,-15.,2.5));
#1382=CARTESIAN_POINT('Origin',(-112.9,-15.,1.225));
#1383=CARTESIAN_POINT('',(-108.2,-15.,-3.46944695195361E-15));
#1384=CARTESIAN_POINT('Origin',(-112.9,-15.,0.));
#1385=CARTESIAN_POINT('',(-110.65,-15.,2.45));
#1386=CARTESIAN_POINT('',(-109.425,-15.,1.225));
#1387=CARTESIAN_POINT('Origin',(-112.9,-15.,2.45));
#1388=CARTESIAN_POINT('Origin',(-112.9,-15.,2.5));
#1389=CARTESIAN_POINT('',(-110.65,-15.,2.5));
#1390=CARTESIAN_POINT('',(-110.65,-15.,2.5));
#1391=CARTESIAN_POINT('Origin',(-112.9,-15.,2.5));
#1392=CARTESIAN_POINT('Origin',(-112.9,15.,1.225));
#1393=CARTESIAN_POINT('',(-108.2,15.,-3.46944695195361E-15));
#1394=CARTESIAN_POINT('Origin',(-112.9,15.,0.));
#1395=CARTESIAN_POINT('',(-110.65,15.,2.45));
#1396=CARTESIAN_POINT('',(-109.425,15.,1.225));
#1397=CARTESIAN_POINT('Origin',(-112.9,15.,2.45));
#1398=CARTESIAN_POINT('Origin',(-112.9,15.,2.5));
#1399=CARTESIAN_POINT('',(-110.65,15.,2.5));
#1400=CARTESIAN_POINT('',(-110.65,15.,2.5));
#1401=CARTESIAN_POINT('Origin',(-112.9,15.,2.5));
#1402=CARTESIAN_POINT('Origin',(113.,15.,1.225));
#1403=CARTESIAN_POINT('',(117.7,15.,-3.46944695195361E-15));
#1404=CARTESIAN_POINT('Origin',(113.,15.,0.));
#1405=CARTESIAN_POINT('',(115.25,15.,2.45));
#1406=CARTESIAN_POINT('',(116.475,15.,1.225));
#1407=CARTESIAN_POINT('Origin',(113.,15.,2.45));
#1408=CARTESIAN_POINT('Origin',(113.,15.,2.5));
#1409=CARTESIAN_POINT('',(115.25,15.,2.5));
#1410=CARTESIAN_POINT('',(115.25,15.,2.5));
#1411=CARTESIAN_POINT('Origin',(113.,15.,2.5));
#1412=CARTESIAN_POINT('Origin',(23.5355339059327,-4.5,5.));
#1413=CARTESIAN_POINT('',(21.7677669529664,-18.,3.23223304703363));
#1414=CARTESIAN_POINT('',(23.5355339059327,-18.,2.5));
#1415=CARTESIAN_POINT('Origin',(23.5355339059327,-18.,5.));
#1416=CARTESIAN_POINT('',(23.5355339059327,18.,2.5));
#1417=CARTESIAN_POINT('',(23.5355339059327,-4.5,2.5));
#1418=CARTESIAN_POINT('',(21.7677669529664,18.,3.23223304703363));
#1419=CARTESIAN_POINT('Origin',(23.5355339059327,18.,5.));
#1420=CARTESIAN_POINT('',(21.7677669529664,-4.5,3.23223304703363));
#1421=CARTESIAN_POINT('Origin',(18.,18.,5.));
#1422=CARTESIAN_POINT('',(18.,23.5355339059327,2.5));
#1423=CARTESIAN_POINT('',(18.,21.7677669529664,3.23223304703363));
#1424=CARTESIAN_POINT('Origin',(18.,23.5355339059327,5.));
#1425=CARTESIAN_POINT('Origin',(18.,18.,3.23223304703363));
#1426=CARTESIAN_POINT('Origin',(18.,18.,2.5));
#1427=CARTESIAN_POINT('Origin',(4.53750000000001,23.5355339059327,5.));
#1428=CARTESIAN_POINT('',(-18.,23.5355339059327,2.5));
#1429=CARTESIAN_POINT('',(-18.,21.7677669529664,3.23223304703363));
#1430=CARTESIAN_POINT('Origin',(-18.,23.5355339059327,5.));
#1431=CARTESIAN_POINT('',(4.53750000000001,21.7677669529664,3.23223304703363));
#1432=CARTESIAN_POINT('',(4.53750000000001,23.5355339059327,2.5));
#1433=CARTESIAN_POINT('Origin',(-18.,18.,5.));
#1434=CARTESIAN_POINT('',(-23.5355339059327,18.,2.5));
#1435=CARTESIAN_POINT('',(-21.7677669529664,18.,3.23223304703363));
#1436=CARTESIAN_POINT('Origin',(-23.5355339059327,18.,5.));
#1437=CARTESIAN_POINT('Origin',(-18.,18.,3.23223304703363));
#1438=CARTESIAN_POINT('Origin',(-18.,18.,2.5));
#1439=CARTESIAN_POINT('Origin',(-23.5355339059327,4.5,5.));
#1440=CARTESIAN_POINT('',(-23.5355339059327,-18.,2.5));
#1441=CARTESIAN_POINT('',(-21.7677669529664,-18.,3.23223304703364));
#1442=CARTESIAN_POINT('Origin',(-23.5355339059327,-18.,5.));
#1443=CARTESIAN_POINT('',(-21.7677669529664,4.5,3.23223304703363));
#1444=CARTESIAN_POINT('',(-23.5355339059327,4.5,2.5));
#1445=CARTESIAN_POINT('Origin',(-18.,-18.,5.));
#1446=CARTESIAN_POINT('',(-18.,-23.5355339059327,2.5));
#1447=CARTESIAN_POINT('',(-18.,-21.7677669529664,3.23223304703363));
#1448=CARTESIAN_POINT('Origin',(-18.,-23.5355339059327,5.));
#1449=CARTESIAN_POINT('Origin',(-18.,-18.,3.23223304703363));
#1450=CARTESIAN_POINT('Origin',(-18.,-18.,2.5));
#1451=CARTESIAN_POINT('Origin',(-4.46249999999999,-23.5355339059327,5.));
#1452=CARTESIAN_POINT('',(18.,-23.5355339059327,2.5));
#1453=CARTESIAN_POINT('',(18.,-21.7677669529664,3.23223304703363));
#1454=CARTESIAN_POINT('Origin',(18.,-23.5355339059327,5.));
#1455=CARTESIAN_POINT('',(-4.46249999999999,-21.7677669529664,3.23223304703363));
#1456=CARTESIAN_POINT('',(-4.46249999999999,-23.5355339059327,2.5));
#1457=CARTESIAN_POINT('Origin',(18.,-18.,5.));
#1458=CARTESIAN_POINT('Origin',(18.,-18.,3.23223304703363));
#1459=CARTESIAN_POINT('Origin',(18.,-18.,2.5));
#1460=CARTESIAN_POINT('Origin',(-18.,-18.,3.75));
#1461=CARTESIAN_POINT('',(-18.,-20.,5.));
#1462=CARTESIAN_POINT('',(-20.,-18.,5.));
#1463=CARTESIAN_POINT('Origin',(-8.97499999999999,-21.25,3.75));
#1464=CARTESIAN_POINT('',(18.,-22.5,2.5));
#1465=CARTESIAN_POINT('Origin',(18.,-18.,3.75));
#1466=CARTESIAN_POINT('',(22.5,-18.,2.5));
#1467=CARTESIAN_POINT('Origin',(21.25,-9.,3.75));
#1468=CARTESIAN_POINT('',(22.5,18.,2.5));
#1469=CARTESIAN_POINT('Origin',(0.0500000000000078,0.,2.5));
#1470=CARTESIAN_POINT('',(-120.55,-25.4,2.5));
#1471=CARTESIAN_POINT('',(120.65,-25.4,2.5));
#1472=CARTESIAN_POINT('',(120.65,-25.4,2.5));
#1473=CARTESIAN_POINT('',(120.65,25.4,2.5));
#1474=CARTESIAN_POINT('',(120.65,25.4,2.5));
#1475=CARTESIAN_POINT('',(-120.55,25.4,2.5));
#1476=CARTESIAN_POINT('',(-120.55,25.4,2.5));
#1477=CARTESIAN_POINT('',(-120.55,-25.4,2.5));
#1478=CARTESIAN_POINT('Origin',(-21.25,9.,3.75));
#1479=CARTESIAN_POINT('',(-20.,18.,5.));
#1480=CARTESIAN_POINT('Origin',(18.,18.,3.75));
#1481=CARTESIAN_POINT('',(18.,22.5,2.5));
#1482=CARTESIAN_POINT('Origin',(-18.,18.,3.75));
#1483=CARTESIAN_POINT('',(-18.,20.,5.));
#1484=CARTESIAN_POINT('Origin',(9.025,21.25,3.75));
#1485=CARTESIAN_POINT('Origin',(17.,-17.,2.5));
#1486=CARTESIAN_POINT('',(15.73,-17.,0.));
#1487=CARTESIAN_POINT('',(15.73,-17.,2.5));
#1488=CARTESIAN_POINT('Origin',(17.,-17.,0.));
#1489=CARTESIAN_POINT('Origin',(-17.,17.,2.5));
#1490=CARTESIAN_POINT('',(-18.27,17.,0.));
#1491=CARTESIAN_POINT('',(-18.27,17.,2.5));
#1492=CARTESIAN_POINT('Origin',(-17.,17.,0.));
#1493=CARTESIAN_POINT('Origin',(17.,17.,2.5));
#1494=CARTESIAN_POINT('',(15.73,17.,0.));
#1495=CARTESIAN_POINT('',(15.73,17.,2.5));
#1496=CARTESIAN_POINT('Origin',(17.,17.,0.));
#1497=CARTESIAN_POINT('Origin',(-17.,-17.,2.5));
#1498=CARTESIAN_POINT('',(-18.27,-17.,0.));
#1499=CARTESIAN_POINT('',(-18.27,-17.,2.5));
#1500=CARTESIAN_POINT('Origin',(-17.,-17.,0.));
#1501=CARTESIAN_POINT('Origin',(-15.4,-13.4,2.5));
#1502=CARTESIAN_POINT('',(-15.4,-13.4,0.));
#1503=CARTESIAN_POINT('',(-15.4,-13.4,2.5));
#1504=CARTESIAN_POINT('',(-15.4,13.4,0.));
#1505=CARTESIAN_POINT('',(-15.4,-6.7,0.));
#1506=CARTESIAN_POINT('',(-15.4,13.4,2.5));
#1507=CARTESIAN_POINT('Origin',(-13.4,-13.4,2.5));
#1508=CARTESIAN_POINT('',(-13.4,-15.4,0.));
#1509=CARTESIAN_POINT('',(-13.4,-15.4,2.5));
#1510=CARTESIAN_POINT('Origin',(-13.4,-13.4,0.));
#1511=CARTESIAN_POINT('Origin',(13.4,-15.4,2.5));
#1512=CARTESIAN_POINT('',(13.4,-15.4,0.));
#1513=CARTESIAN_POINT('',(13.4,-15.4,2.5));
#1514=CARTESIAN_POINT('',(6.725,-15.4,0.));
#1515=CARTESIAN_POINT('Origin',(13.4,-13.4,2.5));
#1516=CARTESIAN_POINT('',(15.4,-13.4,0.));
#1517=CARTESIAN_POINT('',(15.4,-13.4,2.5));
#1518=CARTESIAN_POINT('Origin',(13.4,-13.4,0.));
#1519=CARTESIAN_POINT('Origin',(15.4,13.4,2.5));
#1520=CARTESIAN_POINT('',(15.4,13.4,0.));
#1521=CARTESIAN_POINT('',(15.4,13.4,2.5));
#1522=CARTESIAN_POINT('',(15.4,6.7,0.));
#1523=CARTESIAN_POINT('Origin',(13.4,13.4,2.5));
#1524=CARTESIAN_POINT('',(13.4,15.4,0.));
#1525=CARTESIAN_POINT('',(13.4,15.4,2.5));
#1526=CARTESIAN_POINT('Origin',(13.4,13.4,0.));
#1527=CARTESIAN_POINT('Origin',(-13.4,15.4,2.5));
#1528=CARTESIAN_POINT('',(-13.4,15.4,0.));
#1529=CARTESIAN_POINT('',(-13.4,15.4,2.5));
#1530=CARTESIAN_POINT('',(-6.675,15.4,0.));
#1531=CARTESIAN_POINT('Origin',(-13.4,13.4,2.5));
#1532=CARTESIAN_POINT('Origin',(-13.4,13.4,0.));
#1533=CARTESIAN_POINT('Origin',(-120.55,25.4,0.));
#1534=CARTESIAN_POINT('',(-120.55,-25.4,0.));
#1535=CARTESIAN_POINT('',(-120.55,25.4,0.));
#1536=CARTESIAN_POINT('',(-120.55,-25.4,0.));
#1537=CARTESIAN_POINT('',(-120.55,-25.4,0.));
#1538=CARTESIAN_POINT('',(-120.55,25.4,0.));
#1539=CARTESIAN_POINT('Origin',(120.65,25.4,0.));
#1540=CARTESIAN_POINT('',(120.65,25.4,0.));
#1541=CARTESIAN_POINT('',(-120.55,25.4,0.));
#1542=CARTESIAN_POINT('',(120.65,25.4,0.));
#1543=CARTESIAN_POINT('Origin',(120.65,-25.4,0.));
#1544=CARTESIAN_POINT('',(120.65,-25.4,0.));
#1545=CARTESIAN_POINT('',(120.65,25.4,0.));
#1546=CARTESIAN_POINT('',(120.65,-25.4,0.));
#1547=CARTESIAN_POINT('Origin',(-120.55,-25.4,0.));
#1548=CARTESIAN_POINT('',(120.65,-25.4,0.));
#1549=CARTESIAN_POINT('Origin',(0.0500000000000078,0.,0.));
#1550=UNCERTAINTY_MEASURE_WITH_UNIT(LENGTH_MEASURE(0.01),#1554,
'DISTANCE_ACCURACY_VALUE',
'Maximum model space distance between geometric entities at asserted c
onnectivities');
#1551=UNCERTAINTY_MEASURE_WITH_UNIT(LENGTH_MEASURE(0.01),#1554,
'DISTANCE_ACCURACY_VALUE',
'Maximum model space distance between geometric entities at asserted c
onnectivities');
#1552=(
GEOMETRIC_REPRESENTATION_CONTEXT(3)
GLOBAL_UNCERTAINTY_ASSIGNED_CONTEXT((#1550))
GLOBAL_UNIT_ASSIGNED_CONTEXT((#1554,#1556,#1557))
REPRESENTATION_CONTEXT('','3D')
);
#1553=(
GEOMETRIC_REPRESENTATION_CONTEXT(3)
GLOBAL_UNCERTAINTY_ASSIGNED_CONTEXT((#1551))
GLOBAL_UNIT_ASSIGNED_CONTEXT((#1554,#1556,#1557))
REPRESENTATION_CONTEXT('','3D')
);
#1554=(
LENGTH_UNIT()
NAMED_UNIT(*)
SI_UNIT(.MILLI.,.METRE.)
);
#1555=(
LENGTH_UNIT()
NAMED_UNIT(*)
SI_UNIT($,.METRE.)
);
#1556=(
NAMED_UNIT(*)
PLANE_ANGLE_UNIT()
SI_UNIT($,.RADIAN.)
);
#1557=(
NAMED_UNIT(*)
SI_UNIT($,.STERADIAN.)
SOLID_ANGLE_UNIT()
);
#1558=SHAPE_DEFINITION_REPRESENTATION(#1559,#1560);
#1559=PRODUCT_DEFINITION_SHAPE('',$,#1562);
#1560=SHAPE_REPRESENTATION('',(#914),#1552);
#1561=PRODUCT_DEFINITION_CONTEXT('part definition',#1566,'design');
#1562=PRODUCT_DEFINITION('Camera Holder Middle',
'Camera Holder Middle v7',#1563,#1561);
#1563=PRODUCT_DEFINITION_FORMATION('',$,#1568);
#1564=PRODUCT_RELATED_PRODUCT_CATEGORY('Camera Holder Middle v7',
'Camera Holder Middle v7',(#1568));
#1565=APPLICATION_PROTOCOL_DEFINITION('international standard',
'automotive_design',2009,#1566);
#1566=APPLICATION_CONTEXT(
'Core Data for Automotive Mechanical Design Process');
#1567=PRODUCT_CONTEXT('part definition',#1566,'mechanical');
#1568=PRODUCT('Camera Holder Middle','Camera Holder Middle v7',$,(#1567));
#1569=PRESENTATION_STYLE_ASSIGNMENT((#1571));
#1570=PRESENTATION_STYLE_ASSIGNMENT((#1572));
#1571=SURFACE_STYLE_USAGE(.BOTH.,#1573);
#1572=SURFACE_STYLE_USAGE(.BOTH.,#1574);
#1573=SURFACE_SIDE_STYLE('',(#1575));
#1574=SURFACE_SIDE_STYLE('',(#1576));
#1575=SURFACE_STYLE_FILL_AREA(#1577);
#1576=SURFACE_STYLE_FILL_AREA(#1578);
#1577=FILL_AREA_STYLE('Steel - Satin',(#1579));
#1578=FILL_AREA_STYLE('Powder Coat - Rough (Black)',(#1580));
#1579=FILL_AREA_STYLE_COLOUR('Steel - Satin',#1581);
#1580=FILL_AREA_STYLE_COLOUR('Powder Coat - Rough (Black)',#1582);
#1581=COLOUR_RGB('Steel - Satin',0.627450980392157,0.627450980392157,0.627450980392157);
#1582=COLOUR_RGB('Powder Coat - Rough (Black)',0.0980392156862745,0.0980392156862745,
0.0980392156862745);
ENDSEC;
END-ISO-10303-21;
