ISO-10303-21;
HEADER;
/* Generated by software containing ST-Developer
 * from STEP Tools, Inc. (www.steptools.com) 
 */

FILE_DESCRIPTION(
/* description */ (''),
/* implementation_level */ '2;1');

FILE_NAME(
/* name */ 'Stand+shape.step',
/* time_stamp */ '2026-03-25T02:13:20-04:00',
/* author */ (''),
/* organization */ (''),
/* preprocessor_version */ 'ST-DEVELOPER v20.1',
/* originating_system */ 'Autodesk Translation Framework v14.24.0.0',
/* authorisation */ '');

FILE_SCHEMA (('AUTOMOTIVE_DESIGN { 1 0 10303 214 3 1 1 }'));
ENDSEC;

DATA;
#10=MECHANICAL_DESIGN_GEOMETRIC_PRESENTATION_REPRESENTATION('',(#13,#14),
#1079);
#11=SHAPE_REPRESENTATION_RELATIONSHIP('SRR','None',#1089,#12);
#12=ADVANCED_BREP_SHAPE_REPRESENTATION('',(#15,#16),#1078);
#13=STYLED_ITEM('',(#1099),#15);
#14=STYLED_ITEM('',(#1098),#16);
#15=MANIFOLD_SOLID_BREP('Body1',#677);
#16=MANIFOLD_SOLID_BREP('Body5',#678);
#17=FACE_BOUND('',#79,.T.);
#18=FACE_BOUND('',#90,.T.);
#19=FACE_BOUND('',#92,.T.);
#20=FACE_OUTER_BOUND('',#55,.T.);
#21=FACE_OUTER_BOUND('',#56,.T.);
#22=FACE_OUTER_BOUND('',#57,.T.);
#23=FACE_OUTER_BOUND('',#58,.T.);
#24=FACE_OUTER_BOUND('',#59,.T.);
#25=FACE_OUTER_BOUND('',#60,.T.);
#26=FACE_OUTER_BOUND('',#61,.T.);
#27=FACE_OUTER_BOUND('',#62,.T.);
#28=FACE_OUTER_BOUND('',#63,.T.);
#29=FACE_OUTER_BOUND('',#64,.T.);
#30=FACE_OUTER_BOUND('',#65,.T.);
#31=FACE_OUTER_BOUND('',#66,.T.);
#32=FACE_OUTER_BOUND('',#67,.T.);
#33=FACE_OUTER_BOUND('',#68,.T.);
#34=FACE_OUTER_BOUND('',#69,.T.);
#35=FACE_OUTER_BOUND('',#70,.T.);
#36=FACE_OUTER_BOUND('',#71,.T.);
#37=FACE_OUTER_BOUND('',#72,.T.);
#38=FACE_OUTER_BOUND('',#73,.T.);
#39=FACE_OUTER_BOUND('',#74,.T.);
#40=FACE_OUTER_BOUND('',#75,.T.);
#41=FACE_OUTER_BOUND('',#76,.T.);
#42=FACE_OUTER_BOUND('',#77,.T.);
#43=FACE_OUTER_BOUND('',#78,.T.);
#44=FACE_OUTER_BOUND('',#80,.T.);
#45=FACE_OUTER_BOUND('',#81,.T.);
#46=FACE_OUTER_BOUND('',#82,.T.);
#47=FACE_OUTER_BOUND('',#83,.T.);
#48=FACE_OUTER_BOUND('',#84,.T.);
#49=FACE_OUTER_BOUND('',#85,.T.);
#50=FACE_OUTER_BOUND('',#86,.T.);
#51=FACE_OUTER_BOUND('',#87,.T.);
#52=FACE_OUTER_BOUND('',#88,.T.);
#53=FACE_OUTER_BOUND('',#89,.T.);
#54=FACE_OUTER_BOUND('',#91,.T.);
#55=EDGE_LOOP('',(#425,#426,#427,#428));
#56=EDGE_LOOP('',(#429,#430,#431,#432,#433,#434,#435,#436,#437));
#57=EDGE_LOOP('',(#438,#439,#440,#441,#442));
#58=EDGE_LOOP('',(#443,#444,#445,#446));
#59=EDGE_LOOP('',(#447,#448,#449,#450));
#60=EDGE_LOOP('',(#451,#452,#453,#454));
#61=EDGE_LOOP('',(#455,#456,#457,#458));
#62=EDGE_LOOP('',(#459,#460,#461,#462));
#63=EDGE_LOOP('',(#463,#464,#465,#466));
#64=EDGE_LOOP('',(#467,#468,#469,#470));
#65=EDGE_LOOP('',(#471,#472,#473,#474));
#66=EDGE_LOOP('',(#475,#476,#477,#478));
#67=EDGE_LOOP('',(#479,#480,#481,#482));
#68=EDGE_LOOP('',(#483,#484,#485,#486));
#69=EDGE_LOOP('',(#487,#488,#489,#490,#491,#492));
#70=EDGE_LOOP('',(#493,#494,#495,#496,#497));
#71=EDGE_LOOP('',(#498,#499,#500,#501));
#72=EDGE_LOOP('',(#502,#503,#504,#505,#506,#507,#508,#509,#510,#511));
#73=EDGE_LOOP('',(#512,#513,#514,#515));
#74=EDGE_LOOP('',(#516,#517,#518,#519,#520,#521));
#75=EDGE_LOOP('',(#522,#523,#524,#525));
#76=EDGE_LOOP('',(#526,#527,#528,#529,#530,#531,#532,#533,#534));
#77=EDGE_LOOP('',(#535,#536,#537,#538,#539,#540,#541,#542));
#78=EDGE_LOOP('',(#543,#544,#545,#546,#547,#548));
#79=EDGE_LOOP('',(#549,#550,#551,#552,#553,#554));
#80=EDGE_LOOP('',(#555,#556,#557,#558));
#81=EDGE_LOOP('',(#559,#560,#561,#562));
#82=EDGE_LOOP('',(#563,#564,#565,#566));
#83=EDGE_LOOP('',(#567,#568,#569,#570));
#84=EDGE_LOOP('',(#571,#572,#573,#574));
#85=EDGE_LOOP('',(#575,#576,#577,#578));
#86=EDGE_LOOP('',(#579,#580,#581,#582));
#87=EDGE_LOOP('',(#583,#584,#585,#586));
#88=EDGE_LOOP('',(#587,#588,#589,#590));
#89=EDGE_LOOP('',(#591,#592,#593,#594));
#90=EDGE_LOOP('',(#595,#596,#597,#598));
#91=EDGE_LOOP('',(#599,#600,#601,#602));
#92=EDGE_LOOP('',(#603,#604,#605,#606));
#93=LINE('',#894,#184);
#94=LINE('',#896,#185);
#95=LINE('',#898,#186);
#96=LINE('',#899,#187);
#97=LINE('',#902,#188);
#98=LINE('',#904,#189);
#99=LINE('',#906,#190);
#100=LINE('',#908,#191);
#101=LINE('',#910,#192);
#102=LINE('',#912,#193);
#103=LINE('',#914,#194);
#104=LINE('',#915,#195);
#105=LINE('',#918,#196);
#106=LINE('',#920,#197);
#107=LINE('',#922,#198);
#108=LINE('',#924,#199);
#109=LINE('',#925,#200);
#110=LINE('',#928,#201);
#111=LINE('',#930,#202);
#112=LINE('',#931,#203);
#113=LINE('',#935,#204);
#114=LINE('',#937,#205);
#115=LINE('',#938,#206);
#116=LINE('',#939,#207);
#117=LINE('',#942,#208);
#118=LINE('',#944,#209);
#119=LINE('',#945,#210);
#120=LINE('',#948,#211);
#121=LINE('',#950,#212);
#122=LINE('',#951,#213);
#123=LINE('',#954,#214);
#124=LINE('',#955,#215);
#125=LINE('',#958,#216);
#126=LINE('',#959,#217);
#127=LINE('',#962,#218);
#128=LINE('',#963,#219);
#129=LINE('',#966,#220);
#130=LINE('',#968,#221);
#131=LINE('',#969,#222);
#132=LINE('',#972,#223);
#133=LINE('',#974,#224);
#134=LINE('',#976,#225);
#135=LINE('',#977,#226);
#136=LINE('',#980,#227);
#137=LINE('',#981,#228);
#138=LINE('',#983,#229);
#139=LINE('',#984,#230);
#140=LINE('',#986,#231);
#141=LINE('',#989,#232);
#142=LINE('',#991,#233);
#143=LINE('',#992,#234);
#144=LINE('',#994,#235);
#145=LINE('',#997,#236);
#146=LINE('',#999,#237);
#147=LINE('',#1001,#238);
#148=LINE('',#1003,#239);
#149=LINE('',#1004,#240);
#150=LINE('',#1007,#241);
#151=LINE('',#1008,#242);
#152=LINE('',#1011,#243);
#153=LINE('',#1013,#244);
#154=LINE('',#1014,#245);
#155=LINE('',#1016,#246);
#156=LINE('',#1019,#247);
#157=LINE('',#1020,#248);
#158=LINE('',#1022,#249);
#159=LINE('',#1023,#250);
#160=LINE('',#1029,#251);
#161=LINE('',#1031,#252);
#162=LINE('',#1033,#253);
#163=LINE('',#1034,#254);
#164=LINE('',#1037,#255);
#165=LINE('',#1039,#256);
#166=LINE('',#1040,#257);
#167=LINE('',#1043,#258);
#168=LINE('',#1045,#259);
#169=LINE('',#1046,#260);
#170=LINE('',#1048,#261);
#171=LINE('',#1049,#262);
#172=LINE('',#1053,#263);
#173=LINE('',#1055,#264);
#174=LINE('',#1057,#265);
#175=LINE('',#1058,#266);
#176=LINE('',#1061,#267);
#177=LINE('',#1063,#268);
#178=LINE('',#1064,#269);
#179=LINE('',#1067,#270);
#180=LINE('',#1069,#271);
#181=LINE('',#1070,#272);
#182=LINE('',#1072,#273);
#183=LINE('',#1073,#274);
#184=VECTOR('',#731,0.393700787401575);
#185=VECTOR('',#732,0.393700787401575);
#186=VECTOR('',#733,0.393700787401575);
#187=VECTOR('',#734,0.393700787401575);
#188=VECTOR('',#737,0.393700787401575);
#189=VECTOR('',#738,0.393700787401575);
#190=VECTOR('',#739,0.393700787401575);
#191=VECTOR('',#740,0.393700787401575);
#192=VECTOR('',#741,0.393700787401575);
#193=VECTOR('',#742,0.393700787401575);
#194=VECTOR('',#743,0.393700787401575);
#195=VECTOR('',#744,0.393700787401575);
#196=VECTOR('',#747,0.393700787401575);
#197=VECTOR('',#748,0.393700787401575);
#198=VECTOR('',#749,0.393700787401575);
#199=VECTOR('',#750,0.393700787401575);
#200=VECTOR('',#751,0.393700787401575);
#201=VECTOR('',#754,0.393700787401575);
#202=VECTOR('',#755,0.393700787401575);
#203=VECTOR('',#756,0.393700787401575);
#204=VECTOR('',#759,0.393700787401575);
#205=VECTOR('',#760,0.393700787401575);
#206=VECTOR('',#761,0.393700787401575);
#207=VECTOR('',#762,0.393700787401575);
#208=VECTOR('',#765,0.393700787401575);
#209=VECTOR('',#766,0.393700787401575);
#210=VECTOR('',#767,0.393700787401575);
#211=VECTOR('',#770,0.393700787401575);
#212=VECTOR('',#771,0.393700787401575);
#213=VECTOR('',#772,0.393700787401575);
#214=VECTOR('',#775,0.393700787401575);
#215=VECTOR('',#776,0.393700787401575);
#216=VECTOR('',#779,0.393700787401575);
#217=VECTOR('',#780,0.393700787401575);
#218=VECTOR('',#783,0.393700787401575);
#219=VECTOR('',#784,0.393700787401575);
#220=VECTOR('',#787,0.393700787401575);
#221=VECTOR('',#788,0.393700787401575);
#222=VECTOR('',#789,0.393700787401575);
#223=VECTOR('',#792,0.393700787401575);
#224=VECTOR('',#793,0.393700787401575);
#225=VECTOR('',#794,0.393700787401575);
#226=VECTOR('',#795,0.393700787401575);
#227=VECTOR('',#798,0.393700787401575);
#228=VECTOR('',#799,0.393700787401575);
#229=VECTOR('',#802,0.393700787401575);
#230=VECTOR('',#803,0.393700787401575);
#231=VECTOR('',#806,0.393700787401575);
#232=VECTOR('',#809,0.393700787401575);
#233=VECTOR('',#810,0.393700787401575);
#234=VECTOR('',#811,0.393700787401575);
#235=VECTOR('',#814,0.393700787401575);
#236=VECTOR('',#817,0.393700787401575);
#237=VECTOR('',#818,0.393700787401575);
#238=VECTOR('',#819,0.393700787401575);
#239=VECTOR('',#820,0.393700787401575);
#240=VECTOR('',#821,0.393700787401575);
#241=VECTOR('',#824,0.393700787401575);
#242=VECTOR('',#825,0.393700787401575);
#243=VECTOR('',#828,0.393700787401575);
#244=VECTOR('',#829,0.393700787401575);
#245=VECTOR('',#830,0.393700787401575);
#246=VECTOR('',#833,0.393700787401575);
#247=VECTOR('',#836,0.393700787401575);
#248=VECTOR('',#837,0.393700787401575);
#249=VECTOR('',#840,0.393700787401575);
#250=VECTOR('',#841,0.393700787401575);
#251=VECTOR('',#848,0.393700787401575);
#252=VECTOR('',#849,0.393700787401575);
#253=VECTOR('',#850,0.393700787401575);
#254=VECTOR('',#851,0.393700787401575);
#255=VECTOR('',#854,0.393700787401575);
#256=VECTOR('',#855,0.393700787401575);
#257=VECTOR('',#856,0.393700787401575);
#258=VECTOR('',#859,0.393700787401575);
#259=VECTOR('',#860,0.393700787401575);
#260=VECTOR('',#861,0.393700787401575);
#261=VECTOR('',#864,0.393700787401575);
#262=VECTOR('',#865,0.393700787401575);
#263=VECTOR('',#868,0.393700787401575);
#264=VECTOR('',#869,0.393700787401575);
#265=VECTOR('',#870,0.393700787401575);
#266=VECTOR('',#871,0.393700787401575);
#267=VECTOR('',#874,0.393700787401575);
#268=VECTOR('',#875,0.393700787401575);
#269=VECTOR('',#876,0.393700787401575);
#270=VECTOR('',#879,0.393700787401575);
#271=VECTOR('',#880,0.393700787401575);
#272=VECTOR('',#881,0.393700787401575);
#273=VECTOR('',#884,0.393700787401575);
#274=VECTOR('',#885,0.393700787401575);
#275=VERTEX_POINT('',#892);
#276=VERTEX_POINT('',#893);
#277=VERTEX_POINT('',#895);
#278=VERTEX_POINT('',#897);
#279=VERTEX_POINT('',#901);
#280=VERTEX_POINT('',#903);
#281=VERTEX_POINT('',#905);
#282=VERTEX_POINT('',#907);
#283=VERTEX_POINT('',#909);
#284=VERTEX_POINT('',#911);
#285=VERTEX_POINT('',#913);
#286=VERTEX_POINT('',#917);
#287=VERTEX_POINT('',#919);
#288=VERTEX_POINT('',#921);
#289=VERTEX_POINT('',#923);
#290=VERTEX_POINT('',#927);
#291=VERTEX_POINT('',#929);
#292=VERTEX_POINT('',#933);
#293=VERTEX_POINT('',#934);
#294=VERTEX_POINT('',#936);
#295=VERTEX_POINT('',#941);
#296=VERTEX_POINT('',#943);
#297=VERTEX_POINT('',#947);
#298=VERTEX_POINT('',#949);
#299=VERTEX_POINT('',#953);
#300=VERTEX_POINT('',#957);
#301=VERTEX_POINT('',#961);
#302=VERTEX_POINT('',#965);
#303=VERTEX_POINT('',#967);
#304=VERTEX_POINT('',#971);
#305=VERTEX_POINT('',#973);
#306=VERTEX_POINT('',#975);
#307=VERTEX_POINT('',#979);
#308=VERTEX_POINT('',#988);
#309=VERTEX_POINT('',#990);
#310=VERTEX_POINT('',#996);
#311=VERTEX_POINT('',#998);
#312=VERTEX_POINT('',#1000);
#313=VERTEX_POINT('',#1002);
#314=VERTEX_POINT('',#1006);
#315=VERTEX_POINT('',#1010);
#316=VERTEX_POINT('',#1012);
#317=VERTEX_POINT('',#1018);
#318=VERTEX_POINT('',#1027);
#319=VERTEX_POINT('',#1028);
#320=VERTEX_POINT('',#1030);
#321=VERTEX_POINT('',#1032);
#322=VERTEX_POINT('',#1036);
#323=VERTEX_POINT('',#1038);
#324=VERTEX_POINT('',#1042);
#325=VERTEX_POINT('',#1044);
#326=VERTEX_POINT('',#1051);
#327=VERTEX_POINT('',#1052);
#328=VERTEX_POINT('',#1054);
#329=VERTEX_POINT('',#1056);
#330=VERTEX_POINT('',#1060);
#331=VERTEX_POINT('',#1062);
#332=VERTEX_POINT('',#1066);
#333=VERTEX_POINT('',#1068);
#334=EDGE_CURVE('',#275,#276,#93,.T.);
#335=EDGE_CURVE('',#275,#277,#94,.T.);
#336=EDGE_CURVE('',#278,#277,#95,.T.);
#337=EDGE_CURVE('',#276,#278,#96,.T.);
#338=EDGE_CURVE('',#279,#275,#97,.T.);
#339=EDGE_CURVE('',#276,#280,#98,.T.);
#340=EDGE_CURVE('',#281,#280,#99,.T.);
#341=EDGE_CURVE('',#281,#282,#100,.T.);
#342=EDGE_CURVE('',#282,#283,#101,.T.);
#343=EDGE_CURVE('',#284,#283,#102,.T.);
#344=EDGE_CURVE('',#285,#284,#103,.T.);
#345=EDGE_CURVE('',#279,#285,#104,.T.);
#346=EDGE_CURVE('',#286,#278,#105,.T.);
#347=EDGE_CURVE('',#287,#278,#106,.T.);
#348=EDGE_CURVE('',#288,#287,#107,.T.);
#349=EDGE_CURVE('',#289,#288,#108,.T.);
#350=EDGE_CURVE('',#286,#289,#109,.T.);
#351=EDGE_CURVE('',#290,#277,#110,.T.);
#352=EDGE_CURVE('',#290,#291,#111,.T.);
#353=EDGE_CURVE('',#278,#291,#112,.T.);
#354=EDGE_CURVE('',#292,#293,#113,.T.);
#355=EDGE_CURVE('',#292,#294,#114,.T.);
#356=EDGE_CURVE('',#277,#294,#115,.T.);
#357=EDGE_CURVE('',#293,#277,#116,.T.);
#358=EDGE_CURVE('',#295,#292,#117,.T.);
#359=EDGE_CURVE('',#296,#295,#118,.T.);
#360=EDGE_CURVE('',#294,#296,#119,.T.);
#361=EDGE_CURVE('',#296,#297,#120,.T.);
#362=EDGE_CURVE('',#297,#298,#121,.T.);
#363=EDGE_CURVE('',#298,#294,#122,.T.);
#364=EDGE_CURVE('',#299,#277,#123,.T.);
#365=EDGE_CURVE('',#299,#279,#124,.T.);
#366=EDGE_CURVE('',#294,#300,#125,.T.);
#367=EDGE_CURVE('',#290,#300,#126,.T.);
#368=EDGE_CURVE('',#301,#295,#127,.T.);
#369=EDGE_CURVE('',#297,#301,#128,.T.);
#370=EDGE_CURVE('',#302,#298,#129,.T.);
#371=EDGE_CURVE('',#302,#303,#130,.T.);
#372=EDGE_CURVE('',#294,#303,#131,.T.);
#373=EDGE_CURVE('',#303,#304,#132,.T.);
#374=EDGE_CURVE('',#305,#304,#133,.T.);
#375=EDGE_CURVE('',#306,#305,#134,.T.);
#376=EDGE_CURVE('',#306,#303,#135,.T.);
#377=EDGE_CURVE('',#307,#303,#136,.T.);
#378=EDGE_CURVE('',#300,#307,#137,.T.);
#379=EDGE_CURVE('',#287,#306,#138,.T.);
#380=EDGE_CURVE('',#303,#278,#139,.T.);
#381=EDGE_CURVE('',#289,#281,#140,.T.);
#382=EDGE_CURVE('',#308,#302,#141,.T.);
#383=EDGE_CURVE('',#309,#308,#142,.T.);
#384=EDGE_CURVE('',#304,#309,#143,.T.);
#385=EDGE_CURVE('',#282,#288,#144,.T.);
#386=EDGE_CURVE('',#310,#305,#145,.T.);
#387=EDGE_CURVE('',#310,#311,#146,.T.);
#388=EDGE_CURVE('',#312,#311,#147,.T.);
#389=EDGE_CURVE('',#312,#313,#148,.T.);
#390=EDGE_CURVE('',#283,#313,#149,.T.);
#391=EDGE_CURVE('',#314,#299,#150,.T.);
#392=EDGE_CURVE('',#293,#314,#151,.T.);
#393=EDGE_CURVE('',#315,#291,#152,.T.);
#394=EDGE_CURVE('',#316,#315,#153,.T.);
#395=EDGE_CURVE('',#307,#316,#154,.T.);
#396=EDGE_CURVE('',#309,#310,#155,.T.);
#397=EDGE_CURVE('',#301,#317,#156,.T.);
#398=EDGE_CURVE('',#311,#317,#157,.T.);
#399=EDGE_CURVE('',#285,#314,#158,.T.);
#400=EDGE_CURVE('',#317,#284,#159,.T.);
#401=EDGE_CURVE('',#318,#319,#160,.T.);
#402=EDGE_CURVE('',#318,#320,#161,.T.);
#403=EDGE_CURVE('',#321,#320,#162,.T.);
#404=EDGE_CURVE('',#319,#321,#163,.T.);
#405=EDGE_CURVE('',#322,#318,#164,.T.);
#406=EDGE_CURVE('',#322,#323,#165,.T.);
#407=EDGE_CURVE('',#320,#323,#166,.T.);
#408=EDGE_CURVE('',#324,#322,#167,.T.);
#409=EDGE_CURVE('',#324,#325,#168,.T.);
#410=EDGE_CURVE('',#323,#325,#169,.T.);
#411=EDGE_CURVE('',#319,#324,#170,.T.);
#412=EDGE_CURVE('',#325,#321,#171,.T.);
#413=EDGE_CURVE('',#326,#327,#172,.T.);
#414=EDGE_CURVE('',#326,#328,#173,.T.);
#415=EDGE_CURVE('',#329,#328,#174,.T.);
#416=EDGE_CURVE('',#327,#329,#175,.T.);
#417=EDGE_CURVE('',#327,#330,#176,.T.);
#418=EDGE_CURVE('',#331,#329,#177,.T.);
#419=EDGE_CURVE('',#330,#331,#178,.T.);
#420=EDGE_CURVE('',#330,#332,#179,.T.);
#421=EDGE_CURVE('',#333,#331,#180,.T.);
#422=EDGE_CURVE('',#332,#333,#181,.T.);
#423=EDGE_CURVE('',#332,#326,#182,.T.);
#424=EDGE_CURVE('',#328,#333,#183,.T.);
#425=ORIENTED_EDGE('',*,*,#334,.F.);
#426=ORIENTED_EDGE('',*,*,#335,.T.);
#427=ORIENTED_EDGE('',*,*,#336,.F.);
#428=ORIENTED_EDGE('',*,*,#337,.F.);
#429=ORIENTED_EDGE('',*,*,#338,.T.);
#430=ORIENTED_EDGE('',*,*,#334,.T.);
#431=ORIENTED_EDGE('',*,*,#339,.T.);
#432=ORIENTED_EDGE('',*,*,#340,.F.);
#433=ORIENTED_EDGE('',*,*,#341,.T.);
#434=ORIENTED_EDGE('',*,*,#342,.T.);
#435=ORIENTED_EDGE('',*,*,#343,.F.);
#436=ORIENTED_EDGE('',*,*,#344,.F.);
#437=ORIENTED_EDGE('',*,*,#345,.F.);
#438=ORIENTED_EDGE('',*,*,#346,.T.);
#439=ORIENTED_EDGE('',*,*,#347,.F.);
#440=ORIENTED_EDGE('',*,*,#348,.F.);
#441=ORIENTED_EDGE('',*,*,#349,.F.);
#442=ORIENTED_EDGE('',*,*,#350,.F.);
#443=ORIENTED_EDGE('',*,*,#336,.T.);
#444=ORIENTED_EDGE('',*,*,#351,.F.);
#445=ORIENTED_EDGE('',*,*,#352,.T.);
#446=ORIENTED_EDGE('',*,*,#353,.F.);
#447=ORIENTED_EDGE('',*,*,#354,.F.);
#448=ORIENTED_EDGE('',*,*,#355,.T.);
#449=ORIENTED_EDGE('',*,*,#356,.F.);
#450=ORIENTED_EDGE('',*,*,#357,.F.);
#451=ORIENTED_EDGE('',*,*,#358,.F.);
#452=ORIENTED_EDGE('',*,*,#359,.F.);
#453=ORIENTED_EDGE('',*,*,#360,.F.);
#454=ORIENTED_EDGE('',*,*,#355,.F.);
#455=ORIENTED_EDGE('',*,*,#360,.T.);
#456=ORIENTED_EDGE('',*,*,#361,.T.);
#457=ORIENTED_EDGE('',*,*,#362,.T.);
#458=ORIENTED_EDGE('',*,*,#363,.T.);
#459=ORIENTED_EDGE('',*,*,#364,.T.);
#460=ORIENTED_EDGE('',*,*,#335,.F.);
#461=ORIENTED_EDGE('',*,*,#338,.F.);
#462=ORIENTED_EDGE('',*,*,#365,.F.);
#463=ORIENTED_EDGE('',*,*,#356,.T.);
#464=ORIENTED_EDGE('',*,*,#366,.T.);
#465=ORIENTED_EDGE('',*,*,#367,.F.);
#466=ORIENTED_EDGE('',*,*,#351,.T.);
#467=ORIENTED_EDGE('',*,*,#359,.T.);
#468=ORIENTED_EDGE('',*,*,#368,.F.);
#469=ORIENTED_EDGE('',*,*,#369,.F.);
#470=ORIENTED_EDGE('',*,*,#361,.F.);
#471=ORIENTED_EDGE('',*,*,#370,.F.);
#472=ORIENTED_EDGE('',*,*,#371,.T.);
#473=ORIENTED_EDGE('',*,*,#372,.F.);
#474=ORIENTED_EDGE('',*,*,#363,.F.);
#475=ORIENTED_EDGE('',*,*,#373,.T.);
#476=ORIENTED_EDGE('',*,*,#374,.F.);
#477=ORIENTED_EDGE('',*,*,#375,.F.);
#478=ORIENTED_EDGE('',*,*,#376,.T.);
#479=ORIENTED_EDGE('',*,*,#372,.T.);
#480=ORIENTED_EDGE('',*,*,#377,.F.);
#481=ORIENTED_EDGE('',*,*,#378,.F.);
#482=ORIENTED_EDGE('',*,*,#366,.F.);
#483=ORIENTED_EDGE('',*,*,#379,.F.);
#484=ORIENTED_EDGE('',*,*,#347,.T.);
#485=ORIENTED_EDGE('',*,*,#380,.F.);
#486=ORIENTED_EDGE('',*,*,#376,.F.);
#487=ORIENTED_EDGE('',*,*,#350,.T.);
#488=ORIENTED_EDGE('',*,*,#381,.T.);
#489=ORIENTED_EDGE('',*,*,#340,.T.);
#490=ORIENTED_EDGE('',*,*,#339,.F.);
#491=ORIENTED_EDGE('',*,*,#337,.T.);
#492=ORIENTED_EDGE('',*,*,#346,.F.);
#493=ORIENTED_EDGE('',*,*,#373,.F.);
#494=ORIENTED_EDGE('',*,*,#371,.F.);
#495=ORIENTED_EDGE('',*,*,#382,.F.);
#496=ORIENTED_EDGE('',*,*,#383,.F.);
#497=ORIENTED_EDGE('',*,*,#384,.F.);
#498=ORIENTED_EDGE('',*,*,#349,.T.);
#499=ORIENTED_EDGE('',*,*,#385,.F.);
#500=ORIENTED_EDGE('',*,*,#341,.F.);
#501=ORIENTED_EDGE('',*,*,#381,.F.);
#502=ORIENTED_EDGE('',*,*,#348,.T.);
#503=ORIENTED_EDGE('',*,*,#379,.T.);
#504=ORIENTED_EDGE('',*,*,#375,.T.);
#505=ORIENTED_EDGE('',*,*,#386,.F.);
#506=ORIENTED_EDGE('',*,*,#387,.T.);
#507=ORIENTED_EDGE('',*,*,#388,.F.);
#508=ORIENTED_EDGE('',*,*,#389,.T.);
#509=ORIENTED_EDGE('',*,*,#390,.F.);
#510=ORIENTED_EDGE('',*,*,#342,.F.);
#511=ORIENTED_EDGE('',*,*,#385,.T.);
#512=ORIENTED_EDGE('',*,*,#364,.F.);
#513=ORIENTED_EDGE('',*,*,#391,.F.);
#514=ORIENTED_EDGE('',*,*,#392,.F.);
#515=ORIENTED_EDGE('',*,*,#357,.T.);
#516=ORIENTED_EDGE('',*,*,#380,.T.);
#517=ORIENTED_EDGE('',*,*,#353,.T.);
#518=ORIENTED_EDGE('',*,*,#393,.F.);
#519=ORIENTED_EDGE('',*,*,#394,.F.);
#520=ORIENTED_EDGE('',*,*,#395,.F.);
#521=ORIENTED_EDGE('',*,*,#377,.T.);
#522=ORIENTED_EDGE('',*,*,#374,.T.);
#523=ORIENTED_EDGE('',*,*,#384,.T.);
#524=ORIENTED_EDGE('',*,*,#396,.T.);
#525=ORIENTED_EDGE('',*,*,#386,.T.);
#526=ORIENTED_EDGE('',*,*,#362,.F.);
#527=ORIENTED_EDGE('',*,*,#369,.T.);
#528=ORIENTED_EDGE('',*,*,#397,.T.);
#529=ORIENTED_EDGE('',*,*,#398,.F.);
#530=ORIENTED_EDGE('',*,*,#387,.F.);
#531=ORIENTED_EDGE('',*,*,#396,.F.);
#532=ORIENTED_EDGE('',*,*,#383,.T.);
#533=ORIENTED_EDGE('',*,*,#382,.T.);
#534=ORIENTED_EDGE('',*,*,#370,.T.);
#535=ORIENTED_EDGE('',*,*,#392,.T.);
#536=ORIENTED_EDGE('',*,*,#399,.F.);
#537=ORIENTED_EDGE('',*,*,#344,.T.);
#538=ORIENTED_EDGE('',*,*,#400,.F.);
#539=ORIENTED_EDGE('',*,*,#397,.F.);
#540=ORIENTED_EDGE('',*,*,#368,.T.);
#541=ORIENTED_EDGE('',*,*,#358,.T.);
#542=ORIENTED_EDGE('',*,*,#354,.T.);
#543=ORIENTED_EDGE('',*,*,#343,.T.);
#544=ORIENTED_EDGE('',*,*,#390,.T.);
#545=ORIENTED_EDGE('',*,*,#389,.F.);
#546=ORIENTED_EDGE('',*,*,#388,.T.);
#547=ORIENTED_EDGE('',*,*,#398,.T.);
#548=ORIENTED_EDGE('',*,*,#400,.T.);
#549=ORIENTED_EDGE('',*,*,#352,.F.);
#550=ORIENTED_EDGE('',*,*,#367,.T.);
#551=ORIENTED_EDGE('',*,*,#378,.T.);
#552=ORIENTED_EDGE('',*,*,#395,.T.);
#553=ORIENTED_EDGE('',*,*,#394,.T.);
#554=ORIENTED_EDGE('',*,*,#393,.T.);
#555=ORIENTED_EDGE('',*,*,#391,.T.);
#556=ORIENTED_EDGE('',*,*,#365,.T.);
#557=ORIENTED_EDGE('',*,*,#345,.T.);
#558=ORIENTED_EDGE('',*,*,#399,.T.);
#559=ORIENTED_EDGE('',*,*,#401,.F.);
#560=ORIENTED_EDGE('',*,*,#402,.T.);
#561=ORIENTED_EDGE('',*,*,#403,.F.);
#562=ORIENTED_EDGE('',*,*,#404,.F.);
#563=ORIENTED_EDGE('',*,*,#405,.F.);
#564=ORIENTED_EDGE('',*,*,#406,.T.);
#565=ORIENTED_EDGE('',*,*,#407,.F.);
#566=ORIENTED_EDGE('',*,*,#402,.F.);
#567=ORIENTED_EDGE('',*,*,#408,.F.);
#568=ORIENTED_EDGE('',*,*,#409,.T.);
#569=ORIENTED_EDGE('',*,*,#410,.F.);
#570=ORIENTED_EDGE('',*,*,#406,.F.);
#571=ORIENTED_EDGE('',*,*,#411,.F.);
#572=ORIENTED_EDGE('',*,*,#404,.T.);
#573=ORIENTED_EDGE('',*,*,#412,.F.);
#574=ORIENTED_EDGE('',*,*,#409,.F.);
#575=ORIENTED_EDGE('',*,*,#413,.F.);
#576=ORIENTED_EDGE('',*,*,#414,.T.);
#577=ORIENTED_EDGE('',*,*,#415,.F.);
#578=ORIENTED_EDGE('',*,*,#416,.F.);
#579=ORIENTED_EDGE('',*,*,#417,.F.);
#580=ORIENTED_EDGE('',*,*,#416,.T.);
#581=ORIENTED_EDGE('',*,*,#418,.F.);
#582=ORIENTED_EDGE('',*,*,#419,.F.);
#583=ORIENTED_EDGE('',*,*,#420,.F.);
#584=ORIENTED_EDGE('',*,*,#419,.T.);
#585=ORIENTED_EDGE('',*,*,#421,.F.);
#586=ORIENTED_EDGE('',*,*,#422,.F.);
#587=ORIENTED_EDGE('',*,*,#423,.F.);
#588=ORIENTED_EDGE('',*,*,#422,.T.);
#589=ORIENTED_EDGE('',*,*,#424,.F.);
#590=ORIENTED_EDGE('',*,*,#414,.F.);
#591=ORIENTED_EDGE('',*,*,#424,.T.);
#592=ORIENTED_EDGE('',*,*,#421,.T.);
#593=ORIENTED_EDGE('',*,*,#418,.T.);
#594=ORIENTED_EDGE('',*,*,#415,.T.);
#595=ORIENTED_EDGE('',*,*,#401,.T.);
#596=ORIENTED_EDGE('',*,*,#411,.T.);
#597=ORIENTED_EDGE('',*,*,#408,.T.);
#598=ORIENTED_EDGE('',*,*,#405,.T.);
#599=ORIENTED_EDGE('',*,*,#423,.T.);
#600=ORIENTED_EDGE('',*,*,#413,.T.);
#601=ORIENTED_EDGE('',*,*,#417,.T.);
#602=ORIENTED_EDGE('',*,*,#420,.T.);
#603=ORIENTED_EDGE('',*,*,#403,.T.);
#604=ORIENTED_EDGE('',*,*,#407,.T.);
#605=ORIENTED_EDGE('',*,*,#410,.T.);
#606=ORIENTED_EDGE('',*,*,#412,.T.);
#607=PLANE('',#692);
#608=PLANE('',#693);
#609=PLANE('',#694);
#610=PLANE('',#695);
#611=PLANE('',#696);
#612=PLANE('',#697);
#613=PLANE('',#698);
#614=PLANE('',#699);
#615=PLANE('',#700);
#616=PLANE('',#701);
#617=PLANE('',#702);
#618=PLANE('',#703);
#619=PLANE('',#704);
#620=PLANE('',#705);
#621=PLANE('',#706);
#622=PLANE('',#707);
#623=PLANE('',#708);
#624=PLANE('',#709);
#625=PLANE('',#710);
#626=PLANE('',#711);
#627=PLANE('',#712);
#628=PLANE('',#713);
#629=PLANE('',#714);
#630=PLANE('',#715);
#631=PLANE('',#716);
#632=PLANE('',#717);
#633=PLANE('',#718);
#634=PLANE('',#719);
#635=PLANE('',#720);
#636=PLANE('',#721);
#637=PLANE('',#722);
#638=PLANE('',#723);
#639=PLANE('',#724);
#640=PLANE('',#725);
#641=PLANE('',#726);
#642=ADVANCED_FACE('',(#20),#607,.F.);
#643=ADVANCED_FACE('',(#21),#608,.T.);
#644=ADVANCED_FACE('',(#22),#609,.T.);
#645=ADVANCED_FACE('',(#23),#610,.T.);
#646=ADVANCED_FACE('',(#24),#611,.F.);
#647=ADVANCED_FACE('',(#25),#612,.F.);
#648=ADVANCED_FACE('',(#26),#613,.T.);
#649=ADVANCED_FACE('',(#27),#614,.T.);
#650=ADVANCED_FACE('',(#28),#615,.T.);
#651=ADVANCED_FACE('',(#29),#616,.F.);
#652=ADVANCED_FACE('',(#30),#617,.F.);
#653=ADVANCED_FACE('',(#31),#618,.T.);
#654=ADVANCED_FACE('',(#32),#619,.T.);
#655=ADVANCED_FACE('',(#33),#620,.F.);
#656=ADVANCED_FACE('',(#34),#621,.T.);
#657=ADVANCED_FACE('',(#35),#622,.T.);
#658=ADVANCED_FACE('',(#36),#623,.F.);
#659=ADVANCED_FACE('',(#37),#624,.T.);
#660=ADVANCED_FACE('',(#38),#625,.T.);
#661=ADVANCED_FACE('',(#39),#626,.T.);
#662=ADVANCED_FACE('',(#40),#627,.F.);
#663=ADVANCED_FACE('',(#41),#628,.T.);
#664=ADVANCED_FACE('',(#42),#629,.T.);
#665=ADVANCED_FACE('',(#43,#17),#630,.T.);
#666=ADVANCED_FACE('',(#44),#631,.F.);
#667=ADVANCED_FACE('',(#45),#632,.F.);
#668=ADVANCED_FACE('',(#46),#633,.F.);
#669=ADVANCED_FACE('',(#47),#634,.F.);
#670=ADVANCED_FACE('',(#48),#635,.F.);
#671=ADVANCED_FACE('',(#49),#636,.T.);
#672=ADVANCED_FACE('',(#50),#637,.T.);
#673=ADVANCED_FACE('',(#51),#638,.T.);
#674=ADVANCED_FACE('',(#52),#639,.T.);
#675=ADVANCED_FACE('',(#53,#18),#640,.T.);
#676=ADVANCED_FACE('',(#54,#19),#641,.F.);
#677=CLOSED_SHELL('',(#642,#643,#644,#645,#646,#647,#648,#649,#650,#651,
#652,#653,#654,#655,#656,#657,#658,#659,#660,#661,#662,#663,#664,#665,#666));
#678=CLOSED_SHELL('',(#667,#668,#669,#670,#671,#672,#673,#674,#675,#676));
#679=DERIVED_UNIT_ELEMENT(#681,1.);
#680=DERIVED_UNIT_ELEMENT(#1083,-3.);
#681=(
MASS_UNIT()
NAMED_UNIT(*)
SI_UNIT(.KILO.,.GRAM.)
);
#682=DERIVED_UNIT((#679,#680));
#683=MEASURE_REPRESENTATION_ITEM('density measure',
POSITIVE_RATIO_MEASURE(7850.),#682);
#684=PROPERTY_DEFINITION_REPRESENTATION(#689,#686);
#685=PROPERTY_DEFINITION_REPRESENTATION(#690,#687);
#686=REPRESENTATION('material name',(#688),#1078);
#687=REPRESENTATION('density',(#683),#1078);
#688=DESCRIPTIVE_REPRESENTATION_ITEM('Steel','Steel');
#689=PROPERTY_DEFINITION('material property','material name',#1091);
#690=PROPERTY_DEFINITION('material property','density of part',#1091);
#691=AXIS2_PLACEMENT_3D('',#890,#727,#728);
#692=AXIS2_PLACEMENT_3D('',#891,#729,#730);
#693=AXIS2_PLACEMENT_3D('',#900,#735,#736);
#694=AXIS2_PLACEMENT_3D('',#916,#745,#746);
#695=AXIS2_PLACEMENT_3D('',#926,#752,#753);
#696=AXIS2_PLACEMENT_3D('',#932,#757,#758);
#697=AXIS2_PLACEMENT_3D('',#940,#763,#764);
#698=AXIS2_PLACEMENT_3D('',#946,#768,#769);
#699=AXIS2_PLACEMENT_3D('',#952,#773,#774);
#700=AXIS2_PLACEMENT_3D('',#956,#777,#778);
#701=AXIS2_PLACEMENT_3D('',#960,#781,#782);
#702=AXIS2_PLACEMENT_3D('',#964,#785,#786);
#703=AXIS2_PLACEMENT_3D('',#970,#790,#791);
#704=AXIS2_PLACEMENT_3D('',#978,#796,#797);
#705=AXIS2_PLACEMENT_3D('',#982,#800,#801);
#706=AXIS2_PLACEMENT_3D('',#985,#804,#805);
#707=AXIS2_PLACEMENT_3D('',#987,#807,#808);
#708=AXIS2_PLACEMENT_3D('',#993,#812,#813);
#709=AXIS2_PLACEMENT_3D('',#995,#815,#816);
#710=AXIS2_PLACEMENT_3D('',#1005,#822,#823);
#711=AXIS2_PLACEMENT_3D('',#1009,#826,#827);
#712=AXIS2_PLACEMENT_3D('',#1015,#831,#832);
#713=AXIS2_PLACEMENT_3D('',#1017,#834,#835);
#714=AXIS2_PLACEMENT_3D('',#1021,#838,#839);
#715=AXIS2_PLACEMENT_3D('',#1024,#842,#843);
#716=AXIS2_PLACEMENT_3D('',#1025,#844,#845);
#717=AXIS2_PLACEMENT_3D('',#1026,#846,#847);
#718=AXIS2_PLACEMENT_3D('',#1035,#852,#853);
#719=AXIS2_PLACEMENT_3D('',#1041,#857,#858);
#720=AXIS2_PLACEMENT_3D('',#1047,#862,#863);
#721=AXIS2_PLACEMENT_3D('',#1050,#866,#867);
#722=AXIS2_PLACEMENT_3D('',#1059,#872,#873);
#723=AXIS2_PLACEMENT_3D('',#1065,#877,#878);
#724=AXIS2_PLACEMENT_3D('',#1071,#882,#883);
#725=AXIS2_PLACEMENT_3D('',#1074,#886,#887);
#726=AXIS2_PLACEMENT_3D('',#1075,#888,#889);
#727=DIRECTION('axis',(0.,0.,1.));
#728=DIRECTION('refdir',(1.,0.,0.));
#729=DIRECTION('center_axis',(0.,0.,1.));
#730=DIRECTION('ref_axis',(1.,0.,0.));
#731=DIRECTION('',(1.,0.,0.));
#732=DIRECTION('',(0.,1.,0.));
#733=DIRECTION('',(-1.,0.,0.));
#734=DIRECTION('',(0.,1.,0.));
#735=DIRECTION('center_axis',(0.,-1.,0.));
#736=DIRECTION('ref_axis',(1.,0.,0.));
#737=DIRECTION('',(0.,0.,1.));
#738=DIRECTION('',(0.,0.,-1.));
#739=DIRECTION('',(0.,0.,1.));
#740=DIRECTION('',(1.,0.,0.));
#741=DIRECTION('',(0.,0.,1.));
#742=DIRECTION('',(1.,0.,0.));
#743=DIRECTION('',(0.,0.,1.));
#744=DIRECTION('',(-1.,0.,0.));
#745=DIRECTION('center_axis',(0.,1.,0.));
#746=DIRECTION('ref_axis',(0.,0.,1.));
#747=DIRECTION('',(0.,0.,1.));
#748=DIRECTION('',(-1.,0.,0.));
#749=DIRECTION('',(0.,0.,1.));
#750=DIRECTION('',(1.,0.,0.));
#751=DIRECTION('',(0.,0.,-1.));
#752=DIRECTION('center_axis',(0.,1.,0.));
#753=DIRECTION('ref_axis',(0.,0.,1.));
#754=DIRECTION('',(0.,0.,-1.));
#755=DIRECTION('',(1.,0.,0.));
#756=DIRECTION('',(0.,0.,1.));
#757=DIRECTION('center_axis',(0.,0.,1.));
#758=DIRECTION('ref_axis',(0.,-1.,0.));
#759=DIRECTION('',(0.,-1.,0.));
#760=DIRECTION('',(1.,0.,0.));
#761=DIRECTION('',(0.,1.,0.));
#762=DIRECTION('',(1.,0.,0.));
#763=DIRECTION('center_axis',(0.,1.,0.));
#764=DIRECTION('ref_axis',(0.,0.,1.));
#765=DIRECTION('',(0.,0.,1.));
#766=DIRECTION('',(-1.,0.,0.));
#767=DIRECTION('',(0.,0.,-1.));
#768=DIRECTION('center_axis',(1.,0.,0.));
#769=DIRECTION('ref_axis',(0.,1.,0.));
#770=DIRECTION('',(0.,1.,0.));
#771=DIRECTION('',(0.,0.,1.));
#772=DIRECTION('',(0.,-1.,0.));
#773=DIRECTION('center_axis',(1.,0.,0.));
#774=DIRECTION('ref_axis',(0.,1.,0.));
#775=DIRECTION('',(0.,0.,1.));
#776=DIRECTION('',(0.,-1.,0.));
#777=DIRECTION('center_axis',(1.,0.,0.));
#778=DIRECTION('ref_axis',(0.,1.,0.));
#779=DIRECTION('',(0.,0.,1.));
#780=DIRECTION('',(0.,1.,0.));
#781=DIRECTION('center_axis',(0.,0.,1.));
#782=DIRECTION('ref_axis',(1.,0.,0.));
#783=DIRECTION('',(0.,-1.,0.));
#784=DIRECTION('',(-1.,0.,0.));
#785=DIRECTION('center_axis',(0.,0.,1.));
#786=DIRECTION('ref_axis',(-1.,0.,0.));
#787=DIRECTION('',(-1.,0.,0.));
#788=DIRECTION('',(0.,-1.,0.));
#789=DIRECTION('',(1.,0.,0.));
#790=DIRECTION('center_axis',(0.,-1.,0.));
#791=DIRECTION('ref_axis',(0.,0.,-1.));
#792=DIRECTION('',(0.,0.,-1.));
#793=DIRECTION('',(-1.,0.,0.));
#794=DIRECTION('',(0.,0.,-1.));
#795=DIRECTION('',(-1.,0.,0.));
#796=DIRECTION('center_axis',(0.,-1.,0.));
#797=DIRECTION('ref_axis',(0.,0.,-1.));
#798=DIRECTION('',(0.,0.,-1.));
#799=DIRECTION('',(1.,0.,0.));
#800=DIRECTION('center_axis',(0.,0.,1.));
#801=DIRECTION('ref_axis',(0.,1.,0.));
#802=DIRECTION('',(0.,1.,0.));
#803=DIRECTION('',(0.,-1.,0.));
#804=DIRECTION('center_axis',(-1.,0.,0.));
#805=DIRECTION('ref_axis',(0.,-1.,0.));
#806=DIRECTION('',(0.,-1.,0.));
#807=DIRECTION('center_axis',(-1.,0.,0.));
#808=DIRECTION('ref_axis',(0.,-1.,0.));
#809=DIRECTION('',(0.,0.,1.));
#810=DIRECTION('',(0.,0.,1.));
#811=DIRECTION('',(0.,1.,0.));
#812=DIRECTION('center_axis',(0.,0.,1.));
#813=DIRECTION('ref_axis',(1.,0.,0.));
#814=DIRECTION('',(0.,1.,0.));
#815=DIRECTION('center_axis',(1.,0.,0.));
#816=DIRECTION('ref_axis',(0.,1.,0.));
#817=DIRECTION('',(0.,-1.,0.));
#818=DIRECTION('',(0.,0.,1.));
#819=DIRECTION('',(0.,1.,0.));
#820=DIRECTION('',(0.,-1.,0.));
#821=DIRECTION('',(0.,1.,0.));
#822=DIRECTION('center_axis',(0.,1.,0.));
#823=DIRECTION('ref_axis',(0.,0.,1.));
#824=DIRECTION('',(1.,0.,0.));
#825=DIRECTION('',(0.,0.,-1.));
#826=DIRECTION('center_axis',(-1.,0.,0.));
#827=DIRECTION('ref_axis',(0.,-1.,0.));
#828=DIRECTION('',(0.,-1.,0.));
#829=DIRECTION('',(0.,-1.,0.));
#830=DIRECTION('',(0.,-1.,0.));
#831=DIRECTION('center_axis',(0.,0.,1.));
#832=DIRECTION('ref_axis',(1.,0.,0.));
#833=DIRECTION('',(1.,0.,0.));
#834=DIRECTION('center_axis',(0.,1.,0.));
#835=DIRECTION('ref_axis',(-1.,0.,0.));
#836=DIRECTION('',(0.,0.,1.));
#837=DIRECTION('',(-1.,0.,0.));
#838=DIRECTION('center_axis',(-1.,0.,0.));
#839=DIRECTION('ref_axis',(0.,-1.,0.));
#840=DIRECTION('',(0.,1.,0.));
#841=DIRECTION('',(0.,-1.,0.));
#842=DIRECTION('center_axis',(0.,0.,1.));
#843=DIRECTION('ref_axis',(1.,0.,0.));
#844=DIRECTION('center_axis',(0.,0.,1.));
#845=DIRECTION('ref_axis',(1.,0.,0.));
#846=DIRECTION('center_axis',(1.,0.,0.));
#847=DIRECTION('ref_axis',(0.,-1.,0.));
#848=DIRECTION('',(0.,-1.,0.));
#849=DIRECTION('',(0.,0.,-1.));
#850=DIRECTION('',(0.,1.,0.));
#851=DIRECTION('',(0.,0.,-1.));
#852=DIRECTION('center_axis',(0.,1.,0.));
#853=DIRECTION('ref_axis',(1.,0.,0.));
#854=DIRECTION('',(1.,0.,0.));
#855=DIRECTION('',(0.,0.,-1.));
#856=DIRECTION('',(-1.,0.,0.));
#857=DIRECTION('center_axis',(-1.,0.,0.));
#858=DIRECTION('ref_axis',(0.,1.,0.));
#859=DIRECTION('',(0.,1.,0.));
#860=DIRECTION('',(0.,0.,-1.));
#861=DIRECTION('',(0.,-1.,0.));
#862=DIRECTION('center_axis',(0.,-1.,0.));
#863=DIRECTION('ref_axis',(-1.,0.,0.));
#864=DIRECTION('',(-1.,0.,0.));
#865=DIRECTION('',(1.,0.,0.));
#866=DIRECTION('center_axis',(1.,0.,0.));
#867=DIRECTION('ref_axis',(0.,1.,0.));
#868=DIRECTION('',(0.,-1.,0.));
#869=DIRECTION('',(0.,0.,1.));
#870=DIRECTION('',(0.,1.,0.));
#871=DIRECTION('',(0.,0.,1.));
#872=DIRECTION('center_axis',(0.,-1.,0.));
#873=DIRECTION('ref_axis',(1.,0.,0.));
#874=DIRECTION('',(-1.,0.,0.));
#875=DIRECTION('',(1.,0.,0.));
#876=DIRECTION('',(0.,0.,1.));
#877=DIRECTION('center_axis',(-1.,0.,0.));
#878=DIRECTION('ref_axis',(0.,-1.,0.));
#879=DIRECTION('',(0.,1.,0.));
#880=DIRECTION('',(0.,-1.,0.));
#881=DIRECTION('',(0.,0.,1.));
#882=DIRECTION('center_axis',(0.,1.,0.));
#883=DIRECTION('ref_axis',(-1.,0.,0.));
#884=DIRECTION('',(1.,0.,0.));
#885=DIRECTION('',(-1.,0.,0.));
#886=DIRECTION('center_axis',(0.,0.,1.));
#887=DIRECTION('ref_axis',(1.,0.,0.));
#888=DIRECTION('center_axis',(0.,0.,1.));
#889=DIRECTION('ref_axis',(-1.,0.,0.));
#890=CARTESIAN_POINT('',(0.,0.,0.));
#891=CARTESIAN_POINT('Origin',(1.99999996996301,0.,45.9999993091493));
#892=CARTESIAN_POINT('',(1.99999996996301,0.5,45.9999993091493));
#893=CARTESIAN_POINT('',(52.999998969963,0.5,45.9999993091493));
#894=CARTESIAN_POINT('',(27.4999995869914,0.5,45.9999993091493));
#895=CARTESIAN_POINT('',(2.,1.99999996996301,45.9999993091493));
#896=CARTESIAN_POINT('',(1.99999996996301,0.,45.9999993091493));
#897=CARTESIAN_POINT('',(52.9999991739829,1.99999996996301,45.9999993091493));
#898=CARTESIAN_POINT('',(1.99999996996301,1.99999996996301,45.9999993091493));
#899=CARTESIAN_POINT('',(52.999998969963,0.,45.9999993091493));
#900=CARTESIAN_POINT('Origin',(52.9999992040199,0.5,0.));
#901=CARTESIAN_POINT('',(1.99999996996301,0.5,0.));
#902=CARTESIAN_POINT('',(1.99999996996301,0.5,21.9999996695931));
#903=CARTESIAN_POINT('',(52.999998969963,0.5,43.9999993391863));
#904=CARTESIAN_POINT('',(52.999998969963,0.5,22.9999996545747));
#905=CARTESIAN_POINT('',(52.9999992040199,0.5,0.));
#906=CARTESIAN_POINT('',(52.9999992040199,0.5,0.));
#907=CARTESIAN_POINT('',(54.4999991739829,0.5,0.));
#908=CARTESIAN_POINT('',(52.9999992040199,0.5,0.));
#909=CARTESIAN_POINT('',(54.4999991739829,0.5,47.5));
#910=CARTESIAN_POINT('',(54.4999991739829,0.5,0.));
#911=CARTESIAN_POINT('',(0.5,0.5,47.5));
#912=CARTESIAN_POINT('',(1.99999996996301,0.5,47.5));
#913=CARTESIAN_POINT('',(0.5,0.5,0.));
#914=CARTESIAN_POINT('',(0.5,0.5,0.));
#915=CARTESIAN_POINT('',(1.99999996996301,0.5,0.));
#916=CARTESIAN_POINT('Origin',(1.99999996996301,1.99999996996301,43.9999993391863));
#917=CARTESIAN_POINT('',(52.9999992040199,1.99999996996301,43.9999993391863));
#918=CARTESIAN_POINT('',(52.999998969963,1.99999996996301,44.9999993241678));
#919=CARTESIAN_POINT('',(54.4999991739829,1.99999996996301,45.9999993091493));
#920=CARTESIAN_POINT('',(54.9999991739829,1.99999996996301,45.9999993091493));
#921=CARTESIAN_POINT('',(54.4999991739829,1.99999996996301,0.));
#922=CARTESIAN_POINT('',(54.4999991739829,1.99999996996301,0.));
#923=CARTESIAN_POINT('',(52.9999991739829,1.99999996996301,0.));
#924=CARTESIAN_POINT('',(54.4999991814921,1.99999996996301,0.));
#925=CARTESIAN_POINT('',(52.9999992040199,1.99999996996301,0.));
#926=CARTESIAN_POINT('Origin',(1.99999996996301,1.99999996996301,43.9999993391863));
#927=CARTESIAN_POINT('',(1.99999996996301,1.99999996996301,47.5));
#928=CARTESIAN_POINT('',(1.99999996996301,1.99999996996301,21.9999996695931));
#929=CARTESIAN_POINT('',(52.999998969963,1.99999996996301,47.5));
#930=CARTESIAN_POINT('',(1.99999996996301,1.99999996996301,47.5));
#931=CARTESIAN_POINT('',(52.9999992040199,1.99999996996301,21.9999996695931));
#932=CARTESIAN_POINT('Origin',(0.,26.4999996020099,45.9999993091493));
#933=CARTESIAN_POINT('',(0.5,26.4999996020099,45.9999993091493));
#934=CARTESIAN_POINT('',(0.5,1.99999996996301,45.9999993091493));
#935=CARTESIAN_POINT('',(0.5,15.249999770968,45.9999993091493));
#936=CARTESIAN_POINT('',(1.99999996996301,26.4999995719729,45.9999993091493));
#937=CARTESIAN_POINT('',(0.,26.4999996020099,45.9999993091493));
#938=CARTESIAN_POINT('',(1.99999996996301,13.249999801005,45.9999993091493));
#939=CARTESIAN_POINT('',(0.,1.99999996996301,45.9999993091493));
#940=CARTESIAN_POINT('Origin',(0.,26.4999996020099,0.));
#941=CARTESIAN_POINT('',(0.5,26.4999996020099,0.));
#942=CARTESIAN_POINT('',(0.5,26.4999996020099,0.));
#943=CARTESIAN_POINT('',(2.,26.4999996020099,0.));
#944=CARTESIAN_POINT('',(0.499999992490753,26.4999996020099,0.));
#945=CARTESIAN_POINT('',(1.99999996996301,26.4999996020099,0.));
#946=CARTESIAN_POINT('Origin',(1.99999996996301,0.,0.));
#947=CARTESIAN_POINT('',(1.99999996996301,27.9999995719729,0.));
#948=CARTESIAN_POINT('',(1.99999996996301,24.4999996320469,0.));
#949=CARTESIAN_POINT('',(1.99999996996301,27.9999995719729,45.9999993091493));
#950=CARTESIAN_POINT('',(1.99999996996301,27.9999995719729,0.));
#951=CARTESIAN_POINT('',(1.99999996996301,28.4999995719729,45.9999993091493));
#952=CARTESIAN_POINT('Origin',(1.99999996996301,0.,0.));
#953=CARTESIAN_POINT('',(2.,1.99999996996301,0.));
#954=CARTESIAN_POINT('',(1.99999996996301,1.99999996996301,22.9999996545747));
#955=CARTESIAN_POINT('',(1.99999996996301,3.99999993992603,0.));
#956=CARTESIAN_POINT('Origin',(1.99999996996301,0.,0.));
#957=CARTESIAN_POINT('',(1.99999996996301,26.4999996020099,47.5));
#958=CARTESIAN_POINT('',(1.99999996996301,26.4999996020099,24.));
#959=CARTESIAN_POINT('',(1.99999996996301,3.99999993992603,47.5));
#960=CARTESIAN_POINT('Origin',(0.999999984981507,26.4999996020099,0.));
#961=CARTESIAN_POINT('',(0.5,27.9999995719729,0.));
#962=CARTESIAN_POINT('',(0.5,28.4999995719729,0.));
#963=CARTESIAN_POINT('',(1.99999996996301,27.9999995719729,0.));
#964=CARTESIAN_POINT('Origin',(52.9999992040199,28.4999995719729,45.9999993091493));
#965=CARTESIAN_POINT('',(52.9999992040199,27.9999995719729,45.9999993091493));
#966=CARTESIAN_POINT('',(27.4999995869914,27.9999995719729,45.9999993091493));
#967=CARTESIAN_POINT('',(52.9999991739829,26.4999996020099,45.9999993091493));
#968=CARTESIAN_POINT('',(52.9999992040199,28.4999995719729,45.9999993091493));
#969=CARTESIAN_POINT('',(27.4999995869914,26.4999996020099,45.9999993091493));
#970=CARTESIAN_POINT('Origin',(1.99999996996301,26.4999996020099,48.));
#971=CARTESIAN_POINT('',(52.9999991739829,26.4999996020099,0.));
#972=CARTESIAN_POINT('',(52.9999992040199,26.4999996020099,45.9999996695932));
#973=CARTESIAN_POINT('',(54.4999991739829,26.4999996020099,0.));
#974=CARTESIAN_POINT('',(54.4999991814921,26.4999996020099,0.));
#975=CARTESIAN_POINT('',(54.4999991739829,26.4999996020099,45.9999993091493));
#976=CARTESIAN_POINT('',(54.4999991739829,26.4999996020099,22.9999996545747));
#977=CARTESIAN_POINT('',(54.9999991739829,26.4999996020099,45.9999993091493));
#978=CARTESIAN_POINT('Origin',(1.99999996996301,26.4999996020099,48.));
#979=CARTESIAN_POINT('',(52.999998969963,26.4999996020099,47.5));
#980=CARTESIAN_POINT('',(52.9999992040199,26.4999996020099,24.));
#981=CARTESIAN_POINT('',(1.99999996996301,26.4999996020099,47.5));
#982=CARTESIAN_POINT('Origin',(54.9999991739829,1.99999996996301,45.9999993091493));
#983=CARTESIAN_POINT('',(54.4999991739829,13.249999801005,45.9999993091493));
#984=CARTESIAN_POINT('',(52.9999992040199,15.249999770968,45.9999993091493));
#985=CARTESIAN_POINT('Origin',(52.9999992040199,28.4999995719729,0.));
#986=CARTESIAN_POINT('',(52.9999992040199,3.99999993992603,0.));
#987=CARTESIAN_POINT('Origin',(52.9999992040199,28.4999995719729,0.));
#988=CARTESIAN_POINT('',(52.999998969963,27.9999995719729,43.9999993391863));
#989=CARTESIAN_POINT('',(52.9999992040199,27.9999995719729,21.9999996695931));
#990=CARTESIAN_POINT('',(52.9999992040199,27.9999995719729,0.));
#991=CARTESIAN_POINT('',(52.9999992040199,27.9999995719729,0.));
#992=CARTESIAN_POINT('',(52.9999992040199,24.4999996320469,0.));
#993=CARTESIAN_POINT('Origin',(53.9999991890014,1.99999996996301,0.));
#994=CARTESIAN_POINT('',(54.4999991739829,0.,0.));
#995=CARTESIAN_POINT('Origin',(54.4999991739829,24.4999996320469,0.));
#996=CARTESIAN_POINT('',(54.4999991739829,27.9999995719729,0.));
#997=CARTESIAN_POINT('',(54.4999991739829,28.4999995719729,0.));
#998=CARTESIAN_POINT('',(54.4999991739829,27.9999995719729,47.5));
#999=CARTESIAN_POINT('',(54.4999991739829,27.9999995719729,0.));
#1000=CARTESIAN_POINT('',(54.4999991739829,24.4999996320469,47.5));
#1001=CARTESIAN_POINT('',(54.4999991739829,28.4999995719729,47.5));
#1002=CARTESIAN_POINT('',(54.4999991739829,3.99999993992603,47.5));
#1003=CARTESIAN_POINT('',(54.4999991739829,24.4999996320469,47.4999992791123));
#1004=CARTESIAN_POINT('',(54.4999991739829,0.,47.5));
#1005=CARTESIAN_POINT('Origin',(1.99999996996301,1.99999996996301,43.9999993391863));
#1006=CARTESIAN_POINT('',(0.5,1.99999996996301,0.));
#1007=CARTESIAN_POINT('',(0.499999992490753,1.99999996996301,0.));
#1008=CARTESIAN_POINT('',(0.5,1.99999996996301,22.9999996545747));
#1009=CARTESIAN_POINT('Origin',(52.9999992040199,28.4999995719729,0.));
#1010=CARTESIAN_POINT('',(52.9999992040199,3.99999993992603,47.5));
#1011=CARTESIAN_POINT('',(52.9999992040199,3.99999993992603,47.5));
#1012=CARTESIAN_POINT('',(52.9999992040199,24.4999996320469,47.5));
#1013=CARTESIAN_POINT('',(52.9999992040199,24.4999996320469,47.4999992791123));
#1014=CARTESIAN_POINT('',(52.9999992040199,24.4999996320469,47.5));
#1015=CARTESIAN_POINT('Origin',(53.9999991890014,26.4999996020099,0.));
#1016=CARTESIAN_POINT('',(52.9999992040199,27.9999995719729,0.));
#1017=CARTESIAN_POINT('Origin',(1.99999996996301,27.9999995719729,0.));
#1018=CARTESIAN_POINT('',(0.5,27.9999995719729,47.5));
#1019=CARTESIAN_POINT('',(0.5,27.9999995719729,0.));
#1020=CARTESIAN_POINT('',(52.9999992040199,27.9999995719729,47.5));
#1021=CARTESIAN_POINT('Origin',(0.5,3.99999993992603,0.));
#1022=CARTESIAN_POINT('',(0.5,0.,0.));
#1023=CARTESIAN_POINT('',(0.5,28.4999995719729,47.5));
#1024=CARTESIAN_POINT('Origin',(0.999999984981507,1.99999996996301,47.5));
#1025=CARTESIAN_POINT('Origin',(0.999999984981507,1.99999996996301,0.));
#1026=CARTESIAN_POINT('Origin',(28.2500009015789,15.0000004787145,48.25));
#1027=CARTESIAN_POINT('',(28.2500009015789,15.0000004787145,48.25));
#1028=CARTESIAN_POINT('',(28.2500009015789,13.500000430843,48.25));
#1029=CARTESIAN_POINT('',(28.2500009015789,14.6250001323505,48.25));
#1030=CARTESIAN_POINT('',(28.2500009015789,15.0000004787145,48.));
#1031=CARTESIAN_POINT('',(28.2500009015789,15.0000004787145,48.25));
#1032=CARTESIAN_POINT('',(28.2500009015789,13.500000430843,48.));
#1033=CARTESIAN_POINT('',(28.2500009015789,14.6250001323505,48.));
#1034=CARTESIAN_POINT('',(28.2500009015789,13.500000430843,48.25));
#1035=CARTESIAN_POINT('Origin',(26.7500008537075,15.0000004787145,48.25));
#1036=CARTESIAN_POINT('',(26.7500008537075,15.0000004787145,48.25));
#1037=CARTESIAN_POINT('',(27.1250002090856,15.0000004787145,48.25));
#1038=CARTESIAN_POINT('',(26.7500008537075,15.0000004787145,48.));
#1039=CARTESIAN_POINT('',(26.7500008537075,15.0000004787145,48.25));
#1040=CARTESIAN_POINT('',(27.1250002090856,15.0000004787145,48.));
#1041=CARTESIAN_POINT('Origin',(26.7500008537075,13.500000430843,48.25));
#1042=CARTESIAN_POINT('',(26.7500008537075,13.500000430843,48.25));
#1043=CARTESIAN_POINT('',(26.7500008537075,13.8750001084147,48.25));
#1044=CARTESIAN_POINT('',(26.7500008537075,13.500000430843,48.));
#1045=CARTESIAN_POINT('',(26.7500008537075,13.500000430843,48.25));
#1046=CARTESIAN_POINT('',(26.7500008537075,13.8750001084147,48.));
#1047=CARTESIAN_POINT('Origin',(28.2500009015789,13.500000430843,48.25));
#1048=CARTESIAN_POINT('',(27.8750002330213,13.500000430843,48.25));
#1049=CARTESIAN_POINT('',(27.8750002330213,13.500000430843,48.));
#1050=CARTESIAN_POINT('Origin',(28.9999995644637,0.,48.));
#1051=CARTESIAN_POINT('',(28.9999995644637,28.4999995719729,48.));
#1052=CARTESIAN_POINT('',(28.9999995644637,0.,48.));
#1053=CARTESIAN_POINT('',(28.9999995644637,28.4999995719729,48.));
#1054=CARTESIAN_POINT('',(28.9999995644637,28.4999995719729,48.25));
#1055=CARTESIAN_POINT('',(28.9999995644637,28.4999995719729,48.));
#1056=CARTESIAN_POINT('',(28.9999995644637,0.,48.25));
#1057=CARTESIAN_POINT('',(28.9999995644637,28.4999995719729,48.25));
#1058=CARTESIAN_POINT('',(28.9999995644637,0.,48.));
#1059=CARTESIAN_POINT('Origin',(25.9999995644637,0.,48.));
#1060=CARTESIAN_POINT('',(25.9999995644637,0.,48.));
#1061=CARTESIAN_POINT('',(28.9999995644637,0.,48.));
#1062=CARTESIAN_POINT('',(25.9999995644637,0.,48.25));
#1063=CARTESIAN_POINT('',(28.9999995644637,0.,48.25));
#1064=CARTESIAN_POINT('',(25.9999995644637,0.,48.));
#1065=CARTESIAN_POINT('Origin',(25.9999995644637,28.4999995719729,48.));
#1066=CARTESIAN_POINT('',(25.9999995644637,28.4999995719729,48.));
#1067=CARTESIAN_POINT('',(25.9999995644637,0.,48.));
#1068=CARTESIAN_POINT('',(25.9999995644637,28.4999995719729,48.25));
#1069=CARTESIAN_POINT('',(25.9999995644637,0.,48.25));
#1070=CARTESIAN_POINT('',(25.9999995644637,28.4999995719729,48.));
#1071=CARTESIAN_POINT('Origin',(28.9999995644637,28.4999995719729,48.));
#1072=CARTESIAN_POINT('',(25.9999995644637,28.4999995719729,48.));
#1073=CARTESIAN_POINT('',(25.9999995644637,28.4999995719729,48.25));
#1074=CARTESIAN_POINT('Origin',(27.4999995644637,14.2499997859865,48.25));
#1075=CARTESIAN_POINT('Origin',(27.4999995644637,14.2499997859865,48.));
#1076=UNCERTAINTY_MEASURE_WITH_UNIT(LENGTH_MEASURE(0.000393700787401575),
#1081,'DISTANCE_ACCURACY_VALUE',
'Maximum model space distance between geometric entities at asserted c
onnectivities');
#1077=UNCERTAINTY_MEASURE_WITH_UNIT(LENGTH_MEASURE(0.000393700787401575),
#1081,'DISTANCE_ACCURACY_VALUE',
'Maximum model space distance between geometric entities at asserted c
onnectivities');
#1078=(
GEOMETRIC_REPRESENTATION_CONTEXT(3)
GLOBAL_UNCERTAINTY_ASSIGNED_CONTEXT((#1076))
GLOBAL_UNIT_ASSIGNED_CONTEXT((#1081,#1085,#1086))
REPRESENTATION_CONTEXT('','3D')
);
#1079=(
GEOMETRIC_REPRESENTATION_CONTEXT(3)
GLOBAL_UNCERTAINTY_ASSIGNED_CONTEXT((#1077))
GLOBAL_UNIT_ASSIGNED_CONTEXT((#1081,#1085,#1086))
REPRESENTATION_CONTEXT('','3D')
);
#1080=DIMENSIONAL_EXPONENTS(1.,0.,0.,0.,0.,0.,0.);
#1081=(
CONVERSION_BASED_UNIT('inch',#1084)
LENGTH_UNIT()
NAMED_UNIT(#1080)
);
#1082=(
LENGTH_UNIT()
NAMED_UNIT(*)
SI_UNIT(.MILLI.,.METRE.)
);
#1083=(
LENGTH_UNIT()
NAMED_UNIT(*)
SI_UNIT($,.METRE.)
);
#1084=LENGTH_MEASURE_WITH_UNIT(LENGTH_MEASURE(25.4),#1082);
#1085=(
NAMED_UNIT(*)
PLANE_ANGLE_UNIT()
SI_UNIT($,.RADIAN.)
);
#1086=(
NAMED_UNIT(*)
SI_UNIT($,.STERADIAN.)
SOLID_ANGLE_UNIT()
);
#1087=SHAPE_DEFINITION_REPRESENTATION(#1088,#1089);
#1088=PRODUCT_DEFINITION_SHAPE('',$,#1091);
#1089=SHAPE_REPRESENTATION('',(#691),#1078);
#1090=PRODUCT_DEFINITION_CONTEXT('part definition',#1095,'design');
#1091=PRODUCT_DEFINITION('2025-10-23-21-49-31-248','Stand+shape v5',#1092,
#1090);
#1092=PRODUCT_DEFINITION_FORMATION('',$,#1097);
#1093=PRODUCT_RELATED_PRODUCT_CATEGORY('Stand+shape v5',
'Stand+shape v5',(#1097));
#1094=APPLICATION_PROTOCOL_DEFINITION('international standard',
'automotive_design',2009,#1095);
#1095=APPLICATION_CONTEXT(
'Core Data for Automotive Mechanical Design Process');
#1096=PRODUCT_CONTEXT('part definition',#1095,'mechanical');
#1097=PRODUCT('2025-10-23-21-49-31-248','Stand+shape v5',$,(#1096));
#1098=PRESENTATION_STYLE_ASSIGNMENT((#1100));
#1099=PRESENTATION_STYLE_ASSIGNMENT((#1101));
#1100=SURFACE_STYLE_USAGE(.BOTH.,#1102);
#1101=SURFACE_STYLE_USAGE(.BOTH.,#1103);
#1102=SURFACE_SIDE_STYLE('',(#1104));
#1103=SURFACE_SIDE_STYLE('',(#1105));
#1104=SURFACE_STYLE_FILL_AREA(#1106);
#1105=SURFACE_STYLE_FILL_AREA(#1107);
#1106=FILL_AREA_STYLE('Steel - Satin',(#1108));
#1107=FILL_AREA_STYLE('3D Oak - Unfinished',(#1109));
#1108=FILL_AREA_STYLE_COLOUR('Steel - Satin',#1110);
#1109=FILL_AREA_STYLE_COLOUR('3D Oak - Unfinished',#1111);
#1110=COLOUR_RGB('Steel - Satin',0.627450980392157,0.627450980392157,0.627450980392157);
#1111=COLOUR_RGB('3D Oak - Unfinished',0.894117647058824,0.803921568627451,
0.690196078431373);
ENDSEC;
END-ISO-10303-21;
