ISO-10303-21;
HEADER;
/* Generated by software containing ST-Developer
 * from STEP Tools, Inc. (www.steptools.com) 
 */

FILE_DESCRIPTION(
/* description */ (''),
/* implementation_level */ '2;1');

FILE_NAME(
/* name */ 'Make one of these.step',
/* time_stamp */ '2026-03-25T02:13:45-04:00',
/* author */ (''),
/* organization */ (''),
/* preprocessor_version */ 'ST-DEVELOPER v20.1',
/* originating_system */ 'Autodesk Translation Framework v14.24.0.0',
/* authorisation */ '');

FILE_SCHEMA (('AUTOMOTIVE_DESIGN { 1 0 10303 214 3 1 1 }'));
ENDSEC;

DATA;
#10=MECHANICAL_DESIGN_GEOMETRIC_PRESENTATION_REPRESENTATION('',(#13),#475);
#11=SHAPE_REPRESENTATION_RELATIONSHIP('SRR','None',#485,#12);
#12=ADVANCED_BREP_SHAPE_REPRESENTATION('',(#14),#474);
#13=STYLED_ITEM('',(#494),#14);
#14=MANIFOLD_SOLID_BREP('Body1',#287);
#15=FACE_BOUND('',#64,.T.);
#16=FACE_BOUND('',#65,.T.);
#17=FACE_BOUND('',#66,.T.);
#18=FACE_BOUND('',#67,.T.);
#19=FACE_BOUND('',#68,.T.);
#20=FACE_BOUND('',#70,.T.);
#21=FACE_BOUND('',#71,.T.);
#22=FACE_BOUND('',#72,.T.);
#23=FACE_BOUND('',#73,.T.);
#24=FACE_BOUND('',#74,.T.);
#25=CIRCLE('',#306,0.0499999999999999);
#26=CIRCLE('',#307,0.0499999999999999);
#27=CIRCLE('',#309,0.0500000000000003);
#28=CIRCLE('',#310,0.0500000000000003);
#29=CIRCLE('',#312,0.0499999999999999);
#30=CIRCLE('',#313,0.0499999999999999);
#31=CIRCLE('',#315,0.0499999999999999);
#32=CIRCLE('',#316,0.0499999999999999);
#33=CYLINDRICAL_SURFACE('',#305,0.0499999999999999);
#34=CYLINDRICAL_SURFACE('',#308,0.0500000000000003);
#35=CYLINDRICAL_SURFACE('',#311,0.0499999999999999);
#36=CYLINDRICAL_SURFACE('',#314,0.0499999999999999);
#37=FACE_OUTER_BOUND('',#51,.T.);
#38=FACE_OUTER_BOUND('',#52,.T.);
#39=FACE_OUTER_BOUND('',#53,.T.);
#40=FACE_OUTER_BOUND('',#54,.T.);
#41=FACE_OUTER_BOUND('',#55,.T.);
#42=FACE_OUTER_BOUND('',#56,.T.);
#43=FACE_OUTER_BOUND('',#57,.T.);
#44=FACE_OUTER_BOUND('',#58,.T.);
#45=FACE_OUTER_BOUND('',#59,.T.);
#46=FACE_OUTER_BOUND('',#60,.T.);
#47=FACE_OUTER_BOUND('',#61,.T.);
#48=FACE_OUTER_BOUND('',#62,.T.);
#49=FACE_OUTER_BOUND('',#63,.T.);
#50=FACE_OUTER_BOUND('',#69,.T.);
#51=EDGE_LOOP('',(#191,#192,#193,#194));
#52=EDGE_LOOP('',(#195,#196,#197,#198));
#53=EDGE_LOOP('',(#199,#200,#201,#202));
#54=EDGE_LOOP('',(#203,#204,#205,#206));
#55=EDGE_LOOP('',(#207,#208,#209,#210));
#56=EDGE_LOOP('',(#211,#212,#213,#214));
#57=EDGE_LOOP('',(#215,#216,#217,#218));
#58=EDGE_LOOP('',(#219,#220,#221,#222));
#59=EDGE_LOOP('',(#223,#224,#225,#226));
#60=EDGE_LOOP('',(#227,#228,#229,#230));
#61=EDGE_LOOP('',(#231,#232,#233,#234));
#62=EDGE_LOOP('',(#235,#236,#237,#238));
#63=EDGE_LOOP('',(#239,#240,#241,#242));
#64=EDGE_LOOP('',(#243,#244,#245,#246));
#65=EDGE_LOOP('',(#247));
#66=EDGE_LOOP('',(#248));
#67=EDGE_LOOP('',(#249));
#68=EDGE_LOOP('',(#250));
#69=EDGE_LOOP('',(#251,#252,#253,#254));
#70=EDGE_LOOP('',(#255,#256,#257,#258));
#71=EDGE_LOOP('',(#259));
#72=EDGE_LOOP('',(#260));
#73=EDGE_LOOP('',(#261));
#74=EDGE_LOOP('',(#262));
#75=LINE('',#401,#103);
#76=LINE('',#403,#104);
#77=LINE('',#405,#105);
#78=LINE('',#406,#106);
#79=LINE('',#409,#107);
#80=LINE('',#411,#108);
#81=LINE('',#412,#109);
#82=LINE('',#415,#110);
#83=LINE('',#417,#111);
#84=LINE('',#418,#112);
#85=LINE('',#420,#113);
#86=LINE('',#421,#114);
#87=LINE('',#426,#115);
#88=LINE('',#432,#116);
#89=LINE('',#438,#117);
#90=LINE('',#444,#118);
#91=LINE('',#449,#119);
#92=LINE('',#451,#120);
#93=LINE('',#453,#121);
#94=LINE('',#454,#122);
#95=LINE('',#457,#123);
#96=LINE('',#459,#124);
#97=LINE('',#460,#125);
#98=LINE('',#463,#126);
#99=LINE('',#465,#127);
#100=LINE('',#466,#128);
#101=LINE('',#468,#129);
#102=LINE('',#469,#130);
#103=VECTOR('',#327,0.393700787401575);
#104=VECTOR('',#328,0.393700787401575);
#105=VECTOR('',#329,0.393700787401575);
#106=VECTOR('',#330,0.393700787401575);
#107=VECTOR('',#333,0.393700787401575);
#108=VECTOR('',#334,0.393700787401575);
#109=VECTOR('',#335,0.393700787401575);
#110=VECTOR('',#338,0.393700787401575);
#111=VECTOR('',#339,0.393700787401575);
#112=VECTOR('',#340,0.393700787401575);
#113=VECTOR('',#343,0.393700787401575);
#114=VECTOR('',#344,0.393700787401575);
#115=VECTOR('',#349,0.0499999999999999);
#116=VECTOR('',#356,0.0500000000000003);
#117=VECTOR('',#363,0.0499999999999999);
#118=VECTOR('',#370,0.0499999999999999);
#119=VECTOR('',#375,0.393700787401575);
#120=VECTOR('',#376,0.393700787401575);
#121=VECTOR('',#377,0.393700787401575);
#122=VECTOR('',#378,0.393700787401575);
#123=VECTOR('',#381,0.393700787401575);
#124=VECTOR('',#382,0.393700787401575);
#125=VECTOR('',#383,0.393700787401575);
#126=VECTOR('',#386,0.393700787401575);
#127=VECTOR('',#387,0.393700787401575);
#128=VECTOR('',#388,0.393700787401575);
#129=VECTOR('',#391,0.393700787401575);
#130=VECTOR('',#392,0.393700787401575);
#131=VERTEX_POINT('',#399);
#132=VERTEX_POINT('',#400);
#133=VERTEX_POINT('',#402);
#134=VERTEX_POINT('',#404);
#135=VERTEX_POINT('',#408);
#136=VERTEX_POINT('',#410);
#137=VERTEX_POINT('',#414);
#138=VERTEX_POINT('',#416);
#139=VERTEX_POINT('',#423);
#140=VERTEX_POINT('',#425);
#141=VERTEX_POINT('',#429);
#142=VERTEX_POINT('',#431);
#143=VERTEX_POINT('',#435);
#144=VERTEX_POINT('',#437);
#145=VERTEX_POINT('',#441);
#146=VERTEX_POINT('',#443);
#147=VERTEX_POINT('',#447);
#148=VERTEX_POINT('',#448);
#149=VERTEX_POINT('',#450);
#150=VERTEX_POINT('',#452);
#151=VERTEX_POINT('',#456);
#152=VERTEX_POINT('',#458);
#153=VERTEX_POINT('',#462);
#154=VERTEX_POINT('',#464);
#155=EDGE_CURVE('',#131,#132,#75,.T.);
#156=EDGE_CURVE('',#131,#133,#76,.T.);
#157=EDGE_CURVE('',#134,#133,#77,.T.);
#158=EDGE_CURVE('',#132,#134,#78,.T.);
#159=EDGE_CURVE('',#135,#131,#79,.T.);
#160=EDGE_CURVE('',#135,#136,#80,.T.);
#161=EDGE_CURVE('',#133,#136,#81,.T.);
#162=EDGE_CURVE('',#137,#135,#82,.T.);
#163=EDGE_CURVE('',#137,#138,#83,.T.);
#164=EDGE_CURVE('',#136,#138,#84,.T.);
#165=EDGE_CURVE('',#132,#137,#85,.T.);
#166=EDGE_CURVE('',#138,#134,#86,.T.);
#167=EDGE_CURVE('',#139,#139,#25,.T.);
#168=EDGE_CURVE('',#139,#140,#87,.T.);
#169=EDGE_CURVE('',#140,#140,#26,.T.);
#170=EDGE_CURVE('',#141,#141,#27,.T.);
#171=EDGE_CURVE('',#141,#142,#88,.T.);
#172=EDGE_CURVE('',#142,#142,#28,.T.);
#173=EDGE_CURVE('',#143,#143,#29,.T.);
#174=EDGE_CURVE('',#143,#144,#89,.T.);
#175=EDGE_CURVE('',#144,#144,#30,.T.);
#176=EDGE_CURVE('',#145,#145,#31,.T.);
#177=EDGE_CURVE('',#145,#146,#90,.T.);
#178=EDGE_CURVE('',#146,#146,#32,.T.);
#179=EDGE_CURVE('',#147,#148,#91,.T.);
#180=EDGE_CURVE('',#148,#149,#92,.T.);
#181=EDGE_CURVE('',#150,#149,#93,.T.);
#182=EDGE_CURVE('',#147,#150,#94,.T.);
#183=EDGE_CURVE('',#151,#147,#95,.T.);
#184=EDGE_CURVE('',#152,#150,#96,.T.);
#185=EDGE_CURVE('',#151,#152,#97,.T.);
#186=EDGE_CURVE('',#153,#151,#98,.T.);
#187=EDGE_CURVE('',#154,#152,#99,.T.);
#188=EDGE_CURVE('',#153,#154,#100,.T.);
#189=EDGE_CURVE('',#148,#153,#101,.T.);
#190=EDGE_CURVE('',#149,#154,#102,.T.);
#191=ORIENTED_EDGE('',*,*,#155,.F.);
#192=ORIENTED_EDGE('',*,*,#156,.T.);
#193=ORIENTED_EDGE('',*,*,#157,.F.);
#194=ORIENTED_EDGE('',*,*,#158,.F.);
#195=ORIENTED_EDGE('',*,*,#159,.F.);
#196=ORIENTED_EDGE('',*,*,#160,.T.);
#197=ORIENTED_EDGE('',*,*,#161,.F.);
#198=ORIENTED_EDGE('',*,*,#156,.F.);
#199=ORIENTED_EDGE('',*,*,#162,.F.);
#200=ORIENTED_EDGE('',*,*,#163,.T.);
#201=ORIENTED_EDGE('',*,*,#164,.F.);
#202=ORIENTED_EDGE('',*,*,#160,.F.);
#203=ORIENTED_EDGE('',*,*,#165,.F.);
#204=ORIENTED_EDGE('',*,*,#158,.T.);
#205=ORIENTED_EDGE('',*,*,#166,.F.);
#206=ORIENTED_EDGE('',*,*,#163,.F.);
#207=ORIENTED_EDGE('',*,*,#167,.F.);
#208=ORIENTED_EDGE('',*,*,#168,.T.);
#209=ORIENTED_EDGE('',*,*,#169,.F.);
#210=ORIENTED_EDGE('',*,*,#168,.F.);
#211=ORIENTED_EDGE('',*,*,#170,.F.);
#212=ORIENTED_EDGE('',*,*,#171,.T.);
#213=ORIENTED_EDGE('',*,*,#172,.F.);
#214=ORIENTED_EDGE('',*,*,#171,.F.);
#215=ORIENTED_EDGE('',*,*,#173,.F.);
#216=ORIENTED_EDGE('',*,*,#174,.T.);
#217=ORIENTED_EDGE('',*,*,#175,.F.);
#218=ORIENTED_EDGE('',*,*,#174,.F.);
#219=ORIENTED_EDGE('',*,*,#176,.F.);
#220=ORIENTED_EDGE('',*,*,#177,.T.);
#221=ORIENTED_EDGE('',*,*,#178,.F.);
#222=ORIENTED_EDGE('',*,*,#177,.F.);
#223=ORIENTED_EDGE('',*,*,#179,.T.);
#224=ORIENTED_EDGE('',*,*,#180,.T.);
#225=ORIENTED_EDGE('',*,*,#181,.F.);
#226=ORIENTED_EDGE('',*,*,#182,.F.);
#227=ORIENTED_EDGE('',*,*,#183,.T.);
#228=ORIENTED_EDGE('',*,*,#182,.T.);
#229=ORIENTED_EDGE('',*,*,#184,.F.);
#230=ORIENTED_EDGE('',*,*,#185,.F.);
#231=ORIENTED_EDGE('',*,*,#186,.T.);
#232=ORIENTED_EDGE('',*,*,#185,.T.);
#233=ORIENTED_EDGE('',*,*,#187,.F.);
#234=ORIENTED_EDGE('',*,*,#188,.F.);
#235=ORIENTED_EDGE('',*,*,#189,.T.);
#236=ORIENTED_EDGE('',*,*,#188,.T.);
#237=ORIENTED_EDGE('',*,*,#190,.F.);
#238=ORIENTED_EDGE('',*,*,#180,.F.);
#239=ORIENTED_EDGE('',*,*,#190,.T.);
#240=ORIENTED_EDGE('',*,*,#187,.T.);
#241=ORIENTED_EDGE('',*,*,#184,.T.);
#242=ORIENTED_EDGE('',*,*,#181,.T.);
#243=ORIENTED_EDGE('',*,*,#155,.T.);
#244=ORIENTED_EDGE('',*,*,#165,.T.);
#245=ORIENTED_EDGE('',*,*,#162,.T.);
#246=ORIENTED_EDGE('',*,*,#159,.T.);
#247=ORIENTED_EDGE('',*,*,#167,.T.);
#248=ORIENTED_EDGE('',*,*,#170,.T.);
#249=ORIENTED_EDGE('',*,*,#173,.T.);
#250=ORIENTED_EDGE('',*,*,#176,.T.);
#251=ORIENTED_EDGE('',*,*,#189,.F.);
#252=ORIENTED_EDGE('',*,*,#179,.F.);
#253=ORIENTED_EDGE('',*,*,#183,.F.);
#254=ORIENTED_EDGE('',*,*,#186,.F.);
#255=ORIENTED_EDGE('',*,*,#157,.T.);
#256=ORIENTED_EDGE('',*,*,#161,.T.);
#257=ORIENTED_EDGE('',*,*,#164,.T.);
#258=ORIENTED_EDGE('',*,*,#166,.T.);
#259=ORIENTED_EDGE('',*,*,#169,.T.);
#260=ORIENTED_EDGE('',*,*,#172,.T.);
#261=ORIENTED_EDGE('',*,*,#175,.T.);
#262=ORIENTED_EDGE('',*,*,#178,.T.);
#263=PLANE('',#301);
#264=PLANE('',#302);
#265=PLANE('',#303);
#266=PLANE('',#304);
#267=PLANE('',#317);
#268=PLANE('',#318);
#269=PLANE('',#319);
#270=PLANE('',#320);
#271=PLANE('',#321);
#272=PLANE('',#322);
#273=ADVANCED_FACE('',(#37),#263,.F.);
#274=ADVANCED_FACE('',(#38),#264,.F.);
#275=ADVANCED_FACE('',(#39),#265,.F.);
#276=ADVANCED_FACE('',(#40),#266,.F.);
#277=ADVANCED_FACE('',(#41),#33,.F.);
#278=ADVANCED_FACE('',(#42),#34,.F.);
#279=ADVANCED_FACE('',(#43),#35,.F.);
#280=ADVANCED_FACE('',(#44),#36,.F.);
#281=ADVANCED_FACE('',(#45),#267,.T.);
#282=ADVANCED_FACE('',(#46),#268,.T.);
#283=ADVANCED_FACE('',(#47),#269,.T.);
#284=ADVANCED_FACE('',(#48),#270,.T.);
#285=ADVANCED_FACE('',(#49,#15,#16,#17,#18,#19),#271,.T.);
#286=ADVANCED_FACE('',(#50,#20,#21,#22,#23,#24),#272,.F.);
#287=CLOSED_SHELL('',(#273,#274,#275,#276,#277,#278,#279,#280,#281,#282,
#283,#284,#285,#286));
#288=DERIVED_UNIT_ELEMENT(#290,1.);
#289=DERIVED_UNIT_ELEMENT(#479,-3.);
#290=(
MASS_UNIT()
NAMED_UNIT(*)
SI_UNIT(.KILO.,.GRAM.)
);
#291=DERIVED_UNIT((#288,#289));
#292=MEASURE_REPRESENTATION_ITEM('density measure',
POSITIVE_RATIO_MEASURE(7850.),#291);
#293=PROPERTY_DEFINITION_REPRESENTATION(#298,#295);
#294=PROPERTY_DEFINITION_REPRESENTATION(#299,#296);
#295=REPRESENTATION('material name',(#297),#474);
#296=REPRESENTATION('density',(#292),#474);
#297=DESCRIPTIVE_REPRESENTATION_ITEM('Steel','Steel');
#298=PROPERTY_DEFINITION('material property','material name',#487);
#299=PROPERTY_DEFINITION('material property','density of part',#487);
#300=AXIS2_PLACEMENT_3D('',#397,#323,#324);
#301=AXIS2_PLACEMENT_3D('',#398,#325,#326);
#302=AXIS2_PLACEMENT_3D('',#407,#331,#332);
#303=AXIS2_PLACEMENT_3D('',#413,#336,#337);
#304=AXIS2_PLACEMENT_3D('',#419,#341,#342);
#305=AXIS2_PLACEMENT_3D('',#422,#345,#346);
#306=AXIS2_PLACEMENT_3D('',#424,#347,#348);
#307=AXIS2_PLACEMENT_3D('',#427,#350,#351);
#308=AXIS2_PLACEMENT_3D('',#428,#352,#353);
#309=AXIS2_PLACEMENT_3D('',#430,#354,#355);
#310=AXIS2_PLACEMENT_3D('',#433,#357,#358);
#311=AXIS2_PLACEMENT_3D('',#434,#359,#360);
#312=AXIS2_PLACEMENT_3D('',#436,#361,#362);
#313=AXIS2_PLACEMENT_3D('',#439,#364,#365);
#314=AXIS2_PLACEMENT_3D('',#440,#366,#367);
#315=AXIS2_PLACEMENT_3D('',#442,#368,#369);
#316=AXIS2_PLACEMENT_3D('',#445,#371,#372);
#317=AXIS2_PLACEMENT_3D('',#446,#373,#374);
#318=AXIS2_PLACEMENT_3D('',#455,#379,#380);
#319=AXIS2_PLACEMENT_3D('',#461,#384,#385);
#320=AXIS2_PLACEMENT_3D('',#467,#389,#390);
#321=AXIS2_PLACEMENT_3D('',#470,#393,#394);
#322=AXIS2_PLACEMENT_3D('',#471,#395,#396);
#323=DIRECTION('axis',(0.,0.,1.));
#324=DIRECTION('refdir',(1.,0.,0.));
#325=DIRECTION('center_axis',(1.,0.,0.));
#326=DIRECTION('ref_axis',(0.,0.,1.));
#327=DIRECTION('',(0.,0.,1.));
#328=DIRECTION('',(0.,-1.,0.));
#329=DIRECTION('',(0.,0.,-1.));
#330=DIRECTION('',(0.,-1.,0.));
#331=DIRECTION('center_axis',(0.,0.,-1.));
#332=DIRECTION('ref_axis',(1.,0.,0.));
#333=DIRECTION('',(1.,0.,0.));
#334=DIRECTION('',(0.,-1.,0.));
#335=DIRECTION('',(-1.,0.,0.));
#336=DIRECTION('center_axis',(-1.,0.,0.));
#337=DIRECTION('ref_axis',(0.,0.,-1.));
#338=DIRECTION('',(0.,0.,-1.));
#339=DIRECTION('',(0.,-1.,0.));
#340=DIRECTION('',(0.,0.,1.));
#341=DIRECTION('center_axis',(0.,0.,1.));
#342=DIRECTION('ref_axis',(-1.,0.,0.));
#343=DIRECTION('',(-1.,0.,0.));
#344=DIRECTION('',(1.,0.,0.));
#345=DIRECTION('center_axis',(0.,-1.,0.));
#346=DIRECTION('ref_axis',(-1.,0.,0.));
#347=DIRECTION('center_axis',(0.,-1.,0.));
#348=DIRECTION('ref_axis',(-1.,0.,0.));
#349=DIRECTION('',(0.,-1.,0.));
#350=DIRECTION('center_axis',(0.,1.,0.));
#351=DIRECTION('ref_axis',(-1.,0.,0.));
#352=DIRECTION('center_axis',(0.,-1.,0.));
#353=DIRECTION('ref_axis',(-1.,0.,0.));
#354=DIRECTION('center_axis',(0.,-1.,0.));
#355=DIRECTION('ref_axis',(-1.,0.,0.));
#356=DIRECTION('',(0.,-1.,0.));
#357=DIRECTION('center_axis',(0.,1.,0.));
#358=DIRECTION('ref_axis',(-1.,0.,0.));
#359=DIRECTION('center_axis',(0.,-1.,0.));
#360=DIRECTION('ref_axis',(-1.,0.,0.));
#361=DIRECTION('center_axis',(0.,-1.,0.));
#362=DIRECTION('ref_axis',(-1.,0.,0.));
#363=DIRECTION('',(0.,-1.,0.));
#364=DIRECTION('center_axis',(0.,1.,0.));
#365=DIRECTION('ref_axis',(-1.,0.,0.));
#366=DIRECTION('center_axis',(0.,-1.,0.));
#367=DIRECTION('ref_axis',(-1.,0.,0.));
#368=DIRECTION('center_axis',(0.,-1.,0.));
#369=DIRECTION('ref_axis',(-1.,0.,0.));
#370=DIRECTION('',(0.,-1.,0.));
#371=DIRECTION('center_axis',(0.,1.,0.));
#372=DIRECTION('ref_axis',(-1.,0.,0.));
#373=DIRECTION('center_axis',(0.,0.,-1.));
#374=DIRECTION('ref_axis',(-1.,0.,0.));
#375=DIRECTION('',(-1.,0.,0.));
#376=DIRECTION('',(0.,1.,0.));
#377=DIRECTION('',(-1.,0.,0.));
#378=DIRECTION('',(0.,1.,0.));
#379=DIRECTION('center_axis',(1.,0.,0.));
#380=DIRECTION('ref_axis',(0.,0.,-1.));
#381=DIRECTION('',(0.,0.,-1.));
#382=DIRECTION('',(0.,0.,-1.));
#383=DIRECTION('',(0.,1.,0.));
#384=DIRECTION('center_axis',(0.,0.,1.));
#385=DIRECTION('ref_axis',(1.,0.,0.));
#386=DIRECTION('',(1.,0.,0.));
#387=DIRECTION('',(1.,0.,0.));
#388=DIRECTION('',(0.,1.,0.));
#389=DIRECTION('center_axis',(-1.,0.,0.));
#390=DIRECTION('ref_axis',(0.,0.,1.));
#391=DIRECTION('',(0.,0.,1.));
#392=DIRECTION('',(0.,0.,1.));
#393=DIRECTION('center_axis',(0.,1.,0.));
#394=DIRECTION('ref_axis',(0.,0.,1.));
#395=DIRECTION('center_axis',(0.,1.,0.));
#396=DIRECTION('ref_axis',(1.,0.,0.));
#397=CARTESIAN_POINT('',(0.,0.,0.));
#398=CARTESIAN_POINT('Origin',(2.09999997462109,0.25,-5.84999992930162));
#399=CARTESIAN_POINT('',(2.09999997462109,0.25,-5.84999992930162));
#400=CARTESIAN_POINT('',(2.09999997462109,0.25,-4.64999994380385));
#401=CARTESIAN_POINT('',(2.09999997462109,0.25,-5.54999992522726));
#402=CARTESIAN_POINT('',(2.09999997462109,0.,-5.84999992930162));
#403=CARTESIAN_POINT('',(2.09999997462109,0.25,-5.84999992930162));
#404=CARTESIAN_POINT('',(2.09999997462109,0.,-4.64999994380385));
#405=CARTESIAN_POINT('',(2.09999997462109,0.,-5.54999992522726));
#406=CARTESIAN_POINT('',(2.09999997462109,0.25,-4.64999994380385));
#407=CARTESIAN_POINT('Origin',(0.899999989123326,0.25,-5.84999992930162));
#408=CARTESIAN_POINT('',(0.899999989123326,0.25,-5.84999992930162));
#409=CARTESIAN_POINT('',(1.19999998329779,0.25,-5.84999992930162));
#410=CARTESIAN_POINT('',(0.899999989123326,0.,-5.84999992930162));
#411=CARTESIAN_POINT('',(0.899999989123326,0.25,-5.84999992930162));
#412=CARTESIAN_POINT('',(1.19999998329779,0.,-5.84999992930162));
#413=CARTESIAN_POINT('Origin',(0.899999989123326,0.25,-4.64999994380385));
#414=CARTESIAN_POINT('',(0.899999989123326,0.25,-4.64999994380385));
#415=CARTESIAN_POINT('',(0.899999989123326,0.25,-4.94999993247838));
#416=CARTESIAN_POINT('',(0.899999989123326,0.,-4.64999994380385));
#417=CARTESIAN_POINT('',(0.899999989123326,0.25,-4.64999994380385));
#418=CARTESIAN_POINT('',(0.899999989123326,0.,-4.94999993247838));
#419=CARTESIAN_POINT('Origin',(2.09999997462109,0.25,-4.64999994380385));
#420=CARTESIAN_POINT('',(1.79999997604668,0.25,-4.64999994380385));
#421=CARTESIAN_POINT('',(1.79999997604668,0.,-4.64999994380385));
#422=CARTESIAN_POINT('Origin',(2.0000000638286,0.25,-0.500000015957149));
#423=CARTESIAN_POINT('',(2.0500000638286,0.25,-0.500000015957149));
#424=CARTESIAN_POINT('Origin',(2.0000000638286,0.25,-0.500000015957149));
#425=CARTESIAN_POINT('',(2.0500000638286,0.,-0.500000015957149));
#426=CARTESIAN_POINT('',(2.0500000638286,0.25,-0.500000015957149));
#427=CARTESIAN_POINT('Origin',(2.0000000638286,0.,-0.500000015957149));
#428=CARTESIAN_POINT('Origin',(2.0000000638286,0.25,-10.000000319143));
#429=CARTESIAN_POINT('',(2.0500000638286,0.25,-10.000000319143));
#430=CARTESIAN_POINT('Origin',(2.0000000638286,0.25,-10.000000319143));
#431=CARTESIAN_POINT('',(2.0500000638286,0.,-10.000000319143));
#432=CARTESIAN_POINT('',(2.0500000638286,0.25,-10.000000319143));
#433=CARTESIAN_POINT('Origin',(2.0000000638286,0.,-10.000000319143));
#434=CARTESIAN_POINT('Origin',(1.0000000319143,0.25,-10.000000319143));
#435=CARTESIAN_POINT('',(1.0500000319143,0.25,-10.000000319143));
#436=CARTESIAN_POINT('Origin',(1.0000000319143,0.25,-10.000000319143));
#437=CARTESIAN_POINT('',(1.0500000319143,0.,-10.000000319143));
#438=CARTESIAN_POINT('',(1.0500000319143,0.25,-10.000000319143));
#439=CARTESIAN_POINT('Origin',(1.0000000319143,0.,-10.000000319143));
#440=CARTESIAN_POINT('Origin',(1.0000000319143,0.25,-0.500000015957149));
#441=CARTESIAN_POINT('',(1.0500000319143,0.25,-0.500000015957149));
#442=CARTESIAN_POINT('Origin',(1.0000000319143,0.25,-0.500000015957149));
#443=CARTESIAN_POINT('',(1.0500000319143,0.,-0.500000015957149));
#444=CARTESIAN_POINT('',(1.0500000319143,0.25,-0.500000015957149));
#445=CARTESIAN_POINT('Origin',(1.0000000319143,0.,-0.500000015957149));
#446=CARTESIAN_POINT('Origin',(2.99999995494452,0.,-10.4999998423058));
#447=CARTESIAN_POINT('',(2.99999995494452,0.,-10.4999998423058));
#448=CARTESIAN_POINT('',(0.,0.,-10.4999998423058));
#449=CARTESIAN_POINT('',(2.99999995494452,0.,-10.4999998423058));
#450=CARTESIAN_POINT('',(0.,0.25,-10.4999998423058));
#451=CARTESIAN_POINT('',(0.,0.,-10.4999998423058));
#452=CARTESIAN_POINT('',(2.99999995494452,0.25,-10.4999998423058));
#453=CARTESIAN_POINT('',(2.99999995494452,0.25,-10.4999998423058));
#454=CARTESIAN_POINT('',(2.99999995494452,0.,-10.4999998423058));
#455=CARTESIAN_POINT('Origin',(2.99999995494452,0.,0.));
#456=CARTESIAN_POINT('',(2.99999995494452,0.,0.));
#457=CARTESIAN_POINT('',(2.99999995494452,0.,0.));
#458=CARTESIAN_POINT('',(2.99999995494452,0.25,0.));
#459=CARTESIAN_POINT('',(2.99999995494452,0.25,0.));
#460=CARTESIAN_POINT('',(2.99999995494452,0.,0.));
#461=CARTESIAN_POINT('Origin',(0.,0.,0.));
#462=CARTESIAN_POINT('',(0.,0.,0.));
#463=CARTESIAN_POINT('',(0.,0.,0.));
#464=CARTESIAN_POINT('',(0.,0.25,0.));
#465=CARTESIAN_POINT('',(0.,0.25,0.));
#466=CARTESIAN_POINT('',(0.,0.,0.));
#467=CARTESIAN_POINT('Origin',(0.,0.,-10.4999998423058));
#468=CARTESIAN_POINT('',(0.,0.,-10.4999998423058));
#469=CARTESIAN_POINT('',(0.,0.25,-10.4999998423058));
#470=CARTESIAN_POINT('Origin',(1.49999997747226,0.25,-5.24999992115291));
#471=CARTESIAN_POINT('Origin',(1.49999997747226,0.,-5.24999992115291));
#472=UNCERTAINTY_MEASURE_WITH_UNIT(LENGTH_MEASURE(0.000393700787401575),
#477,'DISTANCE_ACCURACY_VALUE',
'Maximum model space distance between geometric entities at asserted c
onnectivities');
#473=UNCERTAINTY_MEASURE_WITH_UNIT(LENGTH_MEASURE(0.000393700787401575),
#477,'DISTANCE_ACCURACY_VALUE',
'Maximum model space distance between geometric entities at asserted c
onnectivities');
#474=(
GEOMETRIC_REPRESENTATION_CONTEXT(3)
GLOBAL_UNCERTAINTY_ASSIGNED_CONTEXT((#472))
GLOBAL_UNIT_ASSIGNED_CONTEXT((#477,#481,#482))
REPRESENTATION_CONTEXT('','3D')
);
#475=(
GEOMETRIC_REPRESENTATION_CONTEXT(3)
GLOBAL_UNCERTAINTY_ASSIGNED_CONTEXT((#473))
GLOBAL_UNIT_ASSIGNED_CONTEXT((#477,#481,#482))
REPRESENTATION_CONTEXT('','3D')
);
#476=DIMENSIONAL_EXPONENTS(1.,0.,0.,0.,0.,0.,0.);
#477=(
CONVERSION_BASED_UNIT('inch',#480)
LENGTH_UNIT()
NAMED_UNIT(#476)
);
#478=(
LENGTH_UNIT()
NAMED_UNIT(*)
SI_UNIT(.MILLI.,.METRE.)
);
#479=(
LENGTH_UNIT()
NAMED_UNIT(*)
SI_UNIT($,.METRE.)
);
#480=LENGTH_MEASURE_WITH_UNIT(LENGTH_MEASURE(25.4),#478);
#481=(
NAMED_UNIT(*)
PLANE_ANGLE_UNIT()
SI_UNIT($,.RADIAN.)
);
#482=(
NAMED_UNIT(*)
SI_UNIT($,.STERADIAN.)
SOLID_ANGLE_UNIT()
);
#483=SHAPE_DEFINITION_REPRESENTATION(#484,#485);
#484=PRODUCT_DEFINITION_SHAPE('',$,#487);
#485=SHAPE_REPRESENTATION('',(#300),#474);
#486=PRODUCT_DEFINITION_CONTEXT('part definition',#491,'design');
#487=PRODUCT_DEFINITION('Make one of these','Make one of these v1',#488,
#486);
#488=PRODUCT_DEFINITION_FORMATION('',$,#493);
#489=PRODUCT_RELATED_PRODUCT_CATEGORY('Make one of these v1',
'Make one of these v1',(#493));
#490=APPLICATION_PROTOCOL_DEFINITION('international standard',
'automotive_design',2009,#491);
#491=APPLICATION_CONTEXT(
'Core Data for Automotive Mechanical Design Process');
#492=PRODUCT_CONTEXT('part definition',#491,'mechanical');
#493=PRODUCT('Make one of these','Make one of these v1',$,(#492));
#494=PRESENTATION_STYLE_ASSIGNMENT((#495));
#495=SURFACE_STYLE_USAGE(.BOTH.,#496);
#496=SURFACE_SIDE_STYLE('',(#497));
#497=SURFACE_STYLE_FILL_AREA(#498);
#498=FILL_AREA_STYLE('Steel - Satin',(#499));
#499=FILL_AREA_STYLE_COLOUR('Steel - Satin',#500);
#500=COLOUR_RGB('Steel - Satin',0.627450980392157,0.627450980392157,0.627450980392157);
ENDSEC;
END-ISO-10303-21;
