ISO-10303-21;
HEADER;
/* Generated by software containing ST-Developer
 * from STEP Tools, Inc. (www.steptools.com) 
 */

FILE_DESCRIPTION(
/* description */ (''),
/* implementation_level */ '2;1');

FILE_NAME(
/* name */ 'IKEA VIHALS.step',
/* time_stamp */ '2026-03-25T02:16:34-04:00',
/* author */ (''),
/* organization */ (''),
/* preprocessor_version */ 'ST-DEVELOPER v20.1',
/* originating_system */ 'Autodesk Translation Framework v14.24.0.0',
/* authorisation */ '');

FILE_SCHEMA (('AUTOMOTIVE_DESIGN { 1 0 10303 214 3 1 1 }'));
ENDSEC;

DATA;
#10=MECHANICAL_DESIGN_GEOMETRIC_PRESENTATION_REPRESENTATION('',(#13),#1787);
#11=SHAPE_REPRESENTATION_RELATIONSHIP('SRR','None',#1794,#12);
#12=ADVANCED_BREP_SHAPE_REPRESENTATION('',(#14),#1786);
#13=STYLED_ITEM('',(#1804),#14);
#14=MANIFOLD_SOLID_BREP('Body1',#1127);
#15=FACE_BOUND('',#98,.T.);
#16=FACE_BOUND('',#101,.T.);
#17=FACE_OUTER_BOUND('',#73,.T.);
#18=FACE_OUTER_BOUND('',#74,.T.);
#19=FACE_OUTER_BOUND('',#75,.T.);
#20=FACE_OUTER_BOUND('',#76,.T.);
#21=FACE_OUTER_BOUND('',#77,.T.);
#22=FACE_OUTER_BOUND('',#78,.T.);
#23=FACE_OUTER_BOUND('',#79,.T.);
#24=FACE_OUTER_BOUND('',#80,.T.);
#25=FACE_OUTER_BOUND('',#81,.T.);
#26=FACE_OUTER_BOUND('',#82,.T.);
#27=FACE_OUTER_BOUND('',#83,.T.);
#28=FACE_OUTER_BOUND('',#84,.T.);
#29=FACE_OUTER_BOUND('',#85,.T.);
#30=FACE_OUTER_BOUND('',#86,.T.);
#31=FACE_OUTER_BOUND('',#87,.T.);
#32=FACE_OUTER_BOUND('',#88,.T.);
#33=FACE_OUTER_BOUND('',#89,.T.);
#34=FACE_OUTER_BOUND('',#90,.T.);
#35=FACE_OUTER_BOUND('',#91,.T.);
#36=FACE_OUTER_BOUND('',#92,.T.);
#37=FACE_OUTER_BOUND('',#93,.T.);
#38=FACE_OUTER_BOUND('',#94,.T.);
#39=FACE_OUTER_BOUND('',#95,.T.);
#40=FACE_OUTER_BOUND('',#96,.T.);
#41=FACE_OUTER_BOUND('',#97,.T.);
#42=FACE_OUTER_BOUND('',#99,.T.);
#43=FACE_OUTER_BOUND('',#100,.T.);
#44=FACE_OUTER_BOUND('',#102,.T.);
#45=FACE_OUTER_BOUND('',#103,.T.);
#46=FACE_OUTER_BOUND('',#104,.T.);
#47=FACE_OUTER_BOUND('',#105,.T.);
#48=FACE_OUTER_BOUND('',#106,.T.);
#49=FACE_OUTER_BOUND('',#107,.T.);
#50=FACE_OUTER_BOUND('',#108,.T.);
#51=FACE_OUTER_BOUND('',#109,.T.);
#52=FACE_OUTER_BOUND('',#110,.T.);
#53=FACE_OUTER_BOUND('',#111,.T.);
#54=FACE_OUTER_BOUND('',#112,.T.);
#55=FACE_OUTER_BOUND('',#113,.T.);
#56=FACE_OUTER_BOUND('',#114,.T.);
#57=FACE_OUTER_BOUND('',#115,.T.);
#58=FACE_OUTER_BOUND('',#116,.T.);
#59=FACE_OUTER_BOUND('',#117,.T.);
#60=FACE_OUTER_BOUND('',#118,.T.);
#61=FACE_OUTER_BOUND('',#119,.T.);
#62=FACE_OUTER_BOUND('',#120,.T.);
#63=FACE_OUTER_BOUND('',#121,.T.);
#64=FACE_OUTER_BOUND('',#122,.T.);
#65=FACE_OUTER_BOUND('',#123,.T.);
#66=FACE_OUTER_BOUND('',#124,.T.);
#67=FACE_OUTER_BOUND('',#125,.T.);
#68=FACE_OUTER_BOUND('',#126,.T.);
#69=FACE_OUTER_BOUND('',#127,.T.);
#70=FACE_OUTER_BOUND('',#128,.T.);
#71=FACE_OUTER_BOUND('',#129,.T.);
#72=FACE_OUTER_BOUND('',#130,.T.);
#73=EDGE_LOOP('',(#703,#704,#705,#706));
#74=EDGE_LOOP('',(#707,#708,#709,#710));
#75=EDGE_LOOP('',(#711,#712,#713,#714));
#76=EDGE_LOOP('',(#715,#716,#717,#718,#719));
#77=EDGE_LOOP('',(#720,#721,#722,#723));
#78=EDGE_LOOP('',(#724,#725,#726,#727));
#79=EDGE_LOOP('',(#728,#729,#730,#731));
#80=EDGE_LOOP('',(#732,#733,#734,#735));
#81=EDGE_LOOP('',(#736,#737,#738,#739));
#82=EDGE_LOOP('',(#740,#741,#742,#743,#744,#745,#746,#747));
#83=EDGE_LOOP('',(#748,#749,#750,#751,#752));
#84=EDGE_LOOP('',(#753,#754,#755,#756));
#85=EDGE_LOOP('',(#757,#758,#759,#760));
#86=EDGE_LOOP('',(#761,#762,#763,#764));
#87=EDGE_LOOP('',(#765,#766,#767,#768));
#88=EDGE_LOOP('',(#769,#770,#771,#772));
#89=EDGE_LOOP('',(#773,#774,#775,#776));
#90=EDGE_LOOP('',(#777,#778,#779,#780));
#91=EDGE_LOOP('',(#781,#782,#783,#784));
#92=EDGE_LOOP('',(#785,#786,#787,#788));
#93=EDGE_LOOP('',(#789,#790,#791,#792,#793));
#94=EDGE_LOOP('',(#794,#795,#796,#797));
#95=EDGE_LOOP('',(#798,#799,#800,#801));
#96=EDGE_LOOP('',(#802,#803,#804,#805,#806,#807,#808,#809));
#97=EDGE_LOOP('',(#810,#811,#812,#813));
#98=EDGE_LOOP('',(#814,#815,#816,#817,#818,#819,#820,#821,#822,#823,#824,
#825,#826,#827,#828,#829,#830,#831,#832,#833));
#99=EDGE_LOOP('',(#834,#835,#836,#837));
#100=EDGE_LOOP('',(#838,#839,#840,#841,#842,#843,#844,#845,#846,#847,#848,
#849,#850,#851,#852,#853,#854,#855,#856,#857,#858,#859,#860,#861));
#101=EDGE_LOOP('',(#862,#863,#864,#865,#866,#867,#868,#869));
#102=EDGE_LOOP('',(#870,#871,#872,#873,#874,#875,#876,#877));
#103=EDGE_LOOP('',(#878,#879,#880,#881));
#104=EDGE_LOOP('',(#882,#883,#884,#885));
#105=EDGE_LOOP('',(#886,#887,#888,#889,#890,#891,#892,#893));
#106=EDGE_LOOP('',(#894,#895,#896,#897));
#107=EDGE_LOOP('',(#898,#899,#900,#901));
#108=EDGE_LOOP('',(#902,#903,#904,#905,#906,#907,#908,#909));
#109=EDGE_LOOP('',(#910,#911,#912,#913));
#110=EDGE_LOOP('',(#914,#915,#916,#917));
#111=EDGE_LOOP('',(#918,#919,#920,#921));
#112=EDGE_LOOP('',(#922,#923,#924,#925,#926,#927,#928,#929));
#113=EDGE_LOOP('',(#930,#931,#932,#933));
#114=EDGE_LOOP('',(#934,#935,#936,#937));
#115=EDGE_LOOP('',(#938,#939,#940,#941));
#116=EDGE_LOOP('',(#942,#943,#944,#945));
#117=EDGE_LOOP('',(#946,#947,#948,#949));
#118=EDGE_LOOP('',(#950,#951,#952,#953,#954,#955,#956,#957));
#119=EDGE_LOOP('',(#958,#959,#960,#961));
#120=EDGE_LOOP('',(#962,#963,#964,#965));
#121=EDGE_LOOP('',(#966,#967,#968,#969,#970,#971,#972,#973));
#122=EDGE_LOOP('',(#974,#975,#976,#977,#978,#979,#980,#981));
#123=EDGE_LOOP('',(#982,#983,#984,#985));
#124=EDGE_LOOP('',(#986,#987,#988,#989));
#125=EDGE_LOOP('',(#990,#991,#992,#993));
#126=EDGE_LOOP('',(#994,#995,#996,#997));
#127=EDGE_LOOP('',(#998,#999,#1000,#1001));
#128=EDGE_LOOP('',(#1002,#1003,#1004,#1005));
#129=EDGE_LOOP('',(#1006,#1007,#1008,#1009));
#130=EDGE_LOOP('',(#1010,#1011,#1012,#1013,#1014));
#131=LINE('',#1471,#287);
#132=LINE('',#1473,#288);
#133=LINE('',#1475,#289);
#134=LINE('',#1476,#290);
#135=LINE('',#1480,#291);
#136=LINE('',#1482,#292);
#137=LINE('',#1484,#293);
#138=LINE('',#1485,#294);
#139=LINE('',#1488,#295);
#140=LINE('',#1490,#296);
#141=LINE('',#1491,#297);
#142=LINE('',#1494,#298);
#143=LINE('',#1496,#299);
#144=LINE('',#1497,#300);
#145=LINE('',#1500,#301);
#146=LINE('',#1501,#302);
#147=LINE('',#1505,#303);
#148=LINE('',#1507,#304);
#149=LINE('',#1509,#305);
#150=LINE('',#1510,#306);
#151=LINE('',#1514,#307);
#152=LINE('',#1516,#308);
#153=LINE('',#1518,#309);
#154=LINE('',#1519,#310);
#155=LINE('',#1521,#311);
#156=LINE('',#1522,#312);
#157=LINE('',#1525,#313);
#158=LINE('',#1527,#314);
#159=LINE('',#1528,#315);
#160=LINE('',#1531,#316);
#161=LINE('',#1533,#317);
#162=LINE('',#1535,#318);
#163=LINE('',#1537,#319);
#164=LINE('',#1538,#320);
#165=LINE('',#1541,#321);
#166=LINE('',#1543,#322);
#167=LINE('',#1544,#323);
#168=LINE('',#1547,#324);
#169=LINE('',#1548,#325);
#170=LINE('',#1551,#326);
#171=LINE('',#1552,#327);
#172=LINE('',#1556,#328);
#173=LINE('',#1558,#329);
#174=LINE('',#1560,#330);
#175=LINE('',#1561,#331);
#176=LINE('',#1564,#332);
#177=LINE('',#1566,#333);
#178=LINE('',#1567,#334);
#179=LINE('',#1569,#335);
#180=LINE('',#1572,#336);
#181=LINE('',#1573,#337);
#182=LINE('',#1575,#338);
#183=LINE('',#1579,#339);
#184=LINE('',#1581,#340);
#185=LINE('',#1583,#341);
#186=LINE('',#1584,#342);
#187=LINE('',#1587,#343);
#188=LINE('',#1589,#344);
#189=LINE('',#1590,#345);
#190=LINE('',#1593,#346);
#191=LINE('',#1595,#347);
#192=LINE('',#1596,#348);
#193=LINE('',#1599,#349);
#194=LINE('',#1601,#350);
#195=LINE('',#1602,#351);
#196=LINE('',#1606,#352);
#197=LINE('',#1608,#353);
#198=LINE('',#1610,#354);
#199=LINE('',#1611,#355);
#200=LINE('',#1613,#356);
#201=LINE('',#1615,#357);
#202=LINE('',#1617,#358);
#203=LINE('',#1619,#359);
#204=LINE('',#1621,#360);
#205=LINE('',#1622,#361);
#206=LINE('',#1626,#362);
#207=LINE('',#1628,#363);
#208=LINE('',#1630,#364);
#209=LINE('',#1631,#365);
#210=LINE('',#1633,#366);
#211=LINE('',#1635,#367);
#212=LINE('',#1637,#368);
#213=LINE('',#1639,#369);
#214=LINE('',#1641,#370);
#215=LINE('',#1643,#371);
#216=LINE('',#1645,#372);
#217=LINE('',#1647,#373);
#218=LINE('',#1649,#374);
#219=LINE('',#1651,#375);
#220=LINE('',#1653,#376);
#221=LINE('',#1655,#377);
#222=LINE('',#1657,#378);
#223=LINE('',#1659,#379);
#224=LINE('',#1661,#380);
#225=LINE('',#1663,#381);
#226=LINE('',#1665,#382);
#227=LINE('',#1666,#383);
#228=LINE('',#1669,#384);
#229=LINE('',#1671,#385);
#230=LINE('',#1672,#386);
#231=LINE('',#1675,#387);
#232=LINE('',#1677,#388);
#233=LINE('',#1679,#389);
#234=LINE('',#1680,#390);
#235=LINE('',#1681,#391);
#236=LINE('',#1683,#392);
#237=LINE('',#1685,#393);
#238=LINE('',#1687,#394);
#239=LINE('',#1688,#395);
#240=LINE('',#1689,#396);
#241=LINE('',#1690,#397);
#242=LINE('',#1693,#398);
#243=LINE('',#1695,#399);
#244=LINE('',#1696,#400);
#245=LINE('',#1698,#401);
#246=LINE('',#1700,#402);
#247=LINE('',#1701,#403);
#248=LINE('',#1704,#404);
#249=LINE('',#1706,#405);
#250=LINE('',#1707,#406);
#251=LINE('',#1709,#407);
#252=LINE('',#1710,#408);
#253=LINE('',#1713,#409);
#254=LINE('',#1714,#410);
#255=LINE('',#1717,#411);
#256=LINE('',#1718,#412);
#257=LINE('',#1721,#413);
#258=LINE('',#1722,#414);
#259=LINE('',#1724,#415);
#260=LINE('',#1727,#416);
#261=LINE('',#1729,#417);
#262=LINE('',#1730,#418);
#263=LINE('',#1733,#419);
#264=LINE('',#1734,#420);
#265=LINE('',#1736,#421);
#266=LINE('',#1740,#422);
#267=LINE('',#1741,#423);
#268=LINE('',#1744,#424);
#269=LINE('',#1745,#425);
#270=LINE('',#1747,#426);
#271=LINE('',#1751,#427);
#272=LINE('',#1753,#428);
#273=LINE('',#1754,#429);
#274=LINE('',#1757,#430);
#275=LINE('',#1758,#431);
#276=LINE('',#1761,#432);
#277=LINE('',#1762,#433);
#278=LINE('',#1764,#434);
#279=LINE('',#1768,#435);
#280=LINE('',#1770,#436);
#281=LINE('',#1771,#437);
#282=LINE('',#1774,#438);
#283=LINE('',#1775,#439);
#284=LINE('',#1778,#440);
#285=LINE('',#1779,#441);
#286=LINE('',#1781,#442);
#287=VECTOR('',#1201,10.);
#288=VECTOR('',#1202,10.);
#289=VECTOR('',#1203,10.);
#290=VECTOR('',#1204,10.);
#291=VECTOR('',#1207,10.);
#292=VECTOR('',#1208,10.);
#293=VECTOR('',#1209,10.);
#294=VECTOR('',#1210,10.);
#295=VECTOR('',#1213,10.);
#296=VECTOR('',#1214,10.);
#297=VECTOR('',#1215,10.);
#298=VECTOR('',#1218,10.);
#299=VECTOR('',#1219,10.);
#300=VECTOR('',#1220,10.);
#301=VECTOR('',#1223,10.);
#302=VECTOR('',#1224,10.);
#303=VECTOR('',#1227,10.);
#304=VECTOR('',#1228,10.);
#305=VECTOR('',#1229,10.);
#306=VECTOR('',#1230,10.);
#307=VECTOR('',#1233,10.);
#308=VECTOR('',#1234,10.);
#309=VECTOR('',#1235,10.);
#310=VECTOR('',#1236,10.);
#311=VECTOR('',#1239,10.);
#312=VECTOR('',#1240,10.);
#313=VECTOR('',#1243,10.);
#314=VECTOR('',#1244,10.);
#315=VECTOR('',#1245,10.);
#316=VECTOR('',#1248,10.);
#317=VECTOR('',#1249,10.);
#318=VECTOR('',#1250,10.);
#319=VECTOR('',#1251,10.);
#320=VECTOR('',#1252,10.);
#321=VECTOR('',#1255,10.);
#322=VECTOR('',#1256,10.);
#323=VECTOR('',#1257,10.);
#324=VECTOR('',#1260,10.);
#325=VECTOR('',#1261,10.);
#326=VECTOR('',#1264,10.);
#327=VECTOR('',#1265,10.);
#328=VECTOR('',#1268,10.);
#329=VECTOR('',#1269,10.);
#330=VECTOR('',#1270,10.);
#331=VECTOR('',#1271,10.);
#332=VECTOR('',#1274,10.);
#333=VECTOR('',#1275,10.);
#334=VECTOR('',#1276,10.);
#335=VECTOR('',#1279,10.);
#336=VECTOR('',#1282,10.);
#337=VECTOR('',#1283,10.);
#338=VECTOR('',#1286,10.);
#339=VECTOR('',#1289,10.);
#340=VECTOR('',#1290,10.);
#341=VECTOR('',#1291,10.);
#342=VECTOR('',#1292,10.);
#343=VECTOR('',#1295,10.);
#344=VECTOR('',#1296,10.);
#345=VECTOR('',#1297,10.);
#346=VECTOR('',#1300,10.);
#347=VECTOR('',#1301,10.);
#348=VECTOR('',#1302,10.);
#349=VECTOR('',#1305,10.);
#350=VECTOR('',#1306,10.);
#351=VECTOR('',#1307,10.);
#352=VECTOR('',#1310,10.);
#353=VECTOR('',#1311,10.);
#354=VECTOR('',#1312,10.);
#355=VECTOR('',#1313,10.);
#356=VECTOR('',#1316,10.);
#357=VECTOR('',#1317,10.);
#358=VECTOR('',#1318,10.);
#359=VECTOR('',#1319,10.);
#360=VECTOR('',#1320,10.);
#361=VECTOR('',#1321,10.);
#362=VECTOR('',#1324,10.);
#363=VECTOR('',#1325,10.);
#364=VECTOR('',#1326,10.);
#365=VECTOR('',#1327,10.);
#366=VECTOR('',#1328,10.);
#367=VECTOR('',#1329,10.);
#368=VECTOR('',#1330,10.);
#369=VECTOR('',#1331,10.);
#370=VECTOR('',#1332,10.);
#371=VECTOR('',#1333,10.);
#372=VECTOR('',#1334,10.);
#373=VECTOR('',#1335,10.);
#374=VECTOR('',#1336,10.);
#375=VECTOR('',#1337,10.);
#376=VECTOR('',#1338,10.);
#377=VECTOR('',#1339,10.);
#378=VECTOR('',#1340,10.);
#379=VECTOR('',#1341,10.);
#380=VECTOR('',#1342,10.);
#381=VECTOR('',#1343,10.);
#382=VECTOR('',#1344,10.);
#383=VECTOR('',#1345,10.);
#384=VECTOR('',#1348,10.);
#385=VECTOR('',#1349,10.);
#386=VECTOR('',#1350,10.);
#387=VECTOR('',#1353,10.);
#388=VECTOR('',#1354,10.);
#389=VECTOR('',#1355,10.);
#390=VECTOR('',#1356,10.);
#391=VECTOR('',#1357,10.);
#392=VECTOR('',#1358,10.);
#393=VECTOR('',#1359,10.);
#394=VECTOR('',#1360,10.);
#395=VECTOR('',#1361,10.);
#396=VECTOR('',#1362,10.);
#397=VECTOR('',#1363,10.);
#398=VECTOR('',#1366,10.);
#399=VECTOR('',#1367,10.);
#400=VECTOR('',#1368,10.);
#401=VECTOR('',#1371,10.);
#402=VECTOR('',#1374,10.);
#403=VECTOR('',#1375,10.);
#404=VECTOR('',#1378,10.);
#405=VECTOR('',#1379,10.);
#406=VECTOR('',#1380,10.);
#407=VECTOR('',#1383,10.);
#408=VECTOR('',#1384,10.);
#409=VECTOR('',#1387,10.);
#410=VECTOR('',#1388,10.);
#411=VECTOR('',#1391,10.);
#412=VECTOR('',#1392,10.);
#413=VECTOR('',#1395,10.);
#414=VECTOR('',#1396,10.);
#415=VECTOR('',#1399,10.);
#416=VECTOR('',#1404,10.);
#417=VECTOR('',#1405,10.);
#418=VECTOR('',#1406,10.);
#419=VECTOR('',#1409,10.);
#420=VECTOR('',#1410,10.);
#421=VECTOR('',#1413,10.);
#422=VECTOR('',#1418,10.);
#423=VECTOR('',#1419,10.);
#424=VECTOR('',#1422,10.);
#425=VECTOR('',#1423,10.);
#426=VECTOR('',#1426,10.);
#427=VECTOR('',#1431,10.);
#428=VECTOR('',#1432,10.);
#429=VECTOR('',#1433,10.);
#430=VECTOR('',#1436,10.);
#431=VECTOR('',#1437,10.);
#432=VECTOR('',#1440,10.);
#433=VECTOR('',#1441,10.);
#434=VECTOR('',#1444,10.);
#435=VECTOR('',#1449,10.);
#436=VECTOR('',#1450,10.);
#437=VECTOR('',#1451,10.);
#438=VECTOR('',#1454,10.);
#439=VECTOR('',#1455,10.);
#440=VECTOR('',#1458,10.);
#441=VECTOR('',#1459,10.);
#442=VECTOR('',#1462,10.);
#443=VERTEX_POINT('',#1469);
#444=VERTEX_POINT('',#1470);
#445=VERTEX_POINT('',#1472);
#446=VERTEX_POINT('',#1474);
#447=VERTEX_POINT('',#1478);
#448=VERTEX_POINT('',#1479);
#449=VERTEX_POINT('',#1481);
#450=VERTEX_POINT('',#1483);
#451=VERTEX_POINT('',#1487);
#452=VERTEX_POINT('',#1489);
#453=VERTEX_POINT('',#1493);
#454=VERTEX_POINT('',#1495);
#455=VERTEX_POINT('',#1499);
#456=VERTEX_POINT('',#1503);
#457=VERTEX_POINT('',#1504);
#458=VERTEX_POINT('',#1506);
#459=VERTEX_POINT('',#1508);
#460=VERTEX_POINT('',#1512);
#461=VERTEX_POINT('',#1513);
#462=VERTEX_POINT('',#1515);
#463=VERTEX_POINT('',#1517);
#464=VERTEX_POINT('',#1524);
#465=VERTEX_POINT('',#1526);
#466=VERTEX_POINT('',#1530);
#467=VERTEX_POINT('',#1532);
#468=VERTEX_POINT('',#1534);
#469=VERTEX_POINT('',#1536);
#470=VERTEX_POINT('',#1540);
#471=VERTEX_POINT('',#1542);
#472=VERTEX_POINT('',#1546);
#473=VERTEX_POINT('',#1550);
#474=VERTEX_POINT('',#1554);
#475=VERTEX_POINT('',#1555);
#476=VERTEX_POINT('',#1557);
#477=VERTEX_POINT('',#1559);
#478=VERTEX_POINT('',#1563);
#479=VERTEX_POINT('',#1565);
#480=VERTEX_POINT('',#1571);
#481=VERTEX_POINT('',#1577);
#482=VERTEX_POINT('',#1578);
#483=VERTEX_POINT('',#1580);
#484=VERTEX_POINT('',#1582);
#485=VERTEX_POINT('',#1586);
#486=VERTEX_POINT('',#1588);
#487=VERTEX_POINT('',#1592);
#488=VERTEX_POINT('',#1594);
#489=VERTEX_POINT('',#1598);
#490=VERTEX_POINT('',#1600);
#491=VERTEX_POINT('',#1604);
#492=VERTEX_POINT('',#1605);
#493=VERTEX_POINT('',#1607);
#494=VERTEX_POINT('',#1609);
#495=VERTEX_POINT('',#1614);
#496=VERTEX_POINT('',#1616);
#497=VERTEX_POINT('',#1618);
#498=VERTEX_POINT('',#1620);
#499=VERTEX_POINT('',#1624);
#500=VERTEX_POINT('',#1625);
#501=VERTEX_POINT('',#1627);
#502=VERTEX_POINT('',#1629);
#503=VERTEX_POINT('',#1632);
#504=VERTEX_POINT('',#1634);
#505=VERTEX_POINT('',#1636);
#506=VERTEX_POINT('',#1638);
#507=VERTEX_POINT('',#1640);
#508=VERTEX_POINT('',#1642);
#509=VERTEX_POINT('',#1644);
#510=VERTEX_POINT('',#1646);
#511=VERTEX_POINT('',#1648);
#512=VERTEX_POINT('',#1650);
#513=VERTEX_POINT('',#1652);
#514=VERTEX_POINT('',#1654);
#515=VERTEX_POINT('',#1656);
#516=VERTEX_POINT('',#1658);
#517=VERTEX_POINT('',#1660);
#518=VERTEX_POINT('',#1662);
#519=VERTEX_POINT('',#1664);
#520=VERTEX_POINT('',#1668);
#521=VERTEX_POINT('',#1670);
#522=VERTEX_POINT('',#1674);
#523=VERTEX_POINT('',#1676);
#524=VERTEX_POINT('',#1678);
#525=VERTEX_POINT('',#1682);
#526=VERTEX_POINT('',#1684);
#527=VERTEX_POINT('',#1686);
#528=VERTEX_POINT('',#1692);
#529=VERTEX_POINT('',#1694);
#530=VERTEX_POINT('',#1703);
#531=VERTEX_POINT('',#1705);
#532=VERTEX_POINT('',#1712);
#533=VERTEX_POINT('',#1716);
#534=VERTEX_POINT('',#1720);
#535=VERTEX_POINT('',#1728);
#536=VERTEX_POINT('',#1732);
#537=VERTEX_POINT('',#1739);
#538=VERTEX_POINT('',#1743);
#539=VERTEX_POINT('',#1750);
#540=VERTEX_POINT('',#1752);
#541=VERTEX_POINT('',#1756);
#542=VERTEX_POINT('',#1760);
#543=VERTEX_POINT('',#1767);
#544=VERTEX_POINT('',#1769);
#545=VERTEX_POINT('',#1773);
#546=VERTEX_POINT('',#1777);
#547=EDGE_CURVE('',#443,#444,#131,.T.);
#548=EDGE_CURVE('',#445,#443,#132,.T.);
#549=EDGE_CURVE('',#446,#445,#133,.T.);
#550=EDGE_CURVE('',#444,#446,#134,.T.);
#551=EDGE_CURVE('',#447,#448,#135,.T.);
#552=EDGE_CURVE('',#449,#447,#136,.T.);
#553=EDGE_CURVE('',#450,#449,#137,.T.);
#554=EDGE_CURVE('',#448,#450,#138,.T.);
#555=EDGE_CURVE('',#451,#443,#139,.T.);
#556=EDGE_CURVE('',#452,#451,#140,.T.);
#557=EDGE_CURVE('',#445,#452,#141,.T.);
#558=EDGE_CURVE('',#444,#453,#142,.T.);
#559=EDGE_CURVE('',#453,#454,#143,.T.);
#560=EDGE_CURVE('',#454,#451,#144,.T.);
#561=EDGE_CURVE('',#455,#446,#145,.T.);
#562=EDGE_CURVE('',#453,#455,#146,.T.);
#563=EDGE_CURVE('',#456,#457,#147,.T.);
#564=EDGE_CURVE('',#458,#456,#148,.T.);
#565=EDGE_CURVE('',#459,#458,#149,.T.);
#566=EDGE_CURVE('',#457,#459,#150,.T.);
#567=EDGE_CURVE('',#460,#461,#151,.T.);
#568=EDGE_CURVE('',#462,#460,#152,.T.);
#569=EDGE_CURVE('',#463,#462,#153,.T.);
#570=EDGE_CURVE('',#461,#463,#154,.T.);
#571=EDGE_CURVE('',#457,#447,#155,.T.);
#572=EDGE_CURVE('',#449,#459,#156,.T.);
#573=EDGE_CURVE('',#464,#460,#157,.T.);
#574=EDGE_CURVE('',#465,#464,#158,.T.);
#575=EDGE_CURVE('',#462,#465,#159,.T.);
#576=EDGE_CURVE('',#448,#466,#160,.T.);
#577=EDGE_CURVE('',#466,#467,#161,.T.);
#578=EDGE_CURVE('',#467,#468,#162,.T.);
#579=EDGE_CURVE('',#468,#469,#163,.T.);
#580=EDGE_CURVE('',#469,#456,#164,.T.);
#581=EDGE_CURVE('',#461,#470,#165,.T.);
#582=EDGE_CURVE('',#470,#471,#166,.T.);
#583=EDGE_CURVE('',#471,#464,#167,.T.);
#584=EDGE_CURVE('',#469,#472,#168,.T.);
#585=EDGE_CURVE('',#458,#472,#169,.T.);
#586=EDGE_CURVE('',#473,#463,#170,.T.);
#587=EDGE_CURVE('',#470,#473,#171,.T.);
#588=EDGE_CURVE('',#474,#475,#172,.T.);
#589=EDGE_CURVE('',#476,#474,#173,.T.);
#590=EDGE_CURVE('',#477,#476,#174,.T.);
#591=EDGE_CURVE('',#475,#477,#175,.T.);
#592=EDGE_CURVE('',#478,#466,#176,.T.);
#593=EDGE_CURVE('',#479,#478,#177,.T.);
#594=EDGE_CURVE('',#467,#479,#178,.T.);
#595=EDGE_CURVE('',#478,#450,#179,.T.);
#596=EDGE_CURVE('',#480,#479,#180,.T.);
#597=EDGE_CURVE('',#480,#468,#181,.T.);
#598=EDGE_CURVE('',#472,#480,#182,.T.);
#599=EDGE_CURVE('',#481,#482,#183,.T.);
#600=EDGE_CURVE('',#483,#481,#184,.T.);
#601=EDGE_CURVE('',#484,#483,#185,.T.);
#602=EDGE_CURVE('',#482,#484,#186,.T.);
#603=EDGE_CURVE('',#485,#474,#187,.T.);
#604=EDGE_CURVE('',#486,#485,#188,.T.);
#605=EDGE_CURVE('',#476,#486,#189,.T.);
#606=EDGE_CURVE('',#475,#487,#190,.T.);
#607=EDGE_CURVE('',#487,#488,#191,.T.);
#608=EDGE_CURVE('',#488,#485,#192,.T.);
#609=EDGE_CURVE('',#489,#484,#193,.T.);
#610=EDGE_CURVE('',#490,#489,#194,.T.);
#611=EDGE_CURVE('',#482,#490,#195,.T.);
#612=EDGE_CURVE('',#491,#492,#196,.T.);
#613=EDGE_CURVE('',#493,#491,#197,.T.);
#614=EDGE_CURVE('',#494,#493,#198,.T.);
#615=EDGE_CURVE('',#492,#494,#199,.T.);
#616=EDGE_CURVE('',#489,#493,#200,.T.);
#617=EDGE_CURVE('',#495,#491,#201,.T.);
#618=EDGE_CURVE('',#495,#496,#202,.T.);
#619=EDGE_CURVE('',#497,#496,#203,.T.);
#620=EDGE_CURVE('',#498,#497,#204,.T.);
#621=EDGE_CURVE('',#490,#498,#205,.T.);
#622=EDGE_CURVE('',#499,#500,#206,.T.);
#623=EDGE_CURVE('',#500,#501,#207,.T.);
#624=EDGE_CURVE('',#501,#502,#208,.T.);
#625=EDGE_CURVE('',#502,#499,#209,.T.);
#626=EDGE_CURVE('',#492,#503,#210,.T.);
#627=EDGE_CURVE('',#503,#504,#211,.T.);
#628=EDGE_CURVE('',#504,#505,#212,.T.);
#629=EDGE_CURVE('',#505,#506,#213,.T.);
#630=EDGE_CURVE('',#506,#507,#214,.T.);
#631=EDGE_CURVE('',#507,#508,#215,.T.);
#632=EDGE_CURVE('',#508,#509,#216,.T.);
#633=EDGE_CURVE('',#509,#510,#217,.T.);
#634=EDGE_CURVE('',#510,#511,#218,.T.);
#635=EDGE_CURVE('',#511,#512,#219,.T.);
#636=EDGE_CURVE('',#512,#513,#220,.T.);
#637=EDGE_CURVE('',#513,#514,#221,.T.);
#638=EDGE_CURVE('',#514,#515,#222,.T.);
#639=EDGE_CURVE('',#515,#516,#223,.T.);
#640=EDGE_CURVE('',#516,#517,#224,.T.);
#641=EDGE_CURVE('',#517,#518,#225,.T.);
#642=EDGE_CURVE('',#518,#519,#226,.T.);
#643=EDGE_CURVE('',#519,#495,#227,.T.);
#644=EDGE_CURVE('',#520,#511,#228,.T.);
#645=EDGE_CURVE('',#521,#520,#229,.T.);
#646=EDGE_CURVE('',#512,#521,#230,.T.);
#647=EDGE_CURVE('',#522,#452,#231,.T.);
#648=EDGE_CURVE('',#522,#523,#232,.T.);
#649=EDGE_CURVE('',#524,#523,#233,.T.);
#650=EDGE_CURVE('',#524,#477,#234,.T.);
#651=EDGE_CURVE('',#494,#486,#235,.T.);
#652=EDGE_CURVE('',#483,#525,#236,.T.);
#653=EDGE_CURVE('',#526,#525,#237,.T.);
#654=EDGE_CURVE('',#526,#527,#238,.T.);
#655=EDGE_CURVE('',#473,#527,#239,.T.);
#656=EDGE_CURVE('',#521,#465,#240,.T.);
#657=EDGE_CURVE('',#455,#520,#241,.T.);
#658=EDGE_CURVE('',#471,#528,#242,.T.);
#659=EDGE_CURVE('',#529,#528,#243,.T.);
#660=EDGE_CURVE('',#513,#529,#244,.T.);
#661=EDGE_CURVE('',#487,#524,#245,.T.);
#662=EDGE_CURVE('',#523,#506,#246,.T.);
#663=EDGE_CURVE('',#507,#522,#247,.T.);
#664=EDGE_CURVE('',#454,#530,#248,.T.);
#665=EDGE_CURVE('',#531,#530,#249,.T.);
#666=EDGE_CURVE('',#508,#531,#250,.T.);
#667=EDGE_CURVE('',#527,#516,#251,.T.);
#668=EDGE_CURVE('',#517,#526,#252,.T.);
#669=EDGE_CURVE('',#532,#481,#253,.T.);
#670=EDGE_CURVE('',#525,#532,#254,.T.);
#671=EDGE_CURVE('',#515,#533,#255,.T.);
#672=EDGE_CURVE('',#528,#533,#256,.T.);
#673=EDGE_CURVE('',#534,#529,#257,.T.);
#674=EDGE_CURVE('',#514,#534,#258,.T.);
#675=EDGE_CURVE('',#533,#534,#259,.T.);
#676=EDGE_CURVE('',#498,#532,#260,.T.);
#677=EDGE_CURVE('',#535,#497,#261,.T.);
#678=EDGE_CURVE('',#518,#535,#262,.T.);
#679=EDGE_CURVE('',#536,#535,#263,.T.);
#680=EDGE_CURVE('',#519,#536,#264,.T.);
#681=EDGE_CURVE('',#496,#536,#265,.T.);
#682=EDGE_CURVE('',#537,#531,#266,.T.);
#683=EDGE_CURVE('',#509,#537,#267,.T.);
#684=EDGE_CURVE('',#538,#537,#268,.T.);
#685=EDGE_CURVE('',#510,#538,#269,.T.);
#686=EDGE_CURVE('',#530,#538,#270,.T.);
#687=EDGE_CURVE('',#504,#539,#271,.T.);
#688=EDGE_CURVE('',#540,#539,#272,.T.);
#689=EDGE_CURVE('',#505,#540,#273,.T.);
#690=EDGE_CURVE('',#541,#540,#274,.T.);
#691=EDGE_CURVE('',#488,#541,#275,.T.);
#692=EDGE_CURVE('',#542,#541,#276,.T.);
#693=EDGE_CURVE('',#503,#542,#277,.T.);
#694=EDGE_CURVE('',#539,#542,#278,.T.);
#695=EDGE_CURVE('',#500,#543,#279,.T.);
#696=EDGE_CURVE('',#544,#543,#280,.T.);
#697=EDGE_CURVE('',#501,#544,#281,.T.);
#698=EDGE_CURVE('',#545,#544,#282,.T.);
#699=EDGE_CURVE('',#502,#545,#283,.T.);
#700=EDGE_CURVE('',#546,#545,#284,.T.);
#701=EDGE_CURVE('',#499,#546,#285,.T.);
#702=EDGE_CURVE('',#543,#546,#286,.T.);
#703=ORIENTED_EDGE('',*,*,#547,.F.);
#704=ORIENTED_EDGE('',*,*,#548,.F.);
#705=ORIENTED_EDGE('',*,*,#549,.F.);
#706=ORIENTED_EDGE('',*,*,#550,.F.);
#707=ORIENTED_EDGE('',*,*,#551,.F.);
#708=ORIENTED_EDGE('',*,*,#552,.F.);
#709=ORIENTED_EDGE('',*,*,#553,.F.);
#710=ORIENTED_EDGE('',*,*,#554,.F.);
#711=ORIENTED_EDGE('',*,*,#548,.T.);
#712=ORIENTED_EDGE('',*,*,#555,.F.);
#713=ORIENTED_EDGE('',*,*,#556,.F.);
#714=ORIENTED_EDGE('',*,*,#557,.F.);
#715=ORIENTED_EDGE('',*,*,#547,.T.);
#716=ORIENTED_EDGE('',*,*,#558,.T.);
#717=ORIENTED_EDGE('',*,*,#559,.T.);
#718=ORIENTED_EDGE('',*,*,#560,.T.);
#719=ORIENTED_EDGE('',*,*,#555,.T.);
#720=ORIENTED_EDGE('',*,*,#550,.T.);
#721=ORIENTED_EDGE('',*,*,#561,.F.);
#722=ORIENTED_EDGE('',*,*,#562,.F.);
#723=ORIENTED_EDGE('',*,*,#558,.F.);
#724=ORIENTED_EDGE('',*,*,#563,.F.);
#725=ORIENTED_EDGE('',*,*,#564,.F.);
#726=ORIENTED_EDGE('',*,*,#565,.F.);
#727=ORIENTED_EDGE('',*,*,#566,.F.);
#728=ORIENTED_EDGE('',*,*,#567,.F.);
#729=ORIENTED_EDGE('',*,*,#568,.F.);
#730=ORIENTED_EDGE('',*,*,#569,.F.);
#731=ORIENTED_EDGE('',*,*,#570,.F.);
#732=ORIENTED_EDGE('',*,*,#552,.T.);
#733=ORIENTED_EDGE('',*,*,#571,.F.);
#734=ORIENTED_EDGE('',*,*,#566,.T.);
#735=ORIENTED_EDGE('',*,*,#572,.F.);
#736=ORIENTED_EDGE('',*,*,#568,.T.);
#737=ORIENTED_EDGE('',*,*,#573,.F.);
#738=ORIENTED_EDGE('',*,*,#574,.F.);
#739=ORIENTED_EDGE('',*,*,#575,.F.);
#740=ORIENTED_EDGE('',*,*,#551,.T.);
#741=ORIENTED_EDGE('',*,*,#576,.T.);
#742=ORIENTED_EDGE('',*,*,#577,.T.);
#743=ORIENTED_EDGE('',*,*,#578,.T.);
#744=ORIENTED_EDGE('',*,*,#579,.T.);
#745=ORIENTED_EDGE('',*,*,#580,.T.);
#746=ORIENTED_EDGE('',*,*,#563,.T.);
#747=ORIENTED_EDGE('',*,*,#571,.T.);
#748=ORIENTED_EDGE('',*,*,#567,.T.);
#749=ORIENTED_EDGE('',*,*,#581,.T.);
#750=ORIENTED_EDGE('',*,*,#582,.T.);
#751=ORIENTED_EDGE('',*,*,#583,.T.);
#752=ORIENTED_EDGE('',*,*,#573,.T.);
#753=ORIENTED_EDGE('',*,*,#564,.T.);
#754=ORIENTED_EDGE('',*,*,#580,.F.);
#755=ORIENTED_EDGE('',*,*,#584,.T.);
#756=ORIENTED_EDGE('',*,*,#585,.F.);
#757=ORIENTED_EDGE('',*,*,#570,.T.);
#758=ORIENTED_EDGE('',*,*,#586,.F.);
#759=ORIENTED_EDGE('',*,*,#587,.F.);
#760=ORIENTED_EDGE('',*,*,#581,.F.);
#761=ORIENTED_EDGE('',*,*,#588,.F.);
#762=ORIENTED_EDGE('',*,*,#589,.F.);
#763=ORIENTED_EDGE('',*,*,#590,.F.);
#764=ORIENTED_EDGE('',*,*,#591,.F.);
#765=ORIENTED_EDGE('',*,*,#577,.F.);
#766=ORIENTED_EDGE('',*,*,#592,.F.);
#767=ORIENTED_EDGE('',*,*,#593,.F.);
#768=ORIENTED_EDGE('',*,*,#594,.F.);
#769=ORIENTED_EDGE('',*,*,#554,.T.);
#770=ORIENTED_EDGE('',*,*,#595,.F.);
#771=ORIENTED_EDGE('',*,*,#592,.T.);
#772=ORIENTED_EDGE('',*,*,#576,.F.);
#773=ORIENTED_EDGE('',*,*,#594,.T.);
#774=ORIENTED_EDGE('',*,*,#596,.F.);
#775=ORIENTED_EDGE('',*,*,#597,.T.);
#776=ORIENTED_EDGE('',*,*,#578,.F.);
#777=ORIENTED_EDGE('',*,*,#579,.F.);
#778=ORIENTED_EDGE('',*,*,#597,.F.);
#779=ORIENTED_EDGE('',*,*,#598,.F.);
#780=ORIENTED_EDGE('',*,*,#584,.F.);
#781=ORIENTED_EDGE('',*,*,#599,.F.);
#782=ORIENTED_EDGE('',*,*,#600,.F.);
#783=ORIENTED_EDGE('',*,*,#601,.F.);
#784=ORIENTED_EDGE('',*,*,#602,.F.);
#785=ORIENTED_EDGE('',*,*,#589,.T.);
#786=ORIENTED_EDGE('',*,*,#603,.F.);
#787=ORIENTED_EDGE('',*,*,#604,.F.);
#788=ORIENTED_EDGE('',*,*,#605,.F.);
#789=ORIENTED_EDGE('',*,*,#588,.T.);
#790=ORIENTED_EDGE('',*,*,#606,.T.);
#791=ORIENTED_EDGE('',*,*,#607,.T.);
#792=ORIENTED_EDGE('',*,*,#608,.T.);
#793=ORIENTED_EDGE('',*,*,#603,.T.);
#794=ORIENTED_EDGE('',*,*,#602,.T.);
#795=ORIENTED_EDGE('',*,*,#609,.F.);
#796=ORIENTED_EDGE('',*,*,#610,.F.);
#797=ORIENTED_EDGE('',*,*,#611,.F.);
#798=ORIENTED_EDGE('',*,*,#612,.F.);
#799=ORIENTED_EDGE('',*,*,#613,.F.);
#800=ORIENTED_EDGE('',*,*,#614,.F.);
#801=ORIENTED_EDGE('',*,*,#615,.F.);
#802=ORIENTED_EDGE('',*,*,#610,.T.);
#803=ORIENTED_EDGE('',*,*,#616,.T.);
#804=ORIENTED_EDGE('',*,*,#613,.T.);
#805=ORIENTED_EDGE('',*,*,#617,.F.);
#806=ORIENTED_EDGE('',*,*,#618,.T.);
#807=ORIENTED_EDGE('',*,*,#619,.F.);
#808=ORIENTED_EDGE('',*,*,#620,.F.);
#809=ORIENTED_EDGE('',*,*,#621,.F.);
#810=ORIENTED_EDGE('',*,*,#622,.T.);
#811=ORIENTED_EDGE('',*,*,#623,.T.);
#812=ORIENTED_EDGE('',*,*,#624,.T.);
#813=ORIENTED_EDGE('',*,*,#625,.T.);
#814=ORIENTED_EDGE('',*,*,#612,.T.);
#815=ORIENTED_EDGE('',*,*,#626,.T.);
#816=ORIENTED_EDGE('',*,*,#627,.T.);
#817=ORIENTED_EDGE('',*,*,#628,.T.);
#818=ORIENTED_EDGE('',*,*,#629,.T.);
#819=ORIENTED_EDGE('',*,*,#630,.T.);
#820=ORIENTED_EDGE('',*,*,#631,.T.);
#821=ORIENTED_EDGE('',*,*,#632,.T.);
#822=ORIENTED_EDGE('',*,*,#633,.T.);
#823=ORIENTED_EDGE('',*,*,#634,.T.);
#824=ORIENTED_EDGE('',*,*,#635,.T.);
#825=ORIENTED_EDGE('',*,*,#636,.T.);
#826=ORIENTED_EDGE('',*,*,#637,.T.);
#827=ORIENTED_EDGE('',*,*,#638,.T.);
#828=ORIENTED_EDGE('',*,*,#639,.T.);
#829=ORIENTED_EDGE('',*,*,#640,.T.);
#830=ORIENTED_EDGE('',*,*,#641,.T.);
#831=ORIENTED_EDGE('',*,*,#642,.T.);
#832=ORIENTED_EDGE('',*,*,#643,.T.);
#833=ORIENTED_EDGE('',*,*,#617,.T.);
#834=ORIENTED_EDGE('',*,*,#635,.F.);
#835=ORIENTED_EDGE('',*,*,#644,.F.);
#836=ORIENTED_EDGE('',*,*,#645,.F.);
#837=ORIENTED_EDGE('',*,*,#646,.F.);
#838=ORIENTED_EDGE('',*,*,#557,.T.);
#839=ORIENTED_EDGE('',*,*,#647,.F.);
#840=ORIENTED_EDGE('',*,*,#648,.T.);
#841=ORIENTED_EDGE('',*,*,#649,.F.);
#842=ORIENTED_EDGE('',*,*,#650,.T.);
#843=ORIENTED_EDGE('',*,*,#590,.T.);
#844=ORIENTED_EDGE('',*,*,#605,.T.);
#845=ORIENTED_EDGE('',*,*,#651,.F.);
#846=ORIENTED_EDGE('',*,*,#614,.T.);
#847=ORIENTED_EDGE('',*,*,#616,.F.);
#848=ORIENTED_EDGE('',*,*,#609,.T.);
#849=ORIENTED_EDGE('',*,*,#601,.T.);
#850=ORIENTED_EDGE('',*,*,#652,.T.);
#851=ORIENTED_EDGE('',*,*,#653,.F.);
#852=ORIENTED_EDGE('',*,*,#654,.T.);
#853=ORIENTED_EDGE('',*,*,#655,.F.);
#854=ORIENTED_EDGE('',*,*,#586,.T.);
#855=ORIENTED_EDGE('',*,*,#569,.T.);
#856=ORIENTED_EDGE('',*,*,#575,.T.);
#857=ORIENTED_EDGE('',*,*,#656,.F.);
#858=ORIENTED_EDGE('',*,*,#645,.T.);
#859=ORIENTED_EDGE('',*,*,#657,.F.);
#860=ORIENTED_EDGE('',*,*,#561,.T.);
#861=ORIENTED_EDGE('',*,*,#549,.T.);
#862=ORIENTED_EDGE('',*,*,#553,.T.);
#863=ORIENTED_EDGE('',*,*,#572,.T.);
#864=ORIENTED_EDGE('',*,*,#565,.T.);
#865=ORIENTED_EDGE('',*,*,#585,.T.);
#866=ORIENTED_EDGE('',*,*,#598,.T.);
#867=ORIENTED_EDGE('',*,*,#596,.T.);
#868=ORIENTED_EDGE('',*,*,#593,.T.);
#869=ORIENTED_EDGE('',*,*,#595,.T.);
#870=ORIENTED_EDGE('',*,*,#646,.T.);
#871=ORIENTED_EDGE('',*,*,#656,.T.);
#872=ORIENTED_EDGE('',*,*,#574,.T.);
#873=ORIENTED_EDGE('',*,*,#583,.F.);
#874=ORIENTED_EDGE('',*,*,#658,.T.);
#875=ORIENTED_EDGE('',*,*,#659,.F.);
#876=ORIENTED_EDGE('',*,*,#660,.F.);
#877=ORIENTED_EDGE('',*,*,#636,.F.);
#878=ORIENTED_EDGE('',*,*,#591,.T.);
#879=ORIENTED_EDGE('',*,*,#650,.F.);
#880=ORIENTED_EDGE('',*,*,#661,.F.);
#881=ORIENTED_EDGE('',*,*,#606,.F.);
#882=ORIENTED_EDGE('',*,*,#630,.F.);
#883=ORIENTED_EDGE('',*,*,#662,.F.);
#884=ORIENTED_EDGE('',*,*,#648,.F.);
#885=ORIENTED_EDGE('',*,*,#663,.F.);
#886=ORIENTED_EDGE('',*,*,#663,.T.);
#887=ORIENTED_EDGE('',*,*,#647,.T.);
#888=ORIENTED_EDGE('',*,*,#556,.T.);
#889=ORIENTED_EDGE('',*,*,#560,.F.);
#890=ORIENTED_EDGE('',*,*,#664,.T.);
#891=ORIENTED_EDGE('',*,*,#665,.F.);
#892=ORIENTED_EDGE('',*,*,#666,.F.);
#893=ORIENTED_EDGE('',*,*,#631,.F.);
#894=ORIENTED_EDGE('',*,*,#640,.F.);
#895=ORIENTED_EDGE('',*,*,#667,.F.);
#896=ORIENTED_EDGE('',*,*,#654,.F.);
#897=ORIENTED_EDGE('',*,*,#668,.F.);
#898=ORIENTED_EDGE('',*,*,#600,.T.);
#899=ORIENTED_EDGE('',*,*,#669,.F.);
#900=ORIENTED_EDGE('',*,*,#670,.F.);
#901=ORIENTED_EDGE('',*,*,#652,.F.);
#902=ORIENTED_EDGE('',*,*,#587,.T.);
#903=ORIENTED_EDGE('',*,*,#655,.T.);
#904=ORIENTED_EDGE('',*,*,#667,.T.);
#905=ORIENTED_EDGE('',*,*,#639,.F.);
#906=ORIENTED_EDGE('',*,*,#671,.T.);
#907=ORIENTED_EDGE('',*,*,#672,.F.);
#908=ORIENTED_EDGE('',*,*,#658,.F.);
#909=ORIENTED_EDGE('',*,*,#582,.F.);
#910=ORIENTED_EDGE('',*,*,#637,.F.);
#911=ORIENTED_EDGE('',*,*,#660,.T.);
#912=ORIENTED_EDGE('',*,*,#673,.F.);
#913=ORIENTED_EDGE('',*,*,#674,.F.);
#914=ORIENTED_EDGE('',*,*,#638,.F.);
#915=ORIENTED_EDGE('',*,*,#674,.T.);
#916=ORIENTED_EDGE('',*,*,#675,.F.);
#917=ORIENTED_EDGE('',*,*,#671,.F.);
#918=ORIENTED_EDGE('',*,*,#672,.T.);
#919=ORIENTED_EDGE('',*,*,#675,.T.);
#920=ORIENTED_EDGE('',*,*,#673,.T.);
#921=ORIENTED_EDGE('',*,*,#659,.T.);
#922=ORIENTED_EDGE('',*,*,#670,.T.);
#923=ORIENTED_EDGE('',*,*,#676,.F.);
#924=ORIENTED_EDGE('',*,*,#620,.T.);
#925=ORIENTED_EDGE('',*,*,#677,.F.);
#926=ORIENTED_EDGE('',*,*,#678,.F.);
#927=ORIENTED_EDGE('',*,*,#641,.F.);
#928=ORIENTED_EDGE('',*,*,#668,.T.);
#929=ORIENTED_EDGE('',*,*,#653,.T.);
#930=ORIENTED_EDGE('',*,*,#642,.F.);
#931=ORIENTED_EDGE('',*,*,#678,.T.);
#932=ORIENTED_EDGE('',*,*,#679,.F.);
#933=ORIENTED_EDGE('',*,*,#680,.F.);
#934=ORIENTED_EDGE('',*,*,#643,.F.);
#935=ORIENTED_EDGE('',*,*,#680,.T.);
#936=ORIENTED_EDGE('',*,*,#681,.F.);
#937=ORIENTED_EDGE('',*,*,#618,.F.);
#938=ORIENTED_EDGE('',*,*,#681,.T.);
#939=ORIENTED_EDGE('',*,*,#679,.T.);
#940=ORIENTED_EDGE('',*,*,#677,.T.);
#941=ORIENTED_EDGE('',*,*,#619,.T.);
#942=ORIENTED_EDGE('',*,*,#632,.F.);
#943=ORIENTED_EDGE('',*,*,#666,.T.);
#944=ORIENTED_EDGE('',*,*,#682,.F.);
#945=ORIENTED_EDGE('',*,*,#683,.F.);
#946=ORIENTED_EDGE('',*,*,#633,.F.);
#947=ORIENTED_EDGE('',*,*,#683,.T.);
#948=ORIENTED_EDGE('',*,*,#684,.F.);
#949=ORIENTED_EDGE('',*,*,#685,.F.);
#950=ORIENTED_EDGE('',*,*,#644,.T.);
#951=ORIENTED_EDGE('',*,*,#634,.F.);
#952=ORIENTED_EDGE('',*,*,#685,.T.);
#953=ORIENTED_EDGE('',*,*,#686,.F.);
#954=ORIENTED_EDGE('',*,*,#664,.F.);
#955=ORIENTED_EDGE('',*,*,#559,.F.);
#956=ORIENTED_EDGE('',*,*,#562,.T.);
#957=ORIENTED_EDGE('',*,*,#657,.T.);
#958=ORIENTED_EDGE('',*,*,#665,.T.);
#959=ORIENTED_EDGE('',*,*,#686,.T.);
#960=ORIENTED_EDGE('',*,*,#684,.T.);
#961=ORIENTED_EDGE('',*,*,#682,.T.);
#962=ORIENTED_EDGE('',*,*,#628,.F.);
#963=ORIENTED_EDGE('',*,*,#687,.T.);
#964=ORIENTED_EDGE('',*,*,#688,.F.);
#965=ORIENTED_EDGE('',*,*,#689,.F.);
#966=ORIENTED_EDGE('',*,*,#662,.T.);
#967=ORIENTED_EDGE('',*,*,#629,.F.);
#968=ORIENTED_EDGE('',*,*,#689,.T.);
#969=ORIENTED_EDGE('',*,*,#690,.F.);
#970=ORIENTED_EDGE('',*,*,#691,.F.);
#971=ORIENTED_EDGE('',*,*,#607,.F.);
#972=ORIENTED_EDGE('',*,*,#661,.T.);
#973=ORIENTED_EDGE('',*,*,#649,.T.);
#974=ORIENTED_EDGE('',*,*,#604,.T.);
#975=ORIENTED_EDGE('',*,*,#608,.F.);
#976=ORIENTED_EDGE('',*,*,#691,.T.);
#977=ORIENTED_EDGE('',*,*,#692,.F.);
#978=ORIENTED_EDGE('',*,*,#693,.F.);
#979=ORIENTED_EDGE('',*,*,#626,.F.);
#980=ORIENTED_EDGE('',*,*,#615,.T.);
#981=ORIENTED_EDGE('',*,*,#651,.T.);
#982=ORIENTED_EDGE('',*,*,#627,.F.);
#983=ORIENTED_EDGE('',*,*,#693,.T.);
#984=ORIENTED_EDGE('',*,*,#694,.F.);
#985=ORIENTED_EDGE('',*,*,#687,.F.);
#986=ORIENTED_EDGE('',*,*,#694,.T.);
#987=ORIENTED_EDGE('',*,*,#692,.T.);
#988=ORIENTED_EDGE('',*,*,#690,.T.);
#989=ORIENTED_EDGE('',*,*,#688,.T.);
#990=ORIENTED_EDGE('',*,*,#623,.F.);
#991=ORIENTED_EDGE('',*,*,#695,.T.);
#992=ORIENTED_EDGE('',*,*,#696,.F.);
#993=ORIENTED_EDGE('',*,*,#697,.F.);
#994=ORIENTED_EDGE('',*,*,#624,.F.);
#995=ORIENTED_EDGE('',*,*,#697,.T.);
#996=ORIENTED_EDGE('',*,*,#698,.F.);
#997=ORIENTED_EDGE('',*,*,#699,.F.);
#998=ORIENTED_EDGE('',*,*,#625,.F.);
#999=ORIENTED_EDGE('',*,*,#699,.T.);
#1000=ORIENTED_EDGE('',*,*,#700,.F.);
#1001=ORIENTED_EDGE('',*,*,#701,.F.);
#1002=ORIENTED_EDGE('',*,*,#622,.F.);
#1003=ORIENTED_EDGE('',*,*,#701,.T.);
#1004=ORIENTED_EDGE('',*,*,#702,.F.);
#1005=ORIENTED_EDGE('',*,*,#695,.F.);
#1006=ORIENTED_EDGE('',*,*,#702,.T.);
#1007=ORIENTED_EDGE('',*,*,#700,.T.);
#1008=ORIENTED_EDGE('',*,*,#698,.T.);
#1009=ORIENTED_EDGE('',*,*,#696,.T.);
#1010=ORIENTED_EDGE('',*,*,#599,.T.);
#1011=ORIENTED_EDGE('',*,*,#611,.T.);
#1012=ORIENTED_EDGE('',*,*,#621,.T.);
#1013=ORIENTED_EDGE('',*,*,#676,.T.);
#1014=ORIENTED_EDGE('',*,*,#669,.T.);
#1015=PLANE('',#1141);
#1016=PLANE('',#1142);
#1017=PLANE('',#1143);
#1018=PLANE('',#1144);
#1019=PLANE('',#1145);
#1020=PLANE('',#1146);
#1021=PLANE('',#1147);
#1022=PLANE('',#1148);
#1023=PLANE('',#1149);
#1024=PLANE('',#1150);
#1025=PLANE('',#1151);
#1026=PLANE('',#1152);
#1027=PLANE('',#1153);
#1028=PLANE('',#1154);
#1029=PLANE('',#1155);
#1030=PLANE('',#1156);
#1031=PLANE('',#1157);
#1032=PLANE('',#1158);
#1033=PLANE('',#1159);
#1034=PLANE('',#1160);
#1035=PLANE('',#1161);
#1036=PLANE('',#1162);
#1037=PLANE('',#1163);
#1038=PLANE('',#1164);
#1039=PLANE('',#1165);
#1040=PLANE('',#1166);
#1041=PLANE('',#1167);
#1042=PLANE('',#1168);
#1043=PLANE('',#1169);
#1044=PLANE('',#1170);
#1045=PLANE('',#1171);
#1046=PLANE('',#1172);
#1047=PLANE('',#1173);
#1048=PLANE('',#1174);
#1049=PLANE('',#1175);
#1050=PLANE('',#1176);
#1051=PLANE('',#1177);
#1052=PLANE('',#1178);
#1053=PLANE('',#1179);
#1054=PLANE('',#1180);
#1055=PLANE('',#1181);
#1056=PLANE('',#1182);
#1057=PLANE('',#1183);
#1058=PLANE('',#1184);
#1059=PLANE('',#1185);
#1060=PLANE('',#1186);
#1061=PLANE('',#1187);
#1062=PLANE('',#1188);
#1063=PLANE('',#1189);
#1064=PLANE('',#1190);
#1065=PLANE('',#1191);
#1066=PLANE('',#1192);
#1067=PLANE('',#1193);
#1068=PLANE('',#1194);
#1069=PLANE('',#1195);
#1070=PLANE('',#1196);
#1071=ADVANCED_FACE('',(#17),#1015,.T.);
#1072=ADVANCED_FACE('',(#18),#1016,.T.);
#1073=ADVANCED_FACE('',(#19),#1017,.T.);
#1074=ADVANCED_FACE('',(#20),#1018,.F.);
#1075=ADVANCED_FACE('',(#21),#1019,.T.);
#1076=ADVANCED_FACE('',(#22),#1020,.T.);
#1077=ADVANCED_FACE('',(#23),#1021,.T.);
#1078=ADVANCED_FACE('',(#24),#1022,.T.);
#1079=ADVANCED_FACE('',(#25),#1023,.T.);
#1080=ADVANCED_FACE('',(#26),#1024,.F.);
#1081=ADVANCED_FACE('',(#27),#1025,.F.);
#1082=ADVANCED_FACE('',(#28),#1026,.T.);
#1083=ADVANCED_FACE('',(#29),#1027,.T.);
#1084=ADVANCED_FACE('',(#30),#1028,.T.);
#1085=ADVANCED_FACE('',(#31),#1029,.T.);
#1086=ADVANCED_FACE('',(#32),#1030,.T.);
#1087=ADVANCED_FACE('',(#33),#1031,.T.);
#1088=ADVANCED_FACE('',(#34),#1032,.T.);
#1089=ADVANCED_FACE('',(#35),#1033,.T.);
#1090=ADVANCED_FACE('',(#36),#1034,.T.);
#1091=ADVANCED_FACE('',(#37),#1035,.F.);
#1092=ADVANCED_FACE('',(#38),#1036,.T.);
#1093=ADVANCED_FACE('',(#39),#1037,.T.);
#1094=ADVANCED_FACE('',(#40),#1038,.T.);
#1095=ADVANCED_FACE('',(#41,#15),#1039,.F.);
#1096=ADVANCED_FACE('',(#42),#1040,.T.);
#1097=ADVANCED_FACE('',(#43,#16),#1041,.T.);
#1098=ADVANCED_FACE('',(#44),#1042,.T.);
#1099=ADVANCED_FACE('',(#45),#1043,.T.);
#1100=ADVANCED_FACE('',(#46),#1044,.T.);
#1101=ADVANCED_FACE('',(#47),#1045,.T.);
#1102=ADVANCED_FACE('',(#48),#1046,.T.);
#1103=ADVANCED_FACE('',(#49),#1047,.T.);
#1104=ADVANCED_FACE('',(#50),#1048,.T.);
#1105=ADVANCED_FACE('',(#51),#1049,.T.);
#1106=ADVANCED_FACE('',(#52),#1050,.T.);
#1107=ADVANCED_FACE('',(#53),#1051,.T.);
#1108=ADVANCED_FACE('',(#54),#1052,.T.);
#1109=ADVANCED_FACE('',(#55),#1053,.T.);
#1110=ADVANCED_FACE('',(#56),#1054,.T.);
#1111=ADVANCED_FACE('',(#57),#1055,.T.);
#1112=ADVANCED_FACE('',(#58),#1056,.T.);
#1113=ADVANCED_FACE('',(#59),#1057,.T.);
#1114=ADVANCED_FACE('',(#60),#1058,.T.);
#1115=ADVANCED_FACE('',(#61),#1059,.T.);
#1116=ADVANCED_FACE('',(#62),#1060,.T.);
#1117=ADVANCED_FACE('',(#63),#1061,.T.);
#1118=ADVANCED_FACE('',(#64),#1062,.T.);
#1119=ADVANCED_FACE('',(#65),#1063,.T.);
#1120=ADVANCED_FACE('',(#66),#1064,.T.);
#1121=ADVANCED_FACE('',(#67),#1065,.T.);
#1122=ADVANCED_FACE('',(#68),#1066,.T.);
#1123=ADVANCED_FACE('',(#69),#1067,.T.);
#1124=ADVANCED_FACE('',(#70),#1068,.T.);
#1125=ADVANCED_FACE('',(#71),#1069,.T.);
#1126=ADVANCED_FACE('',(#72),#1070,.F.);
#1127=CLOSED_SHELL('',(#1071,#1072,#1073,#1074,#1075,#1076,#1077,#1078,
#1079,#1080,#1081,#1082,#1083,#1084,#1085,#1086,#1087,#1088,#1089,#1090,
#1091,#1092,#1093,#1094,#1095,#1096,#1097,#1098,#1099,#1100,#1101,#1102,
#1103,#1104,#1105,#1106,#1107,#1108,#1109,#1110,#1111,#1112,#1113,#1114,
#1115,#1116,#1117,#1118,#1119,#1120,#1121,#1122,#1123,#1124,#1125,#1126));
#1128=DERIVED_UNIT_ELEMENT(#1130,1.);
#1129=DERIVED_UNIT_ELEMENT(#1789,-3.);
#1130=(
MASS_UNIT()
NAMED_UNIT(*)
SI_UNIT(.KILO.,.GRAM.)
);
#1131=DERIVED_UNIT((#1128,#1129));
#1132=MEASURE_REPRESENTATION_ITEM('density measure',
POSITIVE_RATIO_MEASURE(7850.),#1131);
#1133=PROPERTY_DEFINITION_REPRESENTATION(#1138,#1135);
#1134=PROPERTY_DEFINITION_REPRESENTATION(#1139,#1136);
#1135=REPRESENTATION('material name',(#1137),#1786);
#1136=REPRESENTATION('density',(#1132),#1786);
#1137=DESCRIPTIVE_REPRESENTATION_ITEM('Steel','Steel');
#1138=PROPERTY_DEFINITION('material property','material name',#1796);
#1139=PROPERTY_DEFINITION('material property','density of part',#1796);
#1140=AXIS2_PLACEMENT_3D('',#1467,#1197,#1198);
#1141=AXIS2_PLACEMENT_3D('',#1468,#1199,#1200);
#1142=AXIS2_PLACEMENT_3D('',#1477,#1205,#1206);
#1143=AXIS2_PLACEMENT_3D('',#1486,#1211,#1212);
#1144=AXIS2_PLACEMENT_3D('',#1492,#1216,#1217);
#1145=AXIS2_PLACEMENT_3D('',#1498,#1221,#1222);
#1146=AXIS2_PLACEMENT_3D('',#1502,#1225,#1226);
#1147=AXIS2_PLACEMENT_3D('',#1511,#1231,#1232);
#1148=AXIS2_PLACEMENT_3D('',#1520,#1237,#1238);
#1149=AXIS2_PLACEMENT_3D('',#1523,#1241,#1242);
#1150=AXIS2_PLACEMENT_3D('',#1529,#1246,#1247);
#1151=AXIS2_PLACEMENT_3D('',#1539,#1253,#1254);
#1152=AXIS2_PLACEMENT_3D('',#1545,#1258,#1259);
#1153=AXIS2_PLACEMENT_3D('',#1549,#1262,#1263);
#1154=AXIS2_PLACEMENT_3D('',#1553,#1266,#1267);
#1155=AXIS2_PLACEMENT_3D('',#1562,#1272,#1273);
#1156=AXIS2_PLACEMENT_3D('',#1568,#1277,#1278);
#1157=AXIS2_PLACEMENT_3D('',#1570,#1280,#1281);
#1158=AXIS2_PLACEMENT_3D('',#1574,#1284,#1285);
#1159=AXIS2_PLACEMENT_3D('',#1576,#1287,#1288);
#1160=AXIS2_PLACEMENT_3D('',#1585,#1293,#1294);
#1161=AXIS2_PLACEMENT_3D('',#1591,#1298,#1299);
#1162=AXIS2_PLACEMENT_3D('',#1597,#1303,#1304);
#1163=AXIS2_PLACEMENT_3D('',#1603,#1308,#1309);
#1164=AXIS2_PLACEMENT_3D('',#1612,#1314,#1315);
#1165=AXIS2_PLACEMENT_3D('',#1623,#1322,#1323);
#1166=AXIS2_PLACEMENT_3D('',#1667,#1346,#1347);
#1167=AXIS2_PLACEMENT_3D('',#1673,#1351,#1352);
#1168=AXIS2_PLACEMENT_3D('',#1691,#1364,#1365);
#1169=AXIS2_PLACEMENT_3D('',#1697,#1369,#1370);
#1170=AXIS2_PLACEMENT_3D('',#1699,#1372,#1373);
#1171=AXIS2_PLACEMENT_3D('',#1702,#1376,#1377);
#1172=AXIS2_PLACEMENT_3D('',#1708,#1381,#1382);
#1173=AXIS2_PLACEMENT_3D('',#1711,#1385,#1386);
#1174=AXIS2_PLACEMENT_3D('',#1715,#1389,#1390);
#1175=AXIS2_PLACEMENT_3D('',#1719,#1393,#1394);
#1176=AXIS2_PLACEMENT_3D('',#1723,#1397,#1398);
#1177=AXIS2_PLACEMENT_3D('',#1725,#1400,#1401);
#1178=AXIS2_PLACEMENT_3D('',#1726,#1402,#1403);
#1179=AXIS2_PLACEMENT_3D('',#1731,#1407,#1408);
#1180=AXIS2_PLACEMENT_3D('',#1735,#1411,#1412);
#1181=AXIS2_PLACEMENT_3D('',#1737,#1414,#1415);
#1182=AXIS2_PLACEMENT_3D('',#1738,#1416,#1417);
#1183=AXIS2_PLACEMENT_3D('',#1742,#1420,#1421);
#1184=AXIS2_PLACEMENT_3D('',#1746,#1424,#1425);
#1185=AXIS2_PLACEMENT_3D('',#1748,#1427,#1428);
#1186=AXIS2_PLACEMENT_3D('',#1749,#1429,#1430);
#1187=AXIS2_PLACEMENT_3D('',#1755,#1434,#1435);
#1188=AXIS2_PLACEMENT_3D('',#1759,#1438,#1439);
#1189=AXIS2_PLACEMENT_3D('',#1763,#1442,#1443);
#1190=AXIS2_PLACEMENT_3D('',#1765,#1445,#1446);
#1191=AXIS2_PLACEMENT_3D('',#1766,#1447,#1448);
#1192=AXIS2_PLACEMENT_3D('',#1772,#1452,#1453);
#1193=AXIS2_PLACEMENT_3D('',#1776,#1456,#1457);
#1194=AXIS2_PLACEMENT_3D('',#1780,#1460,#1461);
#1195=AXIS2_PLACEMENT_3D('',#1782,#1463,#1464);
#1196=AXIS2_PLACEMENT_3D('',#1783,#1465,#1466);
#1197=DIRECTION('axis',(0.,0.,1.));
#1198=DIRECTION('refdir',(1.,0.,0.));
#1199=DIRECTION('center_axis',(-0.707106781186546,0.707106781186549,0.));
#1200=DIRECTION('ref_axis',(0.707106781186549,0.707106781186546,0.));
#1201=DIRECTION('',(-0.707106781186549,-0.707106781186546,0.));
#1202=DIRECTION('',(0.,0.,1.));
#1203=DIRECTION('',(0.707106781186549,0.707106781186546,0.));
#1204=DIRECTION('',(0.,0.,-1.));
#1205=DIRECTION('center_axis',(0.707106781186548,-0.707106781186547,0.));
#1206=DIRECTION('ref_axis',(-0.707106781186547,-0.707106781186548,0.));
#1207=DIRECTION('',(0.707106781186547,0.707106781186548,0.));
#1208=DIRECTION('',(0.,0.,1.));
#1209=DIRECTION('',(-0.707106781186547,-0.707106781186548,0.));
#1210=DIRECTION('',(0.,0.,-1.));
#1211=DIRECTION('center_axis',(0.,-1.,0.));
#1212=DIRECTION('ref_axis',(-1.,0.,0.));
#1213=DIRECTION('',(1.,0.,0.));
#1214=DIRECTION('',(0.,0.,1.));
#1215=DIRECTION('',(-1.,0.,0.));
#1216=DIRECTION('center_axis',(0.,0.,1.));
#1217=DIRECTION('ref_axis',(1.,0.,0.));
#1218=DIRECTION('',(0.,1.,0.));
#1219=DIRECTION('',(1.,0.,0.));
#1220=DIRECTION('',(0.,1.,0.));
#1221=DIRECTION('center_axis',(1.,0.,0.));
#1222=DIRECTION('ref_axis',(0.,-1.,0.));
#1223=DIRECTION('',(0.,-1.,0.));
#1224=DIRECTION('',(0.,0.,-1.));
#1225=DIRECTION('center_axis',(0.707106781186547,0.707106781186548,0.));
#1226=DIRECTION('ref_axis',(0.707106781186548,-0.707106781186547,0.));
#1227=DIRECTION('',(-0.707106781186548,0.707106781186547,0.));
#1228=DIRECTION('',(0.,0.,1.));
#1229=DIRECTION('',(0.707106781186548,-0.707106781186547,0.));
#1230=DIRECTION('',(0.,0.,-1.));
#1231=DIRECTION('center_axis',(-0.707106781186548,-0.707106781186548,0.));
#1232=DIRECTION('ref_axis',(-0.707106781186548,0.707106781186548,0.));
#1233=DIRECTION('',(0.707106781186548,-0.707106781186548,0.));
#1234=DIRECTION('',(0.,0.,1.));
#1235=DIRECTION('',(-0.707106781186547,0.707106781186547,0.));
#1236=DIRECTION('',(0.,0.,-1.));
#1237=DIRECTION('center_axis',(1.,0.,0.));
#1238=DIRECTION('ref_axis',(0.,-1.,0.));
#1239=DIRECTION('',(0.,1.,0.));
#1240=DIRECTION('',(0.,-1.,0.));
#1241=DIRECTION('center_axis',(1.,0.,0.));
#1242=DIRECTION('ref_axis',(0.,-1.,0.));
#1243=DIRECTION('',(0.,1.,0.));
#1244=DIRECTION('',(0.,0.,1.));
#1245=DIRECTION('',(0.,-1.,0.));
#1246=DIRECTION('center_axis',(0.,0.,1.));
#1247=DIRECTION('ref_axis',(1.,0.,0.));
#1248=DIRECTION('',(1.,0.,0.));
#1249=DIRECTION('',(0.707106781186548,-0.707106781186547,0.));
#1250=DIRECTION('',(0.,-1.,0.));
#1251=DIRECTION('',(-0.707106781186548,-0.707106781186547,0.));
#1252=DIRECTION('',(-1.,0.,0.));
#1253=DIRECTION('center_axis',(0.,0.,1.));
#1254=DIRECTION('ref_axis',(1.,0.,0.));
#1255=DIRECTION('',(-1.,0.,0.));
#1256=DIRECTION('',(0.,1.,0.));
#1257=DIRECTION('',(-1.,0.,0.));
#1258=DIRECTION('center_axis',(0.,1.,0.));
#1259=DIRECTION('ref_axis',(1.,0.,0.));
#1260=DIRECTION('',(0.,0.,-1.));
#1261=DIRECTION('',(1.,0.,0.));
#1262=DIRECTION('center_axis',(0.,1.,0.));
#1263=DIRECTION('ref_axis',(1.,0.,0.));
#1264=DIRECTION('',(1.,0.,0.));
#1265=DIRECTION('',(0.,0.,-1.));
#1266=DIRECTION('center_axis',(0.707106781186548,0.707106781186548,0.));
#1267=DIRECTION('ref_axis',(0.707106781186548,-0.707106781186548,0.));
#1268=DIRECTION('',(-0.707106781186548,0.707106781186548,0.));
#1269=DIRECTION('',(0.,0.,1.));
#1270=DIRECTION('',(0.707106781186547,-0.707106781186547,0.));
#1271=DIRECTION('',(0.,0.,-1.));
#1272=DIRECTION('center_axis',(-0.707106781186547,-0.707106781186548,0.));
#1273=DIRECTION('ref_axis',(-0.707106781186548,0.707106781186547,0.));
#1274=DIRECTION('',(0.,0.,1.));
#1275=DIRECTION('',(-0.707106781186548,0.707106781186547,0.));
#1276=DIRECTION('',(0.,0.,-1.));
#1277=DIRECTION('center_axis',(0.,-1.,0.));
#1278=DIRECTION('ref_axis',(-1.,0.,0.));
#1279=DIRECTION('',(-1.,0.,0.));
#1280=DIRECTION('center_axis',(-1.,0.,0.));
#1281=DIRECTION('ref_axis',(0.,1.,0.));
#1282=DIRECTION('',(0.,1.,0.));
#1283=DIRECTION('',(0.,0.,1.));
#1284=DIRECTION('center_axis',(-0.707106781186547,0.707106781186548,0.));
#1285=DIRECTION('ref_axis',(0.707106781186548,0.707106781186547,0.));
#1286=DIRECTION('',(0.707106781186548,0.707106781186547,0.));
#1287=DIRECTION('center_axis',(0.707106781186552,-0.707106781186543,0.));
#1288=DIRECTION('ref_axis',(-0.707106781186543,-0.707106781186552,0.));
#1289=DIRECTION('',(0.707106781186543,0.707106781186552,0.));
#1290=DIRECTION('',(0.,0.,1.));
#1291=DIRECTION('',(-0.707106781186543,-0.707106781186552,0.));
#1292=DIRECTION('',(0.,0.,-1.));
#1293=DIRECTION('center_axis',(-1.,0.,0.));
#1294=DIRECTION('ref_axis',(0.,1.,0.));
#1295=DIRECTION('',(0.,-1.,0.));
#1296=DIRECTION('',(0.,0.,1.));
#1297=DIRECTION('',(0.,1.,0.));
#1298=DIRECTION('center_axis',(0.,0.,1.));
#1299=DIRECTION('ref_axis',(1.,0.,0.));
#1300=DIRECTION('',(1.,0.,0.));
#1301=DIRECTION('',(0.,-1.,0.));
#1302=DIRECTION('',(1.,0.,0.));
#1303=DIRECTION('center_axis',(-1.,0.,0.));
#1304=DIRECTION('ref_axis',(0.,1.,0.));
#1305=DIRECTION('',(0.,1.,0.));
#1306=DIRECTION('',(0.,0.,-1.));
#1307=DIRECTION('',(0.,-1.,0.));
#1308=DIRECTION('center_axis',(1.,0.,0.));
#1309=DIRECTION('ref_axis',(0.,-1.,0.));
#1310=DIRECTION('',(0.,1.,0.));
#1311=DIRECTION('',(0.,0.,1.));
#1312=DIRECTION('',(0.,-1.,0.));
#1313=DIRECTION('',(0.,0.,-1.));
#1314=DIRECTION('center_axis',(0.,1.,0.));
#1315=DIRECTION('ref_axis',(1.,0.,0.));
#1316=DIRECTION('',(1.,0.,0.));
#1317=DIRECTION('',(-1.,0.,0.));
#1318=DIRECTION('',(0.,0.,-1.));
#1319=DIRECTION('',(1.,0.,0.));
#1320=DIRECTION('',(0.,0.,-1.));
#1321=DIRECTION('',(-1.,0.,0.));
#1322=DIRECTION('center_axis',(0.,0.,1.));
#1323=DIRECTION('ref_axis',(1.,0.,0.));
#1324=DIRECTION('',(-1.,0.,0.));
#1325=DIRECTION('',(0.,1.,0.));
#1326=DIRECTION('',(1.,0.,0.));
#1327=DIRECTION('',(0.,-1.,0.));
#1328=DIRECTION('',(1.,0.,0.));
#1329=DIRECTION('',(0.,1.,0.));
#1330=DIRECTION('',(-1.,0.,0.));
#1331=DIRECTION('',(0.,-1.,0.));
#1332=DIRECTION('',(-1.,-2.089831575765E-16,0.));
#1333=DIRECTION('',(0.,1.,0.));
#1334=DIRECTION('',(-1.,0.,0.));
#1335=DIRECTION('',(0.,-1.,0.));
#1336=DIRECTION('',(1.,0.,0.));
#1337=DIRECTION('',(0.,-1.,0.));
#1338=DIRECTION('',(-1.,0.,0.));
#1339=DIRECTION('',(0.,-1.,0.));
#1340=DIRECTION('',(1.,0.,0.));
#1341=DIRECTION('',(0.,1.,0.));
#1342=DIRECTION('',(1.,0.,0.));
#1343=DIRECTION('',(0.,-1.,0.));
#1344=DIRECTION('',(1.,0.,0.));
#1345=DIRECTION('',(0.,1.,0.));
#1346=DIRECTION('center_axis',(-1.,0.,0.));
#1347=DIRECTION('ref_axis',(0.,1.,0.));
#1348=DIRECTION('',(0.,0.,1.));
#1349=DIRECTION('',(0.,1.,0.));
#1350=DIRECTION('',(0.,0.,-1.));
#1351=DIRECTION('center_axis',(0.,0.,-1.));
#1352=DIRECTION('ref_axis',(-1.,0.,0.));
#1353=DIRECTION('',(0.,-1.,0.));
#1354=DIRECTION('',(1.,2.089831575765E-16,0.));
#1355=DIRECTION('',(0.,1.,0.));
#1356=DIRECTION('',(-1.,0.,0.));
#1357=DIRECTION('',(-1.,0.,0.));
#1358=DIRECTION('',(1.,0.,0.));
#1359=DIRECTION('',(0.,1.,0.));
#1360=DIRECTION('',(-1.,0.,0.));
#1361=DIRECTION('',(0.,-1.,0.));
#1362=DIRECTION('',(1.,0.,0.));
#1363=DIRECTION('',(-1.,0.,0.));
#1364=DIRECTION('center_axis',(0.,1.,0.));
#1365=DIRECTION('ref_axis',(1.,0.,0.));
#1366=DIRECTION('',(0.,0.,-1.));
#1367=DIRECTION('',(1.,0.,0.));
#1368=DIRECTION('',(0.,0.,-1.));
#1369=DIRECTION('center_axis',(0.,-1.,0.));
#1370=DIRECTION('ref_axis',(-1.,0.,0.));
#1371=DIRECTION('',(0.,0.,-1.));
#1372=DIRECTION('center_axis',(-2.089831575765E-16,1.,0.));
#1373=DIRECTION('ref_axis',(1.,2.089831575765E-16,0.));
#1374=DIRECTION('',(0.,0.,1.));
#1375=DIRECTION('',(0.,0.,-1.));
#1376=DIRECTION('center_axis',(1.,0.,0.));
#1377=DIRECTION('ref_axis',(0.,-1.,0.));
#1378=DIRECTION('',(0.,0.,-1.));
#1379=DIRECTION('',(0.,-1.,0.));
#1380=DIRECTION('',(0.,0.,-1.));
#1381=DIRECTION('center_axis',(0.,-1.,0.));
#1382=DIRECTION('ref_axis',(-1.,0.,0.));
#1383=DIRECTION('',(0.,0.,1.));
#1384=DIRECTION('',(0.,0.,-1.));
#1385=DIRECTION('center_axis',(0.,1.,0.));
#1386=DIRECTION('ref_axis',(1.,0.,0.));
#1387=DIRECTION('',(-1.,0.,0.));
#1388=DIRECTION('',(0.,0.,1.));
#1389=DIRECTION('center_axis',(1.,0.,0.));
#1390=DIRECTION('ref_axis',(0.,-1.,0.));
#1391=DIRECTION('',(0.,0.,-1.));
#1392=DIRECTION('',(0.,-1.,0.));
#1393=DIRECTION('center_axis',(-1.,0.,0.));
#1394=DIRECTION('ref_axis',(0.,1.,0.));
#1395=DIRECTION('',(0.,1.,0.));
#1396=DIRECTION('',(0.,0.,-1.));
#1397=DIRECTION('center_axis',(0.,-1.,0.));
#1398=DIRECTION('ref_axis',(-1.,0.,0.));
#1399=DIRECTION('',(-1.,0.,0.));
#1400=DIRECTION('center_axis',(0.,0.,-1.));
#1401=DIRECTION('ref_axis',(-1.,0.,0.));
#1402=DIRECTION('center_axis',(-1.,0.,0.));
#1403=DIRECTION('ref_axis',(0.,1.,0.));
#1404=DIRECTION('',(0.,-1.,0.));
#1405=DIRECTION('',(0.,1.,0.));
#1406=DIRECTION('',(0.,0.,-1.));
#1407=DIRECTION('center_axis',(0.,-1.,0.));
#1408=DIRECTION('ref_axis',(-1.,0.,0.));
#1409=DIRECTION('',(-1.,0.,0.));
#1410=DIRECTION('',(0.,0.,-1.));
#1411=DIRECTION('center_axis',(1.,0.,0.));
#1412=DIRECTION('ref_axis',(0.,-1.,0.));
#1413=DIRECTION('',(0.,-1.,0.));
#1414=DIRECTION('center_axis',(0.,0.,-1.));
#1415=DIRECTION('ref_axis',(-1.,0.,0.));
#1416=DIRECTION('center_axis',(0.,1.,0.));
#1417=DIRECTION('ref_axis',(1.,0.,0.));
#1418=DIRECTION('',(1.,0.,0.));
#1419=DIRECTION('',(0.,0.,-1.));
#1420=DIRECTION('center_axis',(-1.,0.,0.));
#1421=DIRECTION('ref_axis',(0.,1.,0.));
#1422=DIRECTION('',(0.,1.,0.));
#1423=DIRECTION('',(0.,0.,-1.));
#1424=DIRECTION('center_axis',(0.,-1.,0.));
#1425=DIRECTION('ref_axis',(-1.,0.,0.));
#1426=DIRECTION('',(-1.,0.,0.));
#1427=DIRECTION('center_axis',(0.,0.,-1.));
#1428=DIRECTION('ref_axis',(-1.,0.,0.));
#1429=DIRECTION('center_axis',(0.,1.,0.));
#1430=DIRECTION('ref_axis',(1.,0.,0.));
#1431=DIRECTION('',(0.,0.,-1.));
#1432=DIRECTION('',(1.,0.,0.));
#1433=DIRECTION('',(0.,0.,-1.));
#1434=DIRECTION('center_axis',(-1.,0.,0.));
#1435=DIRECTION('ref_axis',(0.,1.,0.));
#1436=DIRECTION('',(0.,1.,0.));
#1437=DIRECTION('',(0.,0.,-1.));
#1438=DIRECTION('center_axis',(0.,-1.,0.));
#1439=DIRECTION('ref_axis',(-1.,0.,0.));
#1440=DIRECTION('',(-1.,0.,0.));
#1441=DIRECTION('',(0.,0.,-1.));
#1442=DIRECTION('center_axis',(1.,0.,0.));
#1443=DIRECTION('ref_axis',(0.,-1.,0.));
#1444=DIRECTION('',(0.,-1.,0.));
#1445=DIRECTION('center_axis',(0.,0.,-1.));
#1446=DIRECTION('ref_axis',(-1.,0.,0.));
#1447=DIRECTION('center_axis',(-1.,0.,0.));
#1448=DIRECTION('ref_axis',(0.,-1.,0.));
#1449=DIRECTION('',(0.,0.,1.));
#1450=DIRECTION('',(0.,-1.,0.));
#1451=DIRECTION('',(0.,0.,1.));
#1452=DIRECTION('center_axis',(0.,1.,0.));
#1453=DIRECTION('ref_axis',(-1.,0.,0.));
#1454=DIRECTION('',(-1.,0.,0.));
#1455=DIRECTION('',(0.,0.,1.));
#1456=DIRECTION('center_axis',(1.,0.,0.));
#1457=DIRECTION('ref_axis',(0.,1.,0.));
#1458=DIRECTION('',(0.,1.,0.));
#1459=DIRECTION('',(0.,0.,1.));
#1460=DIRECTION('center_axis',(0.,-1.,0.));
#1461=DIRECTION('ref_axis',(1.,0.,0.));
#1462=DIRECTION('',(1.,0.,0.));
#1463=DIRECTION('center_axis',(0.,0.,1.));
#1464=DIRECTION('ref_axis',(1.,0.,0.));
#1465=DIRECTION('center_axis',(0.,0.,1.));
#1466=DIRECTION('ref_axis',(1.,0.,0.));
#1467=CARTESIAN_POINT('',(0.,0.,0.));
#1468=CARTESIAN_POINT('Origin',(-344.,295.,0.));
#1469=CARTESIAN_POINT('',(-320.,319.,0.));
#1470=CARTESIAN_POINT('',(-344.,295.,0.));
#1471=CARTESIAN_POINT('',(-331.75,307.25,0.));
#1472=CARTESIAN_POINT('',(-320.,319.,-40.));
#1473=CARTESIAN_POINT('',(-320.,319.,0.));
#1474=CARTESIAN_POINT('',(-344.,295.,-40.));
#1475=CARTESIAN_POINT('',(-320.,319.,-40.));
#1476=CARTESIAN_POINT('',(-344.,295.,0.));
#1477=CARTESIAN_POINT('Origin',(-305.,319.,0.));
#1478=CARTESIAN_POINT('',(-344.,280.,0.));
#1479=CARTESIAN_POINT('',(-305.,319.,0.));
#1480=CARTESIAN_POINT('',(-308.5,315.5,0.));
#1481=CARTESIAN_POINT('',(-344.,280.,-40.));
#1482=CARTESIAN_POINT('',(-344.,280.,0.));
#1483=CARTESIAN_POINT('',(-305.,319.,-40.));
#1484=CARTESIAN_POINT('',(-344.,280.,-40.));
#1485=CARTESIAN_POINT('',(-305.,319.,0.));
#1486=CARTESIAN_POINT('Origin',(340.,319.,0.));
#1487=CARTESIAN_POINT('',(-340.,319.,0.));
#1488=CARTESIAN_POINT('',(170.,319.,0.));
#1489=CARTESIAN_POINT('',(-340.,319.,-40.));
#1490=CARTESIAN_POINT('',(-340.,319.,0.));
#1491=CARTESIAN_POINT('',(-340.,319.,-40.));
#1492=CARTESIAN_POINT('Origin',(-7.105427357601E-14,0.,0.));
#1493=CARTESIAN_POINT('',(-344.,315.,0.));
#1494=CARTESIAN_POINT('',(-344.,157.5,0.));
#1495=CARTESIAN_POINT('',(-340.,315.,0.));
#1496=CARTESIAN_POINT('',(-170.,315.,0.));
#1497=CARTESIAN_POINT('',(-340.,182.5,0.));
#1498=CARTESIAN_POINT('Origin',(-344.,315.,0.));
#1499=CARTESIAN_POINT('',(-344.,315.,-40.));
#1500=CARTESIAN_POINT('',(-344.,-315.,-40.));
#1501=CARTESIAN_POINT('',(-344.,315.,0.));
#1502=CARTESIAN_POINT('Origin',(-344.,-280.,0.));
#1503=CARTESIAN_POINT('',(-305.,-319.,0.));
#1504=CARTESIAN_POINT('',(-344.,-280.,0.));
#1505=CARTESIAN_POINT('',(-328.,-296.,0.));
#1506=CARTESIAN_POINT('',(-305.,-319.,-40.));
#1507=CARTESIAN_POINT('',(-305.,-319.,0.));
#1508=CARTESIAN_POINT('',(-344.,-280.,-40.));
#1509=CARTESIAN_POINT('',(-305.,-319.,-40.));
#1510=CARTESIAN_POINT('',(-344.,-280.,0.));
#1511=CARTESIAN_POINT('Origin',(-320.,-319.,0.));
#1512=CARTESIAN_POINT('',(-344.,-295.,0.));
#1513=CARTESIAN_POINT('',(-320.,-319.,0.));
#1514=CARTESIAN_POINT('',(-319.75,-319.25,0.));
#1515=CARTESIAN_POINT('',(-344.,-295.,-40.));
#1516=CARTESIAN_POINT('',(-344.,-295.,0.));
#1517=CARTESIAN_POINT('',(-320.,-319.,-40.));
#1518=CARTESIAN_POINT('',(-320.,-319.,-40.));
#1519=CARTESIAN_POINT('',(-320.,-319.,0.));
#1520=CARTESIAN_POINT('Origin',(-344.,315.,0.));
#1521=CARTESIAN_POINT('',(-344.,157.5,0.));
#1522=CARTESIAN_POINT('',(-344.,-315.,-40.));
#1523=CARTESIAN_POINT('Origin',(-344.,315.,0.));
#1524=CARTESIAN_POINT('',(-344.,-315.,0.));
#1525=CARTESIAN_POINT('',(-344.,157.5,0.));
#1526=CARTESIAN_POINT('',(-344.,-315.,-40.));
#1527=CARTESIAN_POINT('',(-344.,-315.,0.));
#1528=CARTESIAN_POINT('',(-344.,-315.,-40.));
#1529=CARTESIAN_POINT('Origin',(-7.105427357601E-14,0.,0.));
#1530=CARTESIAN_POINT('',(305.,319.,0.));
#1531=CARTESIAN_POINT('',(170.,319.,0.));
#1532=CARTESIAN_POINT('',(344.,280.,0.));
#1533=CARTESIAN_POINT('',(328.,296.,0.));
#1534=CARTESIAN_POINT('',(344.,-280.,0.));
#1535=CARTESIAN_POINT('',(344.,-157.5,0.));
#1536=CARTESIAN_POINT('',(305.,-319.,0.));
#1537=CARTESIAN_POINT('',(308.5,-315.5,0.));
#1538=CARTESIAN_POINT('',(-170.,-319.,0.));
#1539=CARTESIAN_POINT('Origin',(-7.105427357601E-14,0.,0.));
#1540=CARTESIAN_POINT('',(-340.,-319.,0.));
#1541=CARTESIAN_POINT('',(-170.,-319.,0.));
#1542=CARTESIAN_POINT('',(-340.,-315.,0.));
#1543=CARTESIAN_POINT('',(-340.,-157.5,0.));
#1544=CARTESIAN_POINT('',(-180.,-315.,0.));
#1545=CARTESIAN_POINT('Origin',(-340.,-319.,0.));
#1546=CARTESIAN_POINT('',(305.,-319.,-40.));
#1547=CARTESIAN_POINT('',(305.,-319.,0.));
#1548=CARTESIAN_POINT('',(340.,-319.,-40.));
#1549=CARTESIAN_POINT('Origin',(-340.,-319.,0.));
#1550=CARTESIAN_POINT('',(-340.,-319.,-40.));
#1551=CARTESIAN_POINT('',(340.,-319.,-40.));
#1552=CARTESIAN_POINT('',(-340.,-319.,0.));
#1553=CARTESIAN_POINT('Origin',(320.,319.,0.));
#1554=CARTESIAN_POINT('',(344.,295.,0.));
#1555=CARTESIAN_POINT('',(320.,319.,0.));
#1556=CARTESIAN_POINT('',(319.75,319.25,0.));
#1557=CARTESIAN_POINT('',(344.,295.,-40.));
#1558=CARTESIAN_POINT('',(344.,295.,0.));
#1559=CARTESIAN_POINT('',(320.,319.,-40.));
#1560=CARTESIAN_POINT('',(344.,295.,-40.));
#1561=CARTESIAN_POINT('',(320.,319.,0.));
#1562=CARTESIAN_POINT('Origin',(344.,280.,0.));
#1563=CARTESIAN_POINT('',(305.,319.,-40.));
#1564=CARTESIAN_POINT('',(305.,319.,0.));
#1565=CARTESIAN_POINT('',(344.,280.,-40.));
#1566=CARTESIAN_POINT('',(344.,280.,-40.));
#1567=CARTESIAN_POINT('',(344.,280.,0.));
#1568=CARTESIAN_POINT('Origin',(340.,319.,0.));
#1569=CARTESIAN_POINT('',(-340.,319.,-40.));
#1570=CARTESIAN_POINT('Origin',(344.,-315.,0.));
#1571=CARTESIAN_POINT('',(344.,-280.,-40.));
#1572=CARTESIAN_POINT('',(344.,315.,-40.));
#1573=CARTESIAN_POINT('',(344.,-280.,0.));
#1574=CARTESIAN_POINT('Origin',(305.,-319.,0.));
#1575=CARTESIAN_POINT('',(344.,-280.,-40.));
#1576=CARTESIAN_POINT('Origin',(344.,-295.,0.));
#1577=CARTESIAN_POINT('',(320.,-319.,0.));
#1578=CARTESIAN_POINT('',(344.,-295.,0.));
#1579=CARTESIAN_POINT('',(331.750000000001,-307.249999999999,0.));
#1580=CARTESIAN_POINT('',(320.,-319.,-40.));
#1581=CARTESIAN_POINT('',(320.,-319.,0.));
#1582=CARTESIAN_POINT('',(344.,-295.,-40.));
#1583=CARTESIAN_POINT('',(344.,-295.,-40.));
#1584=CARTESIAN_POINT('',(344.,-295.,0.));
#1585=CARTESIAN_POINT('Origin',(344.,-315.,0.));
#1586=CARTESIAN_POINT('',(344.,315.,0.));
#1587=CARTESIAN_POINT('',(344.,-157.5,0.));
#1588=CARTESIAN_POINT('',(344.,315.,-40.));
#1589=CARTESIAN_POINT('',(344.,315.,0.));
#1590=CARTESIAN_POINT('',(344.,315.,-40.));
#1591=CARTESIAN_POINT('Origin',(-7.105427357601E-14,0.,0.));
#1592=CARTESIAN_POINT('',(340.,319.,0.));
#1593=CARTESIAN_POINT('',(170.,319.,0.));
#1594=CARTESIAN_POINT('',(340.,315.,0.));
#1595=CARTESIAN_POINT('',(340.,157.5,0.));
#1596=CARTESIAN_POINT('',(180.,315.,0.));
#1597=CARTESIAN_POINT('Origin',(344.,-315.,0.));
#1598=CARTESIAN_POINT('',(344.,-315.,-40.));
#1599=CARTESIAN_POINT('',(344.,315.,-40.));
#1600=CARTESIAN_POINT('',(344.,-315.,0.));
#1601=CARTESIAN_POINT('',(344.,-315.,0.));
#1602=CARTESIAN_POINT('',(344.,-157.5,0.));
#1603=CARTESIAN_POINT('Origin',(359.,315.,0.));
#1604=CARTESIAN_POINT('',(359.,-315.,0.));
#1605=CARTESIAN_POINT('',(359.,315.,0.));
#1606=CARTESIAN_POINT('',(359.,157.5,0.));
#1607=CARTESIAN_POINT('',(359.,-315.,-40.));
#1608=CARTESIAN_POINT('',(359.,-315.,0.));
#1609=CARTESIAN_POINT('',(359.,315.,-40.));
#1610=CARTESIAN_POINT('',(359.,-315.,-40.));
#1611=CARTESIAN_POINT('',(359.,315.,0.));
#1612=CARTESIAN_POINT('Origin',(340.,-315.,0.));
#1613=CARTESIAN_POINT('',(345.75,-315.,-40.));
#1614=CARTESIAN_POINT('',(360.,-315.,0.));
#1615=CARTESIAN_POINT('',(170.,-315.,0.));
#1616=CARTESIAN_POINT('',(360.,-315.,-730.));
#1617=CARTESIAN_POINT('',(360.,-315.,0.));
#1618=CARTESIAN_POINT('',(340.,-315.,-730.));
#1619=CARTESIAN_POINT('',(340.,-315.,-730.));
#1620=CARTESIAN_POINT('',(340.,-315.,0.));
#1621=CARTESIAN_POINT('',(340.,-315.,0.));
#1622=CARTESIAN_POINT('',(170.,-315.,0.));
#1623=CARTESIAN_POINT('Origin',(-7.105427357601E-14,0.,0.));
#1624=CARTESIAN_POINT('',(370.,-370.,0.));
#1625=CARTESIAN_POINT('',(-370.,-370.,0.));
#1626=CARTESIAN_POINT('',(370.,-370.,0.));
#1627=CARTESIAN_POINT('',(-370.,370.,0.));
#1628=CARTESIAN_POINT('',(-370.,-370.,0.));
#1629=CARTESIAN_POINT('',(370.,370.,0.));
#1630=CARTESIAN_POINT('',(-370.,370.,0.));
#1631=CARTESIAN_POINT('',(370.,370.,0.));
#1632=CARTESIAN_POINT('',(360.,315.,0.));
#1633=CARTESIAN_POINT('',(180.,315.,0.));
#1634=CARTESIAN_POINT('',(360.,365.,0.));
#1635=CARTESIAN_POINT('',(360.,182.5,0.));
#1636=CARTESIAN_POINT('',(340.,365.,0.));
#1637=CARTESIAN_POINT('',(170.,365.,0.));
#1638=CARTESIAN_POINT('',(340.,334.,0.));
#1639=CARTESIAN_POINT('',(340.,157.5,0.));
#1640=CARTESIAN_POINT('',(-340.,334.,0.));
#1641=CARTESIAN_POINT('',(-170.,334.,0.));
#1642=CARTESIAN_POINT('',(-340.,365.,0.));
#1643=CARTESIAN_POINT('',(-340.,182.5,0.));
#1644=CARTESIAN_POINT('',(-360.,365.,0.));
#1645=CARTESIAN_POINT('',(-180.,365.,0.));
#1646=CARTESIAN_POINT('',(-360.,315.,0.));
#1647=CARTESIAN_POINT('',(-360.,157.5,0.));
#1648=CARTESIAN_POINT('',(-359.,315.,0.));
#1649=CARTESIAN_POINT('',(-170.,315.,0.));
#1650=CARTESIAN_POINT('',(-359.,-315.,0.));
#1651=CARTESIAN_POINT('',(-359.,-157.5,0.));
#1652=CARTESIAN_POINT('',(-360.,-315.,0.));
#1653=CARTESIAN_POINT('',(-180.,-315.,0.));
#1654=CARTESIAN_POINT('',(-360.,-365.,0.));
#1655=CARTESIAN_POINT('',(-360.,-182.5,0.));
#1656=CARTESIAN_POINT('',(-340.,-365.,0.));
#1657=CARTESIAN_POINT('',(-170.,-365.,0.));
#1658=CARTESIAN_POINT('',(-340.,-334.,0.));
#1659=CARTESIAN_POINT('',(-340.,-157.5,0.));
#1660=CARTESIAN_POINT('',(340.,-334.,0.));
#1661=CARTESIAN_POINT('',(170.,-334.,0.));
#1662=CARTESIAN_POINT('',(340.,-365.,0.));
#1663=CARTESIAN_POINT('',(340.,-182.5,0.));
#1664=CARTESIAN_POINT('',(360.,-365.,0.));
#1665=CARTESIAN_POINT('',(180.,-365.,0.));
#1666=CARTESIAN_POINT('',(360.,-157.5,0.));
#1667=CARTESIAN_POINT('Origin',(-359.,-315.,0.));
#1668=CARTESIAN_POINT('',(-359.,315.,-40.));
#1669=CARTESIAN_POINT('',(-359.,315.,0.));
#1670=CARTESIAN_POINT('',(-359.,-315.,-40.));
#1671=CARTESIAN_POINT('',(-359.,315.,-40.));
#1672=CARTESIAN_POINT('',(-359.,-315.,0.));
#1673=CARTESIAN_POINT('Origin',(-351.5,0.,-40.));
#1674=CARTESIAN_POINT('',(-340.,334.,-40.));
#1675=CARTESIAN_POINT('',(-340.,345.75,-40.));
#1676=CARTESIAN_POINT('',(340.,334.,-40.));
#1677=CARTESIAN_POINT('',(340.,334.,-40.));
#1678=CARTESIAN_POINT('',(340.,319.,-40.));
#1679=CARTESIAN_POINT('',(340.,320.75,-40.));
#1680=CARTESIAN_POINT('',(-340.,319.,-40.));
#1681=CARTESIAN_POINT('',(355.75,315.,-40.));
#1682=CARTESIAN_POINT('',(340.,-319.,-40.));
#1683=CARTESIAN_POINT('',(340.,-319.,-40.));
#1684=CARTESIAN_POINT('',(340.,-334.,-40.));
#1685=CARTESIAN_POINT('',(340.,-345.75,-40.));
#1686=CARTESIAN_POINT('',(-340.,-334.,-40.));
#1687=CARTESIAN_POINT('',(-340.,-334.,-40.));
#1688=CARTESIAN_POINT('',(-340.,-320.75,-40.));
#1689=CARTESIAN_POINT('',(-355.75,-315.,-40.));
#1690=CARTESIAN_POINT('',(-345.75,315.,-40.));
#1691=CARTESIAN_POINT('Origin',(-360.,-315.,0.));
#1692=CARTESIAN_POINT('',(-340.,-315.,-730.));
#1693=CARTESIAN_POINT('',(-340.,-315.,0.));
#1694=CARTESIAN_POINT('',(-360.,-315.,-730.));
#1695=CARTESIAN_POINT('',(-360.,-315.,-730.));
#1696=CARTESIAN_POINT('',(-360.,-315.,0.));
#1697=CARTESIAN_POINT('Origin',(340.,319.,0.));
#1698=CARTESIAN_POINT('',(340.,319.,0.));
#1699=CARTESIAN_POINT('Origin',(-340.,334.,0.));
#1700=CARTESIAN_POINT('',(340.,334.,0.));
#1701=CARTESIAN_POINT('',(-340.,334.,0.));
#1702=CARTESIAN_POINT('Origin',(-340.,365.,0.));
#1703=CARTESIAN_POINT('',(-340.,315.,-730.));
#1704=CARTESIAN_POINT('',(-340.,315.,0.));
#1705=CARTESIAN_POINT('',(-340.,365.,-730.));
#1706=CARTESIAN_POINT('',(-340.,365.,-730.));
#1707=CARTESIAN_POINT('',(-340.,365.,0.));
#1708=CARTESIAN_POINT('Origin',(340.,-334.,0.));
#1709=CARTESIAN_POINT('',(-340.,-334.,0.));
#1710=CARTESIAN_POINT('',(340.,-334.,0.));
#1711=CARTESIAN_POINT('Origin',(-340.,-319.,0.));
#1712=CARTESIAN_POINT('',(340.,-319.,0.));
#1713=CARTESIAN_POINT('',(-170.,-319.,0.));
#1714=CARTESIAN_POINT('',(340.,-319.,0.));
#1715=CARTESIAN_POINT('Origin',(-340.,-315.,0.));
#1716=CARTESIAN_POINT('',(-340.,-365.,-730.));
#1717=CARTESIAN_POINT('',(-340.,-365.,0.));
#1718=CARTESIAN_POINT('',(-340.,-315.,-730.));
#1719=CARTESIAN_POINT('Origin',(-360.,-365.,0.));
#1720=CARTESIAN_POINT('',(-360.,-365.,-730.));
#1721=CARTESIAN_POINT('',(-360.,-365.,-730.));
#1722=CARTESIAN_POINT('',(-360.,-365.,0.));
#1723=CARTESIAN_POINT('Origin',(-340.,-365.,0.));
#1724=CARTESIAN_POINT('',(-340.,-365.,-730.));
#1725=CARTESIAN_POINT('Origin',(-350.,-340.,-730.));
#1726=CARTESIAN_POINT('Origin',(340.,-365.,0.));
#1727=CARTESIAN_POINT('',(340.,-182.5,0.));
#1728=CARTESIAN_POINT('',(340.,-365.,-730.));
#1729=CARTESIAN_POINT('',(340.,-365.,-730.));
#1730=CARTESIAN_POINT('',(340.,-365.,0.));
#1731=CARTESIAN_POINT('Origin',(360.,-365.,0.));
#1732=CARTESIAN_POINT('',(360.,-365.,-730.));
#1733=CARTESIAN_POINT('',(360.,-365.,-730.));
#1734=CARTESIAN_POINT('',(360.,-365.,0.));
#1735=CARTESIAN_POINT('Origin',(360.,-315.,0.));
#1736=CARTESIAN_POINT('',(360.,-315.,-730.));
#1737=CARTESIAN_POINT('Origin',(350.,-340.,-730.));
#1738=CARTESIAN_POINT('Origin',(-360.,365.,0.));
#1739=CARTESIAN_POINT('',(-360.,365.,-730.));
#1740=CARTESIAN_POINT('',(-360.,365.,-730.));
#1741=CARTESIAN_POINT('',(-360.,365.,0.));
#1742=CARTESIAN_POINT('Origin',(-360.,315.,0.));
#1743=CARTESIAN_POINT('',(-360.,315.,-730.));
#1744=CARTESIAN_POINT('',(-360.,315.,-730.));
#1745=CARTESIAN_POINT('',(-360.,315.,0.));
#1746=CARTESIAN_POINT('Origin',(-340.,315.,0.));
#1747=CARTESIAN_POINT('',(-340.,315.,-730.));
#1748=CARTESIAN_POINT('Origin',(-350.,340.,-730.));
#1749=CARTESIAN_POINT('Origin',(340.,365.,0.));
#1750=CARTESIAN_POINT('',(360.,365.,-730.));
#1751=CARTESIAN_POINT('',(360.,365.,0.));
#1752=CARTESIAN_POINT('',(340.,365.,-730.));
#1753=CARTESIAN_POINT('',(340.,365.,-730.));
#1754=CARTESIAN_POINT('',(340.,365.,0.));
#1755=CARTESIAN_POINT('Origin',(340.,315.,0.));
#1756=CARTESIAN_POINT('',(340.,315.,-730.));
#1757=CARTESIAN_POINT('',(340.,315.,-730.));
#1758=CARTESIAN_POINT('',(340.,315.,0.));
#1759=CARTESIAN_POINT('Origin',(360.,315.,0.));
#1760=CARTESIAN_POINT('',(360.,315.,-730.));
#1761=CARTESIAN_POINT('',(360.,315.,-730.));
#1762=CARTESIAN_POINT('',(360.,315.,0.));
#1763=CARTESIAN_POINT('Origin',(360.,365.,0.));
#1764=CARTESIAN_POINT('',(360.,365.,-730.));
#1765=CARTESIAN_POINT('Origin',(350.,340.,-730.));
#1766=CARTESIAN_POINT('Origin',(-370.,370.,0.));
#1767=CARTESIAN_POINT('',(-370.,-370.,20.));
#1768=CARTESIAN_POINT('',(-370.,-370.,0.));
#1769=CARTESIAN_POINT('',(-370.,370.,20.));
#1770=CARTESIAN_POINT('',(-370.,-370.,20.));
#1771=CARTESIAN_POINT('',(-370.,370.,0.));
#1772=CARTESIAN_POINT('Origin',(370.,370.,0.));
#1773=CARTESIAN_POINT('',(370.,370.,20.));
#1774=CARTESIAN_POINT('',(-370.,370.,20.));
#1775=CARTESIAN_POINT('',(370.,370.,0.));
#1776=CARTESIAN_POINT('Origin',(370.,-370.,0.));
#1777=CARTESIAN_POINT('',(370.,-370.,20.));
#1778=CARTESIAN_POINT('',(370.,370.,20.));
#1779=CARTESIAN_POINT('',(370.,-370.,0.));
#1780=CARTESIAN_POINT('Origin',(-370.,-370.,0.));
#1781=CARTESIAN_POINT('',(370.,-370.,20.));
#1782=CARTESIAN_POINT('Origin',(-7.105427357601E-14,0.,20.));
#1783=CARTESIAN_POINT('Origin',(-7.105427357601E-14,0.,0.));
#1784=UNCERTAINTY_MEASURE_WITH_UNIT(LENGTH_MEASURE(0.01),#1788,
'DISTANCE_ACCURACY_VALUE',
'Maximum model space distance between geometric entities at asserted c
onnectivities');
#1785=UNCERTAINTY_MEASURE_WITH_UNIT(LENGTH_MEASURE(0.01),#1788,
'DISTANCE_ACCURACY_VALUE',
'Maximum model space distance between geometric entities at asserted c
onnectivities');
#1786=(
GEOMETRIC_REPRESENTATION_CONTEXT(3)
GLOBAL_UNCERTAINTY_ASSIGNED_CONTEXT((#1784))
GLOBAL_UNIT_ASSIGNED_CONTEXT((#1788,#1790,#1791))
REPRESENTATION_CONTEXT('','3D')
);
#1787=(
GEOMETRIC_REPRESENTATION_CONTEXT(3)
GLOBAL_UNCERTAINTY_ASSIGNED_CONTEXT((#1785))
GLOBAL_UNIT_ASSIGNED_CONTEXT((#1788,#1790,#1791))
REPRESENTATION_CONTEXT('','3D')
);
#1788=(
LENGTH_UNIT()
NAMED_UNIT(*)
SI_UNIT(.MILLI.,.METRE.)
);
#1789=(
LENGTH_UNIT()
NAMED_UNIT(*)
SI_UNIT($,.METRE.)
);
#1790=(
NAMED_UNIT(*)
PLANE_ANGLE_UNIT()
SI_UNIT($,.RADIAN.)
);
#1791=(
NAMED_UNIT(*)
SI_UNIT($,.STERADIAN.)
SOLID_ANGLE_UNIT()
);
#1792=SHAPE_DEFINITION_REPRESENTATION(#1793,#1794);
#1793=PRODUCT_DEFINITION_SHAPE('',$,#1796);
#1794=SHAPE_REPRESENTATION('',(#1140),#1786);
#1795=PRODUCT_DEFINITION_CONTEXT('part definition',#1800,'design');
#1796=PRODUCT_DEFINITION('IKEA VIHALS','IKEA VIHALS v3',#1797,#1795);
#1797=PRODUCT_DEFINITION_FORMATION('',$,#1802);
#1798=PRODUCT_RELATED_PRODUCT_CATEGORY('IKEA VIHALS v3',
'IKEA VIHALS v3',(#1802));
#1799=APPLICATION_PROTOCOL_DEFINITION('international standard',
'automotive_design',2009,#1800);
#1800=APPLICATION_CONTEXT(
'Core Data for Automotive Mechanical Design Process');
#1801=PRODUCT_CONTEXT('part definition',#1800,'mechanical');
#1802=PRODUCT('IKEA VIHALS','IKEA VIHALS v3',$,(#1801));
#1803=PRESENTATION_STYLE_ASSIGNMENT((#1805));
#1804=PRESENTATION_STYLE_ASSIGNMENT((#1806));
#1805=SURFACE_STYLE_USAGE(.BOTH.,#1807);
#1806=SURFACE_STYLE_USAGE(.BOTH.,#1808);
#1807=SURFACE_SIDE_STYLE('',(#1809));
#1808=SURFACE_SIDE_STYLE('',(#1810));
#1809=SURFACE_STYLE_FILL_AREA(#1811);
#1810=SURFACE_STYLE_FILL_AREA(#1812);
#1811=FILL_AREA_STYLE('Steel - Satin',(#1813));
#1812=FILL_AREA_STYLE('Powder Coat (Black)',(#1814));
#1813=FILL_AREA_STYLE_COLOUR('Steel - Satin',#1815);
#1814=FILL_AREA_STYLE_COLOUR('Powder Coat (Black)',#1816);
#1815=COLOUR_RGB('Steel - Satin',0.627450980392157,0.627450980392157,0.627450980392157);
#1816=COLOUR_RGB('Powder Coat (Black)',0.882352941176471,0.882352941176471,
0.882352941176471);
ENDSEC;
END-ISO-10303-21;
