ISO-10303-21;
HEADER;
/* Generated by software containing ST-Developer
 * from STEP Tools, Inc. (www.steptools.com) 
 */

FILE_DESCRIPTION(
/* description */ (''),
/* implementation_level */ '2;1');

FILE_NAME(
/* name */ 'LACK Controller Wire Holder.step',
/* time_stamp */ '2026-03-25T02:16:41-04:00',
/* author */ (''),
/* organization */ (''),
/* preprocessor_version */ 'ST-DEVELOPER v20.1',
/* originating_system */ 'Autodesk Translation Framework v14.24.0.0',
/* authorisation */ '');

FILE_SCHEMA (('AUTOMOTIVE_DESIGN { 1 0 10303 214 3 1 1 }'));
ENDSEC;

DATA;
#10=MECHANICAL_DESIGN_GEOMETRIC_PRESENTATION_REPRESENTATION('',(#13),#991);
#11=SHAPE_REPRESENTATION_RELATIONSHIP('SRR','None',#998,#12);
#12=ADVANCED_BREP_SHAPE_REPRESENTATION('',(#14),#990);
#13=STYLED_ITEM('',(#1008),#14);
#14=MANIFOLD_SOLID_BREP('Body1',#559);
#15=PLANE('',#579);
#16=PLANE('',#592);
#17=PLANE('',#599);
#18=PLANE('',#603);
#19=PLANE('',#606);
#20=PLANE('',#613);
#21=PLANE('',#615);
#22=PLANE('',#616);
#23=PLANE('',#617);
#24=PLANE('',#618);
#25=PLANE('',#619);
#26=PLANE('',#620);
#27=PLANE('',#621);
#28=PLANE('',#622);
#29=PLANE('',#623);
#30=PLANE('',#624);
#31=PLANE('',#625);
#32=PLANE('',#626);
#33=FACE_OUTER_BOUND('',#63,.T.);
#34=FACE_OUTER_BOUND('',#64,.T.);
#35=FACE_OUTER_BOUND('',#65,.T.);
#36=FACE_OUTER_BOUND('',#66,.T.);
#37=FACE_OUTER_BOUND('',#67,.T.);
#38=FACE_OUTER_BOUND('',#68,.T.);
#39=FACE_OUTER_BOUND('',#69,.T.);
#40=FACE_OUTER_BOUND('',#70,.T.);
#41=FACE_OUTER_BOUND('',#71,.T.);
#42=FACE_OUTER_BOUND('',#72,.T.);
#43=FACE_OUTER_BOUND('',#73,.T.);
#44=FACE_OUTER_BOUND('',#74,.T.);
#45=FACE_OUTER_BOUND('',#75,.T.);
#46=FACE_OUTER_BOUND('',#76,.T.);
#47=FACE_OUTER_BOUND('',#77,.T.);
#48=FACE_OUTER_BOUND('',#78,.T.);
#49=FACE_OUTER_BOUND('',#79,.T.);
#50=FACE_OUTER_BOUND('',#80,.T.);
#51=FACE_OUTER_BOUND('',#81,.T.);
#52=FACE_OUTER_BOUND('',#82,.T.);
#53=FACE_OUTER_BOUND('',#83,.T.);
#54=FACE_OUTER_BOUND('',#84,.T.);
#55=FACE_OUTER_BOUND('',#85,.T.);
#56=FACE_OUTER_BOUND('',#86,.T.);
#57=FACE_OUTER_BOUND('',#87,.T.);
#58=FACE_OUTER_BOUND('',#88,.T.);
#59=FACE_OUTER_BOUND('',#89,.T.);
#60=FACE_OUTER_BOUND('',#90,.T.);
#61=FACE_OUTER_BOUND('',#91,.T.);
#62=FACE_OUTER_BOUND('',#92,.T.);
#63=EDGE_LOOP('',(#357,#358,#359,#360,#361,#362));
#64=EDGE_LOOP('',(#363,#364,#365,#366));
#65=EDGE_LOOP('',(#367,#368,#369,#370,#371,#372,#373));
#66=EDGE_LOOP('',(#374,#375,#376,#377,#378,#379,#380,#381));
#67=EDGE_LOOP('',(#382,#383,#384,#385,#386,#387));
#68=EDGE_LOOP('',(#388,#389,#390,#391));
#69=EDGE_LOOP('',(#392,#393,#394,#395,#396,#397,#398));
#70=EDGE_LOOP('',(#399,#400,#401,#402,#403,#404,#405,#406));
#71=EDGE_LOOP('',(#407,#408,#409,#410,#411,#412,#413));
#72=EDGE_LOOP('',(#414,#415,#416,#417));
#73=EDGE_LOOP('',(#418,#419,#420,#421));
#74=EDGE_LOOP('',(#422,#423,#424,#425));
#75=EDGE_LOOP('',(#426,#427,#428,#429));
#76=EDGE_LOOP('',(#430,#431,#432,#433));
#77=EDGE_LOOP('',(#434,#435,#436,#437));
#78=EDGE_LOOP('',(#438,#439,#440,#441));
#79=EDGE_LOOP('',(#442,#443,#444,#445));
#80=EDGE_LOOP('',(#446,#447,#448,#449));
#81=EDGE_LOOP('',(#450,#451,#452,#453));
#82=EDGE_LOOP('',(#454,#455,#456,#457,#458,#459,#460));
#83=EDGE_LOOP('',(#461,#462,#463,#464));
#84=EDGE_LOOP('',(#465,#466,#467,#468));
#85=EDGE_LOOP('',(#469,#470,#471,#472));
#86=EDGE_LOOP('',(#473,#474,#475,#476,#477,#478,#479,#480,#481,#482,#483,
#484));
#87=EDGE_LOOP('',(#485,#486,#487,#488));
#88=EDGE_LOOP('',(#489,#490,#491,#492));
#89=EDGE_LOOP('',(#493,#494,#495,#496,#497,#498,#499,#500,#501,#502,#503,
#504));
#90=EDGE_LOOP('',(#505,#506,#507,#508));
#91=EDGE_LOOP('',(#509,#510,#511,#512));
#92=EDGE_LOOP('',(#513,#514,#515,#516));
#93=CIRCLE('',#574,2.);
#94=CIRCLE('',#575,2.);
#95=CIRCLE('',#577,50.);
#96=CIRCLE('',#578,50.);
#97=CIRCLE('',#580,1.5);
#98=CIRCLE('',#581,0.5);
#99=CIRCLE('',#582,2.75);
#100=CIRCLE('',#584,2.);
#101=CIRCLE('',#585,2.);
#102=CIRCLE('',#587,2.);
#103=CIRCLE('',#588,2.);
#104=CIRCLE('',#590,50.);
#105=CIRCLE('',#591,50.);
#106=CIRCLE('',#593,1.5);
#107=CIRCLE('',#594,0.5);
#108=CIRCLE('',#595,2.75);
#109=CIRCLE('',#597,2.);
#110=CIRCLE('',#598,2.);
#111=CIRCLE('',#600,2.75);
#112=CIRCLE('',#601,0.5);
#113=CIRCLE('',#602,1.5);
#114=CIRCLE('',#605,0.5);
#115=CIRCLE('',#610,1.5);
#116=CIRCLE('',#612,2.75);
#117=LINE('',#804,#169);
#118=LINE('',#819,#170);
#119=LINE('',#825,#171);
#120=LINE('',#829,#172);
#121=LINE('',#833,#173);
#122=LINE('',#841,#174);
#123=LINE('',#856,#175);
#124=LINE('',#857,#176);
#125=LINE('',#863,#177);
#126=LINE('',#866,#178);
#127=LINE('',#881,#179);
#128=LINE('',#885,#180);
#129=LINE('',#889,#181);
#130=LINE('',#895,#182);
#131=LINE('',#896,#183);
#132=LINE('',#900,#184);
#133=LINE('',#908,#185);
#134=LINE('',#912,#186);
#135=LINE('',#914,#187);
#136=LINE('',#915,#188);
#137=LINE('',#918,#189);
#138=LINE('',#921,#190);
#139=LINE('',#924,#191);
#140=LINE('',#925,#192);
#141=LINE('',#927,#193);
#142=LINE('',#928,#194);
#143=LINE('',#931,#195);
#144=LINE('',#936,#196);
#145=LINE('',#938,#197);
#146=LINE('',#943,#198);
#147=LINE('',#945,#199);
#148=LINE('',#946,#200);
#149=LINE('',#950,#201);
#150=LINE('',#952,#202);
#151=LINE('',#954,#203);
#152=LINE('',#955,#204);
#153=LINE('',#958,#205);
#154=LINE('',#960,#206);
#155=LINE('',#961,#207);
#156=LINE('',#964,#208);
#157=LINE('',#966,#209);
#158=LINE('',#968,#210);
#159=LINE('',#969,#211);
#160=LINE('',#970,#212);
#161=LINE('',#973,#213);
#162=LINE('',#974,#214);
#163=LINE('',#977,#215);
#164=LINE('',#978,#216);
#165=LINE('',#980,#217);
#166=LINE('',#982,#218);
#167=LINE('',#983,#219);
#168=LINE('',#986,#220);
#169=VECTOR('',#631,10.);
#170=VECTOR('',#634,10.);
#171=VECTOR('',#641,50.);
#172=VECTOR('',#646,10.);
#173=VECTOR('',#649,10.);
#174=VECTOR('',#658,10.);
#175=VECTOR('',#661,10.);
#176=VECTOR('',#662,10.);
#177=VECTOR('',#667,10.);
#178=VECTOR('',#670,10.);
#179=VECTOR('',#675,50.);
#180=VECTOR('',#680,10.);
#181=VECTOR('',#683,10.);
#182=VECTOR('',#690,10.);
#183=VECTOR('',#691,10.);
#184=VECTOR('',#694,10.);
#185=VECTOR('',#703,10.);
#186=VECTOR('',#708,10.);
#187=VECTOR('',#709,10.);
#188=VECTOR('',#710,10.);
#189=VECTOR('',#713,10.);
#190=VECTOR('',#716,10.);
#191=VECTOR('',#719,10.);
#192=VECTOR('',#720,10.);
#193=VECTOR('',#723,10.);
#194=VECTOR('',#724,10.);
#195=VECTOR('',#729,10.);
#196=VECTOR('',#738,10.);
#197=VECTOR('',#741,10.);
#198=VECTOR('',#748,10.);
#199=VECTOR('',#749,10.);
#200=VECTOR('',#750,10.);
#201=VECTOR('',#753,10.);
#202=VECTOR('',#754,10.);
#203=VECTOR('',#755,10.);
#204=VECTOR('',#756,10.);
#205=VECTOR('',#759,10.);
#206=VECTOR('',#760,10.);
#207=VECTOR('',#761,10.);
#208=VECTOR('',#764,10.);
#209=VECTOR('',#765,10.);
#210=VECTOR('',#766,10.);
#211=VECTOR('',#767,10.);
#212=VECTOR('',#768,10.);
#213=VECTOR('',#771,10.);
#214=VECTOR('',#772,10.);
#215=VECTOR('',#775,10.);
#216=VECTOR('',#776,10.);
#217=VECTOR('',#779,10.);
#218=VECTOR('',#780,10.);
#219=VECTOR('',#781,10.);
#220=VECTOR('',#786,10.);
#221=B_SPLINE_CURVE_WITH_KNOTS('',3,(#793,#794,#795,#796,#797,#798,#799,
#800,#801,#802),.UNSPECIFIED.,.F.,.F.,(4,2,2,2,4),(0.635760795566921,0.662401052324332,
0.708251531958139,0.754102011591945,0.797144807609831),.UNSPECIFIED.);
#222=B_SPLINE_CURVE_WITH_KNOTS('',3,(#806,#807,#808,#809,#810,#811,#812,
#813,#814,#815),.UNSPECIFIED.,.F.,.F.,(4,2,2,2,4),(1.11540829189743,1.15845108791532,
1.20430156754913,1.25015204718293,1.27679230394034),.UNSPECIFIED.);
#223=B_SPLINE_CURVE_WITH_KNOTS('',3,(#845,#846,#847,#848,#849,#850,#851,
#852,#853,#854),.UNSPECIFIED.,.F.,.F.,(4,2,2,2,4),(-0.320515755450938,-0.2938754974293,
-0.248025017795494,-0.202174538161688,-0.159131742143801),.UNSPECIFIED.);
#224=B_SPLINE_CURVE_WITH_KNOTS('',3,(#867,#868,#869,#870,#871,#872,#873,
#874,#875,#876),.UNSPECIFIED.,.F.,.F.,(4,2,2,2,4),(0.159131742143801,0.202174538161688,
0.248025017795494,0.2938754974293,0.320515754186711),.UNSPECIFIED.);
#225=VERTEX_POINT('',#791);
#226=VERTEX_POINT('',#792);
#227=VERTEX_POINT('',#803);
#228=VERTEX_POINT('',#805);
#229=VERTEX_POINT('',#816);
#230=VERTEX_POINT('',#818);
#231=VERTEX_POINT('',#822);
#232=VERTEX_POINT('',#824);
#233=VERTEX_POINT('',#828);
#234=VERTEX_POINT('',#830);
#235=VERTEX_POINT('',#832);
#236=VERTEX_POINT('',#834);
#237=VERTEX_POINT('',#838);
#238=VERTEX_POINT('',#840);
#239=VERTEX_POINT('',#842);
#240=VERTEX_POINT('',#844);
#241=VERTEX_POINT('',#855);
#242=VERTEX_POINT('',#859);
#243=VERTEX_POINT('',#860);
#244=VERTEX_POINT('',#862);
#245=VERTEX_POINT('',#865);
#246=VERTEX_POINT('',#878);
#247=VERTEX_POINT('',#880);
#248=VERTEX_POINT('',#884);
#249=VERTEX_POINT('',#886);
#250=VERTEX_POINT('',#888);
#251=VERTEX_POINT('',#890);
#252=VERTEX_POINT('',#894);
#253=VERTEX_POINT('',#897);
#254=VERTEX_POINT('',#899);
#255=VERTEX_POINT('',#903);
#256=VERTEX_POINT('',#905);
#257=VERTEX_POINT('',#907);
#258=VERTEX_POINT('',#911);
#259=VERTEX_POINT('',#913);
#260=VERTEX_POINT('',#917);
#261=VERTEX_POINT('',#919);
#262=VERTEX_POINT('',#923);
#263=VERTEX_POINT('',#942);
#264=VERTEX_POINT('',#944);
#265=VERTEX_POINT('',#948);
#266=VERTEX_POINT('',#949);
#267=VERTEX_POINT('',#951);
#268=VERTEX_POINT('',#953);
#269=VERTEX_POINT('',#957);
#270=VERTEX_POINT('',#959);
#271=VERTEX_POINT('',#963);
#272=VERTEX_POINT('',#965);
#273=VERTEX_POINT('',#967);
#274=VERTEX_POINT('',#972);
#275=VERTEX_POINT('',#976);
#276=VERTEX_POINT('',#981);
#277=EDGE_CURVE('',#225,#226,#221,.T.);
#278=EDGE_CURVE('',#226,#227,#117,.T.);
#279=EDGE_CURVE('',#227,#228,#222,.T.);
#280=EDGE_CURVE('',#228,#229,#93,.T.);
#281=EDGE_CURVE('',#229,#230,#118,.T.);
#282=EDGE_CURVE('',#230,#225,#94,.T.);
#283=EDGE_CURVE('',#229,#231,#95,.T.);
#284=EDGE_CURVE('',#231,#232,#119,.T.);
#285=EDGE_CURVE('',#230,#232,#96,.F.);
#286=EDGE_CURVE('',#233,#228,#120,.T.);
#287=EDGE_CURVE('',#233,#234,#97,.T.);
#288=EDGE_CURVE('',#234,#235,#121,.T.);
#289=EDGE_CURVE('',#236,#235,#98,.T.);
#290=EDGE_CURVE('',#236,#231,#99,.T.);
#291=EDGE_CURVE('',#227,#237,#100,.T.);
#292=EDGE_CURVE('',#237,#238,#122,.T.);
#293=EDGE_CURVE('',#238,#239,#101,.T.);
#294=EDGE_CURVE('',#240,#239,#223,.T.);
#295=EDGE_CURVE('',#240,#241,#123,.T.);
#296=EDGE_CURVE('',#241,#233,#124,.T.);
#297=EDGE_CURVE('',#242,#243,#102,.T.);
#298=EDGE_CURVE('',#243,#244,#125,.T.);
#299=EDGE_CURVE('',#244,#240,#103,.T.);
#300=EDGE_CURVE('',#239,#245,#126,.T.);
#301=EDGE_CURVE('',#245,#242,#224,.T.);
#302=EDGE_CURVE('',#246,#243,#104,.F.);
#303=EDGE_CURVE('',#246,#247,#127,.T.);
#304=EDGE_CURVE('',#247,#244,#105,.T.);
#305=EDGE_CURVE('',#248,#242,#128,.T.);
#306=EDGE_CURVE('',#248,#249,#106,.T.);
#307=EDGE_CURVE('',#249,#250,#129,.T.);
#308=EDGE_CURVE('',#251,#250,#107,.T.);
#309=EDGE_CURVE('',#251,#246,#108,.T.);
#310=EDGE_CURVE('',#225,#252,#130,.T.);
#311=EDGE_CURVE('',#252,#248,#131,.T.);
#312=EDGE_CURVE('',#245,#253,#109,.T.);
#313=EDGE_CURVE('',#253,#254,#132,.T.);
#314=EDGE_CURVE('',#254,#226,#110,.T.);
#315=EDGE_CURVE('',#247,#255,#111,.T.);
#316=EDGE_CURVE('',#256,#255,#112,.T.);
#317=EDGE_CURVE('',#256,#257,#133,.T.);
#318=EDGE_CURVE('',#257,#241,#113,.T.);
#319=EDGE_CURVE('',#253,#258,#134,.T.);
#320=EDGE_CURVE('',#258,#259,#135,.T.);
#321=EDGE_CURVE('',#259,#254,#136,.T.);
#322=EDGE_CURVE('',#235,#260,#137,.T.);
#323=EDGE_CURVE('',#260,#261,#114,.T.);
#324=EDGE_CURVE('',#261,#236,#138,.T.);
#325=EDGE_CURVE('',#234,#262,#139,.T.);
#326=EDGE_CURVE('',#260,#262,#140,.T.);
#327=EDGE_CURVE('',#250,#256,#141,.T.);
#328=EDGE_CURVE('',#255,#251,#142,.T.);
#329=EDGE_CURVE('',#252,#233,#143,.T.);
#330=EDGE_CURVE('',#262,#252,#115,.T.);
#331=EDGE_CURVE('',#232,#261,#116,.T.);
#332=EDGE_CURVE('',#257,#249,#144,.T.);
#333=EDGE_CURVE('',#248,#241,#145,.T.);
#334=EDGE_CURVE('',#237,#263,#146,.T.);
#335=EDGE_CURVE('',#263,#264,#147,.T.);
#336=EDGE_CURVE('',#264,#238,#148,.T.);
#337=EDGE_CURVE('',#265,#266,#149,.T.);
#338=EDGE_CURVE('',#267,#265,#150,.T.);
#339=EDGE_CURVE('',#268,#267,#151,.T.);
#340=EDGE_CURVE('',#266,#268,#152,.T.);
#341=EDGE_CURVE('',#269,#265,#153,.T.);
#342=EDGE_CURVE('',#270,#269,#154,.T.);
#343=EDGE_CURVE('',#270,#267,#155,.T.);
#344=EDGE_CURVE('',#271,#259,#156,.T.);
#345=EDGE_CURVE('',#272,#271,#157,.T.);
#346=EDGE_CURVE('',#272,#273,#158,.T.);
#347=EDGE_CURVE('',#269,#273,#159,.T.);
#348=EDGE_CURVE('',#263,#266,#160,.T.);
#349=EDGE_CURVE('',#274,#273,#161,.T.);
#350=EDGE_CURVE('',#274,#270,#162,.T.);
#351=EDGE_CURVE('',#275,#272,#163,.T.);
#352=EDGE_CURVE('',#275,#274,#164,.T.);
#353=EDGE_CURVE('',#264,#268,#165,.T.);
#354=EDGE_CURVE('',#276,#275,#166,.T.);
#355=EDGE_CURVE('',#276,#258,#167,.T.);
#356=EDGE_CURVE('',#271,#276,#168,.T.);
#357=ORIENTED_EDGE('',*,*,#277,.T.);
#358=ORIENTED_EDGE('',*,*,#278,.T.);
#359=ORIENTED_EDGE('',*,*,#279,.T.);
#360=ORIENTED_EDGE('',*,*,#280,.T.);
#361=ORIENTED_EDGE('',*,*,#281,.T.);
#362=ORIENTED_EDGE('',*,*,#282,.T.);
#363=ORIENTED_EDGE('',*,*,#281,.F.);
#364=ORIENTED_EDGE('',*,*,#283,.T.);
#365=ORIENTED_EDGE('',*,*,#284,.T.);
#366=ORIENTED_EDGE('',*,*,#285,.F.);
#367=ORIENTED_EDGE('',*,*,#280,.F.);
#368=ORIENTED_EDGE('',*,*,#286,.F.);
#369=ORIENTED_EDGE('',*,*,#287,.T.);
#370=ORIENTED_EDGE('',*,*,#288,.T.);
#371=ORIENTED_EDGE('',*,*,#289,.F.);
#372=ORIENTED_EDGE('',*,*,#290,.T.);
#373=ORIENTED_EDGE('',*,*,#283,.F.);
#374=ORIENTED_EDGE('',*,*,#279,.F.);
#375=ORIENTED_EDGE('',*,*,#291,.T.);
#376=ORIENTED_EDGE('',*,*,#292,.T.);
#377=ORIENTED_EDGE('',*,*,#293,.T.);
#378=ORIENTED_EDGE('',*,*,#294,.F.);
#379=ORIENTED_EDGE('',*,*,#295,.T.);
#380=ORIENTED_EDGE('',*,*,#296,.T.);
#381=ORIENTED_EDGE('',*,*,#286,.T.);
#382=ORIENTED_EDGE('',*,*,#297,.T.);
#383=ORIENTED_EDGE('',*,*,#298,.T.);
#384=ORIENTED_EDGE('',*,*,#299,.T.);
#385=ORIENTED_EDGE('',*,*,#294,.T.);
#386=ORIENTED_EDGE('',*,*,#300,.T.);
#387=ORIENTED_EDGE('',*,*,#301,.T.);
#388=ORIENTED_EDGE('',*,*,#298,.F.);
#389=ORIENTED_EDGE('',*,*,#302,.F.);
#390=ORIENTED_EDGE('',*,*,#303,.T.);
#391=ORIENTED_EDGE('',*,*,#304,.T.);
#392=ORIENTED_EDGE('',*,*,#297,.F.);
#393=ORIENTED_EDGE('',*,*,#305,.F.);
#394=ORIENTED_EDGE('',*,*,#306,.T.);
#395=ORIENTED_EDGE('',*,*,#307,.T.);
#396=ORIENTED_EDGE('',*,*,#308,.F.);
#397=ORIENTED_EDGE('',*,*,#309,.T.);
#398=ORIENTED_EDGE('',*,*,#302,.T.);
#399=ORIENTED_EDGE('',*,*,#277,.F.);
#400=ORIENTED_EDGE('',*,*,#310,.T.);
#401=ORIENTED_EDGE('',*,*,#311,.T.);
#402=ORIENTED_EDGE('',*,*,#305,.T.);
#403=ORIENTED_EDGE('',*,*,#301,.F.);
#404=ORIENTED_EDGE('',*,*,#312,.T.);
#405=ORIENTED_EDGE('',*,*,#313,.T.);
#406=ORIENTED_EDGE('',*,*,#314,.T.);
#407=ORIENTED_EDGE('',*,*,#299,.F.);
#408=ORIENTED_EDGE('',*,*,#304,.F.);
#409=ORIENTED_EDGE('',*,*,#315,.T.);
#410=ORIENTED_EDGE('',*,*,#316,.F.);
#411=ORIENTED_EDGE('',*,*,#317,.T.);
#412=ORIENTED_EDGE('',*,*,#318,.T.);
#413=ORIENTED_EDGE('',*,*,#295,.F.);
#414=ORIENTED_EDGE('',*,*,#313,.F.);
#415=ORIENTED_EDGE('',*,*,#319,.T.);
#416=ORIENTED_EDGE('',*,*,#320,.T.);
#417=ORIENTED_EDGE('',*,*,#321,.T.);
#418=ORIENTED_EDGE('',*,*,#289,.T.);
#419=ORIENTED_EDGE('',*,*,#322,.T.);
#420=ORIENTED_EDGE('',*,*,#323,.T.);
#421=ORIENTED_EDGE('',*,*,#324,.T.);
#422=ORIENTED_EDGE('',*,*,#322,.F.);
#423=ORIENTED_EDGE('',*,*,#288,.F.);
#424=ORIENTED_EDGE('',*,*,#325,.T.);
#425=ORIENTED_EDGE('',*,*,#326,.F.);
#426=ORIENTED_EDGE('',*,*,#308,.T.);
#427=ORIENTED_EDGE('',*,*,#327,.T.);
#428=ORIENTED_EDGE('',*,*,#316,.T.);
#429=ORIENTED_EDGE('',*,*,#328,.T.);
#430=ORIENTED_EDGE('',*,*,#303,.F.);
#431=ORIENTED_EDGE('',*,*,#309,.F.);
#432=ORIENTED_EDGE('',*,*,#328,.F.);
#433=ORIENTED_EDGE('',*,*,#315,.F.);
#434=ORIENTED_EDGE('',*,*,#329,.F.);
#435=ORIENTED_EDGE('',*,*,#330,.F.);
#436=ORIENTED_EDGE('',*,*,#325,.F.);
#437=ORIENTED_EDGE('',*,*,#287,.F.);
#438=ORIENTED_EDGE('',*,*,#284,.F.);
#439=ORIENTED_EDGE('',*,*,#290,.F.);
#440=ORIENTED_EDGE('',*,*,#324,.F.);
#441=ORIENTED_EDGE('',*,*,#331,.F.);
#442=ORIENTED_EDGE('',*,*,#327,.F.);
#443=ORIENTED_EDGE('',*,*,#307,.F.);
#444=ORIENTED_EDGE('',*,*,#332,.F.);
#445=ORIENTED_EDGE('',*,*,#317,.F.);
#446=ORIENTED_EDGE('',*,*,#332,.T.);
#447=ORIENTED_EDGE('',*,*,#306,.F.);
#448=ORIENTED_EDGE('',*,*,#333,.T.);
#449=ORIENTED_EDGE('',*,*,#318,.F.);
#450=ORIENTED_EDGE('',*,*,#333,.F.);
#451=ORIENTED_EDGE('',*,*,#311,.F.);
#452=ORIENTED_EDGE('',*,*,#329,.T.);
#453=ORIENTED_EDGE('',*,*,#296,.F.);
#454=ORIENTED_EDGE('',*,*,#282,.F.);
#455=ORIENTED_EDGE('',*,*,#285,.T.);
#456=ORIENTED_EDGE('',*,*,#331,.T.);
#457=ORIENTED_EDGE('',*,*,#323,.F.);
#458=ORIENTED_EDGE('',*,*,#326,.T.);
#459=ORIENTED_EDGE('',*,*,#330,.T.);
#460=ORIENTED_EDGE('',*,*,#310,.F.);
#461=ORIENTED_EDGE('',*,*,#292,.F.);
#462=ORIENTED_EDGE('',*,*,#334,.T.);
#463=ORIENTED_EDGE('',*,*,#335,.T.);
#464=ORIENTED_EDGE('',*,*,#336,.T.);
#465=ORIENTED_EDGE('',*,*,#337,.F.);
#466=ORIENTED_EDGE('',*,*,#338,.F.);
#467=ORIENTED_EDGE('',*,*,#339,.F.);
#468=ORIENTED_EDGE('',*,*,#340,.F.);
#469=ORIENTED_EDGE('',*,*,#338,.T.);
#470=ORIENTED_EDGE('',*,*,#341,.F.);
#471=ORIENTED_EDGE('',*,*,#342,.F.);
#472=ORIENTED_EDGE('',*,*,#343,.T.);
#473=ORIENTED_EDGE('',*,*,#278,.F.);
#474=ORIENTED_EDGE('',*,*,#314,.F.);
#475=ORIENTED_EDGE('',*,*,#321,.F.);
#476=ORIENTED_EDGE('',*,*,#344,.F.);
#477=ORIENTED_EDGE('',*,*,#345,.F.);
#478=ORIENTED_EDGE('',*,*,#346,.T.);
#479=ORIENTED_EDGE('',*,*,#347,.F.);
#480=ORIENTED_EDGE('',*,*,#341,.T.);
#481=ORIENTED_EDGE('',*,*,#337,.T.);
#482=ORIENTED_EDGE('',*,*,#348,.F.);
#483=ORIENTED_EDGE('',*,*,#334,.F.);
#484=ORIENTED_EDGE('',*,*,#291,.F.);
#485=ORIENTED_EDGE('',*,*,#349,.F.);
#486=ORIENTED_EDGE('',*,*,#350,.T.);
#487=ORIENTED_EDGE('',*,*,#342,.T.);
#488=ORIENTED_EDGE('',*,*,#347,.T.);
#489=ORIENTED_EDGE('',*,*,#349,.T.);
#490=ORIENTED_EDGE('',*,*,#346,.F.);
#491=ORIENTED_EDGE('',*,*,#351,.F.);
#492=ORIENTED_EDGE('',*,*,#352,.T.);
#493=ORIENTED_EDGE('',*,*,#300,.F.);
#494=ORIENTED_EDGE('',*,*,#293,.F.);
#495=ORIENTED_EDGE('',*,*,#336,.F.);
#496=ORIENTED_EDGE('',*,*,#353,.T.);
#497=ORIENTED_EDGE('',*,*,#339,.T.);
#498=ORIENTED_EDGE('',*,*,#343,.F.);
#499=ORIENTED_EDGE('',*,*,#350,.F.);
#500=ORIENTED_EDGE('',*,*,#352,.F.);
#501=ORIENTED_EDGE('',*,*,#354,.F.);
#502=ORIENTED_EDGE('',*,*,#355,.T.);
#503=ORIENTED_EDGE('',*,*,#319,.F.);
#504=ORIENTED_EDGE('',*,*,#312,.F.);
#505=ORIENTED_EDGE('',*,*,#340,.T.);
#506=ORIENTED_EDGE('',*,*,#353,.F.);
#507=ORIENTED_EDGE('',*,*,#335,.F.);
#508=ORIENTED_EDGE('',*,*,#348,.T.);
#509=ORIENTED_EDGE('',*,*,#356,.F.);
#510=ORIENTED_EDGE('',*,*,#344,.T.);
#511=ORIENTED_EDGE('',*,*,#320,.F.);
#512=ORIENTED_EDGE('',*,*,#355,.F.);
#513=ORIENTED_EDGE('',*,*,#354,.T.);
#514=ORIENTED_EDGE('',*,*,#351,.T.);
#515=ORIENTED_EDGE('',*,*,#345,.T.);
#516=ORIENTED_EDGE('',*,*,#356,.T.);
#517=CYLINDRICAL_SURFACE('',#573,2.);
#518=CYLINDRICAL_SURFACE('',#576,50.);
#519=CYLINDRICAL_SURFACE('',#583,2.);
#520=CYLINDRICAL_SURFACE('',#586,2.);
#521=CYLINDRICAL_SURFACE('',#589,50.);
#522=CYLINDRICAL_SURFACE('',#596,2.);
#523=CYLINDRICAL_SURFACE('',#604,0.5);
#524=CYLINDRICAL_SURFACE('',#607,0.5);
#525=CYLINDRICAL_SURFACE('',#608,2.75);
#526=CYLINDRICAL_SURFACE('',#609,1.5);
#527=CYLINDRICAL_SURFACE('',#611,2.75);
#528=CYLINDRICAL_SURFACE('',#614,1.5);
#529=ADVANCED_FACE('',(#33),#517,.T.);
#530=ADVANCED_FACE('',(#34),#518,.F.);
#531=ADVANCED_FACE('',(#35),#15,.F.);
#532=ADVANCED_FACE('',(#36),#519,.F.);
#533=ADVANCED_FACE('',(#37),#520,.T.);
#534=ADVANCED_FACE('',(#38),#521,.F.);
#535=ADVANCED_FACE('',(#39),#16,.T.);
#536=ADVANCED_FACE('',(#40),#522,.F.);
#537=ADVANCED_FACE('',(#41),#17,.F.);
#538=ADVANCED_FACE('',(#42),#18,.T.);
#539=ADVANCED_FACE('',(#43),#523,.T.);
#540=ADVANCED_FACE('',(#44),#19,.T.);
#541=ADVANCED_FACE('',(#45),#524,.T.);
#542=ADVANCED_FACE('',(#46),#525,.T.);
#543=ADVANCED_FACE('',(#47),#526,.F.);
#544=ADVANCED_FACE('',(#48),#527,.T.);
#545=ADVANCED_FACE('',(#49),#20,.T.);
#546=ADVANCED_FACE('',(#50),#528,.F.);
#547=ADVANCED_FACE('',(#51),#21,.T.);
#548=ADVANCED_FACE('',(#52),#22,.T.);
#549=ADVANCED_FACE('',(#53),#23,.T.);
#550=ADVANCED_FACE('',(#54),#24,.F.);
#551=ADVANCED_FACE('',(#55),#25,.T.);
#552=ADVANCED_FACE('',(#56),#26,.T.);
#553=ADVANCED_FACE('',(#57),#27,.T.);
#554=ADVANCED_FACE('',(#58),#28,.T.);
#555=ADVANCED_FACE('',(#59),#29,.T.);
#556=ADVANCED_FACE('',(#60),#30,.T.);
#557=ADVANCED_FACE('',(#61),#31,.T.);
#558=ADVANCED_FACE('',(#62),#32,.F.);
#559=CLOSED_SHELL('',(#529,#530,#531,#532,#533,#534,#535,#536,#537,#538,
#539,#540,#541,#542,#543,#544,#545,#546,#547,#548,#549,#550,#551,#552,#553,
#554,#555,#556,#557,#558));
#560=DERIVED_UNIT_ELEMENT(#562,1.);
#561=DERIVED_UNIT_ELEMENT(#993,-3.);
#562=(
MASS_UNIT()
NAMED_UNIT(*)
SI_UNIT(.KILO.,.GRAM.)
);
#563=DERIVED_UNIT((#560,#561));
#564=MEASURE_REPRESENTATION_ITEM('density measure',
POSITIVE_RATIO_MEASURE(7850.),#563);
#565=PROPERTY_DEFINITION_REPRESENTATION(#570,#567);
#566=PROPERTY_DEFINITION_REPRESENTATION(#571,#568);
#567=REPRESENTATION('material name',(#569),#990);
#568=REPRESENTATION('density',(#564),#990);
#569=DESCRIPTIVE_REPRESENTATION_ITEM('Steel','Steel');
#570=PROPERTY_DEFINITION('material property','material name',#1000);
#571=PROPERTY_DEFINITION('material property','density of part',#1000);
#572=AXIS2_PLACEMENT_3D('',#789,#627,#628);
#573=AXIS2_PLACEMENT_3D('',#790,#629,#630);
#574=AXIS2_PLACEMENT_3D('',#817,#632,#633);
#575=AXIS2_PLACEMENT_3D('',#820,#635,#636);
#576=AXIS2_PLACEMENT_3D('',#821,#637,#638);
#577=AXIS2_PLACEMENT_3D('',#823,#639,#640);
#578=AXIS2_PLACEMENT_3D('',#826,#642,#643);
#579=AXIS2_PLACEMENT_3D('',#827,#644,#645);
#580=AXIS2_PLACEMENT_3D('',#831,#647,#648);
#581=AXIS2_PLACEMENT_3D('',#835,#650,#651);
#582=AXIS2_PLACEMENT_3D('',#836,#652,#653);
#583=AXIS2_PLACEMENT_3D('',#837,#654,#655);
#584=AXIS2_PLACEMENT_3D('',#839,#656,#657);
#585=AXIS2_PLACEMENT_3D('',#843,#659,#660);
#586=AXIS2_PLACEMENT_3D('',#858,#663,#664);
#587=AXIS2_PLACEMENT_3D('',#861,#665,#666);
#588=AXIS2_PLACEMENT_3D('',#864,#668,#669);
#589=AXIS2_PLACEMENT_3D('',#877,#671,#672);
#590=AXIS2_PLACEMENT_3D('',#879,#673,#674);
#591=AXIS2_PLACEMENT_3D('',#882,#676,#677);
#592=AXIS2_PLACEMENT_3D('',#883,#678,#679);
#593=AXIS2_PLACEMENT_3D('',#887,#681,#682);
#594=AXIS2_PLACEMENT_3D('',#891,#684,#685);
#595=AXIS2_PLACEMENT_3D('',#892,#686,#687);
#596=AXIS2_PLACEMENT_3D('',#893,#688,#689);
#597=AXIS2_PLACEMENT_3D('',#898,#692,#693);
#598=AXIS2_PLACEMENT_3D('',#901,#695,#696);
#599=AXIS2_PLACEMENT_3D('',#902,#697,#698);
#600=AXIS2_PLACEMENT_3D('',#904,#699,#700);
#601=AXIS2_PLACEMENT_3D('',#906,#701,#702);
#602=AXIS2_PLACEMENT_3D('',#909,#704,#705);
#603=AXIS2_PLACEMENT_3D('',#910,#706,#707);
#604=AXIS2_PLACEMENT_3D('',#916,#711,#712);
#605=AXIS2_PLACEMENT_3D('',#920,#714,#715);
#606=AXIS2_PLACEMENT_3D('',#922,#717,#718);
#607=AXIS2_PLACEMENT_3D('',#926,#721,#722);
#608=AXIS2_PLACEMENT_3D('',#929,#725,#726);
#609=AXIS2_PLACEMENT_3D('',#930,#727,#728);
#610=AXIS2_PLACEMENT_3D('',#932,#730,#731);
#611=AXIS2_PLACEMENT_3D('',#933,#732,#733);
#612=AXIS2_PLACEMENT_3D('',#934,#734,#735);
#613=AXIS2_PLACEMENT_3D('',#935,#736,#737);
#614=AXIS2_PLACEMENT_3D('',#937,#739,#740);
#615=AXIS2_PLACEMENT_3D('',#939,#742,#743);
#616=AXIS2_PLACEMENT_3D('',#940,#744,#745);
#617=AXIS2_PLACEMENT_3D('',#941,#746,#747);
#618=AXIS2_PLACEMENT_3D('',#947,#751,#752);
#619=AXIS2_PLACEMENT_3D('',#956,#757,#758);
#620=AXIS2_PLACEMENT_3D('',#962,#762,#763);
#621=AXIS2_PLACEMENT_3D('',#971,#769,#770);
#622=AXIS2_PLACEMENT_3D('',#975,#773,#774);
#623=AXIS2_PLACEMENT_3D('',#979,#777,#778);
#624=AXIS2_PLACEMENT_3D('',#984,#782,#783);
#625=AXIS2_PLACEMENT_3D('',#985,#784,#785);
#626=AXIS2_PLACEMENT_3D('',#987,#787,#788);
#627=DIRECTION('axis',(0.,0.,1.));
#628=DIRECTION('refdir',(1.,0.,0.));
#629=DIRECTION('center_axis',(1.,0.,0.));
#630=DIRECTION('ref_axis',(0.,0.826676924352039,0.562676872408893));
#631=DIRECTION('',(-1.,0.,0.));
#632=DIRECTION('center_axis',(1.,0.,0.));
#633=DIRECTION('ref_axis',(0.,0.826676924352039,0.562676872408893));
#634=DIRECTION('',(1.,0.,0.));
#635=DIRECTION('center_axis',(-1.,0.,0.));
#636=DIRECTION('ref_axis',(0.,0.826676924352039,0.562676872408893));
#637=DIRECTION('center_axis',(-1.,0.,0.));
#638=DIRECTION('ref_axis',(0.,-0.506124221320174,-0.862460591907275));
#639=DIRECTION('center_axis',(-1.,0.,0.));
#640=DIRECTION('ref_axis',(0.,-0.506124221320174,-0.862460591907275));
#641=DIRECTION('',(1.,0.,0.));
#642=DIRECTION('center_axis',(1.,0.,0.));
#643=DIRECTION('ref_axis',(0.,-0.506124221320174,-0.862460591907275));
#644=DIRECTION('center_axis',(1.,0.,0.));
#645=DIRECTION('ref_axis',(0.,1.,0.));
#646=DIRECTION('',(0.,1.,0.));
#647=DIRECTION('center_axis',(1.,0.,0.));
#648=DIRECTION('ref_axis',(0.,1.,0.));
#649=DIRECTION('',(0.,-5.61419586652116E-16,1.));
#650=DIRECTION('center_axis',(1.,0.,0.));
#651=DIRECTION('ref_axis',(0.,-0.623609564462323,0.781735959970572));
#652=DIRECTION('center_axis',(-1.,0.,0.));
#653=DIRECTION('ref_axis',(0.,1.,0.));
#654=DIRECTION('center_axis',(0.,1.,0.));
#655=DIRECTION('ref_axis',(0.707106781186547,0.,-0.707106781186548));
#656=DIRECTION('center_axis',(0.,1.,0.));
#657=DIRECTION('ref_axis',(0.707106781186547,0.,-0.707106781186548));
#658=DIRECTION('',(0.,-1.,0.));
#659=DIRECTION('center_axis',(0.,-1.,0.));
#660=DIRECTION('ref_axis',(0.707106781186547,0.,-0.707106781186548));
#661=DIRECTION('',(0.,1.,0.));
#662=DIRECTION('',(0.,1.,0.));
#663=DIRECTION('center_axis',(1.,0.,0.));
#664=DIRECTION('ref_axis',(0.,-0.826676924352039,0.562676872408893));
#665=DIRECTION('center_axis',(-1.,0.,0.));
#666=DIRECTION('ref_axis',(0.,-0.826676924352039,0.562676872408893));
#667=DIRECTION('',(-1.,0.,0.));
#668=DIRECTION('center_axis',(1.,0.,0.));
#669=DIRECTION('ref_axis',(0.,-0.826676924352039,0.562676872408893));
#670=DIRECTION('',(1.,0.,0.));
#671=DIRECTION('center_axis',(1.,0.,0.));
#672=DIRECTION('ref_axis',(0.,0.506124221320174,-0.862460591907275));
#673=DIRECTION('center_axis',(1.,0.,0.));
#674=DIRECTION('ref_axis',(0.,0.506124221320174,-0.862460591907275));
#675=DIRECTION('',(-1.,0.,0.));
#676=DIRECTION('center_axis',(-1.,0.,0.));
#677=DIRECTION('ref_axis',(0.,0.506124221320174,-0.862460591907275));
#678=DIRECTION('center_axis',(1.,0.,0.));
#679=DIRECTION('ref_axis',(0.,1.,0.));
#680=DIRECTION('',(0.,-1.,0.));
#681=DIRECTION('center_axis',(-1.,0.,0.));
#682=DIRECTION('ref_axis',(0.,1.,0.));
#683=DIRECTION('',(0.,0.,1.));
#684=DIRECTION('center_axis',(-1.,0.,0.));
#685=DIRECTION('ref_axis',(0.,0.623609564462322,0.781735959970573));
#686=DIRECTION('center_axis',(1.,0.,0.));
#687=DIRECTION('ref_axis',(0.,1.,0.));
#688=DIRECTION('center_axis',(0.,-1.,0.));
#689=DIRECTION('ref_axis',(-0.707106781186548,0.,-0.707106781186547));
#690=DIRECTION('',(0.,-1.,0.));
#691=DIRECTION('',(0.,-1.,0.));
#692=DIRECTION('center_axis',(0.,-1.,0.));
#693=DIRECTION('ref_axis',(-0.707106781186548,0.,-0.707106781186547));
#694=DIRECTION('',(0.,1.,0.));
#695=DIRECTION('center_axis',(0.,1.,0.));
#696=DIRECTION('ref_axis',(-0.707106781186548,0.,-0.707106781186547));
#697=DIRECTION('center_axis',(1.,0.,0.));
#698=DIRECTION('ref_axis',(0.,1.,0.));
#699=DIRECTION('center_axis',(-1.,0.,0.));
#700=DIRECTION('ref_axis',(0.,1.,0.));
#701=DIRECTION('center_axis',(1.,0.,0.));
#702=DIRECTION('ref_axis',(0.,0.623609564462322,0.781735959970573));
#703=DIRECTION('',(0.,0.,-1.));
#704=DIRECTION('center_axis',(1.,0.,0.));
#705=DIRECTION('ref_axis',(0.,1.,0.));
#706=DIRECTION('center_axis',(0.,0.,1.));
#707=DIRECTION('ref_axis',(1.,0.,0.));
#708=DIRECTION('',(1.,0.,0.));
#709=DIRECTION('',(0.,1.,0.));
#710=DIRECTION('',(-1.,0.,0.));
#711=DIRECTION('center_axis',(-1.,0.,0.));
#712=DIRECTION('ref_axis',(0.,-0.623609564462323,0.781735959970572));
#713=DIRECTION('',(1.,0.,0.));
#714=DIRECTION('center_axis',(-1.,0.,0.));
#715=DIRECTION('ref_axis',(0.,-0.623609564462323,0.781735959970572));
#716=DIRECTION('',(-1.,0.,0.));
#717=DIRECTION('center_axis',(0.,-1.,-5.61419586652116E-16));
#718=DIRECTION('ref_axis',(0.,5.61419586652116E-16,-1.));
#719=DIRECTION('',(1.,0.,0.));
#720=DIRECTION('',(0.,5.61419586652116E-16,-1.));
#721=DIRECTION('center_axis',(1.,0.,0.));
#722=DIRECTION('ref_axis',(0.,0.623609564462322,0.781735959970573));
#723=DIRECTION('',(-1.,0.,0.));
#724=DIRECTION('',(1.,0.,0.));
#725=DIRECTION('center_axis',(1.,0.,0.));
#726=DIRECTION('ref_axis',(0.,1.,0.));
#727=DIRECTION('center_axis',(1.,0.,0.));
#728=DIRECTION('ref_axis',(0.,1.,0.));
#729=DIRECTION('',(-1.,0.,0.));
#730=DIRECTION('center_axis',(-1.,0.,0.));
#731=DIRECTION('ref_axis',(0.,1.,0.));
#732=DIRECTION('center_axis',(1.,0.,0.));
#733=DIRECTION('ref_axis',(0.,1.,0.));
#734=DIRECTION('center_axis',(1.,0.,0.));
#735=DIRECTION('ref_axis',(0.,1.,0.));
#736=DIRECTION('center_axis',(0.,1.,0.));
#737=DIRECTION('ref_axis',(0.,0.,1.));
#738=DIRECTION('',(1.,0.,0.));
#739=DIRECTION('center_axis',(1.,0.,0.));
#740=DIRECTION('ref_axis',(0.,-1.,1.22464679914735E-16));
#741=DIRECTION('',(-1.,0.,0.));
#742=DIRECTION('center_axis',(0.,0.,1.));
#743=DIRECTION('ref_axis',(0.,-1.,0.));
#744=DIRECTION('center_axis',(1.,0.,0.));
#745=DIRECTION('ref_axis',(0.,1.,0.));
#746=DIRECTION('center_axis',(0.,0.,1.));
#747=DIRECTION('ref_axis',(1.,0.,0.));
#748=DIRECTION('',(-1.,0.,0.));
#749=DIRECTION('',(0.,-1.,0.));
#750=DIRECTION('',(1.,0.,0.));
#751=DIRECTION('center_axis',(0.,0.,1.));
#752=DIRECTION('ref_axis',(1.,0.,0.));
#753=DIRECTION('',(-1.,0.,0.));
#754=DIRECTION('',(0.,1.,0.));
#755=DIRECTION('',(1.,0.,0.));
#756=DIRECTION('',(0.,-1.,0.));
#757=DIRECTION('center_axis',(1.,0.,0.));
#758=DIRECTION('ref_axis',(0.,-1.,0.));
#759=DIRECTION('',(0.,0.,-1.));
#760=DIRECTION('',(0.,1.,0.));
#761=DIRECTION('',(0.,0.,-1.));
#762=DIRECTION('center_axis',(0.,1.,0.));
#763=DIRECTION('ref_axis',(-1.,0.,0.));
#764=DIRECTION('',(0.,0.,1.));
#765=DIRECTION('',(1.,0.,0.));
#766=DIRECTION('',(0.,0.,-1.));
#767=DIRECTION('',(-1.,0.,0.));
#768=DIRECTION('',(0.,0.,-1.));
#769=DIRECTION('center_axis',(0.,0.,1.));
#770=DIRECTION('ref_axis',(1.,0.,0.));
#771=DIRECTION('',(0.,1.,0.));
#772=DIRECTION('',(1.,0.,0.));
#773=DIRECTION('center_axis',(1.,0.,0.));
#774=DIRECTION('ref_axis',(0.,-1.,0.));
#775=DIRECTION('',(0.,1.,0.));
#776=DIRECTION('',(0.,0.,-1.));
#777=DIRECTION('center_axis',(0.,-1.,0.));
#778=DIRECTION('ref_axis',(1.,0.,0.));
#779=DIRECTION('',(0.,0.,-1.));
#780=DIRECTION('',(-1.,0.,0.));
#781=DIRECTION('',(0.,0.,1.));
#782=DIRECTION('center_axis',(-1.,0.,0.));
#783=DIRECTION('ref_axis',(0.,1.,0.));
#784=DIRECTION('center_axis',(1.,0.,0.));
#785=DIRECTION('ref_axis',(0.,1.,0.));
#786=DIRECTION('',(0.,-1.,0.));
#787=DIRECTION('center_axis',(0.,0.,1.));
#788=DIRECTION('ref_axis',(1.,0.,0.));
#789=CARTESIAN_POINT('',(0.,0.,0.));
#790=CARTESIAN_POINT('Origin',(-9.,8.,2.61898964925989));
#791=CARTESIAN_POINT('',(-7.5,9.44665490395902,4.));
#792=CARTESIAN_POINT('',(-6.94665490395902,10.,2.61898964925989));
#793=CARTESIAN_POINT('Ctrl Pts',(-7.5,9.44665490395902,4.));
#794=CARTESIAN_POINT('Ctrl Pts',(-7.5,9.50894628603636,3.93474767708419));
#795=CARTESIAN_POINT('Ctrl Pts',(-7.4967876699921,9.56633342436838,3.86575759141456));
#796=CARTESIAN_POINT('Ctrl Pts',(-7.47662690391072,9.70781921000785,3.67091619437269));
#797=CARTESIAN_POINT('Ctrl Pts',(-7.44938235685261,9.78870439264669,3.52745072581507));
#798=CARTESIAN_POINT('Ctrl Pts',(-7.35485533785112,9.90877570160296,3.23651708924986));
#799=CARTESIAN_POINT('Ctrl Pts',(-7.28706309687754,9.9483149532297,3.08936070233552));
#800=CARTESIAN_POINT('Ctrl Pts',(-7.13467039826341,9.99167024149925,2.83896712212356));
#801=CARTESIAN_POINT('Ctrl Pts',(-7.04676485957884,10.,2.72385820303643));
#802=CARTESIAN_POINT('Ctrl Pts',(-6.94665490395902,10.,2.61898964925989));
#803=CARTESIAN_POINT('',(-11.053345096041,10.,2.61898964925989));
#804=CARTESIAN_POINT('',(-9.,10.,2.61898964925989));
#805=CARTESIAN_POINT('',(-10.5,9.44665490395902,4.));
#806=CARTESIAN_POINT('Ctrl Pts',(-11.053345096041,10.,2.61898964925989));
#807=CARTESIAN_POINT('Ctrl Pts',(-10.9532351404212,10.,2.72385820303643));
#808=CARTESIAN_POINT('Ctrl Pts',(-10.8653296017366,9.99167024149925,2.83896712212356));
#809=CARTESIAN_POINT('Ctrl Pts',(-10.7129369031225,9.9483149532297,3.08936070233552));
#810=CARTESIAN_POINT('Ctrl Pts',(-10.6451446621489,9.90877570160296,3.23651708924987));
#811=CARTESIAN_POINT('Ctrl Pts',(-10.5506176431474,9.78870439264669,3.52745072581507));
#812=CARTESIAN_POINT('Ctrl Pts',(-10.5233730960893,9.70781921000785,3.67091619437269));
#813=CARTESIAN_POINT('Ctrl Pts',(-10.5032123300079,9.56633342436838,3.86575759141456));
#814=CARTESIAN_POINT('Ctrl Pts',(-10.5,9.50894628603636,3.93474767708419));
#815=CARTESIAN_POINT('Ctrl Pts',(-10.5,9.44665490395902,4.));
#816=CARTESIAN_POINT('',(-10.5,8.73357894902458,4.47959759440793));
#817=CARTESIAN_POINT('Origin',(-10.5,8.,2.61898964925989));
#818=CARTESIAN_POINT('',(-7.5,8.73357894902458,4.47959759440793));
#819=CARTESIAN_POINT('',(-9.,8.73357894902458,4.47959759440793));
#820=CARTESIAN_POINT('Origin',(-7.5,8.,2.61898964925989));
#821=CARTESIAN_POINT('Origin',(-9.,27.0730526746392,50.9947962231088));
#822=CARTESIAN_POINT('',(-10.5,1.76684160863048,7.87176662774501));
#823=CARTESIAN_POINT('Origin',(-10.5,27.0730526746392,50.9947962231088));
#824=CARTESIAN_POINT('',(-7.5,1.76684160863048,7.87176662774501));
#825=CARTESIAN_POINT('',(-9.,1.76684160863048,7.87176662774501));
#826=CARTESIAN_POINT('Origin',(-7.5,27.0730526746392,50.9947962231088));
#827=CARTESIAN_POINT('Origin',(-10.5,-0.375,5.5));
#828=CARTESIAN_POINT('',(-10.5,0.375000000000001,4.));
#829=CARTESIAN_POINT('',(-10.5,-0.1875,4.));
#830=CARTESIAN_POINT('',(-10.5,0.374999999999999,7.));
#831=CARTESIAN_POINT('Origin',(-10.5,0.375,5.5));
#832=CARTESIAN_POINT('',(-10.5,0.374999999999999,7.69374109684803));
#833=CARTESIAN_POINT('',(-10.5,0.374999999999994,16.5000002160668));
#834=CARTESIAN_POINT('',(-10.5,0.98611111111111,8.18123911836982));
#835=CARTESIAN_POINT('Origin',(-10.5,0.874999999999999,7.69374109684803));
#836=CARTESIAN_POINT('Origin',(-10.5,0.375,5.5));
#837=CARTESIAN_POINT('Origin',(-12.5,-0.1875,4.));
#838=CARTESIAN_POINT('',(-12.5,10.,2.));
#839=CARTESIAN_POINT('Origin',(-12.5,10.,4.));
#840=CARTESIAN_POINT('',(-12.5,-10.0000001490116,2.));
#841=CARTESIAN_POINT('',(-12.5,-0.1875,2.));
#842=CARTESIAN_POINT('',(-11.053345096041,-10.,2.61898964925989));
#843=CARTESIAN_POINT('Origin',(-12.5,-10.,4.));
#844=CARTESIAN_POINT('',(-10.5,-9.44665490395902,4.));
#845=CARTESIAN_POINT('Ctrl Pts',(-10.5,-9.44665490395902,4.));
#846=CARTESIAN_POINT('Ctrl Pts',(-10.5,-9.50894628429994,3.93474767890314));
#847=CARTESIAN_POINT('Ctrl Pts',(-10.5032123296563,-9.56633342190089,3.86575759481256));
#848=CARTESIAN_POINT('Ctrl Pts',(-10.5233730960893,-9.70781921000785,3.67091619437269));
#849=CARTESIAN_POINT('Ctrl Pts',(-10.5506176431474,-9.78870439264669,3.52745072581507));
#850=CARTESIAN_POINT('Ctrl Pts',(-10.6451446621489,-9.90877570160296,3.23651708924987));
#851=CARTESIAN_POINT('Ctrl Pts',(-10.7129369031225,-9.9483149532297,3.08936070233552));
#852=CARTESIAN_POINT('Ctrl Pts',(-10.8653296017366,-9.99167024149925,2.83896712212356));
#853=CARTESIAN_POINT('Ctrl Pts',(-10.9532351404211,-10.,2.72385820303643));
#854=CARTESIAN_POINT('Ctrl Pts',(-11.053345096041,-10.,2.61898964925989));
#855=CARTESIAN_POINT('',(-10.5,-0.375,4.));
#856=CARTESIAN_POINT('',(-10.5,-0.1875,4.));
#857=CARTESIAN_POINT('',(-10.5,-10.,4.));
#858=CARTESIAN_POINT('Origin',(-9.,-8.,2.61898964925989));
#859=CARTESIAN_POINT('',(-7.5,-9.44665490395902,4.));
#860=CARTESIAN_POINT('',(-7.5,-8.73357894902458,4.47959759440793));
#861=CARTESIAN_POINT('Origin',(-7.5,-8.,2.61898964925989));
#862=CARTESIAN_POINT('',(-10.5,-8.73357894902458,4.47959759440793));
#863=CARTESIAN_POINT('',(-9.,-8.73357894902458,4.47959759440793));
#864=CARTESIAN_POINT('Origin',(-10.5,-8.,2.61898964925989));
#865=CARTESIAN_POINT('',(-6.94665490395902,-10.,2.61898964925989));
#866=CARTESIAN_POINT('',(-9.,-10.,2.61898964925989));
#867=CARTESIAN_POINT('Ctrl Pts',(-6.94665490395902,-10.,2.61898964925989));
#868=CARTESIAN_POINT('Ctrl Pts',(-7.04676485957884,-10.,2.72385820303643));
#869=CARTESIAN_POINT('Ctrl Pts',(-7.13467039826341,-9.99167024149925,2.83896712212356));
#870=CARTESIAN_POINT('Ctrl Pts',(-7.28706309687754,-9.9483149532297,3.08936070233552));
#871=CARTESIAN_POINT('Ctrl Pts',(-7.35485533785112,-9.90877570160297,3.23651708924986));
#872=CARTESIAN_POINT('Ctrl Pts',(-7.44938235685261,-9.78870439264669,3.52745072581506));
#873=CARTESIAN_POINT('Ctrl Pts',(-7.47662690391072,-9.70781921000785,3.67091619437269));
#874=CARTESIAN_POINT('Ctrl Pts',(-7.4967876699921,-9.56633342436838,3.86575759141456));
#875=CARTESIAN_POINT('Ctrl Pts',(-7.5,-9.50894628603636,3.93474767708419));
#876=CARTESIAN_POINT('Ctrl Pts',(-7.5,-9.44665490395902,4.));
#877=CARTESIAN_POINT('Origin',(-9.,-27.0730526746392,50.9947962231088));
#878=CARTESIAN_POINT('',(-7.5,-1.76684160863048,7.87176662774501));
#879=CARTESIAN_POINT('Origin',(-7.5,-27.0730526746392,50.9947962231088));
#880=CARTESIAN_POINT('',(-10.5,-1.76684160863048,7.87176662774501));
#881=CARTESIAN_POINT('',(-9.,-1.76684160863048,7.87176662774501));
#882=CARTESIAN_POINT('Origin',(-10.5,-27.0730526746392,50.9947962231088));
#883=CARTESIAN_POINT('Origin',(-7.5,-0.375,5.5));
#884=CARTESIAN_POINT('',(-7.5,-0.375,4.));
#885=CARTESIAN_POINT('',(-7.5,-0.1875,4.));
#886=CARTESIAN_POINT('',(-7.5,-0.375,7.));
#887=CARTESIAN_POINT('Origin',(-7.5,-0.375,5.5));
#888=CARTESIAN_POINT('',(-7.5,-0.375,7.69374109684803));
#889=CARTESIAN_POINT('',(-7.5,-0.375,5.5));
#890=CARTESIAN_POINT('',(-7.5,-0.986111111111111,8.18123911836982));
#891=CARTESIAN_POINT('Origin',(-7.5,-0.875,7.69374109684803));
#892=CARTESIAN_POINT('Origin',(-7.5,-0.375,5.5));
#893=CARTESIAN_POINT('Origin',(-5.5,-0.1875,4.));
#894=CARTESIAN_POINT('',(-7.5,0.375000000000001,4.));
#895=CARTESIAN_POINT('',(-7.5,-0.1875,4.));
#896=CARTESIAN_POINT('',(-7.5,-10.,4.));
#897=CARTESIAN_POINT('',(-5.5,-10.0000001490116,2.));
#898=CARTESIAN_POINT('Origin',(-5.5,-10.,4.));
#899=CARTESIAN_POINT('',(-5.5,10.,2.));
#900=CARTESIAN_POINT('',(-5.5,-0.1875,2.));
#901=CARTESIAN_POINT('Origin',(-5.5,10.,4.));
#902=CARTESIAN_POINT('Origin',(-10.5,-0.375,5.5));
#903=CARTESIAN_POINT('',(-10.5,-0.986111111111111,8.18123911836982));
#904=CARTESIAN_POINT('Origin',(-10.5,-0.375,5.5));
#905=CARTESIAN_POINT('',(-10.5,-0.375,7.69374109684803));
#906=CARTESIAN_POINT('Origin',(-10.5,-0.875,7.69374109684803));
#907=CARTESIAN_POINT('',(-10.5,-0.375,7.));
#908=CARTESIAN_POINT('',(-10.5,-0.375,5.5));
#909=CARTESIAN_POINT('Origin',(-10.5,-0.375,5.5));
#910=CARTESIAN_POINT('Origin',(0.,0.,2.));
#911=CARTESIAN_POINT('',(12.5,-10.,2.));
#912=CARTESIAN_POINT('',(-14.5,-10.0000001490116,2.));
#913=CARTESIAN_POINT('',(12.5,10.,2.));
#914=CARTESIAN_POINT('',(12.5,10.,2.));
#915=CARTESIAN_POINT('',(-12.5,10.,2.));
#916=CARTESIAN_POINT('Origin',(-9.,0.874999999999999,7.69374109684803));
#917=CARTESIAN_POINT('',(-7.5,0.374999999999999,7.69374109684803));
#918=CARTESIAN_POINT('',(-9.,0.374999999999999,7.69374109684803));
#919=CARTESIAN_POINT('',(-7.5,0.98611111111111,8.18123911836982));
#920=CARTESIAN_POINT('Origin',(-7.5,0.874999999999999,7.69374109684803));
#921=CARTESIAN_POINT('',(-9.,0.98611111111111,8.18123911836982));
#922=CARTESIAN_POINT('Origin',(-9.,0.374999999999999,8.25));
#923=CARTESIAN_POINT('',(-7.5,0.374999999999999,7.));
#924=CARTESIAN_POINT('',(-9.,0.374999999999999,7.));
#925=CARTESIAN_POINT('',(-7.5,0.374999999999994,16.5000002160668));
#926=CARTESIAN_POINT('Origin',(-9.,-0.875,7.69374109684803));
#927=CARTESIAN_POINT('',(-9.,-0.375,7.69374109684803));
#928=CARTESIAN_POINT('',(-9.,-0.986111111111111,8.18123911836982));
#929=CARTESIAN_POINT('Origin',(-9.,-0.375,5.5));
#930=CARTESIAN_POINT('Origin',(-9.,0.375,5.5));
#931=CARTESIAN_POINT('',(-9.,0.375000000000001,4.));
#932=CARTESIAN_POINT('Origin',(-7.5,0.375,5.5));
#933=CARTESIAN_POINT('Origin',(-9.,0.375,5.5));
#934=CARTESIAN_POINT('Origin',(-7.5,0.375,5.5));
#935=CARTESIAN_POINT('Origin',(-9.,-0.375,7.));
#936=CARTESIAN_POINT('',(-9.,-0.375,7.));
#937=CARTESIAN_POINT('Origin',(-9.,-0.375,5.5));
#938=CARTESIAN_POINT('',(-9.,-0.375,4.));
#939=CARTESIAN_POINT('Origin',(-9.,0.375000000000001,4.));
#940=CARTESIAN_POINT('Origin',(-7.5,-0.375,5.5));
#941=CARTESIAN_POINT('Origin',(0.,0.,2.));
#942=CARTESIAN_POINT('',(-14.5,10.,2.));
#943=CARTESIAN_POINT('',(-12.5,10.,2.));
#944=CARTESIAN_POINT('',(-14.5,-10.0000001490116,2.));
#945=CARTESIAN_POINT('',(-14.5,10.,2.));
#946=CARTESIAN_POINT('',(-14.5,-10.0000001490116,2.));
#947=CARTESIAN_POINT('Origin',(-0.999999999999999,-7.45058059692383E-8,
-51.75));
#948=CARTESIAN_POINT('',(12.5,10.,-51.75));
#949=CARTESIAN_POINT('',(-14.5,10.,-51.75));
#950=CARTESIAN_POINT('',(5.75,10.,-51.75));
#951=CARTESIAN_POINT('',(12.5,-10.0000001490116,-51.75));
#952=CARTESIAN_POINT('',(12.5,4.9999999627471,-51.75));
#953=CARTESIAN_POINT('',(-14.5,-10.0000001490116,-51.75));
#954=CARTESIAN_POINT('',(-6.75,-10.,-51.75));
#955=CARTESIAN_POINT('',(-14.5,-5.00000011175871,-51.75));
#956=CARTESIAN_POINT('Origin',(12.5,10.,-50.));
#957=CARTESIAN_POINT('',(12.5,10.,-49.75));
#958=CARTESIAN_POINT('',(12.5,10.,-50.));
#959=CARTESIAN_POINT('',(12.5,-10.0000001490116,-49.75));
#960=CARTESIAN_POINT('',(12.5,-10.0000001490116,-49.75));
#961=CARTESIAN_POINT('',(12.5,-10.0000001490116,-50.));
#962=CARTESIAN_POINT('Origin',(12.5,10.,0.));
#963=CARTESIAN_POINT('',(12.5,10.,0.));
#964=CARTESIAN_POINT('',(12.5,10.,0.));
#965=CARTESIAN_POINT('',(-12.5,10.,0.));
#966=CARTESIAN_POINT('',(-12.5,10.,0.));
#967=CARTESIAN_POINT('',(-12.5,10.,-49.75));
#968=CARTESIAN_POINT('',(-12.5,10.,2.));
#969=CARTESIAN_POINT('',(12.5,10.,-49.75));
#970=CARTESIAN_POINT('',(-14.5,10.,2.));
#971=CARTESIAN_POINT('Origin',(-0.999999999999999,-7.45058059692383E-8,
-49.75));
#972=CARTESIAN_POINT('',(-12.5,-10.0000001490116,-49.75));
#973=CARTESIAN_POINT('',(-12.5,4.9999999627471,-49.75));
#974=CARTESIAN_POINT('',(-14.5,-10.0000001490116,-49.75));
#975=CARTESIAN_POINT('Origin',(-12.5,10.,2.));
#976=CARTESIAN_POINT('',(-12.5,-10.,0.));
#977=CARTESIAN_POINT('',(-12.5,-10.,0.));
#978=CARTESIAN_POINT('',(-12.5,-10.0000001490116,2.));
#979=CARTESIAN_POINT('Origin',(-12.5,-10.,0.));
#980=CARTESIAN_POINT('',(-14.5,-10.0000001490116,2.));
#981=CARTESIAN_POINT('',(12.5,-10.,0.));
#982=CARTESIAN_POINT('',(12.5,-10.,0.));
#983=CARTESIAN_POINT('',(12.5,-10.,0.));
#984=CARTESIAN_POINT('Origin',(-14.5,-10.0000001490116,2.));
#985=CARTESIAN_POINT('Origin',(12.5,-10.,0.));
#986=CARTESIAN_POINT('',(12.5,10.,0.));
#987=CARTESIAN_POINT('Origin',(0.,0.,0.));
#988=UNCERTAINTY_MEASURE_WITH_UNIT(LENGTH_MEASURE(0.01),#992,
'DISTANCE_ACCURACY_VALUE',
'Maximum model space distance between geometric entities at asserted c
onnectivities');
#989=UNCERTAINTY_MEASURE_WITH_UNIT(LENGTH_MEASURE(0.01),#992,
'DISTANCE_ACCURACY_VALUE',
'Maximum model space distance between geometric entities at asserted c
onnectivities');
#990=(
GEOMETRIC_REPRESENTATION_CONTEXT(3)
GLOBAL_UNCERTAINTY_ASSIGNED_CONTEXT((#988))
GLOBAL_UNIT_ASSIGNED_CONTEXT((#992,#994,#995))
REPRESENTATION_CONTEXT('','3D')
);
#991=(
GEOMETRIC_REPRESENTATION_CONTEXT(3)
GLOBAL_UNCERTAINTY_ASSIGNED_CONTEXT((#989))
GLOBAL_UNIT_ASSIGNED_CONTEXT((#992,#994,#995))
REPRESENTATION_CONTEXT('','3D')
);
#992=(
LENGTH_UNIT()
NAMED_UNIT(*)
SI_UNIT(.MILLI.,.METRE.)
);
#993=(
LENGTH_UNIT()
NAMED_UNIT(*)
SI_UNIT($,.METRE.)
);
#994=(
NAMED_UNIT(*)
PLANE_ANGLE_UNIT()
SI_UNIT($,.RADIAN.)
);
#995=(
NAMED_UNIT(*)
SI_UNIT($,.STERADIAN.)
SOLID_ANGLE_UNIT()
);
#996=SHAPE_DEFINITION_REPRESENTATION(#997,#998);
#997=PRODUCT_DEFINITION_SHAPE('',$,#1000);
#998=SHAPE_REPRESENTATION('',(#572),#990);
#999=PRODUCT_DEFINITION_CONTEXT('part definition',#1004,'design');
#1000=PRODUCT_DEFINITION('LACK Controller Wire Holder',
'LACK Controller Wire Holder v4',#1001,#999);
#1001=PRODUCT_DEFINITION_FORMATION('',$,#1006);
#1002=PRODUCT_RELATED_PRODUCT_CATEGORY('LACK Controller Wire Holder v4',
'LACK Controller Wire Holder v4',(#1006));
#1003=APPLICATION_PROTOCOL_DEFINITION('international standard',
'automotive_design',2009,#1004);
#1004=APPLICATION_CONTEXT(
'Core Data for Automotive Mechanical Design Process');
#1005=PRODUCT_CONTEXT('part definition',#1004,'mechanical');
#1006=PRODUCT('LACK Controller Wire Holder',
'LACK Controller Wire Holder v4',$,(#1005));
#1007=PRESENTATION_STYLE_ASSIGNMENT((#1009));
#1008=PRESENTATION_STYLE_ASSIGNMENT((#1010));
#1009=SURFACE_STYLE_USAGE(.BOTH.,#1011);
#1010=SURFACE_STYLE_USAGE(.BOTH.,#1012);
#1011=SURFACE_SIDE_STYLE('',(#1013));
#1012=SURFACE_SIDE_STYLE('',(#1014));
#1013=SURFACE_STYLE_FILL_AREA(#1015);
#1014=SURFACE_STYLE_FILL_AREA(#1016);
#1015=FILL_AREA_STYLE('Steel - Satin',(#1017));
#1016=FILL_AREA_STYLE('Powder Coat - Rough (Black)',(#1018));
#1017=FILL_AREA_STYLE_COLOUR('Steel - Satin',#1019);
#1018=FILL_AREA_STYLE_COLOUR('Powder Coat - Rough (Black)',#1020);
#1019=COLOUR_RGB('Steel - Satin',0.627450980392157,0.627450980392157,0.627450980392157);
#1020=COLOUR_RGB('Powder Coat - Rough (Black)',0.0705882352941176,0.529411764705882,
0.164705882352941);
ENDSEC;
END-ISO-10303-21;
