ISO-10303-21;
HEADER;
/* Generated by software containing ST-Developer
 * from STEP Tools, Inc. (www.steptools.com) 
 */

FILE_DESCRIPTION(
/* description */ (''),
/* implementation_level */ '2;1');

FILE_NAME(
/* name */ 'VIHALS Controller Top Wire Holder.step',
/* time_stamp */ '2026-03-25T02:16:52-04:00',
/* author */ (''),
/* organization */ (''),
/* preprocessor_version */ 'ST-DEVELOPER v20.1',
/* originating_system */ 'Autodesk Translation Framework v14.24.0.0',
/* authorisation */ '');

FILE_SCHEMA (('AUTOMOTIVE_DESIGN { 1 0 10303 214 3 1 1 }'));
ENDSEC;

DATA;
#10=MECHANICAL_DESIGN_GEOMETRIC_PRESENTATION_REPRESENTATION('',(#13),#723);
#11=SHAPE_REPRESENTATION_RELATIONSHIP('SRR','None',#730,#12);
#12=ADVANCED_BREP_SHAPE_REPRESENTATION('',(#14),#722);
#13=STYLED_ITEM('',(#740),#14);
#14=MANIFOLD_SOLID_BREP('Body1',#417);
#15=CONICAL_SURFACE('',#463,2.721,0.872664625997165);
#16=CONICAL_SURFACE('',#467,2.721,0.872664625997165);
#17=FACE_BOUND('',#58,.T.);
#18=FACE_BOUND('',#59,.T.);
#19=FACE_BOUND('',#77,.T.);
#20=FACE_BOUND('',#78,.T.);
#21=PLANE('',#434);
#22=PLANE('',#438);
#23=PLANE('',#439);
#24=PLANE('',#456);
#25=PLANE('',#459);
#26=PLANE('',#462);
#27=PLANE('',#471);
#28=PLANE('',#472);
#29=PLANE('',#473);
#30=PLANE('',#474);
#31=FACE_OUTER_BOUND('',#53,.T.);
#32=FACE_OUTER_BOUND('',#54,.T.);
#33=FACE_OUTER_BOUND('',#55,.T.);
#34=FACE_OUTER_BOUND('',#56,.T.);
#35=FACE_OUTER_BOUND('',#57,.T.);
#36=FACE_OUTER_BOUND('',#60,.T.);
#37=FACE_OUTER_BOUND('',#61,.T.);
#38=FACE_OUTER_BOUND('',#62,.T.);
#39=FACE_OUTER_BOUND('',#63,.T.);
#40=FACE_OUTER_BOUND('',#64,.T.);
#41=FACE_OUTER_BOUND('',#65,.T.);
#42=FACE_OUTER_BOUND('',#66,.T.);
#43=FACE_OUTER_BOUND('',#67,.T.);
#44=FACE_OUTER_BOUND('',#68,.T.);
#45=FACE_OUTER_BOUND('',#69,.T.);
#46=FACE_OUTER_BOUND('',#70,.T.);
#47=FACE_OUTER_BOUND('',#71,.T.);
#48=FACE_OUTER_BOUND('',#72,.T.);
#49=FACE_OUTER_BOUND('',#73,.T.);
#50=FACE_OUTER_BOUND('',#74,.T.);
#51=FACE_OUTER_BOUND('',#75,.T.);
#52=FACE_OUTER_BOUND('',#76,.T.);
#53=EDGE_LOOP('',(#269,#270,#271,#272));
#54=EDGE_LOOP('',(#273,#274,#275,#276));
#55=EDGE_LOOP('',(#277,#278,#279,#280));
#56=EDGE_LOOP('',(#281,#282,#283,#284));
#57=EDGE_LOOP('',(#285,#286,#287,#288,#289,#290,#291,#292,#293,#294,#295,
#296,#297,#298,#299,#300));
#58=EDGE_LOOP('',(#301));
#59=EDGE_LOOP('',(#302));
#60=EDGE_LOOP('',(#303,#304,#305,#306));
#61=EDGE_LOOP('',(#307,#308,#309,#310));
#62=EDGE_LOOP('',(#311,#312,#313,#314));
#63=EDGE_LOOP('',(#315,#316,#317,#318));
#64=EDGE_LOOP('',(#319,#320,#321,#322));
#65=EDGE_LOOP('',(#323,#324,#325,#326));
#66=EDGE_LOOP('',(#327,#328,#329,#330));
#67=EDGE_LOOP('',(#331,#332,#333,#334));
#68=EDGE_LOOP('',(#335,#336,#337,#338));
#69=EDGE_LOOP('',(#339,#340,#341,#342));
#70=EDGE_LOOP('',(#343,#344,#345,#346));
#71=EDGE_LOOP('',(#347,#348,#349,#350));
#72=EDGE_LOOP('',(#351,#352,#353,#354));
#73=EDGE_LOOP('',(#355,#356,#357,#358));
#74=EDGE_LOOP('',(#359,#360,#361,#362));
#75=EDGE_LOOP('',(#363,#364,#365,#366));
#76=EDGE_LOOP('',(#367,#368,#369,#370,#371,#372,#373,#374,#375,#376,#377,
#378,#379,#380,#381,#382));
#77=EDGE_LOOP('',(#383));
#78=EDGE_LOOP('',(#384));
#79=LINE('',#607,#115);
#80=LINE('',#610,#116);
#81=LINE('',#613,#117);
#82=LINE('',#615,#118);
#83=LINE('',#616,#119);
#84=LINE('',#622,#120);
#85=LINE('',#625,#121);
#86=LINE('',#628,#122);
#87=LINE('',#630,#123);
#88=LINE('',#631,#124);
#89=LINE('',#634,#125);
#90=LINE('',#636,#126);
#91=LINE('',#637,#127);
#92=LINE('',#643,#128);
#93=LINE('',#647,#129);
#94=LINE('',#651,#130);
#95=LINE('',#661,#131);
#96=LINE('',#664,#132);
#97=LINE('',#669,#133);
#98=LINE('',#672,#134);
#99=LINE('',#677,#135);
#100=LINE('',#678,#136);
#101=LINE('',#682,#137);
#102=LINE('',#685,#138);
#103=LINE('',#686,#139);
#104=LINE('',#690,#140);
#105=LINE('',#692,#141);
#106=LINE('',#697,#142);
#107=LINE('',#700,#143);
#108=LINE('',#705,#144);
#109=LINE('',#708,#145);
#110=LINE('',#711,#146);
#111=LINE('',#712,#147);
#112=LINE('',#715,#148);
#113=LINE('',#716,#149);
#114=LINE('',#718,#150);
#115=VECTOR('',#481,15.);
#116=VECTOR('',#484,15.);
#117=VECTOR('',#487,10.);
#118=VECTOR('',#488,10.);
#119=VECTOR('',#489,10.);
#120=VECTOR('',#494,15.);
#121=VECTOR('',#497,15.);
#122=VECTOR('',#500,10.);
#123=VECTOR('',#501,10.);
#124=VECTOR('',#502,10.);
#125=VECTOR('',#505,10.);
#126=VECTOR('',#506,10.);
#127=VECTOR('',#507,10.);
#128=VECTOR('',#512,10.);
#129=VECTOR('',#515,10.);
#130=VECTOR('',#518,10.);
#131=VECTOR('',#529,10.);
#132=VECTOR('',#532,10.);
#133=VECTOR('',#539,10.);
#134=VECTOR('',#542,10.);
#135=VECTOR('',#549,10.);
#136=VECTOR('',#550,10.);
#137=VECTOR('',#555,10.);
#138=VECTOR('',#558,10.);
#139=VECTOR('',#559,10.);
#140=VECTOR('',#564,10.);
#141=VECTOR('',#567,10.);
#142=VECTOR('',#572,2.721);
#143=VECTOR('',#577,1.8985);
#144=VECTOR('',#582,2.721);
#145=VECTOR('',#587,1.8985);
#146=VECTOR('',#590,10.);
#147=VECTOR('',#591,10.);
#148=VECTOR('',#594,10.);
#149=VECTOR('',#595,10.);
#150=VECTOR('',#598,10.);
#151=CIRCLE('',#432,15.);
#152=CIRCLE('',#433,15.);
#153=CIRCLE('',#436,15.);
#154=CIRCLE('',#437,15.);
#155=CIRCLE('',#440,2.75);
#156=CIRCLE('',#441,0.25);
#157=CIRCLE('',#442,1.5);
#158=CIRCLE('',#443,1.5);
#159=CIRCLE('',#444,0.25);
#160=CIRCLE('',#445,2.75);
#161=CIRCLE('',#446,1.8985);
#162=CIRCLE('',#447,1.8985);
#163=CIRCLE('',#449,0.25);
#164=CIRCLE('',#451,2.75);
#165=CIRCLE('',#453,0.25);
#166=CIRCLE('',#455,2.75);
#167=CIRCLE('',#458,1.5);
#168=CIRCLE('',#461,1.5);
#169=CIRCLE('',#464,3.5435);
#170=CIRCLE('',#465,1.8985);
#171=CIRCLE('',#468,3.5435);
#172=CIRCLE('',#469,1.8985);
#173=VERTEX_POINT('',#603);
#174=VERTEX_POINT('',#604);
#175=VERTEX_POINT('',#606);
#176=VERTEX_POINT('',#608);
#177=VERTEX_POINT('',#612);
#178=VERTEX_POINT('',#614);
#179=VERTEX_POINT('',#618);
#180=VERTEX_POINT('',#619);
#181=VERTEX_POINT('',#621);
#182=VERTEX_POINT('',#623);
#183=VERTEX_POINT('',#627);
#184=VERTEX_POINT('',#629);
#185=VERTEX_POINT('',#633);
#186=VERTEX_POINT('',#635);
#187=VERTEX_POINT('',#638);
#188=VERTEX_POINT('',#640);
#189=VERTEX_POINT('',#642);
#190=VERTEX_POINT('',#644);
#191=VERTEX_POINT('',#646);
#192=VERTEX_POINT('',#648);
#193=VERTEX_POINT('',#650);
#194=VERTEX_POINT('',#652);
#195=VERTEX_POINT('',#655);
#196=VERTEX_POINT('',#657);
#197=VERTEX_POINT('',#660);
#198=VERTEX_POINT('',#662);
#199=VERTEX_POINT('',#668);
#200=VERTEX_POINT('',#670);
#201=VERTEX_POINT('',#676);
#202=VERTEX_POINT('',#680);
#203=VERTEX_POINT('',#684);
#204=VERTEX_POINT('',#688);
#205=VERTEX_POINT('',#694);
#206=VERTEX_POINT('',#696);
#207=VERTEX_POINT('',#702);
#208=VERTEX_POINT('',#704);
#209=VERTEX_POINT('',#710);
#210=VERTEX_POINT('',#714);
#211=EDGE_CURVE('',#173,#174,#151,.T.);
#212=EDGE_CURVE('',#174,#175,#79,.T.);
#213=EDGE_CURVE('',#176,#175,#152,.F.);
#214=EDGE_CURVE('',#176,#173,#80,.T.);
#215=EDGE_CURVE('',#176,#177,#81,.T.);
#216=EDGE_CURVE('',#178,#177,#82,.T.);
#217=EDGE_CURVE('',#173,#178,#83,.T.);
#218=EDGE_CURVE('',#179,#180,#153,.F.);
#219=EDGE_CURVE('',#179,#181,#84,.T.);
#220=EDGE_CURVE('',#181,#182,#154,.T.);
#221=EDGE_CURVE('',#182,#180,#85,.T.);
#222=EDGE_CURVE('',#183,#182,#86,.T.);
#223=EDGE_CURVE('',#183,#184,#87,.T.);
#224=EDGE_CURVE('',#180,#184,#88,.T.);
#225=EDGE_CURVE('',#178,#185,#89,.T.);
#226=EDGE_CURVE('',#185,#186,#90,.T.);
#227=EDGE_CURVE('',#186,#183,#91,.T.);
#228=EDGE_CURVE('',#181,#187,#155,.T.);
#229=EDGE_CURVE('',#188,#187,#156,.T.);
#230=EDGE_CURVE('',#188,#189,#92,.T.);
#231=EDGE_CURVE('',#189,#190,#157,.T.);
#232=EDGE_CURVE('',#190,#191,#93,.T.);
#233=EDGE_CURVE('',#191,#192,#158,.T.);
#234=EDGE_CURVE('',#192,#193,#94,.T.);
#235=EDGE_CURVE('',#194,#193,#159,.T.);
#236=EDGE_CURVE('',#194,#174,#160,.T.);
#237=EDGE_CURVE('',#195,#195,#161,.T.);
#238=EDGE_CURVE('',#196,#196,#162,.T.);
#239=EDGE_CURVE('',#187,#197,#95,.T.);
#240=EDGE_CURVE('',#197,#198,#163,.T.);
#241=EDGE_CURVE('',#198,#188,#96,.T.);
#242=EDGE_CURVE('',#197,#179,#164,.T.);
#243=EDGE_CURVE('',#193,#199,#97,.T.);
#244=EDGE_CURVE('',#199,#200,#165,.T.);
#245=EDGE_CURVE('',#200,#194,#98,.T.);
#246=EDGE_CURVE('',#175,#200,#166,.T.);
#247=EDGE_CURVE('',#201,#192,#99,.T.);
#248=EDGE_CURVE('',#201,#199,#100,.T.);
#249=EDGE_CURVE('',#202,#201,#167,.T.);
#250=EDGE_CURVE('',#202,#191,#101,.T.);
#251=EDGE_CURVE('',#203,#202,#102,.T.);
#252=EDGE_CURVE('',#203,#190,#103,.T.);
#253=EDGE_CURVE('',#204,#203,#168,.T.);
#254=EDGE_CURVE('',#204,#189,#104,.T.);
#255=EDGE_CURVE('',#198,#204,#105,.T.);
#256=EDGE_CURVE('',#205,#205,#169,.T.);
#257=EDGE_CURVE('',#205,#206,#106,.T.);
#258=EDGE_CURVE('',#206,#206,#170,.T.);
#259=EDGE_CURVE('',#206,#195,#107,.T.);
#260=EDGE_CURVE('',#207,#207,#171,.T.);
#261=EDGE_CURVE('',#207,#208,#108,.T.);
#262=EDGE_CURVE('',#208,#208,#172,.T.);
#263=EDGE_CURVE('',#208,#196,#109,.T.);
#264=EDGE_CURVE('',#209,#177,#110,.T.);
#265=EDGE_CURVE('',#185,#209,#111,.T.);
#266=EDGE_CURVE('',#210,#209,#112,.T.);
#267=EDGE_CURVE('',#186,#210,#113,.T.);
#268=EDGE_CURVE('',#184,#210,#114,.T.);
#269=ORIENTED_EDGE('',*,*,#211,.T.);
#270=ORIENTED_EDGE('',*,*,#212,.T.);
#271=ORIENTED_EDGE('',*,*,#213,.F.);
#272=ORIENTED_EDGE('',*,*,#214,.T.);
#273=ORIENTED_EDGE('',*,*,#214,.F.);
#274=ORIENTED_EDGE('',*,*,#215,.T.);
#275=ORIENTED_EDGE('',*,*,#216,.F.);
#276=ORIENTED_EDGE('',*,*,#217,.F.);
#277=ORIENTED_EDGE('',*,*,#218,.F.);
#278=ORIENTED_EDGE('',*,*,#219,.T.);
#279=ORIENTED_EDGE('',*,*,#220,.T.);
#280=ORIENTED_EDGE('',*,*,#221,.T.);
#281=ORIENTED_EDGE('',*,*,#221,.F.);
#282=ORIENTED_EDGE('',*,*,#222,.F.);
#283=ORIENTED_EDGE('',*,*,#223,.T.);
#284=ORIENTED_EDGE('',*,*,#224,.F.);
#285=ORIENTED_EDGE('',*,*,#211,.F.);
#286=ORIENTED_EDGE('',*,*,#217,.T.);
#287=ORIENTED_EDGE('',*,*,#225,.T.);
#288=ORIENTED_EDGE('',*,*,#226,.T.);
#289=ORIENTED_EDGE('',*,*,#227,.T.);
#290=ORIENTED_EDGE('',*,*,#222,.T.);
#291=ORIENTED_EDGE('',*,*,#220,.F.);
#292=ORIENTED_EDGE('',*,*,#228,.T.);
#293=ORIENTED_EDGE('',*,*,#229,.F.);
#294=ORIENTED_EDGE('',*,*,#230,.T.);
#295=ORIENTED_EDGE('',*,*,#231,.T.);
#296=ORIENTED_EDGE('',*,*,#232,.T.);
#297=ORIENTED_EDGE('',*,*,#233,.T.);
#298=ORIENTED_EDGE('',*,*,#234,.T.);
#299=ORIENTED_EDGE('',*,*,#235,.F.);
#300=ORIENTED_EDGE('',*,*,#236,.T.);
#301=ORIENTED_EDGE('',*,*,#237,.T.);
#302=ORIENTED_EDGE('',*,*,#238,.T.);
#303=ORIENTED_EDGE('',*,*,#229,.T.);
#304=ORIENTED_EDGE('',*,*,#239,.T.);
#305=ORIENTED_EDGE('',*,*,#240,.T.);
#306=ORIENTED_EDGE('',*,*,#241,.T.);
#307=ORIENTED_EDGE('',*,*,#219,.F.);
#308=ORIENTED_EDGE('',*,*,#242,.F.);
#309=ORIENTED_EDGE('',*,*,#239,.F.);
#310=ORIENTED_EDGE('',*,*,#228,.F.);
#311=ORIENTED_EDGE('',*,*,#235,.T.);
#312=ORIENTED_EDGE('',*,*,#243,.T.);
#313=ORIENTED_EDGE('',*,*,#244,.T.);
#314=ORIENTED_EDGE('',*,*,#245,.T.);
#315=ORIENTED_EDGE('',*,*,#212,.F.);
#316=ORIENTED_EDGE('',*,*,#236,.F.);
#317=ORIENTED_EDGE('',*,*,#245,.F.);
#318=ORIENTED_EDGE('',*,*,#246,.F.);
#319=ORIENTED_EDGE('',*,*,#243,.F.);
#320=ORIENTED_EDGE('',*,*,#234,.F.);
#321=ORIENTED_EDGE('',*,*,#247,.F.);
#322=ORIENTED_EDGE('',*,*,#248,.T.);
#323=ORIENTED_EDGE('',*,*,#249,.T.);
#324=ORIENTED_EDGE('',*,*,#247,.T.);
#325=ORIENTED_EDGE('',*,*,#233,.F.);
#326=ORIENTED_EDGE('',*,*,#250,.F.);
#327=ORIENTED_EDGE('',*,*,#251,.T.);
#328=ORIENTED_EDGE('',*,*,#250,.T.);
#329=ORIENTED_EDGE('',*,*,#232,.F.);
#330=ORIENTED_EDGE('',*,*,#252,.F.);
#331=ORIENTED_EDGE('',*,*,#253,.T.);
#332=ORIENTED_EDGE('',*,*,#252,.T.);
#333=ORIENTED_EDGE('',*,*,#231,.F.);
#334=ORIENTED_EDGE('',*,*,#254,.F.);
#335=ORIENTED_EDGE('',*,*,#241,.F.);
#336=ORIENTED_EDGE('',*,*,#255,.T.);
#337=ORIENTED_EDGE('',*,*,#254,.T.);
#338=ORIENTED_EDGE('',*,*,#230,.F.);
#339=ORIENTED_EDGE('',*,*,#256,.F.);
#340=ORIENTED_EDGE('',*,*,#257,.T.);
#341=ORIENTED_EDGE('',*,*,#258,.T.);
#342=ORIENTED_EDGE('',*,*,#257,.F.);
#343=ORIENTED_EDGE('',*,*,#258,.F.);
#344=ORIENTED_EDGE('',*,*,#259,.T.);
#345=ORIENTED_EDGE('',*,*,#237,.F.);
#346=ORIENTED_EDGE('',*,*,#259,.F.);
#347=ORIENTED_EDGE('',*,*,#260,.F.);
#348=ORIENTED_EDGE('',*,*,#261,.T.);
#349=ORIENTED_EDGE('',*,*,#262,.T.);
#350=ORIENTED_EDGE('',*,*,#261,.F.);
#351=ORIENTED_EDGE('',*,*,#262,.F.);
#352=ORIENTED_EDGE('',*,*,#263,.T.);
#353=ORIENTED_EDGE('',*,*,#238,.F.);
#354=ORIENTED_EDGE('',*,*,#263,.F.);
#355=ORIENTED_EDGE('',*,*,#225,.F.);
#356=ORIENTED_EDGE('',*,*,#216,.T.);
#357=ORIENTED_EDGE('',*,*,#264,.F.);
#358=ORIENTED_EDGE('',*,*,#265,.F.);
#359=ORIENTED_EDGE('',*,*,#226,.F.);
#360=ORIENTED_EDGE('',*,*,#265,.T.);
#361=ORIENTED_EDGE('',*,*,#266,.F.);
#362=ORIENTED_EDGE('',*,*,#267,.F.);
#363=ORIENTED_EDGE('',*,*,#227,.F.);
#364=ORIENTED_EDGE('',*,*,#267,.T.);
#365=ORIENTED_EDGE('',*,*,#268,.F.);
#366=ORIENTED_EDGE('',*,*,#223,.F.);
#367=ORIENTED_EDGE('',*,*,#224,.T.);
#368=ORIENTED_EDGE('',*,*,#268,.T.);
#369=ORIENTED_EDGE('',*,*,#266,.T.);
#370=ORIENTED_EDGE('',*,*,#264,.T.);
#371=ORIENTED_EDGE('',*,*,#215,.F.);
#372=ORIENTED_EDGE('',*,*,#213,.T.);
#373=ORIENTED_EDGE('',*,*,#246,.T.);
#374=ORIENTED_EDGE('',*,*,#244,.F.);
#375=ORIENTED_EDGE('',*,*,#248,.F.);
#376=ORIENTED_EDGE('',*,*,#249,.F.);
#377=ORIENTED_EDGE('',*,*,#251,.F.);
#378=ORIENTED_EDGE('',*,*,#253,.F.);
#379=ORIENTED_EDGE('',*,*,#255,.F.);
#380=ORIENTED_EDGE('',*,*,#240,.F.);
#381=ORIENTED_EDGE('',*,*,#242,.T.);
#382=ORIENTED_EDGE('',*,*,#218,.T.);
#383=ORIENTED_EDGE('',*,*,#256,.T.);
#384=ORIENTED_EDGE('',*,*,#260,.T.);
#385=CYLINDRICAL_SURFACE('',#431,15.);
#386=CYLINDRICAL_SURFACE('',#435,15.);
#387=CYLINDRICAL_SURFACE('',#448,0.25);
#388=CYLINDRICAL_SURFACE('',#450,2.75);
#389=CYLINDRICAL_SURFACE('',#452,0.25);
#390=CYLINDRICAL_SURFACE('',#454,2.75);
#391=CYLINDRICAL_SURFACE('',#457,1.5);
#392=CYLINDRICAL_SURFACE('',#460,1.5);
#393=CYLINDRICAL_SURFACE('',#466,1.8985);
#394=CYLINDRICAL_SURFACE('',#470,1.8985);
#395=ADVANCED_FACE('',(#31),#385,.F.);
#396=ADVANCED_FACE('',(#32),#21,.T.);
#397=ADVANCED_FACE('',(#33),#386,.F.);
#398=ADVANCED_FACE('',(#34),#22,.T.);
#399=ADVANCED_FACE('',(#35,#17,#18),#23,.F.);
#400=ADVANCED_FACE('',(#36),#387,.T.);
#401=ADVANCED_FACE('',(#37),#388,.T.);
#402=ADVANCED_FACE('',(#38),#389,.T.);
#403=ADVANCED_FACE('',(#39),#390,.T.);
#404=ADVANCED_FACE('',(#40),#24,.T.);
#405=ADVANCED_FACE('',(#41),#391,.F.);
#406=ADVANCED_FACE('',(#42),#25,.T.);
#407=ADVANCED_FACE('',(#43),#392,.F.);
#408=ADVANCED_FACE('',(#44),#26,.T.);
#409=ADVANCED_FACE('',(#45),#15,.F.);
#410=ADVANCED_FACE('',(#46),#393,.F.);
#411=ADVANCED_FACE('',(#47),#16,.F.);
#412=ADVANCED_FACE('',(#48),#394,.F.);
#413=ADVANCED_FACE('',(#49),#27,.T.);
#414=ADVANCED_FACE('',(#50),#28,.T.);
#415=ADVANCED_FACE('',(#51),#29,.T.);
#416=ADVANCED_FACE('',(#52,#19,#20),#30,.T.);
#417=CLOSED_SHELL('',(#395,#396,#397,#398,#399,#400,#401,#402,#403,#404,
#405,#406,#407,#408,#409,#410,#411,#412,#413,#414,#415,#416));
#418=DERIVED_UNIT_ELEMENT(#420,1.);
#419=DERIVED_UNIT_ELEMENT(#725,-3.);
#420=(
MASS_UNIT()
NAMED_UNIT(*)
SI_UNIT(.KILO.,.GRAM.)
);
#421=DERIVED_UNIT((#418,#419));
#422=MEASURE_REPRESENTATION_ITEM('density measure',
POSITIVE_RATIO_MEASURE(7850.),#421);
#423=PROPERTY_DEFINITION_REPRESENTATION(#428,#425);
#424=PROPERTY_DEFINITION_REPRESENTATION(#429,#426);
#425=REPRESENTATION('material name',(#427),#722);
#426=REPRESENTATION('density',(#422),#722);
#427=DESCRIPTIVE_REPRESENTATION_ITEM('Steel','Steel');
#428=PROPERTY_DEFINITION('material property','material name',#732);
#429=PROPERTY_DEFINITION('material property','density of part',#732);
#430=AXIS2_PLACEMENT_3D('',#601,#475,#476);
#431=AXIS2_PLACEMENT_3D('',#602,#477,#478);
#432=AXIS2_PLACEMENT_3D('',#605,#479,#480);
#433=AXIS2_PLACEMENT_3D('',#609,#482,#483);
#434=AXIS2_PLACEMENT_3D('',#611,#485,#486);
#435=AXIS2_PLACEMENT_3D('',#617,#490,#491);
#436=AXIS2_PLACEMENT_3D('',#620,#492,#493);
#437=AXIS2_PLACEMENT_3D('',#624,#495,#496);
#438=AXIS2_PLACEMENT_3D('',#626,#498,#499);
#439=AXIS2_PLACEMENT_3D('',#632,#503,#504);
#440=AXIS2_PLACEMENT_3D('',#639,#508,#509);
#441=AXIS2_PLACEMENT_3D('',#641,#510,#511);
#442=AXIS2_PLACEMENT_3D('',#645,#513,#514);
#443=AXIS2_PLACEMENT_3D('',#649,#516,#517);
#444=AXIS2_PLACEMENT_3D('',#653,#519,#520);
#445=AXIS2_PLACEMENT_3D('',#654,#521,#522);
#446=AXIS2_PLACEMENT_3D('',#656,#523,#524);
#447=AXIS2_PLACEMENT_3D('',#658,#525,#526);
#448=AXIS2_PLACEMENT_3D('',#659,#527,#528);
#449=AXIS2_PLACEMENT_3D('',#663,#530,#531);
#450=AXIS2_PLACEMENT_3D('',#665,#533,#534);
#451=AXIS2_PLACEMENT_3D('',#666,#535,#536);
#452=AXIS2_PLACEMENT_3D('',#667,#537,#538);
#453=AXIS2_PLACEMENT_3D('',#671,#540,#541);
#454=AXIS2_PLACEMENT_3D('',#673,#543,#544);
#455=AXIS2_PLACEMENT_3D('',#674,#545,#546);
#456=AXIS2_PLACEMENT_3D('',#675,#547,#548);
#457=AXIS2_PLACEMENT_3D('',#679,#551,#552);
#458=AXIS2_PLACEMENT_3D('',#681,#553,#554);
#459=AXIS2_PLACEMENT_3D('',#683,#556,#557);
#460=AXIS2_PLACEMENT_3D('',#687,#560,#561);
#461=AXIS2_PLACEMENT_3D('',#689,#562,#563);
#462=AXIS2_PLACEMENT_3D('',#691,#565,#566);
#463=AXIS2_PLACEMENT_3D('',#693,#568,#569);
#464=AXIS2_PLACEMENT_3D('',#695,#570,#571);
#465=AXIS2_PLACEMENT_3D('',#698,#573,#574);
#466=AXIS2_PLACEMENT_3D('',#699,#575,#576);
#467=AXIS2_PLACEMENT_3D('',#701,#578,#579);
#468=AXIS2_PLACEMENT_3D('',#703,#580,#581);
#469=AXIS2_PLACEMENT_3D('',#706,#583,#584);
#470=AXIS2_PLACEMENT_3D('',#707,#585,#586);
#471=AXIS2_PLACEMENT_3D('',#709,#588,#589);
#472=AXIS2_PLACEMENT_3D('',#713,#592,#593);
#473=AXIS2_PLACEMENT_3D('',#717,#596,#597);
#474=AXIS2_PLACEMENT_3D('',#719,#599,#600);
#475=DIRECTION('axis',(0.,0.,1.));
#476=DIRECTION('refdir',(1.,0.,0.));
#477=DIRECTION('center_axis',(0.,0.,-1.));
#478=DIRECTION('ref_axis',(-0.78086880944303,0.624695047554424,0.));
#479=DIRECTION('center_axis',(0.,0.,-1.));
#480=DIRECTION('ref_axis',(-0.78086880944303,0.624695047554424,0.));
#481=DIRECTION('',(0.,0.,1.));
#482=DIRECTION('center_axis',(0.,0.,1.));
#483=DIRECTION('ref_axis',(-0.78086880944303,0.624695047554424,0.));
#484=DIRECTION('',(0.,0.,-1.));
#485=DIRECTION('center_axis',(-0.78086880944303,0.624695047554424,0.));
#486=DIRECTION('ref_axis',(0.624695047554424,0.78086880944303,0.));
#487=DIRECTION('',(0.624695047554424,0.78086880944303,0.));
#488=DIRECTION('',(0.,0.,1.));
#489=DIRECTION('',(0.624695047554424,0.78086880944303,0.));
#490=DIRECTION('center_axis',(0.,0.,1.));
#491=DIRECTION('ref_axis',(-0.78086880944303,-0.624695047554424,0.));
#492=DIRECTION('center_axis',(0.,0.,1.));
#493=DIRECTION('ref_axis',(-0.78086880944303,-0.624695047554424,0.));
#494=DIRECTION('',(0.,0.,-1.));
#495=DIRECTION('center_axis',(0.,0.,-1.));
#496=DIRECTION('ref_axis',(-0.78086880944303,-0.624695047554424,0.));
#497=DIRECTION('',(0.,0.,1.));
#498=DIRECTION('center_axis',(-0.78086880944303,-0.624695047554424,0.));
#499=DIRECTION('ref_axis',(-0.624695047554424,0.78086880944303,0.));
#500=DIRECTION('',(-0.624695047554424,0.78086880944303,0.));
#501=DIRECTION('',(0.,0.,1.));
#502=DIRECTION('',(0.624695047554424,-0.78086880944303,0.));
#503=DIRECTION('center_axis',(0.,0.,1.));
#504=DIRECTION('ref_axis',(1.,0.,0.));
#505=DIRECTION('',(1.,0.,0.));
#506=DIRECTION('',(0.,-1.,0.));
#507=DIRECTION('',(-1.,0.,0.));
#508=DIRECTION('center_axis',(0.,0.,-1.));
#509=DIRECTION('ref_axis',(-1.,0.,0.));
#510=DIRECTION('center_axis',(0.,0.,1.));
#511=DIRECTION('ref_axis',(-0.741619848709565,0.670820393249938,0.));
#512=DIRECTION('',(1.,0.,0.));
#513=DIRECTION('center_axis',(0.,0.,1.));
#514=DIRECTION('ref_axis',(-1.,0.,0.));
#515=DIRECTION('',(0.,1.,0.));
#516=DIRECTION('center_axis',(0.,0.,1.));
#517=DIRECTION('ref_axis',(-1.,0.,0.));
#518=DIRECTION('',(-1.,0.,0.));
#519=DIRECTION('center_axis',(0.,0.,1.));
#520=DIRECTION('ref_axis',(-0.741619848709565,-0.670820393249938,0.));
#521=DIRECTION('center_axis',(0.,0.,-1.));
#522=DIRECTION('ref_axis',(-1.,0.,0.));
#523=DIRECTION('center_axis',(0.,0.,1.));
#524=DIRECTION('ref_axis',(1.,0.,0.));
#525=DIRECTION('center_axis',(0.,0.,1.));
#526=DIRECTION('ref_axis',(1.,0.,0.));
#527=DIRECTION('center_axis',(0.,0.,-1.));
#528=DIRECTION('ref_axis',(-0.741619848709565,0.670820393249938,0.));
#529=DIRECTION('',(0.,0.,1.));
#530=DIRECTION('center_axis',(0.,0.,-1.));
#531=DIRECTION('ref_axis',(-0.741619848709565,0.670820393249938,0.));
#532=DIRECTION('',(0.,0.,-1.));
#533=DIRECTION('center_axis',(0.,0.,-1.));
#534=DIRECTION('ref_axis',(-1.,0.,0.));
#535=DIRECTION('center_axis',(0.,0.,1.));
#536=DIRECTION('ref_axis',(-1.,0.,0.));
#537=DIRECTION('center_axis',(0.,0.,-1.));
#538=DIRECTION('ref_axis',(-0.741619848709565,-0.670820393249938,0.));
#539=DIRECTION('',(0.,0.,1.));
#540=DIRECTION('center_axis',(0.,0.,-1.));
#541=DIRECTION('ref_axis',(-0.741619848709565,-0.670820393249938,0.));
#542=DIRECTION('',(0.,0.,-1.));
#543=DIRECTION('center_axis',(0.,0.,-1.));
#544=DIRECTION('ref_axis',(-1.,0.,0.));
#545=DIRECTION('center_axis',(0.,0.,1.));
#546=DIRECTION('ref_axis',(-1.,0.,0.));
#547=DIRECTION('center_axis',(0.,-1.,0.));
#548=DIRECTION('ref_axis',(-1.,0.,0.));
#549=DIRECTION('',(0.,0.,-1.));
#550=DIRECTION('',(-1.,0.,0.));
#551=DIRECTION('center_axis',(0.,0.,-1.));
#552=DIRECTION('ref_axis',(-1.,0.,0.));
#553=DIRECTION('center_axis',(0.,0.,1.));
#554=DIRECTION('ref_axis',(-1.,0.,0.));
#555=DIRECTION('',(0.,0.,-1.));
#556=DIRECTION('center_axis',(-1.,0.,0.));
#557=DIRECTION('ref_axis',(0.,1.,0.));
#558=DIRECTION('',(0.,1.,0.));
#559=DIRECTION('',(0.,0.,-1.));
#560=DIRECTION('center_axis',(0.,0.,-1.));
#561=DIRECTION('ref_axis',(-1.,0.,0.));
#562=DIRECTION('center_axis',(0.,0.,1.));
#563=DIRECTION('ref_axis',(-1.,0.,0.));
#564=DIRECTION('',(0.,0.,-1.));
#565=DIRECTION('center_axis',(0.,1.,0.));
#566=DIRECTION('ref_axis',(1.,0.,0.));
#567=DIRECTION('',(1.,0.,0.));
#568=DIRECTION('center_axis',(0.,0.,1.));
#569=DIRECTION('ref_axis',(1.,0.,0.));
#570=DIRECTION('center_axis',(0.,0.,-1.));
#571=DIRECTION('ref_axis',(1.,0.,0.));
#572=DIRECTION('',(0.766044443118978,-9.38133875270273E-17,-0.642787609686539));
#573=DIRECTION('center_axis',(0.,0.,-1.));
#574=DIRECTION('ref_axis',(1.,0.,0.));
#575=DIRECTION('center_axis',(0.,0.,-1.));
#576=DIRECTION('ref_axis',(1.,0.,0.));
#577=DIRECTION('',(0.,0.,-1.));
#578=DIRECTION('center_axis',(0.,0.,1.));
#579=DIRECTION('ref_axis',(1.,0.,0.));
#580=DIRECTION('center_axis',(0.,0.,-1.));
#581=DIRECTION('ref_axis',(1.,0.,0.));
#582=DIRECTION('',(0.766044443118978,-9.38133875270273E-17,-0.642787609686539));
#583=DIRECTION('center_axis',(0.,0.,-1.));
#584=DIRECTION('ref_axis',(1.,0.,0.));
#585=DIRECTION('center_axis',(0.,0.,-1.));
#586=DIRECTION('ref_axis',(1.,0.,0.));
#587=DIRECTION('',(0.,0.,-1.));
#588=DIRECTION('center_axis',(0.,1.,0.));
#589=DIRECTION('ref_axis',(-1.,0.,0.));
#590=DIRECTION('',(-1.,0.,0.));
#591=DIRECTION('',(0.,0.,1.));
#592=DIRECTION('center_axis',(1.,0.,0.));
#593=DIRECTION('ref_axis',(0.,1.,0.));
#594=DIRECTION('',(0.,1.,0.));
#595=DIRECTION('',(0.,0.,1.));
#596=DIRECTION('center_axis',(0.,-1.,0.));
#597=DIRECTION('ref_axis',(1.,0.,0.));
#598=DIRECTION('',(1.,0.,0.));
#599=DIRECTION('center_axis',(0.,0.,1.));
#600=DIRECTION('ref_axis',(1.,0.,0.));
#601=CARTESIAN_POINT('',(0.,0.,0.));
#602=CARTESIAN_POINT('Origin',(-27.3285711333097,15.4760019737361,3.));
#603=CARTESIAN_POINT('',(-15.6155389916642,6.10557626041973,0.));
#604=CARTESIAN_POINT('',(-19.4452715840339,2.71459185508588,0.));
#605=CARTESIAN_POINT('Origin',(-27.3285711333097,15.4760019737361,0.));
#606=CARTESIAN_POINT('',(-19.4452715840339,2.71459185508588,3.));
#607=CARTESIAN_POINT('',(-19.4452715840339,2.71459185508588,3.));
#608=CARTESIAN_POINT('',(-15.6155389916642,6.10557626041973,3.));
#609=CARTESIAN_POINT('Origin',(-27.3285711333097,15.4760019737361,3.));
#610=CARTESIAN_POINT('',(-15.6155389916642,6.10557626041973,3.));
#611=CARTESIAN_POINT('Origin',(-16.5,5.,3.));
#612=CARTESIAN_POINT('',(-12.5,10.,3.));
#613=CARTESIAN_POINT('',(-16.5,5.,3.));
#614=CARTESIAN_POINT('',(-12.5,10.,0.));
#615=CARTESIAN_POINT('',(-12.5,10.,0.));
#616=CARTESIAN_POINT('',(-16.5,5.,0.));
#617=CARTESIAN_POINT('Origin',(-27.3285711333097,-15.4760019737361,3.));
#618=CARTESIAN_POINT('',(-19.4452715840339,-2.71459185508587,3.));
#619=CARTESIAN_POINT('',(-15.6155389916642,-6.10557626041973,3.));
#620=CARTESIAN_POINT('Origin',(-27.3285711333097,-15.4760019737361,3.));
#621=CARTESIAN_POINT('',(-19.4452715840339,-2.71459185508587,0.));
#622=CARTESIAN_POINT('',(-19.4452715840339,-2.71459185508587,3.));
#623=CARTESIAN_POINT('',(-15.6155389916642,-6.10557626041973,0.));
#624=CARTESIAN_POINT('Origin',(-27.3285711333097,-15.4760019737361,0.));
#625=CARTESIAN_POINT('',(-15.6155389916642,-6.10557626041973,3.));
#626=CARTESIAN_POINT('Origin',(-12.5,-10.,3.));
#627=CARTESIAN_POINT('',(-12.5,-10.,0.));
#628=CARTESIAN_POINT('',(-16.5,-5.,0.));
#629=CARTESIAN_POINT('',(-12.5,-10.,3.));
#630=CARTESIAN_POINT('',(-12.5,-10.,0.));
#631=CARTESIAN_POINT('',(-16.5,-5.,3.));
#632=CARTESIAN_POINT('Origin',(0.,0.,0.));
#633=CARTESIAN_POINT('',(12.5,10.,0.));
#634=CARTESIAN_POINT('',(-12.5,10.,0.));
#635=CARTESIAN_POINT('',(12.5,-10.,0.));
#636=CARTESIAN_POINT('',(12.5,10.,0.));
#637=CARTESIAN_POINT('',(12.5,-10.,0.));
#638=CARTESIAN_POINT('',(-20.7362154520432,-0.65,0.));
#639=CARTESIAN_POINT('Origin',(-18.,-0.375,0.));
#640=CARTESIAN_POINT('',(-20.4874685927665,-0.375,0.));
#641=CARTESIAN_POINT('Origin',(-20.4874685927665,-0.625,0.));
#642=CARTESIAN_POINT('',(-19.5,-0.375,0.));
#643=CARTESIAN_POINT('',(-24.9519183141468,-0.375,0.));
#644=CARTESIAN_POINT('',(-16.5,-0.375,0.));
#645=CARTESIAN_POINT('Origin',(-18.,-0.375,0.));
#646=CARTESIAN_POINT('',(-16.5,0.375,0.));
#647=CARTESIAN_POINT('',(-16.5,-5.,0.));
#648=CARTESIAN_POINT('',(-19.5,0.375,0.));
#649=CARTESIAN_POINT('Origin',(-18.,0.375,0.));
#650=CARTESIAN_POINT('',(-20.4874685927665,0.375,0.));
#651=CARTESIAN_POINT('',(-18.,0.375,0.));
#652=CARTESIAN_POINT('',(-20.7362154520432,0.65,0.));
#653=CARTESIAN_POINT('Origin',(-20.4874685927665,0.625,0.));
#654=CARTESIAN_POINT('Origin',(-18.,0.375,0.));
#655=CARTESIAN_POINT('',(-4.8985,4.,0.));
#656=CARTESIAN_POINT('Origin',(-3.,4.,0.));
#657=CARTESIAN_POINT('',(5.1015,-4.,0.));
#658=CARTESIAN_POINT('Origin',(7.,-4.,0.));
#659=CARTESIAN_POINT('Origin',(-20.4874685927665,-0.625,3.));
#660=CARTESIAN_POINT('',(-20.7362154520432,-0.65,3.));
#661=CARTESIAN_POINT('',(-20.7362154520432,-0.65,3.));
#662=CARTESIAN_POINT('',(-20.4874685927665,-0.375,3.));
#663=CARTESIAN_POINT('Origin',(-20.4874685927665,-0.625,3.));
#664=CARTESIAN_POINT('',(-20.4874685927665,-0.375,3.));
#665=CARTESIAN_POINT('Origin',(-18.,-0.375,3.));
#666=CARTESIAN_POINT('Origin',(-18.,-0.375,3.));
#667=CARTESIAN_POINT('Origin',(-20.4874685927665,0.625,3.));
#668=CARTESIAN_POINT('',(-20.4874685927665,0.375,3.));
#669=CARTESIAN_POINT('',(-20.4874685927665,0.375,3.));
#670=CARTESIAN_POINT('',(-20.7362154520432,0.65,3.));
#671=CARTESIAN_POINT('Origin',(-20.4874685927665,0.625,3.));
#672=CARTESIAN_POINT('',(-20.7362154520432,0.65,3.));
#673=CARTESIAN_POINT('Origin',(-18.,0.375,3.));
#674=CARTESIAN_POINT('Origin',(-18.,0.375,3.));
#675=CARTESIAN_POINT('Origin',(-19.5,0.375,3.));
#676=CARTESIAN_POINT('',(-19.5,0.375,3.));
#677=CARTESIAN_POINT('',(-19.5,0.375,3.));
#678=CARTESIAN_POINT('',(-18.,0.375,3.));
#679=CARTESIAN_POINT('Origin',(-18.,0.375,3.));
#680=CARTESIAN_POINT('',(-16.5,0.375,3.));
#681=CARTESIAN_POINT('Origin',(-18.,0.375,3.));
#682=CARTESIAN_POINT('',(-16.5,0.375,3.));
#683=CARTESIAN_POINT('Origin',(-16.5,-0.375,3.));
#684=CARTESIAN_POINT('',(-16.5,-0.375,3.));
#685=CARTESIAN_POINT('',(-16.5,-5.,3.));
#686=CARTESIAN_POINT('',(-16.5,-0.375,3.));
#687=CARTESIAN_POINT('Origin',(-18.,-0.375,3.));
#688=CARTESIAN_POINT('',(-19.5,-0.375,3.));
#689=CARTESIAN_POINT('Origin',(-18.,-0.375,3.));
#690=CARTESIAN_POINT('',(-19.5,-0.375,3.));
#691=CARTESIAN_POINT('Origin',(-20.75,-0.375,3.));
#692=CARTESIAN_POINT('',(-24.9519183141468,-0.375,3.));
#693=CARTESIAN_POINT('Origin',(-3.,4.,2.30984055335669));
#694=CARTESIAN_POINT('',(-6.5435,4.,3.));
#695=CARTESIAN_POINT('Origin',(-3.,4.,3.));
#696=CARTESIAN_POINT('',(-4.8985,4.,1.61968110671337));
#697=CARTESIAN_POINT('',(-5.721,4.,2.30984055335669));
#698=CARTESIAN_POINT('Origin',(-3.,4.,1.61968110671338));
#699=CARTESIAN_POINT('Origin',(-3.,4.,0.));
#700=CARTESIAN_POINT('',(-4.8985,4.,0.));
#701=CARTESIAN_POINT('Origin',(7.,-4.,2.30984055335669));
#702=CARTESIAN_POINT('',(3.4565,-4.,3.));
#703=CARTESIAN_POINT('Origin',(7.,-4.,3.));
#704=CARTESIAN_POINT('',(5.1015,-4.,1.61968110671337));
#705=CARTESIAN_POINT('',(4.279,-4.,2.30984055335669));
#706=CARTESIAN_POINT('Origin',(7.,-4.,1.61968110671338));
#707=CARTESIAN_POINT('Origin',(7.,-4.,0.));
#708=CARTESIAN_POINT('',(5.1015,-4.,0.));
#709=CARTESIAN_POINT('Origin',(12.5,10.,0.));
#710=CARTESIAN_POINT('',(12.5,10.,3.));
#711=CARTESIAN_POINT('',(-12.5,10.,3.));
#712=CARTESIAN_POINT('',(12.5,10.,0.));
#713=CARTESIAN_POINT('Origin',(12.5,-10.,0.));
#714=CARTESIAN_POINT('',(12.5,-10.,3.));
#715=CARTESIAN_POINT('',(12.5,10.,3.));
#716=CARTESIAN_POINT('',(12.5,-10.,0.));
#717=CARTESIAN_POINT('Origin',(-12.5,-10.,0.));
#718=CARTESIAN_POINT('',(12.5,-10.,3.));
#719=CARTESIAN_POINT('Origin',(0.,0.,3.));
#720=UNCERTAINTY_MEASURE_WITH_UNIT(LENGTH_MEASURE(0.01),#724,
'DISTANCE_ACCURACY_VALUE',
'Maximum model space distance between geometric entities at asserted c
onnectivities');
#721=UNCERTAINTY_MEASURE_WITH_UNIT(LENGTH_MEASURE(0.01),#724,
'DISTANCE_ACCURACY_VALUE',
'Maximum model space distance between geometric entities at asserted c
onnectivities');
#722=(
GEOMETRIC_REPRESENTATION_CONTEXT(3)
GLOBAL_UNCERTAINTY_ASSIGNED_CONTEXT((#720))
GLOBAL_UNIT_ASSIGNED_CONTEXT((#724,#726,#727))
REPRESENTATION_CONTEXT('','3D')
);
#723=(
GEOMETRIC_REPRESENTATION_CONTEXT(3)
GLOBAL_UNCERTAINTY_ASSIGNED_CONTEXT((#721))
GLOBAL_UNIT_ASSIGNED_CONTEXT((#724,#726,#727))
REPRESENTATION_CONTEXT('','3D')
);
#724=(
LENGTH_UNIT()
NAMED_UNIT(*)
SI_UNIT(.MILLI.,.METRE.)
);
#725=(
LENGTH_UNIT()
NAMED_UNIT(*)
SI_UNIT($,.METRE.)
);
#726=(
NAMED_UNIT(*)
PLANE_ANGLE_UNIT()
SI_UNIT($,.RADIAN.)
);
#727=(
NAMED_UNIT(*)
SI_UNIT($,.STERADIAN.)
SOLID_ANGLE_UNIT()
);
#728=SHAPE_DEFINITION_REPRESENTATION(#729,#730);
#729=PRODUCT_DEFINITION_SHAPE('',$,#732);
#730=SHAPE_REPRESENTATION('',(#430),#722);
#731=PRODUCT_DEFINITION_CONTEXT('part definition',#736,'design');
#732=PRODUCT_DEFINITION('VIHALS Controller Top Wire Holder',
'VIHALS Controller Top Wire Holder v6',#733,#731);
#733=PRODUCT_DEFINITION_FORMATION('',$,#738);
#734=PRODUCT_RELATED_PRODUCT_CATEGORY(
'VIHALS Controller Top Wire Holder v6',
'VIHALS Controller Top Wire Holder v6',(#738));
#735=APPLICATION_PROTOCOL_DEFINITION('international standard',
'automotive_design',2009,#736);
#736=APPLICATION_CONTEXT(
'Core Data for Automotive Mechanical Design Process');
#737=PRODUCT_CONTEXT('part definition',#736,'mechanical');
#738=PRODUCT('VIHALS Controller Top Wire Holder',
'VIHALS Controller Top Wire Holder v6',$,(#737));
#739=PRESENTATION_STYLE_ASSIGNMENT((#741));
#740=PRESENTATION_STYLE_ASSIGNMENT((#742));
#741=SURFACE_STYLE_USAGE(.BOTH.,#743);
#742=SURFACE_STYLE_USAGE(.BOTH.,#744);
#743=SURFACE_SIDE_STYLE('',(#745));
#744=SURFACE_SIDE_STYLE('',(#746));
#745=SURFACE_STYLE_FILL_AREA(#747);
#746=SURFACE_STYLE_FILL_AREA(#748);
#747=FILL_AREA_STYLE('Steel - Satin',(#749));
#748=FILL_AREA_STYLE('Powder Coat - Rough (Black)',(#750));
#749=FILL_AREA_STYLE_COLOUR('Steel - Satin',#751);
#750=FILL_AREA_STYLE_COLOUR('Powder Coat - Rough (Black)',#752);
#751=COLOUR_RGB('Steel - Satin',0.627450980392157,0.627450980392157,0.627450980392157);
#752=COLOUR_RGB('Powder Coat - Rough (Black)',0.0705882352941176,0.529411764705882,
0.164705882352941);
ENDSEC;
END-ISO-10303-21;
