ISO-10303-21;
HEADER;
/* Generated by software containing ST-Developer
 * from STEP Tools, Inc. (www.steptools.com) 
 */

FILE_DESCRIPTION(
/* description */ (''),
/* implementation_level */ '2;1');

FILE_NAME(
/* name */ 'VIHALS Controller Side Wire Holder.step',
/* time_stamp */ '2026-03-25T02:16:47-04:00',
/* author */ (''),
/* organization */ (''),
/* preprocessor_version */ 'ST-DEVELOPER v20.1',
/* originating_system */ 'Autodesk Translation Framework v14.24.0.0',
/* authorisation */ '');

FILE_SCHEMA (('AUTOMOTIVE_DESIGN { 1 0 10303 214 3 1 1 }'));
ENDSEC;

DATA;
#10=MECHANICAL_DESIGN_GEOMETRIC_PRESENTATION_REPRESENTATION('',(#13),#973);
#11=SHAPE_REPRESENTATION_RELATIONSHIP('SRR','None',#980,#12);
#12=ADVANCED_BREP_SHAPE_REPRESENTATION('',(#14),#972);
#13=STYLED_ITEM('',(#990),#14);
#14=MANIFOLD_SOLID_BREP('Body1',#583);
#15=PLANE('',#600);
#16=PLANE('',#604);
#17=PLANE('',#605);
#18=PLANE('',#612);
#19=PLANE('',#623);
#20=PLANE('',#624);
#21=PLANE('',#625);
#22=PLANE('',#627);
#23=PLANE('',#629);
#24=PLANE('',#630);
#25=PLANE('',#631);
#26=PLANE('',#632);
#27=PLANE('',#633);
#28=PLANE('',#634);
#29=PLANE('',#635);
#30=PLANE('',#636);
#31=PLANE('',#637);
#32=PLANE('',#638);
#33=PLANE('',#639);
#34=PLANE('',#640);
#35=PLANE('',#641);
#36=PLANE('',#642);
#37=FACE_OUTER_BOUND('',#67,.T.);
#38=FACE_OUTER_BOUND('',#68,.T.);
#39=FACE_OUTER_BOUND('',#69,.T.);
#40=FACE_OUTER_BOUND('',#70,.T.);
#41=FACE_OUTER_BOUND('',#71,.T.);
#42=FACE_OUTER_BOUND('',#72,.T.);
#43=FACE_OUTER_BOUND('',#73,.T.);
#44=FACE_OUTER_BOUND('',#74,.T.);
#45=FACE_OUTER_BOUND('',#75,.T.);
#46=FACE_OUTER_BOUND('',#76,.T.);
#47=FACE_OUTER_BOUND('',#77,.T.);
#48=FACE_OUTER_BOUND('',#78,.T.);
#49=FACE_OUTER_BOUND('',#79,.T.);
#50=FACE_OUTER_BOUND('',#80,.T.);
#51=FACE_OUTER_BOUND('',#81,.T.);
#52=FACE_OUTER_BOUND('',#82,.T.);
#53=FACE_OUTER_BOUND('',#83,.T.);
#54=FACE_OUTER_BOUND('',#84,.T.);
#55=FACE_OUTER_BOUND('',#85,.T.);
#56=FACE_OUTER_BOUND('',#86,.T.);
#57=FACE_OUTER_BOUND('',#87,.T.);
#58=FACE_OUTER_BOUND('',#88,.T.);
#59=FACE_OUTER_BOUND('',#89,.T.);
#60=FACE_OUTER_BOUND('',#90,.T.);
#61=FACE_OUTER_BOUND('',#91,.T.);
#62=FACE_OUTER_BOUND('',#92,.T.);
#63=FACE_OUTER_BOUND('',#93,.T.);
#64=FACE_OUTER_BOUND('',#94,.T.);
#65=FACE_OUTER_BOUND('',#95,.T.);
#66=FACE_OUTER_BOUND('',#96,.T.);
#67=EDGE_LOOP('',(#381,#382,#383,#384));
#68=EDGE_LOOP('',(#385,#386,#387,#388));
#69=EDGE_LOOP('',(#389,#390,#391,#392));
#70=EDGE_LOOP('',(#393,#394,#395,#396));
#71=EDGE_LOOP('',(#397,#398,#399,#400,#401,#402,#403,#404,#405,#406,#407,
#408,#409,#410,#411,#412));
#72=EDGE_LOOP('',(#413,#414,#415,#416,#417,#418,#419,#420,#421,#422,#423,
#424,#425,#426,#427,#428));
#73=EDGE_LOOP('',(#429,#430,#431,#432));
#74=EDGE_LOOP('',(#433,#434,#435,#436));
#75=EDGE_LOOP('',(#437,#438,#439,#440));
#76=EDGE_LOOP('',(#441,#442,#443,#444));
#77=EDGE_LOOP('',(#445,#446,#447,#448));
#78=EDGE_LOOP('',(#449,#450,#451,#452));
#79=EDGE_LOOP('',(#453,#454,#455,#456));
#80=EDGE_LOOP('',(#457,#458,#459,#460));
#81=EDGE_LOOP('',(#461,#462,#463,#464));
#82=EDGE_LOOP('',(#465,#466,#467,#468));
#83=EDGE_LOOP('',(#469,#470,#471,#472));
#84=EDGE_LOOP('',(#473,#474,#475,#476));
#85=EDGE_LOOP('',(#477,#478,#479,#480));
#86=EDGE_LOOP('',(#481,#482,#483,#484,#485));
#87=EDGE_LOOP('',(#486,#487,#488,#489,#490));
#88=EDGE_LOOP('',(#491,#492,#493,#494,#495));
#89=EDGE_LOOP('',(#496,#497,#498,#499,#500,#501,#502,#503,#504,#505,#506,
#507,#508,#509));
#90=EDGE_LOOP('',(#510,#511,#512,#513));
#91=EDGE_LOOP('',(#514,#515,#516,#517,#518,#519,#520,#521,#522,#523,#524));
#92=EDGE_LOOP('',(#525,#526,#527,#528));
#93=EDGE_LOOP('',(#529,#530,#531,#532));
#94=EDGE_LOOP('',(#533,#534,#535,#536));
#95=EDGE_LOOP('',(#537,#538,#539,#540));
#96=EDGE_LOOP('',(#541,#542,#543,#544));
#97=LINE('',#809,#163);
#98=LINE('',#812,#164);
#99=LINE('',#815,#165);
#100=LINE('',#817,#166);
#101=LINE('',#818,#167);
#102=LINE('',#824,#168);
#103=LINE('',#827,#169);
#104=LINE('',#830,#170);
#105=LINE('',#832,#171);
#106=LINE('',#833,#172);
#107=LINE('',#836,#173);
#108=LINE('',#838,#174);
#109=LINE('',#839,#175);
#110=LINE('',#845,#176);
#111=LINE('',#849,#177);
#112=LINE('',#853,#178);
#113=LINE('',#859,#179);
#114=LINE('',#861,#180);
#115=LINE('',#862,#181);
#116=LINE('',#868,#182);
#117=LINE('',#872,#183);
#118=LINE('',#876,#184);
#119=LINE('',#881,#185);
#120=LINE('',#882,#186);
#121=LINE('',#885,#187);
#122=LINE('',#886,#188);
#123=LINE('',#890,#189);
#124=LINE('',#892,#190);
#125=LINE('',#893,#191);
#126=LINE('',#896,#192);
#127=LINE('',#898,#193);
#128=LINE('',#899,#194);
#129=LINE('',#901,#195);
#130=LINE('',#903,#196);
#131=LINE('',#905,#197);
#132=LINE('',#907,#198);
#133=LINE('',#911,#199);
#134=LINE('',#913,#200);
#135=LINE('',#914,#201);
#136=LINE('',#917,#202);
#137=LINE('',#919,#203);
#138=LINE('',#920,#204);
#139=LINE('',#924,#205);
#140=LINE('',#926,#206);
#141=LINE('',#928,#207);
#142=LINE('',#930,#208);
#143=LINE('',#931,#209);
#144=LINE('',#934,#210);
#145=LINE('',#936,#211);
#146=LINE('',#938,#212);
#147=LINE('',#939,#213);
#148=LINE('',#941,#214);
#149=LINE('',#942,#215);
#150=LINE('',#945,#216);
#151=LINE('',#947,#217);
#152=LINE('',#949,#218);
#153=LINE('',#951,#219);
#154=LINE('',#952,#220);
#155=LINE('',#955,#221);
#156=LINE('',#956,#222);
#157=LINE('',#957,#223);
#158=LINE('',#960,#224);
#159=LINE('',#961,#225);
#160=LINE('',#963,#226);
#161=LINE('',#965,#227);
#162=LINE('',#968,#228);
#163=VECTOR('',#649,15.);
#164=VECTOR('',#652,15.);
#165=VECTOR('',#655,10.);
#166=VECTOR('',#656,10.);
#167=VECTOR('',#657,10.);
#168=VECTOR('',#662,15.);
#169=VECTOR('',#665,15.);
#170=VECTOR('',#668,10.);
#171=VECTOR('',#669,10.);
#172=VECTOR('',#670,10.);
#173=VECTOR('',#673,10.);
#174=VECTOR('',#674,10.);
#175=VECTOR('',#675,10.);
#176=VECTOR('',#680,10.);
#177=VECTOR('',#683,10.);
#178=VECTOR('',#686,10.);
#179=VECTOR('',#693,10.);
#180=VECTOR('',#694,10.);
#181=VECTOR('',#695,10.);
#182=VECTOR('',#700,10.);
#183=VECTOR('',#703,10.);
#184=VECTOR('',#706,10.);
#185=VECTOR('',#713,10.);
#186=VECTOR('',#714,10.);
#187=VECTOR('',#719,10.);
#188=VECTOR('',#720,10.);
#189=VECTOR('',#725,10.);
#190=VECTOR('',#726,10.);
#191=VECTOR('',#727,10.);
#192=VECTOR('',#730,10.);
#193=VECTOR('',#731,10.);
#194=VECTOR('',#732,10.);
#195=VECTOR('',#735,10.);
#196=VECTOR('',#738,10.);
#197=VECTOR('',#741,10.);
#198=VECTOR('',#744,10.);
#199=VECTOR('',#749,10.);
#200=VECTOR('',#750,10.);
#201=VECTOR('',#751,10.);
#202=VECTOR('',#754,10.);
#203=VECTOR('',#755,10.);
#204=VECTOR('',#756,10.);
#205=VECTOR('',#759,10.);
#206=VECTOR('',#760,10.);
#207=VECTOR('',#761,10.);
#208=VECTOR('',#762,10.);
#209=VECTOR('',#763,10.);
#210=VECTOR('',#766,10.);
#211=VECTOR('',#767,10.);
#212=VECTOR('',#768,10.);
#213=VECTOR('',#769,10.);
#214=VECTOR('',#772,10.);
#215=VECTOR('',#773,10.);
#216=VECTOR('',#776,10.);
#217=VECTOR('',#777,10.);
#218=VECTOR('',#778,10.);
#219=VECTOR('',#779,10.);
#220=VECTOR('',#780,10.);
#221=VECTOR('',#783,10.);
#222=VECTOR('',#784,10.);
#223=VECTOR('',#785,10.);
#224=VECTOR('',#788,10.);
#225=VECTOR('',#789,10.);
#226=VECTOR('',#792,10.);
#227=VECTOR('',#795,10.);
#228=VECTOR('',#800,10.);
#229=CIRCLE('',#598,15.);
#230=CIRCLE('',#599,15.);
#231=CIRCLE('',#602,15.);
#232=CIRCLE('',#603,15.);
#233=CIRCLE('',#606,2.75);
#234=CIRCLE('',#607,0.25);
#235=CIRCLE('',#608,1.5);
#236=CIRCLE('',#609,1.5);
#237=CIRCLE('',#610,0.25);
#238=CIRCLE('',#611,2.75);
#239=CIRCLE('',#613,2.75);
#240=CIRCLE('',#614,0.25);
#241=CIRCLE('',#615,1.5);
#242=CIRCLE('',#616,1.5);
#243=CIRCLE('',#617,0.25);
#244=CIRCLE('',#618,2.75);
#245=VERTEX_POINT('',#805);
#246=VERTEX_POINT('',#806);
#247=VERTEX_POINT('',#808);
#248=VERTEX_POINT('',#810);
#249=VERTEX_POINT('',#814);
#250=VERTEX_POINT('',#816);
#251=VERTEX_POINT('',#820);
#252=VERTEX_POINT('',#821);
#253=VERTEX_POINT('',#823);
#254=VERTEX_POINT('',#825);
#255=VERTEX_POINT('',#829);
#256=VERTEX_POINT('',#831);
#257=VERTEX_POINT('',#835);
#258=VERTEX_POINT('',#837);
#259=VERTEX_POINT('',#840);
#260=VERTEX_POINT('',#842);
#261=VERTEX_POINT('',#844);
#262=VERTEX_POINT('',#846);
#263=VERTEX_POINT('',#848);
#264=VERTEX_POINT('',#850);
#265=VERTEX_POINT('',#852);
#266=VERTEX_POINT('',#854);
#267=VERTEX_POINT('',#858);
#268=VERTEX_POINT('',#860);
#269=VERTEX_POINT('',#863);
#270=VERTEX_POINT('',#865);
#271=VERTEX_POINT('',#867);
#272=VERTEX_POINT('',#869);
#273=VERTEX_POINT('',#871);
#274=VERTEX_POINT('',#873);
#275=VERTEX_POINT('',#875);
#276=VERTEX_POINT('',#877);
#277=VERTEX_POINT('',#889);
#278=VERTEX_POINT('',#891);
#279=VERTEX_POINT('',#895);
#280=VERTEX_POINT('',#897);
#281=VERTEX_POINT('',#910);
#282=VERTEX_POINT('',#912);
#283=VERTEX_POINT('',#916);
#284=VERTEX_POINT('',#918);
#285=VERTEX_POINT('',#922);
#286=VERTEX_POINT('',#923);
#287=VERTEX_POINT('',#925);
#288=VERTEX_POINT('',#927);
#289=VERTEX_POINT('',#929);
#290=VERTEX_POINT('',#933);
#291=VERTEX_POINT('',#935);
#292=VERTEX_POINT('',#937);
#293=VERTEX_POINT('',#944);
#294=VERTEX_POINT('',#946);
#295=VERTEX_POINT('',#948);
#296=VERTEX_POINT('',#950);
#297=VERTEX_POINT('',#954);
#298=VERTEX_POINT('',#959);
#299=EDGE_CURVE('',#245,#246,#229,.T.);
#300=EDGE_CURVE('',#246,#247,#97,.T.);
#301=EDGE_CURVE('',#248,#247,#230,.F.);
#302=EDGE_CURVE('',#248,#245,#98,.T.);
#303=EDGE_CURVE('',#249,#248,#99,.T.);
#304=EDGE_CURVE('',#250,#249,#100,.T.);
#305=EDGE_CURVE('',#245,#250,#101,.T.);
#306=EDGE_CURVE('',#251,#252,#231,.F.);
#307=EDGE_CURVE('',#251,#253,#102,.T.);
#308=EDGE_CURVE('',#253,#254,#232,.T.);
#309=EDGE_CURVE('',#254,#252,#103,.T.);
#310=EDGE_CURVE('',#255,#254,#104,.T.);
#311=EDGE_CURVE('',#255,#256,#105,.T.);
#312=EDGE_CURVE('',#252,#256,#106,.T.);
#313=EDGE_CURVE('',#250,#257,#107,.T.);
#314=EDGE_CURVE('',#258,#257,#108,.T.);
#315=EDGE_CURVE('',#258,#255,#109,.T.);
#316=EDGE_CURVE('',#253,#259,#233,.T.);
#317=EDGE_CURVE('',#260,#259,#234,.T.);
#318=EDGE_CURVE('',#260,#261,#110,.T.);
#319=EDGE_CURVE('',#261,#262,#235,.T.);
#320=EDGE_CURVE('',#262,#263,#111,.T.);
#321=EDGE_CURVE('',#263,#264,#236,.T.);
#322=EDGE_CURVE('',#264,#265,#112,.T.);
#323=EDGE_CURVE('',#266,#265,#237,.T.);
#324=EDGE_CURVE('',#266,#246,#238,.T.);
#325=EDGE_CURVE('',#256,#267,#113,.T.);
#326=EDGE_CURVE('',#268,#267,#114,.T.);
#327=EDGE_CURVE('',#268,#249,#115,.T.);
#328=EDGE_CURVE('',#247,#269,#239,.T.);
#329=EDGE_CURVE('',#270,#269,#240,.T.);
#330=EDGE_CURVE('',#270,#271,#116,.T.);
#331=EDGE_CURVE('',#271,#272,#241,.T.);
#332=EDGE_CURVE('',#272,#273,#117,.T.);
#333=EDGE_CURVE('',#273,#274,#242,.T.);
#334=EDGE_CURVE('',#274,#275,#118,.T.);
#335=EDGE_CURVE('',#276,#275,#243,.T.);
#336=EDGE_CURVE('',#276,#251,#244,.T.);
#337=EDGE_CURVE('',#275,#260,#119,.T.);
#338=EDGE_CURVE('',#259,#276,#120,.T.);
#339=EDGE_CURVE('',#265,#270,#121,.T.);
#340=EDGE_CURVE('',#269,#266,#122,.T.);
#341=EDGE_CURVE('',#277,#258,#123,.T.);
#342=EDGE_CURVE('',#257,#278,#124,.T.);
#343=EDGE_CURVE('',#278,#277,#125,.T.);
#344=EDGE_CURVE('',#279,#268,#126,.T.);
#345=EDGE_CURVE('',#267,#280,#127,.T.);
#346=EDGE_CURVE('',#280,#279,#128,.T.);
#347=EDGE_CURVE('',#261,#274,#129,.T.);
#348=EDGE_CURVE('',#273,#262,#130,.T.);
#349=EDGE_CURVE('',#272,#263,#131,.T.);
#350=EDGE_CURVE('',#264,#271,#132,.T.);
#351=EDGE_CURVE('',#278,#281,#133,.T.);
#352=EDGE_CURVE('',#281,#282,#134,.T.);
#353=EDGE_CURVE('',#282,#277,#135,.T.);
#354=EDGE_CURVE('',#280,#283,#136,.T.);
#355=EDGE_CURVE('',#283,#284,#137,.T.);
#356=EDGE_CURVE('',#284,#279,#138,.T.);
#357=EDGE_CURVE('',#285,#286,#139,.T.);
#358=EDGE_CURVE('',#287,#285,#140,.T.);
#359=EDGE_CURVE('',#288,#287,#141,.T.);
#360=EDGE_CURVE('',#289,#288,#142,.T.);
#361=EDGE_CURVE('',#286,#289,#143,.T.);
#362=EDGE_CURVE('',#287,#290,#144,.T.);
#363=EDGE_CURVE('',#291,#290,#145,.T.);
#364=EDGE_CURVE('',#291,#292,#146,.T.);
#365=EDGE_CURVE('',#288,#292,#147,.T.);
#366=EDGE_CURVE('',#285,#282,#148,.T.);
#367=EDGE_CURVE('',#290,#281,#149,.T.);
#368=EDGE_CURVE('',#286,#293,#150,.T.);
#369=EDGE_CURVE('',#294,#293,#151,.T.);
#370=EDGE_CURVE('',#294,#295,#152,.T.);
#371=EDGE_CURVE('',#296,#295,#153,.T.);
#372=EDGE_CURVE('',#296,#283,#154,.T.);
#373=EDGE_CURVE('',#293,#297,#155,.T.);
#374=EDGE_CURVE('',#297,#292,#156,.T.);
#375=EDGE_CURVE('',#294,#292,#157,.T.);
#376=EDGE_CURVE('',#298,#284,#158,.T.);
#377=EDGE_CURVE('',#291,#298,#159,.T.);
#378=EDGE_CURVE('',#298,#296,#160,.T.);
#379=EDGE_CURVE('',#295,#291,#161,.T.);
#380=EDGE_CURVE('',#289,#297,#162,.T.);
#381=ORIENTED_EDGE('',*,*,#299,.T.);
#382=ORIENTED_EDGE('',*,*,#300,.T.);
#383=ORIENTED_EDGE('',*,*,#301,.F.);
#384=ORIENTED_EDGE('',*,*,#302,.T.);
#385=ORIENTED_EDGE('',*,*,#302,.F.);
#386=ORIENTED_EDGE('',*,*,#303,.F.);
#387=ORIENTED_EDGE('',*,*,#304,.F.);
#388=ORIENTED_EDGE('',*,*,#305,.F.);
#389=ORIENTED_EDGE('',*,*,#306,.F.);
#390=ORIENTED_EDGE('',*,*,#307,.T.);
#391=ORIENTED_EDGE('',*,*,#308,.T.);
#392=ORIENTED_EDGE('',*,*,#309,.T.);
#393=ORIENTED_EDGE('',*,*,#309,.F.);
#394=ORIENTED_EDGE('',*,*,#310,.F.);
#395=ORIENTED_EDGE('',*,*,#311,.T.);
#396=ORIENTED_EDGE('',*,*,#312,.F.);
#397=ORIENTED_EDGE('',*,*,#299,.F.);
#398=ORIENTED_EDGE('',*,*,#305,.T.);
#399=ORIENTED_EDGE('',*,*,#313,.T.);
#400=ORIENTED_EDGE('',*,*,#314,.F.);
#401=ORIENTED_EDGE('',*,*,#315,.T.);
#402=ORIENTED_EDGE('',*,*,#310,.T.);
#403=ORIENTED_EDGE('',*,*,#308,.F.);
#404=ORIENTED_EDGE('',*,*,#316,.T.);
#405=ORIENTED_EDGE('',*,*,#317,.F.);
#406=ORIENTED_EDGE('',*,*,#318,.T.);
#407=ORIENTED_EDGE('',*,*,#319,.T.);
#408=ORIENTED_EDGE('',*,*,#320,.T.);
#409=ORIENTED_EDGE('',*,*,#321,.T.);
#410=ORIENTED_EDGE('',*,*,#322,.T.);
#411=ORIENTED_EDGE('',*,*,#323,.F.);
#412=ORIENTED_EDGE('',*,*,#324,.T.);
#413=ORIENTED_EDGE('',*,*,#306,.T.);
#414=ORIENTED_EDGE('',*,*,#312,.T.);
#415=ORIENTED_EDGE('',*,*,#325,.T.);
#416=ORIENTED_EDGE('',*,*,#326,.F.);
#417=ORIENTED_EDGE('',*,*,#327,.T.);
#418=ORIENTED_EDGE('',*,*,#303,.T.);
#419=ORIENTED_EDGE('',*,*,#301,.T.);
#420=ORIENTED_EDGE('',*,*,#328,.T.);
#421=ORIENTED_EDGE('',*,*,#329,.F.);
#422=ORIENTED_EDGE('',*,*,#330,.T.);
#423=ORIENTED_EDGE('',*,*,#331,.T.);
#424=ORIENTED_EDGE('',*,*,#332,.T.);
#425=ORIENTED_EDGE('',*,*,#333,.T.);
#426=ORIENTED_EDGE('',*,*,#334,.T.);
#427=ORIENTED_EDGE('',*,*,#335,.F.);
#428=ORIENTED_EDGE('',*,*,#336,.T.);
#429=ORIENTED_EDGE('',*,*,#335,.T.);
#430=ORIENTED_EDGE('',*,*,#337,.T.);
#431=ORIENTED_EDGE('',*,*,#317,.T.);
#432=ORIENTED_EDGE('',*,*,#338,.T.);
#433=ORIENTED_EDGE('',*,*,#307,.F.);
#434=ORIENTED_EDGE('',*,*,#336,.F.);
#435=ORIENTED_EDGE('',*,*,#338,.F.);
#436=ORIENTED_EDGE('',*,*,#316,.F.);
#437=ORIENTED_EDGE('',*,*,#323,.T.);
#438=ORIENTED_EDGE('',*,*,#339,.T.);
#439=ORIENTED_EDGE('',*,*,#329,.T.);
#440=ORIENTED_EDGE('',*,*,#340,.T.);
#441=ORIENTED_EDGE('',*,*,#300,.F.);
#442=ORIENTED_EDGE('',*,*,#324,.F.);
#443=ORIENTED_EDGE('',*,*,#340,.F.);
#444=ORIENTED_EDGE('',*,*,#328,.F.);
#445=ORIENTED_EDGE('',*,*,#341,.T.);
#446=ORIENTED_EDGE('',*,*,#314,.T.);
#447=ORIENTED_EDGE('',*,*,#342,.T.);
#448=ORIENTED_EDGE('',*,*,#343,.T.);
#449=ORIENTED_EDGE('',*,*,#344,.T.);
#450=ORIENTED_EDGE('',*,*,#326,.T.);
#451=ORIENTED_EDGE('',*,*,#345,.T.);
#452=ORIENTED_EDGE('',*,*,#346,.T.);
#453=ORIENTED_EDGE('',*,*,#337,.F.);
#454=ORIENTED_EDGE('',*,*,#334,.F.);
#455=ORIENTED_EDGE('',*,*,#347,.F.);
#456=ORIENTED_EDGE('',*,*,#318,.F.);
#457=ORIENTED_EDGE('',*,*,#347,.T.);
#458=ORIENTED_EDGE('',*,*,#333,.F.);
#459=ORIENTED_EDGE('',*,*,#348,.T.);
#460=ORIENTED_EDGE('',*,*,#319,.F.);
#461=ORIENTED_EDGE('',*,*,#348,.F.);
#462=ORIENTED_EDGE('',*,*,#332,.F.);
#463=ORIENTED_EDGE('',*,*,#349,.T.);
#464=ORIENTED_EDGE('',*,*,#320,.F.);
#465=ORIENTED_EDGE('',*,*,#349,.F.);
#466=ORIENTED_EDGE('',*,*,#331,.F.);
#467=ORIENTED_EDGE('',*,*,#350,.F.);
#468=ORIENTED_EDGE('',*,*,#321,.F.);
#469=ORIENTED_EDGE('',*,*,#339,.F.);
#470=ORIENTED_EDGE('',*,*,#322,.F.);
#471=ORIENTED_EDGE('',*,*,#350,.T.);
#472=ORIENTED_EDGE('',*,*,#330,.F.);
#473=ORIENTED_EDGE('',*,*,#343,.F.);
#474=ORIENTED_EDGE('',*,*,#351,.T.);
#475=ORIENTED_EDGE('',*,*,#352,.T.);
#476=ORIENTED_EDGE('',*,*,#353,.T.);
#477=ORIENTED_EDGE('',*,*,#346,.F.);
#478=ORIENTED_EDGE('',*,*,#354,.T.);
#479=ORIENTED_EDGE('',*,*,#355,.T.);
#480=ORIENTED_EDGE('',*,*,#356,.T.);
#481=ORIENTED_EDGE('',*,*,#357,.F.);
#482=ORIENTED_EDGE('',*,*,#358,.F.);
#483=ORIENTED_EDGE('',*,*,#359,.F.);
#484=ORIENTED_EDGE('',*,*,#360,.F.);
#485=ORIENTED_EDGE('',*,*,#361,.F.);
#486=ORIENTED_EDGE('',*,*,#359,.T.);
#487=ORIENTED_EDGE('',*,*,#362,.T.);
#488=ORIENTED_EDGE('',*,*,#363,.F.);
#489=ORIENTED_EDGE('',*,*,#364,.T.);
#490=ORIENTED_EDGE('',*,*,#365,.F.);
#491=ORIENTED_EDGE('',*,*,#358,.T.);
#492=ORIENTED_EDGE('',*,*,#366,.T.);
#493=ORIENTED_EDGE('',*,*,#352,.F.);
#494=ORIENTED_EDGE('',*,*,#367,.F.);
#495=ORIENTED_EDGE('',*,*,#362,.F.);
#496=ORIENTED_EDGE('',*,*,#357,.T.);
#497=ORIENTED_EDGE('',*,*,#368,.T.);
#498=ORIENTED_EDGE('',*,*,#369,.F.);
#499=ORIENTED_EDGE('',*,*,#370,.T.);
#500=ORIENTED_EDGE('',*,*,#371,.F.);
#501=ORIENTED_EDGE('',*,*,#372,.T.);
#502=ORIENTED_EDGE('',*,*,#354,.F.);
#503=ORIENTED_EDGE('',*,*,#345,.F.);
#504=ORIENTED_EDGE('',*,*,#325,.F.);
#505=ORIENTED_EDGE('',*,*,#311,.F.);
#506=ORIENTED_EDGE('',*,*,#315,.F.);
#507=ORIENTED_EDGE('',*,*,#341,.F.);
#508=ORIENTED_EDGE('',*,*,#353,.F.);
#509=ORIENTED_EDGE('',*,*,#366,.F.);
#510=ORIENTED_EDGE('',*,*,#369,.T.);
#511=ORIENTED_EDGE('',*,*,#373,.T.);
#512=ORIENTED_EDGE('',*,*,#374,.T.);
#513=ORIENTED_EDGE('',*,*,#375,.F.);
#514=ORIENTED_EDGE('',*,*,#363,.T.);
#515=ORIENTED_EDGE('',*,*,#367,.T.);
#516=ORIENTED_EDGE('',*,*,#351,.F.);
#517=ORIENTED_EDGE('',*,*,#342,.F.);
#518=ORIENTED_EDGE('',*,*,#313,.F.);
#519=ORIENTED_EDGE('',*,*,#304,.T.);
#520=ORIENTED_EDGE('',*,*,#327,.F.);
#521=ORIENTED_EDGE('',*,*,#344,.F.);
#522=ORIENTED_EDGE('',*,*,#356,.F.);
#523=ORIENTED_EDGE('',*,*,#376,.F.);
#524=ORIENTED_EDGE('',*,*,#377,.F.);
#525=ORIENTED_EDGE('',*,*,#378,.F.);
#526=ORIENTED_EDGE('',*,*,#376,.T.);
#527=ORIENTED_EDGE('',*,*,#355,.F.);
#528=ORIENTED_EDGE('',*,*,#372,.F.);
#529=ORIENTED_EDGE('',*,*,#379,.T.);
#530=ORIENTED_EDGE('',*,*,#377,.T.);
#531=ORIENTED_EDGE('',*,*,#378,.T.);
#532=ORIENTED_EDGE('',*,*,#371,.T.);
#533=ORIENTED_EDGE('',*,*,#375,.T.);
#534=ORIENTED_EDGE('',*,*,#364,.F.);
#535=ORIENTED_EDGE('',*,*,#379,.F.);
#536=ORIENTED_EDGE('',*,*,#370,.F.);
#537=ORIENTED_EDGE('',*,*,#360,.T.);
#538=ORIENTED_EDGE('',*,*,#365,.T.);
#539=ORIENTED_EDGE('',*,*,#374,.F.);
#540=ORIENTED_EDGE('',*,*,#380,.F.);
#541=ORIENTED_EDGE('',*,*,#361,.T.);
#542=ORIENTED_EDGE('',*,*,#380,.T.);
#543=ORIENTED_EDGE('',*,*,#373,.F.);
#544=ORIENTED_EDGE('',*,*,#368,.F.);
#545=CYLINDRICAL_SURFACE('',#597,15.);
#546=CYLINDRICAL_SURFACE('',#601,15.);
#547=CYLINDRICAL_SURFACE('',#619,0.25);
#548=CYLINDRICAL_SURFACE('',#620,2.75);
#549=CYLINDRICAL_SURFACE('',#621,0.25);
#550=CYLINDRICAL_SURFACE('',#622,2.75);
#551=CYLINDRICAL_SURFACE('',#626,1.5);
#552=CYLINDRICAL_SURFACE('',#628,1.5);
#553=ADVANCED_FACE('',(#37),#545,.F.);
#554=ADVANCED_FACE('',(#38),#15,.T.);
#555=ADVANCED_FACE('',(#39),#546,.F.);
#556=ADVANCED_FACE('',(#40),#16,.T.);
#557=ADVANCED_FACE('',(#41),#17,.F.);
#558=ADVANCED_FACE('',(#42),#18,.T.);
#559=ADVANCED_FACE('',(#43),#547,.T.);
#560=ADVANCED_FACE('',(#44),#548,.T.);
#561=ADVANCED_FACE('',(#45),#549,.T.);
#562=ADVANCED_FACE('',(#46),#550,.T.);
#563=ADVANCED_FACE('',(#47),#19,.T.);
#564=ADVANCED_FACE('',(#48),#20,.T.);
#565=ADVANCED_FACE('',(#49),#21,.T.);
#566=ADVANCED_FACE('',(#50),#551,.F.);
#567=ADVANCED_FACE('',(#51),#22,.T.);
#568=ADVANCED_FACE('',(#52),#552,.F.);
#569=ADVANCED_FACE('',(#53),#23,.T.);
#570=ADVANCED_FACE('',(#54),#24,.T.);
#571=ADVANCED_FACE('',(#55),#25,.T.);
#572=ADVANCED_FACE('',(#56),#26,.F.);
#573=ADVANCED_FACE('',(#57),#27,.T.);
#574=ADVANCED_FACE('',(#58),#28,.T.);
#575=ADVANCED_FACE('',(#59),#29,.T.);
#576=ADVANCED_FACE('',(#60),#30,.T.);
#577=ADVANCED_FACE('',(#61),#31,.T.);
#578=ADVANCED_FACE('',(#62),#32,.T.);
#579=ADVANCED_FACE('',(#63),#33,.F.);
#580=ADVANCED_FACE('',(#64),#34,.T.);
#581=ADVANCED_FACE('',(#65),#35,.T.);
#582=ADVANCED_FACE('',(#66),#36,.T.);
#583=CLOSED_SHELL('',(#553,#554,#555,#556,#557,#558,#559,#560,#561,#562,
#563,#564,#565,#566,#567,#568,#569,#570,#571,#572,#573,#574,#575,#576,#577,
#578,#579,#580,#581,#582));
#584=DERIVED_UNIT_ELEMENT(#586,1.);
#585=DERIVED_UNIT_ELEMENT(#975,-3.);
#586=(
MASS_UNIT()
NAMED_UNIT(*)
SI_UNIT(.KILO.,.GRAM.)
);
#587=DERIVED_UNIT((#584,#585));
#588=MEASURE_REPRESENTATION_ITEM('density measure',
POSITIVE_RATIO_MEASURE(7850.),#587);
#589=PROPERTY_DEFINITION_REPRESENTATION(#594,#591);
#590=PROPERTY_DEFINITION_REPRESENTATION(#595,#592);
#591=REPRESENTATION('material name',(#593),#972);
#592=REPRESENTATION('density',(#588),#972);
#593=DESCRIPTIVE_REPRESENTATION_ITEM('Steel','Steel');
#594=PROPERTY_DEFINITION('material property','material name',#982);
#595=PROPERTY_DEFINITION('material property','density of part',#982);
#596=AXIS2_PLACEMENT_3D('',#803,#643,#644);
#597=AXIS2_PLACEMENT_3D('',#804,#645,#646);
#598=AXIS2_PLACEMENT_3D('',#807,#647,#648);
#599=AXIS2_PLACEMENT_3D('',#811,#650,#651);
#600=AXIS2_PLACEMENT_3D('',#813,#653,#654);
#601=AXIS2_PLACEMENT_3D('',#819,#658,#659);
#602=AXIS2_PLACEMENT_3D('',#822,#660,#661);
#603=AXIS2_PLACEMENT_3D('',#826,#663,#664);
#604=AXIS2_PLACEMENT_3D('',#828,#666,#667);
#605=AXIS2_PLACEMENT_3D('',#834,#671,#672);
#606=AXIS2_PLACEMENT_3D('',#841,#676,#677);
#607=AXIS2_PLACEMENT_3D('',#843,#678,#679);
#608=AXIS2_PLACEMENT_3D('',#847,#681,#682);
#609=AXIS2_PLACEMENT_3D('',#851,#684,#685);
#610=AXIS2_PLACEMENT_3D('',#855,#687,#688);
#611=AXIS2_PLACEMENT_3D('',#856,#689,#690);
#612=AXIS2_PLACEMENT_3D('',#857,#691,#692);
#613=AXIS2_PLACEMENT_3D('',#864,#696,#697);
#614=AXIS2_PLACEMENT_3D('',#866,#698,#699);
#615=AXIS2_PLACEMENT_3D('',#870,#701,#702);
#616=AXIS2_PLACEMENT_3D('',#874,#704,#705);
#617=AXIS2_PLACEMENT_3D('',#878,#707,#708);
#618=AXIS2_PLACEMENT_3D('',#879,#709,#710);
#619=AXIS2_PLACEMENT_3D('',#880,#711,#712);
#620=AXIS2_PLACEMENT_3D('',#883,#715,#716);
#621=AXIS2_PLACEMENT_3D('',#884,#717,#718);
#622=AXIS2_PLACEMENT_3D('',#887,#721,#722);
#623=AXIS2_PLACEMENT_3D('',#888,#723,#724);
#624=AXIS2_PLACEMENT_3D('',#894,#728,#729);
#625=AXIS2_PLACEMENT_3D('',#900,#733,#734);
#626=AXIS2_PLACEMENT_3D('',#902,#736,#737);
#627=AXIS2_PLACEMENT_3D('',#904,#739,#740);
#628=AXIS2_PLACEMENT_3D('',#906,#742,#743);
#629=AXIS2_PLACEMENT_3D('',#908,#745,#746);
#630=AXIS2_PLACEMENT_3D('',#909,#747,#748);
#631=AXIS2_PLACEMENT_3D('',#915,#752,#753);
#632=AXIS2_PLACEMENT_3D('',#921,#757,#758);
#633=AXIS2_PLACEMENT_3D('',#932,#764,#765);
#634=AXIS2_PLACEMENT_3D('',#940,#770,#771);
#635=AXIS2_PLACEMENT_3D('',#943,#774,#775);
#636=AXIS2_PLACEMENT_3D('',#953,#781,#782);
#637=AXIS2_PLACEMENT_3D('',#958,#786,#787);
#638=AXIS2_PLACEMENT_3D('',#962,#790,#791);
#639=AXIS2_PLACEMENT_3D('',#964,#793,#794);
#640=AXIS2_PLACEMENT_3D('',#966,#796,#797);
#641=AXIS2_PLACEMENT_3D('',#967,#798,#799);
#642=AXIS2_PLACEMENT_3D('',#969,#801,#802);
#643=DIRECTION('axis',(0.,0.,1.));
#644=DIRECTION('refdir',(1.,0.,0.));
#645=DIRECTION('center_axis',(-1.,0.,0.));
#646=DIRECTION('ref_axis',(0.,0.371390676354104,0.928476690885259));
#647=DIRECTION('center_axis',(-1.,0.,0.));
#648=DIRECTION('ref_axis',(0.,0.371390676354104,0.928476690885259));
#649=DIRECTION('',(1.,0.,0.));
#650=DIRECTION('center_axis',(1.,0.,0.));
#651=DIRECTION('ref_axis',(0.,0.371390676354104,0.928476690885259));
#652=DIRECTION('',(-1.,0.,0.));
#653=DIRECTION('center_axis',(0.,0.371390676354104,0.928476690885259));
#654=DIRECTION('ref_axis',(0.,-0.928476690885259,0.371390676354104));
#655=DIRECTION('',(0.,-0.928476690885259,0.371390676354104));
#656=DIRECTION('',(1.,0.,0.));
#657=DIRECTION('',(0.,0.928476690885259,-0.371390676354104));
#658=DIRECTION('center_axis',(1.,0.,0.));
#659=DIRECTION('ref_axis',(0.,-0.371390676354104,0.928476690885259));
#660=DIRECTION('center_axis',(1.,0.,0.));
#661=DIRECTION('ref_axis',(0.,-0.371390676354104,0.928476690885259));
#662=DIRECTION('',(-1.,0.,0.));
#663=DIRECTION('center_axis',(-1.,0.,0.));
#664=DIRECTION('ref_axis',(0.,-0.371390676354104,0.928476690885259));
#665=DIRECTION('',(1.,0.,0.));
#666=DIRECTION('center_axis',(0.,-0.371390676354104,0.928476690885259));
#667=DIRECTION('ref_axis',(0.,-0.928476690885259,-0.371390676354104));
#668=DIRECTION('',(0.,0.928476690885259,0.371390676354104));
#669=DIRECTION('',(1.,0.,0.));
#670=DIRECTION('',(0.,-0.928476690885259,-0.371390676354104));
#671=DIRECTION('center_axis',(1.,0.,0.));
#672=DIRECTION('ref_axis',(0.,1.,0.));
#673=DIRECTION('',(0.,0.,-1.));
#674=DIRECTION('',(0.,1.,0.));
#675=DIRECTION('',(0.,4.93432455388959E-16,1.));
#676=DIRECTION('center_axis',(-1.,0.,0.));
#677=DIRECTION('ref_axis',(0.,1.,0.));
#678=DIRECTION('center_axis',(1.,0.,0.));
#679=DIRECTION('ref_axis',(0.,0.670820393249938,0.741619848709566));
#680=DIRECTION('',(0.,0.,-1.));
#681=DIRECTION('center_axis',(1.,0.,0.));
#682=DIRECTION('ref_axis',(0.,1.,0.));
#683=DIRECTION('',(0.,1.,0.));
#684=DIRECTION('center_axis',(1.,0.,0.));
#685=DIRECTION('ref_axis',(0.,1.,0.));
#686=DIRECTION('',(0.,0.,1.));
#687=DIRECTION('center_axis',(1.,0.,0.));
#688=DIRECTION('ref_axis',(0.,-0.670820393249938,0.741619848709565));
#689=DIRECTION('center_axis',(-1.,0.,0.));
#690=DIRECTION('ref_axis',(0.,1.,0.));
#691=DIRECTION('center_axis',(1.,0.,0.));
#692=DIRECTION('ref_axis',(0.,1.,0.));
#693=DIRECTION('',(0.,-4.93432455388959E-16,-1.));
#694=DIRECTION('',(0.,-1.,0.));
#695=DIRECTION('',(0.,0.,1.));
#696=DIRECTION('center_axis',(1.,0.,0.));
#697=DIRECTION('ref_axis',(0.,1.,0.));
#698=DIRECTION('center_axis',(-1.,0.,0.));
#699=DIRECTION('ref_axis',(0.,-0.670820393249938,0.741619848709565));
#700=DIRECTION('',(0.,0.,-1.));
#701=DIRECTION('center_axis',(-1.,0.,0.));
#702=DIRECTION('ref_axis',(0.,1.,0.));
#703=DIRECTION('',(0.,-1.,0.));
#704=DIRECTION('center_axis',(-1.,0.,0.));
#705=DIRECTION('ref_axis',(0.,1.,0.));
#706=DIRECTION('',(0.,0.,1.));
#707=DIRECTION('center_axis',(-1.,0.,0.));
#708=DIRECTION('ref_axis',(0.,0.670820393249938,0.741619848709566));
#709=DIRECTION('center_axis',(1.,0.,0.));
#710=DIRECTION('ref_axis',(0.,1.,0.));
#711=DIRECTION('center_axis',(1.,0.,0.));
#712=DIRECTION('ref_axis',(0.,0.670820393249938,0.741619848709566));
#713=DIRECTION('',(-1.,0.,0.));
#714=DIRECTION('',(1.,0.,0.));
#715=DIRECTION('center_axis',(1.,0.,0.));
#716=DIRECTION('ref_axis',(0.,1.,0.));
#717=DIRECTION('center_axis',(-1.,0.,0.));
#718=DIRECTION('ref_axis',(0.,-0.670820393249938,0.741619848709565));
#719=DIRECTION('',(1.,0.,0.));
#720=DIRECTION('',(-1.,0.,0.));
#721=DIRECTION('center_axis',(1.,0.,0.));
#722=DIRECTION('ref_axis',(0.,1.,0.));
#723=DIRECTION('center_axis',(-0.707106781186548,0.,0.707106781186548));
#724=DIRECTION('ref_axis',(0.707106781186548,0.,0.707106781186548));
#725=DIRECTION('',(0.707106781186548,0.,0.707106781186548));
#726=DIRECTION('',(-0.707106781186548,0.,-0.707106781186548));
#727=DIRECTION('',(0.,-1.,0.));
#728=DIRECTION('center_axis',(0.707106781186548,0.,0.707106781186548));
#729=DIRECTION('ref_axis',(0.707106781186548,0.,-0.707106781186548));
#730=DIRECTION('',(-0.707106781186548,0.,0.707106781186548));
#731=DIRECTION('',(0.707106781186548,0.,-0.707106781186548));
#732=DIRECTION('',(0.,1.,0.));
#733=DIRECTION('center_axis',(0.,1.,0.));
#734=DIRECTION('ref_axis',(0.,0.,1.));
#735=DIRECTION('',(1.,0.,0.));
#736=DIRECTION('center_axis',(1.,0.,0.));
#737=DIRECTION('ref_axis',(0.,-1.,1.22464679914735E-16));
#738=DIRECTION('',(-1.,0.,0.));
#739=DIRECTION('center_axis',(0.,0.,1.));
#740=DIRECTION('ref_axis',(0.,-1.,0.));
#741=DIRECTION('',(-1.,0.,0.));
#742=DIRECTION('center_axis',(1.,0.,0.));
#743=DIRECTION('ref_axis',(0.,1.,0.));
#744=DIRECTION('',(1.,0.,0.));
#745=DIRECTION('center_axis',(0.,-1.,0.));
#746=DIRECTION('ref_axis',(0.,0.,-1.));
#747=DIRECTION('center_axis',(0.,0.,1.));
#748=DIRECTION('ref_axis',(1.,0.,0.));
#749=DIRECTION('',(-1.,0.,0.));
#750=DIRECTION('',(0.,-1.,0.));
#751=DIRECTION('',(1.,0.,0.));
#752=DIRECTION('center_axis',(0.,0.,1.));
#753=DIRECTION('ref_axis',(1.,0.,0.));
#754=DIRECTION('',(1.,0.,0.));
#755=DIRECTION('',(0.,1.,0.));
#756=DIRECTION('',(-1.,0.,0.));
#757=DIRECTION('center_axis',(0.,0.,1.));
#758=DIRECTION('ref_axis',(1.,0.,0.));
#759=DIRECTION('',(1.,0.,0.));
#760=DIRECTION('',(0.,-1.,0.));
#761=DIRECTION('',(-0.999999999999997,-7.45058059692381E-8,0.));
#762=DIRECTION('',(-1.,0.,0.));
#763=DIRECTION('',(0.,1.,0.));
#764=DIRECTION('center_axis',(-7.45058059692381E-8,0.999999999999997,0.));
#765=DIRECTION('ref_axis',(0.999999999999997,7.45058059692381E-8,0.));
#766=DIRECTION('',(0.,0.,1.));
#767=DIRECTION('',(-0.999999999999997,-7.45058059692381E-8,0.));
#768=DIRECTION('',(0.,0.,-1.));
#769=DIRECTION('',(0.,0.,1.));
#770=DIRECTION('center_axis',(-1.,0.,0.));
#771=DIRECTION('ref_axis',(0.,1.,0.));
#772=DIRECTION('',(0.,0.,1.));
#773=DIRECTION('',(0.,0.,1.));
#774=DIRECTION('center_axis',(0.,-1.,0.));
#775=DIRECTION('ref_axis',(1.,0.,0.));
#776=DIRECTION('',(0.,0.,1.));
#777=DIRECTION('',(1.,0.,0.));
#778=DIRECTION('',(0.,0.,1.));
#779=DIRECTION('',(-1.,0.,0.));
#780=DIRECTION('',(0.,0.,1.));
#781=DIRECTION('center_axis',(0.,0.,1.));
#782=DIRECTION('ref_axis',(1.,0.,0.));
#783=DIRECTION('',(0.,1.,0.));
#784=DIRECTION('',(-1.,0.,0.));
#785=DIRECTION('',(0.,1.,0.));
#786=DIRECTION('center_axis',(0.,1.,0.));
#787=DIRECTION('ref_axis',(-1.,0.,0.));
#788=DIRECTION('',(0.,0.,1.));
#789=DIRECTION('',(1.,0.,0.));
#790=DIRECTION('center_axis',(1.,0.,0.));
#791=DIRECTION('ref_axis',(0.,1.,0.));
#792=DIRECTION('',(0.,-1.,0.));
#793=DIRECTION('center_axis',(0.,0.,1.));
#794=DIRECTION('ref_axis',(-1.,0.,0.));
#795=DIRECTION('',(0.,1.,0.));
#796=DIRECTION('center_axis',(1.,0.,0.));
#797=DIRECTION('ref_axis',(0.,-1.,0.));
#798=DIRECTION('center_axis',(0.,1.,0.));
#799=DIRECTION('ref_axis',(-1.,0.,0.));
#800=DIRECTION('',(0.,0.,1.));
#801=DIRECTION('center_axis',(1.,0.,0.));
#802=DIRECTION('ref_axis',(0.,1.,0.));
#803=CARTESIAN_POINT('',(0.,0.,0.));
#804=CARTESIAN_POINT('Origin',(0.,14.3818810552864,42.902741999289));
#805=CARTESIAN_POINT('',(-1.5,8.81102090997482,28.9755916360101));
#806=CARTESIAN_POINT('',(-1.5,2.54508016349507,33.6891572111575));
#807=CARTESIAN_POINT('Origin',(-1.5,14.3818810552864,42.902741999289));
#808=CARTESIAN_POINT('',(1.5,2.54508016349507,33.6891572111575));
#809=CARTESIAN_POINT('',(0.,2.54508016349506,33.6891572111574));
#810=CARTESIAN_POINT('',(1.5,8.81102090997482,28.9755916360101));
#811=CARTESIAN_POINT('Origin',(1.5,14.3818810552864,42.902741999289));
#812=CARTESIAN_POINT('',(0.,8.81102090997482,28.9755916360101));
#813=CARTESIAN_POINT('Origin',(0.,10.,28.5));
#814=CARTESIAN_POINT('',(1.5,10.,28.5));
#815=CARTESIAN_POINT('',(1.5,5.,30.5));
#816=CARTESIAN_POINT('',(-1.5,10.,28.5));
#817=CARTESIAN_POINT('',(0.,10.,28.5));
#818=CARTESIAN_POINT('',(-1.5,5.,30.5));
#819=CARTESIAN_POINT('Origin',(0.,-14.3818810552864,42.902741999289));
#820=CARTESIAN_POINT('',(1.5,-2.54508016349507,33.6891572111575));
#821=CARTESIAN_POINT('',(1.5,-8.81102090997482,28.9755916360101));
#822=CARTESIAN_POINT('Origin',(1.5,-14.3818810552864,42.902741999289));
#823=CARTESIAN_POINT('',(-1.5,-2.54508016349507,33.6891572111575));
#824=CARTESIAN_POINT('',(0.,-2.54508016349507,33.6891572111574));
#825=CARTESIAN_POINT('',(-1.5,-8.81102090997482,28.9755916360101));
#826=CARTESIAN_POINT('Origin',(-1.5,-14.3818810552864,42.902741999289));
#827=CARTESIAN_POINT('',(0.,-8.81102090997482,28.9755916360101));
#828=CARTESIAN_POINT('Origin',(0.,-5.,30.5));
#829=CARTESIAN_POINT('',(-1.5,-10.,28.5));
#830=CARTESIAN_POINT('',(-1.5,-10.,28.5));
#831=CARTESIAN_POINT('',(1.5,-10.,28.5));
#832=CARTESIAN_POINT('',(0.,-10.,28.5));
#833=CARTESIAN_POINT('',(1.5,-10.,28.5));
#834=CARTESIAN_POINT('Origin',(-1.5,5.1875,26.25));
#835=CARTESIAN_POINT('',(-1.5,10.,26.5));
#836=CARTESIAN_POINT('',(-1.5,10.,28.5));
#837=CARTESIAN_POINT('',(-1.5,-10.,26.5));
#838=CARTESIAN_POINT('',(-1.5,2.59375,26.5));
#839=CARTESIAN_POINT('',(-1.5,-10.,24.));
#840=CARTESIAN_POINT('',(-1.5,-0.65,34.7362154520432));
#841=CARTESIAN_POINT('Origin',(-1.5,-0.375,32.));
#842=CARTESIAN_POINT('',(-1.5,-0.375,34.4874685927665));
#843=CARTESIAN_POINT('Origin',(-1.5,-0.625,34.4874685927665));
#844=CARTESIAN_POINT('',(-1.5,-0.375,33.5));
#845=CARTESIAN_POINT('',(-1.5,-0.375,32.));
#846=CARTESIAN_POINT('',(-1.5,-0.375000000000007,30.5));
#847=CARTESIAN_POINT('Origin',(-1.5,-0.375,32.));
#848=CARTESIAN_POINT('',(-1.5,0.374999999999999,30.5));
#849=CARTESIAN_POINT('',(-1.5,-5.,30.5));
#850=CARTESIAN_POINT('',(-1.5,0.375,33.5));
#851=CARTESIAN_POINT('Origin',(-1.5,0.375,32.));
#852=CARTESIAN_POINT('',(-1.5,0.375,34.4874685927665));
#853=CARTESIAN_POINT('',(-1.5,0.375,37.552965204218));
#854=CARTESIAN_POINT('',(-1.5,0.65,34.7362154520432));
#855=CARTESIAN_POINT('Origin',(-1.5,0.625,34.4874685927665));
#856=CARTESIAN_POINT('Origin',(-1.5,0.375,32.));
#857=CARTESIAN_POINT('Origin',(1.5,5.1875,26.25));
#858=CARTESIAN_POINT('',(1.5,-10.,26.5));
#859=CARTESIAN_POINT('',(1.5,-10.,24.));
#860=CARTESIAN_POINT('',(1.5,10.,26.5));
#861=CARTESIAN_POINT('',(1.5,2.59375,26.5));
#862=CARTESIAN_POINT('',(1.5,10.,28.5));
#863=CARTESIAN_POINT('',(1.5,0.65,34.7362154520432));
#864=CARTESIAN_POINT('Origin',(1.5,0.375,32.));
#865=CARTESIAN_POINT('',(1.5,0.375,34.4874685927665));
#866=CARTESIAN_POINT('Origin',(1.5,0.625,34.4874685927665));
#867=CARTESIAN_POINT('',(1.5,0.375,33.5));
#868=CARTESIAN_POINT('',(1.5,0.375,37.552965204218));
#869=CARTESIAN_POINT('',(1.5,0.374999999999999,30.5));
#870=CARTESIAN_POINT('Origin',(1.5,0.375,32.));
#871=CARTESIAN_POINT('',(1.5,-0.375000000000007,30.5));
#872=CARTESIAN_POINT('',(1.5,-5.,30.5));
#873=CARTESIAN_POINT('',(1.5,-0.375,33.5));
#874=CARTESIAN_POINT('Origin',(1.5,-0.375,32.));
#875=CARTESIAN_POINT('',(1.5,-0.375,34.4874685927665));
#876=CARTESIAN_POINT('',(1.5,-0.375,32.));
#877=CARTESIAN_POINT('',(1.5,-0.65,34.7362154520432));
#878=CARTESIAN_POINT('Origin',(1.5,-0.625,34.4874685927665));
#879=CARTESIAN_POINT('Origin',(1.5,-0.375,32.));
#880=CARTESIAN_POINT('Origin',(0.,-0.625,34.4874685927665));
#881=CARTESIAN_POINT('',(0.,-0.375,34.4874685927665));
#882=CARTESIAN_POINT('',(0.,-0.65,34.7362154520432));
#883=CARTESIAN_POINT('Origin',(0.,-0.375,32.));
#884=CARTESIAN_POINT('Origin',(0.,0.625,34.4874685927665));
#885=CARTESIAN_POINT('',(0.,0.375,34.4874685927665));
#886=CARTESIAN_POINT('',(0.,0.65,34.7362154520432));
#887=CARTESIAN_POINT('Origin',(0.,0.375,32.));
#888=CARTESIAN_POINT('Origin',(-2.75,2.59375,25.25));
#889=CARTESIAN_POINT('',(-4.,-10.,24.));
#890=CARTESIAN_POINT('',(-11.5,-10.,16.5));
#891=CARTESIAN_POINT('',(-4.,10.,24.));
#892=CARTESIAN_POINT('',(0.250000000000001,10.,28.25));
#893=CARTESIAN_POINT('',(-4.,2.59375,24.));
#894=CARTESIAN_POINT('Origin',(2.75,2.59375,25.25));
#895=CARTESIAN_POINT('',(4.,10.,24.));
#896=CARTESIAN_POINT('',(6.,10.,22.));
#897=CARTESIAN_POINT('',(4.,-10.,24.));
#898=CARTESIAN_POINT('',(5.25,-10.,22.75));
#899=CARTESIAN_POINT('',(4.,2.59375,24.));
#900=CARTESIAN_POINT('Origin',(0.,-0.375,33.5));
#901=CARTESIAN_POINT('',(0.,-0.375,33.5));
#902=CARTESIAN_POINT('Origin',(0.,-0.375,32.));
#903=CARTESIAN_POINT('',(0.,-0.375000000000007,30.5));
#904=CARTESIAN_POINT('Origin',(0.,0.374999999999999,30.5));
#905=CARTESIAN_POINT('',(0.,0.374999999999999,30.5));
#906=CARTESIAN_POINT('Origin',(0.,0.375,32.));
#907=CARTESIAN_POINT('',(0.,0.375,33.5));
#908=CARTESIAN_POINT('Origin',(0.,0.375,34.75));
#909=CARTESIAN_POINT('Origin',(-0.999999999999999,0.,24.));
#910=CARTESIAN_POINT('',(-14.5,10.,24.));
#911=CARTESIAN_POINT('',(-14.5,10.,24.));
#912=CARTESIAN_POINT('',(-14.5,-10.,24.));
#913=CARTESIAN_POINT('',(-14.5,-10.,24.));
#914=CARTESIAN_POINT('',(12.5,-10.,24.));
#915=CARTESIAN_POINT('Origin',(-0.999999999999999,0.,24.));
#916=CARTESIAN_POINT('',(12.5,-10.,24.));
#917=CARTESIAN_POINT('',(12.5,-10.,24.));
#918=CARTESIAN_POINT('',(12.5,10.,24.));
#919=CARTESIAN_POINT('',(12.5,10.,24.));
#920=CARTESIAN_POINT('',(-14.5,10.,24.));
#921=CARTESIAN_POINT('Origin',(0.,0.,0.25));
#922=CARTESIAN_POINT('',(-14.5,-10.,0.25));
#923=CARTESIAN_POINT('',(12.5,-10.,0.25));
#924=CARTESIAN_POINT('',(-6.25,-10.,0.25));
#925=CARTESIAN_POINT('',(-14.5,10.,0.25));
#926=CARTESIAN_POINT('',(-14.5,-5.,0.25));
#927=CARTESIAN_POINT('',(-12.5,10.,0.25));
#928=CARTESIAN_POINT('',(-7.25000037252907,10.0000005401671,0.25));
#929=CARTESIAN_POINT('',(12.5,10.,0.25));
#930=CARTESIAN_POINT('',(6.25,10.,0.25));
#931=CARTESIAN_POINT('',(12.5,-5.,0.25));
#932=CARTESIAN_POINT('Origin',(-14.5,10.,2.));
#933=CARTESIAN_POINT('',(-14.5,10.,22.));
#934=CARTESIAN_POINT('',(-14.5,10.,2.));
#935=CARTESIAN_POINT('',(-12.5,10.0000001490116,22.));
#936=CARTESIAN_POINT('',(-14.5,10.,22.));
#937=CARTESIAN_POINT('',(-12.5,10.,2.25));
#938=CARTESIAN_POINT('',(-12.5,10.0000001490116,2.));
#939=CARTESIAN_POINT('',(-12.5,10.,0.));
#940=CARTESIAN_POINT('Origin',(-14.5,-10.,2.));
#941=CARTESIAN_POINT('',(-14.5,-10.,2.));
#942=CARTESIAN_POINT('',(-14.5,10.,22.));
#943=CARTESIAN_POINT('Origin',(-12.5,-10.,0.));
#944=CARTESIAN_POINT('',(12.5,-10.,2.25));
#945=CARTESIAN_POINT('',(12.5,-10.,0.));
#946=CARTESIAN_POINT('',(-12.5,-10.,2.25));
#947=CARTESIAN_POINT('',(12.5,-10.,2.25));
#948=CARTESIAN_POINT('',(-12.5,-10.,22.));
#949=CARTESIAN_POINT('',(-12.5,-10.,2.));
#950=CARTESIAN_POINT('',(12.5,-10.,22.));
#951=CARTESIAN_POINT('',(12.5,-10.,22.));
#952=CARTESIAN_POINT('',(12.5,-10.,22.));
#953=CARTESIAN_POINT('Origin',(0.,0.,2.25));
#954=CARTESIAN_POINT('',(12.5,10.,2.25));
#955=CARTESIAN_POINT('',(12.5,10.,2.25));
#956=CARTESIAN_POINT('',(-12.5,10.,2.25));
#957=CARTESIAN_POINT('',(-12.5,5.00000007450581,2.25));
#958=CARTESIAN_POINT('Origin',(12.5,10.,22.));
#959=CARTESIAN_POINT('',(12.5,10.,22.));
#960=CARTESIAN_POINT('',(12.5,10.,22.));
#961=CARTESIAN_POINT('',(-14.5,10.,22.));
#962=CARTESIAN_POINT('Origin',(12.5,-10.,22.));
#963=CARTESIAN_POINT('',(12.5,10.,22.));
#964=CARTESIAN_POINT('Origin',(-0.999999999999999,0.,22.));
#965=CARTESIAN_POINT('',(-12.5,10.0000001490116,22.));
#966=CARTESIAN_POINT('Origin',(-12.5,10.0000001490116,2.));
#967=CARTESIAN_POINT('Origin',(12.5,10.,0.));
#968=CARTESIAN_POINT('',(12.5,10.,0.));
#969=CARTESIAN_POINT('Origin',(12.5,-10.,0.));
#970=UNCERTAINTY_MEASURE_WITH_UNIT(LENGTH_MEASURE(0.01),#974,
'DISTANCE_ACCURACY_VALUE',
'Maximum model space distance between geometric entities at asserted c
onnectivities');
#971=UNCERTAINTY_MEASURE_WITH_UNIT(LENGTH_MEASURE(0.01),#974,
'DISTANCE_ACCURACY_VALUE',
'Maximum model space distance between geometric entities at asserted c
onnectivities');
#972=(
GEOMETRIC_REPRESENTATION_CONTEXT(3)
GLOBAL_UNCERTAINTY_ASSIGNED_CONTEXT((#970))
GLOBAL_UNIT_ASSIGNED_CONTEXT((#974,#976,#977))
REPRESENTATION_CONTEXT('','3D')
);
#973=(
GEOMETRIC_REPRESENTATION_CONTEXT(3)
GLOBAL_UNCERTAINTY_ASSIGNED_CONTEXT((#971))
GLOBAL_UNIT_ASSIGNED_CONTEXT((#974,#976,#977))
REPRESENTATION_CONTEXT('','3D')
);
#974=(
LENGTH_UNIT()
NAMED_UNIT(*)
SI_UNIT(.MILLI.,.METRE.)
);
#975=(
LENGTH_UNIT()
NAMED_UNIT(*)
SI_UNIT($,.METRE.)
);
#976=(
NAMED_UNIT(*)
PLANE_ANGLE_UNIT()
SI_UNIT($,.RADIAN.)
);
#977=(
NAMED_UNIT(*)
SI_UNIT($,.STERADIAN.)
SOLID_ANGLE_UNIT()
);
#978=SHAPE_DEFINITION_REPRESENTATION(#979,#980);
#979=PRODUCT_DEFINITION_SHAPE('',$,#982);
#980=SHAPE_REPRESENTATION('',(#596),#972);
#981=PRODUCT_DEFINITION_CONTEXT('part definition',#986,'design');
#982=PRODUCT_DEFINITION('VIHALS Controller Side Wire Holder',
'VIHALS Controller Side Wire Holder v6',#983,#981);
#983=PRODUCT_DEFINITION_FORMATION('',$,#988);
#984=PRODUCT_RELATED_PRODUCT_CATEGORY(
'VIHALS Controller Side Wire Holder v6',
'VIHALS Controller Side Wire Holder v6',(#988));
#985=APPLICATION_PROTOCOL_DEFINITION('international standard',
'automotive_design',2009,#986);
#986=APPLICATION_CONTEXT(
'Core Data for Automotive Mechanical Design Process');
#987=PRODUCT_CONTEXT('part definition',#986,'mechanical');
#988=PRODUCT('VIHALS Controller Side Wire Holder',
'VIHALS Controller Side Wire Holder v6',$,(#987));
#989=PRESENTATION_STYLE_ASSIGNMENT((#991));
#990=PRESENTATION_STYLE_ASSIGNMENT((#992));
#991=SURFACE_STYLE_USAGE(.BOTH.,#993);
#992=SURFACE_STYLE_USAGE(.BOTH.,#994);
#993=SURFACE_SIDE_STYLE('',(#995));
#994=SURFACE_SIDE_STYLE('',(#996));
#995=SURFACE_STYLE_FILL_AREA(#997);
#996=SURFACE_STYLE_FILL_AREA(#998);
#997=FILL_AREA_STYLE('Steel - Satin',(#999));
#998=FILL_AREA_STYLE('Powder Coat - Rough (Black)',(#1000));
#999=FILL_AREA_STYLE_COLOUR('Steel - Satin',#1001);
#1000=FILL_AREA_STYLE_COLOUR('Powder Coat - Rough (Black)',#1002);
#1001=COLOUR_RGB('Steel - Satin',0.627450980392157,0.627450980392157,0.627450980392157);
#1002=COLOUR_RGB('Powder Coat - Rough (Black)',0.0705882352941176,0.529411764705882,
0.164705882352941);
ENDSEC;
END-ISO-10303-21;
