ISO-10303-21;
HEADER;
/* Generated by software containing ST-Developer
 * from STEP Tools, Inc. (www.steptools.com) 
 */

FILE_DESCRIPTION(
/* description */ (''),
/* implementation_level */ '2;1');

FILE_NAME(
/* name */ 'LED Light Holder Middle.step',
/* time_stamp */ '2026-03-25T02:14:13-04:00',
/* author */ (''),
/* organization */ (''),
/* preprocessor_version */ 'ST-DEVELOPER v20.1',
/* originating_system */ 'Autodesk Translation Framework v14.24.0.0',
/* authorisation */ '');

FILE_SCHEMA (('AUTOMOTIVE_DESIGN { 1 0 10303 214 3 1 1 }'));
ENDSEC;

DATA;
#10=MECHANICAL_DESIGN_GEOMETRIC_PRESENTATION_REPRESENTATION('',(#17),#453);
#11=ITEM_DEFINED_TRANSFORMATION($,$,#273,#300);
#12=(
REPRESENTATION_RELATIONSHIP($,$,#464,#463)
REPRESENTATION_RELATIONSHIP_WITH_TRANSFORMATION(#11)
SHAPE_REPRESENTATION_RELATIONSHIP()
);
#13=CONTEXT_DEPENDENT_SHAPE_REPRESENTATION(#12,#462);
#14=NEXT_ASSEMBLY_USAGE_OCCURRENCE('Component1:1','Component1:1',
'Component1:1',#466,#467,'Component1:1');
#15=SHAPE_REPRESENTATION_RELATIONSHIP('SRR','None',#464,#16);
#16=ADVANCED_BREP_SHAPE_REPRESENTATION('',(#18),#452);
#17=STYLED_ITEM('',(#478),#18);
#18=MANIFOLD_SOLID_BREP('Body1',#259);
#19=CYLINDRICAL_SURFACE('',#284,1.7);
#20=CYLINDRICAL_SURFACE('',#288,1.7);
#21=CYLINDRICAL_SURFACE('',#292,1.7);
#22=CYLINDRICAL_SURFACE('',#296,1.7);
#23=CONICAL_SURFACE('',#281,2.425,0.785398163397448);
#24=CONICAL_SURFACE('',#285,2.425,0.785398163397448);
#25=CONICAL_SURFACE('',#289,2.425,0.785398163397448);
#26=CONICAL_SURFACE('',#293,2.425,0.785398163397448);
#27=FACE_BOUND('',#62,.T.);
#28=FACE_BOUND('',#63,.T.);
#29=FACE_BOUND('',#64,.T.);
#30=FACE_BOUND('',#65,.T.);
#31=FACE_BOUND('',#77,.T.);
#32=FACE_BOUND('',#78,.T.);
#33=FACE_BOUND('',#79,.T.);
#34=FACE_BOUND('',#80,.T.);
#35=CIRCLE('',#275,1.7);
#36=CIRCLE('',#276,1.7);
#37=CIRCLE('',#277,1.7);
#38=CIRCLE('',#278,1.7);
#39=CIRCLE('',#282,3.15);
#40=CIRCLE('',#283,1.7);
#41=CIRCLE('',#286,3.15);
#42=CIRCLE('',#287,1.7);
#43=CIRCLE('',#290,3.15);
#44=CIRCLE('',#291,1.7);
#45=CIRCLE('',#294,3.15);
#46=CIRCLE('',#295,1.7);
#47=FACE_OUTER_BOUND('',#61,.T.);
#48=FACE_OUTER_BOUND('',#66,.T.);
#49=FACE_OUTER_BOUND('',#67,.T.);
#50=FACE_OUTER_BOUND('',#68,.T.);
#51=FACE_OUTER_BOUND('',#69,.T.);
#52=FACE_OUTER_BOUND('',#70,.T.);
#53=FACE_OUTER_BOUND('',#71,.T.);
#54=FACE_OUTER_BOUND('',#72,.T.);
#55=FACE_OUTER_BOUND('',#73,.T.);
#56=FACE_OUTER_BOUND('',#74,.T.);
#57=FACE_OUTER_BOUND('',#75,.T.);
#58=FACE_OUTER_BOUND('',#76,.T.);
#59=FACE_OUTER_BOUND('',#81,.T.);
#60=FACE_OUTER_BOUND('',#82,.T.);
#61=EDGE_LOOP('',(#175,#176,#177,#178));
#62=EDGE_LOOP('',(#179));
#63=EDGE_LOOP('',(#180));
#64=EDGE_LOOP('',(#181));
#65=EDGE_LOOP('',(#182));
#66=EDGE_LOOP('',(#183,#184,#185,#186));
#67=EDGE_LOOP('',(#187,#188,#189,#190));
#68=EDGE_LOOP('',(#191,#192,#193,#194));
#69=EDGE_LOOP('',(#195,#196,#197,#198));
#70=EDGE_LOOP('',(#199,#200,#201,#202));
#71=EDGE_LOOP('',(#203,#204,#205,#206));
#72=EDGE_LOOP('',(#207,#208,#209,#210));
#73=EDGE_LOOP('',(#211,#212,#213,#214));
#74=EDGE_LOOP('',(#215,#216,#217,#218));
#75=EDGE_LOOP('',(#219,#220,#221,#222));
#76=EDGE_LOOP('',(#223,#224,#225,#226));
#77=EDGE_LOOP('',(#227));
#78=EDGE_LOOP('',(#228));
#79=EDGE_LOOP('',(#229));
#80=EDGE_LOOP('',(#230));
#81=EDGE_LOOP('',(#231,#232,#233,#234));
#82=EDGE_LOOP('',(#235,#236,#237,#238));
#83=LINE('',#384,#103);
#84=LINE('',#386,#104);
#85=LINE('',#388,#105);
#86=LINE('',#389,#106);
#87=LINE('',#400,#107);
#88=LINE('',#402,#108);
#89=LINE('',#403,#109);
#90=LINE('',#406,#110);
#91=LINE('',#407,#111);
#92=LINE('',#412,#112);
#93=LINE('',#415,#113);
#94=LINE('',#420,#114);
#95=LINE('',#423,#115);
#96=LINE('',#428,#116);
#97=LINE('',#431,#117);
#98=LINE('',#436,#118);
#99=LINE('',#439,#119);
#100=LINE('',#442,#120);
#101=LINE('',#443,#121);
#102=LINE('',#445,#122);
#103=VECTOR('',#307,10.);
#104=VECTOR('',#308,10.);
#105=VECTOR('',#309,10.);
#106=VECTOR('',#310,10.);
#107=VECTOR('',#321,10.);
#108=VECTOR('',#322,10.);
#109=VECTOR('',#323,10.);
#110=VECTOR('',#326,10.);
#111=VECTOR('',#327,10.);
#112=VECTOR('',#332,2.425);
#113=VECTOR('',#337,1.7);
#114=VECTOR('',#342,2.425);
#115=VECTOR('',#347,1.7);
#116=VECTOR('',#352,2.425);
#117=VECTOR('',#357,1.7);
#118=VECTOR('',#362,2.425);
#119=VECTOR('',#367,1.7);
#120=VECTOR('',#370,10.);
#121=VECTOR('',#371,10.);
#122=VECTOR('',#374,10.);
#123=VERTEX_POINT('',#382);
#124=VERTEX_POINT('',#383);
#125=VERTEX_POINT('',#385);
#126=VERTEX_POINT('',#387);
#127=VERTEX_POINT('',#390);
#128=VERTEX_POINT('',#392);
#129=VERTEX_POINT('',#394);
#130=VERTEX_POINT('',#396);
#131=VERTEX_POINT('',#399);
#132=VERTEX_POINT('',#401);
#133=VERTEX_POINT('',#405);
#134=VERTEX_POINT('',#409);
#135=VERTEX_POINT('',#411);
#136=VERTEX_POINT('',#417);
#137=VERTEX_POINT('',#419);
#138=VERTEX_POINT('',#425);
#139=VERTEX_POINT('',#427);
#140=VERTEX_POINT('',#433);
#141=VERTEX_POINT('',#435);
#142=VERTEX_POINT('',#441);
#143=EDGE_CURVE('',#123,#124,#83,.T.);
#144=EDGE_CURVE('',#125,#123,#84,.T.);
#145=EDGE_CURVE('',#126,#125,#85,.T.);
#146=EDGE_CURVE('',#124,#126,#86,.T.);
#147=EDGE_CURVE('',#127,#127,#35,.T.);
#148=EDGE_CURVE('',#128,#128,#36,.T.);
#149=EDGE_CURVE('',#129,#129,#37,.T.);
#150=EDGE_CURVE('',#130,#130,#38,.T.);
#151=EDGE_CURVE('',#131,#126,#87,.T.);
#152=EDGE_CURVE('',#132,#131,#88,.T.);
#153=EDGE_CURVE('',#132,#124,#89,.T.);
#154=EDGE_CURVE('',#133,#125,#90,.T.);
#155=EDGE_CURVE('',#131,#133,#91,.T.);
#156=EDGE_CURVE('',#134,#134,#39,.T.);
#157=EDGE_CURVE('',#134,#135,#92,.T.);
#158=EDGE_CURVE('',#135,#135,#40,.T.);
#159=EDGE_CURVE('',#135,#127,#93,.T.);
#160=EDGE_CURVE('',#136,#136,#41,.T.);
#161=EDGE_CURVE('',#136,#137,#94,.T.);
#162=EDGE_CURVE('',#137,#137,#42,.T.);
#163=EDGE_CURVE('',#137,#128,#95,.T.);
#164=EDGE_CURVE('',#138,#138,#43,.T.);
#165=EDGE_CURVE('',#138,#139,#96,.T.);
#166=EDGE_CURVE('',#139,#139,#44,.T.);
#167=EDGE_CURVE('',#139,#129,#97,.T.);
#168=EDGE_CURVE('',#140,#140,#45,.T.);
#169=EDGE_CURVE('',#140,#141,#98,.T.);
#170=EDGE_CURVE('',#141,#141,#46,.T.);
#171=EDGE_CURVE('',#141,#130,#99,.T.);
#172=EDGE_CURVE('',#142,#132,#100,.T.);
#173=EDGE_CURVE('',#133,#142,#101,.T.);
#174=EDGE_CURVE('',#142,#123,#102,.T.);
#175=ORIENTED_EDGE('',*,*,#143,.F.);
#176=ORIENTED_EDGE('',*,*,#144,.F.);
#177=ORIENTED_EDGE('',*,*,#145,.F.);
#178=ORIENTED_EDGE('',*,*,#146,.F.);
#179=ORIENTED_EDGE('',*,*,#147,.F.);
#180=ORIENTED_EDGE('',*,*,#148,.F.);
#181=ORIENTED_EDGE('',*,*,#149,.F.);
#182=ORIENTED_EDGE('',*,*,#150,.F.);
#183=ORIENTED_EDGE('',*,*,#146,.T.);
#184=ORIENTED_EDGE('',*,*,#151,.F.);
#185=ORIENTED_EDGE('',*,*,#152,.F.);
#186=ORIENTED_EDGE('',*,*,#153,.T.);
#187=ORIENTED_EDGE('',*,*,#145,.T.);
#188=ORIENTED_EDGE('',*,*,#154,.F.);
#189=ORIENTED_EDGE('',*,*,#155,.F.);
#190=ORIENTED_EDGE('',*,*,#151,.T.);
#191=ORIENTED_EDGE('',*,*,#156,.F.);
#192=ORIENTED_EDGE('',*,*,#157,.T.);
#193=ORIENTED_EDGE('',*,*,#158,.T.);
#194=ORIENTED_EDGE('',*,*,#157,.F.);
#195=ORIENTED_EDGE('',*,*,#158,.F.);
#196=ORIENTED_EDGE('',*,*,#159,.T.);
#197=ORIENTED_EDGE('',*,*,#147,.T.);
#198=ORIENTED_EDGE('',*,*,#159,.F.);
#199=ORIENTED_EDGE('',*,*,#160,.F.);
#200=ORIENTED_EDGE('',*,*,#161,.T.);
#201=ORIENTED_EDGE('',*,*,#162,.T.);
#202=ORIENTED_EDGE('',*,*,#161,.F.);
#203=ORIENTED_EDGE('',*,*,#162,.F.);
#204=ORIENTED_EDGE('',*,*,#163,.T.);
#205=ORIENTED_EDGE('',*,*,#148,.T.);
#206=ORIENTED_EDGE('',*,*,#163,.F.);
#207=ORIENTED_EDGE('',*,*,#164,.F.);
#208=ORIENTED_EDGE('',*,*,#165,.T.);
#209=ORIENTED_EDGE('',*,*,#166,.T.);
#210=ORIENTED_EDGE('',*,*,#165,.F.);
#211=ORIENTED_EDGE('',*,*,#166,.F.);
#212=ORIENTED_EDGE('',*,*,#167,.T.);
#213=ORIENTED_EDGE('',*,*,#149,.T.);
#214=ORIENTED_EDGE('',*,*,#167,.F.);
#215=ORIENTED_EDGE('',*,*,#168,.F.);
#216=ORIENTED_EDGE('',*,*,#169,.T.);
#217=ORIENTED_EDGE('',*,*,#170,.T.);
#218=ORIENTED_EDGE('',*,*,#169,.F.);
#219=ORIENTED_EDGE('',*,*,#170,.F.);
#220=ORIENTED_EDGE('',*,*,#171,.T.);
#221=ORIENTED_EDGE('',*,*,#150,.T.);
#222=ORIENTED_EDGE('',*,*,#171,.F.);
#223=ORIENTED_EDGE('',*,*,#172,.T.);
#224=ORIENTED_EDGE('',*,*,#152,.T.);
#225=ORIENTED_EDGE('',*,*,#155,.T.);
#226=ORIENTED_EDGE('',*,*,#173,.T.);
#227=ORIENTED_EDGE('',*,*,#156,.T.);
#228=ORIENTED_EDGE('',*,*,#160,.T.);
#229=ORIENTED_EDGE('',*,*,#164,.T.);
#230=ORIENTED_EDGE('',*,*,#168,.T.);
#231=ORIENTED_EDGE('',*,*,#144,.T.);
#232=ORIENTED_EDGE('',*,*,#174,.F.);
#233=ORIENTED_EDGE('',*,*,#173,.F.);
#234=ORIENTED_EDGE('',*,*,#154,.T.);
#235=ORIENTED_EDGE('',*,*,#143,.T.);
#236=ORIENTED_EDGE('',*,*,#153,.F.);
#237=ORIENTED_EDGE('',*,*,#172,.F.);
#238=ORIENTED_EDGE('',*,*,#174,.T.);
#239=PLANE('',#274);
#240=PLANE('',#279);
#241=PLANE('',#280);
#242=PLANE('',#297);
#243=PLANE('',#298);
#244=PLANE('',#299);
#245=ADVANCED_FACE('',(#47,#27,#28,#29,#30),#239,.F.);
#246=ADVANCED_FACE('',(#48),#240,.F.);
#247=ADVANCED_FACE('',(#49),#241,.F.);
#248=ADVANCED_FACE('',(#50),#23,.F.);
#249=ADVANCED_FACE('',(#51),#19,.F.);
#250=ADVANCED_FACE('',(#52),#24,.F.);
#251=ADVANCED_FACE('',(#53),#20,.F.);
#252=ADVANCED_FACE('',(#54),#25,.F.);
#253=ADVANCED_FACE('',(#55),#21,.F.);
#254=ADVANCED_FACE('',(#56),#26,.F.);
#255=ADVANCED_FACE('',(#57),#22,.F.);
#256=ADVANCED_FACE('',(#58,#31,#32,#33,#34),#242,.T.);
#257=ADVANCED_FACE('',(#59),#243,.F.);
#258=ADVANCED_FACE('',(#60),#244,.F.);
#259=CLOSED_SHELL('',(#245,#246,#247,#248,#249,#250,#251,#252,#253,#254,
#255,#256,#257,#258));
#260=DERIVED_UNIT_ELEMENT(#262,1.);
#261=DERIVED_UNIT_ELEMENT(#455,-3.);
#262=(
MASS_UNIT()
NAMED_UNIT(*)
SI_UNIT(.KILO.,.GRAM.)
);
#263=DERIVED_UNIT((#260,#261));
#264=MEASURE_REPRESENTATION_ITEM('density measure',
POSITIVE_RATIO_MEASURE(7850.),#263);
#265=PROPERTY_DEFINITION_REPRESENTATION(#270,#267);
#266=PROPERTY_DEFINITION_REPRESENTATION(#271,#268);
#267=REPRESENTATION('material name',(#269),#452);
#268=REPRESENTATION('density',(#264),#452);
#269=DESCRIPTIVE_REPRESENTATION_ITEM('Steel','Steel');
#270=PROPERTY_DEFINITION('material property','material name',#467);
#271=PROPERTY_DEFINITION('material property','density of part',#467);
#272=AXIS2_PLACEMENT_3D('',#379,#301,#302);
#273=AXIS2_PLACEMENT_3D('',#380,#303,#304);
#274=AXIS2_PLACEMENT_3D('',#381,#305,#306);
#275=AXIS2_PLACEMENT_3D('',#391,#311,#312);
#276=AXIS2_PLACEMENT_3D('',#393,#313,#314);
#277=AXIS2_PLACEMENT_3D('',#395,#315,#316);
#278=AXIS2_PLACEMENT_3D('',#397,#317,#318);
#279=AXIS2_PLACEMENT_3D('',#398,#319,#320);
#280=AXIS2_PLACEMENT_3D('',#404,#324,#325);
#281=AXIS2_PLACEMENT_3D('',#408,#328,#329);
#282=AXIS2_PLACEMENT_3D('',#410,#330,#331);
#283=AXIS2_PLACEMENT_3D('',#413,#333,#334);
#284=AXIS2_PLACEMENT_3D('',#414,#335,#336);
#285=AXIS2_PLACEMENT_3D('',#416,#338,#339);
#286=AXIS2_PLACEMENT_3D('',#418,#340,#341);
#287=AXIS2_PLACEMENT_3D('',#421,#343,#344);
#288=AXIS2_PLACEMENT_3D('',#422,#345,#346);
#289=AXIS2_PLACEMENT_3D('',#424,#348,#349);
#290=AXIS2_PLACEMENT_3D('',#426,#350,#351);
#291=AXIS2_PLACEMENT_3D('',#429,#353,#354);
#292=AXIS2_PLACEMENT_3D('',#430,#355,#356);
#293=AXIS2_PLACEMENT_3D('',#432,#358,#359);
#294=AXIS2_PLACEMENT_3D('',#434,#360,#361);
#295=AXIS2_PLACEMENT_3D('',#437,#363,#364);
#296=AXIS2_PLACEMENT_3D('',#438,#365,#366);
#297=AXIS2_PLACEMENT_3D('',#440,#368,#369);
#298=AXIS2_PLACEMENT_3D('',#444,#372,#373);
#299=AXIS2_PLACEMENT_3D('',#446,#375,#376);
#300=AXIS2_PLACEMENT_3D('',#447,#377,#378);
#301=DIRECTION('axis',(0.,0.,1.));
#302=DIRECTION('refdir',(1.,0.,0.));
#303=DIRECTION('axis',(0.,0.,1.));
#304=DIRECTION('refdir',(1.,0.,0.));
#305=DIRECTION('center_axis',(0.,1.,0.));
#306=DIRECTION('ref_axis',(0.,0.,-1.));
#307=DIRECTION('',(-1.,0.,0.));
#308=DIRECTION('',(0.,0.,-1.));
#309=DIRECTION('',(1.,0.,0.));
#310=DIRECTION('',(0.,0.,1.));
#311=DIRECTION('center_axis',(0.,-1.,0.));
#312=DIRECTION('ref_axis',(0.,0.,1.));
#313=DIRECTION('center_axis',(0.,-1.,0.));
#314=DIRECTION('ref_axis',(0.,0.,1.));
#315=DIRECTION('center_axis',(0.,-1.,0.));
#316=DIRECTION('ref_axis',(0.,0.,1.));
#317=DIRECTION('center_axis',(0.,-1.,0.));
#318=DIRECTION('ref_axis',(0.,0.,1.));
#319=DIRECTION('center_axis',(1.,0.,0.));
#320=DIRECTION('ref_axis',(0.,-1.,0.));
#321=DIRECTION('',(0.,-1.,0.));
#322=DIRECTION('',(0.,0.,1.));
#323=DIRECTION('',(0.,-1.,0.));
#324=DIRECTION('center_axis',(0.,0.,-1.));
#325=DIRECTION('ref_axis',(0.,-1.,0.));
#326=DIRECTION('',(0.,-1.,0.));
#327=DIRECTION('',(1.,0.,0.));
#328=DIRECTION('center_axis',(0.,1.,0.));
#329=DIRECTION('ref_axis',(0.,0.,1.));
#330=DIRECTION('center_axis',(0.,-1.,0.));
#331=DIRECTION('ref_axis',(0.,0.,1.));
#332=DIRECTION('',(-8.65956056235493E-17,-0.707106781186548,0.707106781186547));
#333=DIRECTION('center_axis',(0.,-1.,0.));
#334=DIRECTION('ref_axis',(0.,0.,1.));
#335=DIRECTION('center_axis',(0.,-1.,0.));
#336=DIRECTION('ref_axis',(0.,0.,1.));
#337=DIRECTION('',(0.,-1.,0.));
#338=DIRECTION('center_axis',(0.,1.,0.));
#339=DIRECTION('ref_axis',(0.,0.,1.));
#340=DIRECTION('center_axis',(0.,-1.,0.));
#341=DIRECTION('ref_axis',(0.,0.,1.));
#342=DIRECTION('',(-8.65956056235493E-17,-0.707106781186548,0.707106781186547));
#343=DIRECTION('center_axis',(0.,-1.,0.));
#344=DIRECTION('ref_axis',(0.,0.,1.));
#345=DIRECTION('center_axis',(0.,-1.,0.));
#346=DIRECTION('ref_axis',(0.,0.,1.));
#347=DIRECTION('',(0.,-1.,0.));
#348=DIRECTION('center_axis',(0.,1.,0.));
#349=DIRECTION('ref_axis',(0.,0.,1.));
#350=DIRECTION('center_axis',(0.,-1.,0.));
#351=DIRECTION('ref_axis',(0.,0.,1.));
#352=DIRECTION('',(-8.65956056235493E-17,-0.707106781186548,0.707106781186547));
#353=DIRECTION('center_axis',(0.,-1.,0.));
#354=DIRECTION('ref_axis',(0.,0.,1.));
#355=DIRECTION('center_axis',(0.,-1.,0.));
#356=DIRECTION('ref_axis',(0.,0.,1.));
#357=DIRECTION('',(0.,-1.,0.));
#358=DIRECTION('center_axis',(0.,1.,0.));
#359=DIRECTION('ref_axis',(0.,0.,1.));
#360=DIRECTION('center_axis',(0.,-1.,0.));
#361=DIRECTION('ref_axis',(0.,0.,1.));
#362=DIRECTION('',(-8.65956056235493E-17,-0.707106781186548,0.707106781186547));
#363=DIRECTION('center_axis',(0.,-1.,0.));
#364=DIRECTION('ref_axis',(0.,0.,1.));
#365=DIRECTION('center_axis',(0.,-1.,0.));
#366=DIRECTION('ref_axis',(0.,0.,1.));
#367=DIRECTION('',(0.,-1.,0.));
#368=DIRECTION('center_axis',(0.,1.,0.));
#369=DIRECTION('ref_axis',(0.,0.,-1.));
#370=DIRECTION('',(-1.,0.,0.));
#371=DIRECTION('',(0.,0.,-1.));
#372=DIRECTION('center_axis',(-1.,0.,0.));
#373=DIRECTION('ref_axis',(0.,1.,0.));
#374=DIRECTION('',(0.,-1.,0.));
#375=DIRECTION('center_axis',(0.,0.,1.));
#376=DIRECTION('ref_axis',(0.,1.,0.));
#377=DIRECTION('',(0.,0.,1.));
#378=DIRECTION('',(1.,0.,0.));
#379=CARTESIAN_POINT('',(0.,0.,0.));
#380=CARTESIAN_POINT('',(0.,0.,0.));
#381=CARTESIAN_POINT('Origin',(5.,2.6,30.));
#382=CARTESIAN_POINT('',(20.,2.6,-70.));
#383=CARTESIAN_POINT('',(-10.,2.6,-70.));
#384=CARTESIAN_POINT('',(5.,2.6,-70.));
#385=CARTESIAN_POINT('',(20.,2.6,130.));
#386=CARTESIAN_POINT('',(20.,2.6,30.));
#387=CARTESIAN_POINT('',(-10.,2.6,130.));
#388=CARTESIAN_POINT('',(5.,2.6,130.));
#389=CARTESIAN_POINT('',(-10.,2.6,30.));
#390=CARTESIAN_POINT('',(-5.,2.6,123.3));
#391=CARTESIAN_POINT('Origin',(-5.,2.6,125.));
#392=CARTESIAN_POINT('',(15.,2.6,-66.7));
#393=CARTESIAN_POINT('Origin',(15.,2.6,-65.));
#394=CARTESIAN_POINT('',(-5.,2.6,-66.7));
#395=CARTESIAN_POINT('Origin',(-5.,2.6,-65.));
#396=CARTESIAN_POINT('',(15.,2.6,123.3));
#397=CARTESIAN_POINT('Origin',(15.,2.6,125.));
#398=CARTESIAN_POINT('Origin',(-10.,2.5,30.));
#399=CARTESIAN_POINT('',(-10.,5.,130.));
#400=CARTESIAN_POINT('',(-10.,2.5,130.));
#401=CARTESIAN_POINT('',(-10.,5.,-70.));
#402=CARTESIAN_POINT('',(-10.,5.,30.));
#403=CARTESIAN_POINT('',(-10.,2.5,-70.));
#404=CARTESIAN_POINT('Origin',(5.,2.5,130.));
#405=CARTESIAN_POINT('',(20.,5.,130.));
#406=CARTESIAN_POINT('',(20.,2.5,130.));
#407=CARTESIAN_POINT('',(5.,5.,130.));
#408=CARTESIAN_POINT('Origin',(-5.,4.275,125.));
#409=CARTESIAN_POINT('',(-5.,5.,121.85));
#410=CARTESIAN_POINT('Origin',(-5.,5.,125.));
#411=CARTESIAN_POINT('',(-5.,3.55,123.3));
#412=CARTESIAN_POINT('',(-5.,4.275,122.575));
#413=CARTESIAN_POINT('Origin',(-5.,3.55,125.));
#414=CARTESIAN_POINT('Origin',(-5.,-1.,125.));
#415=CARTESIAN_POINT('',(-5.,-1.,123.3));
#416=CARTESIAN_POINT('Origin',(15.,4.275,-65.));
#417=CARTESIAN_POINT('',(15.,5.,-68.15));
#418=CARTESIAN_POINT('Origin',(15.,5.,-65.));
#419=CARTESIAN_POINT('',(15.,3.55,-66.7));
#420=CARTESIAN_POINT('',(15.,4.275,-67.425));
#421=CARTESIAN_POINT('Origin',(15.,3.55,-65.));
#422=CARTESIAN_POINT('Origin',(15.,-1.,-65.));
#423=CARTESIAN_POINT('',(15.,-1.,-66.7));
#424=CARTESIAN_POINT('Origin',(-5.,4.275,-65.));
#425=CARTESIAN_POINT('',(-5.,5.,-68.15));
#426=CARTESIAN_POINT('Origin',(-5.,5.,-65.));
#427=CARTESIAN_POINT('',(-5.,3.55,-66.7));
#428=CARTESIAN_POINT('',(-5.,4.275,-67.425));
#429=CARTESIAN_POINT('Origin',(-5.,3.55,-65.));
#430=CARTESIAN_POINT('Origin',(-5.,-1.,-65.));
#431=CARTESIAN_POINT('',(-5.,-1.,-66.7));
#432=CARTESIAN_POINT('Origin',(15.,4.275,125.));
#433=CARTESIAN_POINT('',(15.,5.,121.85));
#434=CARTESIAN_POINT('Origin',(15.,5.,125.));
#435=CARTESIAN_POINT('',(15.,3.55,123.3));
#436=CARTESIAN_POINT('',(15.,4.275,122.575));
#437=CARTESIAN_POINT('Origin',(15.,3.55,125.));
#438=CARTESIAN_POINT('Origin',(15.,-1.,125.));
#439=CARTESIAN_POINT('',(15.,-1.,123.3));
#440=CARTESIAN_POINT('Origin',(5.,5.,30.));
#441=CARTESIAN_POINT('',(20.,5.,-70.));
#442=CARTESIAN_POINT('',(5.,5.,-70.));
#443=CARTESIAN_POINT('',(20.,5.,30.));
#444=CARTESIAN_POINT('Origin',(20.,2.5,30.));
#445=CARTESIAN_POINT('',(20.,2.5,-70.));
#446=CARTESIAN_POINT('Origin',(5.,2.5,-70.));
#447=CARTESIAN_POINT('',(0.,0.,0.));
#448=UNCERTAINTY_MEASURE_WITH_UNIT(LENGTH_MEASURE(0.01),#454,
'DISTANCE_ACCURACY_VALUE',
'Maximum model space distance between geometric entities at asserted c
onnectivities');
#449=UNCERTAINTY_MEASURE_WITH_UNIT(LENGTH_MEASURE(0.01),#454,
'DISTANCE_ACCURACY_VALUE',
'Maximum model space distance between geometric entities at asserted c
onnectivities');
#450=UNCERTAINTY_MEASURE_WITH_UNIT(LENGTH_MEASURE(0.01),#454,
'DISTANCE_ACCURACY_VALUE',
'Maximum model space distance between geometric entities at asserted c
onnectivities');
#451=(
GEOMETRIC_REPRESENTATION_CONTEXT(3)
GLOBAL_UNCERTAINTY_ASSIGNED_CONTEXT((#448))
GLOBAL_UNIT_ASSIGNED_CONTEXT((#454,#456,#457))
REPRESENTATION_CONTEXT('','3D')
);
#452=(
GEOMETRIC_REPRESENTATION_CONTEXT(3)
GLOBAL_UNCERTAINTY_ASSIGNED_CONTEXT((#449))
GLOBAL_UNIT_ASSIGNED_CONTEXT((#454,#456,#457))
REPRESENTATION_CONTEXT('','3D')
);
#453=(
GEOMETRIC_REPRESENTATION_CONTEXT(3)
GLOBAL_UNCERTAINTY_ASSIGNED_CONTEXT((#450))
GLOBAL_UNIT_ASSIGNED_CONTEXT((#454,#456,#457))
REPRESENTATION_CONTEXT('','3D')
);
#454=(
LENGTH_UNIT()
NAMED_UNIT(*)
SI_UNIT(.MILLI.,.METRE.)
);
#455=(
LENGTH_UNIT()
NAMED_UNIT(*)
SI_UNIT($,.METRE.)
);
#456=(
NAMED_UNIT(*)
PLANE_ANGLE_UNIT()
SI_UNIT($,.RADIAN.)
);
#457=(
NAMED_UNIT(*)
SI_UNIT($,.STERADIAN.)
SOLID_ANGLE_UNIT()
);
#458=SHAPE_DEFINITION_REPRESENTATION(#460,#463);
#459=SHAPE_DEFINITION_REPRESENTATION(#461,#464);
#460=PRODUCT_DEFINITION_SHAPE('',$,#466);
#461=PRODUCT_DEFINITION_SHAPE('',$,#467);
#462=PRODUCT_DEFINITION_SHAPE($,$,#14);
#463=SHAPE_REPRESENTATION('',(#272,#300),#451);
#464=SHAPE_REPRESENTATION('',(#273),#452);
#465=PRODUCT_DEFINITION_CONTEXT('part definition',#473,'design');
#466=PRODUCT_DEFINITION('LED Light Holder Middle',
'LED Light Holder Middle v11',#468,#465);
#467=PRODUCT_DEFINITION('Component1','Component1',#469,#465);
#468=PRODUCT_DEFINITION_FORMATION('',$,#475);
#469=PRODUCT_DEFINITION_FORMATION('',$,#476);
#470=PRODUCT_RELATED_PRODUCT_CATEGORY('LED Light Holder Middle v11',
'LED Light Holder Middle v11',(#475));
#471=PRODUCT_RELATED_PRODUCT_CATEGORY('Component1','Component1',(#476));
#472=APPLICATION_PROTOCOL_DEFINITION('international standard',
'automotive_design',2009,#473);
#473=APPLICATION_CONTEXT(
'Core Data for Automotive Mechanical Design Process');
#474=PRODUCT_CONTEXT('part definition',#473,'mechanical');
#475=PRODUCT('LED Light Holder Middle','LED Light Holder Middle v11',$,
(#474));
#476=PRODUCT('Component1','Component1',$,(#474));
#477=PRESENTATION_STYLE_ASSIGNMENT((#479));
#478=PRESENTATION_STYLE_ASSIGNMENT((#480));
#479=SURFACE_STYLE_USAGE(.BOTH.,#481);
#480=SURFACE_STYLE_USAGE(.BOTH.,#482);
#481=SURFACE_SIDE_STYLE('',(#483));
#482=SURFACE_SIDE_STYLE('',(#484));
#483=SURFACE_STYLE_FILL_AREA(#485);
#484=SURFACE_STYLE_FILL_AREA(#486);
#485=FILL_AREA_STYLE('Steel - Satin',(#487));
#486=FILL_AREA_STYLE('Powder Coat - Rough (Black)',(#488));
#487=FILL_AREA_STYLE_COLOUR('Steel - Satin',#489);
#488=FILL_AREA_STYLE_COLOUR('Powder Coat - Rough (Black)',#490);
#489=COLOUR_RGB('Steel - Satin',0.627450980392157,0.627450980392157,0.627450980392157);
#490=COLOUR_RGB('Powder Coat - Rough (Black)',0.0980392156862745,0.0980392156862745,
0.0980392156862745);
ENDSEC;
END-ISO-10303-21;
