ISO-10303-21;
HEADER;
/* Generated by software containing ST-Developer
 * from STEP Tools, Inc. (www.steptools.com) 
 */

FILE_DESCRIPTION(
/* description */ (''),
/* implementation_level */ '2;1');

FILE_NAME(
/* name */ 'LED Light Battery Pack.step',
/* time_stamp */ '2026-03-25T02:14:06-04:00',
/* author */ (''),
/* organization */ (''),
/* preprocessor_version */ 'ST-DEVELOPER v20.1',
/* originating_system */ 'Autodesk Translation Framework v14.24.0.0',
/* authorisation */ '');

FILE_SCHEMA (('AUTOMOTIVE_DESIGN { 1 0 10303 214 3 1 1 }'));
ENDSEC;

DATA;
#10=MECHANICAL_DESIGN_GEOMETRIC_PRESENTATION_REPRESENTATION('',(#17),#1383);
#11=ITEM_DEFINED_TRANSFORMATION($,$,#803,#888);
#12=(
REPRESENTATION_RELATIONSHIP($,$,#1394,#1393)
REPRESENTATION_RELATIONSHIP_WITH_TRANSFORMATION(#11)
SHAPE_REPRESENTATION_RELATIONSHIP()
);
#13=CONTEXT_DEPENDENT_SHAPE_REPRESENTATION(#12,#1392);
#14=NEXT_ASSEMBLY_USAGE_OCCURRENCE('Component1:1','Component1:1',
'Component1:1',#1396,#1397,'Component1:1');
#15=SHAPE_REPRESENTATION_RELATIONSHIP('SRR','None',#1394,#16);
#16=ADVANCED_BREP_SHAPE_REPRESENTATION('',(#18),#1382);
#17=STYLED_ITEM('',(#1408),#18);
#18=MANIFOLD_SOLID_BREP('Body1',#789);
#19=SPHERICAL_SURFACE('',#850,2.);
#20=SPHERICAL_SURFACE('',#854,2.);
#21=SPHERICAL_SURFACE('',#859,2.);
#22=SPHERICAL_SURFACE('',#861,2.);
#23=B_SPLINE_CURVE_WITH_KNOTS('',3,(#1205,#1206,#1207,#1208,#1209,#1210,
#1211,#1212,#1213,#1214),.UNSPECIFIED.,.F.,.F.,(4,2,2,2,4),(-0.457668243211223,
-0.34330971694793,-0.228951190684637,-0.114475595342319,0.),
 .UNSPECIFIED.);
#24=B_SPLINE_CURVE_WITH_KNOTS('',3,(#1227,#1228,#1229,#1230,#1231,#1232,
#1233,#1234,#1235,#1236),.UNSPECIFIED.,.F.,.F.,(4,2,2,2,4),(0.,0.114475595342319,
0.228951190684637,0.34330971694793,0.457668243211223),.UNSPECIFIED.);
#25=FACE_BOUND('',#145,.T.);
#26=FACE_BOUND('',#146,.T.);
#27=FACE_BOUND('',#169,.T.);
#28=FACE_BOUND('',#173,.T.);
#29=CIRCLE('',#806,4.9188041851506);
#30=CIRCLE('',#807,4.9188041851506);
#31=CIRCLE('',#810,4.64074819966647);
#32=CIRCLE('',#811,4.64074819966647);
#33=CIRCLE('',#815,0.397696097025011);
#34=CIRCLE('',#816,0.397696097025011);
#35=CIRCLE('',#819,0.397696097025011);
#36=CIRCLE('',#820,0.397696097025011);
#37=CIRCLE('',#823,11.);
#38=CIRCLE('',#824,11.);
#39=CIRCLE('',#827,3.);
#40=CIRCLE('',#828,2.);
#41=CIRCLE('',#829,3.);
#42=CIRCLE('',#832,3.);
#43=CIRCLE('',#834,3.);
#44=CIRCLE('',#836,2.);
#45=CIRCLE('',#838,7.48128443285833);
#46=CIRCLE('',#839,7.48128443285833);
#47=CIRCLE('',#842,2.);
#48=CIRCLE('',#845,2.);
#49=CIRCLE('',#846,2.);
#50=CIRCLE('',#848,2.);
#51=CIRCLE('',#849,2.);
#52=CIRCLE('',#851,2.);
#53=CIRCLE('',#853,2.);
#54=CIRCLE('',#855,2.);
#55=CIRCLE('',#857,2.);
#56=CIRCLE('',#858,2.);
#57=CIRCLE('',#860,2.);
#58=CIRCLE('',#862,2.);
#59=CIRCLE('',#864,2.);
#60=CIRCLE('',#867,2.);
#61=CIRCLE('',#871,2.);
#62=CIRCLE('',#873,2.);
#63=CIRCLE('',#875,8.09744993828097);
#64=CIRCLE('',#876,4.94795854533595);
#65=CIRCLE('',#880,4.94795854533595);
#66=CIRCLE('',#885,8.09744993828097);
#67=CYLINDRICAL_SURFACE('',#805,4.9188041851506);
#68=CYLINDRICAL_SURFACE('',#809,4.64074819966647);
#69=CYLINDRICAL_SURFACE('',#814,0.397696097025011);
#70=CYLINDRICAL_SURFACE('',#818,0.397696097025011);
#71=CYLINDRICAL_SURFACE('',#822,11.);
#72=CYLINDRICAL_SURFACE('',#830,3.);
#73=CYLINDRICAL_SURFACE('',#831,3.);
#74=CYLINDRICAL_SURFACE('',#833,3.);
#75=CYLINDRICAL_SURFACE('',#837,7.48128443285833);
#76=CYLINDRICAL_SURFACE('',#841,2.);
#77=CYLINDRICAL_SURFACE('',#844,2.);
#78=CYLINDRICAL_SURFACE('',#847,2.);
#79=CYLINDRICAL_SURFACE('',#852,2.);
#80=CYLINDRICAL_SURFACE('',#856,2.);
#81=CYLINDRICAL_SURFACE('',#863,2.);
#82=CYLINDRICAL_SURFACE('',#866,2.);
#83=CYLINDRICAL_SURFACE('',#870,2.);
#84=CYLINDRICAL_SURFACE('',#872,2.);
#85=CYLINDRICAL_SURFACE('',#879,4.94795854533595);
#86=CYLINDRICAL_SURFACE('',#884,8.09744993828097);
#87=FACE_OUTER_BOUND('',#133,.T.);
#88=FACE_OUTER_BOUND('',#134,.T.);
#89=FACE_OUTER_BOUND('',#135,.T.);
#90=FACE_OUTER_BOUND('',#136,.T.);
#91=FACE_OUTER_BOUND('',#137,.T.);
#92=FACE_OUTER_BOUND('',#138,.T.);
#93=FACE_OUTER_BOUND('',#139,.T.);
#94=FACE_OUTER_BOUND('',#140,.T.);
#95=FACE_OUTER_BOUND('',#141,.T.);
#96=FACE_OUTER_BOUND('',#142,.T.);
#97=FACE_OUTER_BOUND('',#143,.T.);
#98=FACE_OUTER_BOUND('',#144,.T.);
#99=FACE_OUTER_BOUND('',#147,.T.);
#100=FACE_OUTER_BOUND('',#148,.T.);
#101=FACE_OUTER_BOUND('',#149,.T.);
#102=FACE_OUTER_BOUND('',#150,.T.);
#103=FACE_OUTER_BOUND('',#151,.T.);
#104=FACE_OUTER_BOUND('',#152,.T.);
#105=FACE_OUTER_BOUND('',#153,.T.);
#106=FACE_OUTER_BOUND('',#154,.T.);
#107=FACE_OUTER_BOUND('',#155,.T.);
#108=FACE_OUTER_BOUND('',#156,.T.);
#109=FACE_OUTER_BOUND('',#157,.T.);
#110=FACE_OUTER_BOUND('',#158,.T.);
#111=FACE_OUTER_BOUND('',#159,.T.);
#112=FACE_OUTER_BOUND('',#160,.T.);
#113=FACE_OUTER_BOUND('',#161,.T.);
#114=FACE_OUTER_BOUND('',#162,.T.);
#115=FACE_OUTER_BOUND('',#163,.T.);
#116=FACE_OUTER_BOUND('',#164,.T.);
#117=FACE_OUTER_BOUND('',#165,.T.);
#118=FACE_OUTER_BOUND('',#166,.T.);
#119=FACE_OUTER_BOUND('',#167,.T.);
#120=FACE_OUTER_BOUND('',#168,.T.);
#121=FACE_OUTER_BOUND('',#170,.T.);
#122=FACE_OUTER_BOUND('',#171,.T.);
#123=FACE_OUTER_BOUND('',#172,.T.);
#124=FACE_OUTER_BOUND('',#174,.T.);
#125=FACE_OUTER_BOUND('',#175,.T.);
#126=FACE_OUTER_BOUND('',#176,.T.);
#127=FACE_OUTER_BOUND('',#177,.T.);
#128=FACE_OUTER_BOUND('',#178,.T.);
#129=FACE_OUTER_BOUND('',#179,.T.);
#130=FACE_OUTER_BOUND('',#180,.T.);
#131=FACE_OUTER_BOUND('',#181,.T.);
#132=FACE_OUTER_BOUND('',#182,.T.);
#133=EDGE_LOOP('',(#501,#502,#503,#504));
#134=EDGE_LOOP('',(#505,#506,#507,#508));
#135=EDGE_LOOP('',(#509,#510,#511,#512));
#136=EDGE_LOOP('',(#513,#514,#515,#516));
#137=EDGE_LOOP('',(#517,#518,#519,#520));
#138=EDGE_LOOP('',(#521,#522,#523,#524));
#139=EDGE_LOOP('',(#525,#526,#527,#528));
#140=EDGE_LOOP('',(#529,#530,#531,#532));
#141=EDGE_LOOP('',(#533,#534,#535,#536));
#142=EDGE_LOOP('',(#537,#538,#539,#540));
#143=EDGE_LOOP('',(#541,#542,#543,#544));
#144=EDGE_LOOP('',(#545));
#145=EDGE_LOOP('',(#546,#547,#548,#549));
#146=EDGE_LOOP('',(#550,#551,#552,#553));
#147=EDGE_LOOP('',(#554,#555,#556,#557,#558));
#148=EDGE_LOOP('',(#559,#560,#561));
#149=EDGE_LOOP('',(#562,#563,#564,#565));
#150=EDGE_LOOP('',(#566,#567,#568));
#151=EDGE_LOOP('',(#569,#570,#571,#572,#573));
#152=EDGE_LOOP('',(#574,#575,#576,#577,#578,#579));
#153=EDGE_LOOP('',(#580,#581,#582,#583));
#154=EDGE_LOOP('',(#584,#585,#586,#587));
#155=EDGE_LOOP('',(#588,#589));
#156=EDGE_LOOP('',(#590,#591,#592,#593));
#157=EDGE_LOOP('',(#594,#595,#596,#597));
#158=EDGE_LOOP('',(#598,#599,#600));
#159=EDGE_LOOP('',(#601,#602,#603,#604));
#160=EDGE_LOOP('',(#605,#606,#607));
#161=EDGE_LOOP('',(#608,#609,#610,#611));
#162=EDGE_LOOP('',(#612,#613,#614));
#163=EDGE_LOOP('',(#615,#616,#617));
#164=EDGE_LOOP('',(#618,#619,#620,#621));
#165=EDGE_LOOP('',(#622,#623,#624,#625,#626,#627,#628,#629,#630,#631,#632,
#633,#634,#635,#636,#637,#638,#639));
#166=EDGE_LOOP('',(#640,#641,#642,#643));
#167=EDGE_LOOP('',(#644,#645,#646,#647));
#168=EDGE_LOOP('',(#648,#649,#650,#651,#652,#653,#654,#655));
#169=EDGE_LOOP('',(#656));
#170=EDGE_LOOP('',(#657,#658,#659,#660));
#171=EDGE_LOOP('',(#661,#662,#663,#664));
#172=EDGE_LOOP('',(#665,#666,#667,#668,#669,#670,#671,#672,#673,#674,#675,
#676));
#173=EDGE_LOOP('',(#677,#678,#679,#680));
#174=EDGE_LOOP('',(#681,#682,#683,#684));
#175=EDGE_LOOP('',(#685,#686,#687,#688));
#176=EDGE_LOOP('',(#689,#690,#691,#692));
#177=EDGE_LOOP('',(#693,#694,#695,#696));
#178=EDGE_LOOP('',(#697,#698,#699,#700));
#179=EDGE_LOOP('',(#701,#702,#703,#704));
#180=EDGE_LOOP('',(#705,#706,#707,#708));
#181=EDGE_LOOP('',(#709,#710,#711,#712,#713,#714,#715,#716));
#182=EDGE_LOOP('',(#717,#718,#719,#720));
#183=LINE('',#1138,#253);
#184=LINE('',#1140,#254);
#185=LINE('',#1142,#255);
#186=LINE('',#1143,#256);
#187=LINE('',#1148,#257);
#188=LINE('',#1152,#258);
#189=LINE('',#1154,#259);
#190=LINE('',#1155,#260);
#191=LINE('',#1163,#261);
#192=LINE('',#1165,#262);
#193=LINE('',#1167,#263);
#194=LINE('',#1168,#264);
#195=LINE('',#1173,#265);
#196=LINE('',#1177,#266);
#197=LINE('',#1179,#267);
#198=LINE('',#1180,#268);
#199=LINE('',#1189,#269);
#200=LINE('',#1197,#270);
#201=LINE('',#1201,#271);
#202=LINE('',#1215,#272);
#203=LINE('',#1218,#273);
#204=LINE('',#1221,#274);
#205=LINE('',#1225,#275);
#206=LINE('',#1239,#276);
#207=LINE('',#1242,#277);
#208=LINE('',#1245,#278);
#209=LINE('',#1248,#279);
#210=LINE('',#1251,#280);
#211=LINE('',#1254,#281);
#212=LINE('',#1257,#282);
#213=LINE('',#1264,#283);
#214=LINE('',#1267,#284);
#215=LINE('',#1273,#285);
#216=LINE('',#1275,#286);
#217=LINE('',#1280,#287);
#218=LINE('',#1282,#288);
#219=LINE('',#1289,#289);
#220=LINE('',#1291,#290);
#221=LINE('',#1298,#291);
#222=LINE('',#1301,#292);
#223=LINE('',#1304,#293);
#224=LINE('',#1306,#294);
#225=LINE('',#1308,#295);
#226=LINE('',#1310,#296);
#227=LINE('',#1312,#297);
#228=LINE('',#1314,#298);
#229=LINE('',#1316,#299);
#230=LINE('',#1318,#300);
#231=LINE('',#1320,#301);
#232=LINE('',#1321,#302);
#233=LINE('',#1324,#303);
#234=LINE('',#1328,#304);
#235=LINE('',#1329,#305);
#236=LINE('',#1333,#306);
#237=LINE('',#1337,#307);
#238=LINE('',#1340,#308);
#239=LINE('',#1342,#309);
#240=LINE('',#1343,#310);
#241=LINE('',#1345,#311);
#242=LINE('',#1348,#312);
#243=LINE('',#1350,#313);
#244=LINE('',#1352,#314);
#245=LINE('',#1357,#315);
#246=LINE('',#1358,#316);
#247=LINE('',#1362,#317);
#248=LINE('',#1364,#318);
#249=LINE('',#1367,#319);
#250=LINE('',#1368,#320);
#251=LINE('',#1371,#321);
#252=LINE('',#1372,#322);
#253=VECTOR('',#895,10.);
#254=VECTOR('',#896,10.);
#255=VECTOR('',#897,10.);
#256=VECTOR('',#898,10.);
#257=VECTOR('',#903,10.);
#258=VECTOR('',#908,10.);
#259=VECTOR('',#909,10.);
#260=VECTOR('',#910,10.);
#261=VECTOR('',#921,10.);
#262=VECTOR('',#922,10.);
#263=VECTOR('',#923,10.);
#264=VECTOR('',#924,10.);
#265=VECTOR('',#929,10.);
#266=VECTOR('',#934,10.);
#267=VECTOR('',#935,10.);
#268=VECTOR('',#936,10.);
#269=VECTOR('',#949,11.);
#270=VECTOR('',#958,10.);
#271=VECTOR('',#961,10.);
#272=VECTOR('',#966,10.);
#273=VECTOR('',#969,10.);
#274=VECTOR('',#972,10.);
#275=VECTOR('',#975,10.);
#276=VECTOR('',#980,10.);
#277=VECTOR('',#983,10.);
#278=VECTOR('',#986,10.);
#279=VECTOR('',#989,10.);
#280=VECTOR('',#994,10.);
#281=VECTOR('',#997,10.);
#282=VECTOR('',#1000,10.);
#283=VECTOR('',#1007,10.);
#284=VECTOR('',#1010,10.);
#285=VECTOR('',#1015,10.);
#286=VECTOR('',#1018,10.);
#287=VECTOR('',#1025,10.);
#288=VECTOR('',#1028,10.);
#289=VECTOR('',#1037,10.);
#290=VECTOR('',#1040,10.);
#291=VECTOR('',#1051,10.);
#292=VECTOR('',#1054,10.);
#293=VECTOR('',#1057,10.);
#294=VECTOR('',#1058,10.);
#295=VECTOR('',#1059,10.);
#296=VECTOR('',#1060,10.);
#297=VECTOR('',#1061,10.);
#298=VECTOR('',#1062,10.);
#299=VECTOR('',#1063,10.);
#300=VECTOR('',#1064,10.);
#301=VECTOR('',#1065,10.);
#302=VECTOR('',#1066,10.);
#303=VECTOR('',#1069,10.);
#304=VECTOR('',#1074,10.);
#305=VECTOR('',#1075,10.);
#306=VECTOR('',#1080,10.);
#307=VECTOR('',#1085,10.);
#308=VECTOR('',#1088,10.);
#309=VECTOR('',#1091,10.);
#310=VECTOR('',#1092,10.);
#311=VECTOR('',#1093,10.);
#312=VECTOR('',#1096,10.);
#313=VECTOR('',#1097,10.);
#314=VECTOR('',#1098,10.);
#315=VECTOR('',#1105,10.);
#316=VECTOR('',#1106,10.);
#317=VECTOR('',#1111,10.);
#318=VECTOR('',#1114,10.);
#319=VECTOR('',#1117,10.);
#320=VECTOR('',#1118,10.);
#321=VECTOR('',#1121,10.);
#322=VECTOR('',#1122,10.);
#323=VERTEX_POINT('',#1136);
#324=VERTEX_POINT('',#1137);
#325=VERTEX_POINT('',#1139);
#326=VERTEX_POINT('',#1141);
#327=VERTEX_POINT('',#1145);
#328=VERTEX_POINT('',#1147);
#329=VERTEX_POINT('',#1151);
#330=VERTEX_POINT('',#1153);
#331=VERTEX_POINT('',#1161);
#332=VERTEX_POINT('',#1162);
#333=VERTEX_POINT('',#1164);
#334=VERTEX_POINT('',#1166);
#335=VERTEX_POINT('',#1170);
#336=VERTEX_POINT('',#1172);
#337=VERTEX_POINT('',#1176);
#338=VERTEX_POINT('',#1178);
#339=VERTEX_POINT('',#1186);
#340=VERTEX_POINT('',#1188);
#341=VERTEX_POINT('',#1193);
#342=VERTEX_POINT('',#1194);
#343=VERTEX_POINT('',#1196);
#344=VERTEX_POINT('',#1198);
#345=VERTEX_POINT('',#1200);
#346=VERTEX_POINT('',#1204);
#347=VERTEX_POINT('',#1217);
#348=VERTEX_POINT('',#1219);
#349=VERTEX_POINT('',#1223);
#350=VERTEX_POINT('',#1224);
#351=VERTEX_POINT('',#1238);
#352=VERTEX_POINT('',#1240);
#353=VERTEX_POINT('',#1244);
#354=VERTEX_POINT('',#1246);
#355=VERTEX_POINT('',#1253);
#356=VERTEX_POINT('',#1255);
#357=VERTEX_POINT('',#1260);
#358=VERTEX_POINT('',#1261);
#359=VERTEX_POINT('',#1263);
#360=VERTEX_POINT('',#1265);
#361=VERTEX_POINT('',#1269);
#362=VERTEX_POINT('',#1270);
#363=VERTEX_POINT('',#1272);
#364=VERTEX_POINT('',#1279);
#365=VERTEX_POINT('',#1286);
#366=VERTEX_POINT('',#1288);
#367=VERTEX_POINT('',#1297);
#368=VERTEX_POINT('',#1299);
#369=VERTEX_POINT('',#1303);
#370=VERTEX_POINT('',#1305);
#371=VERTEX_POINT('',#1307);
#372=VERTEX_POINT('',#1309);
#373=VERTEX_POINT('',#1311);
#374=VERTEX_POINT('',#1313);
#375=VERTEX_POINT('',#1315);
#376=VERTEX_POINT('',#1317);
#377=VERTEX_POINT('',#1319);
#378=VERTEX_POINT('',#1323);
#379=VERTEX_POINT('',#1327);
#380=VERTEX_POINT('',#1332);
#381=VERTEX_POINT('',#1336);
#382=VERTEX_POINT('',#1338);
#383=VERTEX_POINT('',#1344);
#384=VERTEX_POINT('',#1346);
#385=VERTEX_POINT('',#1349);
#386=VERTEX_POINT('',#1351);
#387=VERTEX_POINT('',#1356);
#388=VERTEX_POINT('',#1360);
#389=VERTEX_POINT('',#1366);
#390=VERTEX_POINT('',#1370);
#391=EDGE_CURVE('',#323,#324,#183,.T.);
#392=EDGE_CURVE('',#323,#325,#184,.T.);
#393=EDGE_CURVE('',#325,#326,#185,.T.);
#394=EDGE_CURVE('',#324,#326,#186,.T.);
#395=EDGE_CURVE('',#327,#323,#29,.T.);
#396=EDGE_CURVE('',#327,#328,#187,.T.);
#397=EDGE_CURVE('',#328,#325,#30,.T.);
#398=EDGE_CURVE('',#329,#327,#188,.T.);
#399=EDGE_CURVE('',#329,#330,#189,.T.);
#400=EDGE_CURVE('',#330,#328,#190,.T.);
#401=EDGE_CURVE('',#324,#329,#31,.T.);
#402=EDGE_CURVE('',#326,#330,#32,.T.);
#403=EDGE_CURVE('',#331,#332,#191,.T.);
#404=EDGE_CURVE('',#331,#333,#192,.T.);
#405=EDGE_CURVE('',#333,#334,#193,.T.);
#406=EDGE_CURVE('',#332,#334,#194,.T.);
#407=EDGE_CURVE('',#335,#331,#33,.T.);
#408=EDGE_CURVE('',#335,#336,#195,.T.);
#409=EDGE_CURVE('',#336,#333,#34,.T.);
#410=EDGE_CURVE('',#337,#335,#196,.T.);
#411=EDGE_CURVE('',#337,#338,#197,.T.);
#412=EDGE_CURVE('',#338,#336,#198,.T.);
#413=EDGE_CURVE('',#332,#337,#35,.T.);
#414=EDGE_CURVE('',#334,#338,#36,.T.);
#415=EDGE_CURVE('',#339,#339,#37,.T.);
#416=EDGE_CURVE('',#339,#340,#199,.T.);
#417=EDGE_CURVE('',#340,#340,#38,.T.);
#418=EDGE_CURVE('',#341,#342,#39,.T.);
#419=EDGE_CURVE('',#343,#342,#200,.T.);
#420=EDGE_CURVE('',#344,#343,#40,.T.);
#421=EDGE_CURVE('',#345,#344,#201,.T.);
#422=EDGE_CURVE('',#345,#341,#41,.T.);
#423=EDGE_CURVE('',#341,#346,#23,.T.);
#424=EDGE_CURVE('',#346,#345,#202,.T.);
#425=EDGE_CURVE('',#347,#341,#203,.T.);
#426=EDGE_CURVE('',#347,#348,#42,.T.);
#427=EDGE_CURVE('',#342,#348,#204,.T.);
#428=EDGE_CURVE('',#349,#350,#205,.T.);
#429=EDGE_CURVE('',#349,#347,#43,.T.);
#430=EDGE_CURVE('',#350,#347,#24,.T.);
#431=EDGE_CURVE('',#351,#349,#206,.T.);
#432=EDGE_CURVE('',#352,#351,#44,.T.);
#433=EDGE_CURVE('',#348,#352,#207,.T.);
#434=EDGE_CURVE('',#347,#353,#208,.T.);
#435=EDGE_CURVE('',#353,#354,#45,.T.);
#436=EDGE_CURVE('',#341,#354,#209,.T.);
#437=EDGE_CURVE('',#350,#346,#46,.T.);
#438=EDGE_CURVE('',#354,#353,#210,.T.);
#439=EDGE_CURVE('',#343,#355,#211,.T.);
#440=EDGE_CURVE('',#355,#356,#47,.T.);
#441=EDGE_CURVE('',#356,#344,#212,.T.);
#442=EDGE_CURVE('',#357,#358,#48,.T.);
#443=EDGE_CURVE('',#358,#359,#213,.T.);
#444=EDGE_CURVE('',#359,#360,#49,.T.);
#445=EDGE_CURVE('',#360,#357,#214,.T.);
#446=EDGE_CURVE('',#361,#362,#50,.T.);
#447=EDGE_CURVE('',#362,#363,#215,.T.);
#448=EDGE_CURVE('',#363,#357,#51,.T.);
#449=EDGE_CURVE('',#357,#361,#216,.T.);
#450=EDGE_CURVE('',#363,#358,#52,.T.);
#451=EDGE_CURVE('',#351,#364,#217,.T.);
#452=EDGE_CURVE('',#364,#361,#53,.T.);
#453=EDGE_CURVE('',#361,#352,#218,.T.);
#454=EDGE_CURVE('',#364,#362,#54,.T.);
#455=EDGE_CURVE('',#360,#365,#55,.T.);
#456=EDGE_CURVE('',#365,#366,#219,.T.);
#457=EDGE_CURVE('',#366,#355,#56,.T.);
#458=EDGE_CURVE('',#355,#360,#220,.T.);
#459=EDGE_CURVE('',#366,#356,#57,.T.);
#460=EDGE_CURVE('',#359,#365,#58,.T.);
#461=EDGE_CURVE('',#364,#367,#221,.T.);
#462=EDGE_CURVE('',#367,#368,#59,.T.);
#463=EDGE_CURVE('',#368,#362,#222,.T.);
#464=EDGE_CURVE('',#369,#356,#223,.T.);
#465=EDGE_CURVE('',#370,#369,#224,.T.);
#466=EDGE_CURVE('',#370,#371,#225,.T.);
#467=EDGE_CURVE('',#371,#372,#226,.T.);
#468=EDGE_CURVE('',#372,#373,#227,.T.);
#469=EDGE_CURVE('',#374,#373,#228,.T.);
#470=EDGE_CURVE('',#375,#374,#229,.T.);
#471=EDGE_CURVE('',#375,#376,#230,.T.);
#472=EDGE_CURVE('',#376,#377,#231,.T.);
#473=EDGE_CURVE('',#367,#377,#232,.T.);
#474=EDGE_CURVE('',#366,#378,#233,.T.);
#475=EDGE_CURVE('',#378,#369,#60,.T.);
#476=EDGE_CURVE('',#379,#365,#234,.T.);
#477=EDGE_CURVE('',#378,#379,#235,.T.);
#478=EDGE_CURVE('',#359,#380,#236,.T.);
#479=EDGE_CURVE('',#380,#379,#61,.T.);
#480=EDGE_CURVE('',#363,#381,#237,.T.);
#481=EDGE_CURVE('',#381,#382,#62,.T.);
#482=EDGE_CURVE('',#382,#358,#238,.T.);
#483=EDGE_CURVE('',#380,#382,#239,.T.);
#484=EDGE_CURVE('',#381,#368,#240,.T.);
#485=EDGE_CURVE('',#377,#383,#241,.T.);
#486=EDGE_CURVE('',#383,#384,#63,.T.);
#487=EDGE_CURVE('',#384,#370,#242,.T.);
#488=EDGE_CURVE('',#385,#374,#243,.T.);
#489=EDGE_CURVE('',#373,#386,#244,.T.);
#490=EDGE_CURVE('',#386,#385,#64,.T.);
#491=EDGE_CURVE('',#387,#372,#245,.T.);
#492=EDGE_CURVE('',#387,#386,#246,.T.);
#493=EDGE_CURVE('',#388,#387,#65,.T.);
#494=EDGE_CURVE('',#388,#385,#247,.T.);
#495=EDGE_CURVE('',#375,#388,#248,.T.);
#496=EDGE_CURVE('',#384,#389,#249,.T.);
#497=EDGE_CURVE('',#371,#389,#250,.T.);
#498=EDGE_CURVE('',#390,#376,#251,.T.);
#499=EDGE_CURVE('',#383,#390,#252,.T.);
#500=EDGE_CURVE('',#389,#390,#66,.T.);
#501=ORIENTED_EDGE('',*,*,#391,.F.);
#502=ORIENTED_EDGE('',*,*,#392,.T.);
#503=ORIENTED_EDGE('',*,*,#393,.T.);
#504=ORIENTED_EDGE('',*,*,#394,.F.);
#505=ORIENTED_EDGE('',*,*,#395,.F.);
#506=ORIENTED_EDGE('',*,*,#396,.T.);
#507=ORIENTED_EDGE('',*,*,#397,.T.);
#508=ORIENTED_EDGE('',*,*,#392,.F.);
#509=ORIENTED_EDGE('',*,*,#398,.F.);
#510=ORIENTED_EDGE('',*,*,#399,.T.);
#511=ORIENTED_EDGE('',*,*,#400,.T.);
#512=ORIENTED_EDGE('',*,*,#396,.F.);
#513=ORIENTED_EDGE('',*,*,#401,.F.);
#514=ORIENTED_EDGE('',*,*,#394,.T.);
#515=ORIENTED_EDGE('',*,*,#402,.T.);
#516=ORIENTED_EDGE('',*,*,#399,.F.);
#517=ORIENTED_EDGE('',*,*,#402,.F.);
#518=ORIENTED_EDGE('',*,*,#393,.F.);
#519=ORIENTED_EDGE('',*,*,#397,.F.);
#520=ORIENTED_EDGE('',*,*,#400,.F.);
#521=ORIENTED_EDGE('',*,*,#403,.F.);
#522=ORIENTED_EDGE('',*,*,#404,.T.);
#523=ORIENTED_EDGE('',*,*,#405,.T.);
#524=ORIENTED_EDGE('',*,*,#406,.F.);
#525=ORIENTED_EDGE('',*,*,#407,.F.);
#526=ORIENTED_EDGE('',*,*,#408,.T.);
#527=ORIENTED_EDGE('',*,*,#409,.T.);
#528=ORIENTED_EDGE('',*,*,#404,.F.);
#529=ORIENTED_EDGE('',*,*,#410,.F.);
#530=ORIENTED_EDGE('',*,*,#411,.T.);
#531=ORIENTED_EDGE('',*,*,#412,.T.);
#532=ORIENTED_EDGE('',*,*,#408,.F.);
#533=ORIENTED_EDGE('',*,*,#413,.F.);
#534=ORIENTED_EDGE('',*,*,#406,.T.);
#535=ORIENTED_EDGE('',*,*,#414,.T.);
#536=ORIENTED_EDGE('',*,*,#411,.F.);
#537=ORIENTED_EDGE('',*,*,#414,.F.);
#538=ORIENTED_EDGE('',*,*,#405,.F.);
#539=ORIENTED_EDGE('',*,*,#409,.F.);
#540=ORIENTED_EDGE('',*,*,#412,.F.);
#541=ORIENTED_EDGE('',*,*,#415,.F.);
#542=ORIENTED_EDGE('',*,*,#416,.T.);
#543=ORIENTED_EDGE('',*,*,#417,.T.);
#544=ORIENTED_EDGE('',*,*,#416,.F.);
#545=ORIENTED_EDGE('',*,*,#417,.F.);
#546=ORIENTED_EDGE('',*,*,#391,.T.);
#547=ORIENTED_EDGE('',*,*,#401,.T.);
#548=ORIENTED_EDGE('',*,*,#398,.T.);
#549=ORIENTED_EDGE('',*,*,#395,.T.);
#550=ORIENTED_EDGE('',*,*,#403,.T.);
#551=ORIENTED_EDGE('',*,*,#413,.T.);
#552=ORIENTED_EDGE('',*,*,#410,.T.);
#553=ORIENTED_EDGE('',*,*,#407,.T.);
#554=ORIENTED_EDGE('',*,*,#418,.T.);
#555=ORIENTED_EDGE('',*,*,#419,.F.);
#556=ORIENTED_EDGE('',*,*,#420,.F.);
#557=ORIENTED_EDGE('',*,*,#421,.F.);
#558=ORIENTED_EDGE('',*,*,#422,.T.);
#559=ORIENTED_EDGE('',*,*,#423,.F.);
#560=ORIENTED_EDGE('',*,*,#422,.F.);
#561=ORIENTED_EDGE('',*,*,#424,.F.);
#562=ORIENTED_EDGE('',*,*,#425,.F.);
#563=ORIENTED_EDGE('',*,*,#426,.T.);
#564=ORIENTED_EDGE('',*,*,#427,.F.);
#565=ORIENTED_EDGE('',*,*,#418,.F.);
#566=ORIENTED_EDGE('',*,*,#428,.F.);
#567=ORIENTED_EDGE('',*,*,#429,.T.);
#568=ORIENTED_EDGE('',*,*,#430,.F.);
#569=ORIENTED_EDGE('',*,*,#431,.F.);
#570=ORIENTED_EDGE('',*,*,#432,.F.);
#571=ORIENTED_EDGE('',*,*,#433,.F.);
#572=ORIENTED_EDGE('',*,*,#426,.F.);
#573=ORIENTED_EDGE('',*,*,#429,.F.);
#574=ORIENTED_EDGE('',*,*,#430,.T.);
#575=ORIENTED_EDGE('',*,*,#434,.T.);
#576=ORIENTED_EDGE('',*,*,#435,.T.);
#577=ORIENTED_EDGE('',*,*,#436,.F.);
#578=ORIENTED_EDGE('',*,*,#423,.T.);
#579=ORIENTED_EDGE('',*,*,#437,.F.);
#580=ORIENTED_EDGE('',*,*,#425,.T.);
#581=ORIENTED_EDGE('',*,*,#436,.T.);
#582=ORIENTED_EDGE('',*,*,#438,.T.);
#583=ORIENTED_EDGE('',*,*,#434,.F.);
#584=ORIENTED_EDGE('',*,*,#420,.T.);
#585=ORIENTED_EDGE('',*,*,#439,.T.);
#586=ORIENTED_EDGE('',*,*,#440,.T.);
#587=ORIENTED_EDGE('',*,*,#441,.T.);
#588=ORIENTED_EDGE('',*,*,#438,.F.);
#589=ORIENTED_EDGE('',*,*,#435,.F.);
#590=ORIENTED_EDGE('',*,*,#442,.T.);
#591=ORIENTED_EDGE('',*,*,#443,.T.);
#592=ORIENTED_EDGE('',*,*,#444,.T.);
#593=ORIENTED_EDGE('',*,*,#445,.T.);
#594=ORIENTED_EDGE('',*,*,#446,.T.);
#595=ORIENTED_EDGE('',*,*,#447,.T.);
#596=ORIENTED_EDGE('',*,*,#448,.T.);
#597=ORIENTED_EDGE('',*,*,#449,.T.);
#598=ORIENTED_EDGE('',*,*,#448,.F.);
#599=ORIENTED_EDGE('',*,*,#450,.T.);
#600=ORIENTED_EDGE('',*,*,#442,.F.);
#601=ORIENTED_EDGE('',*,*,#432,.T.);
#602=ORIENTED_EDGE('',*,*,#451,.T.);
#603=ORIENTED_EDGE('',*,*,#452,.T.);
#604=ORIENTED_EDGE('',*,*,#453,.T.);
#605=ORIENTED_EDGE('',*,*,#452,.F.);
#606=ORIENTED_EDGE('',*,*,#454,.T.);
#607=ORIENTED_EDGE('',*,*,#446,.F.);
#608=ORIENTED_EDGE('',*,*,#455,.T.);
#609=ORIENTED_EDGE('',*,*,#456,.T.);
#610=ORIENTED_EDGE('',*,*,#457,.T.);
#611=ORIENTED_EDGE('',*,*,#458,.T.);
#612=ORIENTED_EDGE('',*,*,#457,.F.);
#613=ORIENTED_EDGE('',*,*,#459,.T.);
#614=ORIENTED_EDGE('',*,*,#440,.F.);
#615=ORIENTED_EDGE('',*,*,#444,.F.);
#616=ORIENTED_EDGE('',*,*,#460,.T.);
#617=ORIENTED_EDGE('',*,*,#455,.F.);
#618=ORIENTED_EDGE('',*,*,#454,.F.);
#619=ORIENTED_EDGE('',*,*,#461,.T.);
#620=ORIENTED_EDGE('',*,*,#462,.T.);
#621=ORIENTED_EDGE('',*,*,#463,.T.);
#622=ORIENTED_EDGE('',*,*,#428,.T.);
#623=ORIENTED_EDGE('',*,*,#437,.T.);
#624=ORIENTED_EDGE('',*,*,#424,.T.);
#625=ORIENTED_EDGE('',*,*,#421,.T.);
#626=ORIENTED_EDGE('',*,*,#441,.F.);
#627=ORIENTED_EDGE('',*,*,#464,.F.);
#628=ORIENTED_EDGE('',*,*,#465,.F.);
#629=ORIENTED_EDGE('',*,*,#466,.T.);
#630=ORIENTED_EDGE('',*,*,#467,.T.);
#631=ORIENTED_EDGE('',*,*,#468,.T.);
#632=ORIENTED_EDGE('',*,*,#469,.F.);
#633=ORIENTED_EDGE('',*,*,#470,.F.);
#634=ORIENTED_EDGE('',*,*,#471,.T.);
#635=ORIENTED_EDGE('',*,*,#472,.T.);
#636=ORIENTED_EDGE('',*,*,#473,.F.);
#637=ORIENTED_EDGE('',*,*,#461,.F.);
#638=ORIENTED_EDGE('',*,*,#451,.F.);
#639=ORIENTED_EDGE('',*,*,#431,.T.);
#640=ORIENTED_EDGE('',*,*,#459,.F.);
#641=ORIENTED_EDGE('',*,*,#474,.T.);
#642=ORIENTED_EDGE('',*,*,#475,.T.);
#643=ORIENTED_EDGE('',*,*,#464,.T.);
#644=ORIENTED_EDGE('',*,*,#456,.F.);
#645=ORIENTED_EDGE('',*,*,#476,.F.);
#646=ORIENTED_EDGE('',*,*,#477,.F.);
#647=ORIENTED_EDGE('',*,*,#474,.F.);
#648=ORIENTED_EDGE('',*,*,#433,.T.);
#649=ORIENTED_EDGE('',*,*,#453,.F.);
#650=ORIENTED_EDGE('',*,*,#449,.F.);
#651=ORIENTED_EDGE('',*,*,#445,.F.);
#652=ORIENTED_EDGE('',*,*,#458,.F.);
#653=ORIENTED_EDGE('',*,*,#439,.F.);
#654=ORIENTED_EDGE('',*,*,#419,.T.);
#655=ORIENTED_EDGE('',*,*,#427,.T.);
#656=ORIENTED_EDGE('',*,*,#415,.T.);
#657=ORIENTED_EDGE('',*,*,#460,.F.);
#658=ORIENTED_EDGE('',*,*,#478,.T.);
#659=ORIENTED_EDGE('',*,*,#479,.T.);
#660=ORIENTED_EDGE('',*,*,#476,.T.);
#661=ORIENTED_EDGE('',*,*,#450,.F.);
#662=ORIENTED_EDGE('',*,*,#480,.T.);
#663=ORIENTED_EDGE('',*,*,#481,.T.);
#664=ORIENTED_EDGE('',*,*,#482,.T.);
#665=ORIENTED_EDGE('',*,*,#479,.F.);
#666=ORIENTED_EDGE('',*,*,#483,.T.);
#667=ORIENTED_EDGE('',*,*,#481,.F.);
#668=ORIENTED_EDGE('',*,*,#484,.T.);
#669=ORIENTED_EDGE('',*,*,#462,.F.);
#670=ORIENTED_EDGE('',*,*,#473,.T.);
#671=ORIENTED_EDGE('',*,*,#485,.T.);
#672=ORIENTED_EDGE('',*,*,#486,.T.);
#673=ORIENTED_EDGE('',*,*,#487,.T.);
#674=ORIENTED_EDGE('',*,*,#465,.T.);
#675=ORIENTED_EDGE('',*,*,#475,.F.);
#676=ORIENTED_EDGE('',*,*,#477,.T.);
#677=ORIENTED_EDGE('',*,*,#488,.T.);
#678=ORIENTED_EDGE('',*,*,#469,.T.);
#679=ORIENTED_EDGE('',*,*,#489,.T.);
#680=ORIENTED_EDGE('',*,*,#490,.T.);
#681=ORIENTED_EDGE('',*,*,#447,.F.);
#682=ORIENTED_EDGE('',*,*,#463,.F.);
#683=ORIENTED_EDGE('',*,*,#484,.F.);
#684=ORIENTED_EDGE('',*,*,#480,.F.);
#685=ORIENTED_EDGE('',*,*,#489,.F.);
#686=ORIENTED_EDGE('',*,*,#468,.F.);
#687=ORIENTED_EDGE('',*,*,#491,.F.);
#688=ORIENTED_EDGE('',*,*,#492,.T.);
#689=ORIENTED_EDGE('',*,*,#490,.F.);
#690=ORIENTED_EDGE('',*,*,#492,.F.);
#691=ORIENTED_EDGE('',*,*,#493,.F.);
#692=ORIENTED_EDGE('',*,*,#494,.T.);
#693=ORIENTED_EDGE('',*,*,#488,.F.);
#694=ORIENTED_EDGE('',*,*,#494,.F.);
#695=ORIENTED_EDGE('',*,*,#495,.F.);
#696=ORIENTED_EDGE('',*,*,#470,.T.);
#697=ORIENTED_EDGE('',*,*,#487,.F.);
#698=ORIENTED_EDGE('',*,*,#496,.T.);
#699=ORIENTED_EDGE('',*,*,#497,.F.);
#700=ORIENTED_EDGE('',*,*,#466,.F.);
#701=ORIENTED_EDGE('',*,*,#485,.F.);
#702=ORIENTED_EDGE('',*,*,#472,.F.);
#703=ORIENTED_EDGE('',*,*,#498,.F.);
#704=ORIENTED_EDGE('',*,*,#499,.F.);
#705=ORIENTED_EDGE('',*,*,#486,.F.);
#706=ORIENTED_EDGE('',*,*,#499,.T.);
#707=ORIENTED_EDGE('',*,*,#500,.F.);
#708=ORIENTED_EDGE('',*,*,#496,.F.);
#709=ORIENTED_EDGE('',*,*,#491,.T.);
#710=ORIENTED_EDGE('',*,*,#467,.F.);
#711=ORIENTED_EDGE('',*,*,#497,.T.);
#712=ORIENTED_EDGE('',*,*,#500,.T.);
#713=ORIENTED_EDGE('',*,*,#498,.T.);
#714=ORIENTED_EDGE('',*,*,#471,.F.);
#715=ORIENTED_EDGE('',*,*,#495,.T.);
#716=ORIENTED_EDGE('',*,*,#493,.T.);
#717=ORIENTED_EDGE('',*,*,#443,.F.);
#718=ORIENTED_EDGE('',*,*,#482,.F.);
#719=ORIENTED_EDGE('',*,*,#483,.F.);
#720=ORIENTED_EDGE('',*,*,#478,.F.);
#721=PLANE('',#804);
#722=PLANE('',#808);
#723=PLANE('',#812);
#724=PLANE('',#813);
#725=PLANE('',#817);
#726=PLANE('',#821);
#727=PLANE('',#825);
#728=PLANE('',#826);
#729=PLANE('',#835);
#730=PLANE('',#840);
#731=PLANE('',#843);
#732=PLANE('',#865);
#733=PLANE('',#868);
#734=PLANE('',#869);
#735=PLANE('',#874);
#736=PLANE('',#877);
#737=PLANE('',#878);
#738=PLANE('',#881);
#739=PLANE('',#882);
#740=PLANE('',#883);
#741=PLANE('',#886);
#742=PLANE('',#887);
#743=ADVANCED_FACE('',(#87),#721,.F.);
#744=ADVANCED_FACE('',(#88),#67,.F.);
#745=ADVANCED_FACE('',(#89),#722,.F.);
#746=ADVANCED_FACE('',(#90),#68,.T.);
#747=ADVANCED_FACE('',(#91),#723,.T.);
#748=ADVANCED_FACE('',(#92),#724,.F.);
#749=ADVANCED_FACE('',(#93),#69,.F.);
#750=ADVANCED_FACE('',(#94),#725,.F.);
#751=ADVANCED_FACE('',(#95),#70,.F.);
#752=ADVANCED_FACE('',(#96),#726,.T.);
#753=ADVANCED_FACE('',(#97),#71,.F.);
#754=ADVANCED_FACE('',(#98,#25,#26),#727,.T.);
#755=ADVANCED_FACE('',(#99),#728,.T.);
#756=ADVANCED_FACE('',(#100),#72,.F.);
#757=ADVANCED_FACE('',(#101),#73,.F.);
#758=ADVANCED_FACE('',(#102),#74,.F.);
#759=ADVANCED_FACE('',(#103),#729,.F.);
#760=ADVANCED_FACE('',(#104),#75,.F.);
#761=ADVANCED_FACE('',(#105),#730,.F.);
#762=ADVANCED_FACE('',(#106),#76,.T.);
#763=ADVANCED_FACE('',(#107),#731,.T.);
#764=ADVANCED_FACE('',(#108),#77,.T.);
#765=ADVANCED_FACE('',(#109),#78,.T.);
#766=ADVANCED_FACE('',(#110),#19,.T.);
#767=ADVANCED_FACE('',(#111),#79,.T.);
#768=ADVANCED_FACE('',(#112),#20,.T.);
#769=ADVANCED_FACE('',(#113),#80,.T.);
#770=ADVANCED_FACE('',(#114),#21,.T.);
#771=ADVANCED_FACE('',(#115),#22,.T.);
#772=ADVANCED_FACE('',(#116),#81,.T.);
#773=ADVANCED_FACE('',(#117),#732,.F.);
#774=ADVANCED_FACE('',(#118),#82,.T.);
#775=ADVANCED_FACE('',(#119),#733,.F.);
#776=ADVANCED_FACE('',(#120,#27),#734,.T.);
#777=ADVANCED_FACE('',(#121),#83,.T.);
#778=ADVANCED_FACE('',(#122),#84,.T.);
#779=ADVANCED_FACE('',(#123,#28),#735,.F.);
#780=ADVANCED_FACE('',(#124),#736,.F.);
#781=ADVANCED_FACE('',(#125),#737,.F.);
#782=ADVANCED_FACE('',(#126),#85,.F.);
#783=ADVANCED_FACE('',(#127),#738,.F.);
#784=ADVANCED_FACE('',(#128),#739,.T.);
#785=ADVANCED_FACE('',(#129),#740,.T.);
#786=ADVANCED_FACE('',(#130),#86,.T.);
#787=ADVANCED_FACE('',(#131),#741,.F.);
#788=ADVANCED_FACE('',(#132),#742,.F.);
#789=CLOSED_SHELL('',(#743,#744,#745,#746,#747,#748,#749,#750,#751,#752,
#753,#754,#755,#756,#757,#758,#759,#760,#761,#762,#763,#764,#765,#766,#767,
#768,#769,#770,#771,#772,#773,#774,#775,#776,#777,#778,#779,#780,#781,#782,
#783,#784,#785,#786,#787,#788));
#790=DERIVED_UNIT_ELEMENT(#792,1.);
#791=DERIVED_UNIT_ELEMENT(#1385,-3.);
#792=(
MASS_UNIT()
NAMED_UNIT(*)
SI_UNIT(.KILO.,.GRAM.)
);
#793=DERIVED_UNIT((#790,#791));
#794=MEASURE_REPRESENTATION_ITEM('density measure',
POSITIVE_RATIO_MEASURE(7850.),#793);
#795=PROPERTY_DEFINITION_REPRESENTATION(#800,#797);
#796=PROPERTY_DEFINITION_REPRESENTATION(#801,#798);
#797=REPRESENTATION('material name',(#799),#1382);
#798=REPRESENTATION('density',(#794),#1382);
#799=DESCRIPTIVE_REPRESENTATION_ITEM('Steel','Steel');
#800=PROPERTY_DEFINITION('material property','material name',#1397);
#801=PROPERTY_DEFINITION('material property','density of part',#1397);
#802=AXIS2_PLACEMENT_3D('',#1133,#889,#890);
#803=AXIS2_PLACEMENT_3D('',#1134,#891,#892);
#804=AXIS2_PLACEMENT_3D('',#1135,#893,#894);
#805=AXIS2_PLACEMENT_3D('',#1144,#899,#900);
#806=AXIS2_PLACEMENT_3D('',#1146,#901,#902);
#807=AXIS2_PLACEMENT_3D('',#1149,#904,#905);
#808=AXIS2_PLACEMENT_3D('',#1150,#906,#907);
#809=AXIS2_PLACEMENT_3D('',#1156,#911,#912);
#810=AXIS2_PLACEMENT_3D('',#1157,#913,#914);
#811=AXIS2_PLACEMENT_3D('',#1158,#915,#916);
#812=AXIS2_PLACEMENT_3D('',#1159,#917,#918);
#813=AXIS2_PLACEMENT_3D('',#1160,#919,#920);
#814=AXIS2_PLACEMENT_3D('',#1169,#925,#926);
#815=AXIS2_PLACEMENT_3D('',#1171,#927,#928);
#816=AXIS2_PLACEMENT_3D('',#1174,#930,#931);
#817=AXIS2_PLACEMENT_3D('',#1175,#932,#933);
#818=AXIS2_PLACEMENT_3D('',#1181,#937,#938);
#819=AXIS2_PLACEMENT_3D('',#1182,#939,#940);
#820=AXIS2_PLACEMENT_3D('',#1183,#941,#942);
#821=AXIS2_PLACEMENT_3D('',#1184,#943,#944);
#822=AXIS2_PLACEMENT_3D('',#1185,#945,#946);
#823=AXIS2_PLACEMENT_3D('',#1187,#947,#948);
#824=AXIS2_PLACEMENT_3D('',#1190,#950,#951);
#825=AXIS2_PLACEMENT_3D('',#1191,#952,#953);
#826=AXIS2_PLACEMENT_3D('',#1192,#954,#955);
#827=AXIS2_PLACEMENT_3D('',#1195,#956,#957);
#828=AXIS2_PLACEMENT_3D('',#1199,#959,#960);
#829=AXIS2_PLACEMENT_3D('',#1202,#962,#963);
#830=AXIS2_PLACEMENT_3D('',#1203,#964,#965);
#831=AXIS2_PLACEMENT_3D('',#1216,#967,#968);
#832=AXIS2_PLACEMENT_3D('',#1220,#970,#971);
#833=AXIS2_PLACEMENT_3D('',#1222,#973,#974);
#834=AXIS2_PLACEMENT_3D('',#1226,#976,#977);
#835=AXIS2_PLACEMENT_3D('',#1237,#978,#979);
#836=AXIS2_PLACEMENT_3D('',#1241,#981,#982);
#837=AXIS2_PLACEMENT_3D('',#1243,#984,#985);
#838=AXIS2_PLACEMENT_3D('',#1247,#987,#988);
#839=AXIS2_PLACEMENT_3D('',#1249,#990,#991);
#840=AXIS2_PLACEMENT_3D('',#1250,#992,#993);
#841=AXIS2_PLACEMENT_3D('',#1252,#995,#996);
#842=AXIS2_PLACEMENT_3D('',#1256,#998,#999);
#843=AXIS2_PLACEMENT_3D('',#1258,#1001,#1002);
#844=AXIS2_PLACEMENT_3D('',#1259,#1003,#1004);
#845=AXIS2_PLACEMENT_3D('',#1262,#1005,#1006);
#846=AXIS2_PLACEMENT_3D('',#1266,#1008,#1009);
#847=AXIS2_PLACEMENT_3D('',#1268,#1011,#1012);
#848=AXIS2_PLACEMENT_3D('',#1271,#1013,#1014);
#849=AXIS2_PLACEMENT_3D('',#1274,#1016,#1017);
#850=AXIS2_PLACEMENT_3D('',#1276,#1019,#1020);
#851=AXIS2_PLACEMENT_3D('',#1277,#1021,#1022);
#852=AXIS2_PLACEMENT_3D('',#1278,#1023,#1024);
#853=AXIS2_PLACEMENT_3D('',#1281,#1026,#1027);
#854=AXIS2_PLACEMENT_3D('',#1283,#1029,#1030);
#855=AXIS2_PLACEMENT_3D('',#1284,#1031,#1032);
#856=AXIS2_PLACEMENT_3D('',#1285,#1033,#1034);
#857=AXIS2_PLACEMENT_3D('',#1287,#1035,#1036);
#858=AXIS2_PLACEMENT_3D('',#1290,#1038,#1039);
#859=AXIS2_PLACEMENT_3D('',#1292,#1041,#1042);
#860=AXIS2_PLACEMENT_3D('',#1293,#1043,#1044);
#861=AXIS2_PLACEMENT_3D('',#1294,#1045,#1046);
#862=AXIS2_PLACEMENT_3D('',#1295,#1047,#1048);
#863=AXIS2_PLACEMENT_3D('',#1296,#1049,#1050);
#864=AXIS2_PLACEMENT_3D('',#1300,#1052,#1053);
#865=AXIS2_PLACEMENT_3D('',#1302,#1055,#1056);
#866=AXIS2_PLACEMENT_3D('',#1322,#1067,#1068);
#867=AXIS2_PLACEMENT_3D('',#1325,#1070,#1071);
#868=AXIS2_PLACEMENT_3D('',#1326,#1072,#1073);
#869=AXIS2_PLACEMENT_3D('',#1330,#1076,#1077);
#870=AXIS2_PLACEMENT_3D('',#1331,#1078,#1079);
#871=AXIS2_PLACEMENT_3D('',#1334,#1081,#1082);
#872=AXIS2_PLACEMENT_3D('',#1335,#1083,#1084);
#873=AXIS2_PLACEMENT_3D('',#1339,#1086,#1087);
#874=AXIS2_PLACEMENT_3D('',#1341,#1089,#1090);
#875=AXIS2_PLACEMENT_3D('',#1347,#1094,#1095);
#876=AXIS2_PLACEMENT_3D('',#1353,#1099,#1100);
#877=AXIS2_PLACEMENT_3D('',#1354,#1101,#1102);
#878=AXIS2_PLACEMENT_3D('',#1355,#1103,#1104);
#879=AXIS2_PLACEMENT_3D('',#1359,#1107,#1108);
#880=AXIS2_PLACEMENT_3D('',#1361,#1109,#1110);
#881=AXIS2_PLACEMENT_3D('',#1363,#1112,#1113);
#882=AXIS2_PLACEMENT_3D('',#1365,#1115,#1116);
#883=AXIS2_PLACEMENT_3D('',#1369,#1119,#1120);
#884=AXIS2_PLACEMENT_3D('',#1373,#1123,#1124);
#885=AXIS2_PLACEMENT_3D('',#1374,#1125,#1126);
#886=AXIS2_PLACEMENT_3D('',#1375,#1127,#1128);
#887=AXIS2_PLACEMENT_3D('',#1376,#1129,#1130);
#888=AXIS2_PLACEMENT_3D('',#1377,#1131,#1132);
#889=DIRECTION('axis',(0.,0.,1.));
#890=DIRECTION('refdir',(1.,0.,0.));
#891=DIRECTION('axis',(0.,0.,1.));
#892=DIRECTION('refdir',(1.,0.,0.));
#893=DIRECTION('center_axis',(1.,0.,-1.57167670293357E-14));
#894=DIRECTION('ref_axis',(1.57167670293357E-14,0.,1.));
#895=DIRECTION('',(1.57167670293357E-14,0.,1.));
#896=DIRECTION('',(0.,-1.,0.));
#897=DIRECTION('',(1.57167670293357E-14,0.,1.));
#898=DIRECTION('',(0.,-1.,0.));
#899=DIRECTION('center_axis',(0.,-1.,0.));
#900=DIRECTION('ref_axis',(1.69282459135619E-16,0.,1.));
#901=DIRECTION('center_axis',(0.,-1.,0.));
#902=DIRECTION('ref_axis',(-0.172690155706769,0.,-0.98497619774387));
#903=DIRECTION('',(0.,-1.,0.));
#904=DIRECTION('center_axis',(0.,-1.,0.));
#905=DIRECTION('ref_axis',(-0.172690155706769,0.,-0.98497619774387));
#906=DIRECTION('center_axis',(-1.,0.,0.));
#907=DIRECTION('ref_axis',(0.,0.,-1.));
#908=DIRECTION('',(0.,0.,-1.));
#909=DIRECTION('',(0.,-1.,0.));
#910=DIRECTION('',(0.,0.,-1.));
#911=DIRECTION('center_axis',(0.,-1.,0.));
#912=DIRECTION('ref_axis',(-1.49521016986139E-16,0.,1.));
#913=DIRECTION('center_axis',(0.,1.,0.));
#914=DIRECTION('ref_axis',(-0.18303709317515,0.,-0.983106007774335));
#915=DIRECTION('center_axis',(0.,1.,0.));
#916=DIRECTION('ref_axis',(-0.18303709317515,0.,-0.983106007774335));
#917=DIRECTION('center_axis',(0.,1.,0.));
#918=DIRECTION('ref_axis',(-1.,0.,0.));
#919=DIRECTION('center_axis',(-1.,0.,0.));
#920=DIRECTION('ref_axis',(0.,0.,-1.));
#921=DIRECTION('',(0.,0.,-1.));
#922=DIRECTION('',(0.,-1.,0.));
#923=DIRECTION('',(0.,0.,-1.));
#924=DIRECTION('',(0.,-1.,0.));
#925=DIRECTION('center_axis',(0.,-1.,0.));
#926=DIRECTION('ref_axis',(-1.,0.,0.));
#927=DIRECTION('center_axis',(0.,-1.,0.));
#928=DIRECTION('ref_axis',(-1.,0.,0.));
#929=DIRECTION('',(0.,-1.,0.));
#930=DIRECTION('center_axis',(0.,-1.,0.));
#931=DIRECTION('ref_axis',(-1.,0.,0.));
#932=DIRECTION('center_axis',(1.,0.,0.));
#933=DIRECTION('ref_axis',(0.,0.,1.));
#934=DIRECTION('',(0.,0.,1.));
#935=DIRECTION('',(0.,-1.,0.));
#936=DIRECTION('',(0.,0.,1.));
#937=DIRECTION('center_axis',(0.,-1.,0.));
#938=DIRECTION('ref_axis',(1.,0.,0.));
#939=DIRECTION('center_axis',(0.,-1.,0.));
#940=DIRECTION('ref_axis',(1.,0.,0.));
#941=DIRECTION('center_axis',(0.,-1.,0.));
#942=DIRECTION('ref_axis',(1.,0.,0.));
#943=DIRECTION('center_axis',(0.,1.,0.));
#944=DIRECTION('ref_axis',(-1.,0.,0.));
#945=DIRECTION('center_axis',(0.,-1.,0.));
#946=DIRECTION('ref_axis',(-1.,0.,0.));
#947=DIRECTION('center_axis',(0.,-1.,0.));
#948=DIRECTION('ref_axis',(-1.,0.,0.));
#949=DIRECTION('',(0.,-1.,0.));
#950=DIRECTION('center_axis',(0.,-1.,0.));
#951=DIRECTION('ref_axis',(-1.,0.,0.));
#952=DIRECTION('center_axis',(0.,1.,0.));
#953=DIRECTION('ref_axis',(-1.,0.,0.));
#954=DIRECTION('center_axis',(-1.,0.,0.));
#955=DIRECTION('ref_axis',(0.,0.,1.));
#956=DIRECTION('center_axis',(-1.,0.,0.));
#957=DIRECTION('ref_axis',(0.,-1.,0.));
#958=DIRECTION('',(0.,0.,1.));
#959=DIRECTION('center_axis',(1.,0.,0.));
#960=DIRECTION('ref_axis',(0.,0.707106781186548,-0.707106781186548));
#961=DIRECTION('',(0.,1.,0.));
#962=DIRECTION('center_axis',(-1.,0.,0.));
#963=DIRECTION('ref_axis',(0.,-1.,0.));
#964=DIRECTION('center_axis',(-1.,0.,0.));
#965=DIRECTION('ref_axis',(0.,-1.,0.));
#966=DIRECTION('',(1.,0.,0.));
#967=DIRECTION('center_axis',(-1.,0.,0.));
#968=DIRECTION('ref_axis',(0.,-1.,0.));
#969=DIRECTION('',(1.,0.,0.));
#970=DIRECTION('center_axis',(-1.,0.,0.));
#971=DIRECTION('ref_axis',(0.,-1.,0.));
#972=DIRECTION('',(-1.,0.,0.));
#973=DIRECTION('center_axis',(-1.,0.,0.));
#974=DIRECTION('ref_axis',(0.,-1.,0.));
#975=DIRECTION('',(1.,0.,0.));
#976=DIRECTION('center_axis',(-1.,0.,0.));
#977=DIRECTION('ref_axis',(0.,-1.,0.));
#978=DIRECTION('center_axis',(-1.,0.,0.));
#979=DIRECTION('ref_axis',(0.,0.,1.));
#980=DIRECTION('',(0.,-1.,0.));
#981=DIRECTION('center_axis',(-1.,0.,0.));
#982=DIRECTION('ref_axis',(0.,0.707106781186548,-0.707106781186548));
#983=DIRECTION('',(0.,0.,-1.));
#984=DIRECTION('center_axis',(0.,0.,1.));
#985=DIRECTION('ref_axis',(-1.,0.,0.));
#986=DIRECTION('',(0.,0.,1.));
#987=DIRECTION('center_axis',(0.,0.,1.));
#988=DIRECTION('ref_axis',(-1.,0.,0.));
#989=DIRECTION('',(0.,0.,1.));
#990=DIRECTION('center_axis',(0.,0.,1.));
#991=DIRECTION('ref_axis',(-1.,0.,0.));
#992=DIRECTION('center_axis',(0.,1.,0.));
#993=DIRECTION('ref_axis',(-1.,0.,0.));
#994=DIRECTION('',(-1.,0.,0.));
#995=DIRECTION('center_axis',(-1.,0.,0.));
#996=DIRECTION('ref_axis',(0.,0.707106781186548,-0.707106781186548));
#997=DIRECTION('',(1.,0.,0.));
#998=DIRECTION('center_axis',(-1.,0.,0.));
#999=DIRECTION('ref_axis',(0.,1.,0.));
#1000=DIRECTION('',(-1.,0.,0.));
#1001=DIRECTION('center_axis',(0.,0.,-1.));
#1002=DIRECTION('ref_axis',(-1.,0.,0.));
#1003=DIRECTION('center_axis',(1.,0.,0.));
#1004=DIRECTION('ref_axis',(0.,0.707106781186546,0.707106781186549));
#1005=DIRECTION('center_axis',(1.,0.,1.11022302462516E-15));
#1006=DIRECTION('ref_axis',(0.,1.,0.));
#1007=DIRECTION('',(1.,0.,0.));
#1008=DIRECTION('center_axis',(-1.,0.,0.));
#1009=DIRECTION('ref_axis',(0.,0.,1.));
#1010=DIRECTION('',(-1.,0.,0.));
#1011=DIRECTION('center_axis',(0.,0.,1.));
#1012=DIRECTION('ref_axis',(-0.707106781186547,0.707106781186548,0.));
#1013=DIRECTION('center_axis',(0.,0.,1.));
#1014=DIRECTION('ref_axis',(0.,1.,0.));
#1015=DIRECTION('',(0.,0.,1.));
#1016=DIRECTION('center_axis',(0.,0.,-1.));
#1017=DIRECTION('ref_axis',(-1.,0.,0.));
#1018=DIRECTION('',(0.,0.,-1.));
#1019=DIRECTION('center_axis',(-0.40824829046386,-0.816496580927726,0.408248290463867));
#1020=DIRECTION('ref_axis',(-0.577350269189623,0.577350269189624,0.57735026918963));
#1021=DIRECTION('center_axis',(0.,1.,0.));
#1022=DIRECTION('ref_axis',(-0.707106781186545,0.,0.70710678118655));
#1023=DIRECTION('center_axis',(-1.,0.,0.));
#1024=DIRECTION('ref_axis',(0.,0.707106781186548,-0.707106781186548));
#1025=DIRECTION('',(-1.,0.,0.));
#1026=DIRECTION('center_axis',(1.,0.,0.));
#1027=DIRECTION('ref_axis',(0.,0.,-1.));
#1028=DIRECTION('',(1.,0.,0.));
#1029=DIRECTION('center_axis',(0.408248290463863,-0.408248290463863,-0.816496580927726));
#1030=DIRECTION('ref_axis',(-0.577350269189626,0.577350269189626,-0.577350269189626));
#1031=DIRECTION('center_axis',(0.,1.,0.));
#1032=DIRECTION('ref_axis',(-0.707106781186547,0.,-0.707106781186548));
#1033=DIRECTION('center_axis',(0.,0.,-1.));
#1034=DIRECTION('ref_axis',(0.707106781186549,0.707106781186546,0.));
#1035=DIRECTION('center_axis',(0.,0.,-1.));
#1036=DIRECTION('ref_axis',(0.,1.,0.));
#1037=DIRECTION('',(0.,0.,-1.));
#1038=DIRECTION('center_axis',(0.,0.,1.));
#1039=DIRECTION('ref_axis',(1.,0.,0.));
#1040=DIRECTION('',(0.,0.,1.));
#1041=DIRECTION('center_axis',(0.408248290463863,-0.816496580927726,-0.408248290463863));
#1042=DIRECTION('ref_axis',(0.577350269189626,0.577350269189626,-0.577350269189626));
#1043=DIRECTION('center_axis',(0.,1.,0.));
#1044=DIRECTION('ref_axis',(0.70710678118655,0.,-0.707106781186545));
#1045=DIRECTION('center_axis',(0.408248290463864,-0.816496580927727,0.40824829046386));
#1046=DIRECTION('ref_axis',(0.577350269189627,0.577350269189627,0.577350269189623));
#1047=DIRECTION('center_axis',(0.,1.,0.));
#1048=DIRECTION('ref_axis',(0.707106781186548,0.,0.707106781186548));
#1049=DIRECTION('center_axis',(0.,-1.,0.));
#1050=DIRECTION('ref_axis',(-0.707106781186548,0.,-0.707106781186548));
#1051=DIRECTION('',(0.,-1.,0.));
#1052=DIRECTION('center_axis',(0.,1.,0.));
#1053=DIRECTION('ref_axis',(-0.707106781186548,0.,-0.707106781186548));
#1054=DIRECTION('',(0.,1.,0.));
#1055=DIRECTION('center_axis',(0.,0.,1.));
#1056=DIRECTION('ref_axis',(0.,1.,0.));
#1057=DIRECTION('',(0.,1.,0.));
#1058=DIRECTION('',(1.,0.,0.));
#1059=DIRECTION('',(0.,1.,0.));
#1060=DIRECTION('',(-1.,0.,0.));
#1061=DIRECTION('',(0.,-1.,0.));
#1062=DIRECTION('',(1.,0.,0.));
#1063=DIRECTION('',(0.,-1.,0.));
#1064=DIRECTION('',(-1.,0.,0.));
#1065=DIRECTION('',(0.,-1.,0.));
#1066=DIRECTION('',(1.,0.,0.));
#1067=DIRECTION('center_axis',(0.,-1.,0.));
#1068=DIRECTION('ref_axis',(0.707106781186549,0.,-0.707106781186546));
#1069=DIRECTION('',(0.,-1.,0.));
#1070=DIRECTION('center_axis',(0.,1.,0.));
#1071=DIRECTION('ref_axis',(0.707106781186549,0.,-0.707106781186546));
#1072=DIRECTION('center_axis',(-1.,0.,0.));
#1073=DIRECTION('ref_axis',(0.,1.,0.));
#1074=DIRECTION('',(0.,1.,0.));
#1075=DIRECTION('',(0.,0.,1.));
#1076=DIRECTION('center_axis',(0.,1.,0.));
#1077=DIRECTION('ref_axis',(0.,0.,-1.));
#1078=DIRECTION('center_axis',(0.,-1.,0.));
#1079=DIRECTION('ref_axis',(0.707106781186548,0.,0.707106781186548));
#1080=DIRECTION('',(0.,-1.,0.));
#1081=DIRECTION('center_axis',(0.,1.,0.));
#1082=DIRECTION('ref_axis',(0.707106781186548,0.,0.707106781186548));
#1083=DIRECTION('center_axis',(0.,-1.,0.));
#1084=DIRECTION('ref_axis',(-0.707106781186546,0.,0.707106781186549));
#1085=DIRECTION('',(0.,-1.,0.));
#1086=DIRECTION('center_axis',(0.,1.,0.));
#1087=DIRECTION('ref_axis',(-0.707106781186546,0.,0.707106781186549));
#1088=DIRECTION('',(0.,1.,0.));
#1089=DIRECTION('center_axis',(0.,1.,0.));
#1090=DIRECTION('ref_axis',(0.,0.,-1.));
#1091=DIRECTION('',(-1.,0.,0.));
#1092=DIRECTION('',(0.,0.,-1.));
#1093=DIRECTION('',(0.,0.,-1.));
#1094=DIRECTION('center_axis',(0.,-1.,0.));
#1095=DIRECTION('ref_axis',(-0.926217533782111,0.,-0.376989496026858));
#1096=DIRECTION('',(0.,0.,1.));
#1097=DIRECTION('',(0.,0.,1.));
#1098=DIRECTION('',(0.,0.,-1.));
#1099=DIRECTION('center_axis',(0.,1.,0.));
#1100=DIRECTION('ref_axis',(0.80841422234128,0.,-0.588614003500039));
#1101=DIRECTION('center_axis',(1.,0.,0.));
#1102=DIRECTION('ref_axis',(0.,-1.,0.));
#1103=DIRECTION('center_axis',(1.,0.,0.));
#1104=DIRECTION('ref_axis',(0.,0.,1.));
#1105=DIRECTION('',(0.,0.,1.));
#1106=DIRECTION('',(0.,-1.,0.));
#1107=DIRECTION('center_axis',(0.,-1.,0.));
#1108=DIRECTION('ref_axis',(0.80841422234128,0.,-0.588614003500039));
#1109=DIRECTION('center_axis',(0.,-1.,0.));
#1110=DIRECTION('ref_axis',(0.80841422234128,0.,-0.588614003500039));
#1111=DIRECTION('',(0.,-1.,0.));
#1112=DIRECTION('center_axis',(-1.,0.,0.));
#1113=DIRECTION('ref_axis',(0.,0.,-1.));
#1114=DIRECTION('',(0.,0.,-1.));
#1115=DIRECTION('center_axis',(1.,0.,0.));
#1116=DIRECTION('ref_axis',(0.,0.,-1.));
#1117=DIRECTION('',(0.,1.,0.));
#1118=DIRECTION('',(0.,0.,-1.));
#1119=DIRECTION('center_axis',(-1.,0.,0.));
#1120=DIRECTION('ref_axis',(0.,0.,1.));
#1121=DIRECTION('',(0.,0.,1.));
#1122=DIRECTION('',(0.,1.,0.));
#1123=DIRECTION('center_axis',(0.,1.,0.));
#1124=DIRECTION('ref_axis',(-0.926217533782111,0.,-0.376989496026858));
#1125=DIRECTION('center_axis',(0.,1.,0.));
#1126=DIRECTION('ref_axis',(-0.926217533782111,0.,-0.376989496026858));
#1127=DIRECTION('center_axis',(0.,-1.,0.));
#1128=DIRECTION('ref_axis',(1.,0.,0.));
#1129=DIRECTION('center_axis',(0.,0.,-1.));
#1130=DIRECTION('ref_axis',(0.,-1.,0.));
#1131=DIRECTION('',(0.,0.,1.));
#1132=DIRECTION('',(1.,0.,0.));
#1133=CARTESIAN_POINT('',(0.,0.,0.));
#1134=CARTESIAN_POINT('',(0.,0.,0.));
#1135=CARTESIAN_POINT('Origin',(30.1996756557585,21.,-15.9733023134958));
#1136=CARTESIAN_POINT('',(30.1996756557585,21.,-15.9733023134958));
#1137=CARTESIAN_POINT('',(30.1996756557585,21.,-15.6907447054195));
#1138=CARTESIAN_POINT('',(30.1996756557585,21.,-13.5508497916276));
#1139=CARTESIAN_POINT('',(30.1996756557585,20.5,-15.9733023134958));
#1140=CARTESIAN_POINT('',(30.1996756557585,21.,-15.9733023134958));
#1141=CARTESIAN_POINT('',(30.1996756557585,20.5,-15.6907447054195));
#1142=CARTESIAN_POINT('',(30.1996756557585,20.5,-15.6907447054195));
#1143=CARTESIAN_POINT('',(30.1996756557585,21.,-15.6907447054195));
#1144=CARTESIAN_POINT('Origin',(31.0491047163833,21.,-11.1283972697595));
#1145=CARTESIAN_POINT('',(31.898533777008,21.,-15.9733023134958));
#1146=CARTESIAN_POINT('Origin',(31.0491047163833,21.,-11.1283972697595));
#1147=CARTESIAN_POINT('',(31.898533777008,20.5,-15.9733023134958));
#1148=CARTESIAN_POINT('',(31.898533777008,21.,-15.9733023134958));
#1149=CARTESIAN_POINT('Origin',(31.0491047163833,20.5,-11.1283972697595));
#1150=CARTESIAN_POINT('Origin',(31.898533777008,21.,-15.6907447054195));
#1151=CARTESIAN_POINT('',(31.898533777008,21.,-15.6907447054195));
#1152=CARTESIAN_POINT('',(31.898533777008,21.,-13.4095709875895));
#1153=CARTESIAN_POINT('',(31.898533777008,20.5,-15.6907447054195));
#1154=CARTESIAN_POINT('',(31.898533777008,21.,-15.6907447054195));
#1155=CARTESIAN_POINT('',(31.898533777008,20.5,-15.6907447054195));
#1156=CARTESIAN_POINT('Origin',(31.0491047163833,21.,-11.1283972697595));
#1157=CARTESIAN_POINT('Origin',(31.0491047163833,21.,-11.1283972697595));
#1158=CARTESIAN_POINT('Origin',(31.0491047163833,20.5,-11.1283972697595));
#1159=CARTESIAN_POINT('Origin',(31.0491047163833,20.5,-11.0914476990523));
#1160=CARTESIAN_POINT('Origin',(30.6514086193582,21.,-13.426722149087));
#1161=CARTESIAN_POINT('',(30.6514086193582,21.,-13.426722149087));
#1162=CARTESIAN_POINT('',(30.6514086193582,21.,-16.875160889828));
#1163=CARTESIAN_POINT('',(30.6514086193582,21.,-12.2775597094233));
#1164=CARTESIAN_POINT('',(30.6514086193582,20.5,-13.426722149087));
#1165=CARTESIAN_POINT('',(30.6514086193582,21.,-13.426722149087));
#1166=CARTESIAN_POINT('',(30.6514086193582,20.5,-16.875160889828));
#1167=CARTESIAN_POINT('',(30.6514086193582,20.5,-16.875160889828));
#1168=CARTESIAN_POINT('',(30.6514086193582,21.,-16.875160889828));
#1169=CARTESIAN_POINT('Origin',(31.0491047163833,21.,-13.426722149087));
#1170=CARTESIAN_POINT('',(31.4468008134083,21.,-13.426722149087));
#1171=CARTESIAN_POINT('Origin',(31.0491047163833,21.,-13.426722149087));
#1172=CARTESIAN_POINT('',(31.4468008134083,20.5,-13.426722149087));
#1173=CARTESIAN_POINT('',(31.4468008134083,21.,-13.426722149087));
#1174=CARTESIAN_POINT('Origin',(31.0491047163833,20.5,-13.426722149087));
#1175=CARTESIAN_POINT('Origin',(31.4468008134083,21.,-16.875160889828));
#1176=CARTESIAN_POINT('',(31.4468008134083,21.,-16.875160889828));
#1177=CARTESIAN_POINT('',(31.4468008134083,21.,-14.0017790797937));
#1178=CARTESIAN_POINT('',(31.4468008134083,20.5,-16.875160889828));
#1179=CARTESIAN_POINT('',(31.4468008134083,21.,-16.875160889828));
#1180=CARTESIAN_POINT('',(31.4468008134083,20.5,-13.426722149087));
#1181=CARTESIAN_POINT('Origin',(31.0491047163833,21.,-16.875160889828));
#1182=CARTESIAN_POINT('Origin',(31.0491047163833,21.,-16.875160889828));
#1183=CARTESIAN_POINT('Origin',(31.0491047163833,20.5,-16.875160889828));
#1184=CARTESIAN_POINT('Origin',(31.0491047163833,20.5,-15.1509415194575));
#1185=CARTESIAN_POINT('Origin',(31.0491047163833,22.,-11.1283972697595));
#1186=CARTESIAN_POINT('',(42.0491047163833,22.,-11.1283972697595));
#1187=CARTESIAN_POINT('Origin',(31.0491047163833,22.,-11.1283972697595));
#1188=CARTESIAN_POINT('',(42.0491047163833,21.,-11.1283972697595));
#1189=CARTESIAN_POINT('',(42.0491047163833,22.,-11.1283972697595));
#1190=CARTESIAN_POINT('Origin',(31.0491047163833,21.,-11.1283972697595));
#1191=CARTESIAN_POINT('Origin',(31.0491047163833,21.,-11.1283972697595));
#1192=CARTESIAN_POINT('Origin',(39.0000005811453,20.,-25.));
#1193=CARTESIAN_POINT('',(39.0000005811453,20.,-22.));
#1194=CARTESIAN_POINT('',(39.0000005811453,22.,-22.7639320225002));
#1195=CARTESIAN_POINT('Origin',(39.0000005811453,20.,-25.));
#1196=CARTESIAN_POINT('',(39.0000005811453,22.,-23.));
#1197=CARTESIAN_POINT('',(39.0000005811453,22.,0.750000000000002));
#1198=CARTESIAN_POINT('',(39.0000005811453,20.,-25.));
#1199=CARTESIAN_POINT('Origin',(39.0000005811453,20.,-23.));
#1200=CARTESIAN_POINT('',(39.0000005811453,17.,-25.));
#1201=CARTESIAN_POINT('',(39.0000005811453,15.5,-25.));
#1202=CARTESIAN_POINT('Origin',(39.0000005811453,20.,-25.));
#1203=CARTESIAN_POINT('Origin',(39.0000005811453,20.,-25.));
#1204=CARTESIAN_POINT('',(38.3721544653165,17.,-25.));
#1205=CARTESIAN_POINT('Ctrl Pts',(39.0000005811453,20.,-22.));
#1206=CARTESIAN_POINT('Ctrl Pts',(39.0000005811453,19.6188049124557,-22.));
#1207=CARTESIAN_POINT('Ctrl Pts',(38.9680731520228,19.2150337025347,-22.0770513887873));
#1208=CARTESIAN_POINT('Ctrl Pts',(38.8528623809778,18.4770453456395,-22.3845823466791));
#1209=CARTESIAN_POINT('Ctrl Pts',(38.7709629030489,18.1425200656197,-22.614839247261));
#1210=CARTESIAN_POINT('Ctrl Pts',(38.614855199739,17.6145691532442,-23.1427901596365));
#1211=CARTESIAN_POINT('Ctrl Pts',(38.5298668544655,17.3845170342912,-23.4772132994564));
#1212=CARTESIAN_POINT('Ctrl Pts',(38.4073948066449,17.0771428986745,-24.2148028830329));
#1213=CARTESIAN_POINT('Ctrl Pts',(38.3721544653165,17.,-24.6184146821923));
#1214=CARTESIAN_POINT('Ctrl Pts',(38.3721544653165,17.,-25.));
#1215=CARTESIAN_POINT('',(39.0000005811453,17.,-25.));
#1216=CARTESIAN_POINT('Origin',(39.0000005811453,20.,-25.));
#1217=CARTESIAN_POINT('',(24.0374317154286,20.,-22.));
#1218=CARTESIAN_POINT('',(39.0000005811453,20.,-22.));
#1219=CARTESIAN_POINT('',(24.0374317154286,22.,-22.7639320225002));
#1220=CARTESIAN_POINT('Origin',(24.0374317154286,20.,-25.));
#1221=CARTESIAN_POINT('',(39.0000005811453,22.,-22.7639320225002));
#1222=CARTESIAN_POINT('Origin',(39.0000005811453,20.,-25.));
#1223=CARTESIAN_POINT('',(24.0374317154286,17.,-25.));
#1224=CARTESIAN_POINT('',(24.6652778312574,17.,-25.));
#1225=CARTESIAN_POINT('',(39.0000005811453,17.,-25.));
#1226=CARTESIAN_POINT('Origin',(24.0374317154286,20.,-25.));
#1227=CARTESIAN_POINT('Ctrl Pts',(24.6652778312574,17.,-25.));
#1228=CARTESIAN_POINT('Ctrl Pts',(24.6652778312574,17.,-24.6184146821923));
#1229=CARTESIAN_POINT('Ctrl Pts',(24.6300374899291,17.0771428986745,-24.2148028830329));
#1230=CARTESIAN_POINT('Ctrl Pts',(24.5075654421084,17.3845170342912,-23.4772132994564));
#1231=CARTESIAN_POINT('Ctrl Pts',(24.422577096835,17.6145691532442,-23.1427901596365));
#1232=CARTESIAN_POINT('Ctrl Pts',(24.266469393525,18.1425200656197,-22.614839247261));
#1233=CARTESIAN_POINT('Ctrl Pts',(24.1845699155961,18.4770453456395,-22.3845823466791));
#1234=CARTESIAN_POINT('Ctrl Pts',(24.0693591445511,19.2150337025347,-22.0770513887873));
#1235=CARTESIAN_POINT('Ctrl Pts',(24.0374317154286,19.6188049124557,-22.));
#1236=CARTESIAN_POINT('Ctrl Pts',(24.0374317154286,20.,-22.));
#1237=CARTESIAN_POINT('Origin',(24.0374317154286,20.,-25.));
#1238=CARTESIAN_POINT('',(24.0374317154286,20.,-25.));
#1239=CARTESIAN_POINT('',(24.0374317154286,15.5,-25.));
#1240=CARTESIAN_POINT('',(24.0374317154286,22.,-23.));
#1241=CARTESIAN_POINT('Origin',(24.0374317154286,20.,-23.));
#1242=CARTESIAN_POINT('',(24.0374317154286,22.,0.750000000000002));
#1243=CARTESIAN_POINT('Origin',(31.518716148287,20.,-25.));
#1244=CARTESIAN_POINT('',(24.0374317154286,20.,-18.));
#1245=CARTESIAN_POINT('',(24.0374317154286,20.,-25.));
#1246=CARTESIAN_POINT('',(39.0000005811453,20.,-18.));
#1247=CARTESIAN_POINT('Origin',(31.518716148287,20.,-18.));
#1248=CARTESIAN_POINT('',(39.0000005811453,20.,-25.));
#1249=CARTESIAN_POINT('Origin',(31.518716148287,20.,-25.));
#1250=CARTESIAN_POINT('Origin',(39.0000005811453,20.,-25.));
#1251=CARTESIAN_POINT('',(2.,20.,-18.));
#1252=CARTESIAN_POINT('Origin',(32.,20.,-23.));
#1253=CARTESIAN_POINT('',(62.,22.,-23.));
#1254=CARTESIAN_POINT('',(32.,22.,-23.));
#1255=CARTESIAN_POINT('',(62.,20.,-25.));
#1256=CARTESIAN_POINT('Origin',(62.,20.,-23.));
#1257=CARTESIAN_POINT('',(32.,20.,-25.));
#1258=CARTESIAN_POINT('Origin',(31.518716148287,16.2593577835708,-18.));
#1259=CARTESIAN_POINT('Origin',(32.,20.,76.));
#1260=CARTESIAN_POINT('',(2.,22.,76.));
#1261=CARTESIAN_POINT('',(2.,20.,78.));
#1262=CARTESIAN_POINT('Origin',(2.,20.,76.));
#1263=CARTESIAN_POINT('',(62.,20.,78.));
#1264=CARTESIAN_POINT('',(32.,20.,78.));
#1265=CARTESIAN_POINT('',(62.,22.,76.));
#1266=CARTESIAN_POINT('Origin',(62.,20.,76.));
#1267=CARTESIAN_POINT('',(32.,22.,76.));
#1268=CARTESIAN_POINT('Origin',(2.,20.,26.5));
#1269=CARTESIAN_POINT('',(2.,22.,-23.));
#1270=CARTESIAN_POINT('',(0.,20.,-23.));
#1271=CARTESIAN_POINT('Origin',(2.,20.,-23.));
#1272=CARTESIAN_POINT('',(0.,20.,76.));
#1273=CARTESIAN_POINT('',(0.,20.,26.5));
#1274=CARTESIAN_POINT('Origin',(2.,20.,76.));
#1275=CARTESIAN_POINT('',(2.,22.,26.5));
#1276=CARTESIAN_POINT('Origin',(2.,20.,76.));
#1277=CARTESIAN_POINT('Origin',(2.,20.,76.));
#1278=CARTESIAN_POINT('Origin',(32.,20.,-23.));
#1279=CARTESIAN_POINT('',(2.,20.,-25.));
#1280=CARTESIAN_POINT('',(32.,20.,-25.));
#1281=CARTESIAN_POINT('Origin',(2.,20.,-23.));
#1282=CARTESIAN_POINT('',(32.,22.,-23.));
#1283=CARTESIAN_POINT('Origin',(2.,20.,-23.));
#1284=CARTESIAN_POINT('Origin',(2.,20.,-23.));
#1285=CARTESIAN_POINT('Origin',(62.,20.,26.5));
#1286=CARTESIAN_POINT('',(64.,20.,76.));
#1287=CARTESIAN_POINT('Origin',(62.,20.,76.));
#1288=CARTESIAN_POINT('',(64.,20.,-23.));
#1289=CARTESIAN_POINT('',(64.,20.,26.5));
#1290=CARTESIAN_POINT('Origin',(62.,20.,-23.));
#1291=CARTESIAN_POINT('',(62.,22.,26.5));
#1292=CARTESIAN_POINT('Origin',(62.,20.,-23.));
#1293=CARTESIAN_POINT('Origin',(62.,20.,-23.));
#1294=CARTESIAN_POINT('Origin',(62.,20.,76.));
#1295=CARTESIAN_POINT('Origin',(62.,20.,76.));
#1296=CARTESIAN_POINT('Origin',(2.,11.,-23.));
#1297=CARTESIAN_POINT('',(2.,0.,-25.));
#1298=CARTESIAN_POINT('',(2.,11.,-25.));
#1299=CARTESIAN_POINT('',(0.,0.,-23.));
#1300=CARTESIAN_POINT('Origin',(2.,0.,-23.));
#1301=CARTESIAN_POINT('',(0.,11.,-23.));
#1302=CARTESIAN_POINT('Origin',(32.,11.,-25.));
#1303=CARTESIAN_POINT('',(62.,0.,-25.));
#1304=CARTESIAN_POINT('',(62.,11.,-25.));
#1305=CARTESIAN_POINT('',(39.0000005215406,0.,-25.));
#1306=CARTESIAN_POINT('',(32.,0.,-25.));
#1307=CARTESIAN_POINT('',(39.0000005215406,3.,-25.));
#1308=CARTESIAN_POINT('',(39.0000005215406,5.5,-25.));
#1309=CARTESIAN_POINT('',(35.5000005215406,3.,-25.));
#1310=CARTESIAN_POINT('',(31.750000204891,3.,-25.));
#1311=CARTESIAN_POINT('',(35.5000005215406,0.,-25.));
#1312=CARTESIAN_POINT('',(35.5000005215406,3.,-25.));
#1313=CARTESIAN_POINT('',(27.5000004023314,0.,-25.));
#1314=CARTESIAN_POINT('',(33.7500002607703,0.,-25.));
#1315=CARTESIAN_POINT('',(27.5000004023314,3.,-25.));
#1316=CARTESIAN_POINT('',(27.5000004023314,3.,-25.));
#1317=CARTESIAN_POINT('',(24.0000002980232,3.,-25.));
#1318=CARTESIAN_POINT('',(31.750000204891,3.,-25.));
#1319=CARTESIAN_POINT('',(24.0000002980232,0.,-25.));
#1320=CARTESIAN_POINT('',(24.0000002980232,5.5,-25.));
#1321=CARTESIAN_POINT('',(32.,0.,-25.));
#1322=CARTESIAN_POINT('Origin',(62.,11.,-23.));
#1323=CARTESIAN_POINT('',(64.,0.,-23.));
#1324=CARTESIAN_POINT('',(64.,11.,-23.));
#1325=CARTESIAN_POINT('Origin',(62.,0.,-23.));
#1326=CARTESIAN_POINT('Origin',(64.,11.,26.5));
#1327=CARTESIAN_POINT('',(64.,0.,76.));
#1328=CARTESIAN_POINT('',(64.,11.,76.));
#1329=CARTESIAN_POINT('',(64.,0.,26.5));
#1330=CARTESIAN_POINT('Origin',(32.,22.,26.5));
#1331=CARTESIAN_POINT('Origin',(62.,11.,76.));
#1332=CARTESIAN_POINT('',(62.,0.,78.));
#1333=CARTESIAN_POINT('',(62.,11.,78.));
#1334=CARTESIAN_POINT('Origin',(62.,0.,76.));
#1335=CARTESIAN_POINT('Origin',(2.,11.,76.));
#1336=CARTESIAN_POINT('',(0.,0.,76.));
#1337=CARTESIAN_POINT('',(0.,11.,76.));
#1338=CARTESIAN_POINT('',(2.,0.,78.));
#1339=CARTESIAN_POINT('Origin',(2.,0.,76.));
#1340=CARTESIAN_POINT('',(2.,11.,78.));
#1341=CARTESIAN_POINT('Origin',(32.,0.,26.5));
#1342=CARTESIAN_POINT('',(32.,0.,78.));
#1343=CARTESIAN_POINT('',(0.,0.,26.5));
#1344=CARTESIAN_POINT('',(24.0000002980232,0.,-30.0000004470348));
#1345=CARTESIAN_POINT('',(24.0000002980232,0.,-25.));
#1346=CARTESIAN_POINT('',(39.0000005215406,0.,-30.0000004470348));
#1347=CARTESIAN_POINT('Origin',(31.5000004097819,0.,-26.9473468756996));
#1348=CARTESIAN_POINT('',(39.0000005215406,0.,-30.0000004470348));
#1349=CARTESIAN_POINT('',(27.5000004023314,0.,-29.000000461936));
#1350=CARTESIAN_POINT('',(27.5000004023314,0.,0.750000000000002));
#1351=CARTESIAN_POINT('',(35.5000005215406,0.,-29.000000461936));
#1352=CARTESIAN_POINT('',(35.5000005215406,0.,-1.250000230968));
#1353=CARTESIAN_POINT('Origin',(31.500000461936,0.,-26.0875627734136));
#1354=CARTESIAN_POINT('Origin',(0.,11.,26.5));
#1355=CARTESIAN_POINT('Origin',(35.5000005215406,3.,-29.000000461936));
#1356=CARTESIAN_POINT('',(35.5000005215406,3.,-29.000000461936));
#1357=CARTESIAN_POINT('',(35.5000005215406,3.,-29.5111994344631));
#1358=CARTESIAN_POINT('',(35.5000005215406,3.,-29.000000461936));
#1359=CARTESIAN_POINT('Origin',(31.500000461936,3.,-26.0875627734136));
#1360=CARTESIAN_POINT('',(27.5000004023314,3.,-29.000000461936));
#1361=CARTESIAN_POINT('Origin',(31.500000461936,3.,-26.0875627734136));
#1362=CARTESIAN_POINT('',(27.5000004023314,3.,-29.000000461936));
#1363=CARTESIAN_POINT('Origin',(27.5000004023314,3.,-25.));
#1364=CARTESIAN_POINT('',(27.5000004023314,3.,-27.5111992034951));
#1365=CARTESIAN_POINT('Origin',(39.0000005215406,0.,-25.));
#1366=CARTESIAN_POINT('',(39.0000005215406,3.,-30.0000004470348));
#1367=CARTESIAN_POINT('',(39.0000005215406,0.,-30.0000004470348));
#1368=CARTESIAN_POINT('',(39.0000005215406,3.,-30.0000004470348));
#1369=CARTESIAN_POINT('Origin',(24.0000002980232,0.,-30.0000004470348));
#1370=CARTESIAN_POINT('',(24.0000002980232,3.,-30.0000004470348));
#1371=CARTESIAN_POINT('',(24.0000002980232,3.,-25.));
#1372=CARTESIAN_POINT('',(24.0000002980232,0.,-30.0000004470348));
#1373=CARTESIAN_POINT('Origin',(31.5000004097819,0.,-26.9473468756996));
#1374=CARTESIAN_POINT('Origin',(31.5000004097819,3.,-26.9473468756996));
#1375=CARTESIAN_POINT('Origin',(31.5000004097819,3.,-30.0223984069903));
#1376=CARTESIAN_POINT('Origin',(32.,11.,78.));
#1377=CARTESIAN_POINT('',(0.,0.,0.));
#1378=UNCERTAINTY_MEASURE_WITH_UNIT(LENGTH_MEASURE(0.01),#1384,
'DISTANCE_ACCURACY_VALUE',
'Maximum model space distance between geometric entities at asserted c
onnectivities');
#1379=UNCERTAINTY_MEASURE_WITH_UNIT(LENGTH_MEASURE(0.01),#1384,
'DISTANCE_ACCURACY_VALUE',
'Maximum model space distance between geometric entities at asserted c
onnectivities');
#1380=UNCERTAINTY_MEASURE_WITH_UNIT(LENGTH_MEASURE(0.01),#1384,
'DISTANCE_ACCURACY_VALUE',
'Maximum model space distance between geometric entities at asserted c
onnectivities');
#1381=(
GEOMETRIC_REPRESENTATION_CONTEXT(3)
GLOBAL_UNCERTAINTY_ASSIGNED_CONTEXT((#1378))
GLOBAL_UNIT_ASSIGNED_CONTEXT((#1384,#1386,#1387))
REPRESENTATION_CONTEXT('','3D')
);
#1382=(
GEOMETRIC_REPRESENTATION_CONTEXT(3)
GLOBAL_UNCERTAINTY_ASSIGNED_CONTEXT((#1379))
GLOBAL_UNIT_ASSIGNED_CONTEXT((#1384,#1386,#1387))
REPRESENTATION_CONTEXT('','3D')
);
#1383=(
GEOMETRIC_REPRESENTATION_CONTEXT(3)
GLOBAL_UNCERTAINTY_ASSIGNED_CONTEXT((#1380))
GLOBAL_UNIT_ASSIGNED_CONTEXT((#1384,#1386,#1387))
REPRESENTATION_CONTEXT('','3D')
);
#1384=(
LENGTH_UNIT()
NAMED_UNIT(*)
SI_UNIT(.MILLI.,.METRE.)
);
#1385=(
LENGTH_UNIT()
NAMED_UNIT(*)
SI_UNIT($,.METRE.)
);
#1386=(
NAMED_UNIT(*)
PLANE_ANGLE_UNIT()
SI_UNIT($,.RADIAN.)
);
#1387=(
NAMED_UNIT(*)
SI_UNIT($,.STERADIAN.)
SOLID_ANGLE_UNIT()
);
#1388=SHAPE_DEFINITION_REPRESENTATION(#1390,#1393);
#1389=SHAPE_DEFINITION_REPRESENTATION(#1391,#1394);
#1390=PRODUCT_DEFINITION_SHAPE('',$,#1396);
#1391=PRODUCT_DEFINITION_SHAPE('',$,#1397);
#1392=PRODUCT_DEFINITION_SHAPE($,$,#14);
#1393=SHAPE_REPRESENTATION('',(#802,#888),#1381);
#1394=SHAPE_REPRESENTATION('',(#803),#1382);
#1395=PRODUCT_DEFINITION_CONTEXT('part definition',#1403,'design');
#1396=PRODUCT_DEFINITION('LED Light Battery Pack',
'LED Light Battery Pack v6',#1398,#1395);
#1397=PRODUCT_DEFINITION('Component1','Component1',#1399,#1395);
#1398=PRODUCT_DEFINITION_FORMATION('',$,#1405);
#1399=PRODUCT_DEFINITION_FORMATION('',$,#1406);
#1400=PRODUCT_RELATED_PRODUCT_CATEGORY('LED Light Battery Pack v6',
'LED Light Battery Pack v6',(#1405));
#1401=PRODUCT_RELATED_PRODUCT_CATEGORY('Component1','Component1',(#1406));
#1402=APPLICATION_PROTOCOL_DEFINITION('international standard',
'automotive_design',2009,#1403);
#1403=APPLICATION_CONTEXT(
'Core Data for Automotive Mechanical Design Process');
#1404=PRODUCT_CONTEXT('part definition',#1403,'mechanical');
#1405=PRODUCT('LED Light Battery Pack','LED Light Battery Pack v6',$,(#1404));
#1406=PRODUCT('Component1','Component1',$,(#1404));
#1407=PRESENTATION_STYLE_ASSIGNMENT((#1409));
#1408=PRESENTATION_STYLE_ASSIGNMENT((#1410));
#1409=SURFACE_STYLE_USAGE(.BOTH.,#1411);
#1410=SURFACE_STYLE_USAGE(.BOTH.,#1412);
#1411=SURFACE_SIDE_STYLE('',(#1413));
#1412=SURFACE_SIDE_STYLE('',(#1414));
#1413=SURFACE_STYLE_FILL_AREA(#1415);
#1414=SURFACE_STYLE_FILL_AREA(#1416);
#1415=FILL_AREA_STYLE('Steel - Satin',(#1417));
#1416=FILL_AREA_STYLE('ABS (White)',(#1418));
#1417=FILL_AREA_STYLE_COLOUR('Steel - Satin',#1419);
#1418=FILL_AREA_STYLE_COLOUR('ABS (White)',#1420);
#1419=COLOUR_RGB('Steel - Satin',0.627450980392157,0.627450980392157,0.627450980392157);
#1420=COLOUR_RGB('ABS (White)',0.964705882352941,0.964705882352941,0.952941176470588);
ENDSEC;
END-ISO-10303-21;
