ISO-10303-21;
HEADER;
/* Generated by software containing ST-Developer
 * from STEP Tools, Inc. (www.steptools.com) 
 */

FILE_DESCRIPTION(
/* description */ (''),
/* implementation_level */ '2;1');

FILE_NAME(
/* name */ 'LED Light Holder Side.step',
/* time_stamp */ '2026-03-25T02:14:16-04:00',
/* author */ (''),
/* organization */ (''),
/* preprocessor_version */ 'ST-DEVELOPER v20.1',
/* originating_system */ 'Autodesk Translation Framework v14.24.0.0',
/* authorisation */ '');

FILE_SCHEMA (('AUTOMOTIVE_DESIGN { 1 0 10303 214 3 1 1 }'));
ENDSEC;

DATA;
#10=MECHANICAL_DESIGN_GEOMETRIC_PRESENTATION_REPRESENTATION('',(#17),#663);
#11=ITEM_DEFINED_TRANSFORMATION($,$,#403,#440);
#12=(
REPRESENTATION_RELATIONSHIP($,$,#674,#673)
REPRESENTATION_RELATIONSHIP_WITH_TRANSFORMATION(#11)
SHAPE_REPRESENTATION_RELATIONSHIP()
);
#13=CONTEXT_DEPENDENT_SHAPE_REPRESENTATION(#12,#672);
#14=NEXT_ASSEMBLY_USAGE_OCCURRENCE('Component1:1','Component1:1',
'Component1:1',#676,#677,'Component1:1');
#15=SHAPE_REPRESENTATION_RELATIONSHIP('SRR','None',#674,#16);
#16=ADVANCED_BREP_SHAPE_REPRESENTATION('',(#18),#662);
#17=STYLED_ITEM('',(#688),#18);
#18=MANIFOLD_SOLID_BREP('Body1',#389);
#19=CONICAL_SURFACE('',#427,2.721,0.715584993317675);
#20=CONICAL_SURFACE('',#430,2.721,0.715584993317675);
#21=CONICAL_SURFACE('',#433,2.721,0.715584993317675);
#22=CONICAL_SURFACE('',#436,2.721,0.715584993317675);
#23=CYLINDRICAL_SURFACE('',#411,1.425);
#24=CYLINDRICAL_SURFACE('',#414,1.425);
#25=CYLINDRICAL_SURFACE('',#429,1.8985);
#26=CYLINDRICAL_SURFACE('',#432,1.8985);
#27=CYLINDRICAL_SURFACE('',#435,1.8985);
#28=CYLINDRICAL_SURFACE('',#438,1.8985);
#29=FACE_BOUND('',#80,.T.);
#30=FACE_BOUND('',#81,.T.);
#31=FACE_BOUND('',#82,.T.);
#32=FACE_BOUND('',#83,.T.);
#33=FACE_BOUND('',#87,.T.);
#34=FACE_BOUND('',#88,.T.);
#35=FACE_BOUND('',#91,.T.);
#36=FACE_BOUND('',#92,.T.);
#37=FACE_BOUND('',#96,.T.);
#38=FACE_BOUND('',#97,.T.);
#39=FACE_BOUND('',#98,.T.);
#40=FACE_BOUND('',#99,.T.);
#41=CIRCLE('',#407,1.8985);
#42=CIRCLE('',#408,1.8985);
#43=CIRCLE('',#409,1.8985);
#44=CIRCLE('',#410,1.8985);
#45=CIRCLE('',#412,1.425);
#46=CIRCLE('',#413,1.425);
#47=CIRCLE('',#415,1.425);
#48=CIRCLE('',#416,1.425);
#49=CIRCLE('',#423,3.5435);
#50=CIRCLE('',#424,3.5435);
#51=CIRCLE('',#425,3.5435);
#52=CIRCLE('',#426,3.5435);
#53=CIRCLE('',#428,1.8985);
#54=CIRCLE('',#431,1.8985);
#55=CIRCLE('',#434,1.8985);
#56=CIRCLE('',#437,1.8985);
#57=FACE_OUTER_BOUND('',#77,.T.);
#58=FACE_OUTER_BOUND('',#78,.T.);
#59=FACE_OUTER_BOUND('',#79,.T.);
#60=FACE_OUTER_BOUND('',#84,.T.);
#61=FACE_OUTER_BOUND('',#85,.T.);
#62=FACE_OUTER_BOUND('',#86,.T.);
#63=FACE_OUTER_BOUND('',#89,.T.);
#64=FACE_OUTER_BOUND('',#90,.T.);
#65=FACE_OUTER_BOUND('',#93,.T.);
#66=FACE_OUTER_BOUND('',#94,.T.);
#67=FACE_OUTER_BOUND('',#95,.T.);
#68=FACE_OUTER_BOUND('',#100,.T.);
#69=FACE_OUTER_BOUND('',#101,.T.);
#70=FACE_OUTER_BOUND('',#102,.T.);
#71=FACE_OUTER_BOUND('',#103,.T.);
#72=FACE_OUTER_BOUND('',#104,.T.);
#73=FACE_OUTER_BOUND('',#105,.T.);
#74=FACE_OUTER_BOUND('',#106,.T.);
#75=FACE_OUTER_BOUND('',#107,.T.);
#76=FACE_OUTER_BOUND('',#108,.T.);
#77=EDGE_LOOP('',(#259,#260,#261,#262));
#78=EDGE_LOOP('',(#263,#264,#265,#266,#267,#268,#269,#270));
#79=EDGE_LOOP('',(#271,#272,#273,#274));
#80=EDGE_LOOP('',(#275));
#81=EDGE_LOOP('',(#276));
#82=EDGE_LOOP('',(#277));
#83=EDGE_LOOP('',(#278));
#84=EDGE_LOOP('',(#279,#280,#281,#282));
#85=EDGE_LOOP('',(#283,#284,#285,#286));
#86=EDGE_LOOP('',(#287,#288,#289,#290));
#87=EDGE_LOOP('',(#291));
#88=EDGE_LOOP('',(#292));
#89=EDGE_LOOP('',(#293,#294,#295,#296));
#90=EDGE_LOOP('',(#297,#298,#299,#300));
#91=EDGE_LOOP('',(#301));
#92=EDGE_LOOP('',(#302));
#93=EDGE_LOOP('',(#303,#304,#305,#306));
#94=EDGE_LOOP('',(#307,#308,#309,#310));
#95=EDGE_LOOP('',(#311,#312,#313,#314));
#96=EDGE_LOOP('',(#315));
#97=EDGE_LOOP('',(#316));
#98=EDGE_LOOP('',(#317));
#99=EDGE_LOOP('',(#318));
#100=EDGE_LOOP('',(#319,#320,#321,#322));
#101=EDGE_LOOP('',(#323,#324,#325,#326));
#102=EDGE_LOOP('',(#327,#328,#329,#330));
#103=EDGE_LOOP('',(#331,#332,#333,#334));
#104=EDGE_LOOP('',(#335,#336,#337,#338));
#105=EDGE_LOOP('',(#339,#340,#341,#342));
#106=EDGE_LOOP('',(#343,#344,#345,#346));
#107=EDGE_LOOP('',(#347,#348,#349,#350));
#108=EDGE_LOOP('',(#351,#352,#353,#354,#355,#356,#357,#358));
#109=LINE('',#558,#143);
#110=LINE('',#560,#144);
#111=LINE('',#562,#145);
#112=LINE('',#563,#146);
#113=LINE('',#566,#147);
#114=LINE('',#568,#148);
#115=LINE('',#570,#149);
#116=LINE('',#572,#150);
#117=LINE('',#574,#151);
#118=LINE('',#576,#152);
#119=LINE('',#577,#153);
#120=LINE('',#580,#154);
#121=LINE('',#581,#155);
#122=LINE('',#594,#156);
#123=LINE('',#600,#157);
#124=LINE('',#604,#158);
#125=LINE('',#606,#159);
#126=LINE('',#607,#160);
#127=LINE('',#610,#161);
#128=LINE('',#611,#162);
#129=LINE('',#614,#163);
#130=LINE('',#615,#164);
#131=LINE('',#617,#165);
#132=LINE('',#620,#166);
#133=LINE('',#621,#167);
#134=LINE('',#623,#168);
#135=LINE('',#634,#169);
#136=LINE('',#637,#170);
#137=LINE('',#640,#171);
#138=LINE('',#643,#172);
#139=LINE('',#646,#173);
#140=LINE('',#649,#174);
#141=LINE('',#652,#175);
#142=LINE('',#655,#176);
#143=VECTOR('',#447,10.);
#144=VECTOR('',#448,10.);
#145=VECTOR('',#449,10.);
#146=VECTOR('',#450,10.);
#147=VECTOR('',#453,10.);
#148=VECTOR('',#454,10.);
#149=VECTOR('',#455,10.);
#150=VECTOR('',#456,10.);
#151=VECTOR('',#457,10.);
#152=VECTOR('',#458,10.);
#153=VECTOR('',#459,10.);
#154=VECTOR('',#462,10.);
#155=VECTOR('',#463,10.);
#156=VECTOR('',#476,1.425);
#157=VECTOR('',#483,1.425);
#158=VECTOR('',#488,10.);
#159=VECTOR('',#489,10.);
#160=VECTOR('',#490,10.);
#161=VECTOR('',#493,10.);
#162=VECTOR('',#494,10.);
#163=VECTOR('',#497,10.);
#164=VECTOR('',#498,10.);
#165=VECTOR('',#501,10.);
#166=VECTOR('',#504,10.);
#167=VECTOR('',#505,10.);
#168=VECTOR('',#508,10.);
#169=VECTOR('',#519,2.721);
#170=VECTOR('',#524,1.8985);
#171=VECTOR('',#527,2.721);
#172=VECTOR('',#532,1.8985);
#173=VECTOR('',#535,2.721);
#174=VECTOR('',#540,1.8985);
#175=VECTOR('',#543,2.721);
#176=VECTOR('',#548,1.8985);
#177=VERTEX_POINT('',#556);
#178=VERTEX_POINT('',#557);
#179=VERTEX_POINT('',#559);
#180=VERTEX_POINT('',#561);
#181=VERTEX_POINT('',#565);
#182=VERTEX_POINT('',#567);
#183=VERTEX_POINT('',#569);
#184=VERTEX_POINT('',#571);
#185=VERTEX_POINT('',#573);
#186=VERTEX_POINT('',#575);
#187=VERTEX_POINT('',#579);
#188=VERTEX_POINT('',#582);
#189=VERTEX_POINT('',#584);
#190=VERTEX_POINT('',#586);
#191=VERTEX_POINT('',#588);
#192=VERTEX_POINT('',#591);
#193=VERTEX_POINT('',#593);
#194=VERTEX_POINT('',#597);
#195=VERTEX_POINT('',#599);
#196=VERTEX_POINT('',#603);
#197=VERTEX_POINT('',#605);
#198=VERTEX_POINT('',#609);
#199=VERTEX_POINT('',#613);
#200=VERTEX_POINT('',#619);
#201=VERTEX_POINT('',#624);
#202=VERTEX_POINT('',#626);
#203=VERTEX_POINT('',#628);
#204=VERTEX_POINT('',#630);
#205=VERTEX_POINT('',#633);
#206=VERTEX_POINT('',#639);
#207=VERTEX_POINT('',#645);
#208=VERTEX_POINT('',#651);
#209=EDGE_CURVE('',#177,#178,#109,.T.);
#210=EDGE_CURVE('',#179,#177,#110,.T.);
#211=EDGE_CURVE('',#180,#179,#111,.T.);
#212=EDGE_CURVE('',#178,#180,#112,.T.);
#213=EDGE_CURVE('',#177,#181,#113,.T.);
#214=EDGE_CURVE('',#181,#182,#114,.T.);
#215=EDGE_CURVE('',#182,#183,#115,.T.);
#216=EDGE_CURVE('',#183,#184,#116,.T.);
#217=EDGE_CURVE('',#184,#185,#117,.T.);
#218=EDGE_CURVE('',#185,#186,#118,.T.);
#219=EDGE_CURVE('',#179,#186,#119,.T.);
#220=EDGE_CURVE('',#187,#178,#120,.T.);
#221=EDGE_CURVE('',#187,#181,#121,.T.);
#222=EDGE_CURVE('',#188,#188,#41,.T.);
#223=EDGE_CURVE('',#189,#189,#42,.T.);
#224=EDGE_CURVE('',#190,#190,#43,.T.);
#225=EDGE_CURVE('',#191,#191,#44,.T.);
#226=EDGE_CURVE('',#192,#192,#45,.T.);
#227=EDGE_CURVE('',#192,#193,#122,.T.);
#228=EDGE_CURVE('',#193,#193,#46,.T.);
#229=EDGE_CURVE('',#194,#194,#47,.T.);
#230=EDGE_CURVE('',#194,#195,#123,.T.);
#231=EDGE_CURVE('',#195,#195,#48,.T.);
#232=EDGE_CURVE('',#185,#196,#124,.T.);
#233=EDGE_CURVE('',#197,#184,#125,.T.);
#234=EDGE_CURVE('',#197,#196,#126,.T.);
#235=EDGE_CURVE('',#198,#197,#127,.T.);
#236=EDGE_CURVE('',#198,#183,#128,.T.);
#237=EDGE_CURVE('',#198,#199,#129,.T.);
#238=EDGE_CURVE('',#199,#182,#130,.T.);
#239=EDGE_CURVE('',#199,#187,#131,.T.);
#240=EDGE_CURVE('',#200,#196,#132,.T.);
#241=EDGE_CURVE('',#186,#200,#133,.T.);
#242=EDGE_CURVE('',#200,#180,#134,.T.);
#243=EDGE_CURVE('',#201,#201,#49,.T.);
#244=EDGE_CURVE('',#202,#202,#50,.T.);
#245=EDGE_CURVE('',#203,#203,#51,.T.);
#246=EDGE_CURVE('',#204,#204,#52,.T.);
#247=EDGE_CURVE('',#204,#205,#135,.T.);
#248=EDGE_CURVE('',#205,#205,#53,.T.);
#249=EDGE_CURVE('',#205,#188,#136,.T.);
#250=EDGE_CURVE('',#203,#206,#137,.T.);
#251=EDGE_CURVE('',#206,#206,#54,.T.);
#252=EDGE_CURVE('',#206,#189,#138,.T.);
#253=EDGE_CURVE('',#202,#207,#139,.T.);
#254=EDGE_CURVE('',#207,#207,#55,.T.);
#255=EDGE_CURVE('',#207,#190,#140,.T.);
#256=EDGE_CURVE('',#201,#208,#141,.T.);
#257=EDGE_CURVE('',#208,#208,#56,.T.);
#258=EDGE_CURVE('',#208,#191,#142,.T.);
#259=ORIENTED_EDGE('',*,*,#209,.F.);
#260=ORIENTED_EDGE('',*,*,#210,.F.);
#261=ORIENTED_EDGE('',*,*,#211,.F.);
#262=ORIENTED_EDGE('',*,*,#212,.F.);
#263=ORIENTED_EDGE('',*,*,#210,.T.);
#264=ORIENTED_EDGE('',*,*,#213,.T.);
#265=ORIENTED_EDGE('',*,*,#214,.T.);
#266=ORIENTED_EDGE('',*,*,#215,.T.);
#267=ORIENTED_EDGE('',*,*,#216,.T.);
#268=ORIENTED_EDGE('',*,*,#217,.T.);
#269=ORIENTED_EDGE('',*,*,#218,.T.);
#270=ORIENTED_EDGE('',*,*,#219,.F.);
#271=ORIENTED_EDGE('',*,*,#209,.T.);
#272=ORIENTED_EDGE('',*,*,#220,.F.);
#273=ORIENTED_EDGE('',*,*,#221,.T.);
#274=ORIENTED_EDGE('',*,*,#213,.F.);
#275=ORIENTED_EDGE('',*,*,#222,.F.);
#276=ORIENTED_EDGE('',*,*,#223,.F.);
#277=ORIENTED_EDGE('',*,*,#224,.F.);
#278=ORIENTED_EDGE('',*,*,#225,.F.);
#279=ORIENTED_EDGE('',*,*,#226,.F.);
#280=ORIENTED_EDGE('',*,*,#227,.T.);
#281=ORIENTED_EDGE('',*,*,#228,.F.);
#282=ORIENTED_EDGE('',*,*,#227,.F.);
#283=ORIENTED_EDGE('',*,*,#229,.F.);
#284=ORIENTED_EDGE('',*,*,#230,.T.);
#285=ORIENTED_EDGE('',*,*,#231,.F.);
#286=ORIENTED_EDGE('',*,*,#230,.F.);
#287=ORIENTED_EDGE('',*,*,#232,.F.);
#288=ORIENTED_EDGE('',*,*,#217,.F.);
#289=ORIENTED_EDGE('',*,*,#233,.F.);
#290=ORIENTED_EDGE('',*,*,#234,.T.);
#291=ORIENTED_EDGE('',*,*,#228,.T.);
#292=ORIENTED_EDGE('',*,*,#231,.T.);
#293=ORIENTED_EDGE('',*,*,#235,.T.);
#294=ORIENTED_EDGE('',*,*,#233,.T.);
#295=ORIENTED_EDGE('',*,*,#216,.F.);
#296=ORIENTED_EDGE('',*,*,#236,.F.);
#297=ORIENTED_EDGE('',*,*,#237,.F.);
#298=ORIENTED_EDGE('',*,*,#236,.T.);
#299=ORIENTED_EDGE('',*,*,#215,.F.);
#300=ORIENTED_EDGE('',*,*,#238,.F.);
#301=ORIENTED_EDGE('',*,*,#226,.T.);
#302=ORIENTED_EDGE('',*,*,#229,.T.);
#303=ORIENTED_EDGE('',*,*,#239,.F.);
#304=ORIENTED_EDGE('',*,*,#238,.T.);
#305=ORIENTED_EDGE('',*,*,#214,.F.);
#306=ORIENTED_EDGE('',*,*,#221,.F.);
#307=ORIENTED_EDGE('',*,*,#232,.T.);
#308=ORIENTED_EDGE('',*,*,#240,.F.);
#309=ORIENTED_EDGE('',*,*,#241,.F.);
#310=ORIENTED_EDGE('',*,*,#218,.F.);
#311=ORIENTED_EDGE('',*,*,#211,.T.);
#312=ORIENTED_EDGE('',*,*,#219,.T.);
#313=ORIENTED_EDGE('',*,*,#241,.T.);
#314=ORIENTED_EDGE('',*,*,#242,.T.);
#315=ORIENTED_EDGE('',*,*,#243,.T.);
#316=ORIENTED_EDGE('',*,*,#244,.T.);
#317=ORIENTED_EDGE('',*,*,#245,.T.);
#318=ORIENTED_EDGE('',*,*,#246,.T.);
#319=ORIENTED_EDGE('',*,*,#246,.F.);
#320=ORIENTED_EDGE('',*,*,#247,.T.);
#321=ORIENTED_EDGE('',*,*,#248,.T.);
#322=ORIENTED_EDGE('',*,*,#247,.F.);
#323=ORIENTED_EDGE('',*,*,#248,.F.);
#324=ORIENTED_EDGE('',*,*,#249,.T.);
#325=ORIENTED_EDGE('',*,*,#222,.T.);
#326=ORIENTED_EDGE('',*,*,#249,.F.);
#327=ORIENTED_EDGE('',*,*,#245,.F.);
#328=ORIENTED_EDGE('',*,*,#250,.T.);
#329=ORIENTED_EDGE('',*,*,#251,.T.);
#330=ORIENTED_EDGE('',*,*,#250,.F.);
#331=ORIENTED_EDGE('',*,*,#251,.F.);
#332=ORIENTED_EDGE('',*,*,#252,.T.);
#333=ORIENTED_EDGE('',*,*,#223,.T.);
#334=ORIENTED_EDGE('',*,*,#252,.F.);
#335=ORIENTED_EDGE('',*,*,#244,.F.);
#336=ORIENTED_EDGE('',*,*,#253,.T.);
#337=ORIENTED_EDGE('',*,*,#254,.T.);
#338=ORIENTED_EDGE('',*,*,#253,.F.);
#339=ORIENTED_EDGE('',*,*,#254,.F.);
#340=ORIENTED_EDGE('',*,*,#255,.T.);
#341=ORIENTED_EDGE('',*,*,#224,.T.);
#342=ORIENTED_EDGE('',*,*,#255,.F.);
#343=ORIENTED_EDGE('',*,*,#243,.F.);
#344=ORIENTED_EDGE('',*,*,#256,.T.);
#345=ORIENTED_EDGE('',*,*,#257,.T.);
#346=ORIENTED_EDGE('',*,*,#256,.F.);
#347=ORIENTED_EDGE('',*,*,#257,.F.);
#348=ORIENTED_EDGE('',*,*,#258,.T.);
#349=ORIENTED_EDGE('',*,*,#225,.T.);
#350=ORIENTED_EDGE('',*,*,#258,.F.);
#351=ORIENTED_EDGE('',*,*,#212,.T.);
#352=ORIENTED_EDGE('',*,*,#242,.F.);
#353=ORIENTED_EDGE('',*,*,#240,.T.);
#354=ORIENTED_EDGE('',*,*,#234,.F.);
#355=ORIENTED_EDGE('',*,*,#235,.F.);
#356=ORIENTED_EDGE('',*,*,#237,.T.);
#357=ORIENTED_EDGE('',*,*,#239,.T.);
#358=ORIENTED_EDGE('',*,*,#220,.T.);
#359=PLANE('',#404);
#360=PLANE('',#405);
#361=PLANE('',#406);
#362=PLANE('',#417);
#363=PLANE('',#418);
#364=PLANE('',#419);
#365=PLANE('',#420);
#366=PLANE('',#421);
#367=PLANE('',#422);
#368=PLANE('',#439);
#369=ADVANCED_FACE('',(#57),#359,.F.);
#370=ADVANCED_FACE('',(#58),#360,.F.);
#371=ADVANCED_FACE('',(#59,#29,#30,#31,#32),#361,.F.);
#372=ADVANCED_FACE('',(#60),#23,.F.);
#373=ADVANCED_FACE('',(#61),#24,.F.);
#374=ADVANCED_FACE('',(#62,#33,#34),#362,.T.);
#375=ADVANCED_FACE('',(#63),#363,.T.);
#376=ADVANCED_FACE('',(#64,#35,#36),#364,.T.);
#377=ADVANCED_FACE('',(#65),#365,.T.);
#378=ADVANCED_FACE('',(#66),#366,.F.);
#379=ADVANCED_FACE('',(#67,#37,#38,#39,#40),#367,.T.);
#380=ADVANCED_FACE('',(#68),#19,.F.);
#381=ADVANCED_FACE('',(#69),#25,.F.);
#382=ADVANCED_FACE('',(#70),#20,.F.);
#383=ADVANCED_FACE('',(#71),#26,.F.);
#384=ADVANCED_FACE('',(#72),#21,.F.);
#385=ADVANCED_FACE('',(#73),#27,.F.);
#386=ADVANCED_FACE('',(#74),#22,.F.);
#387=ADVANCED_FACE('',(#75),#28,.F.);
#388=ADVANCED_FACE('',(#76),#368,.F.);
#389=CLOSED_SHELL('',(#369,#370,#371,#372,#373,#374,#375,#376,#377,#378,
#379,#380,#381,#382,#383,#384,#385,#386,#387,#388));
#390=DERIVED_UNIT_ELEMENT(#392,1.);
#391=DERIVED_UNIT_ELEMENT(#665,-3.);
#392=(
MASS_UNIT()
NAMED_UNIT(*)
SI_UNIT(.KILO.,.GRAM.)
);
#393=DERIVED_UNIT((#390,#391));
#394=MEASURE_REPRESENTATION_ITEM('density measure',
POSITIVE_RATIO_MEASURE(7850.),#393);
#395=PROPERTY_DEFINITION_REPRESENTATION(#400,#397);
#396=PROPERTY_DEFINITION_REPRESENTATION(#401,#398);
#397=REPRESENTATION('material name',(#399),#662);
#398=REPRESENTATION('density',(#394),#662);
#399=DESCRIPTIVE_REPRESENTATION_ITEM('Steel','Steel');
#400=PROPERTY_DEFINITION('material property','material name',#677);
#401=PROPERTY_DEFINITION('material property','density of part',#677);
#402=AXIS2_PLACEMENT_3D('',#553,#441,#442);
#403=AXIS2_PLACEMENT_3D('',#554,#443,#444);
#404=AXIS2_PLACEMENT_3D('',#555,#445,#446);
#405=AXIS2_PLACEMENT_3D('',#564,#451,#452);
#406=AXIS2_PLACEMENT_3D('',#578,#460,#461);
#407=AXIS2_PLACEMENT_3D('',#583,#464,#465);
#408=AXIS2_PLACEMENT_3D('',#585,#466,#467);
#409=AXIS2_PLACEMENT_3D('',#587,#468,#469);
#410=AXIS2_PLACEMENT_3D('',#589,#470,#471);
#411=AXIS2_PLACEMENT_3D('',#590,#472,#473);
#412=AXIS2_PLACEMENT_3D('',#592,#474,#475);
#413=AXIS2_PLACEMENT_3D('',#595,#477,#478);
#414=AXIS2_PLACEMENT_3D('',#596,#479,#480);
#415=AXIS2_PLACEMENT_3D('',#598,#481,#482);
#416=AXIS2_PLACEMENT_3D('',#601,#484,#485);
#417=AXIS2_PLACEMENT_3D('',#602,#486,#487);
#418=AXIS2_PLACEMENT_3D('',#608,#491,#492);
#419=AXIS2_PLACEMENT_3D('',#612,#495,#496);
#420=AXIS2_PLACEMENT_3D('',#616,#499,#500);
#421=AXIS2_PLACEMENT_3D('',#618,#502,#503);
#422=AXIS2_PLACEMENT_3D('',#622,#506,#507);
#423=AXIS2_PLACEMENT_3D('',#625,#509,#510);
#424=AXIS2_PLACEMENT_3D('',#627,#511,#512);
#425=AXIS2_PLACEMENT_3D('',#629,#513,#514);
#426=AXIS2_PLACEMENT_3D('',#631,#515,#516);
#427=AXIS2_PLACEMENT_3D('',#632,#517,#518);
#428=AXIS2_PLACEMENT_3D('',#635,#520,#521);
#429=AXIS2_PLACEMENT_3D('',#636,#522,#523);
#430=AXIS2_PLACEMENT_3D('',#638,#525,#526);
#431=AXIS2_PLACEMENT_3D('',#641,#528,#529);
#432=AXIS2_PLACEMENT_3D('',#642,#530,#531);
#433=AXIS2_PLACEMENT_3D('',#644,#533,#534);
#434=AXIS2_PLACEMENT_3D('',#647,#536,#537);
#435=AXIS2_PLACEMENT_3D('',#648,#538,#539);
#436=AXIS2_PLACEMENT_3D('',#650,#541,#542);
#437=AXIS2_PLACEMENT_3D('',#653,#544,#545);
#438=AXIS2_PLACEMENT_3D('',#654,#546,#547);
#439=AXIS2_PLACEMENT_3D('',#656,#549,#550);
#440=AXIS2_PLACEMENT_3D('',#657,#551,#552);
#441=DIRECTION('axis',(0.,0.,1.));
#442=DIRECTION('refdir',(1.,0.,0.));
#443=DIRECTION('axis',(0.,0.,1.));
#444=DIRECTION('refdir',(1.,0.,0.));
#445=DIRECTION('center_axis',(0.,0.,-1.));
#446=DIRECTION('ref_axis',(-1.,0.,0.));
#447=DIRECTION('',(1.,0.,0.));
#448=DIRECTION('',(0.,1.,0.));
#449=DIRECTION('',(-1.,0.,0.));
#450=DIRECTION('',(0.,-1.,0.));
#451=DIRECTION('center_axis',(1.,0.,0.));
#452=DIRECTION('ref_axis',(0.,1.,0.));
#453=DIRECTION('',(0.,0.,-1.));
#454=DIRECTION('',(0.,0.258819045102524,-0.965925826289068));
#455=DIRECTION('',(0.,0.,-1.));
#456=DIRECTION('',(0.,-0.258819045102496,-0.965925826289075));
#457=DIRECTION('',(0.,0.,1.));
#458=DIRECTION('',(0.,-1.,0.));
#459=DIRECTION('',(0.,0.,-1.));
#460=DIRECTION('center_axis',(0.,-1.,0.));
#461=DIRECTION('ref_axis',(0.,0.,1.));
#462=DIRECTION('',(0.,0.,1.));
#463=DIRECTION('',(-1.,0.,0.));
#464=DIRECTION('center_axis',(0.,1.,0.));
#465=DIRECTION('ref_axis',(0.,0.,-1.));
#466=DIRECTION('center_axis',(0.,1.,0.));
#467=DIRECTION('ref_axis',(0.,0.,-1.));
#468=DIRECTION('center_axis',(0.,1.,0.));
#469=DIRECTION('ref_axis',(0.,0.,-1.));
#470=DIRECTION('center_axis',(0.,1.,0.));
#471=DIRECTION('ref_axis',(0.,0.,-1.));
#472=DIRECTION('center_axis',(0.,-1.,0.));
#473=DIRECTION('ref_axis',(0.,0.,1.));
#474=DIRECTION('center_axis',(0.,-1.,0.));
#475=DIRECTION('ref_axis',(0.,0.,1.));
#476=DIRECTION('',(0.,-1.,0.));
#477=DIRECTION('center_axis',(0.,1.,0.));
#478=DIRECTION('ref_axis',(0.,0.,1.));
#479=DIRECTION('center_axis',(0.,-1.,0.));
#480=DIRECTION('ref_axis',(0.,0.,1.));
#481=DIRECTION('center_axis',(0.,-1.,0.));
#482=DIRECTION('ref_axis',(0.,0.,1.));
#483=DIRECTION('',(0.,-1.,0.));
#484=DIRECTION('center_axis',(0.,1.,0.));
#485=DIRECTION('ref_axis',(0.,0.,1.));
#486=DIRECTION('center_axis',(0.,-1.,0.));
#487=DIRECTION('ref_axis',(0.,0.,1.));
#488=DIRECTION('',(1.,0.,0.));
#489=DIRECTION('',(-1.,0.,0.));
#490=DIRECTION('',(0.,0.,1.));
#491=DIRECTION('center_axis',(0.,0.965925826289075,-0.258819045102496));
#492=DIRECTION('ref_axis',(0.,-0.258819045102496,-0.965925826289075));
#493=DIRECTION('',(0.,-0.258819045102496,-0.965925826289075));
#494=DIRECTION('',(-1.,0.,0.));
#495=DIRECTION('center_axis',(0.,1.,0.));
#496=DIRECTION('ref_axis',(0.,0.,-1.));
#497=DIRECTION('',(0.,0.,1.));
#498=DIRECTION('',(-1.,0.,0.));
#499=DIRECTION('center_axis',(0.,0.965925826289068,0.258819045102524));
#500=DIRECTION('ref_axis',(0.,0.258819045102524,-0.965925826289068));
#501=DIRECTION('',(0.,-0.258819045102524,0.965925826289068));
#502=DIRECTION('center_axis',(0.,0.,1.));
#503=DIRECTION('ref_axis',(1.,0.,0.));
#504=DIRECTION('',(0.,1.,0.));
#505=DIRECTION('',(1.,0.,0.));
#506=DIRECTION('center_axis',(0.,-1.,0.));
#507=DIRECTION('ref_axis',(0.,0.,1.));
#508=DIRECTION('',(0.,0.,1.));
#509=DIRECTION('center_axis',(0.,1.,0.));
#510=DIRECTION('ref_axis',(0.,0.,-1.));
#511=DIRECTION('center_axis',(0.,1.,0.));
#512=DIRECTION('ref_axis',(0.,0.,-1.));
#513=DIRECTION('center_axis',(0.,1.,0.));
#514=DIRECTION('ref_axis',(0.,0.,-1.));
#515=DIRECTION('center_axis',(0.,1.,0.));
#516=DIRECTION('ref_axis',(0.,0.,-1.));
#517=DIRECTION('center_axis',(0.,-1.,0.));
#518=DIRECTION('ref_axis',(0.,0.,-1.));
#519=DIRECTION('',(-8.03440589904945E-17,0.754709580222772,-0.656059028990507));
#520=DIRECTION('center_axis',(0.,1.,0.));
#521=DIRECTION('ref_axis',(0.,0.,-1.));
#522=DIRECTION('center_axis',(0.,1.,0.));
#523=DIRECTION('ref_axis',(0.,0.,-1.));
#524=DIRECTION('',(0.,1.,0.));
#525=DIRECTION('center_axis',(0.,-1.,0.));
#526=DIRECTION('ref_axis',(0.,0.,-1.));
#527=DIRECTION('',(-8.03440589904945E-17,0.754709580222772,-0.656059028990507));
#528=DIRECTION('center_axis',(0.,1.,0.));
#529=DIRECTION('ref_axis',(0.,0.,-1.));
#530=DIRECTION('center_axis',(0.,1.,0.));
#531=DIRECTION('ref_axis',(0.,0.,-1.));
#532=DIRECTION('',(0.,1.,0.));
#533=DIRECTION('center_axis',(0.,-1.,0.));
#534=DIRECTION('ref_axis',(0.,0.,-1.));
#535=DIRECTION('',(-8.03440589904945E-17,0.754709580222772,-0.656059028990507));
#536=DIRECTION('center_axis',(0.,1.,0.));
#537=DIRECTION('ref_axis',(0.,0.,-1.));
#538=DIRECTION('center_axis',(0.,1.,0.));
#539=DIRECTION('ref_axis',(0.,0.,-1.));
#540=DIRECTION('',(0.,1.,0.));
#541=DIRECTION('center_axis',(0.,-1.,0.));
#542=DIRECTION('ref_axis',(0.,0.,-1.));
#543=DIRECTION('',(-8.03440589904945E-17,0.754709580222772,-0.656059028990507));
#544=DIRECTION('center_axis',(0.,1.,0.));
#545=DIRECTION('ref_axis',(0.,0.,-1.));
#546=DIRECTION('center_axis',(0.,1.,0.));
#547=DIRECTION('ref_axis',(0.,0.,-1.));
#548=DIRECTION('',(0.,1.,0.));
#549=DIRECTION('center_axis',(-1.,0.,0.));
#550=DIRECTION('ref_axis',(0.,-1.,0.));
#551=DIRECTION('',(0.,0.,1.));
#552=DIRECTION('',(1.,0.,0.));
#553=CARTESIAN_POINT('',(0.,0.,0.));
#554=CARTESIAN_POINT('',(0.,0.,0.));
#555=CARTESIAN_POINT('Origin',(15.,-10.,-115.));
#556=CARTESIAN_POINT('',(0.,-17.5,-115.));
#557=CARTESIAN_POINT('',(30.,-17.5,-115.));
#558=CARTESIAN_POINT('',(15.,-17.5,-115.));
#559=CARTESIAN_POINT('',(0.,-20.,-115.));
#560=CARTESIAN_POINT('',(0.,-10.,-115.));
#561=CARTESIAN_POINT('',(30.,-20.,-115.));
#562=CARTESIAN_POINT('',(15.,-20.,-115.));
#563=CARTESIAN_POINT('',(30.,-10.,-115.));
#564=CARTESIAN_POINT('Origin',(0.,-10.,-225.));
#565=CARTESIAN_POINT('',(0.,-17.5000000000001,-340.619872981078));
#566=CARTESIAN_POINT('',(0.,-17.5,-225.));
#567=CARTESIAN_POINT('',(0.,-15.,-349.95));
#568=CARTESIAN_POINT('',(0.,-15.,-349.95));
#569=CARTESIAN_POINT('',(0.,-15.,-359.95));
#570=CARTESIAN_POINT('',(0.,-15.,-362.45));
#571=CARTESIAN_POINT('',(0.,-17.5,-369.280127018923));
#572=CARTESIAN_POINT('',(0.,-15.,-359.95));
#573=CARTESIAN_POINT('',(0.,-17.5,-349.95));
#574=CARTESIAN_POINT('',(0.,-17.5,-349.95));
#575=CARTESIAN_POINT('',(0.,-20.,-349.95));
#576=CARTESIAN_POINT('',(0.,-10.,-349.95));
#577=CARTESIAN_POINT('',(0.,-20.,-225.));
#578=CARTESIAN_POINT('Origin',(15.,-17.5,-225.));
#579=CARTESIAN_POINT('',(30.,-17.5000000000001,-340.619872981078));
#580=CARTESIAN_POINT('',(30.,-17.5,-225.));
#581=CARTESIAN_POINT('',(22.5,-17.5,-340.619872981078));
#582=CARTESIAN_POINT('',(5.,-17.5,-126.1015));
#583=CARTESIAN_POINT('Origin',(5.,-17.5,-128.));
#584=CARTESIAN_POINT('',(25.0000002980232,-17.5,-118.1015));
#585=CARTESIAN_POINT('Origin',(25.0000002980232,-17.5,-120.));
#586=CARTESIAN_POINT('',(5.,-17.5,-118.1015));
#587=CARTESIAN_POINT('Origin',(5.,-17.5,-120.));
#588=CARTESIAN_POINT('',(25.0000002980232,-17.5,-126.1015));
#589=CARTESIAN_POINT('Origin',(25.0000002980232,-17.5,-128.));
#590=CARTESIAN_POINT('Origin',(25.,-17.75,-355.));
#591=CARTESIAN_POINT('',(25.,-15.,-356.425));
#592=CARTESIAN_POINT('Origin',(25.,-15.,-355.));
#593=CARTESIAN_POINT('',(25.,-17.5,-356.425));
#594=CARTESIAN_POINT('',(25.,-17.75,-356.425));
#595=CARTESIAN_POINT('Origin',(25.,-17.5,-355.));
#596=CARTESIAN_POINT('Origin',(5.,-17.75,-355.));
#597=CARTESIAN_POINT('',(5.,-15.,-356.425));
#598=CARTESIAN_POINT('Origin',(5.,-15.,-355.));
#599=CARTESIAN_POINT('',(5.,-17.5,-356.425));
#600=CARTESIAN_POINT('',(5.,-17.75,-356.425));
#601=CARTESIAN_POINT('Origin',(5.,-17.5,-355.));
#602=CARTESIAN_POINT('Origin',(30.,-17.5,-369.280127018923));
#603=CARTESIAN_POINT('',(30.,-17.5,-349.95));
#604=CARTESIAN_POINT('',(15.,-17.5,-349.95));
#605=CARTESIAN_POINT('',(30.,-17.5,-369.280127018923));
#606=CARTESIAN_POINT('',(30.,-17.5,-369.280127018923));
#607=CARTESIAN_POINT('',(30.,-17.5,-349.95));
#608=CARTESIAN_POINT('Origin',(30.,-15.,-359.95));
#609=CARTESIAN_POINT('',(30.,-15.,-359.95));
#610=CARTESIAN_POINT('',(30.,-15.,-359.95));
#611=CARTESIAN_POINT('',(30.,-15.,-359.95));
#612=CARTESIAN_POINT('Origin',(30.,-15.,-349.95));
#613=CARTESIAN_POINT('',(30.,-15.,-349.95));
#614=CARTESIAN_POINT('',(30.,-15.,-362.45));
#615=CARTESIAN_POINT('',(30.,-15.,-349.95));
#616=CARTESIAN_POINT('Origin',(30.,-17.5000000000001,-340.619872981078));
#617=CARTESIAN_POINT('',(30.,-15.,-349.95));
#618=CARTESIAN_POINT('Origin',(15.,-10.,-349.95));
#619=CARTESIAN_POINT('',(30.,-20.,-349.95));
#620=CARTESIAN_POINT('',(30.,-10.,-349.95));
#621=CARTESIAN_POINT('',(15.,-20.,-349.95));
#622=CARTESIAN_POINT('Origin',(15.,-20.,-225.));
#623=CARTESIAN_POINT('',(30.,-20.,-225.));
#624=CARTESIAN_POINT('',(25.0000002980232,-20.,-124.4565));
#625=CARTESIAN_POINT('Origin',(25.0000002980232,-20.,-128.));
#626=CARTESIAN_POINT('',(5.,-20.,-116.4565));
#627=CARTESIAN_POINT('Origin',(5.,-20.,-120.));
#628=CARTESIAN_POINT('',(25.0000002980232,-20.,-116.4565));
#629=CARTESIAN_POINT('Origin',(25.0000002980232,-20.,-120.));
#630=CARTESIAN_POINT('',(5.,-20.,-124.4565));
#631=CARTESIAN_POINT('Origin',(5.,-20.,-128.));
#632=CARTESIAN_POINT('Origin',(5.,-19.0538219850607,-128.));
#633=CARTESIAN_POINT('',(5.,-18.1076439701214,-126.1015));
#634=CARTESIAN_POINT('',(5.,-19.0538219850607,-125.279));
#635=CARTESIAN_POINT('Origin',(5.,-18.1076439701214,-128.));
#636=CARTESIAN_POINT('Origin',(5.,-15.5,-128.));
#637=CARTESIAN_POINT('',(5.,-15.5,-126.1015));
#638=CARTESIAN_POINT('Origin',(25.0000002980232,-19.0538219850607,-120.));
#639=CARTESIAN_POINT('',(25.0000002980232,-18.1076439701214,-118.1015));
#640=CARTESIAN_POINT('',(25.0000002980232,-19.0538219850607,-117.279));
#641=CARTESIAN_POINT('Origin',(25.0000002980232,-18.1076439701214,-120.));
#642=CARTESIAN_POINT('Origin',(25.0000002980232,-15.5,-120.));
#643=CARTESIAN_POINT('',(25.0000002980232,-15.5,-118.1015));
#644=CARTESIAN_POINT('Origin',(5.,-19.0538219850607,-120.));
#645=CARTESIAN_POINT('',(5.,-18.1076439701214,-118.1015));
#646=CARTESIAN_POINT('',(5.,-19.0538219850607,-117.279));
#647=CARTESIAN_POINT('Origin',(5.,-18.1076439701214,-120.));
#648=CARTESIAN_POINT('Origin',(5.,-15.5,-120.));
#649=CARTESIAN_POINT('',(5.,-15.5,-118.1015));
#650=CARTESIAN_POINT('Origin',(25.0000002980232,-19.0538219850607,-128.));
#651=CARTESIAN_POINT('',(25.0000002980232,-18.1076439701214,-126.1015));
#652=CARTESIAN_POINT('',(25.0000002980232,-19.0538219850607,-125.279));
#653=CARTESIAN_POINT('Origin',(25.0000002980232,-18.1076439701214,-128.));
#654=CARTESIAN_POINT('Origin',(25.0000002980232,-15.5,-128.));
#655=CARTESIAN_POINT('',(25.0000002980232,-15.5,-126.1015));
#656=CARTESIAN_POINT('Origin',(30.,-10.,-225.));
#657=CARTESIAN_POINT('',(0.,0.,0.));
#658=UNCERTAINTY_MEASURE_WITH_UNIT(LENGTH_MEASURE(0.01),#664,
'DISTANCE_ACCURACY_VALUE',
'Maximum model space distance between geometric entities at asserted c
onnectivities');
#659=UNCERTAINTY_MEASURE_WITH_UNIT(LENGTH_MEASURE(0.01),#664,
'DISTANCE_ACCURACY_VALUE',
'Maximum model space distance between geometric entities at asserted c
onnectivities');
#660=UNCERTAINTY_MEASURE_WITH_UNIT(LENGTH_MEASURE(0.01),#664,
'DISTANCE_ACCURACY_VALUE',
'Maximum model space distance between geometric entities at asserted c
onnectivities');
#661=(
GEOMETRIC_REPRESENTATION_CONTEXT(3)
GLOBAL_UNCERTAINTY_ASSIGNED_CONTEXT((#658))
GLOBAL_UNIT_ASSIGNED_CONTEXT((#664,#666,#667))
REPRESENTATION_CONTEXT('','3D')
);
#662=(
GEOMETRIC_REPRESENTATION_CONTEXT(3)
GLOBAL_UNCERTAINTY_ASSIGNED_CONTEXT((#659))
GLOBAL_UNIT_ASSIGNED_CONTEXT((#664,#666,#667))
REPRESENTATION_CONTEXT('','3D')
);
#663=(
GEOMETRIC_REPRESENTATION_CONTEXT(3)
GLOBAL_UNCERTAINTY_ASSIGNED_CONTEXT((#660))
GLOBAL_UNIT_ASSIGNED_CONTEXT((#664,#666,#667))
REPRESENTATION_CONTEXT('','3D')
);
#664=(
LENGTH_UNIT()
NAMED_UNIT(*)
SI_UNIT(.MILLI.,.METRE.)
);
#665=(
LENGTH_UNIT()
NAMED_UNIT(*)
SI_UNIT($,.METRE.)
);
#666=(
NAMED_UNIT(*)
PLANE_ANGLE_UNIT()
SI_UNIT($,.RADIAN.)
);
#667=(
NAMED_UNIT(*)
SI_UNIT($,.STERADIAN.)
SOLID_ANGLE_UNIT()
);
#668=SHAPE_DEFINITION_REPRESENTATION(#670,#673);
#669=SHAPE_DEFINITION_REPRESENTATION(#671,#674);
#670=PRODUCT_DEFINITION_SHAPE('',$,#676);
#671=PRODUCT_DEFINITION_SHAPE('',$,#677);
#672=PRODUCT_DEFINITION_SHAPE($,$,#14);
#673=SHAPE_REPRESENTATION('',(#402,#440),#661);
#674=SHAPE_REPRESENTATION('',(#403),#662);
#675=PRODUCT_DEFINITION_CONTEXT('part definition',#683,'design');
#676=PRODUCT_DEFINITION('LED Light Holder Side',
'LED Light Holder Side v21',#678,#675);
#677=PRODUCT_DEFINITION('Component1','Component1',#679,#675);
#678=PRODUCT_DEFINITION_FORMATION('',$,#685);
#679=PRODUCT_DEFINITION_FORMATION('',$,#686);
#680=PRODUCT_RELATED_PRODUCT_CATEGORY('LED Light Holder Side v21',
'LED Light Holder Side v21',(#685));
#681=PRODUCT_RELATED_PRODUCT_CATEGORY('Component1','Component1',(#686));
#682=APPLICATION_PROTOCOL_DEFINITION('international standard',
'automotive_design',2009,#683);
#683=APPLICATION_CONTEXT(
'Core Data for Automotive Mechanical Design Process');
#684=PRODUCT_CONTEXT('part definition',#683,'mechanical');
#685=PRODUCT('LED Light Holder Side','LED Light Holder Side v21',$,(#684));
#686=PRODUCT('Component1','Component1',$,(#684));
#687=PRESENTATION_STYLE_ASSIGNMENT((#689));
#688=PRESENTATION_STYLE_ASSIGNMENT((#690));
#689=SURFACE_STYLE_USAGE(.BOTH.,#691);
#690=SURFACE_STYLE_USAGE(.BOTH.,#692);
#691=SURFACE_SIDE_STYLE('',(#693));
#692=SURFACE_SIDE_STYLE('',(#694));
#693=SURFACE_STYLE_FILL_AREA(#695);
#694=SURFACE_STYLE_FILL_AREA(#696);
#695=FILL_AREA_STYLE('Steel - Satin',(#697));
#696=FILL_AREA_STYLE('Powder Coat - Rough (Black)',(#698));
#697=FILL_AREA_STYLE_COLOUR('Steel - Satin',#699);
#698=FILL_AREA_STYLE_COLOUR('Powder Coat - Rough (Black)',#700);
#699=COLOUR_RGB('Steel - Satin',0.627450980392157,0.627450980392157,0.627450980392157);
#700=COLOUR_RGB('Powder Coat - Rough (Black)',0.0980392156862745,0.0980392156862745,
0.0980392156862745);
ENDSEC;
END-ISO-10303-21;
